<?xml version="1.0" encoding="UTF-8" standalone="no"?>
<!DOCTYPE svg PUBLIC "-//W3C//DTD SVG 1.1//EN"
 "http://www.w3.org/Graphics/SVG/1.1/DTD/svg11.dtd">
<!-- Generated by graphviz version 2.43.0 (0)
 -->
<!-- Title: %3 Pages: 1 -->
<svg width="532pt" height="427pt"
 viewBox="0.00 0.00 531.75 427.00" xmlns="http://www.w3.org/2000/svg" xmlns:xlink="http://www.w3.org/1999/xlink">
<g id="graph0" class="graph" transform="scale(1 1) rotate(0) translate(4 423)">
<title>%3</title>
<polygon fill="white" stroke="transparent" points="-4,4 -4,-423 527.75,-423 527.75,4 -4,4"/>
<g id="clust1" class="cluster">
<title>cluster_North America</title>
<polygon fill="none" stroke="black" points="13.18,-95 13.18,-411 256.93,-411 256.93,-95 13.18,-95"/>
<text text-anchor="middle" x="135.06" y="-395.8" font-family="bold" font-size="14.00">North America</text>
</g>
<g id="clust2" class="cluster">
<title>cluster_Europe</title>
<polygon fill="none" stroke="black" points="270.11,-8 270.11,-280 510.57,-280 510.57,-8 270.11,-8"/>
<text text-anchor="middle" x="390.34" y="-264.8" font-family="bold" font-size="14.00">Europe</text>
</g>
<!-- us&#45;sea01 -->
<g id="node1" class="node">
<title>us&#45;sea01</title>
<ellipse fill="none" stroke="black" cx="174.99" cy="-339" rx="41.69" ry="18"/>
<text text-anchor="middle" x="174.99" y="-335.3" font-family="Times,serif" font-size="14.00">us&#45;sea01</text>
</g>
<!-- ca&#45;bhs01 -->
<g id="node2" class="node">
<title>ca&#45;bhs01</title>
<ellipse fill="none" stroke="black" cx="174.99" cy="-121" rx="42.49" ry="18"/>
<text text-anchor="middle" x="174.99" y="-117.3" font-family="Times,serif" font-size="14.00">ca&#45;bhs01</text>
</g>
<!-- us&#45;sea01&#45;&gt;ca&#45;bhs01 -->
<g id="edge1" class="edge">
<title>us&#45;sea01&#45;&gt;ca&#45;bhs01</title>
<path fill="none" stroke="grey" d="M174.99,-310.43C174.99,-268.86 174.99,-190.63 174.99,-149.25"/>
<polygon fill="grey" stroke="grey" points="171.49,-310.69 174.99,-320.69 178.49,-310.69 171.49,-310.69"/>
<polygon fill="grey" stroke="grey" points="178.49,-149.09 174.99,-139.09 171.49,-149.09 178.49,-149.09"/>
<text text-anchor="middle" x="181.99" y="-204.3" font-family="Times,serif" font-size="14.00">65</text>
</g>
<!-- us&#45;chi01 -->
<g id="node3" class="node">
<title>us&#45;chi01</title>
<ellipse fill="none" stroke="black" cx="93.99" cy="-208" rx="40.89" ry="18"/>
<text text-anchor="middle" x="93.99" y="-204.3" font-family="Times,serif" font-size="14.00">us&#45;chi01</text>
</g>
<!-- us&#45;sea01&#45;&gt;us&#45;chi01 -->
<g id="edge12" class="edge">
<title>us&#45;sea01&#45;&gt;us&#45;chi01</title>
<path fill="none" stroke="grey" d="M159.23,-312.89C144.99,-290.22 124.14,-257.01 109.87,-234.28"/>
<polygon fill="grey" stroke="grey" points="156.29,-314.79 164.57,-321.4 162.21,-311.07 156.29,-314.79"/>
<polygon fill="grey" stroke="grey" points="112.66,-232.14 104.37,-225.54 106.73,-235.87 112.66,-232.14"/>
<text text-anchor="middle" x="160.99" y="-292.3" font-family="Times,serif" font-size="14.00">45</text>
</g>
<!-- uk&#45;lon01 -->
<g id="node5" class="node">
<title>uk&#45;lon01</title>
<ellipse fill="none" stroke="black" cx="351.99" cy="-208" rx="42.49" ry="18"/>
<text text-anchor="middle" x="351.99" y="-204.3" font-family="Times,serif" font-size="14.00">uk&#45;lon01</text>
</g>
<!-- us&#45;sea01&#45;&gt;uk&#45;lon01 -->
<g id="edge10" class="edge">
<title>us&#45;sea01&#45;&gt;uk&#45;lon01</title>
<path fill="none" stroke="grey" d="M215.57,-323.2C228.05,-317.83 241.51,-311.17 252.99,-303.5 283.16,-283.33 312.57,-253.59 331.39,-232.88"/>
<polygon fill="grey" stroke="grey" points="214.17,-319.99 206.27,-327.05 216.85,-326.46 214.17,-319.99"/>
<polygon fill="grey" stroke="grey" points="334.24,-234.94 338.3,-225.16 329.02,-230.28 334.24,-234.94"/>
<text text-anchor="middle" x="282.49" y="-292.3" font-family="Times,serif" font-size="14.00">125</text>
</g>
<!-- de&#45;nbg01 -->
<g id="node6" class="node">
<title>de&#45;nbg01</title>
<ellipse fill="none" stroke="black" cx="355.99" cy="-34" rx="44.39" ry="18"/>
<text text-anchor="middle" x="355.99" y="-30.3" font-family="Times,serif" font-size="14.00">de&#45;nbg01</text>
</g>
<!-- us&#45;sea01&#45;&gt;de&#45;nbg01 -->
<g id="edge5" class="edge">
<title>us&#45;sea01&#45;&gt;de&#45;nbg01</title>
<path fill="none" stroke="grey" d="M224.5,-331.96C284.28,-323.6 379.74,-306.47 402.99,-280 457.49,-217.97 451.97,-171.12 419.99,-95 413.36,-79.22 400.22,-65.73 387.56,-55.56"/>
<polygon fill="grey" stroke="grey" points="223.93,-328.51 214.5,-333.33 224.88,-335.44 223.93,-328.51"/>
<polygon fill="grey" stroke="grey" points="389.47,-52.62 379.38,-49.37 385.24,-58.2 389.47,-52.62"/>
<text text-anchor="middle" x="453.49" y="-161.3" font-family="Times,serif" font-size="14.00">145</text>
</g>
<!-- us&#45;chi01&#45;&gt;ca&#45;bhs01 -->
<g id="edge2" class="edge">
<title>us&#45;chi01&#45;&gt;ca&#45;bhs01</title>
<path fill="none" stroke="grey" d="M116.49,-183.39C127.82,-171.5 141.51,-157.13 152.8,-145.29"/>
<polygon fill="grey" stroke="grey" points="113.59,-181.36 109.23,-191.01 118.66,-186.19 113.59,-181.36"/>
<polygon fill="grey" stroke="grey" points="155.46,-147.57 159.82,-137.92 150.39,-142.74 155.46,-147.57"/>
<text text-anchor="middle" x="146.99" y="-161.3" font-family="Times,serif" font-size="14.00">20</text>
</g>
<!-- us&#45;chi01&#45;&gt;uk&#45;lon01 -->
<g id="edge11" class="edge">
<title>us&#45;chi01&#45;&gt;uk&#45;lon01</title>
<path fill="none" stroke="grey" d="M118.86,-231.39C138.81,-248.48 168.44,-270.3 198.99,-280 220.17,-286.73 226.77,-280.96 248.99,-280.5 254.33,-280.39 255.99,-281.86 260.99,-280 287.69,-270.09 312.65,-249.17 329.65,-232.42"/>
<polygon fill="grey" stroke="grey" points="121,-228.62 111.19,-224.64 116.38,-233.87 121,-228.62"/>
<polygon fill="grey" stroke="grey" points="332.36,-234.66 336.88,-225.08 327.37,-229.75 332.36,-234.66"/>
<text text-anchor="middle" x="241.99" y="-292.3" font-family="Times,serif" font-size="14.00">90</text>
</g>
<!-- us&#45;chi01&#45;&gt;de&#45;nbg01 -->
<g id="edge6" class="edge">
<title>us&#45;chi01&#45;&gt;de&#45;nbg01</title>
<path fill="none" stroke="grey" d="M88.01,-179.95C84.18,-154.93 83.1,-118.19 102.99,-95 128.62,-65.12 236.77,-48.1 303.1,-40.29"/>
<polygon fill="grey" stroke="grey" points="84.58,-180.65 89.77,-189.89 91.48,-179.43 84.58,-180.65"/>
<polygon fill="grey" stroke="grey" points="303.83,-43.73 313.36,-39.12 303.03,-36.78 303.83,-43.73"/>
<text text-anchor="middle" x="113.49" y="-117.3" font-family="Times,serif" font-size="14.00">105</text>
</g>
<!-- nl&#45;ley01 -->
<g id="node4" class="node">
<title>nl&#45;ley01</title>
<ellipse fill="none" stroke="black" cx="348.99" cy="-121" rx="40.09" ry="18"/>
<text text-anchor="middle" x="348.99" y="-117.3" font-family="Times,serif" font-size="14.00">nl&#45;ley01</text>
</g>
<!-- nl&#45;ley01&#45;&gt;de&#45;nbg01 -->
<g id="edge8" class="edge">
<title>nl&#45;ley01&#45;&gt;de&#45;nbg01</title>
<path fill="none" stroke="grey" d="M351.24,-92.73C352.04,-82.96 352.95,-71.94 353.75,-62.17"/>
<polygon fill="grey" stroke="grey" points="347.74,-92.55 350.41,-102.8 354.72,-93.12 347.74,-92.55"/>
<polygon fill="grey" stroke="grey" points="357.24,-62.43 354.58,-52.18 350.27,-61.85 357.24,-62.43"/>
<text text-anchor="middle" x="358.99" y="-74.3" font-family="Times,serif" font-size="14.00">15</text>
</g>
<!-- uk&#45;lon01&#45;&gt;ca&#45;bhs01 -->
<g id="edge3" class="edge">
<title>uk&#45;lon01&#45;&gt;ca&#45;bhs01</title>
<path fill="none" stroke="grey" d="M316.05,-189.74C285.49,-175.06 241.82,-154.09 211.19,-139.38"/>
<polygon fill="grey" stroke="grey" points="314.58,-192.92 325.11,-194.09 317.61,-186.61 314.58,-192.92"/>
<polygon fill="grey" stroke="grey" points="212.66,-136.21 202.13,-135.03 209.63,-142.52 212.66,-136.21"/>
<text text-anchor="middle" x="286.99" y="-161.3" font-family="Times,serif" font-size="14.00">80</text>
</g>
<!-- uk&#45;lon01&#45;&gt;nl&#45;ley01 -->
<g id="edge9" class="edge">
<title>uk&#45;lon01&#45;&gt;nl&#45;ley01</title>
<path fill="none" stroke="grey" d="M351.03,-179.73C350.69,-170.06 350.3,-159.17 349.96,-149.48"/>
<polygon fill="grey" stroke="grey" points="347.53,-179.93 351.38,-189.8 354.53,-179.68 347.53,-179.93"/>
<polygon fill="grey" stroke="grey" points="353.45,-149.05 349.6,-139.18 346.45,-149.29 353.45,-149.05"/>
<text text-anchor="middle" x="356.99" y="-161.3" font-family="Times,serif" font-size="14.00">10</text>
</g>
<!-- uk&#45;lon01&#45;&gt;de&#45;nbg01 -->
<g id="edge7" class="edge">
<title>uk&#45;lon01&#45;&gt;de&#45;nbg01</title>
<path fill="none" stroke="grey" d="M373.43,-182.98C382.94,-170.73 393.07,-155.05 397.99,-139 403.72,-120.3 403.87,-113.65 397.99,-95 393.93,-82.12 386,-69.59 378.12,-59.35"/>
<polygon fill="grey" stroke="grey" points="370.61,-180.91 367.02,-190.88 376.04,-185.32 370.61,-180.91"/>
<polygon fill="grey" stroke="grey" points="380.62,-56.87 371.6,-51.32 375.19,-61.29 380.62,-56.87"/>
<text text-anchor="middle" x="408.99" y="-117.3" font-family="Times,serif" font-size="14.00">20</text>
</g>
<!-- de&#45;nbg01&#45;&gt;ca&#45;bhs01 -->
<g id="edge4" class="edge">
<title>de&#45;nbg01&#45;&gt;ca&#45;bhs01</title>
<path fill="none" stroke="grey" d="M318.98,-52.38C287.65,-67.09 243,-88.06 211.74,-102.74"/>
<polygon fill="grey" stroke="grey" points="320.68,-55.45 328.24,-48.03 317.7,-49.11 320.68,-55.45"/>
<polygon fill="grey" stroke="grey" points="210.05,-99.67 202.48,-107.09 213.02,-106.01 210.05,-99.67"/>
<text text-anchor="middle" x="283.99" y="-74.3" font-family="Times,serif" font-size="14.00">95</text>
</g>
</g>
</svg>
