<?xml version="1.0" encoding="UTF-8" standalone="no"?>
<!DOCTYPE svg PUBLIC "-//W3C//DTD SVG 1.1//EN"
 "http://www.w3.org/Graphics/SVG/1.1/DTD/svg11.dtd">
<!-- Generated by graphviz version 2.43.0 (0)
 -->
<!-- Title: %3 Pages: 1 -->
<svg width="532pt" height="427pt"
 viewBox="0.00 0.00 531.75 427.00" xmlns="http://www.w3.org/2000/svg" xmlns:xlink="http://www.w3.org/1999/xlink">
<g id="graph0" class="graph" transform="scale(1 1) rotate(0) translate(4 423)">
<title>%3</title>
<polygon fill="white" stroke="transparent" points="-4,4 -4,-423 527.75,-423 527.75,4 -4,4"/>
<g id="clust1" class="cluster">
<title>cluster_North America</title>
<polygon fill="none" stroke="black" points="12.85,-95 12.85,-411 250.63,-411 250.63,-95 12.85,-95"/>
<text text-anchor="middle" x="131.74" y="-395.8" font-family="bold" font-size="14.00">North America</text>
</g>
<g id="clust2" class="cluster">
<title>cluster_Europe</title>
<polygon fill="none" stroke="black" points="263.48,-8 263.48,-280 510.9,-280 510.9,-8 263.48,-8"/>
<text text-anchor="middle" x="387.19" y="-264.8" font-family="bold" font-size="14.00">Europe</text>
</g>
<!-- ca&#45;bhs01 -->
<g id="node1" class="node">
<title>ca&#45;bhs01</title>
<ellipse fill="none" stroke="black" cx="170.42" cy="-121" rx="42.49" ry="18"/>
<text text-anchor="middle" x="170.42" y="-117.3" font-family="Times,serif" font-size="14.00">ca&#45;bhs01</text>
</g>
<!-- us&#45;sea01 -->
<g id="node2" class="node">
<title>us&#45;sea01</title>
<ellipse fill="none" stroke="black" cx="170.42" cy="-339" rx="41.69" ry="18"/>
<text text-anchor="middle" x="170.42" y="-335.3" font-family="Times,serif" font-size="14.00">us&#45;sea01</text>
</g>
<!-- us&#45;sea01&#45;&gt;ca&#45;bhs01 -->
<g id="edge1" class="edge">
<title>us&#45;sea01&#45;&gt;ca&#45;bhs01</title>
<path fill="none" stroke="grey" d="M170.42,-310.43C170.42,-268.86 170.42,-190.63 170.42,-149.25"/>
<polygon fill="grey" stroke="grey" points="166.92,-310.69 170.42,-320.69 173.92,-310.69 166.92,-310.69"/>
<polygon fill="grey" stroke="grey" points="173.92,-149.09 170.42,-139.09 166.92,-149.09 173.92,-149.09"/>
<text text-anchor="middle" x="177.42" y="-204.3" font-family="Times,serif" font-size="14.00">65</text>
</g>
<!-- us&#45;chi01 -->
<g id="node3" class="node">
<title>us&#45;chi01</title>
<ellipse fill="none" stroke="black" cx="91.42" cy="-208" rx="40.89" ry="18"/>
<text text-anchor="middle" x="91.42" y="-204.3" font-family="Times,serif" font-size="14.00">us&#45;chi01</text>
</g>
<!-- us&#45;sea01&#45;&gt;us&#45;chi01 -->
<g id="edge12" class="edge">
<title>us&#45;sea01&#45;&gt;us&#45;chi01</title>
<path fill="none" stroke="grey" d="M154.83,-312.55C140.94,-289.87 120.73,-256.86 106.87,-234.24"/>
<polygon fill="grey" stroke="grey" points="152.04,-314.7 160.25,-321.4 158.01,-311.04 152.04,-314.7"/>
<polygon fill="grey" stroke="grey" points="109.75,-232.24 101.55,-225.54 103.78,-235.89 109.75,-232.24"/>
<text text-anchor="middle" x="156.42" y="-292.3" font-family="Times,serif" font-size="14.00">45</text>
</g>
<!-- de&#45;nbg01 -->
<g id="node4" class="node">
<title>de&#45;nbg01</title>
<ellipse fill="none" stroke="black" cx="347.42" cy="-34" rx="44.39" ry="18"/>
<text text-anchor="middle" x="347.42" y="-30.3" font-family="Times,serif" font-size="14.00">de&#45;nbg01</text>
</g>
<!-- us&#45;sea01&#45;&gt;de&#45;nbg01 -->
<g id="edge5" class="edge">
<title>us&#45;sea01&#45;&gt;de&#45;nbg01</title>
<path fill="none" stroke="grey" d="M221.99,-335.57C270.7,-330.93 343.66,-317.65 394.42,-280 453.37,-236.27 460.57,-209.67 480.42,-139 485.71,-120.17 491.03,-111.43 480.42,-95 462.2,-66.8 427.21,-51.72 397.68,-43.73"/>
<polygon fill="grey" stroke="grey" points="221.64,-332.09 211.98,-336.44 222.25,-339.06 221.64,-332.09"/>
<polygon fill="grey" stroke="grey" points="398.47,-40.32 387.91,-41.28 396.76,-47.11 398.47,-40.32"/>
<text text-anchor="middle" x="484.92" y="-161.3" font-family="Times,serif" font-size="14.00">145</text>
</g>
<!-- uk&#45;lon01 -->
<g id="node6" class="node">
<title>uk&#45;lon01</title>
<ellipse fill="none" stroke="black" cx="343.42" cy="-208" rx="42.49" ry="18"/>
<text text-anchor="middle" x="343.42" y="-204.3" font-family="Times,serif" font-size="14.00">uk&#45;lon01</text>
</g>
<!-- us&#45;sea01&#45;&gt;uk&#45;lon01 -->
<g id="edge10" class="edge">
<title>us&#45;sea01&#45;&gt;uk&#45;lon01</title>
<path fill="none" stroke="grey" d="M211.22,-322.94C223.35,-317.63 236.35,-311.06 247.42,-303.5 276.91,-283.35 305.38,-253.61 323.55,-232.89"/>
<polygon fill="grey" stroke="grey" points="209.59,-319.83 201.73,-326.93 212.3,-326.28 209.59,-319.83"/>
<polygon fill="grey" stroke="grey" points="326.34,-235.02 330.22,-225.16 321.04,-230.45 326.34,-235.02"/>
<text text-anchor="middle" x="275.92" y="-292.3" font-family="Times,serif" font-size="14.00">125</text>
</g>
<!-- us&#45;chi01&#45;&gt;ca&#45;bhs01 -->
<g id="edge2" class="edge">
<title>us&#45;chi01&#45;&gt;ca&#45;bhs01</title>
<path fill="none" stroke="grey" d="M113.36,-183.39C124.41,-171.5 137.77,-157.13 148.78,-145.29"/>
<polygon fill="grey" stroke="grey" points="110.52,-181.3 106.28,-191.01 115.65,-186.07 110.52,-181.3"/>
<polygon fill="grey" stroke="grey" points="151.38,-147.62 155.63,-137.92 146.25,-142.86 151.38,-147.62"/>
<text text-anchor="middle" x="143.42" y="-161.3" font-family="Times,serif" font-size="14.00">20</text>
</g>
<!-- us&#45;chi01&#45;&gt;de&#45;nbg01 -->
<g id="edge6" class="edge">
<title>us&#45;chi01&#45;&gt;de&#45;nbg01</title>
<path fill="none" stroke="grey" d="M84.89,-180.04C80.57,-155.07 78.8,-118.37 98.42,-95 123.28,-65.38 229.32,-48.31 294.74,-40.41"/>
<polygon fill="grey" stroke="grey" points="81.48,-180.81 86.85,-189.95 88.35,-179.46 81.48,-180.81"/>
<polygon fill="grey" stroke="grey" points="295.34,-43.86 304.87,-39.22 294.53,-36.91 295.34,-43.86"/>
<text text-anchor="middle" x="108.92" y="-117.3" font-family="Times,serif" font-size="14.00">105</text>
</g>
<!-- us&#45;chi01&#45;&gt;uk&#45;lon01 -->
<g id="edge11" class="edge">
<title>us&#45;chi01&#45;&gt;uk&#45;lon01</title>
<path fill="none" stroke="grey" d="M115.45,-231.38C134.77,-248.47 163.52,-270.28 193.42,-280 214.55,-286.87 221.2,-281 243.42,-280.5 248.31,-280.39 249.84,-281.74 254.42,-280 280.68,-270.03 305.08,-249.12 321.66,-232.39"/>
<polygon fill="grey" stroke="grey" points="117.78,-228.77 108.03,-224.63 113.07,-233.95 117.78,-228.77"/>
<polygon fill="grey" stroke="grey" points="324.3,-234.69 328.71,-225.05 319.25,-229.84 324.3,-234.69"/>
<text text-anchor="middle" x="236.42" y="-292.3" font-family="Times,serif" font-size="14.00">90</text>
</g>
<!-- de&#45;nbg01&#45;&gt;ca&#45;bhs01 -->
<g id="edge4" class="edge">
<title>de&#45;nbg01&#45;&gt;ca&#45;bhs01</title>
<path fill="none" stroke="grey" d="M310.93,-52.52C280.3,-67.23 236.79,-88.12 206.33,-102.75"/>
<polygon fill="grey" stroke="grey" points="312.49,-55.66 319.99,-48.17 309.46,-49.35 312.49,-55.66"/>
<polygon fill="grey" stroke="grey" points="204.8,-99.61 197.3,-107.09 207.83,-105.92 204.8,-99.61"/>
<text text-anchor="middle" x="277.42" y="-74.3" font-family="Times,serif" font-size="14.00">95</text>
</g>
<!-- nl&#45;ams01 -->
<g id="node5" class="node">
<title>nl&#45;ams01</title>
<ellipse fill="none" stroke="black" cx="427.42" cy="-121" rx="44.39" ry="18"/>
<text text-anchor="middle" x="427.42" y="-117.3" font-family="Times,serif" font-size="14.00">nl&#45;ams01</text>
</g>
<!-- nl&#45;ams01&#45;&gt;de&#45;nbg01 -->
<g id="edge8" class="edge">
<title>nl&#45;ams01&#45;&gt;de&#45;nbg01</title>
<path fill="none" stroke="grey" d="M405.25,-96.45C394.13,-84.64 380.71,-70.37 369.59,-58.56"/>
<polygon fill="grey" stroke="grey" points="402.97,-99.13 412.37,-104.01 408.07,-94.33 402.97,-99.13"/>
<polygon fill="grey" stroke="grey" points="372.07,-56.09 362.67,-51.21 366.97,-60.89 372.07,-56.09"/>
<text text-anchor="middle" x="401.42" y="-74.3" font-family="Times,serif" font-size="14.00">15</text>
</g>
<!-- uk&#45;lon01&#45;&gt;ca&#45;bhs01 -->
<g id="edge3" class="edge">
<title>uk&#45;lon01&#45;&gt;ca&#45;bhs01</title>
<path fill="none" stroke="grey" d="M307.5,-189.35C277.83,-174.77 235.92,-154.18 206.27,-139.61"/>
<polygon fill="grey" stroke="grey" points="306.25,-192.64 316.77,-193.91 309.33,-186.35 306.25,-192.64"/>
<polygon fill="grey" stroke="grey" points="207.62,-136.38 197.1,-135.11 204.53,-142.66 207.62,-136.38"/>
<text text-anchor="middle" x="279.42" y="-161.3" font-family="Times,serif" font-size="14.00">80</text>
</g>
<!-- uk&#45;lon01&#45;&gt;de&#45;nbg01 -->
<g id="edge7" class="edge">
<title>uk&#45;lon01&#45;&gt;de&#45;nbg01</title>
<path fill="none" stroke="grey" d="M344.05,-179.64C344.8,-147.41 346.04,-94.18 346.79,-62.07"/>
<polygon fill="grey" stroke="grey" points="340.55,-179.8 343.82,-189.88 347.55,-179.96 340.55,-179.8"/>
<polygon fill="grey" stroke="grey" points="350.29,-62.13 347.02,-52.05 343.29,-61.97 350.29,-62.13"/>
<text text-anchor="middle" x="352.42" y="-117.3" font-family="Times,serif" font-size="14.00">20</text>
</g>
<!-- uk&#45;lon01&#45;&gt;nl&#45;ams01 -->
<g id="edge9" class="edge">
<title>uk&#45;lon01&#45;&gt;nl&#45;ams01</title>
<path fill="none" stroke="grey" d="M366.35,-183.8C378.15,-171.85 392.51,-157.32 404.33,-145.36"/>
<polygon fill="grey" stroke="grey" points="363.76,-181.44 359.22,-191.01 368.74,-186.36 363.76,-181.44"/>
<polygon fill="grey" stroke="grey" points="407.15,-147.49 411.69,-137.92 402.17,-142.57 407.15,-147.49"/>
<text text-anchor="middle" x="397.42" y="-161.3" font-family="Times,serif" font-size="14.00">10</text>
</g>
</g>
</svg>
