<?xml version="1.0" encoding="UTF-8" standalone="no"?>
<!DOCTYPE svg PUBLIC "-//W3C//DTD SVG 1.1//EN"
 "http://www.w3.org/Graphics/SVG/1.1/DTD/svg11.dtd">
<!-- Generated by graphviz version 2.43.0 (0)
 -->
<!-- Title: %3 Pages: 1 -->
<svg width="532pt" height="427pt"
 viewBox="0.00 0.00 531.75 427.00" xmlns="http://www.w3.org/2000/svg" xmlns:xlink="http://www.w3.org/1999/xlink">
<g id="graph0" class="graph" transform="scale(1 1) rotate(0) translate(4 423)">
<title>%3</title>
<polygon fill="white" stroke="transparent" points="-4,4 -4,-423 527.75,-423 527.75,4 -4,4"/>
<g id="clust1" class="cluster">
<title>cluster_North America</title>
<polygon fill="none" stroke="black" points="13.18,-95 13.18,-411 256.93,-411 256.93,-95 13.18,-95"/>
<text text-anchor="middle" x="135.06" y="-395.8" font-family="bold" font-size="14.00">North America</text>
</g>
<g id="clust2" class="cluster">
<title>cluster_Europe</title>
<polygon fill="none" stroke="black" points="270.11,-8 270.11,-280 510.57,-280 510.57,-8 270.11,-8"/>
<text text-anchor="middle" x="390.34" y="-264.8" font-family="bold" font-size="14.00">Europe</text>
</g>
<!-- ca&#45;bhs01 -->
<g id="node1" class="node">
<title>ca&#45;bhs01</title>
<ellipse fill="none" stroke="black" cx="174.11" cy="-121" rx="42.49" ry="18"/>
<text text-anchor="middle" x="174.11" y="-117.3" font-family="Times,serif" font-size="14.00">ca&#45;bhs01</text>
</g>
<!-- us&#45;chi01 -->
<g id="node2" class="node">
<title>us&#45;chi01</title>
<ellipse fill="none" stroke="black" cx="94.11" cy="-208" rx="40.89" ry="18"/>
<text text-anchor="middle" x="94.11" y="-204.3" font-family="Times,serif" font-size="14.00">us&#45;chi01</text>
</g>
<!-- us&#45;chi01&#45;&gt;ca&#45;bhs01 -->
<g id="edge2" class="edge">
<title>us&#45;chi01&#45;&gt;ca&#45;bhs01</title>
<path fill="none" stroke="grey" d="M116.32,-183.39C127.52,-171.5 141.04,-157.13 152.19,-145.29"/>
<polygon fill="grey" stroke="grey" points="113.46,-181.33 109.16,-191.01 118.56,-186.13 113.46,-181.33"/>
<polygon fill="grey" stroke="grey" points="154.82,-147.6 159.13,-137.92 149.73,-142.8 154.82,-147.6"/>
<text text-anchor="middle" x="146.11" y="-161.3" font-family="Times,serif" font-size="14.00">20</text>
</g>
<!-- uk&#45;lon01 -->
<g id="node4" class="node">
<title>uk&#45;lon01</title>
<ellipse fill="none" stroke="black" cx="352.11" cy="-208" rx="42.49" ry="18"/>
<text text-anchor="middle" x="352.11" y="-204.3" font-family="Times,serif" font-size="14.00">uk&#45;lon01</text>
</g>
<!-- us&#45;chi01&#45;&gt;uk&#45;lon01 -->
<g id="edge11" class="edge">
<title>us&#45;chi01&#45;&gt;uk&#45;lon01</title>
<path fill="none" stroke="grey" d="M118.97,-231.39C138.92,-248.48 168.56,-270.3 199.11,-280 220.29,-286.73 226.89,-280.96 249.11,-280.5 254.44,-280.39 256.1,-281.86 261.11,-280 287.8,-270.09 312.76,-249.17 329.76,-232.42"/>
<polygon fill="grey" stroke="grey" points="121.12,-228.62 111.3,-224.64 116.5,-233.87 121.12,-228.62"/>
<polygon fill="grey" stroke="grey" points="332.47,-234.66 336.99,-225.08 327.48,-229.75 332.47,-234.66"/>
<text text-anchor="middle" x="242.11" y="-292.3" font-family="Times,serif" font-size="14.00">90</text>
</g>
<!-- de&#45;nbg01 -->
<g id="node5" class="node">
<title>de&#45;nbg01</title>
<ellipse fill="none" stroke="black" cx="356.11" cy="-34" rx="44.39" ry="18"/>
<text text-anchor="middle" x="356.11" y="-30.3" font-family="Times,serif" font-size="14.00">de&#45;nbg01</text>
</g>
<!-- us&#45;chi01&#45;&gt;de&#45;nbg01 -->
<g id="edge6" class="edge">
<title>us&#45;chi01&#45;&gt;de&#45;nbg01</title>
<path fill="none" stroke="grey" d="M87.84,-179.98C83.75,-154.98 82.32,-118.25 102.11,-95 127.75,-64.87 236.63,-47.92 303.24,-40.2"/>
<polygon fill="grey" stroke="grey" points="84.42,-180.73 89.71,-189.91 91.3,-179.44 84.42,-180.73"/>
<polygon fill="grey" stroke="grey" points="304,-43.63 313.54,-39.03 303.22,-36.68 304,-43.63"/>
<text text-anchor="middle" x="112.61" y="-117.3" font-family="Times,serif" font-size="14.00">105</text>
</g>
<!-- us&#45;sea01 -->
<g id="node3" class="node">
<title>us&#45;sea01</title>
<ellipse fill="none" stroke="black" cx="174.11" cy="-339" rx="41.69" ry="18"/>
<text text-anchor="middle" x="174.11" y="-335.3" font-family="Times,serif" font-size="14.00">us&#45;sea01</text>
</g>
<!-- us&#45;sea01&#45;&gt;ca&#45;bhs01 -->
<g id="edge1" class="edge">
<title>us&#45;sea01&#45;&gt;ca&#45;bhs01</title>
<path fill="none" stroke="grey" d="M174.11,-310.43C174.11,-268.86 174.11,-190.63 174.11,-149.25"/>
<polygon fill="grey" stroke="grey" points="170.61,-310.69 174.11,-320.69 177.61,-310.69 170.61,-310.69"/>
<polygon fill="grey" stroke="grey" points="177.61,-149.09 174.11,-139.09 170.61,-149.09 177.61,-149.09"/>
<text text-anchor="middle" x="181.11" y="-204.3" font-family="Times,serif" font-size="14.00">65</text>
</g>
<!-- us&#45;sea01&#45;&gt;us&#45;chi01 -->
<g id="edge12" class="edge">
<title>us&#45;sea01&#45;&gt;us&#45;chi01</title>
<path fill="none" stroke="grey" d="M158.54,-312.89C144.47,-290.22 123.88,-257.01 109.79,-234.28"/>
<polygon fill="grey" stroke="grey" points="155.57,-314.75 163.81,-321.4 161.52,-311.06 155.57,-314.75"/>
<polygon fill="grey" stroke="grey" points="112.61,-232.19 104.36,-225.54 106.66,-235.88 112.61,-232.19"/>
<text text-anchor="middle" x="160.11" y="-292.3" font-family="Times,serif" font-size="14.00">45</text>
</g>
<!-- us&#45;sea01&#45;&gt;uk&#45;lon01 -->
<g id="edge10" class="edge">
<title>us&#45;sea01&#45;&gt;uk&#45;lon01</title>
<path fill="none" stroke="grey" d="M215.21,-323.27C227.86,-317.9 241.49,-311.23 253.11,-303.5 283.32,-283.4 312.72,-253.65 331.52,-232.92"/>
<polygon fill="grey" stroke="grey" points="213.73,-320.09 205.79,-327.11 216.37,-326.57 213.73,-320.09"/>
<polygon fill="grey" stroke="grey" points="334.38,-234.97 338.43,-225.18 329.16,-230.31 334.38,-234.97"/>
<text text-anchor="middle" x="282.61" y="-292.3" font-family="Times,serif" font-size="14.00">125</text>
</g>
<!-- us&#45;sea01&#45;&gt;de&#45;nbg01 -->
<g id="edge5" class="edge">
<title>us&#45;sea01&#45;&gt;de&#45;nbg01</title>
<path fill="none" stroke="grey" d="M225.9,-336.52C275.99,-332.61 351.67,-319.88 403.11,-280 473.49,-225.43 527.42,-170.45 480.11,-95 463.7,-68.83 432.29,-53.8 405.19,-45.32"/>
<polygon fill="grey" stroke="grey" points="225.36,-333.05 215.62,-337.22 225.84,-340.03 225.36,-333.05"/>
<polygon fill="grey" stroke="grey" points="406.02,-41.92 395.44,-42.49 404.06,-48.64 406.02,-41.92"/>
<text text-anchor="middle" x="507.61" y="-161.3" font-family="Times,serif" font-size="14.00">145</text>
</g>
<!-- uk&#45;lon01&#45;&gt;ca&#45;bhs01 -->
<g id="edge3" class="edge">
<title>uk&#45;lon01&#45;&gt;ca&#45;bhs01</title>
<path fill="none" stroke="grey" d="M315.94,-189.73C285.11,-175 241.02,-153.95 210.21,-139.24"/>
<polygon fill="grey" stroke="grey" points="314.54,-192.94 325.07,-194.09 317.56,-186.62 314.54,-192.94"/>
<polygon fill="grey" stroke="grey" points="211.64,-136.04 201.1,-134.89 208.62,-142.36 211.64,-136.04"/>
<text text-anchor="middle" x="286.11" y="-161.3" font-family="Times,serif" font-size="14.00">80</text>
</g>
<!-- uk&#45;lon01&#45;&gt;de&#45;nbg01 -->
<g id="edge7" class="edge">
<title>uk&#45;lon01&#45;&gt;de&#45;nbg01</title>
<path fill="none" stroke="grey" d="M352.74,-179.64C353.49,-147.41 354.73,-94.18 355.48,-62.07"/>
<polygon fill="grey" stroke="grey" points="349.24,-179.8 352.51,-189.88 356.24,-179.96 349.24,-179.8"/>
<polygon fill="grey" stroke="grey" points="358.98,-62.13 355.71,-52.05 351.98,-61.97 358.98,-62.13"/>
<text text-anchor="middle" x="361.11" y="-117.3" font-family="Times,serif" font-size="14.00">20</text>
</g>
<!-- nl&#45;ley01 -->
<g id="node6" class="node">
<title>nl&#45;ley01</title>
<ellipse fill="none" stroke="black" cx="431.11" cy="-121" rx="40.09" ry="18"/>
<text text-anchor="middle" x="431.11" y="-117.3" font-family="Times,serif" font-size="14.00">nl&#45;ley01</text>
</g>
<!-- uk&#45;lon01&#45;&gt;nl&#45;ley01 -->
<g id="edge9" class="edge">
<title>uk&#45;lon01&#45;&gt;nl&#45;ley01</title>
<path fill="none" stroke="grey" d="M374.05,-183.39C385.1,-171.5 398.45,-157.13 409.47,-145.29"/>
<polygon fill="grey" stroke="grey" points="371.21,-181.3 366.97,-191.01 376.34,-186.07 371.21,-181.3"/>
<polygon fill="grey" stroke="grey" points="412.07,-147.62 416.32,-137.92 406.94,-142.86 412.07,-147.62"/>
<text text-anchor="middle" x="403.11" y="-161.3" font-family="Times,serif" font-size="14.00">10</text>
</g>
<!-- de&#45;nbg01&#45;&gt;ca&#45;bhs01 -->
<g id="edge4" class="edge">
<title>de&#45;nbg01&#45;&gt;ca&#45;bhs01</title>
<path fill="none" stroke="grey" d="M318.89,-52.38C287.39,-67.09 242.49,-88.06 211.06,-102.74"/>
<polygon fill="grey" stroke="grey" points="320.63,-55.43 328.21,-48.03 317.66,-49.09 320.63,-55.43"/>
<polygon fill="grey" stroke="grey" points="209.33,-99.69 201.75,-107.09 212.29,-106.03 209.33,-99.69"/>
<text text-anchor="middle" x="283.11" y="-74.3" font-family="Times,serif" font-size="14.00">95</text>
</g>
<!-- nl&#45;ley01&#45;&gt;de&#45;nbg01 -->
<g id="edge8" class="edge">
<title>nl&#45;ley01&#45;&gt;de&#45;nbg01</title>
<path fill="none" stroke="grey" d="M410.32,-96.45C400,-84.75 387.56,-70.64 377.2,-58.9"/>
<polygon fill="grey" stroke="grey" points="407.76,-98.83 417,-104.01 413.01,-94.2 407.76,-98.83"/>
<polygon fill="grey" stroke="grey" points="379.65,-56.39 370.41,-51.21 374.4,-61.02 379.65,-56.39"/>
<text text-anchor="middle" x="407.11" y="-74.3" font-family="Times,serif" font-size="14.00">15</text>
</g>
</g>
</svg>
