<?xml version="1.0" encoding="UTF-8" standalone="no"?>
<!DOCTYPE svg PUBLIC "-//W3C//DTD SVG 1.1//EN"
 "http://www.w3.org/Graphics/SVG/1.1/DTD/svg11.dtd">
<!-- Generated by graphviz version 2.43.0 (0)
 -->
<!-- Title: %3 Pages: 1 -->
<svg width="1197pt" height="750pt"
 viewBox="0.00 0.00 1197.00 750.00" xmlns="http://www.w3.org/2000/svg" xmlns:xlink="http://www.w3.org/1999/xlink">
<g id="graph0" class="graph" transform="scale(1 1) rotate(0) translate(4 746)">
<title>%3</title>
<polygon fill="white" stroke="transparent" points="-4,4 -4,-746 1193,-746 1193,4 -4,4"/>
<g id="clust1" class="cluster">
<title>cluster_North America</title>
<polygon fill="none" stroke="black" points="187.92,-290 187.92,-734 708.43,-734 708.43,-290 187.92,-290"/>
<text text-anchor="middle" x="448.17" y="-718.8" font-family="bold" font-size="14.00">North America</text>
</g>
<g id="clust2" class="cluster">
<title>cluster_Europe</title>
<polygon fill="none" stroke="black" points="113.16,-8 113.16,-257 517.39,-257 517.39,-8 113.16,-8"/>
<text text-anchor="middle" x="315.28" y="-241.8" font-family="bold" font-size="14.00">Europe</text>
</g>
<g id="clust3" class="cluster">
<title>cluster_East Asia</title>
<polygon fill="none" stroke="black" points="730.57,-377 730.57,-452 996.37,-452 996.37,-377 730.57,-377"/>
<text text-anchor="middle" x="863.47" y="-436.8" font-family="bold" font-size="14.00">East Asia</text>
</g>
<!-- us&#45;lax01 -->
<g id="node1" class="node">
<title>us&#45;lax01</title>
<ellipse fill="none" stroke="black" cx="573" cy="-511" rx="40.89" ry="18"/>
<text text-anchor="middle" x="573" y="-507.3" font-family="Times,serif" font-size="14.00">us&#45;lax01</text>
</g>
<!-- us&#45;atl01 -->
<g id="node4" class="node">
<title>us&#45;atl01</title>
<ellipse fill="none" stroke="black" cx="451" cy="-316" rx="38.99" ry="18"/>
<text text-anchor="middle" x="451" y="-312.3" font-family="Times,serif" font-size="14.00">us&#45;atl01</text>
</g>
<!-- us&#45;lax01&#45;&gt;us&#45;atl01 -->
<g id="edge15" class="edge">
<title>us&#45;lax01&#45;&gt;us&#45;atl01</title>
<path fill="none" stroke="grey" d="M557.26,-484.8C552.38,-477 546.97,-468.39 542,-460.5 515.89,-419.06 485.37,-371.01 467.14,-342.36"/>
<polygon fill="grey" stroke="grey" points="554.42,-486.86 562.69,-493.49 560.35,-483.15 554.42,-486.86"/>
<polygon fill="grey" stroke="grey" points="470,-340.33 461.68,-333.77 464.09,-344.09 470,-340.33"/>
<text text-anchor="middle" x="543" y="-399.3" font-family="Times,serif" font-size="14.00">45</text>
</g>
<!-- us&#45;chi01 -->
<g id="node5" class="node">
<title>us&#45;chi01</title>
<ellipse fill="none" stroke="black" cx="434" cy="-403" rx="40.89" ry="18"/>
<text text-anchor="middle" x="434" y="-399.3" font-family="Times,serif" font-size="14.00">us&#45;chi01</text>
</g>
<!-- us&#45;lax01&#45;&gt;us&#45;chi01 -->
<g id="edge17" class="edge">
<title>us&#45;lax01&#45;&gt;us&#45;chi01</title>
<path fill="none" stroke="grey" d="M545.42,-488.97C521.13,-470.45 485.93,-443.6 461.63,-425.07"/>
<polygon fill="grey" stroke="grey" points="543.31,-491.76 553.38,-495.04 547.55,-486.19 543.31,-491.76"/>
<polygon fill="grey" stroke="grey" points="463.59,-422.17 453.52,-418.89 459.35,-427.73 463.59,-422.17"/>
<text text-anchor="middle" x="531" y="-464.3" font-family="Times,serif" font-size="14.00">45</text>
</g>
<!-- jp&#45;tyo01 -->
<g id="node9" class="node">
<title>jp&#45;tyo01</title>
<ellipse fill="none" stroke="black" cx="863" cy="-403" rx="40.09" ry="18"/>
<text text-anchor="middle" x="863" y="-399.3" font-family="Times,serif" font-size="14.00">jp&#45;tyo01</text>
</g>
<!-- us&#45;lax01&#45;&gt;jp&#45;tyo01 -->
<g id="edge8" class="edge">
<title>us&#45;lax01&#45;&gt;jp&#45;tyo01</title>
<path fill="none" stroke="grey" d="M613.19,-495.31C668.72,-475.01 768.3,-438.61 823.48,-418.44"/>
<polygon fill="grey" stroke="grey" points="611.68,-492.14 603.49,-498.86 614.08,-498.71 611.68,-492.14"/>
<polygon fill="grey" stroke="grey" points="824.73,-421.71 832.92,-414.99 822.33,-415.14 824.73,-421.71"/>
<text text-anchor="middle" x="710.5" y="-464.3" font-family="Times,serif" font-size="14.00">110</text>
</g>
<!-- us&#45;sea02 -->
<g id="node2" class="node">
<title>us&#45;sea02</title>
<ellipse fill="none" stroke="black" cx="534" cy="-685" rx="41.69" ry="18"/>
<text text-anchor="middle" x="534" y="-681.3" font-family="Times,serif" font-size="14.00">us&#45;sea02</text>
</g>
<!-- us&#45;sea02&#45;&gt;us&#45;lax01 -->
<g id="edge21" class="edge">
<title>us&#45;sea02&#45;&gt;us&#45;lax01</title>
<path fill="none" stroke="grey" d="M540.1,-657.11C547.39,-624.93 559.53,-571.39 566.85,-539.12"/>
<polygon fill="grey" stroke="grey" points="536.68,-656.35 537.88,-666.88 543.51,-657.9 536.68,-656.35"/>
<polygon fill="grey" stroke="grey" points="570.34,-539.58 569.13,-529.05 563.51,-538.03 570.34,-539.58"/>
<text text-anchor="middle" x="564" y="-594.3" font-family="Times,serif" font-size="14.00">30</text>
</g>
<!-- us&#45;nyc01 -->
<g id="node3" class="node">
<title>us&#45;nyc01</title>
<ellipse fill="none" stroke="black" cx="429" cy="-598" rx="42.79" ry="18"/>
<text text-anchor="middle" x="429" y="-594.3" font-family="Times,serif" font-size="14.00">us&#45;nyc01</text>
</g>
<!-- us&#45;sea02&#45;&gt;us&#45;nyc01 -->
<g id="edge22" class="edge">
<title>us&#45;sea02&#45;&gt;us&#45;nyc01</title>
<path fill="none" stroke="grey" d="M507.42,-662.48C491.63,-649.7 471.66,-633.53 455.82,-620.71"/>
<polygon fill="grey" stroke="grey" points="505.25,-665.23 515.23,-668.8 509.66,-659.79 505.25,-665.23"/>
<polygon fill="grey" stroke="grey" points="457.94,-617.92 447.96,-614.35 453.53,-623.36 457.94,-617.92"/>
<text text-anchor="middle" x="497" y="-638.3" font-family="Times,serif" font-size="14.00">60</text>
</g>
<!-- us&#45;sea02&#45;&gt;us&#45;chi01 -->
<g id="edge19" class="edge">
<title>us&#45;sea02&#45;&gt;us&#45;chi01</title>
<path fill="none" stroke="grey" d="M484.72,-676.73C448.45,-668.56 401.38,-651.46 377,-616 337.81,-559.01 342.81,-523.66 371,-460.5 377.57,-445.78 390.07,-433.31 402.22,-423.85"/>
<polygon fill="grey" stroke="grey" points="484.13,-680.18 494.63,-678.8 485.56,-673.33 484.13,-680.18"/>
<polygon fill="grey" stroke="grey" points="404.5,-426.53 410.5,-417.8 400.36,-420.88 404.5,-426.53"/>
<text text-anchor="middle" x="358" y="-551.3" font-family="Times,serif" font-size="14.00">45</text>
</g>
<!-- uk&#45;lon01 -->
<g id="node6" class="node">
<title>uk&#45;lon01</title>
<ellipse fill="none" stroke="black" cx="252" cy="-208" rx="42.49" ry="18"/>
<text text-anchor="middle" x="252" y="-204.3" font-family="Times,serif" font-size="14.00">uk&#45;lon01</text>
</g>
<!-- us&#45;sea02&#45;&gt;uk&#45;lon01 -->
<g id="edge12" class="edge">
<title>us&#45;sea02&#45;&gt;uk&#45;lon01</title>
<path fill="none" stroke="grey" d="M483,-681.2C349.49,-673.2 0,-647.61 0,-599 0,-599 0,-599 0,-315 0,-229.21 125.62,-211.72 199.48,-208.85"/>
<polygon fill="grey" stroke="grey" points="482.8,-684.7 492.98,-681.79 483.21,-677.71 482.8,-684.7"/>
<polygon fill="grey" stroke="grey" points="199.65,-212.35 209.54,-208.54 199.43,-205.35 199.65,-212.35"/>
<text text-anchor="middle" x="10.5" y="-464.3" font-family="Times,serif" font-size="14.00">130</text>
</g>
<!-- de&#45;nbg01 -->
<g id="node7" class="node">
<title>de&#45;nbg01</title>
<ellipse fill="none" stroke="black" cx="373" cy="-34" rx="44.39" ry="18"/>
<text text-anchor="middle" x="373" y="-30.3" font-family="Times,serif" font-size="14.00">de&#45;nbg01</text>
</g>
<!-- us&#45;sea02&#45;&gt;de&#45;nbg01 -->
<g id="edge5" class="edge">
<title>us&#45;sea02&#45;&gt;de&#45;nbg01</title>
<path fill="none" stroke="grey" d="M586.02,-682.47C737.56,-677.33 1168,-657.56 1168,-599 1168,-599 1168,-599 1168,-120 1168,-45.36 606.79,-36.14 427.42,-35.1"/>
<polygon fill="grey" stroke="grey" points="585.48,-678.99 575.6,-682.82 585.71,-685.98 585.48,-678.99"/>
<polygon fill="grey" stroke="grey" points="427.18,-31.6 417.16,-35.05 427.14,-38.6 427.18,-31.6"/>
<text text-anchor="middle" x="1178.5" y="-356.3" font-family="Times,serif" font-size="14.00">155</text>
</g>
<!-- us&#45;sea02&#45;&gt;jp&#45;tyo01 -->
<g id="edge7" class="edge">
<title>us&#45;sea02&#45;&gt;jp&#45;tyo01</title>
<path fill="none" stroke="grey" d="M559.83,-662.02C621.3,-609.7 775.76,-478.25 837.2,-425.96"/>
<polygon fill="grey" stroke="grey" points="557.5,-659.4 552.16,-668.55 562.04,-664.73 557.5,-659.4"/>
<polygon fill="grey" stroke="grey" points="839.55,-428.55 844.9,-419.41 835.02,-423.22 839.55,-428.55"/>
<text text-anchor="middle" x="700.5" y="-551.3" font-family="Times,serif" font-size="14.00">110</text>
</g>
<!-- us&#45;nyc01&#45;&gt;us&#45;lax01 -->
<g id="edge20" class="edge">
<title>us&#45;nyc01&#45;&gt;us&#45;lax01</title>
<path fill="none" stroke="grey" d="M461.73,-577.68C485.23,-563.81 516.79,-545.18 540.29,-531.31"/>
<polygon fill="grey" stroke="grey" points="459.61,-574.87 452.78,-582.96 463.17,-580.89 459.61,-574.87"/>
<polygon fill="grey" stroke="grey" points="542.35,-534.15 549.19,-526.06 538.8,-528.13 542.35,-534.15"/>
<text text-anchor="middle" x="516" y="-551.3" font-family="Times,serif" font-size="14.00">65</text>
</g>
<!-- us&#45;nyc01&#45;&gt;us&#45;atl01 -->
<g id="edge16" class="edge">
<title>us&#45;nyc01&#45;&gt;us&#45;atl01</title>
<path fill="none" stroke="grey" d="M414.09,-571.46C391.55,-529.28 354.43,-443.18 384,-377 391.39,-360.47 405.82,-346.61 419.41,-336.39"/>
<polygon fill="grey" stroke="grey" points="411.03,-573.16 418.92,-580.24 417.17,-569.79 411.03,-573.16"/>
<polygon fill="grey" stroke="grey" points="421.57,-339.15 427.69,-330.5 417.51,-333.44 421.57,-339.15"/>
<text text-anchor="middle" x="384" y="-464.3" font-family="Times,serif" font-size="14.00">20</text>
</g>
<!-- us&#45;nyc01&#45;&gt;us&#45;chi01 -->
<g id="edge18" class="edge">
<title>us&#45;nyc01&#45;&gt;us&#45;chi01</title>
<path fill="none" stroke="grey" d="M429.71,-569.67C430.66,-533.01 432.33,-468.3 433.29,-431.54"/>
<polygon fill="grey" stroke="grey" points="426.2,-569.79 429.44,-579.87 433.2,-569.97 426.2,-569.79"/>
<polygon fill="grey" stroke="grey" points="436.8,-431.18 433.56,-421.09 429.8,-431 436.8,-431.18"/>
<text text-anchor="middle" x="438" y="-507.3" font-family="Times,serif" font-size="14.00">20</text>
</g>
<!-- us&#45;nyc01&#45;&gt;uk&#45;lon01 -->
<g id="edge11" class="edge">
<title>us&#45;nyc01&#45;&gt;uk&#45;lon01</title>
<path fill="none" stroke="grey" d="M376.87,-593.08C290.47,-585.12 127,-563.29 127,-512 127,-512 127,-512 127,-315 127,-270.2 174.27,-240.42 210.68,-224.12"/>
<polygon fill="grey" stroke="grey" points="376.74,-596.58 387.01,-593.98 377.36,-589.6 376.74,-596.58"/>
<polygon fill="grey" stroke="grey" points="212.32,-227.22 220.13,-220.07 209.56,-220.79 212.32,-227.22"/>
<text text-anchor="middle" x="134" y="-399.3" font-family="Times,serif" font-size="14.00">70</text>
</g>
<!-- us&#45;nyc01&#45;&gt;de&#45;nbg01 -->
<g id="edge4" class="edge">
<title>us&#45;nyc01&#45;&gt;de&#45;nbg01</title>
<path fill="none" stroke="grey" d="M477.37,-587.91C597.79,-564.76 907.95,-501.94 1000,-452 1027.65,-437 1052,-435.45 1052,-404 1052,-404 1052,-404 1052,-120 1052,-57.15 588.09,-40.13 427.18,-36.11"/>
<polygon fill="grey" stroke="grey" points="476.5,-584.51 467.33,-589.83 477.81,-591.39 476.5,-584.51"/>
<polygon fill="grey" stroke="grey" points="427.11,-32.61 417.03,-35.87 426.94,-39.61 427.11,-32.61"/>
<text text-anchor="middle" x="1059" y="-312.3" font-family="Times,serif" font-size="14.00">90</text>
</g>
<!-- us&#45;atl01&#45;&gt;uk&#45;lon01 -->
<g id="edge13" class="edge">
<title>us&#45;atl01&#45;&gt;uk&#45;lon01</title>
<path fill="none" stroke="grey" d="M417.19,-296.99C380.71,-277.56 322.93,-246.78 286.27,-227.25"/>
<polygon fill="grey" stroke="grey" points="415.73,-300.18 426.2,-301.79 419.02,-294 415.73,-300.18"/>
<polygon fill="grey" stroke="grey" points="287.9,-224.16 277.43,-222.54 284.61,-230.34 287.9,-224.16"/>
<text text-anchor="middle" x="387" y="-269.3" font-family="Times,serif" font-size="14.00">85</text>
</g>
<!-- us&#45;atl01&#45;&gt;de&#45;nbg01 -->
<g id="edge6" class="edge">
<title>us&#45;atl01&#45;&gt;de&#45;nbg01</title>
<path fill="none" stroke="grey" d="M453.97,-287.74C457.37,-246.08 459.45,-164.89 433,-103 425.57,-85.62 411.91,-69.58 399.5,-57.45"/>
<polygon fill="grey" stroke="grey" points="450.46,-287.65 453.04,-297.92 457.43,-288.28 450.46,-287.65"/>
<polygon fill="grey" stroke="grey" points="401.69,-54.71 392,-50.43 396.91,-59.82 401.69,-54.71"/>
<text text-anchor="middle" x="461.5" y="-161.3" font-family="Times,serif" font-size="14.00">100</text>
</g>
<!-- us&#45;chi01&#45;&gt;us&#45;atl01 -->
<g id="edge14" class="edge">
<title>us&#45;chi01&#45;&gt;us&#45;atl01</title>
<path fill="none" stroke="grey" d="M439.45,-374.73C441.41,-364.96 443.61,-353.94 445.57,-344.17"/>
<polygon fill="grey" stroke="grey" points="435.97,-374.31 437.44,-384.8 442.83,-375.68 435.97,-374.31"/>
<polygon fill="grey" stroke="grey" points="449.04,-344.67 447.56,-334.18 442.17,-343.29 449.04,-344.67"/>
<text text-anchor="middle" x="450" y="-356.3" font-family="Times,serif" font-size="14.00">15</text>
</g>
<!-- us&#45;chi01&#45;&gt;uk&#45;lon01 -->
<g id="edge10" class="edge">
<title>us&#45;chi01&#45;&gt;uk&#45;lon01</title>
<path fill="none" stroke="grey" d="M412.15,-378.83C377.21,-341.78 309.13,-269.59 274.06,-232.39"/>
<polygon fill="grey" stroke="grey" points="409.7,-381.33 419.11,-386.21 414.79,-376.53 409.7,-381.33"/>
<polygon fill="grey" stroke="grey" points="276.51,-229.89 267.1,-225.01 271.41,-234.69 276.51,-229.89"/>
<text text-anchor="middle" x="374" y="-312.3" font-family="Times,serif" font-size="14.00">90</text>
</g>
<!-- us&#45;chi01&#45;&gt;de&#45;nbg01 -->
<g id="edge1" class="edge">
<title>us&#45;chi01&#45;&gt;de&#45;nbg01</title>
<path fill="none" stroke="grey" d="M468.64,-384.32C474.37,-381.69 480.3,-379.15 486,-377 578.42,-342.13 700,-415.78 700,-317 700,-317 700,-317 700,-120 700,-64.24 519.64,-44.42 426.82,-37.91"/>
<polygon fill="grey" stroke="grey" points="466.81,-381.31 459.27,-388.76 469.8,-387.64 466.81,-381.31"/>
<polygon fill="grey" stroke="grey" points="426.97,-34.41 416.76,-37.23 426.5,-41.4 426.97,-34.41"/>
<text text-anchor="middle" x="710.5" y="-204.3" font-family="Times,serif" font-size="14.00">105</text>
</g>
<!-- uk&#45;lon01&#45;&gt;de&#45;nbg01 -->
<g id="edge3" class="edge">
<title>uk&#45;lon01&#45;&gt;de&#45;nbg01</title>
<path fill="none" stroke="grey" d="M268.09,-181.73C281.79,-160.47 302.18,-129.4 321,-103 331.54,-88.21 343.87,-72.04 353.88,-59.18"/>
<polygon fill="grey" stroke="grey" points="265.11,-179.89 262.66,-190.2 271,-183.67 265.11,-179.89"/>
<polygon fill="grey" stroke="grey" points="356.67,-61.29 360.08,-51.26 351.16,-56.98 356.67,-61.29"/>
<text text-anchor="middle" x="328" y="-117.3" font-family="Times,serif" font-size="14.00">20</text>
</g>
<!-- nl&#45;ley01 -->
<g id="node8" class="node">
<title>nl&#45;ley01</title>
<ellipse fill="none" stroke="black" cx="384" cy="-121" rx="40.09" ry="18"/>
<text text-anchor="middle" x="384" y="-117.3" font-family="Times,serif" font-size="14.00">nl&#45;ley01</text>
</g>
<!-- uk&#45;lon01&#45;&gt;nl&#45;ley01 -->
<g id="edge9" class="edge">
<title>uk&#45;lon01&#45;&gt;nl&#45;ley01</title>
<path fill="none" stroke="grey" d="M282.88,-187.11C304.1,-173.45 332.15,-155.39 353.33,-141.75"/>
<polygon fill="grey" stroke="grey" points="280.9,-184.22 274.39,-192.58 284.69,-190.11 280.9,-184.22"/>
<polygon fill="grey" stroke="grey" points="355.43,-144.56 361.94,-136.21 351.64,-138.68 355.43,-144.56"/>
<text text-anchor="middle" x="332" y="-161.3" font-family="Times,serif" font-size="14.00">10</text>
</g>
<!-- nl&#45;ley01&#45;&gt;de&#45;nbg01 -->
<g id="edge2" class="edge">
<title>nl&#45;ley01&#45;&gt;de&#45;nbg01</title>
<path fill="none" stroke="grey" d="M380.47,-92.73C379.21,-82.96 377.78,-71.94 376.52,-62.17"/>
<polygon fill="grey" stroke="grey" points="377.02,-93.33 381.77,-102.8 383.96,-92.43 377.02,-93.33"/>
<polygon fill="grey" stroke="grey" points="379.98,-61.64 375.22,-52.18 373.04,-62.54 379.98,-61.64"/>
<text text-anchor="middle" x="386" y="-74.3" font-family="Times,serif" font-size="14.00">15</text>
</g>
</g>
</svg>
