<?xml version="1.0" encoding="UTF-8" standalone="no"?>
<!DOCTYPE svg PUBLIC "-//W3C//DTD SVG 1.1//EN"
 "http://www.w3.org/Graphics/SVG/1.1/DTD/svg11.dtd">
<!-- Generated by graphviz version 2.43.0 (0)
 -->
<!-- Title: %3 Pages: 1 -->
<svg width="795pt" height="601pt"
 viewBox="0.00 0.00 794.51 601.00" xmlns="http://www.w3.org/2000/svg" xmlns:xlink="http://www.w3.org/1999/xlink">
<g id="graph0" class="graph" transform="scale(1 1) rotate(0) translate(4 597)">
<title>%3</title>
<polygon fill="white" stroke="transparent" points="-4,4 -4,-597 790.51,-597 790.51,4 -4,4"/>
<g id="clust1" class="cluster">
<title>cluster_North America</title>
<polygon fill="none" stroke="black" points="16.11,-95 16.11,-585 414.94,-585 414.94,-95 16.11,-95"/>
<text text-anchor="middle" x="215.53" y="-569.8" font-family="bold" font-size="14.00">North America</text>
</g>
<g id="clust2" class="cluster">
<title>cluster_Europe</title>
<polygon fill="none" stroke="black" points="431.05,-8 431.05,-280 725.14,-280 725.14,-8 431.05,-8"/>
<text text-anchor="middle" x="578.09" y="-264.8" font-family="bold" font-size="14.00">Europe</text>
</g>
<!-- us&#45;sea02 -->
<g id="node1" class="node">
<title>us&#45;sea02</title>
<ellipse fill="none" stroke="black" cx="314.51" cy="-513" rx="41.69" ry="18"/>
<text text-anchor="middle" x="314.51" y="-509.3" font-family="Times,serif" font-size="14.00">us&#45;sea02</text>
</g>
<!-- us&#45;lax01 -->
<g id="node2" class="node">
<title>us&#45;lax01</title>
<ellipse fill="none" stroke="black" cx="149.51" cy="-426" rx="40.89" ry="18"/>
<text text-anchor="middle" x="149.51" y="-422.3" font-family="Times,serif" font-size="14.00">us&#45;lax01</text>
</g>
<!-- us&#45;sea02&#45;&gt;us&#45;lax01 -->
<g id="edge19" class="edge">
<title>us&#45;sea02&#45;&gt;us&#45;lax01</title>
<path fill="none" stroke="grey" d="M279.5,-493.96C251.4,-479.49 212.15,-459.27 184.15,-444.84"/>
<polygon fill="grey" stroke="grey" points="278.24,-497.25 288.73,-498.72 281.45,-491.03 278.24,-497.25"/>
<polygon fill="grey" stroke="grey" points="185.61,-441.66 175.11,-440.19 182.4,-447.88 185.61,-441.66"/>
<text text-anchor="middle" x="253.51" y="-466.3" font-family="Times,serif" font-size="14.00">30</text>
</g>
<!-- ca&#45;bhs01 -->
<g id="node3" class="node">
<title>ca&#45;bhs01</title>
<ellipse fill="none" stroke="black" cx="314.51" cy="-121" rx="42.49" ry="18"/>
<text text-anchor="middle" x="314.51" y="-117.3" font-family="Times,serif" font-size="14.00">ca&#45;bhs01</text>
</g>
<!-- us&#45;sea02&#45;&gt;ca&#45;bhs01 -->
<g id="edge1" class="edge">
<title>us&#45;sea02&#45;&gt;ca&#45;bhs01</title>
<path fill="none" stroke="grey" d="M339.68,-489.54C354.56,-473.73 370.51,-451.15 370.51,-427 370.51,-427 370.51,-427 370.51,-207 370.51,-183.01 354.76,-160.55 339.96,-144.75"/>
<polygon fill="grey" stroke="grey" points="337.1,-487.18 332.54,-496.74 342.07,-492.11 337.1,-487.18"/>
<polygon fill="grey" stroke="grey" points="342.37,-142.21 332.85,-137.56 337.39,-147.13 342.37,-142.21"/>
<text text-anchor="middle" x="377.51" y="-335.3" font-family="Times,serif" font-size="14.00">65</text>
</g>
<!-- us&#45;chi01 -->
<g id="node5" class="node">
<title>us&#45;chi01</title>
<ellipse fill="none" stroke="black" cx="215.51" cy="-339" rx="40.89" ry="18"/>
<text text-anchor="middle" x="215.51" y="-335.3" font-family="Times,serif" font-size="14.00">us&#45;chi01</text>
</g>
<!-- us&#45;sea02&#45;&gt;us&#45;chi01 -->
<g id="edge17" class="edge">
<title>us&#45;sea02&#45;&gt;us&#45;chi01</title>
<path fill="none" stroke="grey" d="M299.73,-486.32C281,-453.77 248.89,-397.98 230.2,-365.51"/>
<polygon fill="grey" stroke="grey" points="296.82,-488.27 304.84,-495.19 302.89,-484.78 296.82,-488.27"/>
<polygon fill="grey" stroke="grey" points="233.1,-363.54 225.08,-356.62 227.04,-367.03 233.1,-363.54"/>
<text text-anchor="middle" x="281.51" y="-422.3" font-family="Times,serif" font-size="14.00">45</text>
</g>
<!-- de&#45;nbg01 -->
<g id="node6" class="node">
<title>de&#45;nbg01</title>
<ellipse fill="none" stroke="black" cx="535.51" cy="-34" rx="44.39" ry="18"/>
<text text-anchor="middle" x="535.51" y="-30.3" font-family="Times,serif" font-size="14.00">de&#45;nbg01</text>
</g>
<!-- us&#45;sea02&#45;&gt;de&#45;nbg01 -->
<g id="edge6" class="edge">
<title>us&#45;sea02&#45;&gt;de&#45;nbg01</title>
<path fill="none" stroke="grey" d="M365.14,-507.72C482.95,-497.08 765.51,-467.36 765.51,-427 765.51,-427 765.51,-427 765.51,-120 765.51,-81.99 653.59,-55.65 585.89,-43.19"/>
<polygon fill="grey" stroke="grey" points="364.58,-504.26 354.93,-508.63 365.21,-511.23 364.58,-504.26"/>
<polygon fill="grey" stroke="grey" points="586.3,-39.71 575.84,-41.38 585.06,-46.6 586.3,-39.71"/>
<text text-anchor="middle" x="776.01" y="-292.3" font-family="Times,serif" font-size="14.00">155</text>
</g>
<!-- uk&#45;lon01 -->
<g id="node7" class="node">
<title>uk&#45;lon01</title>
<ellipse fill="none" stroke="black" cx="531.51" cy="-208" rx="42.49" ry="18"/>
<text text-anchor="middle" x="531.51" y="-204.3" font-family="Times,serif" font-size="14.00">uk&#45;lon01</text>
</g>
<!-- us&#45;sea02&#45;&gt;uk&#45;lon01 -->
<g id="edge12" class="edge">
<title>us&#45;sea02&#45;&gt;uk&#45;lon01</title>
<path fill="none" stroke="grey" d="M352,-494.94C360.34,-490.07 368.71,-484.22 375.51,-477.5 449.92,-403.95 501.16,-287.62 521.6,-235.63"/>
<polygon fill="grey" stroke="grey" points="350.13,-491.97 343.04,-499.84 353.5,-498.11 350.13,-491.97"/>
<polygon fill="grey" stroke="grey" points="524.94,-236.71 525.28,-226.12 518.41,-234.19 524.94,-236.71"/>
<text text-anchor="middle" x="462.01" y="-379.3" font-family="Times,serif" font-size="14.00">130</text>
</g>
<!-- us&#45;atl01 -->
<g id="node4" class="node">
<title>us&#45;atl01</title>
<ellipse fill="none" stroke="black" cx="153.51" cy="-208" rx="38.99" ry="18"/>
<text text-anchor="middle" x="153.51" y="-204.3" font-family="Times,serif" font-size="14.00">us&#45;atl01</text>
</g>
<!-- us&#45;lax01&#45;&gt;us&#45;atl01 -->
<g id="edge16" class="edge">
<title>us&#45;lax01&#45;&gt;us&#45;atl01</title>
<path fill="none" stroke="grey" d="M150.02,-397.43C150.79,-355.86 152.24,-277.63 153.01,-236.25"/>
<polygon fill="grey" stroke="grey" points="146.52,-397.63 149.83,-407.69 153.52,-397.76 146.52,-397.63"/>
<polygon fill="grey" stroke="grey" points="156.51,-236.16 153.2,-226.09 149.51,-236.03 156.51,-236.16"/>
<text text-anchor="middle" x="157.51" y="-335.3" font-family="Times,serif" font-size="14.00">45</text>
</g>
<!-- us&#45;lax01&#45;&gt;us&#45;chi01 -->
<g id="edge18" class="edge">
<title>us&#45;lax01&#45;&gt;us&#45;chi01</title>
<path fill="none" stroke="grey" d="M168.39,-400.69C177.19,-389.36 187.63,-375.91 196.45,-364.55"/>
<polygon fill="grey" stroke="grey" points="165.61,-398.57 162.24,-408.61 171.14,-402.86 165.61,-398.57"/>
<polygon fill="grey" stroke="grey" points="199.46,-366.38 202.83,-356.34 193.93,-362.09 199.46,-366.38"/>
<text text-anchor="middle" x="192.51" y="-379.3" font-family="Times,serif" font-size="14.00">45</text>
</g>
<!-- us&#45;atl01&#45;&gt;ca&#45;bhs01 -->
<g id="edge5" class="edge">
<title>us&#45;atl01&#45;&gt;ca&#45;bhs01</title>
<path fill="none" stroke="grey" d="M187.25,-189.19C214.47,-174.82 252.61,-154.68 280.03,-140.21"/>
<polygon fill="grey" stroke="grey" points="185.53,-186.14 178.32,-193.91 188.79,-192.33 185.53,-186.14"/>
<polygon fill="grey" stroke="grey" points="281.67,-143.3 288.88,-135.53 278.41,-137.11 281.67,-143.3"/>
<text text-anchor="middle" x="250.51" y="-161.3" font-family="Times,serif" font-size="14.00">30</text>
</g>
<!-- us&#45;atl01&#45;&gt;de&#45;nbg01 -->
<g id="edge10" class="edge">
<title>us&#45;atl01&#45;&gt;de&#45;nbg01</title>
<path fill="none" stroke="grey" d="M166.81,-181.35C181.66,-155.36 208.21,-116.06 242.51,-95 316.45,-49.61 418.68,-37.91 480.78,-35.26"/>
<polygon fill="grey" stroke="grey" points="163.65,-179.82 161.87,-190.26 169.77,-183.21 163.65,-179.82"/>
<polygon fill="grey" stroke="grey" points="481.28,-38.74 491.15,-34.88 481.03,-31.75 481.28,-38.74"/>
<text text-anchor="middle" x="253.01" y="-117.3" font-family="Times,serif" font-size="14.00">100</text>
</g>
<!-- us&#45;atl01&#45;&gt;uk&#45;lon01 -->
<g id="edge14" class="edge">
<title>us&#45;atl01&#45;&gt;uk&#45;lon01</title>
<path fill="none" stroke="grey" d="M181.84,-229.32C206.84,-246.74 245.04,-270.05 282.51,-280 340.93,-295.52 360.54,-297.11 418.51,-280 451.21,-270.35 483.5,-248.15 505.14,-230.94"/>
<polygon fill="grey" stroke="grey" points="183.75,-226.38 173.57,-223.44 179.69,-232.09 183.75,-226.38"/>
<polygon fill="grey" stroke="grey" points="507.63,-233.42 513.17,-224.39 503.21,-228 507.63,-233.42"/>
<text text-anchor="middle" x="338.51" y="-292.3" font-family="Times,serif" font-size="14.00">85</text>
</g>
<!-- us&#45;chi01&#45;&gt;ca&#45;bhs01 -->
<g id="edge2" class="edge">
<title>us&#45;chi01&#45;&gt;ca&#45;bhs01</title>
<path fill="none" stroke="grey" d="M227.45,-311.95C246.49,-270.41 283.52,-189.62 302.57,-148.07"/>
<polygon fill="grey" stroke="grey" points="224.27,-310.5 223.28,-321.05 230.63,-313.42 224.27,-310.5"/>
<polygon fill="grey" stroke="grey" points="305.8,-149.42 306.78,-138.87 299.43,-146.5 305.8,-149.42"/>
<text text-anchor="middle" x="289.51" y="-204.3" font-family="Times,serif" font-size="14.00">20</text>
</g>
<!-- us&#45;chi01&#45;&gt;us&#45;atl01 -->
<g id="edge15" class="edge">
<title>us&#45;chi01&#45;&gt;us&#45;atl01</title>
<path fill="none" stroke="grey" d="M203.01,-311.98C192.26,-289.61 176.83,-257.51 166.06,-235.11"/>
<polygon fill="grey" stroke="grey" points="199.92,-313.64 207.41,-321.14 206.23,-310.61 199.92,-313.64"/>
<polygon fill="grey" stroke="grey" points="169.11,-233.37 161.62,-225.87 162.8,-236.4 169.11,-233.37"/>
<text text-anchor="middle" x="205.51" y="-292.3" font-family="Times,serif" font-size="14.00">15</text>
</g>
<!-- us&#45;chi01&#45;&gt;de&#45;nbg01 -->
<g id="edge7" class="edge">
<title>us&#45;chi01&#45;&gt;de&#45;nbg01</title>
<path fill="none" stroke="grey" d="M176.55,-322.55C148.29,-310.46 113.65,-293.49 105.51,-280 58.78,-202.52 115.62,-145.77 190.51,-95 237.19,-63.36 397.39,-46.07 482.07,-38.94"/>
<polygon fill="grey" stroke="grey" points="175.26,-325.81 185.84,-326.45 177.97,-319.35 175.26,-325.81"/>
<polygon fill="grey" stroke="grey" points="482.58,-42.41 492.25,-38.11 482,-35.44 482.58,-42.41"/>
<text text-anchor="middle" x="126.01" y="-161.3" font-family="Times,serif" font-size="14.00">105</text>
</g>
<!-- us&#45;chi01&#45;&gt;uk&#45;lon01 -->
<g id="edge13" class="edge">
<title>us&#45;chi01&#45;&gt;uk&#45;lon01</title>
<path fill="none" stroke="grey" d="M262.77,-329.16C304.97,-320.2 367.77,-304.18 418.51,-280 448.61,-265.66 480.58,-245.01 502.8,-229.67"/>
<polygon fill="grey" stroke="grey" points="261.86,-325.78 252.78,-331.24 263.28,-332.63 261.86,-325.78"/>
<polygon fill="grey" stroke="grey" points="504.91,-232.47 511.11,-223.87 500.91,-226.73 504.91,-232.47"/>
<text text-anchor="middle" x="404.51" y="-292.3" font-family="Times,serif" font-size="14.00">90</text>
</g>
<!-- de&#45;nbg01&#45;&gt;ca&#45;bhs01 -->
<g id="edge4" class="edge">
<title>de&#45;nbg01&#45;&gt;ca&#45;bhs01</title>
<path fill="none" stroke="grey" d="M495.1,-50.54C455.09,-65.93 394.2,-89.35 354.38,-104.67"/>
<polygon fill="grey" stroke="grey" points="496.47,-53.77 504.55,-46.91 493.96,-47.23 496.47,-53.77"/>
<polygon fill="grey" stroke="grey" points="352.86,-101.5 344.78,-108.36 355.37,-108.04 352.86,-101.5"/>
<text text-anchor="middle" x="444.51" y="-74.3" font-family="Times,serif" font-size="14.00">95</text>
</g>
<!-- uk&#45;lon01&#45;&gt;ca&#45;bhs01 -->
<g id="edge3" class="edge">
<title>uk&#45;lon01&#45;&gt;ca&#45;bhs01</title>
<path fill="none" stroke="grey" d="M491.87,-191.47C452.66,-176.11 393.02,-152.75 353.91,-137.43"/>
<polygon fill="grey" stroke="grey" points="490.75,-194.79 501.34,-195.18 493.31,-188.27 490.75,-194.79"/>
<polygon fill="grey" stroke="grey" points="355.02,-134.11 344.43,-133.72 352.46,-140.62 355.02,-134.11"/>
<text text-anchor="middle" x="448.51" y="-161.3" font-family="Times,serif" font-size="14.00">80</text>
</g>
<!-- uk&#45;lon01&#45;&gt;de&#45;nbg01 -->
<g id="edge8" class="edge">
<title>uk&#45;lon01&#45;&gt;de&#45;nbg01</title>
<path fill="none" stroke="grey" d="M532.15,-179.64C532.9,-147.41 534.14,-94.18 534.88,-62.07"/>
<polygon fill="grey" stroke="grey" points="528.65,-179.8 531.91,-189.88 535.64,-179.96 528.65,-179.8"/>
<polygon fill="grey" stroke="grey" points="538.38,-62.13 535.12,-52.05 531.39,-61.97 538.38,-62.13"/>
<text text-anchor="middle" x="540.51" y="-117.3" font-family="Times,serif" font-size="14.00">20</text>
</g>
<!-- nl&#45;ley01 -->
<g id="node8" class="node">
<title>nl&#45;ley01</title>
<ellipse fill="none" stroke="black" cx="628.51" cy="-121" rx="40.09" ry="18"/>
<text text-anchor="middle" x="628.51" y="-117.3" font-family="Times,serif" font-size="14.00">nl&#45;ley01</text>
</g>
<!-- uk&#45;lon01&#45;&gt;nl&#45;ley01 -->
<g id="edge11" class="edge">
<title>uk&#45;lon01&#45;&gt;nl&#45;ley01</title>
<path fill="none" stroke="grey" d="M557.18,-184.51C571.32,-172.12 588.83,-156.78 602.96,-144.4"/>
<polygon fill="grey" stroke="grey" points="554.52,-182.19 549.3,-191.41 559.13,-187.45 554.52,-182.19"/>
<polygon fill="grey" stroke="grey" points="605.62,-146.71 610.84,-137.49 601.01,-141.45 605.62,-146.71"/>
<text text-anchor="middle" x="592.51" y="-161.3" font-family="Times,serif" font-size="14.00">10</text>
</g>
<!-- nl&#45;ley01&#45;&gt;de&#45;nbg01 -->
<g id="edge9" class="edge">
<title>nl&#45;ley01&#45;&gt;de&#45;nbg01</title>
<path fill="none" stroke="grey" d="M603.96,-97.56C590.49,-85.25 573.83,-70.02 560.32,-57.67"/>
<polygon fill="grey" stroke="grey" points="601.71,-100.25 611.46,-104.41 606.44,-95.08 601.71,-100.25"/>
<polygon fill="grey" stroke="grey" points="562.52,-54.94 552.78,-50.78 557.8,-60.11 562.52,-54.94"/>
<text text-anchor="middle" x="596.51" y="-74.3" font-family="Times,serif" font-size="14.00">15</text>
</g>
</g>
</svg>
