<?xml version="1.0" encoding="utf-8" standalone="no"?>
<!DOCTYPE svg PUBLIC "-//W3C//DTD SVG 1.1//EN"
  "http://www.w3.org/Graphics/SVG/1.1/DTD/svg11.dtd">
<svg xmlns:xlink="http://www.w3.org/1999/xlink" width="612.165625pt" height="503.394375pt" viewBox="0 0 612.165625 503.394375" xmlns="http://www.w3.org/2000/svg" version="1.1">
 <metadata>
  <rdf:RDF xmlns:dc="http://purl.org/dc/elements/1.1/" xmlns:cc="http://creativecommons.org/ns#" xmlns:rdf="http://www.w3.org/1999/02/22-rdf-syntax-ns#">
   <cc:Work>
    <dc:type rdf:resource="http://purl.org/dc/dcmitype/StillImage"/>
    <dc:format>image/svg+xml</dc:format>
    <dc:creator>
     <cc:Agent>
      <dc:title>Matplotlib v3.5.2, https://matplotlib.org/</dc:title>
     </cc:Agent>
    </dc:creator>
   </cc:Work>
  </rdf:RDF>
 </metadata>
 <defs>
  <style type="text/css">*{stroke-linejoin: round; stroke-linecap: butt}</style>
 </defs>
 <g id="figure_1">
  <g id="patch_1">
   <path d="M 0 503.394375 
L 612.165625 503.394375 
L 612.165625 0 
L 0 0 
z
" style="fill: #ffffff"/>
  </g>
  <g id="axes_1">
   <g id="patch_2">
    <path d="M 46.965625 465.838125 
L 604.965625 465.838125 
L 604.965625 22.318125 
L 46.965625 22.318125 
z
" style="fill: #ffffff"/>
   </g>
   <g id="matplotlib.axis_1">
    <g id="xtick_1">
     <g id="line2d_1">
      <path d="M 91.008112 465.838125 
L 91.008112 22.318125 
" clip-path="url(#pebb6d4d2a1)" style="fill: none; stroke: #b0b0b0; stroke-opacity: 0.6; stroke-width: 0.8; stroke-linecap: square"/>
     </g>
     <g id="line2d_2">
      <defs>
       <path id="m4989ca4dfe" d="M 0 0 
L 0 3.5 
" style="stroke: #000000; stroke-width: 0.8"/>
      </defs>
      <g>
       <use xlink:href="#m4989ca4dfe" x="91.008112" y="465.838125" style="stroke: #000000; stroke-width: 0.8"/>
      </g>
     </g>
     <g id="text_1">
      <!-- 2020-07 -->
      <g transform="translate(70.116706 480.436562)scale(0.1 -0.1)">
       <defs>
        <path id="DejaVuSans-32" d="M 1228 531 
L 3431 531 
L 3431 0 
L 469 0 
L 469 531 
Q 828 903 1448 1529 
Q 2069 2156 2228 2338 
Q 2531 2678 2651 2914 
Q 2772 3150 2772 3378 
Q 2772 3750 2511 3984 
Q 2250 4219 1831 4219 
Q 1534 4219 1204 4116 
Q 875 4013 500 3803 
L 500 4441 
Q 881 4594 1212 4672 
Q 1544 4750 1819 4750 
Q 2544 4750 2975 4387 
Q 3406 4025 3406 3419 
Q 3406 3131 3298 2873 
Q 3191 2616 2906 2266 
Q 2828 2175 2409 1742 
Q 1991 1309 1228 531 
z
" transform="scale(0.015625)"/>
        <path id="DejaVuSans-30" d="M 2034 4250 
Q 1547 4250 1301 3770 
Q 1056 3291 1056 2328 
Q 1056 1369 1301 889 
Q 1547 409 2034 409 
Q 2525 409 2770 889 
Q 3016 1369 3016 2328 
Q 3016 3291 2770 3770 
Q 2525 4250 2034 4250 
z
M 2034 4750 
Q 2819 4750 3233 4129 
Q 3647 3509 3647 2328 
Q 3647 1150 3233 529 
Q 2819 -91 2034 -91 
Q 1250 -91 836 529 
Q 422 1150 422 2328 
Q 422 3509 836 4129 
Q 1250 4750 2034 4750 
z
" transform="scale(0.015625)"/>
        <path id="DejaVuSans-2d" d="M 313 2009 
L 1997 2009 
L 1997 1497 
L 313 1497 
L 313 2009 
z
" transform="scale(0.015625)"/>
        <path id="DejaVuSans-37" d="M 525 4666 
L 3525 4666 
L 3525 4397 
L 1831 0 
L 1172 0 
L 2766 4134 
L 525 4134 
L 525 4666 
z
" transform="scale(0.015625)"/>
       </defs>
       <use xlink:href="#DejaVuSans-32"/>
       <use xlink:href="#DejaVuSans-30" x="63.623047"/>
       <use xlink:href="#DejaVuSans-32" x="127.246094"/>
       <use xlink:href="#DejaVuSans-30" x="190.869141"/>
       <use xlink:href="#DejaVuSans-2d" x="254.492188"/>
       <use xlink:href="#DejaVuSans-30" x="290.576172"/>
       <use xlink:href="#DejaVuSans-37" x="354.199219"/>
      </g>
     </g>
    </g>
    <g id="xtick_2">
     <g id="line2d_3">
      <path d="M 142.974986 465.838125 
L 142.974986 22.318125 
" clip-path="url(#pebb6d4d2a1)" style="fill: none; stroke: #b0b0b0; stroke-opacity: 0.6; stroke-width: 0.8; stroke-linecap: square"/>
     </g>
     <g id="line2d_4">
      <g>
       <use xlink:href="#m4989ca4dfe" x="142.974986" y="465.838125" style="stroke: #000000; stroke-width: 0.8"/>
      </g>
     </g>
     <g id="text_2">
      <!-- 2020-10 -->
      <g transform="translate(122.08358 480.436562)scale(0.1 -0.1)">
       <defs>
        <path id="DejaVuSans-31" d="M 794 531 
L 1825 531 
L 1825 4091 
L 703 3866 
L 703 4441 
L 1819 4666 
L 2450 4666 
L 2450 531 
L 3481 531 
L 3481 0 
L 794 0 
L 794 531 
z
" transform="scale(0.015625)"/>
       </defs>
       <use xlink:href="#DejaVuSans-32"/>
       <use xlink:href="#DejaVuSans-30" x="63.623047"/>
       <use xlink:href="#DejaVuSans-32" x="127.246094"/>
       <use xlink:href="#DejaVuSans-30" x="190.869141"/>
       <use xlink:href="#DejaVuSans-2d" x="254.492188"/>
       <use xlink:href="#DejaVuSans-31" x="290.576172"/>
       <use xlink:href="#DejaVuSans-30" x="354.199219"/>
      </g>
     </g>
    </g>
    <g id="xtick_3">
     <g id="line2d_5">
      <path d="M 194.94186 465.838125 
L 194.94186 22.318125 
" clip-path="url(#pebb6d4d2a1)" style="fill: none; stroke: #b0b0b0; stroke-opacity: 0.6; stroke-width: 0.8; stroke-linecap: square"/>
     </g>
     <g id="line2d_6">
      <g>
       <use xlink:href="#m4989ca4dfe" x="194.94186" y="465.838125" style="stroke: #000000; stroke-width: 0.8"/>
      </g>
     </g>
     <g id="text_3">
      <!-- 2021-01 -->
      <g transform="translate(174.050454 480.436562)scale(0.1 -0.1)">
       <use xlink:href="#DejaVuSans-32"/>
       <use xlink:href="#DejaVuSans-30" x="63.623047"/>
       <use xlink:href="#DejaVuSans-32" x="127.246094"/>
       <use xlink:href="#DejaVuSans-31" x="190.869141"/>
       <use xlink:href="#DejaVuSans-2d" x="254.492188"/>
       <use xlink:href="#DejaVuSans-30" x="290.576172"/>
       <use xlink:href="#DejaVuSans-31" x="354.199219"/>
      </g>
     </g>
    </g>
    <g id="xtick_4">
     <g id="line2d_7">
      <path d="M 245.779019 465.838125 
L 245.779019 22.318125 
" clip-path="url(#pebb6d4d2a1)" style="fill: none; stroke: #b0b0b0; stroke-opacity: 0.6; stroke-width: 0.8; stroke-linecap: square"/>
     </g>
     <g id="line2d_8">
      <g>
       <use xlink:href="#m4989ca4dfe" x="245.779019" y="465.838125" style="stroke: #000000; stroke-width: 0.8"/>
      </g>
     </g>
     <g id="text_4">
      <!-- 2021-04 -->
      <g transform="translate(224.887613 480.436562)scale(0.1 -0.1)">
       <defs>
        <path id="DejaVuSans-34" d="M 2419 4116 
L 825 1625 
L 2419 1625 
L 2419 4116 
z
M 2253 4666 
L 3047 4666 
L 3047 1625 
L 3713 1625 
L 3713 1100 
L 3047 1100 
L 3047 0 
L 2419 0 
L 2419 1100 
L 313 1100 
L 313 1709 
L 2253 4666 
z
" transform="scale(0.015625)"/>
       </defs>
       <use xlink:href="#DejaVuSans-32"/>
       <use xlink:href="#DejaVuSans-30" x="63.623047"/>
       <use xlink:href="#DejaVuSans-32" x="127.246094"/>
       <use xlink:href="#DejaVuSans-31" x="190.869141"/>
       <use xlink:href="#DejaVuSans-2d" x="254.492188"/>
       <use xlink:href="#DejaVuSans-30" x="290.576172"/>
       <use xlink:href="#DejaVuSans-34" x="354.199219"/>
      </g>
     </g>
    </g>
    <g id="xtick_5">
     <g id="line2d_9">
      <path d="M 297.181035 465.838125 
L 297.181035 22.318125 
" clip-path="url(#pebb6d4d2a1)" style="fill: none; stroke: #b0b0b0; stroke-opacity: 0.6; stroke-width: 0.8; stroke-linecap: square"/>
     </g>
     <g id="line2d_10">
      <g>
       <use xlink:href="#m4989ca4dfe" x="297.181035" y="465.838125" style="stroke: #000000; stroke-width: 0.8"/>
      </g>
     </g>
     <g id="text_5">
      <!-- 2021-07 -->
      <g transform="translate(276.289629 480.436562)scale(0.1 -0.1)">
       <use xlink:href="#DejaVuSans-32"/>
       <use xlink:href="#DejaVuSans-30" x="63.623047"/>
       <use xlink:href="#DejaVuSans-32" x="127.246094"/>
       <use xlink:href="#DejaVuSans-31" x="190.869141"/>
       <use xlink:href="#DejaVuSans-2d" x="254.492188"/>
       <use xlink:href="#DejaVuSans-30" x="290.576172"/>
       <use xlink:href="#DejaVuSans-37" x="354.199219"/>
      </g>
     </g>
    </g>
    <g id="xtick_6">
     <g id="line2d_11">
      <path d="M 349.147909 465.838125 
L 349.147909 22.318125 
" clip-path="url(#pebb6d4d2a1)" style="fill: none; stroke: #b0b0b0; stroke-opacity: 0.6; stroke-width: 0.8; stroke-linecap: square"/>
     </g>
     <g id="line2d_12">
      <g>
       <use xlink:href="#m4989ca4dfe" x="349.147909" y="465.838125" style="stroke: #000000; stroke-width: 0.8"/>
      </g>
     </g>
     <g id="text_6">
      <!-- 2021-10 -->
      <g transform="translate(328.256503 480.436562)scale(0.1 -0.1)">
       <use xlink:href="#DejaVuSans-32"/>
       <use xlink:href="#DejaVuSans-30" x="63.623047"/>
       <use xlink:href="#DejaVuSans-32" x="127.246094"/>
       <use xlink:href="#DejaVuSans-31" x="190.869141"/>
       <use xlink:href="#DejaVuSans-2d" x="254.492188"/>
       <use xlink:href="#DejaVuSans-31" x="290.576172"/>
       <use xlink:href="#DejaVuSans-30" x="354.199219"/>
      </g>
     </g>
    </g>
    <g id="xtick_7">
     <g id="line2d_13">
      <path d="M 401.114783 465.838125 
L 401.114783 22.318125 
" clip-path="url(#pebb6d4d2a1)" style="fill: none; stroke: #b0b0b0; stroke-opacity: 0.6; stroke-width: 0.8; stroke-linecap: square"/>
     </g>
     <g id="line2d_14">
      <g>
       <use xlink:href="#m4989ca4dfe" x="401.114783" y="465.838125" style="stroke: #000000; stroke-width: 0.8"/>
      </g>
     </g>
     <g id="text_7">
      <!-- 2022-01 -->
      <g transform="translate(380.223376 480.436562)scale(0.1 -0.1)">
       <use xlink:href="#DejaVuSans-32"/>
       <use xlink:href="#DejaVuSans-30" x="63.623047"/>
       <use xlink:href="#DejaVuSans-32" x="127.246094"/>
       <use xlink:href="#DejaVuSans-32" x="190.869141"/>
       <use xlink:href="#DejaVuSans-2d" x="254.492188"/>
       <use xlink:href="#DejaVuSans-30" x="290.576172"/>
       <use xlink:href="#DejaVuSans-31" x="354.199219"/>
      </g>
     </g>
    </g>
    <g id="xtick_8">
     <g id="line2d_15">
      <path d="M 451.951942 465.838125 
L 451.951942 22.318125 
" clip-path="url(#pebb6d4d2a1)" style="fill: none; stroke: #b0b0b0; stroke-opacity: 0.6; stroke-width: 0.8; stroke-linecap: square"/>
     </g>
     <g id="line2d_16">
      <g>
       <use xlink:href="#m4989ca4dfe" x="451.951942" y="465.838125" style="stroke: #000000; stroke-width: 0.8"/>
      </g>
     </g>
     <g id="text_8">
      <!-- 2022-04 -->
      <g transform="translate(431.060535 480.436562)scale(0.1 -0.1)">
       <use xlink:href="#DejaVuSans-32"/>
       <use xlink:href="#DejaVuSans-30" x="63.623047"/>
       <use xlink:href="#DejaVuSans-32" x="127.246094"/>
       <use xlink:href="#DejaVuSans-32" x="190.869141"/>
       <use xlink:href="#DejaVuSans-2d" x="254.492188"/>
       <use xlink:href="#DejaVuSans-30" x="290.576172"/>
       <use xlink:href="#DejaVuSans-34" x="354.199219"/>
      </g>
     </g>
    </g>
    <g id="xtick_9">
     <g id="line2d_17">
      <path d="M 503.353958 465.838125 
L 503.353958 22.318125 
" clip-path="url(#pebb6d4d2a1)" style="fill: none; stroke: #b0b0b0; stroke-opacity: 0.6; stroke-width: 0.8; stroke-linecap: square"/>
     </g>
     <g id="line2d_18">
      <g>
       <use xlink:href="#m4989ca4dfe" x="503.353958" y="465.838125" style="stroke: #000000; stroke-width: 0.8"/>
      </g>
     </g>
     <g id="text_9">
      <!-- 2022-07 -->
      <g transform="translate(482.462552 480.436562)scale(0.1 -0.1)">
       <use xlink:href="#DejaVuSans-32"/>
       <use xlink:href="#DejaVuSans-30" x="63.623047"/>
       <use xlink:href="#DejaVuSans-32" x="127.246094"/>
       <use xlink:href="#DejaVuSans-32" x="190.869141"/>
       <use xlink:href="#DejaVuSans-2d" x="254.492188"/>
       <use xlink:href="#DejaVuSans-30" x="290.576172"/>
       <use xlink:href="#DejaVuSans-37" x="354.199219"/>
      </g>
     </g>
    </g>
    <g id="xtick_10">
     <g id="line2d_19">
      <path d="M 555.320832 465.838125 
L 555.320832 22.318125 
" clip-path="url(#pebb6d4d2a1)" style="fill: none; stroke: #b0b0b0; stroke-opacity: 0.6; stroke-width: 0.8; stroke-linecap: square"/>
     </g>
     <g id="line2d_20">
      <g>
       <use xlink:href="#m4989ca4dfe" x="555.320832" y="465.838125" style="stroke: #000000; stroke-width: 0.8"/>
      </g>
     </g>
     <g id="text_10">
      <!-- 2022-10 -->
      <g transform="translate(534.429425 480.436562)scale(0.1 -0.1)">
       <use xlink:href="#DejaVuSans-32"/>
       <use xlink:href="#DejaVuSans-30" x="63.623047"/>
       <use xlink:href="#DejaVuSans-32" x="127.246094"/>
       <use xlink:href="#DejaVuSans-32" x="190.869141"/>
       <use xlink:href="#DejaVuSans-2d" x="254.492188"/>
       <use xlink:href="#DejaVuSans-31" x="290.576172"/>
       <use xlink:href="#DejaVuSans-30" x="354.199219"/>
      </g>
     </g>
    </g>
    <g id="text_11">
     <!-- Date -->
     <g transform="translate(314.014844 494.114687)scale(0.1 -0.1)">
      <defs>
       <path id="DejaVuSans-44" d="M 1259 4147 
L 1259 519 
L 2022 519 
Q 2988 519 3436 956 
Q 3884 1394 3884 2338 
Q 3884 3275 3436 3711 
Q 2988 4147 2022 4147 
L 1259 4147 
z
M 628 4666 
L 1925 4666 
Q 3281 4666 3915 4102 
Q 4550 3538 4550 2338 
Q 4550 1131 3912 565 
Q 3275 0 1925 0 
L 628 0 
L 628 4666 
z
" transform="scale(0.015625)"/>
       <path id="DejaVuSans-61" d="M 2194 1759 
Q 1497 1759 1228 1600 
Q 959 1441 959 1056 
Q 959 750 1161 570 
Q 1363 391 1709 391 
Q 2188 391 2477 730 
Q 2766 1069 2766 1631 
L 2766 1759 
L 2194 1759 
z
M 3341 1997 
L 3341 0 
L 2766 0 
L 2766 531 
Q 2569 213 2275 61 
Q 1981 -91 1556 -91 
Q 1019 -91 701 211 
Q 384 513 384 1019 
Q 384 1609 779 1909 
Q 1175 2209 1959 2209 
L 2766 2209 
L 2766 2266 
Q 2766 2663 2505 2880 
Q 2244 3097 1772 3097 
Q 1472 3097 1187 3025 
Q 903 2953 641 2809 
L 641 3341 
Q 956 3463 1253 3523 
Q 1550 3584 1831 3584 
Q 2591 3584 2966 3190 
Q 3341 2797 3341 1997 
z
" transform="scale(0.015625)"/>
       <path id="DejaVuSans-74" d="M 1172 4494 
L 1172 3500 
L 2356 3500 
L 2356 3053 
L 1172 3053 
L 1172 1153 
Q 1172 725 1289 603 
Q 1406 481 1766 481 
L 2356 481 
L 2356 0 
L 1766 0 
Q 1100 0 847 248 
Q 594 497 594 1153 
L 594 3053 
L 172 3053 
L 172 3500 
L 594 3500 
L 594 4494 
L 1172 4494 
z
" transform="scale(0.015625)"/>
       <path id="DejaVuSans-65" d="M 3597 1894 
L 3597 1613 
L 953 1613 
Q 991 1019 1311 708 
Q 1631 397 2203 397 
Q 2534 397 2845 478 
Q 3156 559 3463 722 
L 3463 178 
Q 3153 47 2828 -22 
Q 2503 -91 2169 -91 
Q 1331 -91 842 396 
Q 353 884 353 1716 
Q 353 2575 817 3079 
Q 1281 3584 2069 3584 
Q 2775 3584 3186 3129 
Q 3597 2675 3597 1894 
z
M 3022 2063 
Q 3016 2534 2758 2815 
Q 2500 3097 2075 3097 
Q 1594 3097 1305 2825 
Q 1016 2553 972 2059 
L 3022 2063 
z
" transform="scale(0.015625)"/>
      </defs>
      <use xlink:href="#DejaVuSans-44"/>
      <use xlink:href="#DejaVuSans-61" x="77.001953"/>
      <use xlink:href="#DejaVuSans-74" x="138.28125"/>
      <use xlink:href="#DejaVuSans-65" x="177.490234"/>
     </g>
    </g>
   </g>
   <g id="matplotlib.axis_2">
    <g id="ytick_1">
     <g id="line2d_21">
      <path d="M 46.965625 447.078125 
L 604.965625 447.078125 
" clip-path="url(#pebb6d4d2a1)" style="fill: none; stroke: #b0b0b0; stroke-opacity: 0.6; stroke-width: 0.8; stroke-linecap: square"/>
     </g>
     <g id="line2d_22">
      <defs>
       <path id="mc11dc46687" d="M 0 0 
L -3.5 0 
" style="stroke: #000000; stroke-width: 0.8"/>
      </defs>
      <g>
       <use xlink:href="#mc11dc46687" x="46.965625" y="447.078125" style="stroke: #000000; stroke-width: 0.8"/>
      </g>
     </g>
     <g id="text_12">
      <!-- 0 -->
      <g transform="translate(33.603125 450.877344)scale(0.1 -0.1)">
       <use xlink:href="#DejaVuSans-30"/>
      </g>
     </g>
    </g>
    <g id="ytick_2">
     <g id="line2d_23">
      <path d="M 46.965625 377.078125 
L 604.965625 377.078125 
" clip-path="url(#pebb6d4d2a1)" style="fill: none; stroke: #b0b0b0; stroke-opacity: 0.6; stroke-width: 0.8; stroke-linecap: square"/>
     </g>
     <g id="line2d_24">
      <g>
       <use xlink:href="#mc11dc46687" x="46.965625" y="377.078125" style="stroke: #000000; stroke-width: 0.8"/>
      </g>
     </g>
     <g id="text_13">
      <!-- 50 -->
      <g transform="translate(27.240625 380.877344)scale(0.1 -0.1)">
       <defs>
        <path id="DejaVuSans-35" d="M 691 4666 
L 3169 4666 
L 3169 4134 
L 1269 4134 
L 1269 2991 
Q 1406 3038 1543 3061 
Q 1681 3084 1819 3084 
Q 2600 3084 3056 2656 
Q 3513 2228 3513 1497 
Q 3513 744 3044 326 
Q 2575 -91 1722 -91 
Q 1428 -91 1123 -41 
Q 819 9 494 109 
L 494 744 
Q 775 591 1075 516 
Q 1375 441 1709 441 
Q 2250 441 2565 725 
Q 2881 1009 2881 1497 
Q 2881 1984 2565 2268 
Q 2250 2553 1709 2553 
Q 1456 2553 1204 2497 
Q 953 2441 691 2322 
L 691 4666 
z
" transform="scale(0.015625)"/>
       </defs>
       <use xlink:href="#DejaVuSans-35"/>
       <use xlink:href="#DejaVuSans-30" x="63.623047"/>
      </g>
     </g>
    </g>
    <g id="ytick_3">
     <g id="line2d_25">
      <path d="M 46.965625 307.078125 
L 604.965625 307.078125 
" clip-path="url(#pebb6d4d2a1)" style="fill: none; stroke: #b0b0b0; stroke-opacity: 0.6; stroke-width: 0.8; stroke-linecap: square"/>
     </g>
     <g id="line2d_26">
      <g>
       <use xlink:href="#mc11dc46687" x="46.965625" y="307.078125" style="stroke: #000000; stroke-width: 0.8"/>
      </g>
     </g>
     <g id="text_14">
      <!-- 100 -->
      <g transform="translate(20.878125 310.877344)scale(0.1 -0.1)">
       <use xlink:href="#DejaVuSans-31"/>
       <use xlink:href="#DejaVuSans-30" x="63.623047"/>
       <use xlink:href="#DejaVuSans-30" x="127.246094"/>
      </g>
     </g>
    </g>
    <g id="ytick_4">
     <g id="line2d_27">
      <path d="M 46.965625 237.078125 
L 604.965625 237.078125 
" clip-path="url(#pebb6d4d2a1)" style="fill: none; stroke: #b0b0b0; stroke-opacity: 0.6; stroke-width: 0.8; stroke-linecap: square"/>
     </g>
     <g id="line2d_28">
      <g>
       <use xlink:href="#mc11dc46687" x="46.965625" y="237.078125" style="stroke: #000000; stroke-width: 0.8"/>
      </g>
     </g>
     <g id="text_15">
      <!-- 150 -->
      <g transform="translate(20.878125 240.877344)scale(0.1 -0.1)">
       <use xlink:href="#DejaVuSans-31"/>
       <use xlink:href="#DejaVuSans-35" x="63.623047"/>
       <use xlink:href="#DejaVuSans-30" x="127.246094"/>
      </g>
     </g>
    </g>
    <g id="ytick_5">
     <g id="line2d_29">
      <path d="M 46.965625 167.078125 
L 604.965625 167.078125 
" clip-path="url(#pebb6d4d2a1)" style="fill: none; stroke: #b0b0b0; stroke-opacity: 0.6; stroke-width: 0.8; stroke-linecap: square"/>
     </g>
     <g id="line2d_30">
      <g>
       <use xlink:href="#mc11dc46687" x="46.965625" y="167.078125" style="stroke: #000000; stroke-width: 0.8"/>
      </g>
     </g>
     <g id="text_16">
      <!-- 200 -->
      <g transform="translate(20.878125 170.877344)scale(0.1 -0.1)">
       <use xlink:href="#DejaVuSans-32"/>
       <use xlink:href="#DejaVuSans-30" x="63.623047"/>
       <use xlink:href="#DejaVuSans-30" x="127.246094"/>
      </g>
     </g>
    </g>
    <g id="ytick_6">
     <g id="line2d_31">
      <path d="M 46.965625 97.078125 
L 604.965625 97.078125 
" clip-path="url(#pebb6d4d2a1)" style="fill: none; stroke: #b0b0b0; stroke-opacity: 0.6; stroke-width: 0.8; stroke-linecap: square"/>
     </g>
     <g id="line2d_32">
      <g>
       <use xlink:href="#mc11dc46687" x="46.965625" y="97.078125" style="stroke: #000000; stroke-width: 0.8"/>
      </g>
     </g>
     <g id="text_17">
      <!-- 250 -->
      <g transform="translate(20.878125 100.877344)scale(0.1 -0.1)">
       <use xlink:href="#DejaVuSans-32"/>
       <use xlink:href="#DejaVuSans-35" x="63.623047"/>
       <use xlink:href="#DejaVuSans-30" x="127.246094"/>
      </g>
     </g>
    </g>
    <g id="ytick_7">
     <g id="line2d_33">
      <path d="M 46.965625 27.078125 
L 604.965625 27.078125 
" clip-path="url(#pebb6d4d2a1)" style="fill: none; stroke: #b0b0b0; stroke-opacity: 0.6; stroke-width: 0.8; stroke-linecap: square"/>
     </g>
     <g id="line2d_34">
      <g>
       <use xlink:href="#mc11dc46687" x="46.965625" y="27.078125" style="stroke: #000000; stroke-width: 0.8"/>
      </g>
     </g>
     <g id="text_18">
      <!-- 300 -->
      <g transform="translate(20.878125 30.877344)scale(0.1 -0.1)">
       <defs>
        <path id="DejaVuSans-33" d="M 2597 2516 
Q 3050 2419 3304 2112 
Q 3559 1806 3559 1356 
Q 3559 666 3084 287 
Q 2609 -91 1734 -91 
Q 1441 -91 1130 -33 
Q 819 25 488 141 
L 488 750 
Q 750 597 1062 519 
Q 1375 441 1716 441 
Q 2309 441 2620 675 
Q 2931 909 2931 1356 
Q 2931 1769 2642 2001 
Q 2353 2234 1838 2234 
L 1294 2234 
L 1294 2753 
L 1863 2753 
Q 2328 2753 2575 2939 
Q 2822 3125 2822 3475 
Q 2822 3834 2567 4026 
Q 2313 4219 1838 4219 
Q 1578 4219 1281 4162 
Q 984 4106 628 3988 
L 628 4550 
Q 988 4650 1302 4700 
Q 1616 4750 1894 4750 
Q 2613 4750 3031 4423 
Q 3450 4097 3450 3541 
Q 3450 3153 3228 2886 
Q 3006 2619 2597 2516 
z
" transform="scale(0.015625)"/>
       </defs>
       <use xlink:href="#DejaVuSans-33"/>
       <use xlink:href="#DejaVuSans-30" x="63.623047"/>
       <use xlink:href="#DejaVuSans-30" x="127.246094"/>
      </g>
     </g>
    </g>
    <g id="text_19">
     <!-- Count -->
     <g transform="translate(14.798437 258.926562)rotate(-90)scale(0.1 -0.1)">
      <defs>
       <path id="DejaVuSans-43" d="M 4122 4306 
L 4122 3641 
Q 3803 3938 3442 4084 
Q 3081 4231 2675 4231 
Q 1875 4231 1450 3742 
Q 1025 3253 1025 2328 
Q 1025 1406 1450 917 
Q 1875 428 2675 428 
Q 3081 428 3442 575 
Q 3803 722 4122 1019 
L 4122 359 
Q 3791 134 3420 21 
Q 3050 -91 2638 -91 
Q 1578 -91 968 557 
Q 359 1206 359 2328 
Q 359 3453 968 4101 
Q 1578 4750 2638 4750 
Q 3056 4750 3426 4639 
Q 3797 4528 4122 4306 
z
" transform="scale(0.015625)"/>
       <path id="DejaVuSans-6f" d="M 1959 3097 
Q 1497 3097 1228 2736 
Q 959 2375 959 1747 
Q 959 1119 1226 758 
Q 1494 397 1959 397 
Q 2419 397 2687 759 
Q 2956 1122 2956 1747 
Q 2956 2369 2687 2733 
Q 2419 3097 1959 3097 
z
M 1959 3584 
Q 2709 3584 3137 3096 
Q 3566 2609 3566 1747 
Q 3566 888 3137 398 
Q 2709 -91 1959 -91 
Q 1206 -91 779 398 
Q 353 888 353 1747 
Q 353 2609 779 3096 
Q 1206 3584 1959 3584 
z
" transform="scale(0.015625)"/>
       <path id="DejaVuSans-75" d="M 544 1381 
L 544 3500 
L 1119 3500 
L 1119 1403 
Q 1119 906 1312 657 
Q 1506 409 1894 409 
Q 2359 409 2629 706 
Q 2900 1003 2900 1516 
L 2900 3500 
L 3475 3500 
L 3475 0 
L 2900 0 
L 2900 538 
Q 2691 219 2414 64 
Q 2138 -91 1772 -91 
Q 1169 -91 856 284 
Q 544 659 544 1381 
z
M 1991 3584 
L 1991 3584 
z
" transform="scale(0.015625)"/>
       <path id="DejaVuSans-6e" d="M 3513 2113 
L 3513 0 
L 2938 0 
L 2938 2094 
Q 2938 2591 2744 2837 
Q 2550 3084 2163 3084 
Q 1697 3084 1428 2787 
Q 1159 2491 1159 1978 
L 1159 0 
L 581 0 
L 581 3500 
L 1159 3500 
L 1159 2956 
Q 1366 3272 1645 3428 
Q 1925 3584 2291 3584 
Q 2894 3584 3203 3211 
Q 3513 2838 3513 2113 
z
" transform="scale(0.015625)"/>
      </defs>
      <use xlink:href="#DejaVuSans-43"/>
      <use xlink:href="#DejaVuSans-6f" x="69.824219"/>
      <use xlink:href="#DejaVuSans-75" x="131.005859"/>
      <use xlink:href="#DejaVuSans-6e" x="194.384766"/>
      <use xlink:href="#DejaVuSans-74" x="257.763672"/>
     </g>
    </g>
   </g>
   <g id="line2d_35">
    <path d="M 579.601989 424.678125 
L 567.602275 424.678125 
L 567.437688 423.278125 
L 552.432704 423.278125 
L 550.173053 421.878125 
L 524.81921 421.878125 
L 524.783422 423.278125 
L 505.547978 423.278125 
L 505.411562 424.678125 
L 487.249189 424.678125 
L 487.229132 426.078125 
L 485.101744 426.078125 
L 485.045344 427.478125 
L 474.395253 427.478125 
L 474.323266 426.078125 
L 464.807035 426.078125 
L 464.094648 427.478125 
L 429.073324 427.478125 
L 428.080587 426.078125 
L 411.718063 426.078125 
L 411.620991 424.678125 
L 398.280271 424.678125 
L 398.280225 423.278125 
L 384.079895 423.278125 
L 384.581461 423.278125 
L 384.02543 424.678125 
L 373.427346 424.678125 
L 373.419037 423.278125 
L 363.739082 423.278125 
L 363.239288 424.678125 
L 354.010552 424.678125 
L 353.886467 423.278125 
L 334.328844 423.278125 
L 334.328668 424.678125 
L 279.004005 424.678125 
L 278.919204 426.078125 
L 275.495888 426.078125 
L 275.495718 427.478125 
L 272.746223 427.478125 
L 272.746399 428.878125 
L 264.927551 428.878125 
L 264.270362 430.278125 
L 261.564539 430.278125 
L 261.291982 428.878125 
L 229.398032 428.878125 
L 229.371986 430.278125 
L 224.021708 430.278125 
L 223.448418 431.678125 
L 209.643913 431.678125 
L 209.625587 430.278125 
L 206.192719 430.278125 
L 206.178768 431.678125 
L 201.54059 431.678125 
L 201.160926 433.078125 
L 194.928196 433.078125 
L 194.891892 434.478125 
L 192.739492 434.478125 
L 192.505148 435.878125 
L 188.18021 435.878125 
L 188.175863 437.278125 
L 178.953076 437.278125 
L 177.693072 438.678125 
L 121.393671 438.678125 
L 121.366219 440.078125 
L 111.899171 440.078125 
L 111.88114 441.478125 
L 98.56321 441.478125 
L 98.182605 442.878125 
L 83.621145 442.878125 
L 83.069376 444.278125 
L 72.916203 444.278125 
L 72.329261 445.678125 
L 72.329261 445.678125 
" clip-path="url(#pebb6d4d2a1)" style="fill: none; stroke: #1f77b4; stroke-opacity: 0.8; stroke-width: 1.5; stroke-linecap: square"/>
   </g>
   <g id="line2d_36">
    <path d="M 579.601989 92.878125 
L 579.509206 42.478125 
L 579.509055 45.278125 
L 577.240297 45.278125 
L 575.540763 48.078125 
L 575.353301 48.078125 
L 575.059202 49.478125 
L 574.976199 49.478125 
L 572.792614 52.278125 
L 572.225638 53.678125 
L 572.214106 56.478125 
L 571.495841 57.878125 
L 571.049761 57.878125 
L 571.049657 62.078125 
L 569.363799 56.478125 
L 567.602275 57.878125 
L 567.437688 52.278125 
L 565.929303 52.278125 
L 565.928754 53.678125 
L 564.275226 55.078125 
L 560.414348 55.078125 
L 560.343479 53.678125 
L 559.212993 53.678125 
L 555.713179 57.878125 
L 559.213084 59.278125 
L 552.432704 59.278125 
L 550.173053 56.478125 
L 547.259102 56.478125 
L 547.258468 60.678125 
L 545.047515 60.678125 
L 545.047417 62.078125 
L 543.465928 62.078125 
L 541.714033 63.478125 
L 539.739223 66.278125 
L 535.814955 66.278125 
L 535.769976 67.678125 
L 527.444279 67.678125 
L 525.618359 69.078125 
L 524.81921 67.678125 
L 524.783422 70.478125 
L 521.958972 70.478125 
L 521.958861 71.878125 
L 518.870916 71.878125 
L 517.963973 73.278125 
L 517.164759 74.678125 
L 517.165753 74.678125 
L 512.617075 74.678125 
L 511.698313 76.078125 
L 511.698143 77.478125 
L 511.583655 77.478125 
L 511.252742 78.878125 
L 508.672985 78.878125 
L 509.515427 80.278125 
L 507.749097 84.478125 
L 507.5668 85.878125 
L 506.524024 85.878125 
L 506.203794 94.278125 
L 504.181677 94.278125 
L 501.679816 95.678125 
L 501.661445 97.078125 
L 501.361633 101.278125 
L 501.358194 94.278125 
L 500.813748 95.678125 
L 497.419498 95.678125 
L 497.123739 99.878125 
L 490.327256 101.278125 
L 490.32689 104.078125 
L 490.016533 105.478125 
L 488.620903 105.478125 
L 487.816073 106.878125 
L 487.249189 106.878125 
L 487.229132 109.678125 
L 486.06718 109.678125 
L 485.514587 112.478125 
L 485.101744 112.478125 
L 485.045344 115.278125 
L 484.076901 115.278125 
L 484.044049 118.078125 
L 484.043885 116.678125 
L 481.806979 116.678125 
L 481.589718 118.078125 
L 481.589613 119.478125 
L 481.145233 119.478125 
L 480.766373 120.878125 
L 480.176894 122.278125 
L 479.469476 122.278125 
L 479.013347 123.678125 
L 479.004116 129.278125 
L 477.200528 134.878125 
L 476.101181 134.878125 
L 476.047689 129.278125 
L 475.410852 129.278125 
L 475.35889 130.678125 
L 475.006907 130.678125 
L 475.00575 125.078125 
L 474.874904 125.078125 
L 474.395253 126.478125 
L 474.323266 120.878125 
L 473.322214 122.278125 
L 471.427058 122.278125 
L 471.138092 123.678125 
L 471.123317 125.078125 
L 470.593436 127.878125 
L 470.302169 127.878125 
L 470.301992 130.678125 
L 465.873249 132.078125 
L 464.858023 132.078125 
L 464.807035 133.478125 
L 464.173624 141.878125 
L 464.094648 140.478125 
L 459.746097 140.478125 
L 459.077218 143.278125 
L 457.054591 144.678125 
L 455.567741 144.678125 
L 455.56763 146.078125 
L 455.225362 147.478125 
L 451.718722 147.478125 
L 450.133016 148.878125 
L 450.129701 147.478125 
L 446.099026 148.878125 
L 444.262154 148.878125 
L 444.033041 150.278125 
L 441.620551 151.678125 
L 441.112624 153.078125 
L 440.060394 151.678125 
L 438.397896 154.478125 
L 434.159407 154.478125 
L 433.872663 155.878125 
L 429.073324 155.878125 
L 428.103012 147.478125 
L 428.080587 146.078125 
L 426.445378 147.478125 
L 426.442115 148.878125 
L 425.24435 150.278125 
L 423.999761 154.478125 
L 423.991805 157.278125 
L 421.874453 160.078125 
L 421.759507 164.278125 
L 421.191361 165.678125 
L 416.11774 168.478125 
L 415.729099 158.678125 
L 414.93114 160.078125 
L 414.931036 162.878125 
L 411.820006 162.878125 
L 411.718063 165.678125 
L 411.620991 158.678125 
L 410.747934 158.678125 
L 409.430215 160.078125 
L 409.065117 160.078125 
L 409.044588 161.478125 
L 407.037972 161.478125 
L 406.617447 162.878125 
L 406.482078 164.278125 
L 405.442492 164.278125 
L 405.442002 167.078125 
L 404.962036 167.078125 
L 404.77005 174.078125 
L 403.643957 174.078125 
L 402.627901 175.478125 
L 401.666702 175.478125 
L 401.612798 185.278125 
L 401.377664 190.878125 
L 398.280271 189.478125 
L 398.280225 168.478125 
L 395.941742 165.678125 
L 395.746539 165.678125 
L 395.056518 167.078125 
L 392.105681 167.078125 
L 392.049254 168.478125 
L 389.090768 168.478125 
L 388.626153 169.878125 
L 388.155047 168.478125 
L 386.303452 169.878125 
L 385.599636 169.878125 
L 385.599342 171.278125 
L 384.399255 171.278125 
L 384.079895 175.478125 
L 384.581461 175.478125 
L 383.813647 181.078125 
L 381.059491 181.078125 
L 379.629343 182.478125 
L 380.486252 182.478125 
L 377.891942 183.878125 
L 377.662168 189.478125 
L 377.433342 189.478125 
L 376.782625 190.878125 
L 374.478654 189.478125 
L 374.310165 190.878125 
L 374.255555 189.478125 
L 373.427346 189.478125 
L 373.419037 155.878125 
L 372.713521 136.278125 
L 372.638233 137.678125 
L 369.351907 137.678125 
L 369.314224 143.278125 
L 368.291296 144.678125 
L 367.757676 147.478125 
L 363.739082 147.478125 
L 363.239288 148.878125 
L 357.401847 148.878125 
L 359.204468 150.278125 
L 358.075845 150.278125 
L 357.879485 151.678125 
L 357.844116 153.078125 
L 356.34731 154.478125 
L 356.244086 157.278125 
L 356.205442 160.078125 
L 355.909061 160.078125 
L 354.478743 162.878125 
L 354.478743 164.278125 
L 354.017312 165.678125 
L 353.904321 160.078125 
L 353.903655 161.478125 
L 351.596088 161.478125 
L 351.650626 161.478125 
L 349.636027 162.878125 
L 336.10047 162.878125 
L 336.046945 164.278125 
L 335.48386 168.478125 
L 334.329001 168.478125 
L 334.328844 167.078125 
L 334.328668 168.478125 
L 331.337918 168.478125 
L 331.031987 169.878125 
L 328.674675 169.878125 
L 328.130908 171.278125 
L 328.126109 179.678125 
L 327.560415 181.078125 
L 327.560324 183.878125 
L 326.00037 183.878125 
L 325.891183 185.278125 
L 325.308563 185.278125 
L 324.158359 186.678125 
L 322.978638 186.678125 
L 322.857298 188.078125 
L 322.85503 189.478125 
L 318.423475 189.478125 
L 318.423377 188.078125 
L 317.362688 188.078125 
L 317.362492 190.878125 
L 315.569671 193.678125 
L 310.669527 193.678125 
L 310.663872 196.478125 
L 310.124401 196.478125 
L 309.600077 197.878125 
L 308.933389 197.878125 
L 308.921497 199.278125 
L 303.807975 199.278125 
L 303.355887 200.678125 
L 302.616865 202.078125 
L 300.454187 203.478125 
L 300.454187 203.478125 
L 299.38813 204.878125 
L 299.387947 206.278125 
L 295.232833 206.278125 
L 293.718931 207.678125 
L 291.505644 207.678125 
L 291.502395 209.078125 
L 287.488064 210.478125 
L 285.241488 211.878125 
L 282.977985 211.878125 
L 282.734626 213.278125 
L 281.2273 216.078125 
L 281.226418 217.478125 
L 276.174344 217.478125 
L 276.03279 220.278125 
L 275.495888 220.278125 
L 275.495718 223.078125 
L 274.900964 223.078125 
L 274.900807 221.678125 
L 274.54107 221.678125 
L 273.965628 223.078125 
L 273.965537 224.478125 
L 272.746223 225.878125 
L 272.746399 230.078125 
L 270.551327 230.078125 
L 267.143538 231.478125 
L 267.133417 234.278125 
L 265.490297 234.278125 
L 265.41899 235.678125 
L 264.994543 237.078125 
L 264.927551 241.278125 
L 264.270362 245.478125 
L 263.608269 246.878125 
L 263.541402 248.278125 
L 262.521011 248.278125 
L 261.564539 249.678125 
L 261.291982 249.678125 
L 260.303959 251.078125 
L 257.364125 251.078125 
L 257.319387 252.478125 
L 254.643945 252.478125 
L 254.643945 252.478125 
L 254.251375 253.878125 
L 254.248361 242.678125 
L 254.236842 244.078125 
L 252.917704 249.678125 
L 248.369125 249.678125 
L 248.277002 259.478125 
L 248.031172 262.278125 
L 246.073451 262.278125 
L 245.135323 263.678125 
L 242.616988 263.678125 
L 242.61298 265.078125 
L 242.379853 267.878125 
L 241.509175 269.278125 
L 241.485561 273.478125 
L 241.211964 273.478125 
L 241.167796 274.878125 
L 239.833078 274.878125 
L 238.150843 276.278125 
L 237.832222 276.278125 
L 237.810621 277.678125 
L 237.61785 279.078125 
L 233.166631 279.078125 
L 232.501374 280.478125 
L 232.134014 281.878125 
L 231.059955 283.278125 
L 230.818439 283.278125 
L 229.644236 284.678125 
L 229.398032 284.678125 
L 229.371986 288.878125 
L 229.093081 290.278125 
L 229.092937 291.678125 
L 228.680931 291.678125 
L 226.998271 300.078125 
L 226.85422 298.678125 
L 226.335891 298.678125 
L 226.2584 300.078125 
L 225.882057 301.478125 
L 224.021708 301.478125 
L 223.448418 304.278125 
L 221.901663 304.278125 
L 220.216688 302.878125 
L 220.189465 304.278125 
L 219.811331 304.278125 
L 219.240799 305.678125 
L 218.062908 298.678125 
L 214.731832 298.678125 
L 213.99489 300.078125 
L 213.990784 301.478125 
L 211.92727 301.478125 
L 211.924249 302.878125 
L 211.32301 302.878125 
L 211.002898 304.278125 
L 210.768057 304.278125 
L 210.757884 308.478125 
L 210.21908 308.478125 
L 210.21821 309.878125 
L 209.643913 309.878125 
L 209.629608 307.078125 
L 209.625587 308.478125 
L 206.74407 308.478125 
L 206.192719 309.878125 
L 206.178768 311.278125 
L 203.355312 311.278125 
L 202.022098 305.678125 
L 201.54059 309.878125 
L 201.160926 315.478125 
L 198.14666 315.478125 
L 197.778731 316.878125 
L 197.058055 316.878125 
L 197.057872 319.678125 
L 196.69397 319.678125 
L 196.663831 321.078125 
L 195.538961 321.078125 
L 195.384691 325.278125 
L 195.384691 325.278125 
L 195.289646 325.278125 
L 195.289528 328.078125 
L 194.928196 329.478125 
L 194.891892 330.878125 
L 193.714237 330.878125 
L 193.707934 332.278125 
L 193.534581 332.278125 
L 193.524833 337.878125 
L 193.077602 337.878125 
L 192.985231 339.278125 
L 192.739492 340.678125 
L 192.505148 343.478125 
L 192.471439 343.478125 
L 192.426564 347.678125 
L 191.948639 349.078125 
L 188.18021 349.078125 
L 188.175863 351.878125 
L 184.033406 351.878125 
L 184.00649 354.678125 
L 181.966799 354.678125 
L 181.964596 347.678125 
L 178.953076 347.678125 
L 177.693072 349.078125 
L 173.7234 350.478125 
L 171.129129 350.478125 
L 169.421841 351.878125 
L 167.651301 351.878125 
L 167.243754 353.278125 
L 166.143407 354.678125 
L 165.909573 356.078125 
L 165.909187 358.878125 
L 164.31051 358.878125 
L 162.991647 361.678125 
L 160.760748 361.678125 
L 160.760408 363.078125 
L 155.292112 363.078125 
L 152.822672 364.478125 
L 150.652763 364.478125 
L 150.607706 365.878125 
L 149.724214 367.278125 
L 148.55288 367.278125 
L 148.364987 368.678125 
L 148.364712 365.878125 
L 148.342098 367.278125 
L 148.090645 368.678125 
L 148.089867 371.478125 
L 136.771146 371.478125 
L 136.573512 375.678125 
L 134.824232 375.678125 
L 130.812758 377.078125 
L 130.815857 378.478125 
L 130.811555 378.478125 
L 125.395005 378.478125 
L 125.221076 382.678125 
L 122.059084 382.678125 
L 122.058973 384.078125 
L 121.923564 384.078125 
L 121.743915 385.478125 
L 121.366219 393.878125 
L 120.749629 393.878125 
L 120.061176 395.278125 
L 119.633303 395.278125 
L 119.486604 398.078125 
L 118.541305 399.478125 
L 116.257758 399.478125 
L 116.257529 402.278125 
L 113.990974 402.278125 
L 113.323599 403.678125 
L 113.286804 405.078125 
L 112.72383 405.078125 
L 112.375665 407.878125 
L 112.336013 409.278125 
L 111.899171 410.678125 
L 111.88114 412.078125 
L 104.372833 412.078125 
L 104.262686 414.878125 
L 103.201734 414.878125 
L 102.117901 416.278125 
L 101.068757 416.278125 
L 100.337594 417.678125 
L 99.767454 417.678125 
L 99.354775 419.078125 
L 99.148262 421.878125 
L 98.56321 423.278125 
L 98.182605 427.478125 
L 90.698422 427.478125 
L 89.700683 428.878125 
L 86.455147 428.878125 
L 86.455035 430.278125 
L 84.531827 430.278125 
L 84.016512 431.678125 
L 83.621145 431.678125 
L 83.069376 434.478125 
L 80.232361 434.478125 
L 79.932444 435.878125 
L 78.231582 435.878125 
L 78.222789 437.278125 
L 77.975984 438.678125 
L 76.875454 438.678125 
L 76.755925 440.078125 
L 73.813176 441.478125 
L 72.916203 441.478125 
L 72.329261 442.878125 
L 72.329261 442.878125 
" clip-path="url(#pebb6d4d2a1)" style="fill: none; stroke: #ff7f0e; stroke-opacity: 0.8; stroke-width: 1.5; stroke-linecap: square"/>
   </g>
   <g id="line2d_37">
    <path d="M 579.601989 249.678125 
L 579.509206 225.878125 
L 579.509055 227.278125 
L 575.353301 227.278125 
L 575.059202 228.678125 
L 572.225638 228.678125 
L 572.214106 230.078125 
L 571.495841 231.478125 
L 571.049657 231.478125 
L 569.363799 230.078125 
L 567.602275 230.078125 
L 567.437688 228.678125 
L 565.929303 228.678125 
L 565.928754 230.078125 
L 564.275226 231.478125 
L 559.212993 231.478125 
L 555.713179 232.878125 
L 559.213084 234.278125 
L 552.432704 234.278125 
L 550.173053 232.878125 
L 547.259102 232.878125 
L 547.258468 237.078125 
L 541.714033 237.078125 
L 539.739223 238.478125 
L 535.814955 238.478125 
L 535.769976 239.878125 
L 527.444279 239.878125 
L 525.618359 241.278125 
L 521.958972 241.278125 
L 521.958861 242.678125 
L 518.870916 242.678125 
L 517.963973 244.078125 
L 517.164759 245.478125 
L 517.165753 245.478125 
L 508.672985 245.478125 
L 509.515427 246.878125 
L 507.749097 248.278125 
L 506.474076 248.278125 
L 506.346682 249.678125 
L 501.679816 249.678125 
L 501.661445 251.078125 
L 501.358194 252.478125 
L 500.813748 253.878125 
L 497.419498 253.878125 
L 497.123739 255.278125 
L 490.327256 256.678125 
L 490.32689 258.078125 
L 490.016533 259.478125 
L 488.620903 259.478125 
L 487.816073 260.878125 
L 487.249189 260.878125 
L 487.229132 262.278125 
L 486.06718 262.278125 
L 485.514587 263.678125 
L 485.101744 263.678125 
L 485.045344 266.478125 
L 484.076901 266.478125 
L 484.043885 267.878125 
L 481.806979 267.878125 
L 481.589613 269.278125 
L 480.766373 269.278125 
L 480.176894 270.678125 
L 479.004116 270.678125 
L 477.200528 272.078125 
L 476.101181 272.078125 
L 476.047689 267.878125 
L 475.410852 267.878125 
L 475.35889 269.278125 
L 475.006907 269.278125 
L 475.00575 266.478125 
L 474.874904 266.478125 
L 474.395253 267.878125 
L 474.323266 266.478125 
L 471.427058 266.478125 
L 470.873629 269.278125 
L 470.301992 269.278125 
L 465.873249 270.678125 
L 464.858023 270.678125 
L 464.807035 272.078125 
L 464.094648 273.478125 
L 459.746097 273.478125 
L 459.077218 274.878125 
L 457.054591 276.278125 
L 455.567741 276.278125 
L 455.56763 277.678125 
L 455.225362 279.078125 
L 450.129701 279.078125 
L 446.099026 280.478125 
L 444.262154 280.478125 
L 444.033041 281.878125 
L 441.620551 283.278125 
L 441.112624 283.278125 
L 440.060394 281.878125 
L 438.397896 283.278125 
L 434.159407 283.278125 
L 433.872663 284.678125 
L 429.073324 284.678125 
L 428.080587 283.278125 
L 426.445378 284.678125 
L 426.442115 286.078125 
L 423.999761 288.878125 
L 423.991805 290.278125 
L 421.874453 291.678125 
L 421.759507 293.078125 
L 421.191361 293.078125 
L 416.11774 294.478125 
L 415.729099 284.678125 
L 414.931036 286.078125 
L 412.881375 286.078125 
L 412.840743 284.678125 
L 411.820006 284.678125 
L 411.620991 286.078125 
L 410.747934 286.078125 
L 409.430215 287.478125 
L 407.037972 287.478125 
L 406.617447 288.878125 
L 406.482078 290.278125 
L 405.442158 290.278125 
L 405.442002 291.678125 
L 404.962036 291.678125 
L 404.77005 293.078125 
L 401.666702 293.078125 
L 401.612798 294.478125 
L 401.377664 298.678125 
L 398.280271 298.678125 
L 398.280225 294.478125 
L 395.746539 294.478125 
L 395.056518 295.878125 
L 392.105681 295.878125 
L 392.049254 297.278125 
L 389.090768 297.278125 
L 388.626153 298.678125 
L 385.599636 298.678125 
L 385.599342 300.078125 
L 384.079895 300.078125 
L 384.581461 300.078125 
L 384.02543 301.478125 
L 383.813647 302.878125 
L 381.059491 302.878125 
L 379.629343 304.278125 
L 380.486252 304.278125 
L 377.891942 305.678125 
L 377.662168 307.078125 
L 377.433342 307.078125 
L 376.782625 308.478125 
L 374.478654 307.078125 
L 374.310165 308.478125 
L 374.255555 307.078125 
L 373.427346 307.078125 
L 373.419037 284.678125 
L 372.713521 279.078125 
L 372.638233 280.478125 
L 369.351907 280.478125 
L 369.314224 281.878125 
L 368.291296 283.278125 
L 367.757676 284.678125 
L 357.401847 284.678125 
L 359.204468 286.078125 
L 358.075845 286.078125 
L 357.844116 287.478125 
L 356.274506 288.878125 
L 356.205442 290.278125 
L 355.215268 290.278125 
L 354.478743 291.678125 
L 354.478743 293.078125 
L 354.017312 294.478125 
L 353.904321 288.878125 
L 353.903655 290.278125 
L 351.596088 290.278125 
L 351.650626 290.278125 
L 349.636027 291.678125 
L 336.10047 291.678125 
L 336.046945 293.078125 
L 331.337918 293.078125 
L 331.031987 294.478125 
L 328.674675 294.478125 
L 328.130908 295.878125 
L 328.126109 297.278125 
L 326.00037 297.278125 
L 325.891183 298.678125 
L 325.308563 298.678125 
L 324.158359 300.078125 
L 322.978638 300.078125 
L 322.857298 301.478125 
L 322.85503 302.878125 
L 318.423475 302.878125 
L 318.423377 301.478125 
L 317.362688 301.478125 
L 317.362492 302.878125 
L 315.569671 304.278125 
L 308.933389 304.278125 
L 308.921497 305.678125 
L 303.807975 305.678125 
L 303.355887 307.078125 
L 302.616865 308.478125 
L 300.454187 309.878125 
L 300.454187 309.878125 
L 299.38813 311.278125 
L 299.387947 312.678125 
L 295.232833 312.678125 
L 293.718931 314.078125 
L 291.505644 314.078125 
L 291.502395 315.478125 
L 287.488064 316.878125 
L 285.241488 318.278125 
L 282.977985 318.278125 
L 282.734626 319.678125 
L 281.2273 321.078125 
L 281.226418 322.478125 
L 275.495888 322.478125 
L 275.495718 325.278125 
L 274.54107 325.278125 
L 273.965628 326.678125 
L 273.965537 328.078125 
L 272.746223 329.478125 
L 272.746399 333.678125 
L 270.551327 333.678125 
L 267.143538 335.078125 
L 267.133417 336.478125 
L 265.490297 336.478125 
L 265.461623 337.878125 
L 265.41899 336.478125 
L 264.994543 336.478125 
L 264.927551 339.278125 
L 263.608269 339.278125 
L 263.541402 340.678125 
L 262.521011 340.678125 
L 261.564539 342.078125 
L 254.643945 342.078125 
L 254.643945 342.078125 
L 254.251375 343.478125 
L 254.248361 332.278125 
L 254.236842 333.678125 
L 252.917704 335.078125 
L 248.369125 335.078125 
L 248.277002 339.278125 
L 248.031172 340.678125 
L 242.616988 340.678125 
L 242.61298 342.078125 
L 242.379853 343.478125 
L 241.509175 344.878125 
L 241.485561 347.678125 
L 241.211964 347.678125 
L 241.167796 349.078125 
L 239.833078 349.078125 
L 238.150843 350.478125 
L 237.832222 350.478125 
L 237.810621 351.878125 
L 237.61785 353.278125 
L 233.166631 353.278125 
L 232.501374 354.678125 
L 232.134014 354.678125 
L 231.059955 356.078125 
L 230.818439 356.078125 
L 229.644236 357.478125 
L 229.371986 357.478125 
L 229.093081 358.878125 
L 229.092937 360.278125 
L 228.680931 360.278125 
L 226.998271 361.678125 
L 226.85422 360.278125 
L 226.335891 360.278125 
L 226.2584 361.678125 
L 225.882057 363.078125 
L 224.021708 363.078125 
L 223.448418 361.678125 
L 220.216688 361.678125 
L 220.189465 363.078125 
L 219.811331 363.078125 
L 219.240799 364.478125 
L 218.062908 360.278125 
L 214.731832 360.278125 
L 213.990784 361.678125 
L 211.32301 361.678125 
L 211.002898 363.078125 
L 210.768057 363.078125 
L 210.757884 364.478125 
L 210.21908 364.478125 
L 210.21821 365.878125 
L 206.192719 365.878125 
L 206.178768 367.278125 
L 197.058055 367.278125 
L 197.057872 368.678125 
L 195.426179 368.678125 
L 195.362927 370.078125 
L 195.289528 370.078125 
L 194.891892 371.478125 
L 193.714237 371.478125 
L 193.707934 372.878125 
L 193.534581 372.878125 
L 193.524833 374.278125 
L 193.077602 374.278125 
L 192.985231 375.678125 
L 192.453173 375.678125 
L 192.426564 377.078125 
L 191.948639 378.478125 
L 188.176013 378.478125 
L 188.175863 379.878125 
L 184.033406 379.878125 
L 184.00649 381.278125 
L 181.966799 381.278125 
L 181.964596 377.078125 
L 178.953076 377.078125 
L 177.693072 378.478125 
L 171.129129 378.478125 
L 169.421841 379.878125 
L 167.651301 379.878125 
L 167.243754 381.278125 
L 166.143407 382.678125 
L 165.909573 382.678125 
L 165.909187 385.478125 
L 164.31051 385.478125 
L 162.991647 386.878125 
L 160.760748 386.878125 
L 160.760408 388.278125 
L 155.292112 388.278125 
L 152.822672 389.678125 
L 150.652763 389.678125 
L 150.607706 391.078125 
L 148.55288 391.078125 
L 148.364712 392.478125 
L 148.342098 393.878125 
L 148.090645 395.278125 
L 148.089867 398.078125 
L 136.615059 398.078125 
L 136.573512 399.478125 
L 134.824232 399.478125 
L 130.811555 400.878125 
L 125.395005 400.878125 
L 125.225822 402.278125 
L 125.221076 403.678125 
L 122.059084 403.678125 
L 122.058973 405.078125 
L 121.923564 405.078125 
L 121.743915 406.478125 
L 121.366219 407.878125 
L 120.749629 407.878125 
L 120.061176 409.278125 
L 119.633303 409.278125 
L 119.486604 410.678125 
L 118.541305 412.078125 
L 116.257758 412.078125 
L 116.257529 413.478125 
L 113.990974 413.478125 
L 113.323599 414.878125 
L 113.286804 416.278125 
L 112.72383 416.278125 
L 112.375665 417.678125 
L 112.336013 419.078125 
L 111.899171 420.478125 
L 111.88114 421.878125 
L 104.315974 421.878125 
L 104.262686 423.278125 
L 103.201734 423.278125 
L 102.117901 424.678125 
L 101.068757 424.678125 
L 100.337594 426.078125 
L 99.354775 426.078125 
L 99.148262 428.878125 
L 98.56321 428.878125 
L 98.182605 430.278125 
L 90.698422 430.278125 
L 89.700683 431.678125 
L 86.455147 431.678125 
L 86.455035 433.078125 
L 84.531827 433.078125 
L 84.016512 434.478125 
L 83.621145 434.478125 
L 83.069376 435.878125 
L 80.232361 435.878125 
L 79.932444 437.278125 
L 78.222789 437.278125 
L 77.975984 438.678125 
L 76.875454 438.678125 
L 76.755925 440.078125 
L 73.813176 441.478125 
L 72.916203 441.478125 
L 72.329261 442.878125 
L 72.329261 442.878125 
" clip-path="url(#pebb6d4d2a1)" style="fill: none; stroke: #2ca02c; stroke-opacity: 0.8; stroke-width: 1.5; stroke-linecap: square"/>
   </g>
   <g id="patch_3">
    <path d="M 46.965625 465.838125 
L 46.965625 22.318125 
" style="fill: none; stroke: #000000; stroke-width: 0.8; stroke-linejoin: miter; stroke-linecap: square"/>
   </g>
   <g id="patch_4">
    <path d="M 604.965625 465.838125 
L 604.965625 22.318125 
" style="fill: none; stroke: #000000; stroke-width: 0.8; stroke-linejoin: miter; stroke-linecap: square"/>
   </g>
   <g id="patch_5">
    <path d="M 46.965625 465.838125 
L 604.965625 465.838125 
" style="fill: none; stroke: #000000; stroke-width: 0.8; stroke-linejoin: miter; stroke-linecap: square"/>
   </g>
   <g id="patch_6">
    <path d="M 46.965625 22.318125 
L 604.965625 22.318125 
" style="fill: none; stroke: #000000; stroke-width: 0.8; stroke-linejoin: miter; stroke-linecap: square"/>
   </g>
   <g id="text_20">
    <!-- 16 -->
    <g transform="translate(579.601989 424.678125)scale(0.1 -0.1)">
     <defs>
      <path id="DejaVuSans-36" d="M 2113 2584 
Q 1688 2584 1439 2293 
Q 1191 2003 1191 1497 
Q 1191 994 1439 701 
Q 1688 409 2113 409 
Q 2538 409 2786 701 
Q 3034 994 3034 1497 
Q 3034 2003 2786 2293 
Q 2538 2584 2113 2584 
z
M 3366 4563 
L 3366 3988 
Q 3128 4100 2886 4159 
Q 2644 4219 2406 4219 
Q 1781 4219 1451 3797 
Q 1122 3375 1075 2522 
Q 1259 2794 1537 2939 
Q 1816 3084 2150 3084 
Q 2853 3084 3261 2657 
Q 3669 2231 3669 1497 
Q 3669 778 3244 343 
Q 2819 -91 2113 -91 
Q 1303 -91 875 529 
Q 447 1150 447 2328 
Q 447 3434 972 4092 
Q 1497 4750 2381 4750 
Q 2619 4750 2861 4703 
Q 3103 4656 3366 4563 
z
" transform="scale(0.015625)"/>
     </defs>
     <use xlink:href="#DejaVuSans-31"/>
     <use xlink:href="#DejaVuSans-36" x="63.623047"/>
    </g>
   </g>
   <g id="text_21">
    <!-- 253 -->
    <g transform="translate(579.601989 92.878125)scale(0.1 -0.1)">
     <use xlink:href="#DejaVuSans-32"/>
     <use xlink:href="#DejaVuSans-35" x="63.623047"/>
     <use xlink:href="#DejaVuSans-33" x="127.246094"/>
    </g>
   </g>
   <g id="text_22">
    <!-- 141 -->
    <g transform="translate(579.601989 249.678125)scale(0.1 -0.1)">
     <use xlink:href="#DejaVuSans-31"/>
     <use xlink:href="#DejaVuSans-34" x="63.623047"/>
     <use xlink:href="#DejaVuSans-31" x="127.246094"/>
    </g>
   </g>
   <g id="text_23">
    <!-- Peers over time -->
    <g transform="translate(278.839375 16.318125)scale(0.12 -0.12)">
     <defs>
      <path id="DejaVuSans-50" d="M 1259 4147 
L 1259 2394 
L 2053 2394 
Q 2494 2394 2734 2622 
Q 2975 2850 2975 3272 
Q 2975 3691 2734 3919 
Q 2494 4147 2053 4147 
L 1259 4147 
z
M 628 4666 
L 2053 4666 
Q 2838 4666 3239 4311 
Q 3641 3956 3641 3272 
Q 3641 2581 3239 2228 
Q 2838 1875 2053 1875 
L 1259 1875 
L 1259 0 
L 628 0 
L 628 4666 
z
" transform="scale(0.015625)"/>
      <path id="DejaVuSans-72" d="M 2631 2963 
Q 2534 3019 2420 3045 
Q 2306 3072 2169 3072 
Q 1681 3072 1420 2755 
Q 1159 2438 1159 1844 
L 1159 0 
L 581 0 
L 581 3500 
L 1159 3500 
L 1159 2956 
Q 1341 3275 1631 3429 
Q 1922 3584 2338 3584 
Q 2397 3584 2469 3576 
Q 2541 3569 2628 3553 
L 2631 2963 
z
" transform="scale(0.015625)"/>
      <path id="DejaVuSans-73" d="M 2834 3397 
L 2834 2853 
Q 2591 2978 2328 3040 
Q 2066 3103 1784 3103 
Q 1356 3103 1142 2972 
Q 928 2841 928 2578 
Q 928 2378 1081 2264 
Q 1234 2150 1697 2047 
L 1894 2003 
Q 2506 1872 2764 1633 
Q 3022 1394 3022 966 
Q 3022 478 2636 193 
Q 2250 -91 1575 -91 
Q 1294 -91 989 -36 
Q 684 19 347 128 
L 347 722 
Q 666 556 975 473 
Q 1284 391 1588 391 
Q 1994 391 2212 530 
Q 2431 669 2431 922 
Q 2431 1156 2273 1281 
Q 2116 1406 1581 1522 
L 1381 1569 
Q 847 1681 609 1914 
Q 372 2147 372 2553 
Q 372 3047 722 3315 
Q 1072 3584 1716 3584 
Q 2034 3584 2315 3537 
Q 2597 3491 2834 3397 
z
" transform="scale(0.015625)"/>
      <path id="DejaVuSans-20" transform="scale(0.015625)"/>
      <path id="DejaVuSans-76" d="M 191 3500 
L 800 3500 
L 1894 563 
L 2988 3500 
L 3597 3500 
L 2284 0 
L 1503 0 
L 191 3500 
z
" transform="scale(0.015625)"/>
      <path id="DejaVuSans-69" d="M 603 3500 
L 1178 3500 
L 1178 0 
L 603 0 
L 603 3500 
z
M 603 4863 
L 1178 4863 
L 1178 4134 
L 603 4134 
L 603 4863 
z
" transform="scale(0.015625)"/>
      <path id="DejaVuSans-6d" d="M 3328 2828 
Q 3544 3216 3844 3400 
Q 4144 3584 4550 3584 
Q 5097 3584 5394 3201 
Q 5691 2819 5691 2113 
L 5691 0 
L 5113 0 
L 5113 2094 
Q 5113 2597 4934 2840 
Q 4756 3084 4391 3084 
Q 3944 3084 3684 2787 
Q 3425 2491 3425 1978 
L 3425 0 
L 2847 0 
L 2847 2094 
Q 2847 2600 2669 2842 
Q 2491 3084 2119 3084 
Q 1678 3084 1418 2786 
Q 1159 2488 1159 1978 
L 1159 0 
L 581 0 
L 581 3500 
L 1159 3500 
L 1159 2956 
Q 1356 3278 1631 3431 
Q 1906 3584 2284 3584 
Q 2666 3584 2933 3390 
Q 3200 3197 3328 2828 
z
" transform="scale(0.015625)"/>
     </defs>
     <use xlink:href="#DejaVuSans-50"/>
     <use xlink:href="#DejaVuSans-65" x="56.677734"/>
     <use xlink:href="#DejaVuSans-65" x="118.201172"/>
     <use xlink:href="#DejaVuSans-72" x="179.724609"/>
     <use xlink:href="#DejaVuSans-73" x="220.837891"/>
     <use xlink:href="#DejaVuSans-20" x="272.9375"/>
     <use xlink:href="#DejaVuSans-6f" x="304.724609"/>
     <use xlink:href="#DejaVuSans-76" x="365.90625"/>
     <use xlink:href="#DejaVuSans-65" x="425.085938"/>
     <use xlink:href="#DejaVuSans-72" x="486.609375"/>
     <use xlink:href="#DejaVuSans-20" x="527.722656"/>
     <use xlink:href="#DejaVuSans-74" x="559.509766"/>
     <use xlink:href="#DejaVuSans-69" x="598.71875"/>
     <use xlink:href="#DejaVuSans-6d" x="626.501953"/>
     <use xlink:href="#DejaVuSans-65" x="723.914062"/>
    </g>
   </g>
   <g id="legend_1">
    <g id="patch_7">
     <path d="M 53.965625 74.3525 
L 184.029688 74.3525 
Q 186.029688 74.3525 186.029688 72.3525 
L 186.029688 29.318125 
Q 186.029688 27.318125 184.029688 27.318125 
L 53.965625 27.318125 
Q 51.965625 27.318125 51.965625 29.318125 
L 51.965625 72.3525 
Q 51.965625 74.3525 53.965625 74.3525 
z
" style="fill: #ffffff; opacity: 0.8; stroke: #cccccc; stroke-linejoin: miter"/>
    </g>
    <g id="line2d_38">
     <path d="M 55.965625 35.416562 
L 65.965625 35.416562 
L 75.965625 35.416562 
" style="fill: none; stroke: #1f77b4; stroke-opacity: 0.8; stroke-width: 1.5; stroke-linecap: square"/>
    </g>
    <g id="text_24">
     <!-- eBGP routers -->
     <g transform="translate(83.965625 38.916562)scale(0.1 -0.1)">
      <defs>
       <path id="DejaVuSans-42" d="M 1259 2228 
L 1259 519 
L 2272 519 
Q 2781 519 3026 730 
Q 3272 941 3272 1375 
Q 3272 1813 3026 2020 
Q 2781 2228 2272 2228 
L 1259 2228 
z
M 1259 4147 
L 1259 2741 
L 2194 2741 
Q 2656 2741 2882 2914 
Q 3109 3088 3109 3444 
Q 3109 3797 2882 3972 
Q 2656 4147 2194 4147 
L 1259 4147 
z
M 628 4666 
L 2241 4666 
Q 2963 4666 3353 4366 
Q 3744 4066 3744 3513 
Q 3744 3084 3544 2831 
Q 3344 2578 2956 2516 
Q 3422 2416 3680 2098 
Q 3938 1781 3938 1306 
Q 3938 681 3513 340 
Q 3088 0 2303 0 
L 628 0 
L 628 4666 
z
" transform="scale(0.015625)"/>
       <path id="DejaVuSans-47" d="M 3809 666 
L 3809 1919 
L 2778 1919 
L 2778 2438 
L 4434 2438 
L 4434 434 
Q 4069 175 3628 42 
Q 3188 -91 2688 -91 
Q 1594 -91 976 548 
Q 359 1188 359 2328 
Q 359 3472 976 4111 
Q 1594 4750 2688 4750 
Q 3144 4750 3555 4637 
Q 3966 4525 4313 4306 
L 4313 3634 
Q 3963 3931 3569 4081 
Q 3175 4231 2741 4231 
Q 1884 4231 1454 3753 
Q 1025 3275 1025 2328 
Q 1025 1384 1454 906 
Q 1884 428 2741 428 
Q 3075 428 3337 486 
Q 3600 544 3809 666 
z
" transform="scale(0.015625)"/>
      </defs>
      <use xlink:href="#DejaVuSans-65"/>
      <use xlink:href="#DejaVuSans-42" x="61.523438"/>
      <use xlink:href="#DejaVuSans-47" x="128.376953"/>
      <use xlink:href="#DejaVuSans-50" x="205.867188"/>
      <use xlink:href="#DejaVuSans-20" x="266.169922"/>
      <use xlink:href="#DejaVuSans-72" x="297.957031"/>
      <use xlink:href="#DejaVuSans-6f" x="336.820312"/>
      <use xlink:href="#DejaVuSans-75" x="398.001953"/>
      <use xlink:href="#DejaVuSans-74" x="461.380859"/>
      <use xlink:href="#DejaVuSans-65" x="500.589844"/>
      <use xlink:href="#DejaVuSans-72" x="562.113281"/>
      <use xlink:href="#DejaVuSans-73" x="603.226562"/>
     </g>
    </g>
    <g id="line2d_39">
     <path d="M 55.965625 50.094687 
L 65.965625 50.094687 
L 75.965625 50.094687 
" style="fill: none; stroke: #ff7f0e; stroke-opacity: 0.8; stroke-width: 1.5; stroke-linecap: square"/>
    </g>
    <g id="text_25">
     <!-- total eBGP sessions -->
     <g transform="translate(83.965625 53.594687)scale(0.1 -0.1)">
      <defs>
       <path id="DejaVuSans-6c" d="M 603 4863 
L 1178 4863 
L 1178 0 
L 603 0 
L 603 4863 
z
" transform="scale(0.015625)"/>
      </defs>
      <use xlink:href="#DejaVuSans-74"/>
      <use xlink:href="#DejaVuSans-6f" x="39.208984"/>
      <use xlink:href="#DejaVuSans-74" x="100.390625"/>
      <use xlink:href="#DejaVuSans-61" x="139.599609"/>
      <use xlink:href="#DejaVuSans-6c" x="200.878906"/>
      <use xlink:href="#DejaVuSans-20" x="228.662109"/>
      <use xlink:href="#DejaVuSans-65" x="260.449219"/>
      <use xlink:href="#DejaVuSans-42" x="321.972656"/>
      <use xlink:href="#DejaVuSans-47" x="388.826172"/>
      <use xlink:href="#DejaVuSans-50" x="466.316406"/>
      <use xlink:href="#DejaVuSans-20" x="526.619141"/>
      <use xlink:href="#DejaVuSans-73" x="558.40625"/>
      <use xlink:href="#DejaVuSans-65" x="610.505859"/>
      <use xlink:href="#DejaVuSans-73" x="672.029297"/>
      <use xlink:href="#DejaVuSans-73" x="724.128906"/>
      <use xlink:href="#DejaVuSans-69" x="776.228516"/>
      <use xlink:href="#DejaVuSans-6f" x="804.011719"/>
      <use xlink:href="#DejaVuSans-6e" x="865.193359"/>
      <use xlink:href="#DejaVuSans-73" x="928.572266"/>
     </g>
    </g>
    <g id="line2d_40">
     <path d="M 55.965625 64.772812 
L 65.965625 64.772812 
L 75.965625 64.772812 
" style="fill: none; stroke: #2ca02c; stroke-opacity: 0.8; stroke-width: 1.5; stroke-linecap: square"/>
    </g>
    <g id="text_26">
     <!-- unique eBGP peers -->
     <g transform="translate(83.965625 68.272812)scale(0.1 -0.1)">
      <defs>
       <path id="DejaVuSans-71" d="M 947 1747 
Q 947 1113 1208 752 
Q 1469 391 1925 391 
Q 2381 391 2643 752 
Q 2906 1113 2906 1747 
Q 2906 2381 2643 2742 
Q 2381 3103 1925 3103 
Q 1469 3103 1208 2742 
Q 947 2381 947 1747 
z
M 2906 525 
Q 2725 213 2448 61 
Q 2172 -91 1784 -91 
Q 1150 -91 751 415 
Q 353 922 353 1747 
Q 353 2572 751 3078 
Q 1150 3584 1784 3584 
Q 2172 3584 2448 3432 
Q 2725 3281 2906 2969 
L 2906 3500 
L 3481 3500 
L 3481 -1331 
L 2906 -1331 
L 2906 525 
z
" transform="scale(0.015625)"/>
       <path id="DejaVuSans-70" d="M 1159 525 
L 1159 -1331 
L 581 -1331 
L 581 3500 
L 1159 3500 
L 1159 2969 
Q 1341 3281 1617 3432 
Q 1894 3584 2278 3584 
Q 2916 3584 3314 3078 
Q 3713 2572 3713 1747 
Q 3713 922 3314 415 
Q 2916 -91 2278 -91 
Q 1894 -91 1617 61 
Q 1341 213 1159 525 
z
M 3116 1747 
Q 3116 2381 2855 2742 
Q 2594 3103 2138 3103 
Q 1681 3103 1420 2742 
Q 1159 2381 1159 1747 
Q 1159 1113 1420 752 
Q 1681 391 2138 391 
Q 2594 391 2855 752 
Q 3116 1113 3116 1747 
z
" transform="scale(0.015625)"/>
      </defs>
      <use xlink:href="#DejaVuSans-75"/>
      <use xlink:href="#DejaVuSans-6e" x="63.378906"/>
      <use xlink:href="#DejaVuSans-69" x="126.757812"/>
      <use xlink:href="#DejaVuSans-71" x="154.541016"/>
      <use xlink:href="#DejaVuSans-75" x="218.017578"/>
      <use xlink:href="#DejaVuSans-65" x="281.396484"/>
      <use xlink:href="#DejaVuSans-20" x="342.919922"/>
      <use xlink:href="#DejaVuSans-65" x="374.707031"/>
      <use xlink:href="#DejaVuSans-42" x="436.230469"/>
      <use xlink:href="#DejaVuSans-47" x="503.083984"/>
      <use xlink:href="#DejaVuSans-50" x="580.574219"/>
      <use xlink:href="#DejaVuSans-20" x="640.876953"/>
      <use xlink:href="#DejaVuSans-70" x="672.664062"/>
      <use xlink:href="#DejaVuSans-65" x="736.140625"/>
      <use xlink:href="#DejaVuSans-65" x="797.664062"/>
      <use xlink:href="#DejaVuSans-72" x="859.1875"/>
      <use xlink:href="#DejaVuSans-73" x="900.300781"/>
     </g>
    </g>
   </g>
  </g>
 </g>
 <defs>
  <clipPath id="pebb6d4d2a1">
   <rect x="46.965625" y="22.318125" width="558" height="443.52"/>
  </clipPath>
 </defs>
</svg>
