<?xml version="1.0" encoding="utf-8" standalone="no"?>
<!DOCTYPE svg PUBLIC "-//W3C//DTD SVG 1.1//EN"
  "http://www.w3.org/Graphics/SVG/1.1/DTD/svg11.dtd">
<svg xmlns:xlink="http://www.w3.org/1999/xlink" width="620.904238pt" height="503.394375pt" viewBox="0 0 620.904238 503.394375" xmlns="http://www.w3.org/2000/svg" version="1.1">
 <metadata>
  <rdf:RDF xmlns:dc="http://purl.org/dc/elements/1.1/" xmlns:cc="http://creativecommons.org/ns#" xmlns:rdf="http://www.w3.org/1999/02/22-rdf-syntax-ns#">
   <cc:Work>
    <dc:type rdf:resource="http://purl.org/dc/dcmitype/StillImage"/>
    <dc:format>image/svg+xml</dc:format>
    <dc:creator>
     <cc:Agent>
      <dc:title>Matplotlib v3.8.3, https://matplotlib.org/</dc:title>
     </cc:Agent>
    </dc:creator>
   </cc:Work>
  </rdf:RDF>
 </metadata>
 <defs>
  <style type="text/css">*{stroke-linejoin: round; stroke-linecap: butt}</style>
 </defs>
 <g id="figure_1">
  <g id="patch_1">
   <path d="M 0 503.394375 
L 620.904238 503.394375 
L 620.904238 0 
L 0 0 
z
" style="fill: #ffffff"/>
  </g>
  <g id="axes_1">
   <g id="patch_2">
    <path d="M 46.965625 465.838125 
L 604.965625 465.838125 
L 604.965625 22.318125 
L 46.965625 22.318125 
z
" style="fill: #ffffff"/>
   </g>
   <g id="matplotlib.axis_1">
    <g id="xtick_1">
     <g id="line2d_1">
      <path d="M 77.642313 465.838125 
L 77.642313 22.318125 
" clip-path="url(#pebb6d4d2a1)" style="fill: none; stroke: #b0b0b0; stroke-opacity: 0.6; stroke-width: 0.8; stroke-linecap: square"/>
     </g>
     <g id="line2d_2">
      <defs>
       <path id="m4989ca4dfe" d="M 0 0 
L 0 3.5 
" style="stroke: #000000; stroke-width: 0.8"/>
      </defs>
      <g>
       <use xlink:href="#m4989ca4dfe" x="77.642313" y="465.838125" style="stroke: #000000; stroke-width: 0.8"/>
      </g>
     </g>
     <g id="text_1">
      <!-- 2020-07 -->
      <g transform="translate(56.750906 480.436562) scale(0.1 -0.1)">
       <defs>
        <path id="DejaVuSans-32" d="M 1228 531 
L 3431 531 
L 3431 0 
L 469 0 
L 469 531 
Q 828 903 1448 1529 
Q 2069 2156 2228 2338 
Q 2531 2678 2651 2914 
Q 2772 3150 2772 3378 
Q 2772 3750 2511 3984 
Q 2250 4219 1831 4219 
Q 1534 4219 1204 4116 
Q 875 4013 500 3803 
L 500 4441 
Q 881 4594 1212 4672 
Q 1544 4750 1819 4750 
Q 2544 4750 2975 4387 
Q 3406 4025 3406 3419 
Q 3406 3131 3298 2873 
Q 3191 2616 2906 2266 
Q 2828 2175 2409 1742 
Q 1991 1309 1228 531 
z
" transform="scale(0.015625)"/>
        <path id="DejaVuSans-30" d="M 2034 4250 
Q 1547 4250 1301 3770 
Q 1056 3291 1056 2328 
Q 1056 1369 1301 889 
Q 1547 409 2034 409 
Q 2525 409 2770 889 
Q 3016 1369 3016 2328 
Q 3016 3291 2770 3770 
Q 2525 4250 2034 4250 
z
M 2034 4750 
Q 2819 4750 3233 4129 
Q 3647 3509 3647 2328 
Q 3647 1150 3233 529 
Q 2819 -91 2034 -91 
Q 1250 -91 836 529 
Q 422 1150 422 2328 
Q 422 3509 836 4129 
Q 1250 4750 2034 4750 
z
" transform="scale(0.015625)"/>
        <path id="DejaVuSans-2d" d="M 313 2009 
L 1997 2009 
L 1997 1497 
L 313 1497 
L 313 2009 
z
" transform="scale(0.015625)"/>
        <path id="DejaVuSans-37" d="M 525 4666 
L 3525 4666 
L 3525 4397 
L 1831 0 
L 1172 0 
L 2766 4134 
L 525 4134 
L 525 4666 
z
" transform="scale(0.015625)"/>
       </defs>
       <use xlink:href="#DejaVuSans-32"/>
       <use xlink:href="#DejaVuSans-30" x="63.623047"/>
       <use xlink:href="#DejaVuSans-32" x="127.246094"/>
       <use xlink:href="#DejaVuSans-30" x="190.869141"/>
       <use xlink:href="#DejaVuSans-2d" x="254.492188"/>
       <use xlink:href="#DejaVuSans-30" x="290.576172"/>
       <use xlink:href="#DejaVuSans-37" x="354.199219"/>
      </g>
     </g>
    </g>
    <g id="xtick_2">
     <g id="line2d_3">
      <path d="M 135.266249 465.838125 
L 135.266249 22.318125 
" clip-path="url(#pebb6d4d2a1)" style="fill: none; stroke: #b0b0b0; stroke-opacity: 0.6; stroke-width: 0.8; stroke-linecap: square"/>
     </g>
     <g id="line2d_4">
      <g>
       <use xlink:href="#m4989ca4dfe" x="135.266249" y="465.838125" style="stroke: #000000; stroke-width: 0.8"/>
      </g>
     </g>
     <g id="text_2">
      <!-- 2021-01 -->
      <g transform="translate(114.374843 480.436562) scale(0.1 -0.1)">
       <defs>
        <path id="DejaVuSans-31" d="M 794 531 
L 1825 531 
L 1825 4091 
L 703 3866 
L 703 4441 
L 1819 4666 
L 2450 4666 
L 2450 531 
L 3481 531 
L 3481 0 
L 794 0 
L 794 531 
z
" transform="scale(0.015625)"/>
       </defs>
       <use xlink:href="#DejaVuSans-32"/>
       <use xlink:href="#DejaVuSans-30" x="63.623047"/>
       <use xlink:href="#DejaVuSans-32" x="127.246094"/>
       <use xlink:href="#DejaVuSans-31" x="190.869141"/>
       <use xlink:href="#DejaVuSans-2d" x="254.492188"/>
       <use xlink:href="#DejaVuSans-30" x="290.576172"/>
       <use xlink:href="#DejaVuSans-31" x="354.199219"/>
      </g>
     </g>
    </g>
    <g id="xtick_3">
     <g id="line2d_5">
      <path d="M 191.950665 465.838125 
L 191.950665 22.318125 
" clip-path="url(#pebb6d4d2a1)" style="fill: none; stroke: #b0b0b0; stroke-opacity: 0.6; stroke-width: 0.8; stroke-linecap: square"/>
     </g>
     <g id="line2d_6">
      <g>
       <use xlink:href="#m4989ca4dfe" x="191.950665" y="465.838125" style="stroke: #000000; stroke-width: 0.8"/>
      </g>
     </g>
     <g id="text_3">
      <!-- 2021-07 -->
      <g transform="translate(171.059259 480.436562) scale(0.1 -0.1)">
       <use xlink:href="#DejaVuSans-32"/>
       <use xlink:href="#DejaVuSans-30" x="63.623047"/>
       <use xlink:href="#DejaVuSans-32" x="127.246094"/>
       <use xlink:href="#DejaVuSans-31" x="190.869141"/>
       <use xlink:href="#DejaVuSans-2d" x="254.492188"/>
       <use xlink:href="#DejaVuSans-30" x="290.576172"/>
       <use xlink:href="#DejaVuSans-37" x="354.199219"/>
      </g>
     </g>
    </g>
    <g id="xtick_4">
     <g id="line2d_7">
      <path d="M 249.574601 465.838125 
L 249.574601 22.318125 
" clip-path="url(#pebb6d4d2a1)" style="fill: none; stroke: #b0b0b0; stroke-opacity: 0.6; stroke-width: 0.8; stroke-linecap: square"/>
     </g>
     <g id="line2d_8">
      <g>
       <use xlink:href="#m4989ca4dfe" x="249.574601" y="465.838125" style="stroke: #000000; stroke-width: 0.8"/>
      </g>
     </g>
     <g id="text_4">
      <!-- 2022-01 -->
      <g transform="translate(228.683195 480.436562) scale(0.1 -0.1)">
       <use xlink:href="#DejaVuSans-32"/>
       <use xlink:href="#DejaVuSans-30" x="63.623047"/>
       <use xlink:href="#DejaVuSans-32" x="127.246094"/>
       <use xlink:href="#DejaVuSans-32" x="190.869141"/>
       <use xlink:href="#DejaVuSans-2d" x="254.492188"/>
       <use xlink:href="#DejaVuSans-30" x="290.576172"/>
       <use xlink:href="#DejaVuSans-31" x="354.199219"/>
      </g>
     </g>
    </g>
    <g id="xtick_5">
     <g id="line2d_9">
      <path d="M 306.259017 465.838125 
L 306.259017 22.318125 
" clip-path="url(#pebb6d4d2a1)" style="fill: none; stroke: #b0b0b0; stroke-opacity: 0.6; stroke-width: 0.8; stroke-linecap: square"/>
     </g>
     <g id="line2d_10">
      <g>
       <use xlink:href="#m4989ca4dfe" x="306.259017" y="465.838125" style="stroke: #000000; stroke-width: 0.8"/>
      </g>
     </g>
     <g id="text_5">
      <!-- 2022-07 -->
      <g transform="translate(285.367611 480.436562) scale(0.1 -0.1)">
       <use xlink:href="#DejaVuSans-32"/>
       <use xlink:href="#DejaVuSans-30" x="63.623047"/>
       <use xlink:href="#DejaVuSans-32" x="127.246094"/>
       <use xlink:href="#DejaVuSans-32" x="190.869141"/>
       <use xlink:href="#DejaVuSans-2d" x="254.492188"/>
       <use xlink:href="#DejaVuSans-30" x="290.576172"/>
       <use xlink:href="#DejaVuSans-37" x="354.199219"/>
      </g>
     </g>
    </g>
    <g id="xtick_6">
     <g id="line2d_11">
      <path d="M 363.882953 465.838125 
L 363.882953 22.318125 
" clip-path="url(#pebb6d4d2a1)" style="fill: none; stroke: #b0b0b0; stroke-opacity: 0.6; stroke-width: 0.8; stroke-linecap: square"/>
     </g>
     <g id="line2d_12">
      <g>
       <use xlink:href="#m4989ca4dfe" x="363.882953" y="465.838125" style="stroke: #000000; stroke-width: 0.8"/>
      </g>
     </g>
     <g id="text_6">
      <!-- 2023-01 -->
      <g transform="translate(342.991547 480.436562) scale(0.1 -0.1)">
       <defs>
        <path id="DejaVuSans-33" d="M 2597 2516 
Q 3050 2419 3304 2112 
Q 3559 1806 3559 1356 
Q 3559 666 3084 287 
Q 2609 -91 1734 -91 
Q 1441 -91 1130 -33 
Q 819 25 488 141 
L 488 750 
Q 750 597 1062 519 
Q 1375 441 1716 441 
Q 2309 441 2620 675 
Q 2931 909 2931 1356 
Q 2931 1769 2642 2001 
Q 2353 2234 1838 2234 
L 1294 2234 
L 1294 2753 
L 1863 2753 
Q 2328 2753 2575 2939 
Q 2822 3125 2822 3475 
Q 2822 3834 2567 4026 
Q 2313 4219 1838 4219 
Q 1578 4219 1281 4162 
Q 984 4106 628 3988 
L 628 4550 
Q 988 4650 1302 4700 
Q 1616 4750 1894 4750 
Q 2613 4750 3031 4423 
Q 3450 4097 3450 3541 
Q 3450 3153 3228 2886 
Q 3006 2619 2597 2516 
z
" transform="scale(0.015625)"/>
       </defs>
       <use xlink:href="#DejaVuSans-32"/>
       <use xlink:href="#DejaVuSans-30" x="63.623047"/>
       <use xlink:href="#DejaVuSans-32" x="127.246094"/>
       <use xlink:href="#DejaVuSans-33" x="190.869141"/>
       <use xlink:href="#DejaVuSans-2d" x="254.492188"/>
       <use xlink:href="#DejaVuSans-30" x="290.576172"/>
       <use xlink:href="#DejaVuSans-31" x="354.199219"/>
      </g>
     </g>
    </g>
    <g id="xtick_7">
     <g id="line2d_13">
      <path d="M 420.567369 465.838125 
L 420.567369 22.318125 
" clip-path="url(#pebb6d4d2a1)" style="fill: none; stroke: #b0b0b0; stroke-opacity: 0.6; stroke-width: 0.8; stroke-linecap: square"/>
     </g>
     <g id="line2d_14">
      <g>
       <use xlink:href="#m4989ca4dfe" x="420.567369" y="465.838125" style="stroke: #000000; stroke-width: 0.8"/>
      </g>
     </g>
     <g id="text_7">
      <!-- 2023-07 -->
      <g transform="translate(399.675963 480.436562) scale(0.1 -0.1)">
       <use xlink:href="#DejaVuSans-32"/>
       <use xlink:href="#DejaVuSans-30" x="63.623047"/>
       <use xlink:href="#DejaVuSans-32" x="127.246094"/>
       <use xlink:href="#DejaVuSans-33" x="190.869141"/>
       <use xlink:href="#DejaVuSans-2d" x="254.492188"/>
       <use xlink:href="#DejaVuSans-30" x="290.576172"/>
       <use xlink:href="#DejaVuSans-37" x="354.199219"/>
      </g>
     </g>
    </g>
    <g id="xtick_8">
     <g id="line2d_15">
      <path d="M 478.191306 465.838125 
L 478.191306 22.318125 
" clip-path="url(#pebb6d4d2a1)" style="fill: none; stroke: #b0b0b0; stroke-opacity: 0.6; stroke-width: 0.8; stroke-linecap: square"/>
     </g>
     <g id="line2d_16">
      <g>
       <use xlink:href="#m4989ca4dfe" x="478.191306" y="465.838125" style="stroke: #000000; stroke-width: 0.8"/>
      </g>
     </g>
     <g id="text_8">
      <!-- 2024-01 -->
      <g transform="translate(457.299899 480.436562) scale(0.1 -0.1)">
       <defs>
        <path id="DejaVuSans-34" d="M 2419 4116 
L 825 1625 
L 2419 1625 
L 2419 4116 
z
M 2253 4666 
L 3047 4666 
L 3047 1625 
L 3713 1625 
L 3713 1100 
L 3047 1100 
L 3047 0 
L 2419 0 
L 2419 1100 
L 313 1100 
L 313 1709 
L 2253 4666 
z
" transform="scale(0.015625)"/>
       </defs>
       <use xlink:href="#DejaVuSans-32"/>
       <use xlink:href="#DejaVuSans-30" x="63.623047"/>
       <use xlink:href="#DejaVuSans-32" x="127.246094"/>
       <use xlink:href="#DejaVuSans-34" x="190.869141"/>
       <use xlink:href="#DejaVuSans-2d" x="254.492188"/>
       <use xlink:href="#DejaVuSans-30" x="290.576172"/>
       <use xlink:href="#DejaVuSans-31" x="354.199219"/>
      </g>
     </g>
    </g>
    <g id="xtick_9">
     <g id="line2d_17">
      <path d="M 535.188895 465.838125 
L 535.188895 22.318125 
" clip-path="url(#pebb6d4d2a1)" style="fill: none; stroke: #b0b0b0; stroke-opacity: 0.6; stroke-width: 0.8; stroke-linecap: square"/>
     </g>
     <g id="line2d_18">
      <g>
       <use xlink:href="#m4989ca4dfe" x="535.188895" y="465.838125" style="stroke: #000000; stroke-width: 0.8"/>
      </g>
     </g>
     <g id="text_9">
      <!-- 2024-07 -->
      <g transform="translate(514.297489 480.436562) scale(0.1 -0.1)">
       <use xlink:href="#DejaVuSans-32"/>
       <use xlink:href="#DejaVuSans-30" x="63.623047"/>
       <use xlink:href="#DejaVuSans-32" x="127.246094"/>
       <use xlink:href="#DejaVuSans-34" x="190.869141"/>
       <use xlink:href="#DejaVuSans-2d" x="254.492188"/>
       <use xlink:href="#DejaVuSans-30" x="290.576172"/>
       <use xlink:href="#DejaVuSans-37" x="354.199219"/>
      </g>
     </g>
    </g>
    <g id="xtick_10">
     <g id="line2d_19">
      <path d="M 592.812831 465.838125 
L 592.812831 22.318125 
" clip-path="url(#pebb6d4d2a1)" style="fill: none; stroke: #b0b0b0; stroke-opacity: 0.6; stroke-width: 0.8; stroke-linecap: square"/>
     </g>
     <g id="line2d_20">
      <g>
       <use xlink:href="#m4989ca4dfe" x="592.812831" y="465.838125" style="stroke: #000000; stroke-width: 0.8"/>
      </g>
     </g>
     <g id="text_10">
      <!-- 2025-01 -->
      <g transform="translate(571.921425 480.436562) scale(0.1 -0.1)">
       <defs>
        <path id="DejaVuSans-35" d="M 691 4666 
L 3169 4666 
L 3169 4134 
L 1269 4134 
L 1269 2991 
Q 1406 3038 1543 3061 
Q 1681 3084 1819 3084 
Q 2600 3084 3056 2656 
Q 3513 2228 3513 1497 
Q 3513 744 3044 326 
Q 2575 -91 1722 -91 
Q 1428 -91 1123 -41 
Q 819 9 494 109 
L 494 744 
Q 775 591 1075 516 
Q 1375 441 1709 441 
Q 2250 441 2565 725 
Q 2881 1009 2881 1497 
Q 2881 1984 2565 2268 
Q 2250 2553 1709 2553 
Q 1456 2553 1204 2497 
Q 953 2441 691 2322 
L 691 4666 
z
" transform="scale(0.015625)"/>
       </defs>
       <use xlink:href="#DejaVuSans-32"/>
       <use xlink:href="#DejaVuSans-30" x="63.623047"/>
       <use xlink:href="#DejaVuSans-32" x="127.246094"/>
       <use xlink:href="#DejaVuSans-35" x="190.869141"/>
       <use xlink:href="#DejaVuSans-2d" x="254.492188"/>
       <use xlink:href="#DejaVuSans-30" x="290.576172"/>
       <use xlink:href="#DejaVuSans-31" x="354.199219"/>
      </g>
     </g>
    </g>
    <g id="text_11">
     <!-- Date -->
     <g transform="translate(314.014844 494.114687) scale(0.1 -0.1)">
      <defs>
       <path id="DejaVuSans-44" d="M 1259 4147 
L 1259 519 
L 2022 519 
Q 2988 519 3436 956 
Q 3884 1394 3884 2338 
Q 3884 3275 3436 3711 
Q 2988 4147 2022 4147 
L 1259 4147 
z
M 628 4666 
L 1925 4666 
Q 3281 4666 3915 4102 
Q 4550 3538 4550 2338 
Q 4550 1131 3912 565 
Q 3275 0 1925 0 
L 628 0 
L 628 4666 
z
" transform="scale(0.015625)"/>
       <path id="DejaVuSans-61" d="M 2194 1759 
Q 1497 1759 1228 1600 
Q 959 1441 959 1056 
Q 959 750 1161 570 
Q 1363 391 1709 391 
Q 2188 391 2477 730 
Q 2766 1069 2766 1631 
L 2766 1759 
L 2194 1759 
z
M 3341 1997 
L 3341 0 
L 2766 0 
L 2766 531 
Q 2569 213 2275 61 
Q 1981 -91 1556 -91 
Q 1019 -91 701 211 
Q 384 513 384 1019 
Q 384 1609 779 1909 
Q 1175 2209 1959 2209 
L 2766 2209 
L 2766 2266 
Q 2766 2663 2505 2880 
Q 2244 3097 1772 3097 
Q 1472 3097 1187 3025 
Q 903 2953 641 2809 
L 641 3341 
Q 956 3463 1253 3523 
Q 1550 3584 1831 3584 
Q 2591 3584 2966 3190 
Q 3341 2797 3341 1997 
z
" transform="scale(0.015625)"/>
       <path id="DejaVuSans-74" d="M 1172 4494 
L 1172 3500 
L 2356 3500 
L 2356 3053 
L 1172 3053 
L 1172 1153 
Q 1172 725 1289 603 
Q 1406 481 1766 481 
L 2356 481 
L 2356 0 
L 1766 0 
Q 1100 0 847 248 
Q 594 497 594 1153 
L 594 3053 
L 172 3053 
L 172 3500 
L 594 3500 
L 594 4494 
L 1172 4494 
z
" transform="scale(0.015625)"/>
       <path id="DejaVuSans-65" d="M 3597 1894 
L 3597 1613 
L 953 1613 
Q 991 1019 1311 708 
Q 1631 397 2203 397 
Q 2534 397 2845 478 
Q 3156 559 3463 722 
L 3463 178 
Q 3153 47 2828 -22 
Q 2503 -91 2169 -91 
Q 1331 -91 842 396 
Q 353 884 353 1716 
Q 353 2575 817 3079 
Q 1281 3584 2069 3584 
Q 2775 3584 3186 3129 
Q 3597 2675 3597 1894 
z
M 3022 2063 
Q 3016 2534 2758 2815 
Q 2500 3097 2075 3097 
Q 1594 3097 1305 2825 
Q 1016 2553 972 2059 
L 3022 2063 
z
" transform="scale(0.015625)"/>
      </defs>
      <use xlink:href="#DejaVuSans-44"/>
      <use xlink:href="#DejaVuSans-61" x="77.001953"/>
      <use xlink:href="#DejaVuSans-74" x="138.28125"/>
      <use xlink:href="#DejaVuSans-65" x="177.490234"/>
     </g>
    </g>
   </g>
   <g id="matplotlib.axis_2">
    <g id="ytick_1">
     <g id="line2d_21">
      <path d="M 46.965625 448.537699 
L 604.965625 448.537699 
" clip-path="url(#pebb6d4d2a1)" style="fill: none; stroke: #b0b0b0; stroke-opacity: 0.6; stroke-width: 0.8; stroke-linecap: square"/>
     </g>
     <g id="line2d_22">
      <defs>
       <path id="mc11dc46687" d="M 0 0 
L -3.5 0 
" style="stroke: #000000; stroke-width: 0.8"/>
      </defs>
      <g>
       <use xlink:href="#mc11dc46687" x="46.965625" y="448.537699" style="stroke: #000000; stroke-width: 0.8"/>
      </g>
     </g>
     <g id="text_12">
      <!-- 0 -->
      <g transform="translate(33.603125 452.336918) scale(0.1 -0.1)">
       <use xlink:href="#DejaVuSans-30"/>
      </g>
     </g>
    </g>
    <g id="ytick_2">
     <g id="line2d_23">
      <path d="M 46.965625 377.048338 
L 604.965625 377.048338 
" clip-path="url(#pebb6d4d2a1)" style="fill: none; stroke: #b0b0b0; stroke-opacity: 0.6; stroke-width: 0.8; stroke-linecap: square"/>
     </g>
     <g id="line2d_24">
      <g>
       <use xlink:href="#mc11dc46687" x="46.965625" y="377.048338" style="stroke: #000000; stroke-width: 0.8"/>
      </g>
     </g>
     <g id="text_13">
      <!-- 50 -->
      <g transform="translate(27.240625 380.847557) scale(0.1 -0.1)">
       <use xlink:href="#DejaVuSans-35"/>
       <use xlink:href="#DejaVuSans-30" x="63.623047"/>
      </g>
     </g>
    </g>
    <g id="ytick_3">
     <g id="line2d_25">
      <path d="M 46.965625 305.558976 
L 604.965625 305.558976 
" clip-path="url(#pebb6d4d2a1)" style="fill: none; stroke: #b0b0b0; stroke-opacity: 0.6; stroke-width: 0.8; stroke-linecap: square"/>
     </g>
     <g id="line2d_26">
      <g>
       <use xlink:href="#mc11dc46687" x="46.965625" y="305.558976" style="stroke: #000000; stroke-width: 0.8"/>
      </g>
     </g>
     <g id="text_14">
      <!-- 100 -->
      <g transform="translate(20.878125 309.358195) scale(0.1 -0.1)">
       <use xlink:href="#DejaVuSans-31"/>
       <use xlink:href="#DejaVuSans-30" x="63.623047"/>
       <use xlink:href="#DejaVuSans-30" x="127.246094"/>
      </g>
     </g>
    </g>
    <g id="ytick_4">
     <g id="line2d_27">
      <path d="M 46.965625 234.069614 
L 604.965625 234.069614 
" clip-path="url(#pebb6d4d2a1)" style="fill: none; stroke: #b0b0b0; stroke-opacity: 0.6; stroke-width: 0.8; stroke-linecap: square"/>
     </g>
     <g id="line2d_28">
      <g>
       <use xlink:href="#mc11dc46687" x="46.965625" y="234.069614" style="stroke: #000000; stroke-width: 0.8"/>
      </g>
     </g>
     <g id="text_15">
      <!-- 150 -->
      <g transform="translate(20.878125 237.868833) scale(0.1 -0.1)">
       <use xlink:href="#DejaVuSans-31"/>
       <use xlink:href="#DejaVuSans-35" x="63.623047"/>
       <use xlink:href="#DejaVuSans-30" x="127.246094"/>
      </g>
     </g>
    </g>
    <g id="ytick_5">
     <g id="line2d_29">
      <path d="M 46.965625 162.580253 
L 604.965625 162.580253 
" clip-path="url(#pebb6d4d2a1)" style="fill: none; stroke: #b0b0b0; stroke-opacity: 0.6; stroke-width: 0.8; stroke-linecap: square"/>
     </g>
     <g id="line2d_30">
      <g>
       <use xlink:href="#mc11dc46687" x="46.965625" y="162.580253" style="stroke: #000000; stroke-width: 0.8"/>
      </g>
     </g>
     <g id="text_16">
      <!-- 200 -->
      <g transform="translate(20.878125 166.379471) scale(0.1 -0.1)">
       <use xlink:href="#DejaVuSans-32"/>
       <use xlink:href="#DejaVuSans-30" x="63.623047"/>
       <use xlink:href="#DejaVuSans-30" x="127.246094"/>
      </g>
     </g>
    </g>
    <g id="ytick_6">
     <g id="line2d_31">
      <path d="M 46.965625 91.090891 
L 604.965625 91.090891 
" clip-path="url(#pebb6d4d2a1)" style="fill: none; stroke: #b0b0b0; stroke-opacity: 0.6; stroke-width: 0.8; stroke-linecap: square"/>
     </g>
     <g id="line2d_32">
      <g>
       <use xlink:href="#mc11dc46687" x="46.965625" y="91.090891" style="stroke: #000000; stroke-width: 0.8"/>
      </g>
     </g>
     <g id="text_17">
      <!-- 250 -->
      <g transform="translate(20.878125 94.89011) scale(0.1 -0.1)">
       <use xlink:href="#DejaVuSans-32"/>
       <use xlink:href="#DejaVuSans-35" x="63.623047"/>
       <use xlink:href="#DejaVuSans-30" x="127.246094"/>
      </g>
     </g>
    </g>
    <g id="text_18">
     <!-- Count -->
     <g transform="translate(14.798437 258.926562) rotate(-90) scale(0.1 -0.1)">
      <defs>
       <path id="DejaVuSans-43" d="M 4122 4306 
L 4122 3641 
Q 3803 3938 3442 4084 
Q 3081 4231 2675 4231 
Q 1875 4231 1450 3742 
Q 1025 3253 1025 2328 
Q 1025 1406 1450 917 
Q 1875 428 2675 428 
Q 3081 428 3442 575 
Q 3803 722 4122 1019 
L 4122 359 
Q 3791 134 3420 21 
Q 3050 -91 2638 -91 
Q 1578 -91 968 557 
Q 359 1206 359 2328 
Q 359 3453 968 4101 
Q 1578 4750 2638 4750 
Q 3056 4750 3426 4639 
Q 3797 4528 4122 4306 
z
" transform="scale(0.015625)"/>
       <path id="DejaVuSans-6f" d="M 1959 3097 
Q 1497 3097 1228 2736 
Q 959 2375 959 1747 
Q 959 1119 1226 758 
Q 1494 397 1959 397 
Q 2419 397 2687 759 
Q 2956 1122 2956 1747 
Q 2956 2369 2687 2733 
Q 2419 3097 1959 3097 
z
M 1959 3584 
Q 2709 3584 3137 3096 
Q 3566 2609 3566 1747 
Q 3566 888 3137 398 
Q 2709 -91 1959 -91 
Q 1206 -91 779 398 
Q 353 888 353 1747 
Q 353 2609 779 3096 
Q 1206 3584 1959 3584 
z
" transform="scale(0.015625)"/>
       <path id="DejaVuSans-75" d="M 544 1381 
L 544 3500 
L 1119 3500 
L 1119 1403 
Q 1119 906 1312 657 
Q 1506 409 1894 409 
Q 2359 409 2629 706 
Q 2900 1003 2900 1516 
L 2900 3500 
L 3475 3500 
L 3475 0 
L 2900 0 
L 2900 538 
Q 2691 219 2414 64 
Q 2138 -91 1772 -91 
Q 1169 -91 856 284 
Q 544 659 544 1381 
z
M 1991 3584 
L 1991 3584 
z
" transform="scale(0.015625)"/>
       <path id="DejaVuSans-6e" d="M 3513 2113 
L 3513 0 
L 2938 0 
L 2938 2094 
Q 2938 2591 2744 2837 
Q 2550 3084 2163 3084 
Q 1697 3084 1428 2787 
Q 1159 2491 1159 1978 
L 1159 0 
L 581 0 
L 581 3500 
L 1159 3500 
L 1159 2956 
Q 1366 3272 1645 3428 
Q 1925 3584 2291 3584 
Q 2894 3584 3203 3211 
Q 3513 2838 3513 2113 
z
" transform="scale(0.015625)"/>
      </defs>
      <use xlink:href="#DejaVuSans-43"/>
      <use xlink:href="#DejaVuSans-6f" x="69.824219"/>
      <use xlink:href="#DejaVuSans-75" x="131.005859"/>
      <use xlink:href="#DejaVuSans-6e" x="194.384766"/>
      <use xlink:href="#DejaVuSans-74" x="257.763672"/>
     </g>
    </g>
   </g>
   <g id="line2d_33">
    <path d="M 579.601989 429.950465 
L 554.241276 429.950465 
L 554.204348 427.090891 
L 552.963336 425.661104 
L 542.008481 425.661104 
L 541.06124 424.231316 
L 508.531361 424.231316 
L 508.531731 425.661104 
L 503.531904 425.661104 
L 503.522342 427.090891 
L 503.521197 425.661104 
L 488.687738 425.661104 
L 488.193363 427.090891 
L 484.617769 427.090891 
L 484.617576 425.661104 
L 475.588601 425.661104 
L 475.38062 427.090891 
L 471.316435 427.090891 
L 471.302774 425.661104 
L 466.906259 425.661104 
L 466.770783 427.090891 
L 462.239571 427.090891 
L 462.167733 425.661104 
L 425.851187 425.661104 
L 425.093836 424.231316 
L 394.08767 424.231316 
L 393.939286 421.371742 
L 362.191965 421.371742 
L 362.191907 422.801529 
L 354.829917 422.801529 
L 354.168182 424.231316 
L 354.022622 424.231316 
L 353.812625 425.661104 
L 353.804024 424.231316 
L 352.281627 424.231316 
L 352.280768 425.661104 
L 346.034818 425.661104 
L 345.968501 424.231316 
L 341.88018 424.231316 
L 341.788928 422.801529 
L 332.217024 422.801529 
L 332.216905 424.231316 
L 318.159986 424.231316 
L 318.140144 425.661104 
L 307.475446 425.661104 
L 307.399813 427.090891 
L 296.139451 427.090891 
L 296.108181 428.520678 
L 293.016755 428.520678 
L 292.758746 429.950465 
L 290.203456 429.950465 
L 290.163545 427.090891 
L 284.887465 427.090891 
L 284.492497 428.520678 
L 265.075642 428.520678 
L 264.525239 427.090891 
L 255.453373 427.090891 
L 255.399553 425.661104 
L 248.003064 425.661104 
L 248.003039 424.231316 
L 240.129957 424.231316 
L 240.40804 424.231316 
L 239.987503 425.661104 
L 228.85241 425.661104 
L 228.575309 427.090891 
L 223.458626 427.090891 
L 223.389829 425.661104 
L 212.546506 425.661104 
L 212.546408 427.090891 
L 181.872783 427.090891 
L 181.825767 428.520678 
L 179.927779 428.520678 
L 179.927685 429.950465 
L 174.068382 429.950465 
L 173.704016 431.380253 
L 172.203828 431.380253 
L 172.052715 429.950465 
L 151.388975 429.950465 
L 151.071126 431.380253 
L 143.417501 431.380253 
L 143.407341 429.950465 
L 141.504058 429.950465 
L 141.496322 431.380253 
L 138.92478 431.380253 
L 138.623727 434.239827 
L 135.258673 434.239827 
L 135.238545 435.669614 
L 134.045191 435.669614 
L 133.871695 437.099402 
L 131.517391 437.099402 
L 131.514981 438.529189 
L 126.401596 438.529189 
L 125.703012 439.958976 
L 94.488963 439.958976 
L 94.473743 441.388763 
L 89.224932 441.388763 
L 89.214935 442.818551 
L 81.658064 442.818551 
L 81.620063 444.248338 
L 72.60397 444.248338 
L 72.60037 445.678125 
L 72.329261 445.678125 
L 72.329261 445.678125 
" clip-path="url(#pebb6d4d2a1)" style="fill: none; stroke: #1f77b4; stroke-opacity: 0.8; stroke-width: 1.5; stroke-linecap: square"/>
   </g>
   <g id="line2d_34">
    <path d="M 579.601989 129.695146 
L 578.951229 129.695146 
L 578.950979 131.124934 
L 578.361731 131.124934 
L 578.361009 132.554721 
L 576.505612 132.554721 
L 576.497163 111.107912 
L 576.465345 113.967487 
L 576.365963 115.397274 
L 575.212502 115.397274 
L 575.206924 108.248338 
L 574.565056 108.248338 
L 574.499597 105.388763 
L 574.18244 105.388763 
L 574.169047 96.81004 
L 573.95092 96.81004 
L 573.929121 95.380253 
L 573.929121 95.380253 
L 573.059318 96.81004 
L 573.041281 99.669614 
L 571.969543 99.669614 
L 571.969499 101.099402 
L 566.755275 101.099402 
L 566.443088 103.958976 
L 565.725793 103.958976 
L 565.710436 105.388763 
L 564.88879 106.818551 
L 563.869468 109.678125 
L 563.869236 112.537699 
L 563.577035 112.537699 
L 563.576672 113.967487 
L 562.98173 113.967487 
L 561.364134 115.397274 
L 558.038187 115.397274 
L 558.038078 116.827061 
L 557.378475 116.827061 
L 556.621693 118.256848 
L 554.541111 118.256848 
L 554.452433 81.08238 
L 554.241276 81.08238 
L 554.204348 73.933444 
L 552.963336 42.478125 
L 551.719541 46.767487 
L 549.520069 46.767487 
L 549.208168 48.197274 
L 548.563889 49.627061 
L 546.70627 49.627061 
L 545.791154 51.056848 
L 545.531717 51.056848 
L 545.530995 52.486636 
L 545.120361 51.056848 
L 545.12022 52.486636 
L 544.880348 52.486636 
L 545.120568 49.627061 
L 544.863464 49.627061 
L 543.655115 51.056848 
L 543.646665 53.916423 
L 542.980773 53.916423 
L 542.961058 55.34621 
L 542.350892 56.775997 
L 542.008481 56.775997 
L 541.06124 42.478125 
L 538.255872 42.478125 
L 538.255343 43.907912 
L 535.179166 43.907912 
L 535.08039 46.767487 
L 535.080169 49.627061 
L 532.906168 49.627061 
L 532.845472 52.486636 
L 530.646581 52.486636 
L 530.646486 53.916423 
L 530.088838 53.916423 
L 529.497571 55.34621 
L 528.211112 55.34621 
L 527.389673 58.205785 
L 523.300185 58.205785 
L 523.300348 58.205785 
L 520.435281 59.635572 
L 517.896005 59.635572 
L 514.802017 61.065359 
L 515.300336 61.065359 
L 511.624933 62.495146 
L 510.08637 63.924934 
L 508.531361 63.924934 
L 508.531731 66.784508 
L 507.564833 66.784508 
L 506.224084 68.214295 
L 503.531904 68.214295 
L 503.522342 73.933444 
L 503.521197 69.644082 
L 501.281024 69.644082 
L 501.280766 71.07387 
L 501.280734 69.644082 
L 500.362225 71.07387 
L 499.483777 71.07387 
L 498.83529 72.503657 
L 496.321869 72.503657 
L 495.433569 73.933444 
L 493.748833 75.363231 
L 493.063831 76.793019 
L 492.281608 76.793019 
L 492.281564 78.222806 
L 491.924742 78.222806 
L 491.924499 82.512168 
L 490.05598 82.512168 
L 489.735358 83.941955 
L 489.169601 85.371742 
L 488.687738 85.371742 
L 488.193363 86.801529 
L 487.219077 86.801529 
L 487.20124 78.222806 
L 487.198902 81.08238 
L 486.890376 81.08238 
L 486.861933 82.512168 
L 484.617769 82.512168 
L 484.617576 76.793019 
L 483.456351 78.222806 
L 483.455634 81.08238 
L 482.182434 81.08238 
L 481.618994 82.512168 
L 480.287289 82.512168 
L 480.216955 83.941955 
L 480.216879 86.801529 
L 478.392422 86.801529 
L 477.583589 88.231316 
L 477.263054 88.231316 
L 476.476992 95.380253 
L 476.468267 96.81004 
L 475.38062 96.81004 
L 475.224022 98.239827 
L 473.657212 98.239827 
L 473.657165 99.669614 
L 473.105229 99.669614 
L 471.914836 101.099402 
L 471.316435 101.099402 
L 471.302774 95.380253 
L 468.116711 95.380253 
L 468.116479 92.520678 
L 467.157019 92.520678 
L 467.510757 92.520678 
L 467.081252 93.950465 
L 467.066706 81.08238 
L 466.920454 82.512168 
L 466.906259 81.08238 
L 466.770783 88.231316 
L 465.958351 89.661104 
L 462.239571 89.661104 
L 462.167733 85.371742 
L 457.128701 85.371742 
L 456.556986 86.801529 
L 455.268468 86.801529 
L 454.962773 88.231316 
L 451.421407 88.231316 
L 450.581739 82.512168 
L 449.574995 85.371742 
L 448.088519 85.371742 
L 446.177453 86.801529 
L 445.251057 88.231316 
L 444.615609 88.231316 
L 441.059958 89.661104 
L 440.740191 89.661104 
L 440.740115 91.090891 
L 439.01629 91.090891 
L 439.016279 88.231316 
L 437.108487 88.231316 
L 436.431956 85.371742 
L 435.507463 85.371742 
L 434.027671 86.801529 
L 434.027616 88.231316 
L 433.841343 88.231316 
L 431.777584 89.661104 
L 431.155492 89.661104 
L 430.513356 102.529189 
L 428.316324 103.958976 
L 427.290698 103.958976 
L 427.711822 103.958976 
L 427.1008 109.678125 
L 426.751732 109.678125 
L 426.179726 111.107912 
L 425.851187 111.107912 
L 425.093836 109.678125 
L 420.408894 109.678125 
L 420.107859 111.107912 
L 420.101273 112.537699 
L 419.787581 112.537699 
L 419.779803 69.644082 
L 418.842649 69.644082 
L 418.830894 71.07387 
L 415.789015 71.07387 
L 414.13071 72.503657 
L 412.020232 72.503657 
L 410.79154 71.07387 
L 410.78246 72.503657 
L 404.256503 72.503657 
L 404.199661 65.354721 
L 402.951969 65.354721 
L 401.69039 66.784508 
L 400.437993 66.784508 
L 399.108796 68.214295 
L 397.857526 68.214295 
L 397.856511 71.07387 
L 397.644644 72.503657 
L 397.622893 73.933444 
L 397.357032 73.933444 
L 396.966729 75.363231 
L 396.904598 76.793019 
L 396.639024 76.793019 
L 396.573931 81.08238 
L 395.455764 83.941955 
L 394.08767 83.941955 
L 393.939286 78.222806 
L 389.202195 78.222806 
L 389.202137 79.652593 
L 388.567359 78.222806 
L 388.223952 79.652593 
L 385.727814 79.652593 
L 385.719176 81.08238 
L 383.471355 81.08238 
L 383.435586 82.512168 
L 379.813857 82.512168 
L 378.254441 83.941955 
L 377.908312 83.941955 
L 377.214147 85.371742 
L 371.07198 85.371742 
L 371.06494 86.801529 
L 368.8649 86.801529 
L 368.86445 89.661104 
L 365.129877 89.661104 
L 364.221554 91.090891 
L 362.191965 91.090891 
L 362.191907 92.520678 
L 360.994083 92.520678 
L 360.711727 93.950465 
L 359.485732 93.950465 
L 358.841526 95.380253 
L 357.149961 95.380253 
L 356.001179 96.81004 
L 355.694849 98.239827 
L 354.168182 98.239827 
L 354.022622 96.81004 
L 353.812625 96.81004 
L 353.804024 82.512168 
L 353.668511 83.941955 
L 353.514125 88.231316 
L 351.295989 88.231316 
L 350.365411 83.941955 
L 350.365273 86.801529 
L 350.06861 88.231316 
L 350.05451 92.520678 
L 348.775203 98.239827 
L 348.533175 98.239827 
L 348.481733 46.767487 
L 348.48165 49.627061 
L 347.223783 49.627061 
L 346.177577 52.486636 
L 345.968501 53.916423 
L 344.757857 56.775997 
L 344.443509 58.205785 
L 344.437115 61.065359 
L 344.038888 62.495146 
L 343.791568 62.495146 
L 343.79151 66.784508 
L 342.856821 66.784508 
L 341.88018 68.214295 
L 341.788928 62.495146 
L 340.952635 62.495146 
L 340.95233 63.924934 
L 340.035566 65.354721 
L 337.894981 65.354721 
L 337.826778 63.924934 
L 337.228914 63.924934 
L 335.288514 68.214295 
L 337.228965 69.644082 
L 330.601324 69.644082 
L 330.600973 73.933444 
L 329.375155 73.933444 
L 329.375101 75.363231 
L 328.498277 75.363231 
L 327.526975 76.793019 
L 326.432081 79.652593 
L 319.615402 79.652593 
L 318.603058 81.08238 
L 318.159986 81.08238 
L 318.140144 83.941955 
L 316.574186 83.941955 
L 316.574124 85.371742 
L 314.862076 85.371742 
L 313.916132 88.231316 
L 313.916683 88.231316 
L 311.394763 88.231316 
L 310.821804 89.661104 
L 310.638336 91.090891 
L 309.208043 91.090891 
L 309.675117 92.520678 
L 308.695812 96.81004 
L 308.594741 98.239827 
L 307.988902 98.239827 
L 307.83905 105.388763 
L 306.717929 105.388763 
L 305.330823 106.818551 
L 305.320638 108.248338 
L 305.154413 112.537699 
L 305.152507 105.388763 
L 304.850649 106.818551 
L 302.968777 106.818551 
L 302.804799 111.107912 
L 299.036629 112.537699 
L 299.036426 113.967487 
L 298.864355 115.397274 
L 298.090577 115.397274 
L 297.644355 116.827061 
L 295.571248 116.827061 
L 295.553034 118.256848 
L 295.552943 116.827061 
L 294.312736 116.827061 
L 294.19228 118.256848 
L 294.192222 119.686636 
L 293.945844 119.686636 
L 293.735793 121.116423 
L 293.408969 122.54621 
L 293.016755 122.54621 
L 292.763864 128.265359 
L 292.758746 133.984508 
L 291.758784 139.703657 
L 291.149273 139.703657 
L 291.119616 133.984508 
L 290.766534 133.984508 
L 290.737725 135.414295 
L 290.469389 135.414295 
L 290.203456 136.844082 
L 290.163545 125.405785 
L 289.608532 126.835572 
L 288.557802 126.835572 
L 288.39759 128.265359 
L 288.389398 129.695146 
L 288.095617 132.554721 
L 287.93413 132.554721 
L 287.934032 135.414295 
L 285.478606 136.844082 
L 284.915734 136.844082 
L 284.887465 138.27387 
L 284.536283 145.422806 
L 284.492497 143.993019 
L 282.081532 143.993019 
L 281.710686 146.852593 
L 280.589282 148.28238 
L 279.764928 148.28238 
L 279.764867 149.712168 
L 279.575103 151.141955 
L 277.630919 151.141955 
L 276.751756 152.571742 
L 276.749919 151.141955 
L 274.515193 152.571742 
L 273.496777 152.571742 
L 273.36975 154.001529 
L 272.032194 155.431316 
L 271.750585 156.861104 
L 271.167197 156.861104 
L 270.245459 159.720678 
L 269.306769 158.290891 
L 267.895516 158.290891 
L 267.736537 159.720678 
L 265.075642 159.720678 
L 264.525239 148.28238 
L 263.618631 149.712168 
L 263.616822 151.141955 
L 262.952745 152.571742 
L 262.262709 156.861104 
L 262.258297 159.720678 
L 261.084375 162.580253 
L 261.020646 166.869614 
L 260.705649 168.299402 
L 257.892683 171.158976 
L 257.67721 161.150465 
L 257.234798 162.580253 
L 257.23474 165.439827 
L 255.453373 165.439827 
L 255.399553 159.720678 
L 254.915505 159.720678 
L 254.184922 161.150465 
L 252.858592 161.150465 
L 252.625441 162.580253 
L 252.550388 164.01004 
L 251.974011 164.01004 
L 251.973739 165.439827 
L 251.707632 165.439827 
L 251.601189 172.588763 
L 250.97685 172.588763 
L 250.413519 174.018551 
L 249.880602 174.018551 
L 249.81531 185.456848 
L 249.72035 189.74621 
L 248.003064 188.316423 
L 248.003039 168.299402 
L 246.598289 165.439827 
L 246.21572 166.869614 
L 244.579689 166.869614 
L 244.548405 168.299402 
L 242.908133 168.299402 
L 242.650537 169.729189 
L 242.389341 169.729189 
L 241.362763 171.158976 
L 240.30702 171.158976 
L 240.129957 175.448338 
L 240.40804 175.448338 
L 239.982341 181.167487 
L 238.455356 181.167487 
L 237.662439 182.597274 
L 238.137535 182.597274 
L 236.699173 184.027061 
L 236.444912 189.74621 
L 236.084135 191.175997 
L 234.806746 189.74621 
L 234.683053 191.175997 
L 234.222978 191.175997 
L 234.219263 162.580253 
L 233.828104 143.993019 
L 233.786362 145.422806 
L 231.964326 145.422806 
L 231.943433 151.141955 
L 231.376292 152.571742 
L 231.080437 155.431316 
L 228.85241 155.431316 
L 228.575309 156.861104 
L 225.33886 156.861104 
L 226.338286 158.290891 
L 225.712544 158.290891 
L 225.584067 161.150465 
L 224.754193 162.580253 
L 224.511215 169.729189 
L 223.462374 174.018551 
L 223.399728 166.869614 
L 223.389829 168.299402 
L 222.624236 168.299402 
L 222.119976 169.729189 
L 222.150213 169.729189 
L 221.03326 171.158976 
L 213.528748 171.158976 
L 213.499072 172.588763 
L 213.186881 176.878125 
L 210.888249 176.878125 
L 210.718631 178.307912 
L 209.411668 178.307912 
L 209.110188 179.737699 
L 209.107527 188.316423 
L 208.79389 189.74621 
L 208.793839 192.605785 
L 207.928954 192.605785 
L 207.859048 194.035572 
L 207.545396 194.035572 
L 206.907689 195.465359 
L 206.253617 195.465359 
L 206.185085 198.324934 
L 203.139968 198.324934 
L 203.13986 201.184508 
L 202.145867 204.044082 
L 199.429083 204.044082 
L 199.425947 206.903657 
L 199.126849 206.903657 
L 198.836148 208.333444 
L 198.466516 208.333444 
L 198.459923 209.763231 
L 195.624836 209.763231 
L 195.374185 211.193019 
L 194.964449 212.622806 
L 193.765397 214.052593 
L 193.765397 214.052593 
L 193.174343 215.48238 
L 193.174242 216.912168 
L 190.870524 216.912168 
L 190.031172 218.341955 
L 188.804061 218.341955 
L 188.802259 219.771742 
L 186.576595 221.201529 
L 185.331027 222.631316 
L 184.076075 222.631316 
L 183.941149 224.061104 
L 183.105443 226.920678 
L 183.104954 228.350465 
L 180.303936 228.350465 
L 180.225454 231.21004 
L 179.927779 231.21004 
L 179.927685 234.069614 
L 179.597936 234.069614 
L 179.597849 232.639827 
L 179.3984 232.639827 
L 179.079358 234.069614 
L 179.079307 235.499402 
L 178.403284 236.929189 
L 178.403382 236.929189 
L 177.186369 236.929189 
L 175.29699 238.358976 
L 175.291379 241.218551 
L 174.34085 241.218551 
L 174.105524 242.648338 
L 174.068382 246.937699 
L 173.704016 251.227061 
L 173.336933 252.656848 
L 173.299859 254.086636 
L 172.734124 254.086636 
L 172.203828 255.516423 
L 172.052715 255.516423 
L 171.504925 256.94621 
L 169.874995 256.94621 
L 169.850191 258.375997 
L 168.366847 258.375997 
L 168.366847 258.375997 
L 168.149195 259.805785 
L 168.147524 248.367487 
L 168.141137 249.797274 
L 164.887901 249.797274 
L 164.836826 259.805785 
L 164.70053 262.665359 
L 163.615112 262.665359 
L 163.094986 264.095146 
L 161.698747 264.095146 
L 161.696525 265.524934 
L 161.567272 268.384508 
L 161.084543 269.814295 
L 161.07145 274.103657 
L 160.91976 274.103657 
L 160.895272 275.533444 
L 160.155265 275.533444 
L 159.222584 276.963231 
L 159.045931 276.963231 
L 159.033955 278.393019 
L 158.927077 279.822806 
L 156.45919 279.822806 
L 156.090352 281.252593 
L 155.886677 282.68238 
L 155.291187 284.112168 
L 155.157283 284.112168 
L 154.50627 285.541955 
L 154.369768 285.541955 
L 154.355327 289.831316 
L 154.200694 291.261104 
L 154.200614 292.690891 
L 153.972186 292.690891 
L 153.039269 301.269614 
L 152.959403 299.839827 
L 152.672026 299.839827 
L 152.629063 301.269614 
L 152.420407 302.699402 
L 151.388975 302.699402 
L 151.071126 305.558976 
L 149.27936 305.558976 
L 149.264267 306.988763 
L 149.054618 306.988763 
L 148.738298 308.418551 
L 148.085241 299.839827 
L 146.238394 299.839827 
L 145.829811 301.269614 
L 145.827535 302.699402 
L 144.683462 302.699402 
L 144.681787 304.129189 
L 144.348442 304.129189 
L 144.170962 305.558976 
L 144.04076 305.558976 
L 144.03512 309.848338 
L 143.736391 309.848338 
L 143.735909 311.278125 
L 143.417501 311.278125 
L 143.40957 309.848338 
L 143.407341 311.278125 
L 141.809742 311.278125 
L 141.504058 312.707912 
L 141.496322 314.137699 
L 139.930915 314.137699 
L 139.191742 308.418551 
L 138.92478 312.707912 
L 138.623727 318.427061 
L 137.043085 318.427061 
L 136.739477 319.856848 
L 136.43953 319.856848 
L 136.439428 322.716423 
L 136.237671 322.716423 
L 136.220961 324.14621 
L 135.5973 324.14621 
L 135.459007 331.295146 
L 135.258673 332.724934 
L 135.238545 334.154721 
L 134.585618 334.154721 
L 134.480607 339.87387 
L 134.232649 339.87387 
L 134.181436 341.303657 
L 134.045191 342.733444 
L 133.871695 349.88238 
L 133.606719 351.312168 
L 131.517391 351.312168 
L 131.514981 354.171742 
L 129.21828 354.171742 
L 129.203357 357.031316 
L 128.072493 357.031316 
L 128.071271 349.88238 
L 126.401596 349.88238 
L 125.703012 351.312168 
L 123.502109 352.741955 
L 122.063768 352.741955 
L 121.117198 354.171742 
L 120.135558 354.171742 
L 119.909602 355.601529 
L 119.299537 357.031316 
L 119.169892 358.461104 
L 119.169679 361.320678 
L 118.283325 361.320678 
L 117.552108 364.180253 
L 116.315232 364.180253 
L 116.315044 365.61004 
L 113.283259 365.61004 
L 111.787768 367.039827 
L 110.711067 367.039827 
L 110.686086 368.469614 
L 110.196252 369.899402 
L 109.54683 369.899402 
L 109.442656 371.329189 
L 109.442504 368.469614 
L 109.429966 369.899402 
L 109.290553 371.329189 
L 109.290122 374.188763 
L 103.014689 374.188763 
L 102.905114 378.478125 
L 101.935262 378.478125 
L 99.711183 379.907912 
L 99.712901 381.337699 
L 99.710516 381.337699 
L 96.70742 381.337699 
L 96.610989 385.627061 
L 94.857888 385.627061 
L 94.782751 387.056848 
L 94.683148 388.486636 
L 94.473743 397.065359 
L 94.131887 397.065359 
L 93.750188 398.495146 
L 93.512963 398.495146 
L 93.431629 401.354721 
L 92.907527 402.784508 
L 90.384689 402.784508 
L 90.014677 404.214295 
L 89.994277 405.644082 
L 89.682147 405.644082 
L 89.214935 412.793019 
L 85.052108 412.793019 
L 84.991039 415.652593 
L 84.402816 415.652593 
L 83.801907 417.08238 
L 83.220231 417.08238 
L 82.814852 418.512168 
L 82.49875 418.512168 
L 82.269949 419.941955 
L 82.155452 422.801529 
L 81.831082 424.231316 
L 81.620063 428.520678 
L 77.470611 428.520678 
L 76.873515 429.950465 
L 75.118014 429.950465 
L 75.117952 431.380253 
L 74.458225 431.380253 
L 74.456225 429.950465 
L 74.051669 431.380253 
L 73.765963 432.81004 
L 73.54676 432.81004 
L 73.240843 435.669614 
L 72.329261 435.669614 
L 72.329261 435.669614 
" clip-path="url(#pebb6d4d2a1)" style="fill: none; stroke: #ff7f0e; stroke-opacity: 0.8; stroke-width: 1.5; stroke-linecap: square"/>
   </g>
   <g id="patch_3">
    <path d="M 46.965625 465.838125 
L 46.965625 22.318125 
" style="fill: none; stroke: #000000; stroke-width: 0.8; stroke-linejoin: miter; stroke-linecap: square"/>
   </g>
   <g id="patch_4">
    <path d="M 604.965625 465.838125 
L 604.965625 22.318125 
" style="fill: none; stroke: #000000; stroke-width: 0.8; stroke-linejoin: miter; stroke-linecap: square"/>
   </g>
   <g id="patch_5">
    <path d="M 46.965625 465.838125 
L 604.965625 465.838125 
" style="fill: none; stroke: #000000; stroke-width: 0.8; stroke-linejoin: miter; stroke-linecap: square"/>
   </g>
   <g id="patch_6">
    <path d="M 46.965625 22.318125 
L 604.965625 22.318125 
" style="fill: none; stroke: #000000; stroke-width: 0.8; stroke-linejoin: miter; stroke-linecap: square"/>
   </g>
   <g id="text_19">
    <!-- 13 -->
    <g transform="translate(579.601989 429.950465) scale(0.1 -0.1)">
     <use xlink:href="#DejaVuSans-31"/>
     <use xlink:href="#DejaVuSans-33" x="63.623047"/>
    </g>
   </g>
   <g id="text_20">
    <!-- 223 -->
    <g transform="translate(579.601989 129.695146) scale(0.1 -0.1)">
     <use xlink:href="#DejaVuSans-32"/>
     <use xlink:href="#DejaVuSans-32" x="63.623047"/>
     <use xlink:href="#DejaVuSans-33" x="127.246094"/>
    </g>
   </g>
   <g id="text_21">
    <!-- WireGuard peers over time -->
    <g transform="translate(244.736875 16.318125) scale(0.12 -0.12)">
     <defs>
      <path id="DejaVuSans-57" d="M 213 4666 
L 850 4666 
L 1831 722 
L 2809 4666 
L 3519 4666 
L 4500 722 
L 5478 4666 
L 6119 4666 
L 4947 0 
L 4153 0 
L 3169 4050 
L 2175 0 
L 1381 0 
L 213 4666 
z
" transform="scale(0.015625)"/>
      <path id="DejaVuSans-69" d="M 603 3500 
L 1178 3500 
L 1178 0 
L 603 0 
L 603 3500 
z
M 603 4863 
L 1178 4863 
L 1178 4134 
L 603 4134 
L 603 4863 
z
" transform="scale(0.015625)"/>
      <path id="DejaVuSans-72" d="M 2631 2963 
Q 2534 3019 2420 3045 
Q 2306 3072 2169 3072 
Q 1681 3072 1420 2755 
Q 1159 2438 1159 1844 
L 1159 0 
L 581 0 
L 581 3500 
L 1159 3500 
L 1159 2956 
Q 1341 3275 1631 3429 
Q 1922 3584 2338 3584 
Q 2397 3584 2469 3576 
Q 2541 3569 2628 3553 
L 2631 2963 
z
" transform="scale(0.015625)"/>
      <path id="DejaVuSans-47" d="M 3809 666 
L 3809 1919 
L 2778 1919 
L 2778 2438 
L 4434 2438 
L 4434 434 
Q 4069 175 3628 42 
Q 3188 -91 2688 -91 
Q 1594 -91 976 548 
Q 359 1188 359 2328 
Q 359 3472 976 4111 
Q 1594 4750 2688 4750 
Q 3144 4750 3555 4637 
Q 3966 4525 4313 4306 
L 4313 3634 
Q 3963 3931 3569 4081 
Q 3175 4231 2741 4231 
Q 1884 4231 1454 3753 
Q 1025 3275 1025 2328 
Q 1025 1384 1454 906 
Q 1884 428 2741 428 
Q 3075 428 3337 486 
Q 3600 544 3809 666 
z
" transform="scale(0.015625)"/>
      <path id="DejaVuSans-64" d="M 2906 2969 
L 2906 4863 
L 3481 4863 
L 3481 0 
L 2906 0 
L 2906 525 
Q 2725 213 2448 61 
Q 2172 -91 1784 -91 
Q 1150 -91 751 415 
Q 353 922 353 1747 
Q 353 2572 751 3078 
Q 1150 3584 1784 3584 
Q 2172 3584 2448 3432 
Q 2725 3281 2906 2969 
z
M 947 1747 
Q 947 1113 1208 752 
Q 1469 391 1925 391 
Q 2381 391 2643 752 
Q 2906 1113 2906 1747 
Q 2906 2381 2643 2742 
Q 2381 3103 1925 3103 
Q 1469 3103 1208 2742 
Q 947 2381 947 1747 
z
" transform="scale(0.015625)"/>
      <path id="DejaVuSans-20" transform="scale(0.015625)"/>
      <path id="DejaVuSans-70" d="M 1159 525 
L 1159 -1331 
L 581 -1331 
L 581 3500 
L 1159 3500 
L 1159 2969 
Q 1341 3281 1617 3432 
Q 1894 3584 2278 3584 
Q 2916 3584 3314 3078 
Q 3713 2572 3713 1747 
Q 3713 922 3314 415 
Q 2916 -91 2278 -91 
Q 1894 -91 1617 61 
Q 1341 213 1159 525 
z
M 3116 1747 
Q 3116 2381 2855 2742 
Q 2594 3103 2138 3103 
Q 1681 3103 1420 2742 
Q 1159 2381 1159 1747 
Q 1159 1113 1420 752 
Q 1681 391 2138 391 
Q 2594 391 2855 752 
Q 3116 1113 3116 1747 
z
" transform="scale(0.015625)"/>
      <path id="DejaVuSans-73" d="M 2834 3397 
L 2834 2853 
Q 2591 2978 2328 3040 
Q 2066 3103 1784 3103 
Q 1356 3103 1142 2972 
Q 928 2841 928 2578 
Q 928 2378 1081 2264 
Q 1234 2150 1697 2047 
L 1894 2003 
Q 2506 1872 2764 1633 
Q 3022 1394 3022 966 
Q 3022 478 2636 193 
Q 2250 -91 1575 -91 
Q 1294 -91 989 -36 
Q 684 19 347 128 
L 347 722 
Q 666 556 975 473 
Q 1284 391 1588 391 
Q 1994 391 2212 530 
Q 2431 669 2431 922 
Q 2431 1156 2273 1281 
Q 2116 1406 1581 1522 
L 1381 1569 
Q 847 1681 609 1914 
Q 372 2147 372 2553 
Q 372 3047 722 3315 
Q 1072 3584 1716 3584 
Q 2034 3584 2315 3537 
Q 2597 3491 2834 3397 
z
" transform="scale(0.015625)"/>
      <path id="DejaVuSans-76" d="M 191 3500 
L 800 3500 
L 1894 563 
L 2988 3500 
L 3597 3500 
L 2284 0 
L 1503 0 
L 191 3500 
z
" transform="scale(0.015625)"/>
      <path id="DejaVuSans-6d" d="M 3328 2828 
Q 3544 3216 3844 3400 
Q 4144 3584 4550 3584 
Q 5097 3584 5394 3201 
Q 5691 2819 5691 2113 
L 5691 0 
L 5113 0 
L 5113 2094 
Q 5113 2597 4934 2840 
Q 4756 3084 4391 3084 
Q 3944 3084 3684 2787 
Q 3425 2491 3425 1978 
L 3425 0 
L 2847 0 
L 2847 2094 
Q 2847 2600 2669 2842 
Q 2491 3084 2119 3084 
Q 1678 3084 1418 2786 
Q 1159 2488 1159 1978 
L 1159 0 
L 581 0 
L 581 3500 
L 1159 3500 
L 1159 2956 
Q 1356 3278 1631 3431 
Q 1906 3584 2284 3584 
Q 2666 3584 2933 3390 
Q 3200 3197 3328 2828 
z
" transform="scale(0.015625)"/>
     </defs>
     <use xlink:href="#DejaVuSans-57"/>
     <use xlink:href="#DejaVuSans-69" x="96.626953"/>
     <use xlink:href="#DejaVuSans-72" x="124.410156"/>
     <use xlink:href="#DejaVuSans-65" x="163.273438"/>
     <use xlink:href="#DejaVuSans-47" x="224.796875"/>
     <use xlink:href="#DejaVuSans-75" x="302.287109"/>
     <use xlink:href="#DejaVuSans-61" x="365.666016"/>
     <use xlink:href="#DejaVuSans-72" x="426.945312"/>
     <use xlink:href="#DejaVuSans-64" x="466.308594"/>
     <use xlink:href="#DejaVuSans-20" x="529.785156"/>
     <use xlink:href="#DejaVuSans-70" x="561.572266"/>
     <use xlink:href="#DejaVuSans-65" x="625.048828"/>
     <use xlink:href="#DejaVuSans-65" x="686.572266"/>
     <use xlink:href="#DejaVuSans-72" x="748.095703"/>
     <use xlink:href="#DejaVuSans-73" x="789.208984"/>
     <use xlink:href="#DejaVuSans-20" x="841.308594"/>
     <use xlink:href="#DejaVuSans-6f" x="873.095703"/>
     <use xlink:href="#DejaVuSans-76" x="934.277344"/>
     <use xlink:href="#DejaVuSans-65" x="993.457031"/>
     <use xlink:href="#DejaVuSans-72" x="1054.980469"/>
     <use xlink:href="#DejaVuSans-20" x="1096.09375"/>
     <use xlink:href="#DejaVuSans-74" x="1127.880859"/>
     <use xlink:href="#DejaVuSans-69" x="1167.089844"/>
     <use xlink:href="#DejaVuSans-6d" x="1194.873047"/>
     <use xlink:href="#DejaVuSans-65" x="1292.285156"/>
    </g>
   </g>
   <g id="legend_1">
    <g id="patch_7">
     <path d="M 53.965625 59.674375 
L 163.390625 59.674375 
Q 165.390625 59.674375 165.390625 57.674375 
L 165.390625 29.318125 
Q 165.390625 27.318125 163.390625 27.318125 
L 53.965625 27.318125 
Q 51.965625 27.318125 51.965625 29.318125 
L 51.965625 57.674375 
Q 51.965625 59.674375 53.965625 59.674375 
z
" style="fill: #ffffff; opacity: 0.8; stroke: #cccccc; stroke-linejoin: miter"/>
    </g>
    <g id="line2d_35">
     <path d="M 55.965625 35.416562 
L 65.965625 35.416562 
L 75.965625 35.416562 
" style="fill: none; stroke: #1f77b4; stroke-opacity: 0.8; stroke-width: 1.5; stroke-linecap: square"/>
    </g>
    <g id="text_22">
     <!-- # routers -->
     <g transform="translate(83.965625 38.916562) scale(0.1 -0.1)">
      <defs>
       <path id="DejaVuSans-23" d="M 3272 2816 
L 2363 2816 
L 2100 1772 
L 3016 1772 
L 3272 2816 
z
M 2803 4594 
L 2478 3297 
L 3391 3297 
L 3719 4594 
L 4219 4594 
L 3897 3297 
L 4872 3297 
L 4872 2816 
L 3775 2816 
L 3519 1772 
L 4513 1772 
L 4513 1294 
L 3397 1294 
L 3072 0 
L 2572 0 
L 2894 1294 
L 1978 1294 
L 1656 0 
L 1153 0 
L 1478 1294 
L 494 1294 
L 494 1772 
L 1594 1772 
L 1856 2816 
L 850 2816 
L 850 3297 
L 1978 3297 
L 2297 4594 
L 2803 4594 
z
" transform="scale(0.015625)"/>
      </defs>
      <use xlink:href="#DejaVuSans-23"/>
      <use xlink:href="#DejaVuSans-20" x="83.789062"/>
      <use xlink:href="#DejaVuSans-72" x="115.576172"/>
      <use xlink:href="#DejaVuSans-6f" x="154.439453"/>
      <use xlink:href="#DejaVuSans-75" x="215.621094"/>
      <use xlink:href="#DejaVuSans-74" x="279"/>
      <use xlink:href="#DejaVuSans-65" x="318.208984"/>
      <use xlink:href="#DejaVuSans-72" x="379.732422"/>
      <use xlink:href="#DejaVuSans-73" x="420.845703"/>
     </g>
    </g>
    <g id="line2d_36">
     <path d="M 55.965625 50.094687 
L 65.965625 50.094687 
L 75.965625 50.094687 
" style="fill: none; stroke: #ff7f0e; stroke-opacity: 0.8; stroke-width: 1.5; stroke-linecap: square"/>
    </g>
    <g id="text_23">
     <!-- # BGP sessions -->
     <g transform="translate(83.965625 53.594687) scale(0.1 -0.1)">
      <defs>
       <path id="DejaVuSans-42" d="M 1259 2228 
L 1259 519 
L 2272 519 
Q 2781 519 3026 730 
Q 3272 941 3272 1375 
Q 3272 1813 3026 2020 
Q 2781 2228 2272 2228 
L 1259 2228 
z
M 1259 4147 
L 1259 2741 
L 2194 2741 
Q 2656 2741 2882 2914 
Q 3109 3088 3109 3444 
Q 3109 3797 2882 3972 
Q 2656 4147 2194 4147 
L 1259 4147 
z
M 628 4666 
L 2241 4666 
Q 2963 4666 3353 4366 
Q 3744 4066 3744 3513 
Q 3744 3084 3544 2831 
Q 3344 2578 2956 2516 
Q 3422 2416 3680 2098 
Q 3938 1781 3938 1306 
Q 3938 681 3513 340 
Q 3088 0 2303 0 
L 628 0 
L 628 4666 
z
" transform="scale(0.015625)"/>
       <path id="DejaVuSans-50" d="M 1259 4147 
L 1259 2394 
L 2053 2394 
Q 2494 2394 2734 2622 
Q 2975 2850 2975 3272 
Q 2975 3691 2734 3919 
Q 2494 4147 2053 4147 
L 1259 4147 
z
M 628 4666 
L 2053 4666 
Q 2838 4666 3239 4311 
Q 3641 3956 3641 3272 
Q 3641 2581 3239 2228 
Q 2838 1875 2053 1875 
L 1259 1875 
L 1259 0 
L 628 0 
L 628 4666 
z
" transform="scale(0.015625)"/>
      </defs>
      <use xlink:href="#DejaVuSans-23"/>
      <use xlink:href="#DejaVuSans-20" x="83.789062"/>
      <use xlink:href="#DejaVuSans-42" x="115.576172"/>
      <use xlink:href="#DejaVuSans-47" x="182.429688"/>
      <use xlink:href="#DejaVuSans-50" x="259.919922"/>
      <use xlink:href="#DejaVuSans-20" x="320.222656"/>
      <use xlink:href="#DejaVuSans-73" x="352.009766"/>
      <use xlink:href="#DejaVuSans-65" x="404.109375"/>
      <use xlink:href="#DejaVuSans-73" x="465.632812"/>
      <use xlink:href="#DejaVuSans-73" x="517.732422"/>
      <use xlink:href="#DejaVuSans-69" x="569.832031"/>
      <use xlink:href="#DejaVuSans-6f" x="597.615234"/>
      <use xlink:href="#DejaVuSans-6e" x="658.796875"/>
      <use xlink:href="#DejaVuSans-73" x="722.175781"/>
     </g>
    </g>
   </g>
  </g>
 </g>
 <defs>
  <clipPath id="pebb6d4d2a1">
   <rect x="46.965625" y="22.318125" width="558" height="443.52"/>
  </clipPath>
 </defs>
</svg>
