<?xml version="1.0" encoding="utf-8" standalone="no"?>
<!DOCTYPE svg PUBLIC "-//W3C//DTD SVG 1.1//EN"
  "http://www.w3.org/Graphics/SVG/1.1/DTD/svg11.dtd">
<!-- Created with matplotlib (https://matplotlib.org/) -->
<svg height="471.149158pt" version="1.1" viewBox="0 0 605.803125 471.149158" width="605.803125pt" xmlns="http://www.w3.org/2000/svg" xmlns:xlink="http://www.w3.org/1999/xlink">
 <metadata>
  <rdf:RDF xmlns:cc="http://creativecommons.org/ns#" xmlns:dc="http://purl.org/dc/elements/1.1/" xmlns:rdf="http://www.w3.org/1999/02/22-rdf-syntax-ns#">
   <cc:Work>
    <dc:type rdf:resource="http://purl.org/dc/dcmitype/StillImage"/>
    <dc:date>2020-10-22T20:20:48.098641</dc:date>
    <dc:format>image/svg+xml</dc:format>
    <dc:creator>
     <cc:Agent>
      <dc:title>Matplotlib v3.3.2, https://matplotlib.org/</dc:title>
     </cc:Agent>
    </dc:creator>
   </cc:Work>
  </rdf:RDF>
 </metadata>
 <defs>
  <style type="text/css">*{stroke-linecap:butt;stroke-linejoin:round;}</style>
 </defs>
 <g id="figure_1">
  <g id="patch_1">
   <path d="M 0 471.149158 
L 605.803125 471.149158 
L 605.803125 0 
L 0 0 
z
" style="fill:#ffffff;"/>
  </g>
  <g id="axes_1">
   <g id="patch_2">
    <path d="M 40.603125 413.998125 
L 598.603125 413.998125 
L 598.603125 22.318125 
L 40.603125 22.318125 
z
" style="fill:#ffffff;"/>
   </g>
   <g id="matplotlib.axis_1">
    <g id="xtick_1">
     <g id="line2d_1">
      <path clip-path="url(#p804a5a3bbf)" d="M 75.412652 413.998125 
L 75.412652 22.318125 
" style="fill:none;stroke:#b0b0b0;stroke-linecap:square;stroke-opacity:0.6;stroke-width:0.8;"/>
     </g>
     <g id="line2d_2">
      <defs>
       <path d="M 0 0 
L 0 3.5 
" id="md8b60b4055" style="stroke:#000000;stroke-width:0.8;"/>
      </defs>
      <g>
       <use style="stroke:#000000;stroke-width:0.8;" x="75.412652" xlink:href="#md8b60b4055" y="413.998125"/>
      </g>
     </g>
     <g id="text_1">
      <text style="font-family:DejaVu Sans;font-size:10px;font-stretch:normal;font-style:normal;font-weight:normal;" transform="translate(38.187831 448.469971)rotate(-30)">2020-05</text>
     </g>
    </g>
    <g id="xtick_2">
     <g id="line2d_3">
      <path clip-path="url(#p804a5a3bbf)" d="M 179.026515 413.998125 
L 179.026515 22.318125 
" style="fill:none;stroke:#b0b0b0;stroke-linecap:square;stroke-opacity:0.6;stroke-width:0.8;"/>
     </g>
     <g id="line2d_4">
      <g>
       <use style="stroke:#000000;stroke-width:0.8;" x="179.026515" xlink:href="#md8b60b4055" y="413.998125"/>
      </g>
     </g>
     <g id="text_2">
      <text style="font-family:DejaVu Sans;font-size:10px;font-stretch:normal;font-style:normal;font-weight:normal;" transform="translate(141.801694 448.469971)rotate(-30)">2020-06</text>
     </g>
    </g>
    <g id="xtick_3">
     <g id="line2d_5">
      <path clip-path="url(#p804a5a3bbf)" d="M 286.094174 413.998125 
L 286.094174 22.318125 
" style="fill:none;stroke:#b0b0b0;stroke-linecap:square;stroke-opacity:0.6;stroke-width:0.8;"/>
     </g>
     <g id="line2d_6">
      <g>
       <use style="stroke:#000000;stroke-width:0.8;" x="286.094174" xlink:href="#md8b60b4055" y="413.998125"/>
      </g>
     </g>
     <g id="text_3">
      <text style="font-family:DejaVu Sans;font-size:10px;font-stretch:normal;font-style:normal;font-weight:normal;" transform="translate(248.869353 448.469971)rotate(-30)">2020-07</text>
     </g>
    </g>
    <g id="xtick_4">
     <g id="line2d_7">
      <path clip-path="url(#p804a5a3bbf)" d="M 393.161832 413.998125 
L 393.161832 22.318125 
" style="fill:none;stroke:#b0b0b0;stroke-linecap:square;stroke-opacity:0.6;stroke-width:0.8;"/>
     </g>
     <g id="line2d_8">
      <g>
       <use style="stroke:#000000;stroke-width:0.8;" x="393.161832" xlink:href="#md8b60b4055" y="413.998125"/>
      </g>
     </g>
     <g id="text_4">
      <text style="font-family:DejaVu Sans;font-size:10px;font-stretch:normal;font-style:normal;font-weight:normal;" transform="translate(355.937012 448.469971)rotate(-30)">2020-08</text>
     </g>
    </g>
    <g id="xtick_5">
     <g id="line2d_9">
      <path clip-path="url(#p804a5a3bbf)" d="M 496.775696 413.998125 
L 496.775696 22.318125 
" style="fill:none;stroke:#b0b0b0;stroke-linecap:square;stroke-opacity:0.6;stroke-width:0.8;"/>
     </g>
     <g id="line2d_10">
      <g>
       <use style="stroke:#000000;stroke-width:0.8;" x="496.775696" xlink:href="#md8b60b4055" y="413.998125"/>
      </g>
     </g>
     <g id="text_5">
      <text style="font-family:DejaVu Sans;font-size:10px;font-stretch:normal;font-style:normal;font-weight:normal;" transform="translate(459.550875 448.469971)rotate(-30)">2020-09</text>
     </g>
    </g>
    <g id="text_6">
     <text style="font-family:DejaVu Sans;font-size:10px;font-stretch:normal;font-style:normal;font-weight:normal;text-anchor:middle;" transform="rotate(-0, 319.603125, 461.869471)" x="319.603125" y="461.869471">Date</text>
    </g>
   </g>
   <g id="matplotlib.axis_2">
    <g id="ytick_1">
     <g id="line2d_11">
      <path clip-path="url(#p804a5a3bbf)" d="M 40.603125 402.22962 
L 598.603125 402.22962 
" style="fill:none;stroke:#b0b0b0;stroke-linecap:square;stroke-opacity:0.6;stroke-width:0.8;"/>
     </g>
     <g id="line2d_12">
      <defs>
       <path d="M 0 0 
L -3.5 0 
" id="mde59f3e500" style="stroke:#000000;stroke-width:0.8;"/>
      </defs>
      <g>
       <use style="stroke:#000000;stroke-width:0.8;" x="40.603125" xlink:href="#mde59f3e500" y="402.22962"/>
      </g>
     </g>
     <g id="text_7">
      <text style="font-family:DejaVu Sans;font-size:10px;font-stretch:normal;font-style:normal;font-weight:normal;text-anchor:end;" transform="rotate(-0, 33.603125, 406.028838)" x="33.603125" y="406.028838">0</text>
     </g>
    </g>
    <g id="ytick_2">
     <g id="line2d_13">
      <path clip-path="url(#p804a5a3bbf)" d="M 40.603125 341.87831 
L 598.603125 341.87831 
" style="fill:none;stroke:#b0b0b0;stroke-linecap:square;stroke-opacity:0.6;stroke-width:0.8;"/>
     </g>
     <g id="line2d_14">
      <g>
       <use style="stroke:#000000;stroke-width:0.8;" x="40.603125" xlink:href="#mde59f3e500" y="341.87831"/>
      </g>
     </g>
     <g id="text_8">
      <text style="font-family:DejaVu Sans;font-size:10px;font-stretch:normal;font-style:normal;font-weight:normal;text-anchor:end;" transform="rotate(-0, 33.603125, 345.677529)" x="33.603125" y="345.677529">10</text>
     </g>
    </g>
    <g id="ytick_3">
     <g id="line2d_15">
      <path clip-path="url(#p804a5a3bbf)" d="M 40.603125 281.527 
L 598.603125 281.527 
" style="fill:none;stroke:#b0b0b0;stroke-linecap:square;stroke-opacity:0.6;stroke-width:0.8;"/>
     </g>
     <g id="line2d_16">
      <g>
       <use style="stroke:#000000;stroke-width:0.8;" x="40.603125" xlink:href="#mde59f3e500" y="281.527"/>
      </g>
     </g>
     <g id="text_9">
      <text style="font-family:DejaVu Sans;font-size:10px;font-stretch:normal;font-style:normal;font-weight:normal;text-anchor:end;" transform="rotate(-0, 33.603125, 285.326219)" x="33.603125" y="285.326219">20</text>
     </g>
    </g>
    <g id="ytick_4">
     <g id="line2d_17">
      <path clip-path="url(#p804a5a3bbf)" d="M 40.603125 221.17569 
L 598.603125 221.17569 
" style="fill:none;stroke:#b0b0b0;stroke-linecap:square;stroke-opacity:0.6;stroke-width:0.8;"/>
     </g>
     <g id="line2d_18">
      <g>
       <use style="stroke:#000000;stroke-width:0.8;" x="40.603125" xlink:href="#mde59f3e500" y="221.17569"/>
      </g>
     </g>
     <g id="text_10">
      <text style="font-family:DejaVu Sans;font-size:10px;font-stretch:normal;font-style:normal;font-weight:normal;text-anchor:end;" transform="rotate(-0, 33.603125, 224.974909)" x="33.603125" y="224.974909">30</text>
     </g>
    </g>
    <g id="ytick_5">
     <g id="line2d_19">
      <path clip-path="url(#p804a5a3bbf)" d="M 40.603125 160.824381 
L 598.603125 160.824381 
" style="fill:none;stroke:#b0b0b0;stroke-linecap:square;stroke-opacity:0.6;stroke-width:0.8;"/>
     </g>
     <g id="line2d_20">
      <g>
       <use style="stroke:#000000;stroke-width:0.8;" x="40.603125" xlink:href="#mde59f3e500" y="160.824381"/>
      </g>
     </g>
     <g id="text_11">
      <text style="font-family:DejaVu Sans;font-size:10px;font-stretch:normal;font-style:normal;font-weight:normal;text-anchor:end;" transform="rotate(-0, 33.603125, 164.6236)" x="33.603125" y="164.6236">40</text>
     </g>
    </g>
    <g id="ytick_6">
     <g id="line2d_21">
      <path clip-path="url(#p804a5a3bbf)" d="M 40.603125 100.473071 
L 598.603125 100.473071 
" style="fill:none;stroke:#b0b0b0;stroke-linecap:square;stroke-opacity:0.6;stroke-width:0.8;"/>
     </g>
     <g id="line2d_22">
      <g>
       <use style="stroke:#000000;stroke-width:0.8;" x="40.603125" xlink:href="#mde59f3e500" y="100.473071"/>
      </g>
     </g>
     <g id="text_12">
      <text style="font-family:DejaVu Sans;font-size:10px;font-stretch:normal;font-style:normal;font-weight:normal;text-anchor:end;" transform="rotate(-0, 33.603125, 104.27229)" x="33.603125" y="104.27229">50</text>
     </g>
    </g>
    <g id="ytick_7">
     <g id="line2d_23">
      <path clip-path="url(#p804a5a3bbf)" d="M 40.603125 40.121761 
L 598.603125 40.121761 
" style="fill:none;stroke:#b0b0b0;stroke-linecap:square;stroke-opacity:0.6;stroke-width:0.8;"/>
     </g>
     <g id="line2d_24">
      <g>
       <use style="stroke:#000000;stroke-width:0.8;" x="40.603125" xlink:href="#mde59f3e500" y="40.121761"/>
      </g>
     </g>
     <g id="text_13">
      <text style="font-family:DejaVu Sans;font-size:10px;font-stretch:normal;font-style:normal;font-weight:normal;text-anchor:end;" transform="rotate(-0, 33.603125, 43.92098)" x="33.603125" y="43.92098">60</text>
     </g>
    </g>
    <g id="text_14">
     <text style="font-family:DejaVu Sans;font-size:10px;font-stretch:normal;font-style:normal;font-weight:normal;text-anchor:middle;" transform="rotate(-90, 14.798437, 218.158125)" x="14.798437" y="218.158125">Count</text>
    </g>
   </g>
   <g id="line2d_25">
    <path clip-path="url(#p804a5a3bbf)" d="M 573.239489 366.018834 
L 365.96895 366.018834 
L 365.801097 372.053965 
L 307.915245 372.053965 
L 307.804996 378.089096 
L 226.373094 378.089096 
L 224.464992 384.124227 
L 135.010491 384.124227 
L 131.636724 390.159358 
L 69.555591 390.159358 
L 65.966761 396.194489 
L 65.966761 396.194489 
" style="fill:none;stroke:#1f77b4;stroke-linecap:square;stroke-opacity:0.8;stroke-width:1.5;"/>
   </g>
   <g id="line2d_26">
    <path clip-path="url(#p804a5a3bbf)" d="M 573.239489 40.121761 
L 558.140207 46.156892 
L 544.872395 46.156892 
L 544.596891 52.192023 
L 539.194819 58.227154 
L 532.032751 58.227154 
L 530.883884 64.262285 
L 530.882205 52.192023 
L 530.84431 58.227154 
L 530.743934 58.227154 
L 529.206435 64.262285 
L 529.201678 76.332547 
L 459.993853 76.332547 
L 459.039463 88.402809 
L 459.037224 94.43794 
L 448.089532 94.43794 
L 423.561548 100.473071 
L 423.580496 106.508202 
L 423.554193 106.508202 
L 390.434933 106.508202 
L 389.400473 118.578464 
L 389.371452 124.613595 
L 370.037593 124.613595 
L 370.036913 130.648726 
L 369.208962 130.648726 
L 368.110503 136.683857 
L 365.96895 166.859512 
L 365.801097 172.894643 
L 362.030983 172.894643 
L 357.82147 178.929774 
L 355.20526 178.929774 
L 354.308273 191.000036 
L 348.528282 197.035167 
L 334.565634 197.035167 
L 334.564235 209.105429 
L 320.705481 209.105429 
L 316.624846 215.14056 
L 316.39987 221.17569 
L 312.957587 221.17569 
L 310.828746 233.245952 
L 310.5863 239.281083 
L 307.915245 245.316214 
L 307.804996 251.351345 
L 261.89578 251.351345 
L 261.22229 263.421607 
L 254.73515 263.421607 
L 248.685452 269.456738 
L 241.693155 269.456738 
L 237.222489 275.491869 
L 233.736394 275.491869 
L 231.213084 281.527 
L 230.777922 287.562131 
L 230.208566 287.562131 
L 229.95037 293.597262 
L 226.373094 299.632393 
L 224.464992 317.737786 
L 178.284189 317.737786 
L 172.54873 323.772917 
L 152.33887 323.772917 
L 152.33819 329.808048 
L 140.578816 329.808048 
L 137.427948 335.843179 
L 135.010491 335.843179 
L 131.636724 347.913441 
L 114.289917 347.913441 
L 112.456087 353.948572 
L 102.056245 353.948572 
L 102.00248 359.983703 
L 100.493403 366.018834 
L 93.764258 366.018834 
L 93.033405 372.053965 
L 75.04009 378.089096 
L 69.555591 378.089096 
L 65.966761 384.124227 
L 65.966761 384.124227 
" style="fill:none;stroke:#ff7f0e;stroke-linecap:square;stroke-opacity:0.8;stroke-width:1.5;"/>
   </g>
   <g id="line2d_27">
    <path clip-path="url(#p804a5a3bbf)" d="M 573.239489 148.754119 
L 558.140207 154.78925 
L 544.872395 154.78925 
L 544.596891 160.824381 
L 532.032751 160.824381 
L 530.882205 166.859512 
L 530.743934 172.894643 
L 529.206435 178.929774 
L 529.201678 191.000036 
L 459.039463 191.000036 
L 459.037224 197.035167 
L 448.089532 197.035167 
L 423.554193 203.070298 
L 390.434933 203.070298 
L 389.400473 209.105429 
L 389.371452 215.14056 
L 370.037593 215.14056 
L 370.036913 221.17569 
L 369.208962 221.17569 
L 368.110503 227.210821 
L 365.96895 233.245952 
L 362.030983 233.245952 
L 357.82147 239.281083 
L 355.20526 239.281083 
L 354.308273 245.316214 
L 348.528282 251.351345 
L 334.565634 251.351345 
L 334.564235 257.386476 
L 320.705481 257.386476 
L 316.624846 263.421607 
L 316.39987 269.456738 
L 312.957587 269.456738 
L 310.828746 275.491869 
L 310.5863 281.527 
L 307.915245 287.562131 
L 307.804996 293.597262 
L 261.548122 293.597262 
L 261.22229 299.632393 
L 254.73515 299.632393 
L 248.685452 305.667524 
L 241.693155 305.667524 
L 237.222489 311.702655 
L 231.213084 311.702655 
L 230.777922 317.737786 
L 230.208566 317.737786 
L 229.95037 323.772917 
L 226.373094 323.772917 
L 224.464992 329.808048 
L 178.284189 329.808048 
L 172.54873 335.843179 
L 152.33887 335.843179 
L 152.33819 341.87831 
L 140.578816 341.87831 
L 137.427948 347.913441 
L 135.010491 347.913441 
L 131.636724 353.948572 
L 114.289917 353.948572 
L 112.456087 359.983703 
L 102.00248 359.983703 
L 100.493403 366.018834 
L 93.764258 366.018834 
L 93.033405 372.053965 
L 75.04009 378.089096 
L 69.555591 378.089096 
L 65.966761 384.124227 
L 65.966761 384.124227 
" style="fill:none;stroke:#2ca02c;stroke-linecap:square;stroke-opacity:0.8;stroke-width:1.5;"/>
   </g>
   <g id="patch_3">
    <path d="M 40.603125 413.998125 
L 40.603125 22.318125 
" style="fill:none;stroke:#000000;stroke-linecap:square;stroke-linejoin:miter;stroke-width:0.8;"/>
   </g>
   <g id="patch_4">
    <path d="M 598.603125 413.998125 
L 598.603125 22.318125 
" style="fill:none;stroke:#000000;stroke-linecap:square;stroke-linejoin:miter;stroke-width:0.8;"/>
   </g>
   <g id="patch_5">
    <path d="M 40.603125 413.998125 
L 598.603125 413.998125 
" style="fill:none;stroke:#000000;stroke-linecap:square;stroke-linejoin:miter;stroke-width:0.8;"/>
   </g>
   <g id="patch_6">
    <path d="M 40.603125 22.318125 
L 598.603125 22.318125 
" style="fill:none;stroke:#000000;stroke-linecap:square;stroke-linejoin:miter;stroke-width:0.8;"/>
   </g>
   <g id="text_15">
    <text style="font-family:DejaVu Sans;font-size:10px;font-stretch:normal;font-style:normal;font-weight:normal;text-anchor:start;" transform="rotate(-0, 573.239489, 366.018834)" x="573.239489" y="366.018834">6</text>
   </g>
   <g id="text_16">
    <text style="font-family:DejaVu Sans;font-size:10px;font-stretch:normal;font-style:normal;font-weight:normal;text-anchor:start;" transform="rotate(-0, 573.239489, 40.121761)" x="573.239489" y="40.121761">60</text>
   </g>
   <g id="text_17">
    <text style="font-family:DejaVu Sans;font-size:10px;font-stretch:normal;font-style:normal;font-weight:normal;text-anchor:start;" transform="rotate(-0, 573.239489, 148.754119)" x="573.239489" y="148.754119">42</text>
   </g>
   <g id="text_18">
    <text style="font-family:DejaVu Sans;font-size:12px;font-stretch:normal;font-style:normal;font-weight:normal;text-anchor:middle;" transform="rotate(-0, 319.603125, 16.318125)" x="319.603125" y="16.318125">Peers over time</text>
   </g>
   <g id="legend_1">
    <g id="patch_7">
     <path d="M 47.603125 74.3525 
L 178.88125 74.3525 
Q 180.88125 74.3525 180.88125 72.3525 
L 180.88125 29.318125 
Q 180.88125 27.318125 178.88125 27.318125 
L 47.603125 27.318125 
Q 45.603125 27.318125 45.603125 29.318125 
L 45.603125 72.3525 
Q 45.603125 74.3525 47.603125 74.3525 
z
" style="fill:#ffffff;opacity:0.8;stroke:#cccccc;stroke-linejoin:miter;"/>
    </g>
    <g id="line2d_28">
     <path d="M 49.603125 35.416562 
L 69.603125 35.416562 
" style="fill:none;stroke:#1f77b4;stroke-linecap:square;stroke-opacity:0.8;stroke-width:1.5;"/>
    </g>
    <g id="line2d_29"/>
    <g id="text_19">
     <text style="font-family:DejaVu Sans;font-size:10px;font-stretch:normal;font-style:normal;font-weight:normal;text-anchor:start;" transform="rotate(-0, 77.603125, 38.916562)" x="77.603125" y="38.916562">eBGP routers</text>
    </g>
    <g id="line2d_30">
     <path d="M 49.603125 50.094687 
L 69.603125 50.094687 
" style="fill:none;stroke:#ff7f0e;stroke-linecap:square;stroke-opacity:0.8;stroke-width:1.5;"/>
    </g>
    <g id="line2d_31"/>
    <g id="text_20">
     <text style="font-family:DejaVu Sans;font-size:10px;font-stretch:normal;font-style:normal;font-weight:normal;text-anchor:start;" transform="rotate(-0, 77.603125, 53.594687)" x="77.603125" y="53.594687">total eBGP peerings</text>
    </g>
    <g id="line2d_32">
     <path d="M 49.603125 64.772812 
L 69.603125 64.772812 
" style="fill:none;stroke:#2ca02c;stroke-linecap:square;stroke-opacity:0.8;stroke-width:1.5;"/>
    </g>
    <g id="line2d_33"/>
    <g id="text_21">
     <text style="font-family:DejaVu Sans;font-size:10px;font-stretch:normal;font-style:normal;font-weight:normal;text-anchor:start;" transform="rotate(-0, 77.603125, 68.272812)" x="77.603125" y="68.272812">unique eBGP peers</text>
    </g>
   </g>
  </g>
 </g>
 <defs>
  <clipPath id="p804a5a3bbf">
   <rect height="391.68" width="558" x="40.603125" y="22.318125"/>
  </clipPath>
 </defs>
</svg>
