<?xml version="1.0" encoding="utf-8" standalone="no"?>
<!DOCTYPE svg PUBLIC "-//W3C//DTD SVG 1.1//EN"
  "http://www.w3.org/Graphics/SVG/1.1/DTD/svg11.dtd">
<!-- Created with matplotlib (https://matplotlib.org/) -->
<svg height="471.149158pt" version="1.1" viewBox="0 0 605.803125 471.149158" width="605.803125pt" xmlns="http://www.w3.org/2000/svg" xmlns:xlink="http://www.w3.org/1999/xlink">
 <metadata>
  <rdf:RDF xmlns:cc="http://creativecommons.org/ns#" xmlns:dc="http://purl.org/dc/elements/1.1/" xmlns:rdf="http://www.w3.org/1999/02/22-rdf-syntax-ns#">
   <cc:Work>
    <dc:type rdf:resource="http://purl.org/dc/dcmitype/StillImage"/>
    <dc:date>2020-10-05T17:13:13.411578</dc:date>
    <dc:format>image/svg+xml</dc:format>
    <dc:creator>
     <cc:Agent>
      <dc:title>Matplotlib v3.3.2, https://matplotlib.org/</dc:title>
     </cc:Agent>
    </dc:creator>
   </cc:Work>
  </rdf:RDF>
 </metadata>
 <defs>
  <style type="text/css">*{stroke-linecap:butt;stroke-linejoin:round;}</style>
 </defs>
 <g id="figure_1">
  <g id="patch_1">
   <path d="M 0 471.149158 
L 605.803125 471.149158 
L 605.803125 0 
L 0 0 
z
" style="fill:#ffffff;"/>
  </g>
  <g id="axes_1">
   <g id="patch_2">
    <path d="M 40.603125 413.998125 
L 598.603125 413.998125 
L 598.603125 22.318125 
L 40.603125 22.318125 
z
" style="fill:#ffffff;"/>
   </g>
   <g id="matplotlib.axis_1">
    <g id="xtick_1">
     <g id="line2d_1">
      <path clip-path="url(#pe0f76501ed)" d="M 76.660261 413.998125 
L 76.660261 22.318125 
" style="fill:none;stroke:#b0b0b0;stroke-linecap:square;stroke-opacity:0.6;stroke-width:0.8;"/>
     </g>
     <g id="line2d_2">
      <defs>
       <path d="M 0 0 
L 0 3.5 
" id="m861ba378e7" style="stroke:#000000;stroke-width:0.8;"/>
      </defs>
      <g>
       <use style="stroke:#000000;stroke-width:0.8;" x="76.660261" xlink:href="#m861ba378e7" y="413.998125"/>
      </g>
     </g>
     <g id="text_1">
      <text style="font-family:DejaVu Sans;font-size:10px;font-stretch:normal;font-style:normal;font-weight:normal;" transform="translate(39.43544 448.469971)rotate(-30)">2020-05</text>
     </g>
    </g>
    <g id="xtick_2">
     <g id="line2d_3">
      <path clip-path="url(#pe0f76501ed)" d="M 193.959394 413.998125 
L 193.959394 22.318125 
" style="fill:none;stroke:#b0b0b0;stroke-linecap:square;stroke-opacity:0.6;stroke-width:0.8;"/>
     </g>
     <g id="line2d_4">
      <g>
       <use style="stroke:#000000;stroke-width:0.8;" x="193.959394" xlink:href="#m861ba378e7" y="413.998125"/>
      </g>
     </g>
     <g id="text_2">
      <text style="font-family:DejaVu Sans;font-size:10px;font-stretch:normal;font-style:normal;font-weight:normal;" transform="translate(156.734573 448.469971)rotate(-30)">2020-06</text>
     </g>
    </g>
    <g id="xtick_3">
     <g id="line2d_5">
      <path clip-path="url(#pe0f76501ed)" d="M 315.168498 413.998125 
L 315.168498 22.318125 
" style="fill:none;stroke:#b0b0b0;stroke-linecap:square;stroke-opacity:0.6;stroke-width:0.8;"/>
     </g>
     <g id="line2d_6">
      <g>
       <use style="stroke:#000000;stroke-width:0.8;" x="315.168498" xlink:href="#m861ba378e7" y="413.998125"/>
      </g>
     </g>
     <g id="text_3">
      <text style="font-family:DejaVu Sans;font-size:10px;font-stretch:normal;font-style:normal;font-weight:normal;" transform="translate(277.943677 448.469971)rotate(-30)">2020-07</text>
     </g>
    </g>
    <g id="xtick_4">
     <g id="line2d_7">
      <path clip-path="url(#pe0f76501ed)" d="M 436.377602 413.998125 
L 436.377602 22.318125 
" style="fill:none;stroke:#b0b0b0;stroke-linecap:square;stroke-opacity:0.6;stroke-width:0.8;"/>
     </g>
     <g id="line2d_8">
      <g>
       <use style="stroke:#000000;stroke-width:0.8;" x="436.377602" xlink:href="#m861ba378e7" y="413.998125"/>
      </g>
     </g>
     <g id="text_4">
      <text style="font-family:DejaVu Sans;font-size:10px;font-stretch:normal;font-style:normal;font-weight:normal;" transform="translate(399.152782 448.469971)rotate(-30)">2020-08</text>
     </g>
    </g>
    <g id="xtick_5">
     <g id="line2d_9">
      <path clip-path="url(#pe0f76501ed)" d="M 553.676736 413.998125 
L 553.676736 22.318125 
" style="fill:none;stroke:#b0b0b0;stroke-linecap:square;stroke-opacity:0.6;stroke-width:0.8;"/>
     </g>
     <g id="line2d_10">
      <g>
       <use style="stroke:#000000;stroke-width:0.8;" x="553.676736" xlink:href="#m861ba378e7" y="413.998125"/>
      </g>
     </g>
     <g id="text_5">
      <text style="font-family:DejaVu Sans;font-size:10px;font-stretch:normal;font-style:normal;font-weight:normal;" transform="translate(516.451915 448.469971)rotate(-30)">2020-09</text>
     </g>
    </g>
    <g id="text_6">
     <text style="font-family:DejaVu Sans;font-size:10px;font-stretch:normal;font-style:normal;font-weight:normal;text-anchor:middle;" transform="rotate(-0, 319.603125, 461.869471)" x="319.603125" y="461.869471">Date</text>
    </g>
   </g>
   <g id="matplotlib.axis_2">
    <g id="ytick_1">
     <g id="line2d_11">
      <path clip-path="url(#pe0f76501ed)" d="M 40.603125 402.912842 
L 598.603125 402.912842 
" style="fill:none;stroke:#b0b0b0;stroke-linecap:square;stroke-opacity:0.6;stroke-width:0.8;"/>
     </g>
     <g id="line2d_12">
      <defs>
       <path d="M 0 0 
L -3.5 0 
" id="m598542f274" style="stroke:#000000;stroke-width:0.8;"/>
      </defs>
      <g>
       <use style="stroke:#000000;stroke-width:0.8;" x="40.603125" xlink:href="#m598542f274" y="402.912842"/>
      </g>
     </g>
     <g id="text_7">
      <text style="font-family:DejaVu Sans;font-size:10px;font-stretch:normal;font-style:normal;font-weight:normal;text-anchor:end;" transform="rotate(-0, 33.603125, 406.712061)" x="33.603125" y="406.712061">0</text>
     </g>
    </g>
    <g id="ytick_2">
     <g id="line2d_13">
      <path clip-path="url(#pe0f76501ed)" d="M 40.603125 335.729309 
L 598.603125 335.729309 
" style="fill:none;stroke:#b0b0b0;stroke-linecap:square;stroke-opacity:0.6;stroke-width:0.8;"/>
     </g>
     <g id="line2d_14">
      <g>
       <use style="stroke:#000000;stroke-width:0.8;" x="40.603125" xlink:href="#m598542f274" y="335.729309"/>
      </g>
     </g>
     <g id="text_8">
      <text style="font-family:DejaVu Sans;font-size:10px;font-stretch:normal;font-style:normal;font-weight:normal;text-anchor:end;" transform="rotate(-0, 33.603125, 339.528527)" x="33.603125" y="339.528527">10</text>
     </g>
    </g>
    <g id="ytick_3">
     <g id="line2d_15">
      <path clip-path="url(#pe0f76501ed)" d="M 40.603125 268.545775 
L 598.603125 268.545775 
" style="fill:none;stroke:#b0b0b0;stroke-linecap:square;stroke-opacity:0.6;stroke-width:0.8;"/>
     </g>
     <g id="line2d_16">
      <g>
       <use style="stroke:#000000;stroke-width:0.8;" x="40.603125" xlink:href="#m598542f274" y="268.545775"/>
      </g>
     </g>
     <g id="text_9">
      <text style="font-family:DejaVu Sans;font-size:10px;font-stretch:normal;font-style:normal;font-weight:normal;text-anchor:end;" transform="rotate(-0, 33.603125, 272.344994)" x="33.603125" y="272.344994">20</text>
     </g>
    </g>
    <g id="ytick_4">
     <g id="line2d_17">
      <path clip-path="url(#pe0f76501ed)" d="M 40.603125 201.362242 
L 598.603125 201.362242 
" style="fill:none;stroke:#b0b0b0;stroke-linecap:square;stroke-opacity:0.6;stroke-width:0.8;"/>
     </g>
     <g id="line2d_18">
      <g>
       <use style="stroke:#000000;stroke-width:0.8;" x="40.603125" xlink:href="#m598542f274" y="201.362242"/>
      </g>
     </g>
     <g id="text_10">
      <text style="font-family:DejaVu Sans;font-size:10px;font-stretch:normal;font-style:normal;font-weight:normal;text-anchor:end;" transform="rotate(-0, 33.603125, 205.16146)" x="33.603125" y="205.16146">30</text>
     </g>
    </g>
    <g id="ytick_5">
     <g id="line2d_19">
      <path clip-path="url(#pe0f76501ed)" d="M 40.603125 134.178708 
L 598.603125 134.178708 
" style="fill:none;stroke:#b0b0b0;stroke-linecap:square;stroke-opacity:0.6;stroke-width:0.8;"/>
     </g>
     <g id="line2d_20">
      <g>
       <use style="stroke:#000000;stroke-width:0.8;" x="40.603125" xlink:href="#m598542f274" y="134.178708"/>
      </g>
     </g>
     <g id="text_11">
      <text style="font-family:DejaVu Sans;font-size:10px;font-stretch:normal;font-style:normal;font-weight:normal;text-anchor:end;" transform="rotate(-0, 33.603125, 137.977927)" x="33.603125" y="137.977927">40</text>
     </g>
    </g>
    <g id="ytick_6">
     <g id="line2d_21">
      <path clip-path="url(#pe0f76501ed)" d="M 40.603125 66.995175 
L 598.603125 66.995175 
" style="fill:none;stroke:#b0b0b0;stroke-linecap:square;stroke-opacity:0.6;stroke-width:0.8;"/>
     </g>
     <g id="line2d_22">
      <g>
       <use style="stroke:#000000;stroke-width:0.8;" x="40.603125" xlink:href="#m598542f274" y="66.995175"/>
      </g>
     </g>
     <g id="text_12">
      <text style="font-family:DejaVu Sans;font-size:10px;font-stretch:normal;font-style:normal;font-weight:normal;text-anchor:end;" transform="rotate(-0, 33.603125, 70.794393)" x="33.603125" y="70.794393">50</text>
     </g>
    </g>
    <g id="text_13">
     <text style="font-family:DejaVu Sans;font-size:10px;font-stretch:normal;font-style:normal;font-weight:normal;text-anchor:middle;" transform="rotate(-90, 14.798437, 218.158125)" x="14.798437" y="218.158125">Count</text>
    </g>
   </g>
   <g id="line2d_23">
    <path clip-path="url(#pe0f76501ed)" d="M 573.239489 362.602722 
L 405.593097 362.602722 
L 405.403074 369.321075 
L 339.871687 369.321075 
L 339.870329 376.039429 
L 247.559486 376.039429 
L 245.399363 382.757782 
L 144.129754 382.757782 
L 140.310382 389.476135 
L 70.029601 389.476135 
L 65.966761 396.194489 
L 65.966761 396.194489 
" style="fill:none;stroke:#1f77b4;stroke-linecap:square;stroke-opacity:0.8;stroke-width:1.5;"/>
   </g>
   <g id="line2d_24">
    <path clip-path="url(#pe0f76501ed)" d="M 573.239489 40.121761 
L 512.036765 40.121761 
L 510.956319 53.558468 
L 510.953785 60.276821 
L 498.560127 60.276821 
L 470.792498 66.995175 
L 470.813949 73.713528 
L 470.784172 73.713528 
L 433.290535 73.713528 
L 432.119445 87.150235 
L 432.08659 93.868588 
L 410.199124 93.868588 
L 410.198355 100.586941 
L 409.261048 100.586941 
L 408.017505 107.305295 
L 405.708495 140.897062 
L 405.593097 140.897062 
L 405.403074 147.615415 
L 401.135006 147.615415 
L 396.369502 154.333768 
L 393.407744 154.333768 
L 392.392283 167.770475 
L 385.848874 174.488828 
L 370.042046 174.488828 
L 370.040463 187.925535 
L 354.351251 187.925535 
L 349.731647 194.643888 
L 349.476956 201.362242 
L 345.580018 201.362242 
L 343.170001 214.798948 
L 342.895533 221.517302 
L 339.871687 228.235655 
L 339.870329 234.954008 
L 287.773992 234.954008 
L 287.011547 248.390715 
L 279.66759 248.390715 
L 272.81885 255.109068 
L 264.903014 255.109068 
L 259.841864 261.827422 
L 255.895327 261.827422 
L 253.038741 268.545775 
L 252.546102 275.264128 
L 251.901545 275.264128 
L 251.609248 281.982482 
L 247.559486 288.700835 
L 245.399363 308.855895 
L 193.119022 308.855895 
L 186.626026 315.574248 
L 163.746857 315.574248 
L 163.746088 322.292602 
L 150.433541 322.292602 
L 146.866507 329.010955 
L 144.129754 329.010955 
L 140.310382 342.447662 
L 120.672416 342.447662 
L 118.596375 349.166015 
L 106.822927 349.166015 
L 106.76206 355.884369 
L 105.053665 362.602722 
L 97.435738 362.602722 
L 96.608354 369.321075 
L 76.238491 376.039429 
L 70.029601 376.039429 
L 65.966761 382.757782 
L 65.966761 382.757782 
" style="fill:none;stroke:#ff7f0e;stroke-linecap:square;stroke-opacity:0.8;stroke-width:1.5;"/>
   </g>
   <g id="line2d_25">
    <path clip-path="url(#pe0f76501ed)" d="M 573.239489 167.770475 
L 510.956319 167.770475 
L 510.953785 174.488828 
L 498.560127 174.488828 
L 470.784172 181.207182 
L 433.290535 181.207182 
L 432.119445 187.925535 
L 432.08659 194.643888 
L 410.199124 194.643888 
L 410.198355 201.362242 
L 409.261048 201.362242 
L 408.017505 208.080595 
L 405.593097 214.798948 
L 401.135006 214.798948 
L 396.369502 221.517302 
L 393.407744 221.517302 
L 392.392283 228.235655 
L 385.848874 234.954008 
L 370.042046 234.954008 
L 370.040463 241.672362 
L 354.351251 241.672362 
L 349.731647 248.390715 
L 349.476956 255.109068 
L 345.580018 255.109068 
L 343.170001 261.827422 
L 342.895533 268.545775 
L 339.871687 275.264128 
L 339.870329 281.982482 
L 287.380415 281.982482 
L 287.011547 288.700835 
L 279.66759 288.700835 
L 272.81885 295.419188 
L 264.903014 295.419188 
L 259.841864 302.137542 
L 253.038741 302.137542 
L 252.546102 308.855895 
L 251.901545 308.855895 
L 251.609248 315.574248 
L 247.559486 315.574248 
L 245.399363 322.292602 
L 193.119022 322.292602 
L 186.626026 329.010955 
L 163.746857 329.010955 
L 163.746088 335.729309 
L 150.433541 335.729309 
L 146.866507 342.447662 
L 144.129754 342.447662 
L 140.310382 349.166015 
L 120.672416 349.166015 
L 118.596375 355.884369 
L 106.76206 355.884369 
L 105.053665 362.602722 
L 97.435738 362.602722 
L 96.608354 369.321075 
L 76.238491 376.039429 
L 70.029601 376.039429 
L 65.966761 382.757782 
L 65.966761 382.757782 
" style="fill:none;stroke:#2ca02c;stroke-linecap:square;stroke-opacity:0.8;stroke-width:1.5;"/>
   </g>
   <g id="patch_3">
    <path d="M 40.603125 413.998125 
L 40.603125 22.318125 
" style="fill:none;stroke:#000000;stroke-linecap:square;stroke-linejoin:miter;stroke-width:0.8;"/>
   </g>
   <g id="patch_4">
    <path d="M 598.603125 413.998125 
L 598.603125 22.318125 
" style="fill:none;stroke:#000000;stroke-linecap:square;stroke-linejoin:miter;stroke-width:0.8;"/>
   </g>
   <g id="patch_5">
    <path d="M 40.603125 413.998125 
L 598.603125 413.998125 
" style="fill:none;stroke:#000000;stroke-linecap:square;stroke-linejoin:miter;stroke-width:0.8;"/>
   </g>
   <g id="patch_6">
    <path d="M 40.603125 22.318125 
L 598.603125 22.318125 
" style="fill:none;stroke:#000000;stroke-linecap:square;stroke-linejoin:miter;stroke-width:0.8;"/>
   </g>
   <g id="text_14">
    <text style="font-family:DejaVu Sans;font-size:10px;font-stretch:normal;font-style:normal;font-weight:normal;text-anchor:start;" transform="rotate(-0, 573.239489, 362.602722)" x="573.239489" y="362.602722">6</text>
   </g>
   <g id="text_15">
    <text style="font-family:DejaVu Sans;font-size:10px;font-stretch:normal;font-style:normal;font-weight:normal;text-anchor:start;" transform="rotate(-0, 573.239489, 40.121761)" x="573.239489" y="40.121761">54</text>
   </g>
   <g id="text_16">
    <text style="font-family:DejaVu Sans;font-size:10px;font-stretch:normal;font-style:normal;font-weight:normal;text-anchor:start;" transform="rotate(-0, 573.239489, 167.770475)" x="573.239489" y="167.770475">35</text>
   </g>
   <g id="text_17">
    <text style="font-family:DejaVu Sans;font-size:12px;font-stretch:normal;font-style:normal;font-weight:normal;text-anchor:middle;" transform="rotate(-0, 319.603125, 16.318125)" x="319.603125" y="16.318125">Peers over time</text>
   </g>
   <g id="legend_1">
    <g id="patch_7">
     <path d="M 47.603125 74.3525 
L 178.88125 74.3525 
Q 180.88125 74.3525 180.88125 72.3525 
L 180.88125 29.318125 
Q 180.88125 27.318125 178.88125 27.318125 
L 47.603125 27.318125 
Q 45.603125 27.318125 45.603125 29.318125 
L 45.603125 72.3525 
Q 45.603125 74.3525 47.603125 74.3525 
z
" style="fill:#ffffff;opacity:0.8;stroke:#cccccc;stroke-linejoin:miter;"/>
    </g>
    <g id="line2d_26">
     <path d="M 49.603125 35.416562 
L 69.603125 35.416562 
" style="fill:none;stroke:#1f77b4;stroke-linecap:square;stroke-opacity:0.8;stroke-width:1.5;"/>
    </g>
    <g id="line2d_27"/>
    <g id="text_18">
     <text style="font-family:DejaVu Sans;font-size:10px;font-stretch:normal;font-style:normal;font-weight:normal;text-anchor:start;" transform="rotate(-0, 77.603125, 38.916562)" x="77.603125" y="38.916562">eBGP routers</text>
    </g>
    <g id="line2d_28">
     <path d="M 49.603125 50.094687 
L 69.603125 50.094687 
" style="fill:none;stroke:#ff7f0e;stroke-linecap:square;stroke-opacity:0.8;stroke-width:1.5;"/>
    </g>
    <g id="line2d_29"/>
    <g id="text_19">
     <text style="font-family:DejaVu Sans;font-size:10px;font-stretch:normal;font-style:normal;font-weight:normal;text-anchor:start;" transform="rotate(-0, 77.603125, 53.594687)" x="77.603125" y="53.594687">total eBGP peerings</text>
    </g>
    <g id="line2d_30">
     <path d="M 49.603125 64.772812 
L 69.603125 64.772812 
" style="fill:none;stroke:#2ca02c;stroke-linecap:square;stroke-opacity:0.8;stroke-width:1.5;"/>
    </g>
    <g id="line2d_31"/>
    <g id="text_20">
     <text style="font-family:DejaVu Sans;font-size:10px;font-stretch:normal;font-style:normal;font-weight:normal;text-anchor:start;" transform="rotate(-0, 77.603125, 68.272812)" x="77.603125" y="68.272812">unique eBGP peers</text>
    </g>
   </g>
  </g>
 </g>
 <defs>
  <clipPath id="pe0f76501ed">
   <rect height="391.68" width="558" x="40.603125" y="22.318125"/>
  </clipPath>
 </defs>
</svg>
