<?xml version="1.0" encoding="utf-8" standalone="no"?>
<!DOCTYPE svg PUBLIC "-//W3C//DTD SVG 1.1//EN"
  "http://www.w3.org/Graphics/SVG/1.1/DTD/svg11.dtd">
<!-- Created with matplotlib (https://matplotlib.org/) -->
<svg height="471.149158pt" version="1.1" viewBox="0 0 612.165625 471.149158" width="612.165625pt" xmlns="http://www.w3.org/2000/svg" xmlns:xlink="http://www.w3.org/1999/xlink">
 <metadata>
  <rdf:RDF xmlns:cc="http://creativecommons.org/ns#" xmlns:dc="http://purl.org/dc/elements/1.1/" xmlns:rdf="http://www.w3.org/1999/02/22-rdf-syntax-ns#">
   <cc:Work>
    <dc:type rdf:resource="http://purl.org/dc/dcmitype/StillImage"/>
    <dc:date>2021-02-26T11:54:52.042417</dc:date>
    <dc:format>image/svg+xml</dc:format>
    <dc:creator>
     <cc:Agent>
      <dc:title>Matplotlib v3.3.4, https://matplotlib.org/</dc:title>
     </cc:Agent>
    </dc:creator>
   </cc:Work>
  </rdf:RDF>
 </metadata>
 <defs>
  <style type="text/css">*{stroke-linecap:butt;stroke-linejoin:round;}</style>
 </defs>
 <g id="figure_1">
  <g id="patch_1">
   <path d="M 0 471.149158 
L 612.165625 471.149158 
L 612.165625 0 
L 0 0 
z
" style="fill:#ffffff;"/>
  </g>
  <g id="axes_1">
   <g id="patch_2">
    <path d="M 46.965625 413.998125 
L 604.965625 413.998125 
L 604.965625 22.318125 
L 46.965625 22.318125 
z
" style="fill:#ffffff;"/>
   </g>
   <g id="matplotlib.axis_1">
    <g id="xtick_1">
     <g id="line2d_1">
      <path clip-path="url(#p0b9fd06346)" d="M 77.400662 413.998125 
L 77.400662 22.318125 
" style="fill:none;stroke:#b0b0b0;stroke-linecap:square;stroke-opacity:0.6;stroke-width:0.8;"/>
     </g>
     <g id="line2d_2">
      <defs>
       <path d="M 0 0 
L 0 3.5 
" id="m53df574d23" style="stroke:#000000;stroke-width:0.8;"/>
      </defs>
      <g>
       <use style="stroke:#000000;stroke-width:0.8;" x="77.400662" xlink:href="#m53df574d23" y="413.998125"/>
      </g>
     </g>
     <g id="text_1">
      <text style="font-family:DejaVu Sans;font-size:10px;font-stretch:normal;font-style:normal;font-weight:normal;" transform="translate(40.175841 448.469971)rotate(-30)">2020-05</text>
     </g>
    </g>
    <g id="xtick_2">
     <g id="line2d_3">
      <path clip-path="url(#p0b9fd06346)" d="M 133.029873 413.998125 
L 133.029873 22.318125 
" style="fill:none;stroke:#b0b0b0;stroke-linecap:square;stroke-opacity:0.6;stroke-width:0.8;"/>
     </g>
     <g id="line2d_4">
      <g>
       <use style="stroke:#000000;stroke-width:0.8;" x="133.029873" xlink:href="#m53df574d23" y="413.998125"/>
      </g>
     </g>
     <g id="text_2">
      <text style="font-family:DejaVu Sans;font-size:10px;font-stretch:normal;font-style:normal;font-weight:normal;" transform="translate(95.805052 448.469971)rotate(-30)">2020-06</text>
     </g>
    </g>
    <g id="xtick_3">
     <g id="line2d_5">
      <path clip-path="url(#p0b9fd06346)" d="M 190.513391 413.998125 
L 190.513391 22.318125 
" style="fill:none;stroke:#b0b0b0;stroke-linecap:square;stroke-opacity:0.6;stroke-width:0.8;"/>
     </g>
     <g id="line2d_6">
      <g>
       <use style="stroke:#000000;stroke-width:0.8;" x="190.513391" xlink:href="#m53df574d23" y="413.998125"/>
      </g>
     </g>
     <g id="text_3">
      <text style="font-family:DejaVu Sans;font-size:10px;font-stretch:normal;font-style:normal;font-weight:normal;" transform="translate(153.28857 448.469971)rotate(-30)">2020-07</text>
     </g>
    </g>
    <g id="xtick_4">
     <g id="line2d_7">
      <path clip-path="url(#p0b9fd06346)" d="M 247.996908 413.998125 
L 247.996908 22.318125 
" style="fill:none;stroke:#b0b0b0;stroke-linecap:square;stroke-opacity:0.6;stroke-width:0.8;"/>
     </g>
     <g id="line2d_8">
      <g>
       <use style="stroke:#000000;stroke-width:0.8;" x="247.996908" xlink:href="#m53df574d23" y="413.998125"/>
      </g>
     </g>
     <g id="text_4">
      <text style="font-family:DejaVu Sans;font-size:10px;font-stretch:normal;font-style:normal;font-weight:normal;" transform="translate(210.772087 448.469971)rotate(-30)">2020-08</text>
     </g>
    </g>
    <g id="xtick_5">
     <g id="line2d_9">
      <path clip-path="url(#p0b9fd06346)" d="M 303.626119 413.998125 
L 303.626119 22.318125 
" style="fill:none;stroke:#b0b0b0;stroke-linecap:square;stroke-opacity:0.6;stroke-width:0.8;"/>
     </g>
     <g id="line2d_10">
      <g>
       <use style="stroke:#000000;stroke-width:0.8;" x="303.626119" xlink:href="#m53df574d23" y="413.998125"/>
      </g>
     </g>
     <g id="text_5">
      <text style="font-family:DejaVu Sans;font-size:10px;font-stretch:normal;font-style:normal;font-weight:normal;" transform="translate(266.401298 448.469971)rotate(-30)">2020-09</text>
     </g>
    </g>
    <g id="xtick_6">
     <g id="line2d_11">
      <path clip-path="url(#p0b9fd06346)" d="M 361.109636 413.998125 
L 361.109636 22.318125 
" style="fill:none;stroke:#b0b0b0;stroke-linecap:square;stroke-opacity:0.6;stroke-width:0.8;"/>
     </g>
     <g id="line2d_12">
      <g>
       <use style="stroke:#000000;stroke-width:0.8;" x="361.109636" xlink:href="#m53df574d23" y="413.998125"/>
      </g>
     </g>
     <g id="text_6">
      <text style="font-family:DejaVu Sans;font-size:10px;font-stretch:normal;font-style:normal;font-weight:normal;" transform="translate(323.884816 448.469971)rotate(-30)">2020-10</text>
     </g>
    </g>
    <g id="xtick_7">
     <g id="line2d_13">
      <path clip-path="url(#p0b9fd06346)" d="M 416.738847 413.998125 
L 416.738847 22.318125 
" style="fill:none;stroke:#b0b0b0;stroke-linecap:square;stroke-opacity:0.6;stroke-width:0.8;"/>
     </g>
     <g id="line2d_14">
      <g>
       <use style="stroke:#000000;stroke-width:0.8;" x="416.738847" xlink:href="#m53df574d23" y="413.998125"/>
      </g>
     </g>
     <g id="text_7">
      <text style="font-family:DejaVu Sans;font-size:10px;font-stretch:normal;font-style:normal;font-weight:normal;" transform="translate(379.514026 448.469971)rotate(-30)">2020-11</text>
     </g>
    </g>
    <g id="xtick_8">
     <g id="line2d_15">
      <path clip-path="url(#p0b9fd06346)" d="M 474.222365 413.998125 
L 474.222365 22.318125 
" style="fill:none;stroke:#b0b0b0;stroke-linecap:square;stroke-opacity:0.6;stroke-width:0.8;"/>
     </g>
     <g id="line2d_16">
      <g>
       <use style="stroke:#000000;stroke-width:0.8;" x="474.222365" xlink:href="#m53df574d23" y="413.998125"/>
      </g>
     </g>
     <g id="text_8">
      <text style="font-family:DejaVu Sans;font-size:10px;font-stretch:normal;font-style:normal;font-weight:normal;" transform="translate(436.997544 448.469971)rotate(-30)">2020-12</text>
     </g>
    </g>
    <g id="xtick_9">
     <g id="line2d_17">
      <path clip-path="url(#p0b9fd06346)" d="M 531.705882 413.998125 
L 531.705882 22.318125 
" style="fill:none;stroke:#b0b0b0;stroke-linecap:square;stroke-opacity:0.6;stroke-width:0.8;"/>
     </g>
     <g id="line2d_18">
      <g>
       <use style="stroke:#000000;stroke-width:0.8;" x="531.705882" xlink:href="#m53df574d23" y="413.998125"/>
      </g>
     </g>
     <g id="text_9">
      <text style="font-family:DejaVu Sans;font-size:10px;font-stretch:normal;font-style:normal;font-weight:normal;" transform="translate(494.481061 448.469971)rotate(-30)">2021-01</text>
     </g>
    </g>
    <g id="xtick_10">
     <g id="line2d_19">
      <path clip-path="url(#p0b9fd06346)" d="M 583.626479 413.998125 
L 583.626479 22.318125 
" style="fill:none;stroke:#b0b0b0;stroke-linecap:square;stroke-opacity:0.6;stroke-width:0.8;"/>
     </g>
     <g id="line2d_20">
      <g>
       <use style="stroke:#000000;stroke-width:0.8;" x="583.626479" xlink:href="#m53df574d23" y="413.998125"/>
      </g>
     </g>
     <g id="text_10">
      <text style="font-family:DejaVu Sans;font-size:10px;font-stretch:normal;font-style:normal;font-weight:normal;" transform="translate(546.401658 448.469971)rotate(-30)">2021-02</text>
     </g>
    </g>
    <g id="text_11">
     <text style="font-family:DejaVu Sans;font-size:10px;font-stretch:normal;font-style:normal;font-weight:normal;text-anchor:middle;" transform="rotate(-0, 325.965625, 461.869471)" x="325.965625" y="461.869471">Date</text>
    </g>
   </g>
   <g id="matplotlib.axis_2">
    <g id="ytick_1">
     <g id="line2d_21">
      <path clip-path="url(#p0b9fd06346)" d="M 46.965625 399.585657 
L 604.965625 399.585657 
" style="fill:none;stroke:#b0b0b0;stroke-linecap:square;stroke-opacity:0.6;stroke-width:0.8;"/>
     </g>
     <g id="line2d_22">
      <defs>
       <path d="M 0 0 
L -3.5 0 
" id="mb22789eb89" style="stroke:#000000;stroke-width:0.8;"/>
      </defs>
      <g>
       <use style="stroke:#000000;stroke-width:0.8;" x="46.965625" xlink:href="#mb22789eb89" y="399.585657"/>
      </g>
     </g>
     <g id="text_12">
      <text style="font-family:DejaVu Sans;font-size:10px;font-stretch:normal;font-style:normal;font-weight:normal;text-anchor:end;" transform="rotate(-0, 39.965625, 403.384876)" x="39.965625" y="403.384876">0</text>
     </g>
    </g>
    <g id="ytick_2">
     <g id="line2d_23">
      <path clip-path="url(#p0b9fd06346)" d="M 46.965625 331.762281 
L 604.965625 331.762281 
" style="fill:none;stroke:#b0b0b0;stroke-linecap:square;stroke-opacity:0.6;stroke-width:0.8;"/>
     </g>
     <g id="line2d_24">
      <g>
       <use style="stroke:#000000;stroke-width:0.8;" x="46.965625" xlink:href="#mb22789eb89" y="331.762281"/>
      </g>
     </g>
     <g id="text_13">
      <text style="font-family:DejaVu Sans;font-size:10px;font-stretch:normal;font-style:normal;font-weight:normal;text-anchor:end;" transform="rotate(-0, 39.965625, 335.5615)" x="39.965625" y="335.5615">20</text>
     </g>
    </g>
    <g id="ytick_3">
     <g id="line2d_25">
      <path clip-path="url(#p0b9fd06346)" d="M 46.965625 263.938904 
L 604.965625 263.938904 
" style="fill:none;stroke:#b0b0b0;stroke-linecap:square;stroke-opacity:0.6;stroke-width:0.8;"/>
     </g>
     <g id="line2d_26">
      <g>
       <use style="stroke:#000000;stroke-width:0.8;" x="46.965625" xlink:href="#mb22789eb89" y="263.938904"/>
      </g>
     </g>
     <g id="text_14">
      <text style="font-family:DejaVu Sans;font-size:10px;font-stretch:normal;font-style:normal;font-weight:normal;text-anchor:end;" transform="rotate(-0, 39.965625, 267.738123)" x="39.965625" y="267.738123">40</text>
     </g>
    </g>
    <g id="ytick_4">
     <g id="line2d_27">
      <path clip-path="url(#p0b9fd06346)" d="M 46.965625 196.115528 
L 604.965625 196.115528 
" style="fill:none;stroke:#b0b0b0;stroke-linecap:square;stroke-opacity:0.6;stroke-width:0.8;"/>
     </g>
     <g id="line2d_28">
      <g>
       <use style="stroke:#000000;stroke-width:0.8;" x="46.965625" xlink:href="#mb22789eb89" y="196.115528"/>
      </g>
     </g>
     <g id="text_15">
      <text style="font-family:DejaVu Sans;font-size:10px;font-stretch:normal;font-style:normal;font-weight:normal;text-anchor:end;" transform="rotate(-0, 39.965625, 199.914746)" x="39.965625" y="199.914746">60</text>
     </g>
    </g>
    <g id="ytick_5">
     <g id="line2d_29">
      <path clip-path="url(#p0b9fd06346)" d="M 46.965625 128.292151 
L 604.965625 128.292151 
" style="fill:none;stroke:#b0b0b0;stroke-linecap:square;stroke-opacity:0.6;stroke-width:0.8;"/>
     </g>
     <g id="line2d_30">
      <g>
       <use style="stroke:#000000;stroke-width:0.8;" x="46.965625" xlink:href="#mb22789eb89" y="128.292151"/>
      </g>
     </g>
     <g id="text_16">
      <text style="font-family:DejaVu Sans;font-size:10px;font-stretch:normal;font-style:normal;font-weight:normal;text-anchor:end;" transform="rotate(-0, 39.965625, 132.09137)" x="39.965625" y="132.09137">80</text>
     </g>
    </g>
    <g id="ytick_6">
     <g id="line2d_31">
      <path clip-path="url(#p0b9fd06346)" d="M 46.965625 60.468774 
L 604.965625 60.468774 
" style="fill:none;stroke:#b0b0b0;stroke-linecap:square;stroke-opacity:0.6;stroke-width:0.8;"/>
     </g>
     <g id="line2d_32">
      <g>
       <use style="stroke:#000000;stroke-width:0.8;" x="46.965625" xlink:href="#mb22789eb89" y="60.468774"/>
      </g>
     </g>
     <g id="text_17">
      <text style="font-family:DejaVu Sans;font-size:10px;font-stretch:normal;font-style:normal;font-weight:normal;text-anchor:end;" transform="rotate(-0, 39.965625, 64.267993)" x="39.965625" y="64.267993">100</text>
     </g>
    </g>
    <g id="text_18">
     <text style="font-family:DejaVu Sans;font-size:10px;font-stretch:normal;font-style:normal;font-weight:normal;text-anchor:middle;" transform="rotate(-90, 14.798437, 218.158125)" x="14.798437" y="218.158125">Count</text>
    </g>
   </g>
   <g id="line2d_33">
    <path clip-path="url(#p0b9fd06346)" d="M 579.601989 358.891631 
L 570.303454 358.891631 
L 568.421462 362.2828 
L 523.104194 362.2828 
L 523.044036 358.891631 
L 511.774657 358.891631 
L 511.728857 362.2828 
L 496.5027 362.2828 
L 495.256344 365.673969 
L 474.795612 365.673969 
L 474.794667 369.065138 
L 467.610558 369.065138 
L 467.122536 372.456307 
L 452.643403 372.456307 
L 452.629131 375.847476 
L 422.352676 375.847476 
L 418.216348 379.238644 
L 233.397331 379.238644 
L 233.307212 382.629813 
L 202.228898 382.629813 
L 202.169706 386.020982 
L 158.449761 386.020982 
L 157.425321 389.412151 
L 109.398125 389.412151 
L 107.586785 392.80332 
L 74.256067 392.80332 
L 72.329261 396.194489 
L 72.329261 396.194489 
" style="fill:none;stroke:#1f77b4;stroke-linecap:square;stroke-opacity:0.8;stroke-width:1.5;"/>
   </g>
   <g id="line2d_34">
    <path clip-path="url(#p0b9fd06346)" d="M 579.601989 40.121761 
L 577.900426 40.121761 
L 577.646038 43.51293 
L 576.410585 46.904099 
L 570.303454 46.904099 
L 568.421462 53.686437 
L 563.343794 53.686437 
L 557.812379 50.295268 
L 557.723012 53.686437 
L 556.481677 53.686437 
L 554.608742 57.077606 
L 550.741975 40.121761 
L 539.806757 40.121761 
L 537.38753 43.51293 
L 537.374052 46.904099 
L 530.599973 46.904099 
L 530.590057 50.295268 
L 528.616315 50.295268 
L 527.929899 53.686437 
L 526.794523 53.686437 
L 526.761128 63.859943 
L 524.992346 63.859943 
L 524.989492 67.251112 
L 523.104194 67.251112 
L 523.057235 60.468774 
L 523.044036 63.859943 
L 513.584624 63.859943 
L 511.774657 67.251112 
L 511.728857 70.642281 
L 502.460048 70.642281 
L 498.08339 57.077606 
L 496.5027 67.251112 
L 495.256344 80.815787 
L 485.361148 80.815787 
L 484.153316 84.206956 
L 481.787486 84.206956 
L 481.786886 90.989294 
L 480.592274 90.989294 
L 480.493335 94.380463 
L 476.800624 94.380463 
L 476.684708 101.1628 
L 476.430385 101.1628 
L 476.294188 104.553969 
L 476.294188 104.553969 
L 475.982175 104.553969 
L 475.981789 111.336307 
L 474.795612 114.727476 
L 474.794667 118.118644 
L 470.81044 118.118644 
L 470.78975 121.509813 
L 470.220667 121.509813 
L 470.188667 135.074489 
L 468.720503 135.074489 
L 468.58525 138.465657 
L 468.417268 138.465657 
L 467.610558 141.856826 
L 467.122536 148.639164 
L 466.730599 148.639164 
L 466.670635 152.030333 
L 466.583285 158.81267 
L 465.014357 162.203839 
L 452.643403 162.203839 
L 452.629131 168.986177 
L 439.030322 168.986177 
L 438.941963 175.768515 
L 432.24609 175.768515 
L 432.238858 158.81267 
L 422.352676 158.81267 
L 418.216348 162.203839 
L 405.610773 165.595008 
L 396.668313 165.595008 
L 391.063648 168.986177 
L 385.25134 168.986177 
L 383.913449 172.377346 
L 380.301242 175.768515 
L 379.533615 179.159683 
L 379.532348 185.942021 
L 374.28423 185.942021 
L 369.954681 192.724359 
L 362.631112 192.724359 
L 362.629996 196.115528 
L 344.678738 196.115528 
L 336.572089 199.506696 
L 329.448739 199.506696 
L 329.300824 202.897865 
L 326.400507 206.289034 
L 322.555267 206.289034 
L 321.938452 209.680203 
L 321.937551 202.897865 
L 321.863314 206.289034 
L 321.037847 209.680203 
L 321.035293 216.462541 
L 283.878328 216.462541 
L 283.365926 223.244878 
L 283.364724 226.636047 
L 277.487021 226.636047 
L 264.318201 230.027216 
L 264.328374 233.418385 
L 264.314252 233.418385 
L 246.532864 233.418385 
L 245.977473 240.200722 
L 245.961892 243.591891 
L 235.581743 243.591891 
L 235.581378 246.98306 
L 235.13686 246.98306 
L 234.547109 250.374229 
L 233.307212 270.721242 
L 231.283077 270.721242 
L 229.023033 274.112411 
L 227.618417 274.112411 
L 227.136834 280.894748 
L 224.033617 284.285917 
L 216.537216 284.285917 
L 216.536465 291.068255 
L 209.095843 291.068255 
L 206.904992 294.459424 
L 206.784205 297.850593 
L 204.936079 297.850593 
L 203.793126 304.63293 
L 203.66296 308.024099 
L 202.228898 311.415268 
L 202.169706 314.806437 
L 177.521523 314.806437 
L 177.159933 321.588774 
L 173.677055 321.588774 
L 170.429035 324.979943 
L 166.674943 324.979943 
L 164.274689 328.371112 
L 162.40304 328.371112 
L 161.048302 331.762281 
L 160.814668 335.15345 
L 160.508986 335.15345 
L 160.370364 338.544619 
L 158.449761 341.935787 
L 157.425321 352.109294 
L 132.631326 352.109294 
L 129.552017 355.500463 
L 118.701552 355.500463 
L 118.701188 358.891631 
L 112.387701 358.891631 
L 110.696033 362.2828 
L 109.398125 362.2828 
L 107.586785 369.065138 
L 98.273463 369.065138 
L 97.288899 372.456307 
L 91.705332 372.456307 
L 91.676466 375.847476 
L 90.866258 379.238644 
L 87.25345 379.238644 
L 86.861062 382.629813 
L 77.200638 386.020982 
L 74.256067 386.020982 
L 72.329261 389.412151 
L 72.329261 389.412151 
" style="fill:none;stroke:#ff7f0e;stroke-linecap:square;stroke-opacity:0.8;stroke-width:1.5;"/>
   </g>
   <g id="line2d_35">
    <path clip-path="url(#p0b9fd06346)" d="M 579.601989 189.33319 
L 577.900426 189.33319 
L 577.646038 192.724359 
L 576.410585 196.115528 
L 570.303454 196.115528 
L 568.421462 192.724359 
L 557.812379 192.724359 
L 557.723012 196.115528 
L 556.481677 196.115528 
L 554.608742 199.506696 
L 550.741975 189.33319 
L 539.806757 189.33319 
L 537.374052 192.724359 
L 528.616315 192.724359 
L 527.929899 196.115528 
L 526.794523 196.115528 
L 526.761128 199.506696 
L 524.992346 199.506696 
L 524.989492 202.897865 
L 511.774657 202.897865 
L 511.728857 206.289034 
L 481.787486 206.289034 
L 481.786886 209.680203 
L 476.430385 209.680203 
L 476.294188 213.071372 
L 476.294188 213.071372 
L 475.981789 213.071372 
L 474.794667 216.462541 
L 470.81044 216.462541 
L 470.78975 219.853709 
L 470.220667 219.853709 
L 470.188667 223.244878 
L 468.720503 223.244878 
L 468.58525 226.636047 
L 466.670635 226.636047 
L 466.583285 230.027216 
L 465.014357 233.418385 
L 452.629625 233.418385 
L 452.629131 236.809554 
L 439.030322 236.809554 
L 438.941963 240.200722 
L 432.24609 240.200722 
L 432.238858 230.027216 
L 422.352676 230.027216 
L 418.216348 233.418385 
L 396.668313 233.418385 
L 391.063648 236.809554 
L 385.25134 236.809554 
L 383.913449 240.200722 
L 380.301242 243.591891 
L 379.533615 243.591891 
L 379.532348 250.374229 
L 374.28423 250.374229 
L 369.954681 253.765398 
L 362.631112 253.765398 
L 362.629996 257.156567 
L 344.678738 257.156567 
L 336.572089 260.547735 
L 329.448739 260.547735 
L 329.300824 263.938904 
L 322.555267 263.938904 
L 321.937551 267.330073 
L 321.863314 270.721242 
L 321.037847 274.112411 
L 321.035293 280.894748 
L 283.365926 280.894748 
L 283.364724 284.285917 
L 277.487021 284.285917 
L 264.314252 287.677086 
L 246.532864 287.677086 
L 245.977473 291.068255 
L 245.961892 294.459424 
L 235.581743 294.459424 
L 235.581378 297.850593 
L 235.13686 297.850593 
L 234.547109 301.241761 
L 233.397331 304.63293 
L 231.283077 304.63293 
L 229.023033 308.024099 
L 227.618417 308.024099 
L 227.136834 311.415268 
L 224.033617 314.806437 
L 216.537216 314.806437 
L 216.536465 318.197606 
L 209.095843 318.197606 
L 206.904992 321.588774 
L 206.784205 324.979943 
L 204.936079 324.979943 
L 203.793126 328.371112 
L 203.66296 331.762281 
L 202.228898 335.15345 
L 202.169706 338.544619 
L 177.334869 338.544619 
L 177.159933 341.935787 
L 173.677055 341.935787 
L 170.429035 345.326956 
L 166.674943 345.326956 
L 164.274689 348.718125 
L 161.048302 348.718125 
L 160.814668 352.109294 
L 160.508986 352.109294 
L 160.370364 355.500463 
L 158.449761 355.500463 
L 157.425321 358.891631 
L 132.631326 358.891631 
L 129.552017 362.2828 
L 118.701552 362.2828 
L 118.701188 365.673969 
L 112.387701 365.673969 
L 110.696033 369.065138 
L 109.398125 369.065138 
L 107.586785 372.456307 
L 98.273463 372.456307 
L 97.288899 375.847476 
L 91.676466 375.847476 
L 90.866258 379.238644 
L 87.25345 379.238644 
L 86.861062 382.629813 
L 77.200638 386.020982 
L 74.256067 386.020982 
L 72.329261 389.412151 
L 72.329261 389.412151 
" style="fill:none;stroke:#2ca02c;stroke-linecap:square;stroke-opacity:0.8;stroke-width:1.5;"/>
   </g>
   <g id="patch_3">
    <path d="M 46.965625 413.998125 
L 46.965625 22.318125 
" style="fill:none;stroke:#000000;stroke-linecap:square;stroke-linejoin:miter;stroke-width:0.8;"/>
   </g>
   <g id="patch_4">
    <path d="M 604.965625 413.998125 
L 604.965625 22.318125 
" style="fill:none;stroke:#000000;stroke-linecap:square;stroke-linejoin:miter;stroke-width:0.8;"/>
   </g>
   <g id="patch_5">
    <path d="M 46.965625 413.998125 
L 604.965625 413.998125 
" style="fill:none;stroke:#000000;stroke-linecap:square;stroke-linejoin:miter;stroke-width:0.8;"/>
   </g>
   <g id="patch_6">
    <path d="M 46.965625 22.318125 
L 604.965625 22.318125 
" style="fill:none;stroke:#000000;stroke-linecap:square;stroke-linejoin:miter;stroke-width:0.8;"/>
   </g>
   <g id="text_19">
    <text style="font-family:DejaVu Sans;font-size:10px;font-stretch:normal;font-style:normal;font-weight:normal;text-anchor:start;" transform="rotate(-0, 579.601989, 358.891631)" x="579.601989" y="358.891631">12</text>
   </g>
   <g id="text_20">
    <text style="font-family:DejaVu Sans;font-size:10px;font-stretch:normal;font-style:normal;font-weight:normal;text-anchor:start;" transform="rotate(-0, 579.601989, 40.121761)" x="579.601989" y="40.121761">106</text>
   </g>
   <g id="text_21">
    <text style="font-family:DejaVu Sans;font-size:10px;font-stretch:normal;font-style:normal;font-weight:normal;text-anchor:start;" transform="rotate(-0, 579.601989, 189.33319)" x="579.601989" y="189.33319">62</text>
   </g>
   <g id="text_22">
    <text style="font-family:DejaVu Sans;font-size:12px;font-stretch:normal;font-style:normal;font-weight:normal;text-anchor:middle;" transform="rotate(-0, 325.965625, 16.318125)" x="325.965625" y="16.318125">Peers over time</text>
   </g>
   <g id="legend_1">
    <g id="patch_7">
     <path d="M 53.965625 74.3525 
L 185.24375 74.3525 
Q 187.24375 74.3525 187.24375 72.3525 
L 187.24375 29.318125 
Q 187.24375 27.318125 185.24375 27.318125 
L 53.965625 27.318125 
Q 51.965625 27.318125 51.965625 29.318125 
L 51.965625 72.3525 
Q 51.965625 74.3525 53.965625 74.3525 
z
" style="fill:#ffffff;opacity:0.8;stroke:#cccccc;stroke-linejoin:miter;"/>
    </g>
    <g id="line2d_36">
     <path d="M 55.965625 35.416562 
L 75.965625 35.416562 
" style="fill:none;stroke:#1f77b4;stroke-linecap:square;stroke-opacity:0.8;stroke-width:1.5;"/>
    </g>
    <g id="line2d_37"/>
    <g id="text_23">
     <text style="font-family:DejaVu Sans;font-size:10px;font-stretch:normal;font-style:normal;font-weight:normal;text-anchor:start;" transform="rotate(-0, 83.965625, 38.916562)" x="83.965625" y="38.916562">eBGP routers</text>
    </g>
    <g id="line2d_38">
     <path d="M 55.965625 50.094687 
L 75.965625 50.094687 
" style="fill:none;stroke:#ff7f0e;stroke-linecap:square;stroke-opacity:0.8;stroke-width:1.5;"/>
    </g>
    <g id="line2d_39"/>
    <g id="text_24">
     <text style="font-family:DejaVu Sans;font-size:10px;font-stretch:normal;font-style:normal;font-weight:normal;text-anchor:start;" transform="rotate(-0, 83.965625, 53.594687)" x="83.965625" y="53.594687">total eBGP peerings</text>
    </g>
    <g id="line2d_40">
     <path d="M 55.965625 64.772812 
L 75.965625 64.772812 
" style="fill:none;stroke:#2ca02c;stroke-linecap:square;stroke-opacity:0.8;stroke-width:1.5;"/>
    </g>
    <g id="line2d_41"/>
    <g id="text_25">
     <text style="font-family:DejaVu Sans;font-size:10px;font-stretch:normal;font-style:normal;font-weight:normal;text-anchor:start;" transform="rotate(-0, 83.965625, 68.272812)" x="83.965625" y="68.272812">unique eBGP peers</text>
    </g>
   </g>
  </g>
 </g>
 <defs>
  <clipPath id="p0b9fd06346">
   <rect height="391.68" width="558" x="46.965625" y="22.318125"/>
  </clipPath>
 </defs>
</svg>
