<?xml version="1.0" encoding="utf-8" standalone="no"?>
<!DOCTYPE svg PUBLIC "-//W3C//DTD SVG 1.1//EN"
  "http://www.w3.org/Graphics/SVG/1.1/DTD/svg11.dtd">
<svg xmlns:xlink="http://www.w3.org/1999/xlink" width="612.165625pt" height="503.394375pt" viewBox="0 0 612.165625 503.394375" xmlns="http://www.w3.org/2000/svg" version="1.1">
 <metadata>
  <rdf:RDF xmlns:dc="http://purl.org/dc/elements/1.1/" xmlns:cc="http://creativecommons.org/ns#" xmlns:rdf="http://www.w3.org/1999/02/22-rdf-syntax-ns#">
   <cc:Work>
    <dc:type rdf:resource="http://purl.org/dc/dcmitype/StillImage"/>
    <dc:format>image/svg+xml</dc:format>
    <dc:creator>
     <cc:Agent>
      <dc:title>Matplotlib v3.8.3, https://matplotlib.org/</dc:title>
     </cc:Agent>
    </dc:creator>
   </cc:Work>
  </rdf:RDF>
 </metadata>
 <defs>
  <style type="text/css">*{stroke-linejoin: round; stroke-linecap: butt}</style>
 </defs>
 <g id="figure_1">
  <g id="patch_1">
   <path d="M 0 503.394375 
L 612.165625 503.394375 
L 612.165625 0 
L 0 0 
z
" style="fill: #ffffff"/>
  </g>
  <g id="axes_1">
   <g id="patch_2">
    <path d="M 46.965625 465.838125 
L 604.965625 465.838125 
L 604.965625 22.318125 
L 46.965625 22.318125 
z
" style="fill: #ffffff"/>
   </g>
   <g id="matplotlib.axis_1">
    <g id="xtick_1">
     <g id="line2d_1">
      <path d="M 130.945696 465.838125 
L 130.945696 22.318125 
" clip-path="url(#pda0fe21df8)" style="fill: none; stroke: #b0b0b0; stroke-opacity: 0.6; stroke-width: 0.8; stroke-linecap: square"/>
     </g>
     <g id="line2d_2">
      <defs>
       <path id="m4989ca4dfe" d="M 0 0 
L 0 3.5 
" style="stroke: #000000; stroke-width: 0.8"/>
      </defs>
      <g>
       <use xlink:href="#m4989ca4dfe" x="130.945696" y="465.838125" style="stroke: #000000; stroke-width: 0.8"/>
      </g>
     </g>
     <g id="text_1">
      <!-- 2021 -->
      <g transform="translate(118.220696 480.436562) scale(0.1 -0.1)">
       <defs>
        <path id="DejaVuSans-32" d="M 1228 531 
L 3431 531 
L 3431 0 
L 469 0 
L 469 531 
Q 828 903 1448 1529 
Q 2069 2156 2228 2338 
Q 2531 2678 2651 2914 
Q 2772 3150 2772 3378 
Q 2772 3750 2511 3984 
Q 2250 4219 1831 4219 
Q 1534 4219 1204 4116 
Q 875 4013 500 3803 
L 500 4441 
Q 881 4594 1212 4672 
Q 1544 4750 1819 4750 
Q 2544 4750 2975 4387 
Q 3406 4025 3406 3419 
Q 3406 3131 3298 2873 
Q 3191 2616 2906 2266 
Q 2828 2175 2409 1742 
Q 1991 1309 1228 531 
z
" transform="scale(0.015625)"/>
        <path id="DejaVuSans-30" d="M 2034 4250 
Q 1547 4250 1301 3770 
Q 1056 3291 1056 2328 
Q 1056 1369 1301 889 
Q 1547 409 2034 409 
Q 2525 409 2770 889 
Q 3016 1369 3016 2328 
Q 3016 3291 2770 3770 
Q 2525 4250 2034 4250 
z
M 2034 4750 
Q 2819 4750 3233 4129 
Q 3647 3509 3647 2328 
Q 3647 1150 3233 529 
Q 2819 -91 2034 -91 
Q 1250 -91 836 529 
Q 422 1150 422 2328 
Q 422 3509 836 4129 
Q 1250 4750 2034 4750 
z
" transform="scale(0.015625)"/>
        <path id="DejaVuSans-31" d="M 794 531 
L 1825 531 
L 1825 4091 
L 703 3866 
L 703 4441 
L 1819 4666 
L 2450 4666 
L 2450 531 
L 3481 531 
L 3481 0 
L 794 0 
L 794 531 
z
" transform="scale(0.015625)"/>
       </defs>
       <use xlink:href="#DejaVuSans-32"/>
       <use xlink:href="#DejaVuSans-30" x="63.623047"/>
       <use xlink:href="#DejaVuSans-32" x="127.246094"/>
       <use xlink:href="#DejaVuSans-31" x="190.869141"/>
      </g>
     </g>
    </g>
    <g id="xtick_2">
     <g id="line2d_3">
      <path d="M 237.428985 465.838125 
L 237.428985 22.318125 
" clip-path="url(#pda0fe21df8)" style="fill: none; stroke: #b0b0b0; stroke-opacity: 0.6; stroke-width: 0.8; stroke-linecap: square"/>
     </g>
     <g id="line2d_4">
      <g>
       <use xlink:href="#m4989ca4dfe" x="237.428985" y="465.838125" style="stroke: #000000; stroke-width: 0.8"/>
      </g>
     </g>
     <g id="text_2">
      <!-- 2022 -->
      <g transform="translate(224.703985 480.436562) scale(0.1 -0.1)">
       <use xlink:href="#DejaVuSans-32"/>
       <use xlink:href="#DejaVuSans-30" x="63.623047"/>
       <use xlink:href="#DejaVuSans-32" x="127.246094"/>
       <use xlink:href="#DejaVuSans-32" x="190.869141"/>
      </g>
     </g>
    </g>
    <g id="xtick_3">
     <g id="line2d_5">
      <path d="M 343.912275 465.838125 
L 343.912275 22.318125 
" clip-path="url(#pda0fe21df8)" style="fill: none; stroke: #b0b0b0; stroke-opacity: 0.6; stroke-width: 0.8; stroke-linecap: square"/>
     </g>
     <g id="line2d_6">
      <g>
       <use xlink:href="#m4989ca4dfe" x="343.912275" y="465.838125" style="stroke: #000000; stroke-width: 0.8"/>
      </g>
     </g>
     <g id="text_3">
      <!-- 2023 -->
      <g transform="translate(331.187275 480.436562) scale(0.1 -0.1)">
       <defs>
        <path id="DejaVuSans-33" d="M 2597 2516 
Q 3050 2419 3304 2112 
Q 3559 1806 3559 1356 
Q 3559 666 3084 287 
Q 2609 -91 1734 -91 
Q 1441 -91 1130 -33 
Q 819 25 488 141 
L 488 750 
Q 750 597 1062 519 
Q 1375 441 1716 441 
Q 2309 441 2620 675 
Q 2931 909 2931 1356 
Q 2931 1769 2642 2001 
Q 2353 2234 1838 2234 
L 1294 2234 
L 1294 2753 
L 1863 2753 
Q 2328 2753 2575 2939 
Q 2822 3125 2822 3475 
Q 2822 3834 2567 4026 
Q 2313 4219 1838 4219 
Q 1578 4219 1281 4162 
Q 984 4106 628 3988 
L 628 4550 
Q 988 4650 1302 4700 
Q 1616 4750 1894 4750 
Q 2613 4750 3031 4423 
Q 3450 4097 3450 3541 
Q 3450 3153 3228 2886 
Q 3006 2619 2597 2516 
z
" transform="scale(0.015625)"/>
       </defs>
       <use xlink:href="#DejaVuSans-32"/>
       <use xlink:href="#DejaVuSans-30" x="63.623047"/>
       <use xlink:href="#DejaVuSans-32" x="127.246094"/>
       <use xlink:href="#DejaVuSans-33" x="190.869141"/>
      </g>
     </g>
    </g>
    <g id="xtick_4">
     <g id="line2d_7">
      <path d="M 450.395565 465.838125 
L 450.395565 22.318125 
" clip-path="url(#pda0fe21df8)" style="fill: none; stroke: #b0b0b0; stroke-opacity: 0.6; stroke-width: 0.8; stroke-linecap: square"/>
     </g>
     <g id="line2d_8">
      <g>
       <use xlink:href="#m4989ca4dfe" x="450.395565" y="465.838125" style="stroke: #000000; stroke-width: 0.8"/>
      </g>
     </g>
     <g id="text_4">
      <!-- 2024 -->
      <g transform="translate(437.670565 480.436562) scale(0.1 -0.1)">
       <defs>
        <path id="DejaVuSans-34" d="M 2419 4116 
L 825 1625 
L 2419 1625 
L 2419 4116 
z
M 2253 4666 
L 3047 4666 
L 3047 1625 
L 3713 1625 
L 3713 1100 
L 3047 1100 
L 3047 0 
L 2419 0 
L 2419 1100 
L 313 1100 
L 313 1709 
L 2253 4666 
z
" transform="scale(0.015625)"/>
       </defs>
       <use xlink:href="#DejaVuSans-32"/>
       <use xlink:href="#DejaVuSans-30" x="63.623047"/>
       <use xlink:href="#DejaVuSans-32" x="127.246094"/>
       <use xlink:href="#DejaVuSans-34" x="190.869141"/>
      </g>
     </g>
    </g>
    <g id="xtick_5">
     <g id="line2d_9">
      <path d="M 557.170589 465.838125 
L 557.170589 22.318125 
" clip-path="url(#pda0fe21df8)" style="fill: none; stroke: #b0b0b0; stroke-opacity: 0.6; stroke-width: 0.8; stroke-linecap: square"/>
     </g>
     <g id="line2d_10">
      <g>
       <use xlink:href="#m4989ca4dfe" x="557.170589" y="465.838125" style="stroke: #000000; stroke-width: 0.8"/>
      </g>
     </g>
     <g id="text_5">
      <!-- 2025 -->
      <g transform="translate(544.445589 480.436562) scale(0.1 -0.1)">
       <defs>
        <path id="DejaVuSans-35" d="M 691 4666 
L 3169 4666 
L 3169 4134 
L 1269 4134 
L 1269 2991 
Q 1406 3038 1543 3061 
Q 1681 3084 1819 3084 
Q 2600 3084 3056 2656 
Q 3513 2228 3513 1497 
Q 3513 744 3044 326 
Q 2575 -91 1722 -91 
Q 1428 -91 1123 -41 
Q 819 9 494 109 
L 494 744 
Q 775 591 1075 516 
Q 1375 441 1709 441 
Q 2250 441 2565 725 
Q 2881 1009 2881 1497 
Q 2881 1984 2565 2268 
Q 2250 2553 1709 2553 
Q 1456 2553 1204 2497 
Q 953 2441 691 2322 
L 691 4666 
z
" transform="scale(0.015625)"/>
       </defs>
       <use xlink:href="#DejaVuSans-32"/>
       <use xlink:href="#DejaVuSans-30" x="63.623047"/>
       <use xlink:href="#DejaVuSans-32" x="127.246094"/>
       <use xlink:href="#DejaVuSans-35" x="190.869141"/>
      </g>
     </g>
    </g>
    <g id="text_6">
     <!-- Date -->
     <g transform="translate(314.014844 494.114687) scale(0.1 -0.1)">
      <defs>
       <path id="DejaVuSans-44" d="M 1259 4147 
L 1259 519 
L 2022 519 
Q 2988 519 3436 956 
Q 3884 1394 3884 2338 
Q 3884 3275 3436 3711 
Q 2988 4147 2022 4147 
L 1259 4147 
z
M 628 4666 
L 1925 4666 
Q 3281 4666 3915 4102 
Q 4550 3538 4550 2338 
Q 4550 1131 3912 565 
Q 3275 0 1925 0 
L 628 0 
L 628 4666 
z
" transform="scale(0.015625)"/>
       <path id="DejaVuSans-61" d="M 2194 1759 
Q 1497 1759 1228 1600 
Q 959 1441 959 1056 
Q 959 750 1161 570 
Q 1363 391 1709 391 
Q 2188 391 2477 730 
Q 2766 1069 2766 1631 
L 2766 1759 
L 2194 1759 
z
M 3341 1997 
L 3341 0 
L 2766 0 
L 2766 531 
Q 2569 213 2275 61 
Q 1981 -91 1556 -91 
Q 1019 -91 701 211 
Q 384 513 384 1019 
Q 384 1609 779 1909 
Q 1175 2209 1959 2209 
L 2766 2209 
L 2766 2266 
Q 2766 2663 2505 2880 
Q 2244 3097 1772 3097 
Q 1472 3097 1187 3025 
Q 903 2953 641 2809 
L 641 3341 
Q 956 3463 1253 3523 
Q 1550 3584 1831 3584 
Q 2591 3584 2966 3190 
Q 3341 2797 3341 1997 
z
" transform="scale(0.015625)"/>
       <path id="DejaVuSans-74" d="M 1172 4494 
L 1172 3500 
L 2356 3500 
L 2356 3053 
L 1172 3053 
L 1172 1153 
Q 1172 725 1289 603 
Q 1406 481 1766 481 
L 2356 481 
L 2356 0 
L 1766 0 
Q 1100 0 847 248 
Q 594 497 594 1153 
L 594 3053 
L 172 3053 
L 172 3500 
L 594 3500 
L 594 4494 
L 1172 4494 
z
" transform="scale(0.015625)"/>
       <path id="DejaVuSans-65" d="M 3597 1894 
L 3597 1613 
L 953 1613 
Q 991 1019 1311 708 
Q 1631 397 2203 397 
Q 2534 397 2845 478 
Q 3156 559 3463 722 
L 3463 178 
Q 3153 47 2828 -22 
Q 2503 -91 2169 -91 
Q 1331 -91 842 396 
Q 353 884 353 1716 
Q 353 2575 817 3079 
Q 1281 3584 2069 3584 
Q 2775 3584 3186 3129 
Q 3597 2675 3597 1894 
z
M 3022 2063 
Q 3016 2534 2758 2815 
Q 2500 3097 2075 3097 
Q 1594 3097 1305 2825 
Q 1016 2553 972 2059 
L 3022 2063 
z
" transform="scale(0.015625)"/>
      </defs>
      <use xlink:href="#DejaVuSans-44"/>
      <use xlink:href="#DejaVuSans-61" x="77.001953"/>
      <use xlink:href="#DejaVuSans-74" x="138.28125"/>
      <use xlink:href="#DejaVuSans-65" x="177.490234"/>
     </g>
    </g>
   </g>
   <g id="matplotlib.axis_2">
    <g id="ytick_1">
     <g id="line2d_11">
      <path d="M 46.965625 448.537699 
L 604.965625 448.537699 
" clip-path="url(#pda0fe21df8)" style="fill: none; stroke: #b0b0b0; stroke-opacity: 0.6; stroke-width: 0.8; stroke-linecap: square"/>
     </g>
     <g id="line2d_12">
      <defs>
       <path id="mc11dc46687" d="M 0 0 
L -3.5 0 
" style="stroke: #000000; stroke-width: 0.8"/>
      </defs>
      <g>
       <use xlink:href="#mc11dc46687" x="46.965625" y="448.537699" style="stroke: #000000; stroke-width: 0.8"/>
      </g>
     </g>
     <g id="text_7">
      <!-- 0 -->
      <g transform="translate(33.603125 452.336918) scale(0.1 -0.1)">
       <use xlink:href="#DejaVuSans-30"/>
      </g>
     </g>
    </g>
    <g id="ytick_2">
     <g id="line2d_13">
      <path d="M 46.965625 377.048338 
L 604.965625 377.048338 
" clip-path="url(#pda0fe21df8)" style="fill: none; stroke: #b0b0b0; stroke-opacity: 0.6; stroke-width: 0.8; stroke-linecap: square"/>
     </g>
     <g id="line2d_14">
      <g>
       <use xlink:href="#mc11dc46687" x="46.965625" y="377.048338" style="stroke: #000000; stroke-width: 0.8"/>
      </g>
     </g>
     <g id="text_8">
      <!-- 50 -->
      <g transform="translate(27.240625 380.847557) scale(0.1 -0.1)">
       <use xlink:href="#DejaVuSans-35"/>
       <use xlink:href="#DejaVuSans-30" x="63.623047"/>
      </g>
     </g>
    </g>
    <g id="ytick_3">
     <g id="line2d_15">
      <path d="M 46.965625 305.558976 
L 604.965625 305.558976 
" clip-path="url(#pda0fe21df8)" style="fill: none; stroke: #b0b0b0; stroke-opacity: 0.6; stroke-width: 0.8; stroke-linecap: square"/>
     </g>
     <g id="line2d_16">
      <g>
       <use xlink:href="#mc11dc46687" x="46.965625" y="305.558976" style="stroke: #000000; stroke-width: 0.8"/>
      </g>
     </g>
     <g id="text_9">
      <!-- 100 -->
      <g transform="translate(20.878125 309.358195) scale(0.1 -0.1)">
       <use xlink:href="#DejaVuSans-31"/>
       <use xlink:href="#DejaVuSans-30" x="63.623047"/>
       <use xlink:href="#DejaVuSans-30" x="127.246094"/>
      </g>
     </g>
    </g>
    <g id="ytick_4">
     <g id="line2d_17">
      <path d="M 46.965625 234.069614 
L 604.965625 234.069614 
" clip-path="url(#pda0fe21df8)" style="fill: none; stroke: #b0b0b0; stroke-opacity: 0.6; stroke-width: 0.8; stroke-linecap: square"/>
     </g>
     <g id="line2d_18">
      <g>
       <use xlink:href="#mc11dc46687" x="46.965625" y="234.069614" style="stroke: #000000; stroke-width: 0.8"/>
      </g>
     </g>
     <g id="text_10">
      <!-- 150 -->
      <g transform="translate(20.878125 237.868833) scale(0.1 -0.1)">
       <use xlink:href="#DejaVuSans-31"/>
       <use xlink:href="#DejaVuSans-35" x="63.623047"/>
       <use xlink:href="#DejaVuSans-30" x="127.246094"/>
      </g>
     </g>
    </g>
    <g id="ytick_5">
     <g id="line2d_19">
      <path d="M 46.965625 162.580253 
L 604.965625 162.580253 
" clip-path="url(#pda0fe21df8)" style="fill: none; stroke: #b0b0b0; stroke-opacity: 0.6; stroke-width: 0.8; stroke-linecap: square"/>
     </g>
     <g id="line2d_20">
      <g>
       <use xlink:href="#mc11dc46687" x="46.965625" y="162.580253" style="stroke: #000000; stroke-width: 0.8"/>
      </g>
     </g>
     <g id="text_11">
      <!-- 200 -->
      <g transform="translate(20.878125 166.379471) scale(0.1 -0.1)">
       <use xlink:href="#DejaVuSans-32"/>
       <use xlink:href="#DejaVuSans-30" x="63.623047"/>
       <use xlink:href="#DejaVuSans-30" x="127.246094"/>
      </g>
     </g>
    </g>
    <g id="ytick_6">
     <g id="line2d_21">
      <path d="M 46.965625 91.090891 
L 604.965625 91.090891 
" clip-path="url(#pda0fe21df8)" style="fill: none; stroke: #b0b0b0; stroke-opacity: 0.6; stroke-width: 0.8; stroke-linecap: square"/>
     </g>
     <g id="line2d_22">
      <g>
       <use xlink:href="#mc11dc46687" x="46.965625" y="91.090891" style="stroke: #000000; stroke-width: 0.8"/>
      </g>
     </g>
     <g id="text_12">
      <!-- 250 -->
      <g transform="translate(20.878125 94.89011) scale(0.1 -0.1)">
       <use xlink:href="#DejaVuSans-32"/>
       <use xlink:href="#DejaVuSans-35" x="63.623047"/>
       <use xlink:href="#DejaVuSans-30" x="127.246094"/>
      </g>
     </g>
    </g>
    <g id="text_13">
     <!-- Count -->
     <g transform="translate(14.798437 258.926562) rotate(-90) scale(0.1 -0.1)">
      <defs>
       <path id="DejaVuSans-43" d="M 4122 4306 
L 4122 3641 
Q 3803 3938 3442 4084 
Q 3081 4231 2675 4231 
Q 1875 4231 1450 3742 
Q 1025 3253 1025 2328 
Q 1025 1406 1450 917 
Q 1875 428 2675 428 
Q 3081 428 3442 575 
Q 3803 722 4122 1019 
L 4122 359 
Q 3791 134 3420 21 
Q 3050 -91 2638 -91 
Q 1578 -91 968 557 
Q 359 1206 359 2328 
Q 359 3453 968 4101 
Q 1578 4750 2638 4750 
Q 3056 4750 3426 4639 
Q 3797 4528 4122 4306 
z
" transform="scale(0.015625)"/>
       <path id="DejaVuSans-6f" d="M 1959 3097 
Q 1497 3097 1228 2736 
Q 959 2375 959 1747 
Q 959 1119 1226 758 
Q 1494 397 1959 397 
Q 2419 397 2687 759 
Q 2956 1122 2956 1747 
Q 2956 2369 2687 2733 
Q 2419 3097 1959 3097 
z
M 1959 3584 
Q 2709 3584 3137 3096 
Q 3566 2609 3566 1747 
Q 3566 888 3137 398 
Q 2709 -91 1959 -91 
Q 1206 -91 779 398 
Q 353 888 353 1747 
Q 353 2609 779 3096 
Q 1206 3584 1959 3584 
z
" transform="scale(0.015625)"/>
       <path id="DejaVuSans-75" d="M 544 1381 
L 544 3500 
L 1119 3500 
L 1119 1403 
Q 1119 906 1312 657 
Q 1506 409 1894 409 
Q 2359 409 2629 706 
Q 2900 1003 2900 1516 
L 2900 3500 
L 3475 3500 
L 3475 0 
L 2900 0 
L 2900 538 
Q 2691 219 2414 64 
Q 2138 -91 1772 -91 
Q 1169 -91 856 284 
Q 544 659 544 1381 
z
M 1991 3584 
L 1991 3584 
z
" transform="scale(0.015625)"/>
       <path id="DejaVuSans-6e" d="M 3513 2113 
L 3513 0 
L 2938 0 
L 2938 2094 
Q 2938 2591 2744 2837 
Q 2550 3084 2163 3084 
Q 1697 3084 1428 2787 
Q 1159 2491 1159 1978 
L 1159 0 
L 581 0 
L 581 3500 
L 1159 3500 
L 1159 2956 
Q 1366 3272 1645 3428 
Q 1925 3584 2291 3584 
Q 2894 3584 3203 3211 
Q 3513 2838 3513 2113 
z
" transform="scale(0.015625)"/>
      </defs>
      <use xlink:href="#DejaVuSans-43"/>
      <use xlink:href="#DejaVuSans-6f" x="69.824219"/>
      <use xlink:href="#DejaVuSans-75" x="131.005859"/>
      <use xlink:href="#DejaVuSans-6e" x="194.384766"/>
      <use xlink:href="#DejaVuSans-74" x="257.763672"/>
     </g>
    </g>
   </g>
   <g id="line2d_23">
    <path d="M 579.601989 434.239827 
L 571.039903 434.239827 
L 571.029837 435.669614 
L 550.183218 435.669614 
L 550.063093 434.239827 
L 549.010716 432.81004 
L 549.001049 431.380253 
L 546.35901 431.380253 
L 546.254175 429.950465 
L 521.251634 429.950465 
L 521.217234 427.090891 
L 520.061176 425.661104 
L 509.856244 425.661104 
L 508.973847 424.231316 
L 478.670825 424.231316 
L 478.67117 425.661104 
L 474.01361 425.661104 
L 474.004702 427.090891 
L 474.003635 425.661104 
L 460.185612 425.661104 
L 459.725079 427.090891 
L 456.394255 427.090891 
L 456.394076 425.661104 
L 447.983186 425.661104 
L 447.789442 427.090891 
L 444.003474 427.090891 
L 443.990748 425.661104 
L 439.8952 425.661104 
L 439.768998 427.090891 
L 435.547973 427.090891 
L 435.481053 425.661104 
L 401.650583 425.661104 
L 400.945077 424.231316 
L 372.061461 424.231316 
L 371.923235 421.371742 
L 342.3492 421.371742 
L 342.349146 422.801529 
L 335.491127 422.801529 
L 334.874691 424.231316 
L 334.739095 424.231316 
L 334.543474 425.661104 
L 334.535462 424.231316 
L 333.117282 424.231316 
L 333.116481 425.661104 
L 327.298103 425.661104 
L 327.236325 424.231316 
L 323.427873 424.231316 
L 323.342868 422.801529 
L 314.426216 422.801529 
L 314.426105 424.231316 
L 301.331462 424.231316 
L 301.312979 425.661104 
L 291.378341 425.661104 
L 291.307885 427.090891 
L 280.81836 427.090891 
L 280.78923 428.520678 
L 277.90943 428.520678 
L 277.669083 429.950465 
L 275.288718 429.950465 
L 275.251538 427.090891 
L 270.336637 427.090891 
L 269.968706 428.520678 
L 251.881046 428.520678 
L 251.368322 427.090891 
L 242.917477 427.090891 
L 242.867342 425.661104 
L 235.977185 425.661104 
L 235.977161 424.231316 
L 228.643037 424.231316 
L 228.902083 424.231316 
L 228.505526 425.661104 
L 218.137503 425.661104 
L 217.879371 427.090891 
L 213.112954 427.090891 
L 213.048867 425.661104 
L 202.947831 425.661104 
L 202.94774 427.090891 
L 174.3739 427.090891 
L 174.330103 428.520678 
L 172.562043 428.520678 
L 172.561956 429.950465 
L 167.103755 429.950465 
L 166.764333 431.380253 
L 165.366841 431.380253 
L 165.226072 429.950465 
L 145.976884 429.950465 
L 145.680793 431.380253 
L 138.551103 431.380253 
L 138.541639 429.950465 
L 136.768646 429.950465 
L 136.76144 431.380253 
L 134.365934 431.380253 
L 134.085491 434.239827 
L 130.950794 434.239827 
L 130.932044 435.669614 
L 129.820382 435.669614 
L 129.658762 437.099402 
L 127.465624 437.099402 
L 127.463379 438.529189 
L 122.700034 438.529189 
L 122.049273 439.958976 
L 92.972004 439.958976 
L 92.957826 441.388763 
L 88.068326 441.388763 
L 88.059014 442.818551 
L 81.019454 442.818551 
L 80.984054 444.248338 
L 72.585164 444.248338 
L 72.581811 445.678125 
L 72.329261 445.678125 
L 72.329261 445.678125 
" clip-path="url(#pda0fe21df8)" style="fill: none; stroke: #1f77b4; stroke-opacity: 0.8; stroke-width: 1.5; stroke-linecap: square"/>
   </g>
   <g id="line2d_24">
    <path d="M 579.601989 132.554721 
L 579.601435 123.975997 
L 576.599623 123.975997 
L 576.125118 125.405785 
L 575.554732 125.405785 
L 573.77163 128.265359 
L 572.826675 128.265359 
L 572.782486 133.984508 
L 571.17455 133.984508 
L 571.039903 136.844082 
L 571.029837 155.431316 
L 570.629718 155.431316 
L 570.618734 156.861104 
L 570.569912 118.256848 
L 569.396378 121.116423 
L 569.396337 122.54621 
L 566.717099 126.835572 
L 566.672964 131.124934 
L 564.371059 131.124934 
L 562.678942 132.554721 
L 562.678679 133.984508 
L 562.306396 142.563231 
L 560.536975 142.563231 
L 560.379992 143.993019 
L 558.030077 143.993019 
L 557.926973 151.141955 
L 557.370121 151.141955 
L 557.618754 151.141955 
L 557.359373 152.571742 
L 556.509161 152.571742 
L 555.43766 154.001529 
L 554.179718 154.001529 
L 554.177391 155.431316 
L 550.183218 155.431316 
L 550.063093 142.563231 
L 549.010716 142.563231 
L 549.001049 126.835572 
L 547.496011 126.835572 
L 546.625749 128.265359 
L 546.35901 131.124934 
L 546.254175 123.975997 
L 545.519901 123.975997 
L 545.519556 125.405785 
L 544.87574 129.695146 
L 544.270049 129.695146 
L 544.269816 131.124934 
L 543.720905 131.124934 
L 543.720233 132.554721 
L 541.991848 132.554721 
L 541.983978 111.107912 
L 541.954338 113.967487 
L 541.861759 115.397274 
L 540.787259 115.397274 
L 540.782063 108.248338 
L 540.184134 108.248338 
L 540.123157 105.388763 
L 539.827711 105.388763 
L 539.815235 96.81004 
L 539.61204 96.81004 
L 539.591733 95.380253 
L 539.591733 95.380253 
L 538.781473 96.81004 
L 538.764671 99.669614 
L 537.766299 99.669614 
L 537.766259 101.099402 
L 532.908978 101.099402 
L 532.618162 103.958976 
L 531.94997 103.958976 
L 531.935664 105.388763 
L 531.170264 106.818551 
L 530.220721 109.678125 
L 530.220505 112.537699 
L 529.948307 112.537699 
L 529.947969 113.967487 
L 529.393753 113.967487 
L 527.886891 115.397274 
L 524.788625 115.397274 
L 524.788523 116.827061 
L 524.174073 116.827061 
L 523.469098 118.256848 
L 521.530944 118.256848 
L 521.448336 81.08238 
L 521.251634 81.08238 
L 521.217234 73.933444 
L 520.061176 42.478125 
L 518.902526 46.767487 
L 516.853621 46.767487 
L 516.563071 48.197274 
L 515.962897 49.627061 
L 514.232442 49.627061 
L 513.379971 51.056848 
L 513.138294 51.056848 
L 513.137622 52.486636 
L 512.755098 51.056848 
L 512.754966 52.486636 
L 512.531515 52.486636 
L 512.75529 49.627061 
L 512.515787 49.627061 
L 511.390156 51.056848 
L 511.382285 53.916423 
L 510.761977 53.916423 
L 510.743612 55.34621 
L 510.175215 56.775997 
L 509.856244 56.775997 
L 508.973847 42.478125 
L 506.360522 42.478125 
L 506.360029 43.907912 
L 503.494435 43.907912 
L 503.40242 46.767487 
L 503.402214 49.627061 
L 501.377036 49.627061 
L 501.320496 52.486636 
L 499.272131 52.486636 
L 499.272043 53.916423 
L 498.752569 53.916423 
L 498.201777 55.34621 
L 497.003384 55.34621 
L 496.238177 58.205785 
L 492.428638 58.205785 
L 492.42879 58.205785 
L 489.759853 59.635572 
L 487.394405 59.635572 
L 484.512218 61.065359 
L 484.976425 61.065359 
L 481.552624 62.495146 
L 480.119384 63.924934 
L 478.670825 63.924934 
L 478.67117 66.784508 
L 477.770461 66.784508 
L 476.521494 68.214295 
L 474.01361 68.214295 
L 474.004702 73.933444 
L 474.003635 69.644082 
L 471.916815 69.644082 
L 471.916575 71.07387 
L 471.916545 69.644082 
L 471.060913 71.07387 
L 470.2426 71.07387 
L 469.638506 72.503657 
L 467.297143 72.503657 
L 466.469652 73.933444 
L 464.900246 75.363231 
L 464.262136 76.793019 
L 463.533461 76.793019 
L 463.53342 78.222806 
L 463.201024 78.222806 
L 463.200798 82.512168 
L 461.46019 82.512168 
L 461.161516 83.941955 
L 460.634489 85.371742 
L 460.185612 85.371742 
L 459.725079 86.801529 
L 458.817489 86.801529 
L 458.800873 78.222806 
L 458.798695 81.08238 
L 458.511289 81.08238 
L 458.484793 82.512168 
L 456.394255 82.512168 
L 456.394076 76.793019 
L 455.312343 78.222806 
L 455.311675 81.08238 
L 454.125634 81.08238 
L 453.600764 82.512168 
L 452.360221 82.512168 
L 452.294702 83.941955 
L 452.294631 86.801529 
L 450.595069 86.801529 
L 449.841606 88.231316 
L 449.543013 88.231316 
L 448.810761 95.380253 
L 448.802634 96.81004 
L 447.789442 96.81004 
L 447.643565 98.239827 
L 446.184011 98.239827 
L 446.183968 99.669614 
L 445.669815 99.669614 
L 444.560911 101.099402 
L 444.003474 101.099402 
L 443.990748 95.380253 
L 441.02279 95.380253 
L 441.022574 92.520678 
L 440.128794 92.520678 
L 440.458316 92.520678 
L 440.058214 93.950465 
L 440.044664 81.08238 
L 439.908423 82.512168 
L 439.8952 81.08238 
L 439.768998 88.231316 
L 439.012182 89.661104 
L 435.547973 89.661104 
L 435.481053 85.371742 
L 430.786972 85.371742 
L 430.254394 86.801529 
L 429.054083 86.801529 
L 428.769314 88.231316 
L 425.470375 88.231316 
L 424.688187 82.512168 
L 423.75036 85.371742 
L 422.365642 85.371742 
L 420.5854 86.801529 
L 419.722421 88.231316 
L 419.130472 88.231316 
L 415.818226 89.661104 
L 415.520349 89.661104 
L 415.520278 91.090891 
L 413.914459 91.090891 
L 413.914449 88.231316 
L 412.137256 88.231316 
L 411.507037 85.371742 
L 410.645831 85.371742 
L 409.267339 86.801529 
L 409.267289 88.231316 
L 409.093767 88.231316 
L 407.171284 89.661104 
L 406.591778 89.661104 
L 405.9936 102.529189 
L 403.946967 103.958976 
L 402.991551 103.958976 
L 403.383847 103.958976 
L 402.814653 109.678125 
L 402.48948 109.678125 
L 401.956632 111.107912 
L 401.650583 111.107912 
L 400.945077 109.678125 
L 396.580846 109.678125 
L 396.300419 111.107912 
L 396.294284 112.537699 
L 396.002066 112.537699 
L 395.99482 69.644082 
L 395.12182 69.644082 
L 395.11087 71.07387 
L 392.277224 71.07387 
L 390.73244 72.503657 
L 388.766436 72.503657 
L 387.621856 71.07387 
L 387.613397 72.503657 
L 381.534179 72.503657 
L 381.481228 65.354721 
L 380.318948 65.354721 
L 379.143731 66.784508 
L 377.977068 66.784508 
L 376.738862 68.214295 
L 375.573249 68.214295 
L 375.572304 71.07387 
L 375.37494 72.503657 
L 375.354677 73.933444 
L 375.107017 73.933444 
L 374.743432 75.363231 
L 374.685554 76.793019 
L 374.43816 76.793019 
L 374.377524 81.08238 
L 373.335901 83.941955 
L 372.061461 83.941955 
L 371.923235 78.222806 
L 367.510425 78.222806 
L 367.510371 79.652593 
L 366.919047 78.222806 
L 366.599148 79.652593 
L 364.273885 79.652593 
L 364.265839 81.08238 
L 362.171893 81.08238 
L 362.138574 82.512168 
L 358.764773 82.512168 
L 357.312108 83.941955 
L 356.989673 83.941955 
L 356.343027 85.371742 
L 350.621327 85.371742 
L 350.614769 86.801529 
L 348.565334 86.801529 
L 348.564915 89.661104 
L 345.085995 89.661104 
L 344.239852 91.090891 
L 342.3492 91.090891 
L 342.349146 92.520678 
L 341.23332 92.520678 
L 340.970293 93.950465 
L 339.828224 93.950465 
L 339.228118 95.380253 
L 337.65235 95.380253 
L 336.582209 96.81004 
L 336.296849 98.239827 
L 334.874691 98.239827 
L 334.739095 96.81004 
L 334.543474 96.81004 
L 334.535462 82.512168 
L 334.409225 83.941955 
L 334.265408 88.231316 
L 332.199116 88.231316 
L 331.332241 83.941955 
L 331.332113 86.801529 
L 331.055758 88.231316 
L 331.042623 92.520678 
L 329.850893 98.239827 
L 329.625433 98.239827 
L 329.577512 46.767487 
L 329.577435 49.627061 
L 328.405676 49.627061 
L 327.431089 52.486636 
L 327.236325 53.916423 
L 326.108557 56.775997 
L 325.815728 58.205785 
L 325.809771 61.065359 
L 325.438805 62.495146 
L 325.208416 62.495146 
L 325.208362 66.784508 
L 324.337657 66.784508 
L 323.427873 68.214295 
L 323.342868 62.495146 
L 322.563824 62.495146 
L 322.56354 63.924934 
L 321.591816 65.354721 
L 319.715484 65.354721 
L 319.65195 63.924934 
L 319.095013 63.924934 
L 317.287445 68.214295 
L 319.095061 69.644082 
L 312.92112 69.644082 
L 312.920792 73.933444 
L 311.778889 73.933444 
L 311.778839 75.363231 
L 310.962038 75.363231 
L 310.057227 76.793019 
L 309.037286 79.652593 
L 302.687247 79.652593 
L 301.744203 81.08238 
L 301.331462 81.08238 
L 301.312979 83.941955 
L 299.85422 83.941955 
L 299.854162 85.371742 
L 298.259314 85.371742 
L 297.378125 88.231316 
L 297.378638 88.231316 
L 295.029358 88.231316 
L 294.495621 89.661104 
L 294.324713 91.090891 
L 292.992331 91.090891 
L 293.427432 92.520678 
L 292.515165 96.81004 
L 292.421013 98.239827 
L 291.856648 98.239827 
L 291.717054 105.388763 
L 290.67268 105.388763 
L 289.38053 106.818551 
L 289.371042 108.248338 
L 289.216196 112.537699 
L 289.21442 105.388763 
L 288.933226 106.818551 
L 287.180179 106.818551 
L 287.027427 111.107912 
L 283.517209 112.537699 
L 283.51702 113.967487 
L 283.356728 115.397274 
L 282.63592 115.397274 
L 282.220244 116.827061 
L 280.289053 116.827061 
L 280.272086 118.256848 
L 280.272001 116.827061 
L 279.116693 116.827061 
L 279.004429 119.686636 
L 278.774918 119.686636 
L 278.274795 122.54621 
L 277.90943 122.54621 
L 277.673851 128.265359 
L 277.669083 133.984508 
L 276.737574 139.703657 
L 276.169788 139.703657 
L 276.142161 133.984508 
L 275.81325 133.984508 
L 275.786413 135.414295 
L 275.536446 135.414295 
L 275.288718 136.844082 
L 275.251538 125.405785 
L 274.734519 126.835572 
L 273.755718 126.835572 
L 273.606474 128.265359 
L 273.598843 129.695146 
L 273.325172 132.554721 
L 273.174739 132.554721 
L 273.174648 135.414295 
L 270.887311 136.844082 
L 270.362971 136.844082 
L 270.336637 138.27387 
L 270.009495 145.422806 
L 269.968706 143.993019 
L 267.722786 143.993019 
L 267.377326 146.852593 
L 266.332688 148.28238 
L 265.564767 148.28238 
L 265.564709 149.712168 
L 265.387936 151.141955 
L 263.576842 151.141955 
L 262.757864 152.571742 
L 262.756152 151.141955 
L 260.674406 152.571742 
L 259.725707 152.571742 
L 259.607375 154.001529 
L 258.361383 155.431316 
L 258.099051 156.861104 
L 257.5556 156.861104 
L 256.69696 159.720678 
L 255.822528 158.290891 
L 254.507884 158.290891 
L 254.359788 159.720678 
L 251.881046 159.720678 
L 251.368322 148.28238 
L 250.523776 149.712168 
L 250.522091 151.141955 
L 249.903474 152.571742 
L 249.260675 156.861104 
L 249.256565 159.720678 
L 248.163005 162.580253 
L 248.103638 166.869614 
L 247.810204 168.299402 
L 245.189802 171.158976 
L 244.989079 161.150465 
L 244.576953 162.580253 
L 244.576899 165.439827 
L 242.917477 165.439827 
L 242.867342 159.720678 
L 242.416429 159.720678 
L 241.735859 161.150465 
L 240.500324 161.150465 
L 240.283133 162.580253 
L 240.213218 164.01004 
L 239.676297 164.01004 
L 239.676044 165.439827 
L 239.428154 165.439827 
L 239.328997 172.588763 
L 238.747398 172.588763 
L 238.222629 174.018551 
L 237.726194 174.018551 
L 237.665372 185.456848 
L 237.576912 189.74621 
L 235.977185 188.316423 
L 235.977161 168.299402 
L 234.668574 165.439827 
L 234.312195 166.869614 
L 232.788159 166.869614 
L 232.759016 168.299402 
L 231.23103 168.299402 
L 230.991068 169.729189 
L 230.747753 169.729189 
L 229.79145 171.158976 
L 228.807978 171.158976 
L 228.643037 175.448338 
L 228.902083 175.448338 
L 228.505526 181.167487 
L 227.083071 181.167487 
L 226.344435 182.597274 
L 226.787008 182.597274 
L 225.44711 184.027061 
L 225.210254 189.74621 
L 224.874175 191.175997 
L 223.68423 189.74621 
L 223.569005 191.175997 
L 223.140424 191.175997 
L 223.136963 162.580253 
L 222.772581 143.993019 
L 222.733697 145.422806 
L 221.03639 145.422806 
L 221.016927 151.141955 
L 220.48861 152.571742 
L 220.213008 155.431316 
L 218.137503 155.431316 
L 217.879371 156.861104 
L 214.864475 156.861104 
L 215.795485 158.290891 
L 215.212579 158.290891 
L 215.092896 161.150465 
L 214.319832 162.580253 
L 214.093488 169.729189 
L 213.116445 174.018551 
L 213.058088 166.869614 
L 213.048867 168.299402 
L 212.335683 168.299402 
L 211.865942 169.729189 
L 211.894109 169.729189 
L 210.853618 171.158976 
L 203.862833 171.158976 
L 203.835189 172.588763 
L 203.544369 176.878125 
L 201.403091 176.878125 
L 201.245085 178.307912 
L 200.027591 178.307912 
L 199.746748 179.737699 
L 199.74427 188.316423 
L 199.452103 189.74621 
L 199.452056 192.605785 
L 198.646377 192.605785 
L 198.581257 194.035572 
L 198.289076 194.035572 
L 197.695024 195.465359 
L 197.085726 195.465359 
L 197.021886 198.324934 
L 194.185225 198.324934 
L 194.185124 201.184508 
L 193.259176 204.044082 
L 190.728371 204.044082 
L 190.72545 206.903657 
L 190.446826 206.903657 
L 190.176026 208.333444 
L 189.831698 208.333444 
L 189.825556 209.763231 
L 187.184546 209.763231 
L 186.951054 211.193019 
L 186.569367 212.622806 
L 185.452397 214.052593 
L 185.452397 214.052593 
L 184.901804 215.48238 
L 184.90171 216.912168 
L 182.755695 216.912168 
L 181.973801 218.341955 
L 180.830692 218.341955 
L 180.829014 219.771742 
L 178.75571 221.201529 
L 177.595408 222.631316 
L 176.426364 222.631316 
L 176.300675 224.061104 
L 175.522178 226.920678 
L 175.521722 228.350465 
L 172.91245 228.350465 
L 172.83934 231.21004 
L 172.562043 231.21004 
L 172.561956 234.069614 
L 172.25478 234.069614 
L 172.254699 232.639827 
L 172.068903 232.639827 
L 171.771701 234.069614 
L 171.771654 235.499402 
L 171.141908 236.929189 
L 171.141999 236.929189 
L 170.008298 236.929189 
L 168.248258 238.358976 
L 168.243031 241.218551 
L 167.357571 241.218551 
L 167.138355 242.648338 
L 167.103755 246.937699 
L 166.764333 251.227061 
L 166.422378 252.656848 
L 166.387843 254.086636 
L 165.860836 254.086636 
L 165.366841 255.516423 
L 165.226072 255.516423 
L 164.715782 256.94621 
L 163.19743 256.94621 
L 163.174324 258.375997 
L 161.792523 258.375997 
L 161.792523 258.375997 
L 161.58977 259.805785 
L 161.588214 248.367487 
L 161.582264 249.797274 
L 158.551731 249.797274 
L 158.504152 259.805785 
L 158.377187 262.665359 
L 157.366072 262.665359 
L 156.881552 264.095146 
L 155.580893 264.095146 
L 155.578823 265.524934 
L 155.458418 268.384508 
L 155.008734 269.814295 
L 154.996538 274.103657 
L 154.855232 274.103657 
L 154.83242 275.533444 
L 154.143071 275.533444 
L 153.274238 276.963231 
L 153.109678 276.963231 
L 152.99896 279.822806 
L 150.700014 279.822806 
L 150.356425 281.252593 
L 150.166692 282.68238 
L 149.611967 284.112168 
L 149.48723 284.112168 
L 148.880782 285.541955 
L 148.753624 285.541955 
L 148.740172 289.831316 
L 148.596125 291.261104 
L 148.59605 292.690891 
L 148.383259 292.690891 
L 147.514206 301.269614 
L 147.439807 299.839827 
L 147.172103 299.839827 
L 147.132081 301.269614 
L 146.937709 302.699402 
L 145.976884 302.699402 
L 145.680793 305.558976 
L 144.011684 305.558976 
L 143.997624 306.988763 
L 143.802327 306.988763 
L 143.507661 308.418551 
L 142.899309 299.839827 
L 141.17889 299.839827 
L 140.798277 301.269614 
L 140.796156 302.699402 
L 139.730401 302.699402 
L 139.728841 304.129189 
L 139.418316 304.129189 
L 139.252986 305.558976 
L 139.131696 305.558976 
L 139.126442 309.848338 
L 138.848163 309.848338 
L 138.847714 311.278125 
L 138.551103 311.278125 
L 138.543715 309.848338 
L 138.541639 311.278125 
L 137.053405 311.278125 
L 136.768646 312.707912 
L 136.76144 314.137699 
L 135.303194 314.137699 
L 134.614622 308.418551 
L 134.365934 312.707912 
L 134.085491 318.427061 
L 132.613052 318.427061 
L 132.330228 319.856848 
L 132.050814 319.856848 
L 132.05072 322.716423 
L 131.862773 322.716423 
L 131.847207 324.14621 
L 131.266239 324.14621 
L 131.137413 331.295146 
L 130.950794 332.724934 
L 130.932044 334.154721 
L 130.323814 334.154721 
L 130.225991 339.87387 
L 129.995007 339.87387 
L 129.9473 341.303657 
L 129.820382 342.733444 
L 129.658762 349.88238 
L 129.411926 351.312168 
L 127.465624 351.312168 
L 127.463379 354.171742 
L 125.323901 354.171742 
L 125.309999 357.031316 
L 124.256549 357.031316 
L 124.255411 349.88238 
L 122.700034 349.88238 
L 122.049273 351.312168 
L 119.999034 352.741955 
L 118.659156 352.741955 
L 117.777384 354.171742 
L 116.862943 354.171742 
L 116.652455 355.601529 
L 116.084152 357.031316 
L 115.963383 358.461104 
L 115.963183 361.320678 
L 115.137506 361.320678 
L 114.456345 364.180253 
L 113.30414 364.180253 
L 113.303964 365.61004 
L 110.479723 365.61004 
L 109.086607 367.039827 
L 108.083612 367.039827 
L 108.060341 368.469614 
L 107.604039 369.899402 
L 106.999074 369.899402 
L 106.902031 371.329189 
L 106.90189 368.469614 
L 106.89021 369.899402 
L 106.760341 371.329189 
L 106.759939 374.188763 
L 100.914095 374.188763 
L 100.812022 378.478125 
L 99.908562 378.478125 
L 97.836733 379.907912 
L 97.838334 381.337699 
L 97.836112 381.337699 
L 95.038596 381.337699 
L 94.948766 385.627061 
L 93.315674 385.627061 
L 93.245681 387.056848 
L 93.152897 388.486636 
L 92.957826 397.065359 
L 92.639372 397.065359 
L 92.283803 398.495146 
L 92.062817 398.495146 
L 91.98705 401.354721 
L 91.498826 402.784508 
L 89.148691 402.784508 
L 88.804008 404.214295 
L 88.785005 405.644082 
L 88.494243 405.644082 
L 88.059014 412.793019 
L 84.181156 412.793019 
L 84.124268 415.652593 
L 83.576312 415.652593 
L 83.016539 417.08238 
L 82.474682 417.08238 
L 82.097054 418.512168 
L 81.80259 418.512168 
L 81.589452 419.941955 
L 81.482793 422.801529 
L 81.180627 424.231316 
L 80.984054 428.520678 
L 77.118656 428.520678 
L 76.562435 429.950465 
L 74.927108 429.950465 
L 74.92705 431.380253 
L 74.312486 431.380253 
L 74.310622 429.950465 
L 73.463415 432.81004 
L 73.17844 435.669614 
L 72.329261 435.669614 
L 72.329261 435.669614 
" clip-path="url(#pda0fe21df8)" style="fill: none; stroke: #ff7f0e; stroke-opacity: 0.8; stroke-width: 1.5; stroke-linecap: square"/>
   </g>
   <g id="patch_3">
    <path d="M 46.965625 465.838125 
L 46.965625 22.318125 
" style="fill: none; stroke: #000000; stroke-width: 0.8; stroke-linejoin: miter; stroke-linecap: square"/>
   </g>
   <g id="patch_4">
    <path d="M 604.965625 465.838125 
L 604.965625 22.318125 
" style="fill: none; stroke: #000000; stroke-width: 0.8; stroke-linejoin: miter; stroke-linecap: square"/>
   </g>
   <g id="patch_5">
    <path d="M 46.965625 465.838125 
L 604.965625 465.838125 
" style="fill: none; stroke: #000000; stroke-width: 0.8; stroke-linejoin: miter; stroke-linecap: square"/>
   </g>
   <g id="patch_6">
    <path d="M 46.965625 22.318125 
L 604.965625 22.318125 
" style="fill: none; stroke: #000000; stroke-width: 0.8; stroke-linejoin: miter; stroke-linecap: square"/>
   </g>
   <g id="text_14">
    <!-- 10 -->
    <g transform="translate(579.601989 434.239827) scale(0.1 -0.1)">
     <use xlink:href="#DejaVuSans-31"/>
     <use xlink:href="#DejaVuSans-30" x="63.623047"/>
    </g>
   </g>
   <g id="text_15">
    <!-- 221 -->
    <g transform="translate(579.601989 132.554721) scale(0.1 -0.1)">
     <use xlink:href="#DejaVuSans-32"/>
     <use xlink:href="#DejaVuSans-32" x="63.623047"/>
     <use xlink:href="#DejaVuSans-31" x="127.246094"/>
    </g>
   </g>
   <g id="text_16">
    <!-- WireGuard peers over time -->
    <g transform="translate(244.736875 16.318125) scale(0.12 -0.12)">
     <defs>
      <path id="DejaVuSans-57" d="M 213 4666 
L 850 4666 
L 1831 722 
L 2809 4666 
L 3519 4666 
L 4500 722 
L 5478 4666 
L 6119 4666 
L 4947 0 
L 4153 0 
L 3169 4050 
L 2175 0 
L 1381 0 
L 213 4666 
z
" transform="scale(0.015625)"/>
      <path id="DejaVuSans-69" d="M 603 3500 
L 1178 3500 
L 1178 0 
L 603 0 
L 603 3500 
z
M 603 4863 
L 1178 4863 
L 1178 4134 
L 603 4134 
L 603 4863 
z
" transform="scale(0.015625)"/>
      <path id="DejaVuSans-72" d="M 2631 2963 
Q 2534 3019 2420 3045 
Q 2306 3072 2169 3072 
Q 1681 3072 1420 2755 
Q 1159 2438 1159 1844 
L 1159 0 
L 581 0 
L 581 3500 
L 1159 3500 
L 1159 2956 
Q 1341 3275 1631 3429 
Q 1922 3584 2338 3584 
Q 2397 3584 2469 3576 
Q 2541 3569 2628 3553 
L 2631 2963 
z
" transform="scale(0.015625)"/>
      <path id="DejaVuSans-47" d="M 3809 666 
L 3809 1919 
L 2778 1919 
L 2778 2438 
L 4434 2438 
L 4434 434 
Q 4069 175 3628 42 
Q 3188 -91 2688 -91 
Q 1594 -91 976 548 
Q 359 1188 359 2328 
Q 359 3472 976 4111 
Q 1594 4750 2688 4750 
Q 3144 4750 3555 4637 
Q 3966 4525 4313 4306 
L 4313 3634 
Q 3963 3931 3569 4081 
Q 3175 4231 2741 4231 
Q 1884 4231 1454 3753 
Q 1025 3275 1025 2328 
Q 1025 1384 1454 906 
Q 1884 428 2741 428 
Q 3075 428 3337 486 
Q 3600 544 3809 666 
z
" transform="scale(0.015625)"/>
      <path id="DejaVuSans-64" d="M 2906 2969 
L 2906 4863 
L 3481 4863 
L 3481 0 
L 2906 0 
L 2906 525 
Q 2725 213 2448 61 
Q 2172 -91 1784 -91 
Q 1150 -91 751 415 
Q 353 922 353 1747 
Q 353 2572 751 3078 
Q 1150 3584 1784 3584 
Q 2172 3584 2448 3432 
Q 2725 3281 2906 2969 
z
M 947 1747 
Q 947 1113 1208 752 
Q 1469 391 1925 391 
Q 2381 391 2643 752 
Q 2906 1113 2906 1747 
Q 2906 2381 2643 2742 
Q 2381 3103 1925 3103 
Q 1469 3103 1208 2742 
Q 947 2381 947 1747 
z
" transform="scale(0.015625)"/>
      <path id="DejaVuSans-20" transform="scale(0.015625)"/>
      <path id="DejaVuSans-70" d="M 1159 525 
L 1159 -1331 
L 581 -1331 
L 581 3500 
L 1159 3500 
L 1159 2969 
Q 1341 3281 1617 3432 
Q 1894 3584 2278 3584 
Q 2916 3584 3314 3078 
Q 3713 2572 3713 1747 
Q 3713 922 3314 415 
Q 2916 -91 2278 -91 
Q 1894 -91 1617 61 
Q 1341 213 1159 525 
z
M 3116 1747 
Q 3116 2381 2855 2742 
Q 2594 3103 2138 3103 
Q 1681 3103 1420 2742 
Q 1159 2381 1159 1747 
Q 1159 1113 1420 752 
Q 1681 391 2138 391 
Q 2594 391 2855 752 
Q 3116 1113 3116 1747 
z
" transform="scale(0.015625)"/>
      <path id="DejaVuSans-73" d="M 2834 3397 
L 2834 2853 
Q 2591 2978 2328 3040 
Q 2066 3103 1784 3103 
Q 1356 3103 1142 2972 
Q 928 2841 928 2578 
Q 928 2378 1081 2264 
Q 1234 2150 1697 2047 
L 1894 2003 
Q 2506 1872 2764 1633 
Q 3022 1394 3022 966 
Q 3022 478 2636 193 
Q 2250 -91 1575 -91 
Q 1294 -91 989 -36 
Q 684 19 347 128 
L 347 722 
Q 666 556 975 473 
Q 1284 391 1588 391 
Q 1994 391 2212 530 
Q 2431 669 2431 922 
Q 2431 1156 2273 1281 
Q 2116 1406 1581 1522 
L 1381 1569 
Q 847 1681 609 1914 
Q 372 2147 372 2553 
Q 372 3047 722 3315 
Q 1072 3584 1716 3584 
Q 2034 3584 2315 3537 
Q 2597 3491 2834 3397 
z
" transform="scale(0.015625)"/>
      <path id="DejaVuSans-76" d="M 191 3500 
L 800 3500 
L 1894 563 
L 2988 3500 
L 3597 3500 
L 2284 0 
L 1503 0 
L 191 3500 
z
" transform="scale(0.015625)"/>
      <path id="DejaVuSans-6d" d="M 3328 2828 
Q 3544 3216 3844 3400 
Q 4144 3584 4550 3584 
Q 5097 3584 5394 3201 
Q 5691 2819 5691 2113 
L 5691 0 
L 5113 0 
L 5113 2094 
Q 5113 2597 4934 2840 
Q 4756 3084 4391 3084 
Q 3944 3084 3684 2787 
Q 3425 2491 3425 1978 
L 3425 0 
L 2847 0 
L 2847 2094 
Q 2847 2600 2669 2842 
Q 2491 3084 2119 3084 
Q 1678 3084 1418 2786 
Q 1159 2488 1159 1978 
L 1159 0 
L 581 0 
L 581 3500 
L 1159 3500 
L 1159 2956 
Q 1356 3278 1631 3431 
Q 1906 3584 2284 3584 
Q 2666 3584 2933 3390 
Q 3200 3197 3328 2828 
z
" transform="scale(0.015625)"/>
     </defs>
     <use xlink:href="#DejaVuSans-57"/>
     <use xlink:href="#DejaVuSans-69" x="96.626953"/>
     <use xlink:href="#DejaVuSans-72" x="124.410156"/>
     <use xlink:href="#DejaVuSans-65" x="163.273438"/>
     <use xlink:href="#DejaVuSans-47" x="224.796875"/>
     <use xlink:href="#DejaVuSans-75" x="302.287109"/>
     <use xlink:href="#DejaVuSans-61" x="365.666016"/>
     <use xlink:href="#DejaVuSans-72" x="426.945312"/>
     <use xlink:href="#DejaVuSans-64" x="466.308594"/>
     <use xlink:href="#DejaVuSans-20" x="529.785156"/>
     <use xlink:href="#DejaVuSans-70" x="561.572266"/>
     <use xlink:href="#DejaVuSans-65" x="625.048828"/>
     <use xlink:href="#DejaVuSans-65" x="686.572266"/>
     <use xlink:href="#DejaVuSans-72" x="748.095703"/>
     <use xlink:href="#DejaVuSans-73" x="789.208984"/>
     <use xlink:href="#DejaVuSans-20" x="841.308594"/>
     <use xlink:href="#DejaVuSans-6f" x="873.095703"/>
     <use xlink:href="#DejaVuSans-76" x="934.277344"/>
     <use xlink:href="#DejaVuSans-65" x="993.457031"/>
     <use xlink:href="#DejaVuSans-72" x="1054.980469"/>
     <use xlink:href="#DejaVuSans-20" x="1096.09375"/>
     <use xlink:href="#DejaVuSans-74" x="1127.880859"/>
     <use xlink:href="#DejaVuSans-69" x="1167.089844"/>
     <use xlink:href="#DejaVuSans-6d" x="1194.873047"/>
     <use xlink:href="#DejaVuSans-65" x="1292.285156"/>
    </g>
   </g>
   <g id="legend_1">
    <g id="patch_7">
     <path d="M 53.965625 59.674375 
L 163.390625 59.674375 
Q 165.390625 59.674375 165.390625 57.674375 
L 165.390625 29.318125 
Q 165.390625 27.318125 163.390625 27.318125 
L 53.965625 27.318125 
Q 51.965625 27.318125 51.965625 29.318125 
L 51.965625 57.674375 
Q 51.965625 59.674375 53.965625 59.674375 
z
" style="fill: #ffffff; opacity: 0.8; stroke: #cccccc; stroke-linejoin: miter"/>
    </g>
    <g id="line2d_25">
     <path d="M 55.965625 35.416562 
L 65.965625 35.416562 
L 75.965625 35.416562 
" style="fill: none; stroke: #1f77b4; stroke-opacity: 0.8; stroke-width: 1.5; stroke-linecap: square"/>
    </g>
    <g id="text_17">
     <!-- # routers -->
     <g transform="translate(83.965625 38.916562) scale(0.1 -0.1)">
      <defs>
       <path id="DejaVuSans-23" d="M 3272 2816 
L 2363 2816 
L 2100 1772 
L 3016 1772 
L 3272 2816 
z
M 2803 4594 
L 2478 3297 
L 3391 3297 
L 3719 4594 
L 4219 4594 
L 3897 3297 
L 4872 3297 
L 4872 2816 
L 3775 2816 
L 3519 1772 
L 4513 1772 
L 4513 1294 
L 3397 1294 
L 3072 0 
L 2572 0 
L 2894 1294 
L 1978 1294 
L 1656 0 
L 1153 0 
L 1478 1294 
L 494 1294 
L 494 1772 
L 1594 1772 
L 1856 2816 
L 850 2816 
L 850 3297 
L 1978 3297 
L 2297 4594 
L 2803 4594 
z
" transform="scale(0.015625)"/>
      </defs>
      <use xlink:href="#DejaVuSans-23"/>
      <use xlink:href="#DejaVuSans-20" x="83.789062"/>
      <use xlink:href="#DejaVuSans-72" x="115.576172"/>
      <use xlink:href="#DejaVuSans-6f" x="154.439453"/>
      <use xlink:href="#DejaVuSans-75" x="215.621094"/>
      <use xlink:href="#DejaVuSans-74" x="279"/>
      <use xlink:href="#DejaVuSans-65" x="318.208984"/>
      <use xlink:href="#DejaVuSans-72" x="379.732422"/>
      <use xlink:href="#DejaVuSans-73" x="420.845703"/>
     </g>
    </g>
    <g id="line2d_26">
     <path d="M 55.965625 50.094687 
L 65.965625 50.094687 
L 75.965625 50.094687 
" style="fill: none; stroke: #ff7f0e; stroke-opacity: 0.8; stroke-width: 1.5; stroke-linecap: square"/>
    </g>
    <g id="text_18">
     <!-- # BGP sessions -->
     <g transform="translate(83.965625 53.594687) scale(0.1 -0.1)">
      <defs>
       <path id="DejaVuSans-42" d="M 1259 2228 
L 1259 519 
L 2272 519 
Q 2781 519 3026 730 
Q 3272 941 3272 1375 
Q 3272 1813 3026 2020 
Q 2781 2228 2272 2228 
L 1259 2228 
z
M 1259 4147 
L 1259 2741 
L 2194 2741 
Q 2656 2741 2882 2914 
Q 3109 3088 3109 3444 
Q 3109 3797 2882 3972 
Q 2656 4147 2194 4147 
L 1259 4147 
z
M 628 4666 
L 2241 4666 
Q 2963 4666 3353 4366 
Q 3744 4066 3744 3513 
Q 3744 3084 3544 2831 
Q 3344 2578 2956 2516 
Q 3422 2416 3680 2098 
Q 3938 1781 3938 1306 
Q 3938 681 3513 340 
Q 3088 0 2303 0 
L 628 0 
L 628 4666 
z
" transform="scale(0.015625)"/>
       <path id="DejaVuSans-50" d="M 1259 4147 
L 1259 2394 
L 2053 2394 
Q 2494 2394 2734 2622 
Q 2975 2850 2975 3272 
Q 2975 3691 2734 3919 
Q 2494 4147 2053 4147 
L 1259 4147 
z
M 628 4666 
L 2053 4666 
Q 2838 4666 3239 4311 
Q 3641 3956 3641 3272 
Q 3641 2581 3239 2228 
Q 2838 1875 2053 1875 
L 1259 1875 
L 1259 0 
L 628 0 
L 628 4666 
z
" transform="scale(0.015625)"/>
      </defs>
      <use xlink:href="#DejaVuSans-23"/>
      <use xlink:href="#DejaVuSans-20" x="83.789062"/>
      <use xlink:href="#DejaVuSans-42" x="115.576172"/>
      <use xlink:href="#DejaVuSans-47" x="182.429688"/>
      <use xlink:href="#DejaVuSans-50" x="259.919922"/>
      <use xlink:href="#DejaVuSans-20" x="320.222656"/>
      <use xlink:href="#DejaVuSans-73" x="352.009766"/>
      <use xlink:href="#DejaVuSans-65" x="404.109375"/>
      <use xlink:href="#DejaVuSans-73" x="465.632812"/>
      <use xlink:href="#DejaVuSans-73" x="517.732422"/>
      <use xlink:href="#DejaVuSans-69" x="569.832031"/>
      <use xlink:href="#DejaVuSans-6f" x="597.615234"/>
      <use xlink:href="#DejaVuSans-6e" x="658.796875"/>
      <use xlink:href="#DejaVuSans-73" x="722.175781"/>
     </g>
    </g>
   </g>
  </g>
 </g>
 <defs>
  <clipPath id="pda0fe21df8">
   <rect x="46.965625" y="22.318125" width="558" height="443.52"/>
  </clipPath>
 </defs>
</svg>
