<?xml version="1.0" encoding="utf-8" standalone="no"?>
<!DOCTYPE svg PUBLIC "-//W3C//DTD SVG 1.1//EN"
  "http://www.w3.org/Graphics/SVG/1.1/DTD/svg11.dtd">
<!-- Created with matplotlib (https://matplotlib.org/) -->
<svg height="471.149158pt" version="1.1" viewBox="0 0 605.803125 471.149158" width="605.803125pt" xmlns="http://www.w3.org/2000/svg" xmlns:xlink="http://www.w3.org/1999/xlink">
 <metadata>
  <rdf:RDF xmlns:cc="http://creativecommons.org/ns#" xmlns:dc="http://purl.org/dc/elements/1.1/" xmlns:rdf="http://www.w3.org/1999/02/22-rdf-syntax-ns#">
   <cc:Work>
    <dc:type rdf:resource="http://purl.org/dc/dcmitype/StillImage"/>
    <dc:date>2020-12-29T21:47:53.373215</dc:date>
    <dc:format>image/svg+xml</dc:format>
    <dc:creator>
     <cc:Agent>
      <dc:title>Matplotlib v3.3.2, https://matplotlib.org/</dc:title>
     </cc:Agent>
    </dc:creator>
   </cc:Work>
  </rdf:RDF>
 </metadata>
 <defs>
  <style type="text/css">*{stroke-linecap:butt;stroke-linejoin:round;}</style>
 </defs>
 <g id="figure_1">
  <g id="patch_1">
   <path d="M 0 471.149158 
L 605.803125 471.149158 
L 605.803125 0 
L 0 0 
z
" style="fill:#ffffff;"/>
  </g>
  <g id="axes_1">
   <g id="patch_2">
    <path d="M 40.603125 413.998125 
L 598.603125 413.998125 
L 598.603125 22.318125 
L 40.603125 22.318125 
z
" style="fill:#ffffff;"/>
   </g>
   <g id="matplotlib.axis_1">
    <g id="xtick_1">
     <g id="line2d_1">
      <path clip-path="url(#p9a3ad97d93)" d="M 72.422733 413.998125 
L 72.422733 22.318125 
" style="fill:none;stroke:#b0b0b0;stroke-linecap:square;stroke-opacity:0.6;stroke-width:0.8;"/>
     </g>
     <g id="line2d_2">
      <defs>
       <path d="M 0 0 
L 0 3.5 
" id="m1a2324b93e" style="stroke:#000000;stroke-width:0.8;"/>
      </defs>
      <g>
       <use style="stroke:#000000;stroke-width:0.8;" x="72.422733" xlink:href="#m1a2324b93e" y="413.998125"/>
      </g>
     </g>
     <g id="text_1">
      <text style="font-family:DejaVu Sans;font-size:10px;font-stretch:normal;font-style:normal;font-weight:normal;" transform="translate(35.197913 448.469971)rotate(-30)">2020-05</text>
     </g>
    </g>
    <g id="xtick_2">
     <g id="line2d_3">
      <path clip-path="url(#p9a3ad97d93)" d="M 143.239582 413.998125 
L 143.239582 22.318125 
" style="fill:none;stroke:#b0b0b0;stroke-linecap:square;stroke-opacity:0.6;stroke-width:0.8;"/>
     </g>
     <g id="line2d_4">
      <g>
       <use style="stroke:#000000;stroke-width:0.8;" x="143.239582" xlink:href="#m1a2324b93e" y="413.998125"/>
      </g>
     </g>
     <g id="text_2">
      <text style="font-family:DejaVu Sans;font-size:10px;font-stretch:normal;font-style:normal;font-weight:normal;" transform="translate(106.014762 448.469971)rotate(-30)">2020-06</text>
     </g>
    </g>
    <g id="xtick_3">
     <g id="line2d_5">
      <path clip-path="url(#p9a3ad97d93)" d="M 216.416993 413.998125 
L 216.416993 22.318125 
" style="fill:none;stroke:#b0b0b0;stroke-linecap:square;stroke-opacity:0.6;stroke-width:0.8;"/>
     </g>
     <g id="line2d_6">
      <g>
       <use style="stroke:#000000;stroke-width:0.8;" x="216.416993" xlink:href="#m1a2324b93e" y="413.998125"/>
      </g>
     </g>
     <g id="text_3">
      <text style="font-family:DejaVu Sans;font-size:10px;font-stretch:normal;font-style:normal;font-weight:normal;" transform="translate(179.192172 448.469971)rotate(-30)">2020-07</text>
     </g>
    </g>
    <g id="xtick_4">
     <g id="line2d_7">
      <path clip-path="url(#p9a3ad97d93)" d="M 289.594403 413.998125 
L 289.594403 22.318125 
" style="fill:none;stroke:#b0b0b0;stroke-linecap:square;stroke-opacity:0.6;stroke-width:0.8;"/>
     </g>
     <g id="line2d_8">
      <g>
       <use style="stroke:#000000;stroke-width:0.8;" x="289.594403" xlink:href="#m1a2324b93e" y="413.998125"/>
      </g>
     </g>
     <g id="text_4">
      <text style="font-family:DejaVu Sans;font-size:10px;font-stretch:normal;font-style:normal;font-weight:normal;" transform="translate(252.369583 448.469971)rotate(-30)">2020-08</text>
     </g>
    </g>
    <g id="xtick_5">
     <g id="line2d_9">
      <path clip-path="url(#p9a3ad97d93)" d="M 360.411252 413.998125 
L 360.411252 22.318125 
" style="fill:none;stroke:#b0b0b0;stroke-linecap:square;stroke-opacity:0.6;stroke-width:0.8;"/>
     </g>
     <g id="line2d_10">
      <g>
       <use style="stroke:#000000;stroke-width:0.8;" x="360.411252" xlink:href="#m1a2324b93e" y="413.998125"/>
      </g>
     </g>
     <g id="text_5">
      <text style="font-family:DejaVu Sans;font-size:10px;font-stretch:normal;font-style:normal;font-weight:normal;" transform="translate(323.186431 448.469971)rotate(-30)">2020-09</text>
     </g>
    </g>
    <g id="xtick_6">
     <g id="line2d_11">
      <path clip-path="url(#p9a3ad97d93)" d="M 433.588663 413.998125 
L 433.588663 22.318125 
" style="fill:none;stroke:#b0b0b0;stroke-linecap:square;stroke-opacity:0.6;stroke-width:0.8;"/>
     </g>
     <g id="line2d_12">
      <g>
       <use style="stroke:#000000;stroke-width:0.8;" x="433.588663" xlink:href="#m1a2324b93e" y="413.998125"/>
      </g>
     </g>
     <g id="text_6">
      <text style="font-family:DejaVu Sans;font-size:10px;font-stretch:normal;font-style:normal;font-weight:normal;" transform="translate(396.363842 448.469971)rotate(-30)">2020-10</text>
     </g>
    </g>
    <g id="xtick_7">
     <g id="line2d_13">
      <path clip-path="url(#p9a3ad97d93)" d="M 504.405512 413.998125 
L 504.405512 22.318125 
" style="fill:none;stroke:#b0b0b0;stroke-linecap:square;stroke-opacity:0.6;stroke-width:0.8;"/>
     </g>
     <g id="line2d_14">
      <g>
       <use style="stroke:#000000;stroke-width:0.8;" x="504.405512" xlink:href="#m1a2324b93e" y="413.998125"/>
      </g>
     </g>
     <g id="text_7">
      <text style="font-family:DejaVu Sans;font-size:10px;font-stretch:normal;font-style:normal;font-weight:normal;" transform="translate(467.180691 448.469971)rotate(-30)">2020-11</text>
     </g>
    </g>
    <g id="xtick_8">
     <g id="line2d_15">
      <path clip-path="url(#p9a3ad97d93)" d="M 577.582922 413.998125 
L 577.582922 22.318125 
" style="fill:none;stroke:#b0b0b0;stroke-linecap:square;stroke-opacity:0.6;stroke-width:0.8;"/>
     </g>
     <g id="line2d_16">
      <g>
       <use style="stroke:#000000;stroke-width:0.8;" x="577.582922" xlink:href="#m1a2324b93e" y="413.998125"/>
      </g>
     </g>
     <g id="text_8">
      <text style="font-family:DejaVu Sans;font-size:10px;font-stretch:normal;font-style:normal;font-weight:normal;" transform="translate(540.358101 448.469971)rotate(-30)">2020-12</text>
     </g>
    </g>
    <g id="text_9">
     <text style="font-family:DejaVu Sans;font-size:10px;font-stretch:normal;font-style:normal;font-weight:normal;text-anchor:middle;" transform="rotate(-0, 319.603125, 461.869471)" x="319.603125" y="461.869471">Date</text>
    </g>
   </g>
   <g id="matplotlib.axis_2">
    <g id="ytick_1">
     <g id="line2d_17">
      <path clip-path="url(#p9a3ad97d93)" d="M 40.603125 400.536839 
L 598.603125 400.536839 
" style="fill:none;stroke:#b0b0b0;stroke-linecap:square;stroke-opacity:0.6;stroke-width:0.8;"/>
     </g>
     <g id="line2d_18">
      <defs>
       <path d="M 0 0 
L -3.5 0 
" id="m840b3529cb" style="stroke:#000000;stroke-width:0.8;"/>
      </defs>
      <g>
       <use style="stroke:#000000;stroke-width:0.8;" x="40.603125" xlink:href="#m840b3529cb" y="400.536839"/>
      </g>
     </g>
     <g id="text_10">
      <text style="font-family:DejaVu Sans;font-size:10px;font-stretch:normal;font-style:normal;font-weight:normal;text-anchor:end;" transform="rotate(-0, 33.603125, 404.336058)" x="33.603125" y="404.336058">0</text>
     </g>
    </g>
    <g id="ytick_2">
     <g id="line2d_19">
      <path clip-path="url(#p9a3ad97d93)" d="M 40.603125 313.689832 
L 598.603125 313.689832 
" style="fill:none;stroke:#b0b0b0;stroke-linecap:square;stroke-opacity:0.6;stroke-width:0.8;"/>
     </g>
     <g id="line2d_20">
      <g>
       <use style="stroke:#000000;stroke-width:0.8;" x="40.603125" xlink:href="#m840b3529cb" y="313.689832"/>
      </g>
     </g>
     <g id="text_11">
      <text style="font-family:DejaVu Sans;font-size:10px;font-stretch:normal;font-style:normal;font-weight:normal;text-anchor:end;" transform="rotate(-0, 33.603125, 317.489051)" x="33.603125" y="317.489051">20</text>
     </g>
    </g>
    <g id="ytick_3">
     <g id="line2d_21">
      <path clip-path="url(#p9a3ad97d93)" d="M 40.603125 226.842826 
L 598.603125 226.842826 
" style="fill:none;stroke:#b0b0b0;stroke-linecap:square;stroke-opacity:0.6;stroke-width:0.8;"/>
     </g>
     <g id="line2d_22">
      <g>
       <use style="stroke:#000000;stroke-width:0.8;" x="40.603125" xlink:href="#m840b3529cb" y="226.842826"/>
      </g>
     </g>
     <g id="text_12">
      <text style="font-family:DejaVu Sans;font-size:10px;font-stretch:normal;font-style:normal;font-weight:normal;text-anchor:end;" transform="rotate(-0, 33.603125, 230.642044)" x="33.603125" y="230.642044">40</text>
     </g>
    </g>
    <g id="ytick_4">
     <g id="line2d_23">
      <path clip-path="url(#p9a3ad97d93)" d="M 40.603125 139.995819 
L 598.603125 139.995819 
" style="fill:none;stroke:#b0b0b0;stroke-linecap:square;stroke-opacity:0.6;stroke-width:0.8;"/>
     </g>
     <g id="line2d_24">
      <g>
       <use style="stroke:#000000;stroke-width:0.8;" x="40.603125" xlink:href="#m840b3529cb" y="139.995819"/>
      </g>
     </g>
     <g id="text_13">
      <text style="font-family:DejaVu Sans;font-size:10px;font-stretch:normal;font-style:normal;font-weight:normal;text-anchor:end;" transform="rotate(-0, 33.603125, 143.795038)" x="33.603125" y="143.795038">60</text>
     </g>
    </g>
    <g id="ytick_5">
     <g id="line2d_25">
      <path clip-path="url(#p9a3ad97d93)" d="M 40.603125 53.148812 
L 598.603125 53.148812 
" style="fill:none;stroke:#b0b0b0;stroke-linecap:square;stroke-opacity:0.6;stroke-width:0.8;"/>
     </g>
     <g id="line2d_26">
      <g>
       <use style="stroke:#000000;stroke-width:0.8;" x="40.603125" xlink:href="#m840b3529cb" y="53.148812"/>
      </g>
     </g>
     <g id="text_14">
      <text style="font-family:DejaVu Sans;font-size:10px;font-stretch:normal;font-style:normal;font-weight:normal;text-anchor:end;" transform="rotate(-0, 33.603125, 56.948031)" x="33.603125" y="56.948031">80</text>
     </g>
    </g>
    <g id="text_15">
     <text style="font-family:DejaVu Sans;font-size:10px;font-stretch:normal;font-style:normal;font-weight:normal;text-anchor:middle;" transform="rotate(-90, 14.798437, 218.158125)" x="14.798437" y="218.158125">Count</text>
    </g>
   </g>
   <g id="line2d_27">
    <path clip-path="url(#p9a3ad97d93)" d="M 573.239489 361.455686 
L 569.16599 361.455686 
L 568.54473 365.798036 
L 550.112569 365.798036 
L 550.0944 370.140387 
L 511.552003 370.140387 
L 506.286393 374.482737 
L 271.008915 374.482737 
L 270.894193 378.825087 
L 231.331016 378.825087 
L 231.255664 383.167438 
L 175.599494 383.167438 
L 174.295366 387.509788 
L 113.156 387.509788 
L 110.850136 391.852138 
L 68.419614 391.852138 
L 65.966761 396.194489 
L 65.966761 396.194489 
" style="fill:none;stroke:#1f77b4;stroke-linecap:square;stroke-opacity:0.8;stroke-width:1.5;"/>
   </g>
   <g id="line2d_28">
    <path clip-path="url(#p9a3ad97d93)" d="M 573.239489 40.121761 
L 573.213151 44.464112 
L 572.488699 44.464112 
L 572.447963 61.833513 
L 570.578966 61.833513 
L 570.406787 66.175863 
L 570.192943 66.175863 
L 569.16599 70.518214 
L 568.54473 79.202914 
L 568.045789 79.202914 
L 567.969453 83.545265 
L 567.858255 92.229965 
L 565.860985 96.572316 
L 550.112569 96.572316 
L 550.0944 105.257016 
L 532.782905 105.257016 
L 532.78244 113.941717 
L 524.146473 113.941717 
L 524.137266 92.229965 
L 511.552003 92.229965 
L 506.286393 96.572316 
L 490.2393 100.914666 
L 478.85541 100.914666 
L 471.720585 105.257016 
L 464.321427 105.257016 
L 462.61827 109.599367 
L 458.019874 113.941717 
L 457.042673 118.284067 
L 457.041061 126.968768 
L 450.360125 126.968768 
L 444.848542 135.653469 
L 435.525525 135.653469 
L 435.524105 139.995819 
L 412.671874 139.995819 
L 402.351985 144.338169 
L 393.283849 144.338169 
L 393.09555 148.68052 
L 389.403402 153.02287 
L 384.508352 153.02287 
L 383.723137 157.36522 
L 383.72199 148.68052 
L 383.627485 153.02287 
L 382.576653 157.36522 
L 382.573401 166.049921 
L 335.272009 166.049921 
L 334.619712 174.734622 
L 334.618182 179.076972 
L 327.135776 179.076972 
L 310.371662 183.419322 
L 310.384613 187.761673 
L 310.366635 187.761673 
L 287.730652 187.761673 
L 287.023632 196.446373 
L 287.003796 200.788724 
L 273.789706 200.788724 
L 273.789241 205.131074 
L 273.223362 205.131074 
L 272.4726 209.473424 
L 270.894193 235.527526 
L 268.317437 235.527526 
L 265.440366 239.869877 
L 263.652268 239.869877 
L 263.039205 248.554577 
L 259.088762 252.896928 
L 249.545727 252.896928 
L 249.54477 261.581628 
L 240.072744 261.581628 
L 237.283757 265.923979 
L 237.129992 270.266329 
L 234.777299 270.266329 
L 233.322302 278.95103 
L 233.156599 283.29338 
L 231.331016 287.63573 
L 231.255664 291.978081 
L 199.878144 291.978081 
L 199.417834 300.662781 
L 194.984077 300.662781 
L 190.849296 305.005132 
L 186.070279 305.005132 
L 183.014718 309.347482 
L 180.632081 309.347482 
L 178.907477 313.689832 
L 178.610057 318.032183 
L 178.22092 318.032183 
L 178.044452 322.374533 
L 175.599494 326.716883 
L 174.295366 339.743934 
L 142.732226 339.743934 
L 138.812218 344.086285 
L 124.999408 344.086285 
L 124.998943 348.428635 
L 116.961778 348.428635 
L 114.808257 352.770985 
L 113.156 352.770985 
L 110.850136 361.455686 
L 98.994133 361.455686 
L 97.740768 365.798036 
L 90.6328 365.798036 
L 90.596053 370.140387 
L 89.564646 374.482737 
L 84.965485 374.482737 
L 84.465969 378.825087 
L 72.168099 383.167438 
L 68.419614 383.167438 
L 65.966761 387.509788 
L 65.966761 387.509788 
" style="fill:none;stroke:#ff7f0e;stroke-linecap:square;stroke-opacity:0.8;stroke-width:1.5;"/>
   </g>
   <g id="line2d_29">
    <path clip-path="url(#p9a3ad97d93)" d="M 573.239489 166.049921 
L 573.213151 170.392271 
L 572.488699 170.392271 
L 572.447963 174.734622 
L 570.578966 174.734622 
L 570.406787 179.076972 
L 567.969453 179.076972 
L 567.858255 183.419322 
L 565.860985 187.761673 
L 550.095029 187.761673 
L 550.0944 192.104023 
L 532.782905 192.104023 
L 532.78244 196.446373 
L 524.146473 196.446373 
L 524.137266 183.419322 
L 511.552003 183.419322 
L 506.286393 187.761673 
L 478.85541 187.761673 
L 471.720585 192.104023 
L 464.321427 192.104023 
L 462.61827 196.446373 
L 458.019874 200.788724 
L 457.042673 200.788724 
L 457.041061 209.473424 
L 450.360125 209.473424 
L 444.848542 213.815775 
L 435.525525 213.815775 
L 435.524105 218.158125 
L 412.671874 218.158125 
L 402.351985 222.500475 
L 393.283849 222.500475 
L 393.09555 226.842826 
L 384.508352 226.842826 
L 383.72199 231.185176 
L 383.627485 235.527526 
L 382.576653 239.869877 
L 382.573401 248.554577 
L 334.619712 248.554577 
L 334.618182 252.896928 
L 327.135776 252.896928 
L 310.366635 257.239278 
L 287.730652 257.239278 
L 287.023632 261.581628 
L 287.003796 265.923979 
L 273.789706 265.923979 
L 273.789241 270.266329 
L 273.223362 270.266329 
L 272.4726 274.608679 
L 271.008915 278.95103 
L 268.317437 278.95103 
L 265.440366 283.29338 
L 263.652268 283.29338 
L 263.039205 287.63573 
L 259.088762 291.978081 
L 249.545727 291.978081 
L 249.54477 296.320431 
L 240.072744 296.320431 
L 237.283757 300.662781 
L 237.129992 305.005132 
L 234.777299 305.005132 
L 233.322302 309.347482 
L 233.156599 313.689832 
L 231.331016 318.032183 
L 231.255664 322.374533 
L 199.640531 322.374533 
L 199.417834 326.716883 
L 194.984077 326.716883 
L 190.849296 331.059234 
L 186.070279 331.059234 
L 183.014718 335.401584 
L 178.907477 335.401584 
L 178.610057 339.743934 
L 178.22092 339.743934 
L 178.044452 344.086285 
L 175.599494 344.086285 
L 174.295366 348.428635 
L 142.732226 348.428635 
L 138.812218 352.770985 
L 124.999408 352.770985 
L 124.998943 357.113336 
L 116.961778 357.113336 
L 114.808257 361.455686 
L 113.156 361.455686 
L 110.850136 365.798036 
L 98.994133 365.798036 
L 97.740768 370.140387 
L 90.596053 370.140387 
L 89.564646 374.482737 
L 84.965485 374.482737 
L 84.465969 378.825087 
L 72.168099 383.167438 
L 68.419614 383.167438 
L 65.966761 387.509788 
L 65.966761 387.509788 
" style="fill:none;stroke:#2ca02c;stroke-linecap:square;stroke-opacity:0.8;stroke-width:1.5;"/>
   </g>
   <g id="patch_3">
    <path d="M 40.603125 413.998125 
L 40.603125 22.318125 
" style="fill:none;stroke:#000000;stroke-linecap:square;stroke-linejoin:miter;stroke-width:0.8;"/>
   </g>
   <g id="patch_4">
    <path d="M 598.603125 413.998125 
L 598.603125 22.318125 
" style="fill:none;stroke:#000000;stroke-linecap:square;stroke-linejoin:miter;stroke-width:0.8;"/>
   </g>
   <g id="patch_5">
    <path d="M 40.603125 413.998125 
L 598.603125 413.998125 
" style="fill:none;stroke:#000000;stroke-linecap:square;stroke-linejoin:miter;stroke-width:0.8;"/>
   </g>
   <g id="patch_6">
    <path d="M 40.603125 22.318125 
L 598.603125 22.318125 
" style="fill:none;stroke:#000000;stroke-linecap:square;stroke-linejoin:miter;stroke-width:0.8;"/>
   </g>
   <g id="text_16">
    <text style="font-family:DejaVu Sans;font-size:10px;font-stretch:normal;font-style:normal;font-weight:normal;text-anchor:start;" transform="rotate(-0, 573.239489, 361.455686)" x="573.239489" y="361.455686">9</text>
   </g>
   <g id="text_17">
    <text style="font-family:DejaVu Sans;font-size:10px;font-stretch:normal;font-style:normal;font-weight:normal;text-anchor:start;" transform="rotate(-0, 573.239489, 40.121761)" x="573.239489" y="40.121761">83</text>
   </g>
   <g id="text_18">
    <text style="font-family:DejaVu Sans;font-size:10px;font-stretch:normal;font-style:normal;font-weight:normal;text-anchor:start;" transform="rotate(-0, 573.239489, 166.049921)" x="573.239489" y="166.049921">54</text>
   </g>
   <g id="text_19">
    <text style="font-family:DejaVu Sans;font-size:12px;font-stretch:normal;font-style:normal;font-weight:normal;text-anchor:middle;" transform="rotate(-0, 319.603125, 16.318125)" x="319.603125" y="16.318125">Peers over time</text>
   </g>
   <g id="legend_1">
    <g id="patch_7">
     <path d="M 47.603125 74.3525 
L 178.88125 74.3525 
Q 180.88125 74.3525 180.88125 72.3525 
L 180.88125 29.318125 
Q 180.88125 27.318125 178.88125 27.318125 
L 47.603125 27.318125 
Q 45.603125 27.318125 45.603125 29.318125 
L 45.603125 72.3525 
Q 45.603125 74.3525 47.603125 74.3525 
z
" style="fill:#ffffff;opacity:0.8;stroke:#cccccc;stroke-linejoin:miter;"/>
    </g>
    <g id="line2d_30">
     <path d="M 49.603125 35.416562 
L 69.603125 35.416562 
" style="fill:none;stroke:#1f77b4;stroke-linecap:square;stroke-opacity:0.8;stroke-width:1.5;"/>
    </g>
    <g id="line2d_31"/>
    <g id="text_20">
     <text style="font-family:DejaVu Sans;font-size:10px;font-stretch:normal;font-style:normal;font-weight:normal;text-anchor:start;" transform="rotate(-0, 77.603125, 38.916562)" x="77.603125" y="38.916562">eBGP routers</text>
    </g>
    <g id="line2d_32">
     <path d="M 49.603125 50.094687 
L 69.603125 50.094687 
" style="fill:none;stroke:#ff7f0e;stroke-linecap:square;stroke-opacity:0.8;stroke-width:1.5;"/>
    </g>
    <g id="line2d_33"/>
    <g id="text_21">
     <text style="font-family:DejaVu Sans;font-size:10px;font-stretch:normal;font-style:normal;font-weight:normal;text-anchor:start;" transform="rotate(-0, 77.603125, 53.594687)" x="77.603125" y="53.594687">total eBGP peerings</text>
    </g>
    <g id="line2d_34">
     <path d="M 49.603125 64.772812 
L 69.603125 64.772812 
" style="fill:none;stroke:#2ca02c;stroke-linecap:square;stroke-opacity:0.8;stroke-width:1.5;"/>
    </g>
    <g id="line2d_35"/>
    <g id="text_22">
     <text style="font-family:DejaVu Sans;font-size:10px;font-stretch:normal;font-style:normal;font-weight:normal;text-anchor:start;" transform="rotate(-0, 77.603125, 68.272812)" x="77.603125" y="68.272812">unique eBGP peers</text>
    </g>
   </g>
  </g>
 </g>
 <defs>
  <clipPath id="p9a3ad97d93">
   <rect height="391.68" width="558" x="40.603125" y="22.318125"/>
  </clipPath>
 </defs>
</svg>
