<?xml version="1.0" encoding="utf-8" standalone="no"?>
<!DOCTYPE svg PUBLIC "-//W3C//DTD SVG 1.1//EN"
  "http://www.w3.org/Graphics/SVG/1.1/DTD/svg11.dtd">
<!-- Created with matplotlib (https://matplotlib.org/) -->
<svg height="471.149158pt" version="1.1" viewBox="0 0 605.803125 471.149158" width="605.803125pt" xmlns="http://www.w3.org/2000/svg" xmlns:xlink="http://www.w3.org/1999/xlink">
 <metadata>
  <rdf:RDF xmlns:cc="http://creativecommons.org/ns#" xmlns:dc="http://purl.org/dc/elements/1.1/" xmlns:rdf="http://www.w3.org/1999/02/22-rdf-syntax-ns#">
   <cc:Work>
    <dc:type rdf:resource="http://purl.org/dc/dcmitype/StillImage"/>
    <dc:date>2020-12-27T15:05:24.200365</dc:date>
    <dc:format>image/svg+xml</dc:format>
    <dc:creator>
     <cc:Agent>
      <dc:title>Matplotlib v3.3.2, https://matplotlib.org/</dc:title>
     </cc:Agent>
    </dc:creator>
   </cc:Work>
  </rdf:RDF>
 </metadata>
 <defs>
  <style type="text/css">*{stroke-linecap:butt;stroke-linejoin:round;}</style>
 </defs>
 <g id="figure_1">
  <g id="patch_1">
   <path d="M 0 471.149158 
L 605.803125 471.149158 
L 605.803125 0 
L 0 0 
z
" style="fill:#ffffff;"/>
  </g>
  <g id="axes_1">
   <g id="patch_2">
    <path d="M 40.603125 413.998125 
L 598.603125 413.998125 
L 598.603125 22.318125 
L 40.603125 22.318125 
z
" style="fill:#ffffff;"/>
   </g>
   <g id="matplotlib.axis_1">
    <g id="xtick_1">
     <g id="line2d_1">
      <path clip-path="url(#pe61dc89801)" d="M 72.489517 413.998125 
L 72.489517 22.318125 
" style="fill:none;stroke:#b0b0b0;stroke-linecap:square;stroke-opacity:0.6;stroke-width:0.8;"/>
     </g>
     <g id="line2d_2">
      <defs>
       <path d="M 0 0 
L 0 3.5 
" id="m56347ccbf3" style="stroke:#000000;stroke-width:0.8;"/>
      </defs>
      <g>
       <use style="stroke:#000000;stroke-width:0.8;" x="72.489517" xlink:href="#m56347ccbf3" y="413.998125"/>
      </g>
     </g>
     <g id="text_1">
      <text style="font-family:DejaVu Sans;font-size:10px;font-stretch:normal;font-style:normal;font-weight:normal;" transform="translate(35.264696 448.469971)rotate(-30)">2020-05</text>
     </g>
    </g>
    <g id="xtick_2">
     <g id="line2d_3">
      <path clip-path="url(#pe61dc89801)" d="M 144.038922 413.998125 
L 144.038922 22.318125 
" style="fill:none;stroke:#b0b0b0;stroke-linecap:square;stroke-opacity:0.6;stroke-width:0.8;"/>
     </g>
     <g id="line2d_4">
      <g>
       <use style="stroke:#000000;stroke-width:0.8;" x="144.038922" xlink:href="#m56347ccbf3" y="413.998125"/>
      </g>
     </g>
     <g id="text_2">
      <text style="font-family:DejaVu Sans;font-size:10px;font-stretch:normal;font-style:normal;font-weight:normal;" transform="translate(106.814102 448.469971)rotate(-30)">2020-06</text>
     </g>
    </g>
    <g id="xtick_3">
     <g id="line2d_5">
      <path clip-path="url(#pe61dc89801)" d="M 217.973308 413.998125 
L 217.973308 22.318125 
" style="fill:none;stroke:#b0b0b0;stroke-linecap:square;stroke-opacity:0.6;stroke-width:0.8;"/>
     </g>
     <g id="line2d_6">
      <g>
       <use style="stroke:#000000;stroke-width:0.8;" x="217.973308" xlink:href="#m56347ccbf3" y="413.998125"/>
      </g>
     </g>
     <g id="text_3">
      <text style="font-family:DejaVu Sans;font-size:10px;font-stretch:normal;font-style:normal;font-weight:normal;" transform="translate(180.748488 448.469971)rotate(-30)">2020-07</text>
     </g>
    </g>
    <g id="xtick_4">
     <g id="line2d_7">
      <path clip-path="url(#pe61dc89801)" d="M 291.907694 413.998125 
L 291.907694 22.318125 
" style="fill:none;stroke:#b0b0b0;stroke-linecap:square;stroke-opacity:0.6;stroke-width:0.8;"/>
     </g>
     <g id="line2d_8">
      <g>
       <use style="stroke:#000000;stroke-width:0.8;" x="291.907694" xlink:href="#m56347ccbf3" y="413.998125"/>
      </g>
     </g>
     <g id="text_4">
      <text style="font-family:DejaVu Sans;font-size:10px;font-stretch:normal;font-style:normal;font-weight:normal;" transform="translate(254.682874 448.469971)rotate(-30)">2020-08</text>
     </g>
    </g>
    <g id="xtick_5">
     <g id="line2d_9">
      <path clip-path="url(#pe61dc89801)" d="M 363.4571 413.998125 
L 363.4571 22.318125 
" style="fill:none;stroke:#b0b0b0;stroke-linecap:square;stroke-opacity:0.6;stroke-width:0.8;"/>
     </g>
     <g id="line2d_10">
      <g>
       <use style="stroke:#000000;stroke-width:0.8;" x="363.4571" xlink:href="#m56347ccbf3" y="413.998125"/>
      </g>
     </g>
     <g id="text_5">
      <text style="font-family:DejaVu Sans;font-size:10px;font-stretch:normal;font-style:normal;font-weight:normal;" transform="translate(326.232279 448.469971)rotate(-30)">2020-09</text>
     </g>
    </g>
    <g id="xtick_6">
     <g id="line2d_11">
      <path clip-path="url(#pe61dc89801)" d="M 437.391486 413.998125 
L 437.391486 22.318125 
" style="fill:none;stroke:#b0b0b0;stroke-linecap:square;stroke-opacity:0.6;stroke-width:0.8;"/>
     </g>
     <g id="line2d_12">
      <g>
       <use style="stroke:#000000;stroke-width:0.8;" x="437.391486" xlink:href="#m56347ccbf3" y="413.998125"/>
      </g>
     </g>
     <g id="text_6">
      <text style="font-family:DejaVu Sans;font-size:10px;font-stretch:normal;font-style:normal;font-weight:normal;" transform="translate(400.166665 448.469971)rotate(-30)">2020-10</text>
     </g>
    </g>
    <g id="xtick_7">
     <g id="line2d_13">
      <path clip-path="url(#pe61dc89801)" d="M 508.940892 413.998125 
L 508.940892 22.318125 
" style="fill:none;stroke:#b0b0b0;stroke-linecap:square;stroke-opacity:0.6;stroke-width:0.8;"/>
     </g>
     <g id="line2d_14">
      <g>
       <use style="stroke:#000000;stroke-width:0.8;" x="508.940892" xlink:href="#m56347ccbf3" y="413.998125"/>
      </g>
     </g>
     <g id="text_7">
      <text style="font-family:DejaVu Sans;font-size:10px;font-stretch:normal;font-style:normal;font-weight:normal;" transform="translate(471.716071 448.469971)rotate(-30)">2020-11</text>
     </g>
    </g>
    <g id="xtick_8">
     <g id="line2d_15">
      <path clip-path="url(#pe61dc89801)" d="M 582.875278 413.998125 
L 582.875278 22.318125 
" style="fill:none;stroke:#b0b0b0;stroke-linecap:square;stroke-opacity:0.6;stroke-width:0.8;"/>
     </g>
     <g id="line2d_16">
      <g>
       <use style="stroke:#000000;stroke-width:0.8;" x="582.875278" xlink:href="#m56347ccbf3" y="413.998125"/>
      </g>
     </g>
     <g id="text_8">
      <text style="font-family:DejaVu Sans;font-size:10px;font-stretch:normal;font-style:normal;font-weight:normal;" transform="translate(545.650457 448.469971)rotate(-30)">2020-12</text>
     </g>
    </g>
    <g id="text_9">
     <text style="font-family:DejaVu Sans;font-size:10px;font-stretch:normal;font-style:normal;font-weight:normal;text-anchor:middle;" transform="rotate(-0, 319.603125, 461.869471)" x="319.603125" y="461.869471">Date</text>
    </g>
   </g>
   <g id="matplotlib.axis_2">
    <g id="ytick_1">
     <g id="line2d_17">
      <path clip-path="url(#pe61dc89801)" d="M 40.603125 401.072197 
L 598.603125 401.072197 
" style="fill:none;stroke:#b0b0b0;stroke-linecap:square;stroke-opacity:0.6;stroke-width:0.8;"/>
     </g>
     <g id="line2d_18">
      <defs>
       <path d="M 0 0 
L -3.5 0 
" id="mf6cb038dfe" style="stroke:#000000;stroke-width:0.8;"/>
      </defs>
      <g>
       <use style="stroke:#000000;stroke-width:0.8;" x="40.603125" xlink:href="#mf6cb038dfe" y="401.072197"/>
      </g>
     </g>
     <g id="text_10">
      <text style="font-family:DejaVu Sans;font-size:10px;font-stretch:normal;font-style:normal;font-weight:normal;text-anchor:end;" transform="rotate(-0, 33.603125, 404.871416)" x="33.603125" y="404.871416">0</text>
     </g>
    </g>
    <g id="ytick_2">
     <g id="line2d_19">
      <path clip-path="url(#pe61dc89801)" d="M 40.603125 352.295111 
L 598.603125 352.295111 
" style="fill:none;stroke:#b0b0b0;stroke-linecap:square;stroke-opacity:0.6;stroke-width:0.8;"/>
     </g>
     <g id="line2d_20">
      <g>
       <use style="stroke:#000000;stroke-width:0.8;" x="40.603125" xlink:href="#mf6cb038dfe" y="352.295111"/>
      </g>
     </g>
     <g id="text_11">
      <text style="font-family:DejaVu Sans;font-size:10px;font-stretch:normal;font-style:normal;font-weight:normal;text-anchor:end;" transform="rotate(-0, 33.603125, 356.09433)" x="33.603125" y="356.09433">10</text>
     </g>
    </g>
    <g id="ytick_3">
     <g id="line2d_21">
      <path clip-path="url(#pe61dc89801)" d="M 40.603125 303.518025 
L 598.603125 303.518025 
" style="fill:none;stroke:#b0b0b0;stroke-linecap:square;stroke-opacity:0.6;stroke-width:0.8;"/>
     </g>
     <g id="line2d_22">
      <g>
       <use style="stroke:#000000;stroke-width:0.8;" x="40.603125" xlink:href="#mf6cb038dfe" y="303.518025"/>
      </g>
     </g>
     <g id="text_12">
      <text style="font-family:DejaVu Sans;font-size:10px;font-stretch:normal;font-style:normal;font-weight:normal;text-anchor:end;" transform="rotate(-0, 33.603125, 307.317244)" x="33.603125" y="307.317244">20</text>
     </g>
    </g>
    <g id="ytick_4">
     <g id="line2d_23">
      <path clip-path="url(#pe61dc89801)" d="M 40.603125 254.740939 
L 598.603125 254.740939 
" style="fill:none;stroke:#b0b0b0;stroke-linecap:square;stroke-opacity:0.6;stroke-width:0.8;"/>
     </g>
     <g id="line2d_24">
      <g>
       <use style="stroke:#000000;stroke-width:0.8;" x="40.603125" xlink:href="#mf6cb038dfe" y="254.740939"/>
      </g>
     </g>
     <g id="text_13">
      <text style="font-family:DejaVu Sans;font-size:10px;font-stretch:normal;font-style:normal;font-weight:normal;text-anchor:end;" transform="rotate(-0, 33.603125, 258.540158)" x="33.603125" y="258.540158">30</text>
     </g>
    </g>
    <g id="ytick_5">
     <g id="line2d_25">
      <path clip-path="url(#pe61dc89801)" d="M 40.603125 205.963854 
L 598.603125 205.963854 
" style="fill:none;stroke:#b0b0b0;stroke-linecap:square;stroke-opacity:0.6;stroke-width:0.8;"/>
     </g>
     <g id="line2d_26">
      <g>
       <use style="stroke:#000000;stroke-width:0.8;" x="40.603125" xlink:href="#mf6cb038dfe" y="205.963854"/>
      </g>
     </g>
     <g id="text_14">
      <text style="font-family:DejaVu Sans;font-size:10px;font-stretch:normal;font-style:normal;font-weight:normal;text-anchor:end;" transform="rotate(-0, 33.603125, 209.763072)" x="33.603125" y="209.763072">40</text>
     </g>
    </g>
    <g id="ytick_6">
     <g id="line2d_27">
      <path clip-path="url(#pe61dc89801)" d="M 40.603125 157.186768 
L 598.603125 157.186768 
" style="fill:none;stroke:#b0b0b0;stroke-linecap:square;stroke-opacity:0.6;stroke-width:0.8;"/>
     </g>
     <g id="line2d_28">
      <g>
       <use style="stroke:#000000;stroke-width:0.8;" x="40.603125" xlink:href="#mf6cb038dfe" y="157.186768"/>
      </g>
     </g>
     <g id="text_15">
      <text style="font-family:DejaVu Sans;font-size:10px;font-stretch:normal;font-style:normal;font-weight:normal;text-anchor:end;" transform="rotate(-0, 33.603125, 160.985986)" x="33.603125" y="160.985986">50</text>
     </g>
    </g>
    <g id="ytick_7">
     <g id="line2d_29">
      <path clip-path="url(#pe61dc89801)" d="M 40.603125 108.409682 
L 598.603125 108.409682 
" style="fill:none;stroke:#b0b0b0;stroke-linecap:square;stroke-opacity:0.6;stroke-width:0.8;"/>
     </g>
     <g id="line2d_30">
      <g>
       <use style="stroke:#000000;stroke-width:0.8;" x="40.603125" xlink:href="#mf6cb038dfe" y="108.409682"/>
      </g>
     </g>
     <g id="text_16">
      <text style="font-family:DejaVu Sans;font-size:10px;font-stretch:normal;font-style:normal;font-weight:normal;text-anchor:end;" transform="rotate(-0, 33.603125, 112.2089)" x="33.603125" y="112.2089">60</text>
     </g>
    </g>
    <g id="ytick_8">
     <g id="line2d_31">
      <path clip-path="url(#pe61dc89801)" d="M 40.603125 59.632596 
L 598.603125 59.632596 
" style="fill:none;stroke:#b0b0b0;stroke-linecap:square;stroke-opacity:0.6;stroke-width:0.8;"/>
     </g>
     <g id="line2d_32">
      <g>
       <use style="stroke:#000000;stroke-width:0.8;" x="40.603125" xlink:href="#mf6cb038dfe" y="59.632596"/>
      </g>
     </g>
     <g id="text_17">
      <text style="font-family:DejaVu Sans;font-size:10px;font-stretch:normal;font-style:normal;font-weight:normal;text-anchor:end;" transform="rotate(-0, 33.603125, 63.431814)" x="33.603125" y="63.431814">70</text>
     </g>
    </g>
    <g id="text_18">
     <text style="font-family:DejaVu Sans;font-size:10px;font-stretch:normal;font-style:normal;font-weight:normal;text-anchor:middle;" transform="rotate(-90, 14.798437, 218.158125)" x="14.798437" y="218.158125">Count</text>
    </g>
   </g>
   <g id="line2d_33">
    <path clip-path="url(#pe61dc89801)" d="M 573.239489 362.050528 
L 555.120761 362.050528 
L 555.102404 366.928237 
L 516.161309 366.928237 
L 510.84123 371.805946 
L 273.12995 371.805946 
L 273.014041 376.683654 
L 233.041608 376.683654 
L 232.965476 381.561363 
L 176.733578 381.561363 
L 175.415959 386.439071 
L 113.644144 386.439071 
L 111.314427 391.31678 
L 68.444988 391.31678 
L 65.966761 396.194489 
L 65.966761 396.194489 
" style="fill:none;stroke:#1f77b4;stroke-linecap:square;stroke-opacity:0.8;stroke-width:1.5;"/>
   </g>
   <g id="line2d_34">
    <path clip-path="url(#pe61dc89801)" d="M 573.239489 40.121761 
L 573.162363 44.99947 
L 573.050015 54.754887 
L 571.032085 59.632596 
L 555.120761 59.632596 
L 555.102404 69.388013 
L 537.611832 69.388013 
L 537.611363 79.14343 
L 528.886062 79.14343 
L 528.876759 54.754887 
L 516.161309 54.754887 
L 510.84123 59.632596 
L 494.62814 64.510304 
L 483.12649 64.510304 
L 475.91786 69.388013 
L 468.442162 69.388013 
L 466.721387 74.265722 
L 462.075424 79.14343 
L 461.088114 84.021139 
L 461.086485 93.776556 
L 454.336439 93.776556 
L 448.767842 103.531973 
L 439.348384 103.531973 
L 439.346949 108.409682 
L 416.258326 108.409682 
L 405.831684 113.28739 
L 396.669744 113.28739 
L 396.479497 118.165099 
L 392.749156 123.042807 
L 387.803469 123.042807 
L 387.010132 127.920516 
L 387.008973 118.165099 
L 386.913491 123.042807 
L 385.851788 127.920516 
L 385.848503 137.675933 
L 338.057806 137.675933 
L 337.398762 147.43135 
L 337.397217 152.309059 
L 329.837409 152.309059 
L 312.899881 157.186768 
L 312.912966 162.064476 
L 312.894802 162.064476 
L 290.024664 162.064476 
L 289.310329 171.819893 
L 289.290289 176.697602 
L 275.939507 176.697602 
L 275.939037 181.575311 
L 275.367305 181.575311 
L 274.608776 186.453019 
L 273.014041 215.719271 
L 270.410631 215.719271 
L 267.503799 220.596979 
L 265.697204 220.596979 
L 265.077799 230.352396 
L 261.08649 235.230105 
L 251.444739 235.230105 
L 251.443773 244.985522 
L 241.873764 244.985522 
L 239.055926 249.863231 
L 238.900571 254.740939 
L 236.523541 254.740939 
L 235.053493 264.496357 
L 234.886075 269.374065 
L 233.041608 274.251774 
L 232.965476 279.129482 
L 201.263375 279.129482 
L 200.798304 288.8849 
L 196.318682 288.8849 
L 192.14113 293.762608 
L 187.312677 293.762608 
L 184.225507 298.640317 
L 181.818223 298.640317 
L 180.07578 303.518025 
L 179.775283 308.395734 
L 179.382121 308.395734 
L 179.203827 313.273443 
L 176.733578 318.151151 
L 175.415959 332.784277 
L 143.526317 332.784277 
L 139.56576 337.661986 
L 125.610064 337.661986 
L 125.609595 342.539694 
L 117.48929 342.539694 
L 115.313492 347.417403 
L 113.644144 347.417403 
L 111.314427 357.17282 
L 99.335781 357.17282 
L 98.06945 362.050528 
L 90.887955 362.050528 
L 90.850828 366.928237 
L 89.808751 371.805946 
L 85.162015 371.805946 
L 84.657332 376.683654 
L 72.232248 381.561363 
L 68.444988 381.561363 
L 65.966761 386.439071 
L 65.966761 386.439071 
" style="fill:none;stroke:#ff7f0e;stroke-linecap:square;stroke-opacity:0.8;stroke-width:1.5;"/>
   </g>
   <g id="line2d_35">
    <path clip-path="url(#pe61dc89801)" d="M 573.239489 152.309059 
L 573.162363 152.309059 
L 573.050015 157.186768 
L 571.032085 162.064476 
L 555.103039 162.064476 
L 555.102404 166.942185 
L 537.611832 166.942185 
L 537.611363 171.819893 
L 528.886062 171.819893 
L 528.876759 157.186768 
L 516.161309 157.186768 
L 510.84123 162.064476 
L 483.12649 162.064476 
L 475.91786 166.942185 
L 468.442162 166.942185 
L 466.721387 171.819893 
L 462.075424 176.697602 
L 461.088114 176.697602 
L 461.086485 186.453019 
L 454.336439 186.453019 
L 448.767842 191.330728 
L 439.348384 191.330728 
L 439.346949 196.208436 
L 416.258326 196.208436 
L 405.831684 201.086145 
L 396.669744 201.086145 
L 396.479497 205.963854 
L 387.803469 205.963854 
L 387.008973 210.841562 
L 386.913491 215.719271 
L 385.851788 220.596979 
L 385.848503 230.352396 
L 337.398762 230.352396 
L 337.397217 235.230105 
L 329.837409 235.230105 
L 312.894802 240.107814 
L 290.024664 240.107814 
L 289.310329 244.985522 
L 289.290289 249.863231 
L 275.939507 249.863231 
L 275.939037 254.740939 
L 275.367305 254.740939 
L 274.608776 259.618648 
L 273.12995 264.496357 
L 270.410631 264.496357 
L 267.503799 269.374065 
L 265.697204 269.374065 
L 265.077799 274.251774 
L 261.08649 279.129482 
L 251.444739 279.129482 
L 251.443773 284.007191 
L 241.873764 284.007191 
L 239.055926 288.8849 
L 238.900571 293.762608 
L 236.523541 293.762608 
L 235.053493 298.640317 
L 234.886075 303.518025 
L 233.041608 308.395734 
L 232.965476 313.273443 
L 201.023304 313.273443 
L 200.798304 318.151151 
L 196.318682 318.151151 
L 192.14113 323.02886 
L 187.312677 323.02886 
L 184.225507 327.906568 
L 180.07578 327.906568 
L 179.775283 332.784277 
L 179.382121 332.784277 
L 179.203827 337.661986 
L 176.733578 337.661986 
L 175.415959 342.539694 
L 143.526317 342.539694 
L 139.56576 347.417403 
L 125.610064 347.417403 
L 125.609595 352.295111 
L 117.48929 352.295111 
L 115.313492 357.17282 
L 113.644144 357.17282 
L 111.314427 362.050528 
L 99.335781 362.050528 
L 98.06945 366.928237 
L 90.850828 366.928237 
L 89.808751 371.805946 
L 85.162015 371.805946 
L 84.657332 376.683654 
L 72.232248 381.561363 
L 68.444988 381.561363 
L 65.966761 386.439071 
L 65.966761 386.439071 
" style="fill:none;stroke:#2ca02c;stroke-linecap:square;stroke-opacity:0.8;stroke-width:1.5;"/>
   </g>
   <g id="patch_3">
    <path d="M 40.603125 413.998125 
L 40.603125 22.318125 
" style="fill:none;stroke:#000000;stroke-linecap:square;stroke-linejoin:miter;stroke-width:0.8;"/>
   </g>
   <g id="patch_4">
    <path d="M 598.603125 413.998125 
L 598.603125 22.318125 
" style="fill:none;stroke:#000000;stroke-linecap:square;stroke-linejoin:miter;stroke-width:0.8;"/>
   </g>
   <g id="patch_5">
    <path d="M 40.603125 413.998125 
L 598.603125 413.998125 
" style="fill:none;stroke:#000000;stroke-linecap:square;stroke-linejoin:miter;stroke-width:0.8;"/>
   </g>
   <g id="patch_6">
    <path d="M 40.603125 22.318125 
L 598.603125 22.318125 
" style="fill:none;stroke:#000000;stroke-linecap:square;stroke-linejoin:miter;stroke-width:0.8;"/>
   </g>
   <g id="text_19">
    <text style="font-family:DejaVu Sans;font-size:10px;font-stretch:normal;font-style:normal;font-weight:normal;text-anchor:start;" transform="rotate(-0, 573.239489, 362.050528)" x="573.239489" y="362.050528">8</text>
   </g>
   <g id="text_20">
    <text style="font-family:DejaVu Sans;font-size:10px;font-stretch:normal;font-style:normal;font-weight:normal;text-anchor:start;" transform="rotate(-0, 573.239489, 40.121761)" x="573.239489" y="40.121761">74</text>
   </g>
   <g id="text_21">
    <text style="font-family:DejaVu Sans;font-size:10px;font-stretch:normal;font-style:normal;font-weight:normal;text-anchor:start;" transform="rotate(-0, 573.239489, 152.309059)" x="573.239489" y="152.309059">51</text>
   </g>
   <g id="text_22">
    <text style="font-family:DejaVu Sans;font-size:12px;font-stretch:normal;font-style:normal;font-weight:normal;text-anchor:middle;" transform="rotate(-0, 319.603125, 16.318125)" x="319.603125" y="16.318125">Peers over time</text>
   </g>
   <g id="legend_1">
    <g id="patch_7">
     <path d="M 47.603125 74.3525 
L 178.88125 74.3525 
Q 180.88125 74.3525 180.88125 72.3525 
L 180.88125 29.318125 
Q 180.88125 27.318125 178.88125 27.318125 
L 47.603125 27.318125 
Q 45.603125 27.318125 45.603125 29.318125 
L 45.603125 72.3525 
Q 45.603125 74.3525 47.603125 74.3525 
z
" style="fill:#ffffff;opacity:0.8;stroke:#cccccc;stroke-linejoin:miter;"/>
    </g>
    <g id="line2d_36">
     <path d="M 49.603125 35.416562 
L 69.603125 35.416562 
" style="fill:none;stroke:#1f77b4;stroke-linecap:square;stroke-opacity:0.8;stroke-width:1.5;"/>
    </g>
    <g id="line2d_37"/>
    <g id="text_23">
     <text style="font-family:DejaVu Sans;font-size:10px;font-stretch:normal;font-style:normal;font-weight:normal;text-anchor:start;" transform="rotate(-0, 77.603125, 38.916562)" x="77.603125" y="38.916562">eBGP routers</text>
    </g>
    <g id="line2d_38">
     <path d="M 49.603125 50.094687 
L 69.603125 50.094687 
" style="fill:none;stroke:#ff7f0e;stroke-linecap:square;stroke-opacity:0.8;stroke-width:1.5;"/>
    </g>
    <g id="line2d_39"/>
    <g id="text_24">
     <text style="font-family:DejaVu Sans;font-size:10px;font-stretch:normal;font-style:normal;font-weight:normal;text-anchor:start;" transform="rotate(-0, 77.603125, 53.594687)" x="77.603125" y="53.594687">total eBGP peerings</text>
    </g>
    <g id="line2d_40">
     <path d="M 49.603125 64.772812 
L 69.603125 64.772812 
" style="fill:none;stroke:#2ca02c;stroke-linecap:square;stroke-opacity:0.8;stroke-width:1.5;"/>
    </g>
    <g id="line2d_41"/>
    <g id="text_25">
     <text style="font-family:DejaVu Sans;font-size:10px;font-stretch:normal;font-style:normal;font-weight:normal;text-anchor:start;" transform="rotate(-0, 77.603125, 68.272812)" x="77.603125" y="68.272812">unique eBGP peers</text>
    </g>
   </g>
  </g>
 </g>
 <defs>
  <clipPath id="pe61dc89801">
   <rect height="391.68" width="558" x="40.603125" y="22.318125"/>
  </clipPath>
 </defs>
</svg>
