<?xml version="1.0" encoding="utf-8" standalone="no"?>
<!DOCTYPE svg PUBLIC "-//W3C//DTD SVG 1.1//EN"
  "http://www.w3.org/Graphics/SVG/1.1/DTD/svg11.dtd">
<!-- Created with matplotlib (https://matplotlib.org/) -->
<svg height="471.149158pt" version="1.1" viewBox="0 0 612.165625 471.149158" width="612.165625pt" xmlns="http://www.w3.org/2000/svg" xmlns:xlink="http://www.w3.org/1999/xlink">
 <metadata>
  <rdf:RDF xmlns:cc="http://creativecommons.org/ns#" xmlns:dc="http://purl.org/dc/elements/1.1/" xmlns:rdf="http://www.w3.org/1999/02/22-rdf-syntax-ns#">
   <cc:Work>
    <dc:type rdf:resource="http://purl.org/dc/dcmitype/StillImage"/>
    <dc:date>2021-01-28T01:04:00.783338</dc:date>
    <dc:format>image/svg+xml</dc:format>
    <dc:creator>
     <cc:Agent>
      <dc:title>Matplotlib v3.3.3, https://matplotlib.org/</dc:title>
     </cc:Agent>
    </dc:creator>
   </cc:Work>
  </rdf:RDF>
 </metadata>
 <defs>
  <style type="text/css">*{stroke-linecap:butt;stroke-linejoin:round;}</style>
 </defs>
 <g id="figure_1">
  <g id="patch_1">
   <path d="M 0 471.149158 
L 612.165625 471.149158 
L 612.165625 0 
L 0 0 
z
" style="fill:#ffffff;"/>
  </g>
  <g id="axes_1">
   <g id="patch_2">
    <path d="M 46.965625 413.998125 
L 604.965625 413.998125 
L 604.965625 22.318125 
L 46.965625 22.318125 
z
" style="fill:#ffffff;"/>
   </g>
   <g id="matplotlib.axis_1">
    <g id="xtick_1">
     <g id="line2d_1">
      <path clip-path="url(#p0f18a778a4)" d="M 78.036285 413.998125 
L 78.036285 22.318125 
" style="fill:none;stroke:#b0b0b0;stroke-linecap:square;stroke-opacity:0.6;stroke-width:0.8;"/>
     </g>
     <g id="line2d_2">
      <defs>
       <path d="M 0 0 
L 0 3.5 
" id="mea33b6ce0a" style="stroke:#000000;stroke-width:0.8;"/>
      </defs>
      <g>
       <use style="stroke:#000000;stroke-width:0.8;" x="78.036285" xlink:href="#mea33b6ce0a" y="413.998125"/>
      </g>
     </g>
     <g id="text_1">
      <text style="font-family:DejaVu Sans;font-size:10px;font-stretch:normal;font-style:normal;font-weight:normal;" transform="translate(40.811465 448.469971)rotate(-30)">2020-05</text>
     </g>
    </g>
    <g id="xtick_2">
     <g id="line2d_3">
      <path clip-path="url(#p0f18a778a4)" d="M 140.637773 413.998125 
L 140.637773 22.318125 
" style="fill:none;stroke:#b0b0b0;stroke-linecap:square;stroke-opacity:0.6;stroke-width:0.8;"/>
     </g>
     <g id="line2d_4">
      <g>
       <use style="stroke:#000000;stroke-width:0.8;" x="140.637773" xlink:href="#mea33b6ce0a" y="413.998125"/>
      </g>
     </g>
     <g id="text_2">
      <text style="font-family:DejaVu Sans;font-size:10px;font-stretch:normal;font-style:normal;font-weight:normal;" transform="translate(103.412952 448.469971)rotate(-30)">2020-06</text>
     </g>
    </g>
    <g id="xtick_3">
     <g id="line2d_5">
      <path clip-path="url(#p0f18a778a4)" d="M 205.325977 413.998125 
L 205.325977 22.318125 
" style="fill:none;stroke:#b0b0b0;stroke-linecap:square;stroke-opacity:0.6;stroke-width:0.8;"/>
     </g>
     <g id="line2d_6">
      <g>
       <use style="stroke:#000000;stroke-width:0.8;" x="205.325977" xlink:href="#mea33b6ce0a" y="413.998125"/>
      </g>
     </g>
     <g id="text_3">
      <text style="font-family:DejaVu Sans;font-size:10px;font-stretch:normal;font-style:normal;font-weight:normal;" transform="translate(168.101156 448.469971)rotate(-30)">2020-07</text>
     </g>
    </g>
    <g id="xtick_4">
     <g id="line2d_7">
      <path clip-path="url(#p0f18a778a4)" d="M 270.014181 413.998125 
L 270.014181 22.318125 
" style="fill:none;stroke:#b0b0b0;stroke-linecap:square;stroke-opacity:0.6;stroke-width:0.8;"/>
     </g>
     <g id="line2d_8">
      <g>
       <use style="stroke:#000000;stroke-width:0.8;" x="270.014181" xlink:href="#mea33b6ce0a" y="413.998125"/>
      </g>
     </g>
     <g id="text_4">
      <text style="font-family:DejaVu Sans;font-size:10px;font-stretch:normal;font-style:normal;font-weight:normal;" transform="translate(232.78936 448.469971)rotate(-30)">2020-08</text>
     </g>
    </g>
    <g id="xtick_5">
     <g id="line2d_9">
      <path clip-path="url(#p0f18a778a4)" d="M 332.615668 413.998125 
L 332.615668 22.318125 
" style="fill:none;stroke:#b0b0b0;stroke-linecap:square;stroke-opacity:0.6;stroke-width:0.8;"/>
     </g>
     <g id="line2d_10">
      <g>
       <use style="stroke:#000000;stroke-width:0.8;" x="332.615668" xlink:href="#mea33b6ce0a" y="413.998125"/>
      </g>
     </g>
     <g id="text_5">
      <text style="font-family:DejaVu Sans;font-size:10px;font-stretch:normal;font-style:normal;font-weight:normal;" transform="translate(295.390848 448.469971)rotate(-30)">2020-09</text>
     </g>
    </g>
    <g id="xtick_6">
     <g id="line2d_11">
      <path clip-path="url(#p0f18a778a4)" d="M 397.303872 413.998125 
L 397.303872 22.318125 
" style="fill:none;stroke:#b0b0b0;stroke-linecap:square;stroke-opacity:0.6;stroke-width:0.8;"/>
     </g>
     <g id="line2d_12">
      <g>
       <use style="stroke:#000000;stroke-width:0.8;" x="397.303872" xlink:href="#mea33b6ce0a" y="413.998125"/>
      </g>
     </g>
     <g id="text_6">
      <text style="font-family:DejaVu Sans;font-size:10px;font-stretch:normal;font-style:normal;font-weight:normal;" transform="translate(360.079052 448.469971)rotate(-30)">2020-10</text>
     </g>
    </g>
    <g id="xtick_7">
     <g id="line2d_13">
      <path clip-path="url(#p0f18a778a4)" d="M 459.90536 413.998125 
L 459.90536 22.318125 
" style="fill:none;stroke:#b0b0b0;stroke-linecap:square;stroke-opacity:0.6;stroke-width:0.8;"/>
     </g>
     <g id="line2d_14">
      <g>
       <use style="stroke:#000000;stroke-width:0.8;" x="459.90536" xlink:href="#mea33b6ce0a" y="413.998125"/>
      </g>
     </g>
     <g id="text_7">
      <text style="font-family:DejaVu Sans;font-size:10px;font-stretch:normal;font-style:normal;font-weight:normal;" transform="translate(422.680539 448.469971)rotate(-30)">2020-11</text>
     </g>
    </g>
    <g id="xtick_8">
     <g id="line2d_15">
      <path clip-path="url(#p0f18a778a4)" d="M 524.593564 413.998125 
L 524.593564 22.318125 
" style="fill:none;stroke:#b0b0b0;stroke-linecap:square;stroke-opacity:0.6;stroke-width:0.8;"/>
     </g>
     <g id="line2d_16">
      <g>
       <use style="stroke:#000000;stroke-width:0.8;" x="524.593564" xlink:href="#mea33b6ce0a" y="413.998125"/>
      </g>
     </g>
     <g id="text_8">
      <text style="font-family:DejaVu Sans;font-size:10px;font-stretch:normal;font-style:normal;font-weight:normal;" transform="translate(487.368743 448.469971)rotate(-30)">2020-12</text>
     </g>
    </g>
    <g id="xtick_9">
     <g id="line2d_17">
      <path clip-path="url(#p0f18a778a4)" d="M 589.281768 413.998125 
L 589.281768 22.318125 
" style="fill:none;stroke:#b0b0b0;stroke-linecap:square;stroke-opacity:0.6;stroke-width:0.8;"/>
     </g>
     <g id="line2d_18">
      <g>
       <use style="stroke:#000000;stroke-width:0.8;" x="589.281768" xlink:href="#mea33b6ce0a" y="413.998125"/>
      </g>
     </g>
     <g id="text_9">
      <text style="font-family:DejaVu Sans;font-size:10px;font-stretch:normal;font-style:normal;font-weight:normal;" transform="translate(552.056947 448.469971)rotate(-30)">2021-01</text>
     </g>
    </g>
    <g id="text_10">
     <text style="font-family:DejaVu Sans;font-size:10px;font-stretch:normal;font-style:normal;font-weight:normal;text-anchor:middle;" transform="rotate(-0, 325.965625, 461.869471)" x="325.965625" y="461.869471">Date</text>
    </g>
   </g>
   <g id="matplotlib.axis_2">
    <g id="ytick_1">
     <g id="line2d_19">
      <path clip-path="url(#p0f18a778a4)" d="M 46.965625 399.755216 
L 604.965625 399.755216 
" style="fill:none;stroke:#b0b0b0;stroke-linecap:square;stroke-opacity:0.6;stroke-width:0.8;"/>
     </g>
     <g id="line2d_20">
      <defs>
       <path d="M 0 0 
L -3.5 0 
" id="m1932337e1c" style="stroke:#000000;stroke-width:0.8;"/>
      </defs>
      <g>
       <use style="stroke:#000000;stroke-width:0.8;" x="46.965625" xlink:href="#m1932337e1c" y="399.755216"/>
      </g>
     </g>
     <g id="text_11">
      <text style="font-family:DejaVu Sans;font-size:10px;font-stretch:normal;font-style:normal;font-weight:normal;text-anchor:end;" transform="rotate(-0, 39.965625, 403.554435)" x="39.965625" y="403.554435">0</text>
     </g>
    </g>
    <g id="ytick_2">
     <g id="line2d_21">
      <path clip-path="url(#p0f18a778a4)" d="M 46.965625 328.54067 
L 604.965625 328.54067 
" style="fill:none;stroke:#b0b0b0;stroke-linecap:square;stroke-opacity:0.6;stroke-width:0.8;"/>
     </g>
     <g id="line2d_22">
      <g>
       <use style="stroke:#000000;stroke-width:0.8;" x="46.965625" xlink:href="#m1932337e1c" y="328.54067"/>
      </g>
     </g>
     <g id="text_12">
      <text style="font-family:DejaVu Sans;font-size:10px;font-stretch:normal;font-style:normal;font-weight:normal;text-anchor:end;" transform="rotate(-0, 39.965625, 332.339889)" x="39.965625" y="332.339889">20</text>
     </g>
    </g>
    <g id="ytick_3">
     <g id="line2d_23">
      <path clip-path="url(#p0f18a778a4)" d="M 46.965625 257.326125 
L 604.965625 257.326125 
" style="fill:none;stroke:#b0b0b0;stroke-linecap:square;stroke-opacity:0.6;stroke-width:0.8;"/>
     </g>
     <g id="line2d_24">
      <g>
       <use style="stroke:#000000;stroke-width:0.8;" x="46.965625" xlink:href="#m1932337e1c" y="257.326125"/>
      </g>
     </g>
     <g id="text_13">
      <text style="font-family:DejaVu Sans;font-size:10px;font-stretch:normal;font-style:normal;font-weight:normal;text-anchor:end;" transform="rotate(-0, 39.965625, 261.125344)" x="39.965625" y="261.125344">40</text>
     </g>
    </g>
    <g id="ytick_4">
     <g id="line2d_25">
      <path clip-path="url(#p0f18a778a4)" d="M 46.965625 186.11158 
L 604.965625 186.11158 
" style="fill:none;stroke:#b0b0b0;stroke-linecap:square;stroke-opacity:0.6;stroke-width:0.8;"/>
     </g>
     <g id="line2d_26">
      <g>
       <use style="stroke:#000000;stroke-width:0.8;" x="46.965625" xlink:href="#m1932337e1c" y="186.11158"/>
      </g>
     </g>
     <g id="text_14">
      <text style="font-family:DejaVu Sans;font-size:10px;font-stretch:normal;font-style:normal;font-weight:normal;text-anchor:end;" transform="rotate(-0, 39.965625, 189.910798)" x="39.965625" y="189.910798">60</text>
     </g>
    </g>
    <g id="ytick_5">
     <g id="line2d_27">
      <path clip-path="url(#p0f18a778a4)" d="M 46.965625 114.897034 
L 604.965625 114.897034 
" style="fill:none;stroke:#b0b0b0;stroke-linecap:square;stroke-opacity:0.6;stroke-width:0.8;"/>
     </g>
     <g id="line2d_28">
      <g>
       <use style="stroke:#000000;stroke-width:0.8;" x="46.965625" xlink:href="#m1932337e1c" y="114.897034"/>
      </g>
     </g>
     <g id="text_15">
      <text style="font-family:DejaVu Sans;font-size:10px;font-stretch:normal;font-style:normal;font-weight:normal;text-anchor:end;" transform="rotate(-0, 39.965625, 118.696253)" x="39.965625" y="118.696253">80</text>
     </g>
    </g>
    <g id="ytick_6">
     <g id="line2d_29">
      <path clip-path="url(#p0f18a778a4)" d="M 46.965625 43.682489 
L 604.965625 43.682489 
" style="fill:none;stroke:#b0b0b0;stroke-linecap:square;stroke-opacity:0.6;stroke-width:0.8;"/>
     </g>
     <g id="line2d_30">
      <g>
       <use style="stroke:#000000;stroke-width:0.8;" x="46.965625" xlink:href="#m1932337e1c" y="43.682489"/>
      </g>
     </g>
     <g id="text_16">
      <text style="font-family:DejaVu Sans;font-size:10px;font-stretch:normal;font-style:normal;font-weight:normal;text-anchor:end;" transform="rotate(-0, 39.965625, 47.481707)" x="39.965625" y="47.481707">100</text>
     </g>
    </g>
    <g id="text_17">
     <text style="font-family:DejaVu Sans;font-size:10px;font-stretch:normal;font-style:normal;font-weight:normal;text-anchor:middle;" transform="rotate(-90, 14.798437, 218.158125)" x="14.798437" y="218.158125">Count</text>
    </g>
   </g>
   <g id="line2d_31">
    <path clip-path="url(#p0f18a778a4)" d="M 579.601989 360.587216 
L 579.534291 357.026489 
L 566.852466 357.026489 
L 566.800926 360.587216 
L 549.666402 360.587216 
L 548.263834 364.147943 
L 525.238659 364.147943 
L 525.237596 367.70867 
L 517.153068 367.70867 
L 516.60388 371.269398 
L 500.310007 371.269398 
L 500.293946 374.830125 
L 466.222797 374.830125 
L 461.568043 378.390852 
L 253.584768 378.390852 
L 253.483355 381.95158 
L 218.509845 381.95158 
L 218.443235 385.512307 
L 169.243658 385.512307 
L 168.09082 389.073034 
L 114.044144 389.073034 
L 112.00578 392.633761 
L 74.497562 392.633761 
L 72.329261 396.194489 
L 72.329261 396.194489 
" style="fill:none;stroke:#1f77b4;stroke-linecap:square;stroke-opacity:0.8;stroke-width:1.5;"/>
   </g>
   <g id="line2d_32">
    <path clip-path="url(#p0f18a778a4)" d="M 579.601989 50.803943 
L 579.549144 43.682489 
L 579.534291 47.243216 
L 568.889285 47.243216 
L 566.852466 50.803943 
L 566.800926 54.36467 
L 556.370412 54.36467 
L 551.445206 40.121761 
L 549.666402 50.803943 
L 548.263834 65.046852 
L 537.128425 65.046852 
L 535.76921 68.60758 
L 533.106859 68.60758 
L 533.106183 75.729034 
L 531.761845 75.729034 
L 531.650505 79.289761 
L 527.494969 79.289761 
L 527.364525 86.411216 
L 527.078326 86.411216 
L 526.925059 89.971943 
L 526.925059 89.971943 
L 526.57394 89.971943 
L 526.573505 97.093398 
L 525.238659 100.654125 
L 525.237596 104.214852 
L 520.754006 104.214852 
L 520.730724 107.77558 
L 520.090314 107.77558 
L 520.054304 122.018489 
L 518.402127 122.018489 
L 518.249922 125.579216 
L 518.060886 125.579216 
L 517.153068 129.139943 
L 516.60388 136.261398 
L 516.16282 136.261398 
L 516.09534 139.822125 
L 515.997042 146.94358 
L 514.231472 150.504307 
L 500.310007 150.504307 
L 500.293946 157.625761 
L 484.990733 157.625761 
L 484.8913 164.747216 
L 477.356201 164.747216 
L 477.348062 146.94358 
L 466.222797 146.94358 
L 461.568043 150.504307 
L 447.382551 154.065034 
L 437.319289 154.065034 
L 431.012165 157.625761 
L 424.471372 157.625761 
L 422.965797 161.186489 
L 418.900854 164.747216 
L 418.037017 168.307943 
L 418.035592 175.429398 
L 412.129702 175.429398 
L 407.257509 182.550852 
L 399.016042 182.550852 
L 399.014786 186.11158 
L 378.81361 186.11158 
L 369.690917 189.672307 
L 361.674762 189.672307 
L 361.508308 193.233034 
L 358.244481 196.793761 
L 353.917298 196.793761 
L 353.223175 200.354489 
L 353.222161 193.233034 
L 353.138619 196.793761 
L 352.209693 200.354489 
L 352.206819 207.475943 
L 310.392792 207.475943 
L 309.816168 214.597398 
L 309.814816 218.158125 
L 303.200432 218.158125 
L 288.3811 221.718852 
L 288.392548 225.27958 
L 288.376656 225.27958 
L 268.366641 225.27958 
L 267.741641 232.401034 
L 267.724106 235.961761 
L 256.042963 235.961761 
L 256.042553 239.522489 
L 255.542321 239.522489 
L 254.878653 243.083216 
L 253.483355 264.44758 
L 251.205525 264.44758 
L 248.662219 268.008307 
L 247.081556 268.008307 
L 246.539613 275.129761 
L 243.047455 278.690489 
L 234.611494 278.690489 
L 234.610649 285.811943 
L 226.237458 285.811943 
L 223.772017 289.37267 
L 223.636091 292.933398 
L 221.55633 292.933398 
L 220.270126 300.054852 
L 220.123645 303.61558 
L 218.509845 307.176307 
L 218.443235 310.737034 
L 190.705776 310.737034 
L 190.298867 317.858489 
L 186.379463 317.858489 
L 182.724352 321.419216 
L 178.499742 321.419216 
L 175.798652 324.979943 
L 173.692421 324.979943 
L 172.167887 328.54067 
L 171.90497 332.101398 
L 171.560976 332.101398 
L 171.404979 335.662125 
L 169.243658 339.222852 
L 168.09082 349.905034 
L 140.189274 349.905034 
L 136.724021 353.465761 
L 124.513615 353.465761 
L 124.513205 357.026489 
L 117.408419 357.026489 
L 115.504725 360.587216 
L 114.044144 360.587216 
L 112.00578 367.70867 
L 101.525175 367.70867 
L 100.417211 371.269398 
L 94.133828 371.269398 
L 94.101344 374.830125 
L 93.189589 378.390852 
L 89.12397 378.390852 
L 88.682403 381.95158 
L 77.811191 385.512307 
L 74.497562 385.512307 
L 72.329261 389.073034 
L 72.329261 389.073034 
" style="fill:none;stroke:#ff7f0e;stroke-linecap:square;stroke-opacity:0.8;stroke-width:1.5;"/>
   </g>
   <g id="line2d_33">
    <path clip-path="url(#p0f18a778a4)" d="M 579.601989 193.233034 
L 566.852466 193.233034 
L 566.800926 196.793761 
L 533.106859 196.793761 
L 533.106183 200.354489 
L 527.078326 200.354489 
L 526.925059 203.915216 
L 526.925059 203.915216 
L 526.573505 203.915216 
L 525.237596 207.475943 
L 520.754006 207.475943 
L 520.730724 211.03667 
L 520.090314 211.03667 
L 520.054304 214.597398 
L 518.402127 214.597398 
L 518.249922 218.158125 
L 516.09534 218.158125 
L 515.997042 221.718852 
L 514.231472 225.27958 
L 500.294502 225.27958 
L 500.293946 228.840307 
L 484.990733 228.840307 
L 484.8913 232.401034 
L 477.356201 232.401034 
L 477.348062 221.718852 
L 466.222797 221.718852 
L 461.568043 225.27958 
L 437.319289 225.27958 
L 431.012165 228.840307 
L 424.471372 228.840307 
L 422.965797 232.401034 
L 418.900854 235.961761 
L 418.037017 235.961761 
L 418.035592 243.083216 
L 412.129702 243.083216 
L 407.257509 246.643943 
L 399.016042 246.643943 
L 399.014786 250.20467 
L 378.81361 250.20467 
L 369.690917 253.765398 
L 361.674762 253.765398 
L 361.508308 257.326125 
L 353.917298 257.326125 
L 353.222161 260.886852 
L 353.138619 264.44758 
L 352.209693 268.008307 
L 352.206819 275.129761 
L 309.816168 275.129761 
L 309.814816 278.690489 
L 303.200432 278.690489 
L 288.376656 282.251216 
L 268.366641 282.251216 
L 267.741641 285.811943 
L 267.724106 289.37267 
L 256.042963 289.37267 
L 256.042553 292.933398 
L 255.542321 292.933398 
L 254.878653 296.494125 
L 253.584768 300.054852 
L 251.205525 300.054852 
L 248.662219 303.61558 
L 247.081556 303.61558 
L 246.539613 307.176307 
L 243.047455 310.737034 
L 234.611494 310.737034 
L 234.610649 314.297761 
L 226.237458 314.297761 
L 223.772017 317.858489 
L 223.636091 321.419216 
L 221.55633 321.419216 
L 220.270126 324.979943 
L 220.123645 328.54067 
L 218.509845 332.101398 
L 218.443235 335.662125 
L 190.495728 335.662125 
L 190.298867 339.222852 
L 186.379463 339.222852 
L 182.724352 342.78358 
L 178.499742 342.78358 
L 175.798652 346.344307 
L 172.167887 346.344307 
L 171.90497 349.905034 
L 171.560976 349.905034 
L 171.404979 353.465761 
L 169.243658 353.465761 
L 168.09082 357.026489 
L 140.189274 357.026489 
L 136.724021 360.587216 
L 124.513615 360.587216 
L 124.513205 364.147943 
L 117.408419 364.147943 
L 115.504725 367.70867 
L 114.044144 367.70867 
L 112.00578 371.269398 
L 101.525175 371.269398 
L 100.417211 374.830125 
L 94.101344 374.830125 
L 93.189589 378.390852 
L 89.12397 378.390852 
L 88.682403 381.95158 
L 77.811191 385.512307 
L 74.497562 385.512307 
L 72.329261 389.073034 
L 72.329261 389.073034 
" style="fill:none;stroke:#2ca02c;stroke-linecap:square;stroke-opacity:0.8;stroke-width:1.5;"/>
   </g>
   <g id="patch_3">
    <path d="M 46.965625 413.998125 
L 46.965625 22.318125 
" style="fill:none;stroke:#000000;stroke-linecap:square;stroke-linejoin:miter;stroke-width:0.8;"/>
   </g>
   <g id="patch_4">
    <path d="M 604.965625 413.998125 
L 604.965625 22.318125 
" style="fill:none;stroke:#000000;stroke-linecap:square;stroke-linejoin:miter;stroke-width:0.8;"/>
   </g>
   <g id="patch_5">
    <path d="M 46.965625 413.998125 
L 604.965625 413.998125 
" style="fill:none;stroke:#000000;stroke-linecap:square;stroke-linejoin:miter;stroke-width:0.8;"/>
   </g>
   <g id="patch_6">
    <path d="M 46.965625 22.318125 
L 604.965625 22.318125 
" style="fill:none;stroke:#000000;stroke-linecap:square;stroke-linejoin:miter;stroke-width:0.8;"/>
   </g>
   <g id="text_18">
    <text style="font-family:DejaVu Sans;font-size:10px;font-stretch:normal;font-style:normal;font-weight:normal;text-anchor:start;" transform="rotate(-0, 579.601989, 360.587216)" x="579.601989" y="360.587216">11</text>
   </g>
   <g id="text_19">
    <text style="font-family:DejaVu Sans;font-size:10px;font-stretch:normal;font-style:normal;font-weight:normal;text-anchor:start;" transform="rotate(-0, 579.601989, 50.803943)" x="579.601989" y="50.803943">98</text>
   </g>
   <g id="text_20">
    <text style="font-family:DejaVu Sans;font-size:10px;font-stretch:normal;font-style:normal;font-weight:normal;text-anchor:start;" transform="rotate(-0, 579.601989, 193.233034)" x="579.601989" y="193.233034">58</text>
   </g>
   <g id="text_21">
    <text style="font-family:DejaVu Sans;font-size:12px;font-stretch:normal;font-style:normal;font-weight:normal;text-anchor:middle;" transform="rotate(-0, 325.965625, 16.318125)" x="325.965625" y="16.318125">Peers over time</text>
   </g>
   <g id="legend_1">
    <g id="patch_7">
     <path d="M 53.965625 74.3525 
L 185.24375 74.3525 
Q 187.24375 74.3525 187.24375 72.3525 
L 187.24375 29.318125 
Q 187.24375 27.318125 185.24375 27.318125 
L 53.965625 27.318125 
Q 51.965625 27.318125 51.965625 29.318125 
L 51.965625 72.3525 
Q 51.965625 74.3525 53.965625 74.3525 
z
" style="fill:#ffffff;opacity:0.8;stroke:#cccccc;stroke-linejoin:miter;"/>
    </g>
    <g id="line2d_34">
     <path d="M 55.965625 35.416562 
L 75.965625 35.416562 
" style="fill:none;stroke:#1f77b4;stroke-linecap:square;stroke-opacity:0.8;stroke-width:1.5;"/>
    </g>
    <g id="line2d_35"/>
    <g id="text_22">
     <text style="font-family:DejaVu Sans;font-size:10px;font-stretch:normal;font-style:normal;font-weight:normal;text-anchor:start;" transform="rotate(-0, 83.965625, 38.916562)" x="83.965625" y="38.916562">eBGP routers</text>
    </g>
    <g id="line2d_36">
     <path d="M 55.965625 50.094687 
L 75.965625 50.094687 
" style="fill:none;stroke:#ff7f0e;stroke-linecap:square;stroke-opacity:0.8;stroke-width:1.5;"/>
    </g>
    <g id="line2d_37"/>
    <g id="text_23">
     <text style="font-family:DejaVu Sans;font-size:10px;font-stretch:normal;font-style:normal;font-weight:normal;text-anchor:start;" transform="rotate(-0, 83.965625, 53.594687)" x="83.965625" y="53.594687">total eBGP peerings</text>
    </g>
    <g id="line2d_38">
     <path d="M 55.965625 64.772812 
L 75.965625 64.772812 
" style="fill:none;stroke:#2ca02c;stroke-linecap:square;stroke-opacity:0.8;stroke-width:1.5;"/>
    </g>
    <g id="line2d_39"/>
    <g id="text_24">
     <text style="font-family:DejaVu Sans;font-size:10px;font-stretch:normal;font-style:normal;font-weight:normal;text-anchor:start;" transform="rotate(-0, 83.965625, 68.272812)" x="83.965625" y="68.272812">unique eBGP peers</text>
    </g>
   </g>
  </g>
 </g>
 <defs>
  <clipPath id="p0f18a778a4">
   <rect height="391.68" width="558" x="46.965625" y="22.318125"/>
  </clipPath>
 </defs>
</svg>
