<?xml version="1.0" encoding="utf-8" standalone="no"?>
<!DOCTYPE svg PUBLIC "-//W3C//DTD SVG 1.1//EN"
  "http://www.w3.org/Graphics/SVG/1.1/DTD/svg11.dtd">
<svg xmlns:xlink="http://www.w3.org/1999/xlink" width="615.123844pt" height="503.394375pt" viewBox="0 0 615.123844 503.394375" xmlns="http://www.w3.org/2000/svg" version="1.1">
 <metadata>
  <rdf:RDF xmlns:dc="http://purl.org/dc/elements/1.1/" xmlns:cc="http://creativecommons.org/ns#" xmlns:rdf="http://www.w3.org/1999/02/22-rdf-syntax-ns#">
   <cc:Work>
    <dc:type rdf:resource="http://purl.org/dc/dcmitype/StillImage"/>
    <dc:format>image/svg+xml</dc:format>
    <dc:creator>
     <cc:Agent>
      <dc:title>Matplotlib v3.8.3, https://matplotlib.org/</dc:title>
     </cc:Agent>
    </dc:creator>
   </cc:Work>
  </rdf:RDF>
 </metadata>
 <defs>
  <style type="text/css">*{stroke-linejoin: round; stroke-linecap: butt}</style>
 </defs>
 <g id="figure_1">
  <g id="patch_1">
   <path d="M 0 503.394375 
L 615.123844 503.394375 
L 615.123844 0 
L 0 0 
z
" style="fill: #ffffff"/>
  </g>
  <g id="axes_1">
   <g id="patch_2">
    <path d="M 46.965625 465.838125 
L 604.965625 465.838125 
L 604.965625 22.318125 
L 46.965625 22.318125 
z
" style="fill: #ffffff"/>
   </g>
   <g id="matplotlib.axis_1">
    <g id="xtick_1">
     <g id="line2d_1">
      <path d="M 77.583307 465.838125 
L 77.583307 22.318125 
" clip-path="url(#pebb6d4d2a1)" style="fill: none; stroke: #b0b0b0; stroke-opacity: 0.6; stroke-width: 0.8; stroke-linecap: square"/>
     </g>
     <g id="line2d_2">
      <defs>
       <path id="m4989ca4dfe" d="M 0 0 
L 0 3.5 
" style="stroke: #000000; stroke-width: 0.8"/>
      </defs>
      <g>
       <use xlink:href="#m4989ca4dfe" x="77.583307" y="465.838125" style="stroke: #000000; stroke-width: 0.8"/>
      </g>
     </g>
     <g id="text_1">
      <!-- 2020-07 -->
      <g transform="translate(56.691901 480.436562) scale(0.1 -0.1)">
       <defs>
        <path id="DejaVuSans-32" d="M 1228 531 
L 3431 531 
L 3431 0 
L 469 0 
L 469 531 
Q 828 903 1448 1529 
Q 2069 2156 2228 2338 
Q 2531 2678 2651 2914 
Q 2772 3150 2772 3378 
Q 2772 3750 2511 3984 
Q 2250 4219 1831 4219 
Q 1534 4219 1204 4116 
Q 875 4013 500 3803 
L 500 4441 
Q 881 4594 1212 4672 
Q 1544 4750 1819 4750 
Q 2544 4750 2975 4387 
Q 3406 4025 3406 3419 
Q 3406 3131 3298 2873 
Q 3191 2616 2906 2266 
Q 2828 2175 2409 1742 
Q 1991 1309 1228 531 
z
" transform="scale(0.015625)"/>
        <path id="DejaVuSans-30" d="M 2034 4250 
Q 1547 4250 1301 3770 
Q 1056 3291 1056 2328 
Q 1056 1369 1301 889 
Q 1547 409 2034 409 
Q 2525 409 2770 889 
Q 3016 1369 3016 2328 
Q 3016 3291 2770 3770 
Q 2525 4250 2034 4250 
z
M 2034 4750 
Q 2819 4750 3233 4129 
Q 3647 3509 3647 2328 
Q 3647 1150 3233 529 
Q 2819 -91 2034 -91 
Q 1250 -91 836 529 
Q 422 1150 422 2328 
Q 422 3509 836 4129 
Q 1250 4750 2034 4750 
z
" transform="scale(0.015625)"/>
        <path id="DejaVuSans-2d" d="M 313 2009 
L 1997 2009 
L 1997 1497 
L 313 1497 
L 313 2009 
z
" transform="scale(0.015625)"/>
        <path id="DejaVuSans-37" d="M 525 4666 
L 3525 4666 
L 3525 4397 
L 1831 0 
L 1172 0 
L 2766 4134 
L 525 4134 
L 525 4666 
z
" transform="scale(0.015625)"/>
       </defs>
       <use xlink:href="#DejaVuSans-32"/>
       <use xlink:href="#DejaVuSans-30" x="63.623047"/>
       <use xlink:href="#DejaVuSans-32" x="127.246094"/>
       <use xlink:href="#DejaVuSans-30" x="190.869141"/>
       <use xlink:href="#DejaVuSans-2d" x="254.492188"/>
       <use xlink:href="#DejaVuSans-30" x="290.576172"/>
       <use xlink:href="#DejaVuSans-37" x="354.199219"/>
      </g>
     </g>
    </g>
    <g id="xtick_2">
     <g id="line2d_3">
      <path d="M 134.567282 465.838125 
L 134.567282 22.318125 
" clip-path="url(#pebb6d4d2a1)" style="fill: none; stroke: #b0b0b0; stroke-opacity: 0.6; stroke-width: 0.8; stroke-linecap: square"/>
     </g>
     <g id="line2d_4">
      <g>
       <use xlink:href="#m4989ca4dfe" x="134.567282" y="465.838125" style="stroke: #000000; stroke-width: 0.8"/>
      </g>
     </g>
     <g id="text_2">
      <!-- 2021-01 -->
      <g transform="translate(113.675876 480.436562) scale(0.1 -0.1)">
       <defs>
        <path id="DejaVuSans-31" d="M 794 531 
L 1825 531 
L 1825 4091 
L 703 3866 
L 703 4441 
L 1819 4666 
L 2450 4666 
L 2450 531 
L 3481 531 
L 3481 0 
L 794 0 
L 794 531 
z
" transform="scale(0.015625)"/>
       </defs>
       <use xlink:href="#DejaVuSans-32"/>
       <use xlink:href="#DejaVuSans-30" x="63.623047"/>
       <use xlink:href="#DejaVuSans-32" x="127.246094"/>
       <use xlink:href="#DejaVuSans-31" x="190.869141"/>
       <use xlink:href="#DejaVuSans-2d" x="254.492188"/>
       <use xlink:href="#DejaVuSans-30" x="290.576172"/>
       <use xlink:href="#DejaVuSans-31" x="354.199219"/>
      </g>
     </g>
    </g>
    <g id="xtick_3">
     <g id="line2d_5">
      <path d="M 190.622172 465.838125 
L 190.622172 22.318125 
" clip-path="url(#pebb6d4d2a1)" style="fill: none; stroke: #b0b0b0; stroke-opacity: 0.6; stroke-width: 0.8; stroke-linecap: square"/>
     </g>
     <g id="line2d_6">
      <g>
       <use xlink:href="#m4989ca4dfe" x="190.622172" y="465.838125" style="stroke: #000000; stroke-width: 0.8"/>
      </g>
     </g>
     <g id="text_3">
      <!-- 2021-07 -->
      <g transform="translate(169.730765 480.436562) scale(0.1 -0.1)">
       <use xlink:href="#DejaVuSans-32"/>
       <use xlink:href="#DejaVuSans-30" x="63.623047"/>
       <use xlink:href="#DejaVuSans-32" x="127.246094"/>
       <use xlink:href="#DejaVuSans-31" x="190.869141"/>
       <use xlink:href="#DejaVuSans-2d" x="254.492188"/>
       <use xlink:href="#DejaVuSans-30" x="290.576172"/>
       <use xlink:href="#DejaVuSans-37" x="354.199219"/>
      </g>
     </g>
    </g>
    <g id="xtick_4">
     <g id="line2d_7">
      <path d="M 247.606147 465.838125 
L 247.606147 22.318125 
" clip-path="url(#pebb6d4d2a1)" style="fill: none; stroke: #b0b0b0; stroke-opacity: 0.6; stroke-width: 0.8; stroke-linecap: square"/>
     </g>
     <g id="line2d_8">
      <g>
       <use xlink:href="#m4989ca4dfe" x="247.606147" y="465.838125" style="stroke: #000000; stroke-width: 0.8"/>
      </g>
     </g>
     <g id="text_4">
      <!-- 2022-01 -->
      <g transform="translate(226.714741 480.436562) scale(0.1 -0.1)">
       <use xlink:href="#DejaVuSans-32"/>
       <use xlink:href="#DejaVuSans-30" x="63.623047"/>
       <use xlink:href="#DejaVuSans-32" x="127.246094"/>
       <use xlink:href="#DejaVuSans-32" x="190.869141"/>
       <use xlink:href="#DejaVuSans-2d" x="254.492188"/>
       <use xlink:href="#DejaVuSans-30" x="290.576172"/>
       <use xlink:href="#DejaVuSans-31" x="354.199219"/>
      </g>
     </g>
    </g>
    <g id="xtick_5">
     <g id="line2d_9">
      <path d="M 303.661036 465.838125 
L 303.661036 22.318125 
" clip-path="url(#pebb6d4d2a1)" style="fill: none; stroke: #b0b0b0; stroke-opacity: 0.6; stroke-width: 0.8; stroke-linecap: square"/>
     </g>
     <g id="line2d_10">
      <g>
       <use xlink:href="#m4989ca4dfe" x="303.661036" y="465.838125" style="stroke: #000000; stroke-width: 0.8"/>
      </g>
     </g>
     <g id="text_5">
      <!-- 2022-07 -->
      <g transform="translate(282.76963 480.436562) scale(0.1 -0.1)">
       <use xlink:href="#DejaVuSans-32"/>
       <use xlink:href="#DejaVuSans-30" x="63.623047"/>
       <use xlink:href="#DejaVuSans-32" x="127.246094"/>
       <use xlink:href="#DejaVuSans-32" x="190.869141"/>
       <use xlink:href="#DejaVuSans-2d" x="254.492188"/>
       <use xlink:href="#DejaVuSans-30" x="290.576172"/>
       <use xlink:href="#DejaVuSans-37" x="354.199219"/>
      </g>
     </g>
    </g>
    <g id="xtick_6">
     <g id="line2d_11">
      <path d="M 360.645012 465.838125 
L 360.645012 22.318125 
" clip-path="url(#pebb6d4d2a1)" style="fill: none; stroke: #b0b0b0; stroke-opacity: 0.6; stroke-width: 0.8; stroke-linecap: square"/>
     </g>
     <g id="line2d_12">
      <g>
       <use xlink:href="#m4989ca4dfe" x="360.645012" y="465.838125" style="stroke: #000000; stroke-width: 0.8"/>
      </g>
     </g>
     <g id="text_6">
      <!-- 2023-01 -->
      <g transform="translate(339.753606 480.436562) scale(0.1 -0.1)">
       <defs>
        <path id="DejaVuSans-33" d="M 2597 2516 
Q 3050 2419 3304 2112 
Q 3559 1806 3559 1356 
Q 3559 666 3084 287 
Q 2609 -91 1734 -91 
Q 1441 -91 1130 -33 
Q 819 25 488 141 
L 488 750 
Q 750 597 1062 519 
Q 1375 441 1716 441 
Q 2309 441 2620 675 
Q 2931 909 2931 1356 
Q 2931 1769 2642 2001 
Q 2353 2234 1838 2234 
L 1294 2234 
L 1294 2753 
L 1863 2753 
Q 2328 2753 2575 2939 
Q 2822 3125 2822 3475 
Q 2822 3834 2567 4026 
Q 2313 4219 1838 4219 
Q 1578 4219 1281 4162 
Q 984 4106 628 3988 
L 628 4550 
Q 988 4650 1302 4700 
Q 1616 4750 1894 4750 
Q 2613 4750 3031 4423 
Q 3450 4097 3450 3541 
Q 3450 3153 3228 2886 
Q 3006 2619 2597 2516 
z
" transform="scale(0.015625)"/>
       </defs>
       <use xlink:href="#DejaVuSans-32"/>
       <use xlink:href="#DejaVuSans-30" x="63.623047"/>
       <use xlink:href="#DejaVuSans-32" x="127.246094"/>
       <use xlink:href="#DejaVuSans-33" x="190.869141"/>
       <use xlink:href="#DejaVuSans-2d" x="254.492188"/>
       <use xlink:href="#DejaVuSans-30" x="290.576172"/>
       <use xlink:href="#DejaVuSans-31" x="354.199219"/>
      </g>
     </g>
    </g>
    <g id="xtick_7">
     <g id="line2d_13">
      <path d="M 416.699901 465.838125 
L 416.699901 22.318125 
" clip-path="url(#pebb6d4d2a1)" style="fill: none; stroke: #b0b0b0; stroke-opacity: 0.6; stroke-width: 0.8; stroke-linecap: square"/>
     </g>
     <g id="line2d_14">
      <g>
       <use xlink:href="#m4989ca4dfe" x="416.699901" y="465.838125" style="stroke: #000000; stroke-width: 0.8"/>
      </g>
     </g>
     <g id="text_7">
      <!-- 2023-07 -->
      <g transform="translate(395.808495 480.436562) scale(0.1 -0.1)">
       <use xlink:href="#DejaVuSans-32"/>
       <use xlink:href="#DejaVuSans-30" x="63.623047"/>
       <use xlink:href="#DejaVuSans-32" x="127.246094"/>
       <use xlink:href="#DejaVuSans-33" x="190.869141"/>
       <use xlink:href="#DejaVuSans-2d" x="254.492188"/>
       <use xlink:href="#DejaVuSans-30" x="290.576172"/>
       <use xlink:href="#DejaVuSans-37" x="354.199219"/>
      </g>
     </g>
    </g>
    <g id="xtick_8">
     <g id="line2d_15">
      <path d="M 473.683877 465.838125 
L 473.683877 22.318125 
" clip-path="url(#pebb6d4d2a1)" style="fill: none; stroke: #b0b0b0; stroke-opacity: 0.6; stroke-width: 0.8; stroke-linecap: square"/>
     </g>
     <g id="line2d_16">
      <g>
       <use xlink:href="#m4989ca4dfe" x="473.683877" y="465.838125" style="stroke: #000000; stroke-width: 0.8"/>
      </g>
     </g>
     <g id="text_8">
      <!-- 2024-01 -->
      <g transform="translate(452.792471 480.436562) scale(0.1 -0.1)">
       <defs>
        <path id="DejaVuSans-34" d="M 2419 4116 
L 825 1625 
L 2419 1625 
L 2419 4116 
z
M 2253 4666 
L 3047 4666 
L 3047 1625 
L 3713 1625 
L 3713 1100 
L 3047 1100 
L 3047 0 
L 2419 0 
L 2419 1100 
L 313 1100 
L 313 1709 
L 2253 4666 
z
" transform="scale(0.015625)"/>
       </defs>
       <use xlink:href="#DejaVuSans-32"/>
       <use xlink:href="#DejaVuSans-30" x="63.623047"/>
       <use xlink:href="#DejaVuSans-32" x="127.246094"/>
       <use xlink:href="#DejaVuSans-34" x="190.869141"/>
       <use xlink:href="#DejaVuSans-2d" x="254.492188"/>
       <use xlink:href="#DejaVuSans-30" x="290.576172"/>
       <use xlink:href="#DejaVuSans-31" x="354.199219"/>
      </g>
     </g>
    </g>
    <g id="xtick_9">
     <g id="line2d_17">
      <path d="M 530.048462 465.838125 
L 530.048462 22.318125 
" clip-path="url(#pebb6d4d2a1)" style="fill: none; stroke: #b0b0b0; stroke-opacity: 0.6; stroke-width: 0.8; stroke-linecap: square"/>
     </g>
     <g id="line2d_18">
      <g>
       <use xlink:href="#m4989ca4dfe" x="530.048462" y="465.838125" style="stroke: #000000; stroke-width: 0.8"/>
      </g>
     </g>
     <g id="text_9">
      <!-- 2024-07 -->
      <g transform="translate(509.157055 480.436562) scale(0.1 -0.1)">
       <use xlink:href="#DejaVuSans-32"/>
       <use xlink:href="#DejaVuSans-30" x="63.623047"/>
       <use xlink:href="#DejaVuSans-32" x="127.246094"/>
       <use xlink:href="#DejaVuSans-34" x="190.869141"/>
       <use xlink:href="#DejaVuSans-2d" x="254.492188"/>
       <use xlink:href="#DejaVuSans-30" x="290.576172"/>
       <use xlink:href="#DejaVuSans-37" x="354.199219"/>
      </g>
     </g>
    </g>
    <g id="xtick_10">
     <g id="line2d_19">
      <path d="M 587.032437 465.838125 
L 587.032437 22.318125 
" clip-path="url(#pebb6d4d2a1)" style="fill: none; stroke: #b0b0b0; stroke-opacity: 0.6; stroke-width: 0.8; stroke-linecap: square"/>
     </g>
     <g id="line2d_20">
      <g>
       <use xlink:href="#m4989ca4dfe" x="587.032437" y="465.838125" style="stroke: #000000; stroke-width: 0.8"/>
      </g>
     </g>
     <g id="text_10">
      <!-- 2025-01 -->
      <g transform="translate(566.141031 480.436562) scale(0.1 -0.1)">
       <defs>
        <path id="DejaVuSans-35" d="M 691 4666 
L 3169 4666 
L 3169 4134 
L 1269 4134 
L 1269 2991 
Q 1406 3038 1543 3061 
Q 1681 3084 1819 3084 
Q 2600 3084 3056 2656 
Q 3513 2228 3513 1497 
Q 3513 744 3044 326 
Q 2575 -91 1722 -91 
Q 1428 -91 1123 -41 
Q 819 9 494 109 
L 494 744 
Q 775 591 1075 516 
Q 1375 441 1709 441 
Q 2250 441 2565 725 
Q 2881 1009 2881 1497 
Q 2881 1984 2565 2268 
Q 2250 2553 1709 2553 
Q 1456 2553 1204 2497 
Q 953 2441 691 2322 
L 691 4666 
z
" transform="scale(0.015625)"/>
       </defs>
       <use xlink:href="#DejaVuSans-32"/>
       <use xlink:href="#DejaVuSans-30" x="63.623047"/>
       <use xlink:href="#DejaVuSans-32" x="127.246094"/>
       <use xlink:href="#DejaVuSans-35" x="190.869141"/>
       <use xlink:href="#DejaVuSans-2d" x="254.492188"/>
       <use xlink:href="#DejaVuSans-30" x="290.576172"/>
       <use xlink:href="#DejaVuSans-31" x="354.199219"/>
      </g>
     </g>
    </g>
    <g id="text_11">
     <!-- Date -->
     <g transform="translate(314.014844 494.114687) scale(0.1 -0.1)">
      <defs>
       <path id="DejaVuSans-44" d="M 1259 4147 
L 1259 519 
L 2022 519 
Q 2988 519 3436 956 
Q 3884 1394 3884 2338 
Q 3884 3275 3436 3711 
Q 2988 4147 2022 4147 
L 1259 4147 
z
M 628 4666 
L 1925 4666 
Q 3281 4666 3915 4102 
Q 4550 3538 4550 2338 
Q 4550 1131 3912 565 
Q 3275 0 1925 0 
L 628 0 
L 628 4666 
z
" transform="scale(0.015625)"/>
       <path id="DejaVuSans-61" d="M 2194 1759 
Q 1497 1759 1228 1600 
Q 959 1441 959 1056 
Q 959 750 1161 570 
Q 1363 391 1709 391 
Q 2188 391 2477 730 
Q 2766 1069 2766 1631 
L 2766 1759 
L 2194 1759 
z
M 3341 1997 
L 3341 0 
L 2766 0 
L 2766 531 
Q 2569 213 2275 61 
Q 1981 -91 1556 -91 
Q 1019 -91 701 211 
Q 384 513 384 1019 
Q 384 1609 779 1909 
Q 1175 2209 1959 2209 
L 2766 2209 
L 2766 2266 
Q 2766 2663 2505 2880 
Q 2244 3097 1772 3097 
Q 1472 3097 1187 3025 
Q 903 2953 641 2809 
L 641 3341 
Q 956 3463 1253 3523 
Q 1550 3584 1831 3584 
Q 2591 3584 2966 3190 
Q 3341 2797 3341 1997 
z
" transform="scale(0.015625)"/>
       <path id="DejaVuSans-74" d="M 1172 4494 
L 1172 3500 
L 2356 3500 
L 2356 3053 
L 1172 3053 
L 1172 1153 
Q 1172 725 1289 603 
Q 1406 481 1766 481 
L 2356 481 
L 2356 0 
L 1766 0 
Q 1100 0 847 248 
Q 594 497 594 1153 
L 594 3053 
L 172 3053 
L 172 3500 
L 594 3500 
L 594 4494 
L 1172 4494 
z
" transform="scale(0.015625)"/>
       <path id="DejaVuSans-65" d="M 3597 1894 
L 3597 1613 
L 953 1613 
Q 991 1019 1311 708 
Q 1631 397 2203 397 
Q 2534 397 2845 478 
Q 3156 559 3463 722 
L 3463 178 
Q 3153 47 2828 -22 
Q 2503 -91 2169 -91 
Q 1331 -91 842 396 
Q 353 884 353 1716 
Q 353 2575 817 3079 
Q 1281 3584 2069 3584 
Q 2775 3584 3186 3129 
Q 3597 2675 3597 1894 
z
M 3022 2063 
Q 3016 2534 2758 2815 
Q 2500 3097 2075 3097 
Q 1594 3097 1305 2825 
Q 1016 2553 972 2059 
L 3022 2063 
z
" transform="scale(0.015625)"/>
      </defs>
      <use xlink:href="#DejaVuSans-44"/>
      <use xlink:href="#DejaVuSans-61" x="77.001953"/>
      <use xlink:href="#DejaVuSans-74" x="138.28125"/>
      <use xlink:href="#DejaVuSans-65" x="177.490234"/>
     </g>
    </g>
   </g>
   <g id="matplotlib.axis_2">
    <g id="ytick_1">
     <g id="line2d_21">
      <path d="M 46.965625 448.537699 
L 604.965625 448.537699 
" clip-path="url(#pebb6d4d2a1)" style="fill: none; stroke: #b0b0b0; stroke-opacity: 0.6; stroke-width: 0.8; stroke-linecap: square"/>
     </g>
     <g id="line2d_22">
      <defs>
       <path id="mc11dc46687" d="M 0 0 
L -3.5 0 
" style="stroke: #000000; stroke-width: 0.8"/>
      </defs>
      <g>
       <use xlink:href="#mc11dc46687" x="46.965625" y="448.537699" style="stroke: #000000; stroke-width: 0.8"/>
      </g>
     </g>
     <g id="text_12">
      <!-- 0 -->
      <g transform="translate(33.603125 452.336918) scale(0.1 -0.1)">
       <use xlink:href="#DejaVuSans-30"/>
      </g>
     </g>
    </g>
    <g id="ytick_2">
     <g id="line2d_23">
      <path d="M 46.965625 377.048338 
L 604.965625 377.048338 
" clip-path="url(#pebb6d4d2a1)" style="fill: none; stroke: #b0b0b0; stroke-opacity: 0.6; stroke-width: 0.8; stroke-linecap: square"/>
     </g>
     <g id="line2d_24">
      <g>
       <use xlink:href="#mc11dc46687" x="46.965625" y="377.048338" style="stroke: #000000; stroke-width: 0.8"/>
      </g>
     </g>
     <g id="text_13">
      <!-- 50 -->
      <g transform="translate(27.240625 380.847557) scale(0.1 -0.1)">
       <use xlink:href="#DejaVuSans-35"/>
       <use xlink:href="#DejaVuSans-30" x="63.623047"/>
      </g>
     </g>
    </g>
    <g id="ytick_3">
     <g id="line2d_25">
      <path d="M 46.965625 305.558976 
L 604.965625 305.558976 
" clip-path="url(#pebb6d4d2a1)" style="fill: none; stroke: #b0b0b0; stroke-opacity: 0.6; stroke-width: 0.8; stroke-linecap: square"/>
     </g>
     <g id="line2d_26">
      <g>
       <use xlink:href="#mc11dc46687" x="46.965625" y="305.558976" style="stroke: #000000; stroke-width: 0.8"/>
      </g>
     </g>
     <g id="text_14">
      <!-- 100 -->
      <g transform="translate(20.878125 309.358195) scale(0.1 -0.1)">
       <use xlink:href="#DejaVuSans-31"/>
       <use xlink:href="#DejaVuSans-30" x="63.623047"/>
       <use xlink:href="#DejaVuSans-30" x="127.246094"/>
      </g>
     </g>
    </g>
    <g id="ytick_4">
     <g id="line2d_27">
      <path d="M 46.965625 234.069614 
L 604.965625 234.069614 
" clip-path="url(#pebb6d4d2a1)" style="fill: none; stroke: #b0b0b0; stroke-opacity: 0.6; stroke-width: 0.8; stroke-linecap: square"/>
     </g>
     <g id="line2d_28">
      <g>
       <use xlink:href="#mc11dc46687" x="46.965625" y="234.069614" style="stroke: #000000; stroke-width: 0.8"/>
      </g>
     </g>
     <g id="text_15">
      <!-- 150 -->
      <g transform="translate(20.878125 237.868833) scale(0.1 -0.1)">
       <use xlink:href="#DejaVuSans-31"/>
       <use xlink:href="#DejaVuSans-35" x="63.623047"/>
       <use xlink:href="#DejaVuSans-30" x="127.246094"/>
      </g>
     </g>
    </g>
    <g id="ytick_5">
     <g id="line2d_29">
      <path d="M 46.965625 162.580253 
L 604.965625 162.580253 
" clip-path="url(#pebb6d4d2a1)" style="fill: none; stroke: #b0b0b0; stroke-opacity: 0.6; stroke-width: 0.8; stroke-linecap: square"/>
     </g>
     <g id="line2d_30">
      <g>
       <use xlink:href="#mc11dc46687" x="46.965625" y="162.580253" style="stroke: #000000; stroke-width: 0.8"/>
      </g>
     </g>
     <g id="text_16">
      <!-- 200 -->
      <g transform="translate(20.878125 166.379471) scale(0.1 -0.1)">
       <use xlink:href="#DejaVuSans-32"/>
       <use xlink:href="#DejaVuSans-30" x="63.623047"/>
       <use xlink:href="#DejaVuSans-30" x="127.246094"/>
      </g>
     </g>
    </g>
    <g id="ytick_6">
     <g id="line2d_31">
      <path d="M 46.965625 91.090891 
L 604.965625 91.090891 
" clip-path="url(#pebb6d4d2a1)" style="fill: none; stroke: #b0b0b0; stroke-opacity: 0.6; stroke-width: 0.8; stroke-linecap: square"/>
     </g>
     <g id="line2d_32">
      <g>
       <use xlink:href="#mc11dc46687" x="46.965625" y="91.090891" style="stroke: #000000; stroke-width: 0.8"/>
      </g>
     </g>
     <g id="text_17">
      <!-- 250 -->
      <g transform="translate(20.878125 94.89011) scale(0.1 -0.1)">
       <use xlink:href="#DejaVuSans-32"/>
       <use xlink:href="#DejaVuSans-35" x="63.623047"/>
       <use xlink:href="#DejaVuSans-30" x="127.246094"/>
      </g>
     </g>
    </g>
    <g id="text_18">
     <!-- Count -->
     <g transform="translate(14.798437 258.926562) rotate(-90) scale(0.1 -0.1)">
      <defs>
       <path id="DejaVuSans-43" d="M 4122 4306 
L 4122 3641 
Q 3803 3938 3442 4084 
Q 3081 4231 2675 4231 
Q 1875 4231 1450 3742 
Q 1025 3253 1025 2328 
Q 1025 1406 1450 917 
Q 1875 428 2675 428 
Q 3081 428 3442 575 
Q 3803 722 4122 1019 
L 4122 359 
Q 3791 134 3420 21 
Q 3050 -91 2638 -91 
Q 1578 -91 968 557 
Q 359 1206 359 2328 
Q 359 3453 968 4101 
Q 1578 4750 2638 4750 
Q 3056 4750 3426 4639 
Q 3797 4528 4122 4306 
z
" transform="scale(0.015625)"/>
       <path id="DejaVuSans-6f" d="M 1959 3097 
Q 1497 3097 1228 2736 
Q 959 2375 959 1747 
Q 959 1119 1226 758 
Q 1494 397 1959 397 
Q 2419 397 2687 759 
Q 2956 1122 2956 1747 
Q 2956 2369 2687 2733 
Q 2419 3097 1959 3097 
z
M 1959 3584 
Q 2709 3584 3137 3096 
Q 3566 2609 3566 1747 
Q 3566 888 3137 398 
Q 2709 -91 1959 -91 
Q 1206 -91 779 398 
Q 353 888 353 1747 
Q 353 2609 779 3096 
Q 1206 3584 1959 3584 
z
" transform="scale(0.015625)"/>
       <path id="DejaVuSans-75" d="M 544 1381 
L 544 3500 
L 1119 3500 
L 1119 1403 
Q 1119 906 1312 657 
Q 1506 409 1894 409 
Q 2359 409 2629 706 
Q 2900 1003 2900 1516 
L 2900 3500 
L 3475 3500 
L 3475 0 
L 2900 0 
L 2900 538 
Q 2691 219 2414 64 
Q 2138 -91 1772 -91 
Q 1169 -91 856 284 
Q 544 659 544 1381 
z
M 1991 3584 
L 1991 3584 
z
" transform="scale(0.015625)"/>
       <path id="DejaVuSans-6e" d="M 3513 2113 
L 3513 0 
L 2938 0 
L 2938 2094 
Q 2938 2591 2744 2837 
Q 2550 3084 2163 3084 
Q 1697 3084 1428 2787 
Q 1159 2491 1159 1978 
L 1159 0 
L 581 0 
L 581 3500 
L 1159 3500 
L 1159 2956 
Q 1366 3272 1645 3428 
Q 1925 3584 2291 3584 
Q 2894 3584 3203 3211 
Q 3513 2838 3513 2113 
z
" transform="scale(0.015625)"/>
      </defs>
      <use xlink:href="#DejaVuSans-43"/>
      <use xlink:href="#DejaVuSans-6f" x="69.824219"/>
      <use xlink:href="#DejaVuSans-75" x="131.005859"/>
      <use xlink:href="#DejaVuSans-6e" x="194.384766"/>
      <use xlink:href="#DejaVuSans-74" x="257.763672"/>
     </g>
    </g>
   </g>
   <g id="line2d_33">
    <path d="M 579.601989 435.669614 
L 579.474469 434.239827 
L 578.357303 432.81004 
L 578.347041 431.380253 
L 575.542346 431.380253 
L 575.431573 429.950465 
L 548.889251 429.950465 
L 548.852733 427.090891 
L 547.625503 425.661104 
L 536.792311 425.661104 
L 535.85559 424.231316 
L 503.686982 424.231316 
L 503.687347 425.661104 
L 498.743048 425.661104 
L 498.733592 427.090891 
L 498.732459 425.661104 
L 484.063738 425.661104 
L 483.574853 427.090891 
L 480.038969 427.090891 
L 480.038779 425.661104 
L 471.110078 425.661104 
L 470.904406 427.090891 
L 466.885358 427.090891 
L 466.871848 425.661104 
L 462.52416 425.661104 
L 462.390188 427.090891 
L 457.909299 427.090891 
L 457.838259 425.661104 
L 421.925038 425.661104 
L 421.176098 424.231316 
L 390.514281 424.231316 
L 390.367545 421.371742 
L 358.972803 421.371742 
L 358.972746 422.801529 
L 351.692518 422.801529 
L 351.038132 424.231316 
L 350.894188 424.231316 
L 350.686523 425.661104 
L 350.678017 424.231316 
L 349.172528 424.231316 
L 349.171678 425.661104 
L 342.995095 425.661104 
L 342.929514 424.231316 
L 338.886597 424.231316 
L 338.796359 422.801529 
L 329.330759 422.801529 
L 329.330641 424.231316 
L 315.429835 424.231316 
L 315.410214 425.661104 
L 304.863956 425.661104 
L 304.789163 427.090891 
L 293.653857 427.090891 
L 293.622934 428.520678 
L 290.565841 428.520678 
L 290.310697 429.950465 
L 287.783786 429.950465 
L 287.744318 427.090891 
L 282.526833 427.090891 
L 282.136251 428.520678 
L 262.935036 428.520678 
L 262.390746 427.090891 
L 253.41963 427.090891 
L 253.366409 425.661104 
L 246.052064 425.661104 
L 246.052039 424.231316 
L 238.266394 424.231316 
L 238.541388 424.231316 
L 238.125522 425.661104 
L 227.114093 425.661104 
L 226.84007 427.090891 
L 221.780211 427.090891 
L 221.712179 425.661104 
L 210.98928 425.661104 
L 210.989183 427.090891 
L 180.656213 427.090891 
L 180.609719 428.520678 
L 178.73281 428.520678 
L 178.732717 429.950465 
L 172.938486 429.950465 
L 172.578167 431.380253 
L 171.09464 431.380253 
L 170.945204 429.950465 
L 150.510953 429.950465 
L 150.196633 431.380253 
L 142.628008 431.380253 
L 142.617961 429.950465 
L 140.735815 429.950465 
L 140.728166 431.380253 
L 138.185182 431.380253 
L 137.887473 434.239827 
L 134.559791 434.239827 
L 134.539887 435.669614 
L 133.359785 435.669614 
L 133.188216 437.099402 
L 130.860059 437.099402 
L 130.857675 438.529189 
L 125.801078 438.529189 
L 125.110253 439.958976 
L 94.242861 439.958976 
L 94.22781 441.388763 
L 89.037292 441.388763 
L 89.027406 442.818551 
L 81.55446 442.818551 
L 81.516881 444.248338 
L 72.600919 444.248338 
L 72.597359 445.678125 
L 72.329261 445.678125 
L 72.329261 445.678125 
" clip-path="url(#pebb6d4d2a1)" style="fill: none; stroke: #1f77b4; stroke-opacity: 0.8; stroke-width: 1.5; stroke-linecap: square"/>
   </g>
   <g id="line2d_34">
    <path d="M 579.601989 155.431316 
L 579.474469 142.563231 
L 578.357303 142.563231 
L 578.347041 126.835572 
L 576.749345 126.835572 
L 575.825506 128.265359 
L 575.542346 131.124934 
L 575.431573 123.975997 
L 574.651577 123.975997 
L 574.651212 125.405785 
L 573.96776 129.695146 
L 573.324779 129.695146 
L 573.324532 131.124934 
L 572.741828 131.124934 
L 572.741115 132.554721 
L 570.906323 132.554721 
L 570.897967 111.107912 
L 570.866503 113.967487 
L 570.768225 115.397274 
L 569.627574 115.397274 
L 569.622058 108.248338 
L 568.987318 108.248338 
L 568.922587 105.388763 
L 568.608952 105.388763 
L 568.595707 96.81004 
L 568.380003 96.81004 
L 568.358446 95.380253 
L 568.358446 95.380253 
L 567.498303 96.81004 
L 567.480467 99.669614 
L 566.42063 99.669614 
L 566.420587 101.099402 
L 561.264272 101.099402 
L 560.955551 103.958976 
L 560.246223 103.958976 
L 560.231036 105.388763 
L 559.418515 106.818551 
L 558.410514 109.678125 
L 558.410284 112.537699 
L 558.121328 112.537699 
L 558.12097 113.967487 
L 557.532634 113.967487 
L 555.933003 115.397274 
L 552.643994 115.397274 
L 552.643886 116.827061 
L 551.991608 116.827061 
L 551.243231 118.256848 
L 549.185756 118.256848 
L 549.098062 81.08238 
L 548.889251 81.08238 
L 548.852733 73.933444 
L 547.625503 42.478125 
L 546.395521 46.767487 
L 544.220476 46.767487 
L 543.912039 48.197274 
L 543.274916 49.627061 
L 541.437927 49.627061 
L 540.532974 51.056848 
L 540.276418 51.056848 
L 540.275704 52.486636 
L 539.869631 51.056848 
L 539.869491 52.486636 
L 539.632283 52.486636 
L 539.869835 49.627061 
L 539.615587 49.627061 
L 538.420657 51.056848 
L 538.412302 53.916423 
L 537.753804 53.916423 
L 537.734309 55.34621 
L 537.130919 56.775997 
L 536.792311 56.775997 
L 535.85559 42.478125 
L 533.081377 42.478125 
L 533.080854 43.907912 
L 530.038841 43.907912 
L 529.941161 46.767487 
L 529.940943 49.627061 
L 527.791086 49.627061 
L 527.731064 52.486636 
L 525.556593 52.486636 
L 525.5565 53.916423 
L 525.005045 53.916423 
L 524.420344 55.34621 
L 523.148173 55.34621 
L 522.335857 58.205785 
L 518.291785 58.205785 
L 518.291946 58.205785 
L 515.458698 59.635572 
L 512.947623 59.635572 
L 509.887997 61.065359 
L 510.380782 61.065359 
L 506.746196 62.495146 
L 505.22472 63.924934 
L 503.686982 63.924934 
L 503.687347 66.784508 
L 502.731188 66.784508 
L 501.405329 68.214295 
L 498.743048 68.214295 
L 498.733592 73.933444 
L 498.732459 69.644082 
L 496.517165 69.644082 
L 496.51691 71.07387 
L 496.516878 69.644082 
L 495.608571 71.07387 
L 494.739878 71.07387 
L 494.098593 72.503657 
L 491.613086 72.503657 
L 490.734651 73.933444 
L 489.068626 75.363231 
L 488.391231 76.793019 
L 487.617695 76.793019 
L 487.617652 78.222806 
L 487.264793 78.222806 
L 487.264552 82.512168 
L 485.416785 82.512168 
L 485.099723 83.941955 
L 484.54025 85.371742 
L 484.063738 85.371742 
L 483.574853 86.801529 
L 482.611388 86.801529 
L 482.593749 78.222806 
L 482.591437 81.08238 
L 482.286337 81.08238 
L 482.25821 82.512168 
L 480.038969 82.512168 
L 480.038779 76.793019 
L 478.89045 78.222806 
L 478.88974 81.08238 
L 477.630681 81.08238 
L 477.073498 82.512168 
L 475.756582 82.512168 
L 475.68703 83.941955 
L 475.686955 86.801529 
L 473.88276 86.801529 
L 473.08291 88.231316 
L 472.765934 88.231316 
L 471.988602 95.380253 
L 471.979974 96.81004 
L 470.904406 96.81004 
L 470.749548 98.239827 
L 469.200138 98.239827 
L 469.200092 99.669614 
L 468.654285 99.669614 
L 467.477113 101.099402 
L 466.885358 101.099402 
L 466.871848 95.380253 
L 463.721169 95.380253 
L 463.72094 92.520678 
L 462.772135 92.520678 
L 463.121944 92.520678 
L 462.69721 93.950465 
L 462.682825 81.08238 
L 462.538197 82.512168 
L 462.52416 81.08238 
L 462.390188 88.231316 
L 461.586779 89.661104 
L 457.909299 89.661104 
L 457.838259 85.371742 
L 452.85519 85.371742 
L 452.289824 86.801529 
L 451.015617 86.801529 
L 450.713316 88.231316 
L 447.21128 88.231316 
L 446.380937 82.512168 
L 445.385374 85.371742 
L 443.915406 85.371742 
L 442.025564 86.801529 
L 441.109457 88.231316 
L 440.481065 88.231316 
L 436.964903 89.661104 
L 436.648687 89.661104 
L 436.648612 91.090891 
L 434.943932 91.090891 
L 434.943921 88.231316 
L 433.057316 88.231316 
L 432.388298 85.371742 
L 431.474073 85.371742 
L 430.010715 86.801529 
L 430.010661 88.231316 
L 429.826457 88.231316 
L 427.785617 89.661104 
L 427.170434 89.661104 
L 426.535429 102.529189 
L 424.362797 103.958976 
L 423.348562 103.958976 
L 423.76501 103.958976 
L 423.160773 109.678125 
L 422.815581 109.678125 
L 422.249928 111.107912 
L 421.925038 111.107912 
L 421.176098 109.678125 
L 416.543186 109.678125 
L 416.245495 111.107912 
L 416.238982 112.537699 
L 415.928774 112.537699 
L 415.921082 69.644082 
L 414.994336 69.644082 
L 414.982711 71.07387 
L 411.974614 71.07387 
L 410.334726 72.503657 
L 408.247687 72.503657 
L 407.032641 71.07387 
L 407.023662 72.503657 
L 400.570181 72.503657 
L 400.51397 65.354721 
L 399.280134 65.354721 
L 398.032566 66.784508 
L 396.794078 66.784508 
L 395.479643 68.214295 
L 394.24227 68.214295 
L 394.241266 71.07387 
L 394.031752 72.503657 
L 394.010242 73.933444 
L 393.747334 73.933444 
L 393.361365 75.363231 
L 393.299924 76.793019 
L 393.0373 76.793019 
L 392.97293 81.08238 
L 391.867181 83.941955 
L 390.514281 83.941955 
L 390.367545 78.222806 
L 385.683063 78.222806 
L 385.683006 79.652593 
L 385.055278 78.222806 
L 384.715684 79.652593 
L 382.247268 79.652593 
L 382.238726 81.08238 
L 380.015868 81.08238 
L 379.980497 82.512168 
L 376.39899 82.512168 
L 374.856893 83.941955 
L 374.514608 83.941955 
L 373.828152 85.371742 
L 367.754198 85.371742 
L 367.747237 86.801529 
L 365.57163 86.801529 
L 365.571185 89.661104 
L 361.878088 89.661104 
L 360.979852 91.090891 
L 358.972803 91.090891 
L 358.972746 92.520678 
L 357.788225 92.520678 
L 357.509004 93.950465 
L 356.296625 93.950465 
L 355.659574 95.380253 
L 353.986795 95.380253 
L 352.850772 96.81004 
L 352.547844 98.239827 
L 351.038132 98.239827 
L 350.894188 96.81004 
L 350.686523 96.81004 
L 350.678017 82.512168 
L 350.54401 83.941955 
L 350.391338 88.231316 
L 348.197837 88.231316 
L 347.277593 83.941955 
L 347.277457 86.801529 
L 346.984088 88.231316 
L 346.970145 92.520678 
L 345.705046 98.239827 
L 345.465706 98.239827 
L 345.414835 46.767487 
L 345.414753 49.627061 
L 344.170856 49.627061 
L 343.136268 52.486636 
L 342.929514 53.916423 
L 341.732315 56.775997 
L 341.421458 58.205785 
L 341.415135 61.065359 
L 341.021331 62.495146 
L 340.776758 62.495146 
L 340.7767 66.784508 
L 339.852392 66.784508 
L 338.886597 68.214295 
L 338.796359 62.495146 
L 337.969353 62.495146 
L 337.969052 63.924934 
L 337.062469 65.354721 
L 334.945657 65.354721 
L 334.878212 63.924934 
L 334.286988 63.924934 
L 332.368137 68.214295 
L 334.287038 69.644082 
L 327.733002 69.644082 
L 327.732655 73.933444 
L 326.520451 73.933444 
L 326.520398 75.363231 
L 325.653311 75.363231 
L 324.692796 76.793019 
L 323.610063 79.652593 
L 316.869088 79.652593 
L 315.867986 81.08238 
L 315.429835 81.08238 
L 315.410214 83.941955 
L 313.861647 83.941955 
L 313.861586 85.371742 
L 312.168552 85.371742 
L 311.233113 88.231316 
L 311.233658 88.231316 
L 308.739745 88.231316 
L 308.17315 89.661104 
L 307.99172 91.090891 
L 306.577311 91.090891 
L 307.039198 92.520678 
L 306.070769 96.81004 
L 305.97082 98.239827 
L 305.37171 98.239827 
L 305.223522 105.388763 
L 304.114851 105.388763 
L 302.743151 106.818551 
L 302.733079 108.248338 
L 302.5687 112.537699 
L 302.566815 105.388763 
L 302.26831 106.818551 
L 300.407337 106.818551 
L 300.245181 111.107912 
L 296.518859 112.537699 
L 296.518658 113.967487 
L 296.348498 115.397274 
L 295.583313 115.397274 
L 295.142047 116.827061 
L 293.091963 116.827061 
L 293.073952 118.256848 
L 293.073862 116.827061 
L 291.847428 116.827061 
L 291.72831 118.256848 
L 291.728253 119.686636 
L 291.484611 119.686636 
L 291.276893 121.116423 
L 290.953699 122.54621 
L 290.565841 122.54621 
L 290.315758 128.265359 
L 290.310697 133.984508 
L 289.32184 139.703657 
L 288.719099 139.703657 
L 288.689771 133.984508 
L 288.340611 133.984508 
L 288.312121 135.414295 
L 288.046765 135.414295 
L 287.783786 136.844082 
L 287.744318 125.405785 
L 287.195468 126.835572 
L 286.156408 126.835572 
L 285.997975 128.265359 
L 285.989875 129.695146 
L 285.699356 132.554721 
L 285.539662 132.554721 
L 285.539565 135.414295 
L 283.111409 136.844082 
L 282.554788 136.844082 
L 282.526833 138.27387 
L 282.179552 145.422806 
L 282.136251 143.993019 
L 279.752062 143.993019 
L 279.385334 146.852593 
L 278.276384 148.28238 
L 277.461186 148.28238 
L 277.461125 149.712168 
L 277.273469 151.141955 
L 275.350876 151.141955 
L 274.481478 152.571742 
L 274.479661 151.141955 
L 272.269754 152.571742 
L 271.262648 152.571742 
L 271.137032 154.001529 
L 269.814331 155.431316 
L 269.535848 156.861104 
L 268.95894 156.861104 
L 268.047439 159.720678 
L 267.119173 158.290891 
L 265.723593 158.290891 
L 265.56638 159.720678 
L 262.935036 159.720678 
L 262.390746 148.28238 
L 261.494206 149.712168 
L 261.492418 151.141955 
L 260.835716 152.571742 
L 260.153343 156.861104 
L 260.148981 159.720678 
L 258.988096 162.580253 
L 258.925074 166.869614 
L 258.613576 168.299402 
L 255.83185 171.158976 
L 255.61877 161.150465 
L 255.181271 162.580253 
L 255.181214 165.439827 
L 253.41963 165.439827 
L 253.366409 159.720678 
L 252.887736 159.720678 
L 252.165267 161.150465 
L 250.853667 161.150465 
L 250.623105 162.580253 
L 250.548886 164.01004 
L 249.97891 164.01004 
L 249.978641 165.439827 
L 249.715489 165.439827 
L 249.610229 172.588763 
L 248.992823 172.588763 
L 248.435748 174.018551 
L 247.908749 174.018551 
L 247.844183 185.456848 
L 247.750278 189.74621 
L 246.052064 188.316423 
L 246.052039 168.299402 
L 244.662889 165.439827 
L 244.28457 166.869614 
L 242.666708 166.869614 
L 242.635771 168.299402 
L 241.013715 168.299402 
L 240.75898 169.729189 
L 240.500685 169.729189 
L 239.485508 171.158976 
L 238.44149 171.158976 
L 238.266394 175.448338 
L 238.541388 175.448338 
L 238.120417 181.167487 
L 236.61039 181.167487 
L 235.82628 182.597274 
L 236.296099 182.597274 
L 234.873711 184.027061 
L 234.622274 189.74621 
L 234.265504 191.175997 
L 233.002301 189.74621 
L 232.879982 191.175997 
L 232.425016 191.175997 
L 232.421342 162.580253 
L 232.034528 143.993019 
L 231.993249 145.422806 
L 230.191448 145.422806 
L 230.170788 151.141955 
L 229.609945 152.571742 
L 229.317376 155.431316 
L 227.114093 155.431316 
L 226.84007 156.861104 
L 223.639564 156.861104 
L 224.62789 158.290891 
L 224.009098 158.290891 
L 223.882047 161.150465 
L 223.06139 162.580253 
L 222.821111 169.729189 
L 221.783918 174.018551 
L 221.721968 166.869614 
L 221.712179 168.299402 
L 220.955088 168.299402 
L 220.456428 169.729189 
L 220.486329 169.729189 
L 219.381781 171.158976 
L 211.960612 171.158976 
L 211.931267 172.588763 
L 211.622542 176.878125 
L 209.349438 176.878125 
L 209.181704 178.307912 
L 207.889256 178.307912 
L 207.591124 179.737699 
L 207.588493 188.316423 
L 207.278339 189.74621 
L 207.278288 192.605785 
L 206.423009 192.605785 
L 206.35388 194.035572 
L 206.043711 194.035572 
L 205.413086 195.465359 
L 204.766278 195.465359 
L 204.698507 198.324934 
L 201.687209 198.324934 
L 201.687101 201.184508 
L 200.704148 204.044082 
L 198.017536 204.044082 
L 198.014435 206.903657 
L 197.718658 206.903657 
L 197.431186 208.333444 
L 197.065659 208.333444 
L 197.059139 209.763231 
L 194.255538 209.763231 
L 194.007671 211.193019 
L 193.602486 212.622806 
L 192.41675 214.052593 
L 192.41675 214.052593 
L 191.83226 215.48238 
L 191.83216 216.912168 
L 189.554027 216.912168 
L 188.723996 218.341955 
L 187.510513 218.341955 
L 187.508732 219.771742 
L 185.307786 221.201529 
L 184.076051 222.631316 
L 182.835035 222.631316 
L 182.701608 224.061104 
L 181.875184 226.920678 
L 181.8747 228.350465 
L 179.104789 228.350465 
L 179.027179 231.21004 
L 178.73281 231.21004 
L 178.732717 234.069614 
L 178.40663 234.069614 
L 178.406544 232.639827 
L 178.20931 232.639827 
L 177.893811 234.069614 
L 177.893761 235.499402 
L 177.225245 236.929189 
L 177.225342 236.929189 
L 176.021845 236.929189 
L 174.153449 238.358976 
L 174.1479 241.218551 
L 173.207928 241.218551 
L 172.975215 242.648338 
L 172.938486 246.937699 
L 172.578167 251.227061 
L 172.21516 252.656848 
L 172.178499 254.086636 
L 171.619047 254.086636 
L 171.09464 255.516423 
L 170.945204 255.516423 
L 170.403499 256.94621 
L 168.79167 256.94621 
L 168.767142 258.375997 
L 167.300271 258.375997 
L 167.300271 258.375997 
L 167.085036 259.805785 
L 167.083384 248.367487 
L 167.077068 249.797274 
L 163.859962 249.797274 
L 163.809454 259.805785 
L 163.674672 262.665359 
L 162.601308 262.665359 
L 162.086959 264.095146 
L 160.706226 264.095146 
L 160.704029 265.524934 
L 160.576211 268.384508 
L 160.098843 269.814295 
L 160.085896 274.103657 
L 159.935891 274.103657 
L 159.911674 275.533444 
L 159.179886 275.533444 
L 158.257563 276.963231 
L 158.082872 276.963231 
L 158.071029 278.393019 
L 157.965338 279.822806 
L 155.524859 279.822806 
L 155.160117 281.252593 
L 154.958704 282.68238 
L 154.369827 284.112168 
L 154.237411 284.112168 
L 153.593627 285.541955 
L 153.458641 285.541955 
L 153.444361 289.831316 
L 153.291445 291.261104 
L 153.291366 292.690891 
L 153.065475 292.690891 
L 152.142919 301.269614 
L 152.06394 299.839827 
L 151.779754 299.839827 
L 151.737268 301.269614 
L 151.53093 302.699402 
L 150.510953 302.699402 
L 150.196633 305.558976 
L 148.424766 305.558976 
L 148.409841 306.988763 
L 148.20252 306.988763 
L 147.889713 308.418551 
L 147.243909 299.839827 
L 145.417573 299.839827 
L 145.013527 301.269614 
L 145.011276 302.699402 
L 143.879909 302.699402 
L 143.878253 304.129189 
L 143.54861 304.129189 
L 143.373102 305.558976 
L 143.244345 305.558976 
L 143.238768 309.848338 
L 142.943356 309.848338 
L 142.94288 311.278125 
L 142.628008 311.278125 
L 142.620165 309.848338 
L 142.617961 311.278125 
L 141.038105 311.278125 
L 140.735815 312.707912 
L 140.728166 314.137699 
L 139.180143 314.137699 
L 138.44918 308.418551 
L 138.185182 312.707912 
L 137.887473 318.427061 
L 136.324385 318.427061 
L 136.024149 319.856848 
L 135.727533 319.856848 
L 135.727433 322.716423 
L 135.527916 322.716423 
L 135.511391 324.14621 
L 134.894656 324.14621 
L 134.757899 331.295146 
L 134.559791 332.724934 
L 134.539887 334.154721 
L 133.894211 334.154721 
L 133.790366 339.87387 
L 133.545162 339.87387 
L 133.494517 341.303657 
L 133.359785 342.733444 
L 133.188216 349.88238 
L 132.926183 351.312168 
L 130.860059 351.312168 
L 130.857675 354.171742 
L 128.586481 354.171742 
L 128.571724 357.031316 
L 127.453419 357.031316 
L 127.452211 349.88238 
L 125.801078 349.88238 
L 125.110253 351.312168 
L 122.933793 352.741955 
L 121.511426 352.741955 
L 120.575368 354.171742 
L 119.60463 354.171742 
L 119.381183 355.601529 
L 118.777894 357.031316 
L 118.649689 358.461104 
L 118.649478 361.320678 
L 117.772968 361.320678 
L 117.049872 364.180253 
L 115.826732 364.180253 
L 115.826546 365.61004 
L 112.828431 365.61004 
L 111.349549 367.039827 
L 110.284806 367.039827 
L 110.260102 368.469614 
L 109.775708 369.899402 
L 109.133498 369.899402 
L 109.030482 371.329189 
L 109.030331 368.469614 
L 109.017933 369.899402 
L 108.880068 371.329189 
L 108.879641 374.188763 
L 102.673902 374.188763 
L 102.565545 378.478125 
L 101.606464 378.478125 
L 99.407084 379.907912 
L 99.408783 381.337699 
L 99.406425 381.337699 
L 96.436681 381.337699 
L 96.341321 385.627061 
L 94.607689 385.627061 
L 94.533387 387.056848 
L 94.43489 388.486636 
L 94.22781 397.065359 
L 93.889751 397.065359 
L 93.512292 398.495146 
L 93.277701 398.495146 
L 93.19727 401.354721 
L 92.678988 402.784508 
L 90.184169 402.784508 
L 89.818266 404.214295 
L 89.798092 405.644082 
L 89.489429 405.644082 
L 89.027406 412.793019 
L 84.91081 412.793019 
L 84.85042 415.652593 
L 84.26873 415.652593 
L 83.674494 417.08238 
L 83.099278 417.08238 
L 82.698401 418.512168 
L 82.38581 418.512168 
L 82.159549 419.941955 
L 82.046324 422.801529 
L 81.725556 424.231316 
L 81.516881 428.520678 
L 77.413512 428.520678 
L 76.823047 429.950465 
L 75.087043 429.950465 
L 75.086982 431.380253 
L 74.434582 431.380253 
L 74.432603 429.950465 
L 74.03254 431.380253 
L 73.750007 432.81004 
L 73.533239 432.81004 
L 73.230719 435.669614 
L 72.329261 435.669614 
L 72.329261 435.669614 
" clip-path="url(#pebb6d4d2a1)" style="fill: none; stroke: #ff7f0e; stroke-opacity: 0.8; stroke-width: 1.5; stroke-linecap: square"/>
   </g>
   <g id="patch_3">
    <path d="M 46.965625 465.838125 
L 46.965625 22.318125 
" style="fill: none; stroke: #000000; stroke-width: 0.8; stroke-linejoin: miter; stroke-linecap: square"/>
   </g>
   <g id="patch_4">
    <path d="M 604.965625 465.838125 
L 604.965625 22.318125 
" style="fill: none; stroke: #000000; stroke-width: 0.8; stroke-linejoin: miter; stroke-linecap: square"/>
   </g>
   <g id="patch_5">
    <path d="M 46.965625 465.838125 
L 604.965625 465.838125 
" style="fill: none; stroke: #000000; stroke-width: 0.8; stroke-linejoin: miter; stroke-linecap: square"/>
   </g>
   <g id="patch_6">
    <path d="M 46.965625 22.318125 
L 604.965625 22.318125 
" style="fill: none; stroke: #000000; stroke-width: 0.8; stroke-linejoin: miter; stroke-linecap: square"/>
   </g>
   <g id="text_19">
    <!-- 9 -->
    <g transform="translate(579.601989 435.669614) scale(0.1 -0.1)">
     <defs>
      <path id="DejaVuSans-39" d="M 703 97 
L 703 672 
Q 941 559 1184 500 
Q 1428 441 1663 441 
Q 2288 441 2617 861 
Q 2947 1281 2994 2138 
Q 2813 1869 2534 1725 
Q 2256 1581 1919 1581 
Q 1219 1581 811 2004 
Q 403 2428 403 3163 
Q 403 3881 828 4315 
Q 1253 4750 1959 4750 
Q 2769 4750 3195 4129 
Q 3622 3509 3622 2328 
Q 3622 1225 3098 567 
Q 2575 -91 1691 -91 
Q 1453 -91 1209 -44 
Q 966 3 703 97 
z
M 1959 2075 
Q 2384 2075 2632 2365 
Q 2881 2656 2881 3163 
Q 2881 3666 2632 3958 
Q 2384 4250 1959 4250 
Q 1534 4250 1286 3958 
Q 1038 3666 1038 3163 
Q 1038 2656 1286 2365 
Q 1534 2075 1959 2075 
z
" transform="scale(0.015625)"/>
     </defs>
     <use xlink:href="#DejaVuSans-39"/>
    </g>
   </g>
   <g id="text_20">
    <!-- 205 -->
    <g transform="translate(579.601989 155.431316) scale(0.1 -0.1)">
     <use xlink:href="#DejaVuSans-32"/>
     <use xlink:href="#DejaVuSans-30" x="63.623047"/>
     <use xlink:href="#DejaVuSans-35" x="127.246094"/>
    </g>
   </g>
   <g id="text_21">
    <!-- WireGuard peers over time -->
    <g transform="translate(244.736875 16.318125) scale(0.12 -0.12)">
     <defs>
      <path id="DejaVuSans-57" d="M 213 4666 
L 850 4666 
L 1831 722 
L 2809 4666 
L 3519 4666 
L 4500 722 
L 5478 4666 
L 6119 4666 
L 4947 0 
L 4153 0 
L 3169 4050 
L 2175 0 
L 1381 0 
L 213 4666 
z
" transform="scale(0.015625)"/>
      <path id="DejaVuSans-69" d="M 603 3500 
L 1178 3500 
L 1178 0 
L 603 0 
L 603 3500 
z
M 603 4863 
L 1178 4863 
L 1178 4134 
L 603 4134 
L 603 4863 
z
" transform="scale(0.015625)"/>
      <path id="DejaVuSans-72" d="M 2631 2963 
Q 2534 3019 2420 3045 
Q 2306 3072 2169 3072 
Q 1681 3072 1420 2755 
Q 1159 2438 1159 1844 
L 1159 0 
L 581 0 
L 581 3500 
L 1159 3500 
L 1159 2956 
Q 1341 3275 1631 3429 
Q 1922 3584 2338 3584 
Q 2397 3584 2469 3576 
Q 2541 3569 2628 3553 
L 2631 2963 
z
" transform="scale(0.015625)"/>
      <path id="DejaVuSans-47" d="M 3809 666 
L 3809 1919 
L 2778 1919 
L 2778 2438 
L 4434 2438 
L 4434 434 
Q 4069 175 3628 42 
Q 3188 -91 2688 -91 
Q 1594 -91 976 548 
Q 359 1188 359 2328 
Q 359 3472 976 4111 
Q 1594 4750 2688 4750 
Q 3144 4750 3555 4637 
Q 3966 4525 4313 4306 
L 4313 3634 
Q 3963 3931 3569 4081 
Q 3175 4231 2741 4231 
Q 1884 4231 1454 3753 
Q 1025 3275 1025 2328 
Q 1025 1384 1454 906 
Q 1884 428 2741 428 
Q 3075 428 3337 486 
Q 3600 544 3809 666 
z
" transform="scale(0.015625)"/>
      <path id="DejaVuSans-64" d="M 2906 2969 
L 2906 4863 
L 3481 4863 
L 3481 0 
L 2906 0 
L 2906 525 
Q 2725 213 2448 61 
Q 2172 -91 1784 -91 
Q 1150 -91 751 415 
Q 353 922 353 1747 
Q 353 2572 751 3078 
Q 1150 3584 1784 3584 
Q 2172 3584 2448 3432 
Q 2725 3281 2906 2969 
z
M 947 1747 
Q 947 1113 1208 752 
Q 1469 391 1925 391 
Q 2381 391 2643 752 
Q 2906 1113 2906 1747 
Q 2906 2381 2643 2742 
Q 2381 3103 1925 3103 
Q 1469 3103 1208 2742 
Q 947 2381 947 1747 
z
" transform="scale(0.015625)"/>
      <path id="DejaVuSans-20" transform="scale(0.015625)"/>
      <path id="DejaVuSans-70" d="M 1159 525 
L 1159 -1331 
L 581 -1331 
L 581 3500 
L 1159 3500 
L 1159 2969 
Q 1341 3281 1617 3432 
Q 1894 3584 2278 3584 
Q 2916 3584 3314 3078 
Q 3713 2572 3713 1747 
Q 3713 922 3314 415 
Q 2916 -91 2278 -91 
Q 1894 -91 1617 61 
Q 1341 213 1159 525 
z
M 3116 1747 
Q 3116 2381 2855 2742 
Q 2594 3103 2138 3103 
Q 1681 3103 1420 2742 
Q 1159 2381 1159 1747 
Q 1159 1113 1420 752 
Q 1681 391 2138 391 
Q 2594 391 2855 752 
Q 3116 1113 3116 1747 
z
" transform="scale(0.015625)"/>
      <path id="DejaVuSans-73" d="M 2834 3397 
L 2834 2853 
Q 2591 2978 2328 3040 
Q 2066 3103 1784 3103 
Q 1356 3103 1142 2972 
Q 928 2841 928 2578 
Q 928 2378 1081 2264 
Q 1234 2150 1697 2047 
L 1894 2003 
Q 2506 1872 2764 1633 
Q 3022 1394 3022 966 
Q 3022 478 2636 193 
Q 2250 -91 1575 -91 
Q 1294 -91 989 -36 
Q 684 19 347 128 
L 347 722 
Q 666 556 975 473 
Q 1284 391 1588 391 
Q 1994 391 2212 530 
Q 2431 669 2431 922 
Q 2431 1156 2273 1281 
Q 2116 1406 1581 1522 
L 1381 1569 
Q 847 1681 609 1914 
Q 372 2147 372 2553 
Q 372 3047 722 3315 
Q 1072 3584 1716 3584 
Q 2034 3584 2315 3537 
Q 2597 3491 2834 3397 
z
" transform="scale(0.015625)"/>
      <path id="DejaVuSans-76" d="M 191 3500 
L 800 3500 
L 1894 563 
L 2988 3500 
L 3597 3500 
L 2284 0 
L 1503 0 
L 191 3500 
z
" transform="scale(0.015625)"/>
      <path id="DejaVuSans-6d" d="M 3328 2828 
Q 3544 3216 3844 3400 
Q 4144 3584 4550 3584 
Q 5097 3584 5394 3201 
Q 5691 2819 5691 2113 
L 5691 0 
L 5113 0 
L 5113 2094 
Q 5113 2597 4934 2840 
Q 4756 3084 4391 3084 
Q 3944 3084 3684 2787 
Q 3425 2491 3425 1978 
L 3425 0 
L 2847 0 
L 2847 2094 
Q 2847 2600 2669 2842 
Q 2491 3084 2119 3084 
Q 1678 3084 1418 2786 
Q 1159 2488 1159 1978 
L 1159 0 
L 581 0 
L 581 3500 
L 1159 3500 
L 1159 2956 
Q 1356 3278 1631 3431 
Q 1906 3584 2284 3584 
Q 2666 3584 2933 3390 
Q 3200 3197 3328 2828 
z
" transform="scale(0.015625)"/>
     </defs>
     <use xlink:href="#DejaVuSans-57"/>
     <use xlink:href="#DejaVuSans-69" x="96.626953"/>
     <use xlink:href="#DejaVuSans-72" x="124.410156"/>
     <use xlink:href="#DejaVuSans-65" x="163.273438"/>
     <use xlink:href="#DejaVuSans-47" x="224.796875"/>
     <use xlink:href="#DejaVuSans-75" x="302.287109"/>
     <use xlink:href="#DejaVuSans-61" x="365.666016"/>
     <use xlink:href="#DejaVuSans-72" x="426.945312"/>
     <use xlink:href="#DejaVuSans-64" x="466.308594"/>
     <use xlink:href="#DejaVuSans-20" x="529.785156"/>
     <use xlink:href="#DejaVuSans-70" x="561.572266"/>
     <use xlink:href="#DejaVuSans-65" x="625.048828"/>
     <use xlink:href="#DejaVuSans-65" x="686.572266"/>
     <use xlink:href="#DejaVuSans-72" x="748.095703"/>
     <use xlink:href="#DejaVuSans-73" x="789.208984"/>
     <use xlink:href="#DejaVuSans-20" x="841.308594"/>
     <use xlink:href="#DejaVuSans-6f" x="873.095703"/>
     <use xlink:href="#DejaVuSans-76" x="934.277344"/>
     <use xlink:href="#DejaVuSans-65" x="993.457031"/>
     <use xlink:href="#DejaVuSans-72" x="1054.980469"/>
     <use xlink:href="#DejaVuSans-20" x="1096.09375"/>
     <use xlink:href="#DejaVuSans-74" x="1127.880859"/>
     <use xlink:href="#DejaVuSans-69" x="1167.089844"/>
     <use xlink:href="#DejaVuSans-6d" x="1194.873047"/>
     <use xlink:href="#DejaVuSans-65" x="1292.285156"/>
    </g>
   </g>
   <g id="legend_1">
    <g id="patch_7">
     <path d="M 53.965625 59.674375 
L 163.390625 59.674375 
Q 165.390625 59.674375 165.390625 57.674375 
L 165.390625 29.318125 
Q 165.390625 27.318125 163.390625 27.318125 
L 53.965625 27.318125 
Q 51.965625 27.318125 51.965625 29.318125 
L 51.965625 57.674375 
Q 51.965625 59.674375 53.965625 59.674375 
z
" style="fill: #ffffff; opacity: 0.8; stroke: #cccccc; stroke-linejoin: miter"/>
    </g>
    <g id="line2d_35">
     <path d="M 55.965625 35.416562 
L 65.965625 35.416562 
L 75.965625 35.416562 
" style="fill: none; stroke: #1f77b4; stroke-opacity: 0.8; stroke-width: 1.5; stroke-linecap: square"/>
    </g>
    <g id="text_22">
     <!-- # routers -->
     <g transform="translate(83.965625 38.916562) scale(0.1 -0.1)">
      <defs>
       <path id="DejaVuSans-23" d="M 3272 2816 
L 2363 2816 
L 2100 1772 
L 3016 1772 
L 3272 2816 
z
M 2803 4594 
L 2478 3297 
L 3391 3297 
L 3719 4594 
L 4219 4594 
L 3897 3297 
L 4872 3297 
L 4872 2816 
L 3775 2816 
L 3519 1772 
L 4513 1772 
L 4513 1294 
L 3397 1294 
L 3072 0 
L 2572 0 
L 2894 1294 
L 1978 1294 
L 1656 0 
L 1153 0 
L 1478 1294 
L 494 1294 
L 494 1772 
L 1594 1772 
L 1856 2816 
L 850 2816 
L 850 3297 
L 1978 3297 
L 2297 4594 
L 2803 4594 
z
" transform="scale(0.015625)"/>
      </defs>
      <use xlink:href="#DejaVuSans-23"/>
      <use xlink:href="#DejaVuSans-20" x="83.789062"/>
      <use xlink:href="#DejaVuSans-72" x="115.576172"/>
      <use xlink:href="#DejaVuSans-6f" x="154.439453"/>
      <use xlink:href="#DejaVuSans-75" x="215.621094"/>
      <use xlink:href="#DejaVuSans-74" x="279"/>
      <use xlink:href="#DejaVuSans-65" x="318.208984"/>
      <use xlink:href="#DejaVuSans-72" x="379.732422"/>
      <use xlink:href="#DejaVuSans-73" x="420.845703"/>
     </g>
    </g>
    <g id="line2d_36">
     <path d="M 55.965625 50.094687 
L 65.965625 50.094687 
L 75.965625 50.094687 
" style="fill: none; stroke: #ff7f0e; stroke-opacity: 0.8; stroke-width: 1.5; stroke-linecap: square"/>
    </g>
    <g id="text_23">
     <!-- # BGP sessions -->
     <g transform="translate(83.965625 53.594687) scale(0.1 -0.1)">
      <defs>
       <path id="DejaVuSans-42" d="M 1259 2228 
L 1259 519 
L 2272 519 
Q 2781 519 3026 730 
Q 3272 941 3272 1375 
Q 3272 1813 3026 2020 
Q 2781 2228 2272 2228 
L 1259 2228 
z
M 1259 4147 
L 1259 2741 
L 2194 2741 
Q 2656 2741 2882 2914 
Q 3109 3088 3109 3444 
Q 3109 3797 2882 3972 
Q 2656 4147 2194 4147 
L 1259 4147 
z
M 628 4666 
L 2241 4666 
Q 2963 4666 3353 4366 
Q 3744 4066 3744 3513 
Q 3744 3084 3544 2831 
Q 3344 2578 2956 2516 
Q 3422 2416 3680 2098 
Q 3938 1781 3938 1306 
Q 3938 681 3513 340 
Q 3088 0 2303 0 
L 628 0 
L 628 4666 
z
" transform="scale(0.015625)"/>
       <path id="DejaVuSans-50" d="M 1259 4147 
L 1259 2394 
L 2053 2394 
Q 2494 2394 2734 2622 
Q 2975 2850 2975 3272 
Q 2975 3691 2734 3919 
Q 2494 4147 2053 4147 
L 1259 4147 
z
M 628 4666 
L 2053 4666 
Q 2838 4666 3239 4311 
Q 3641 3956 3641 3272 
Q 3641 2581 3239 2228 
Q 2838 1875 2053 1875 
L 1259 1875 
L 1259 0 
L 628 0 
L 628 4666 
z
" transform="scale(0.015625)"/>
      </defs>
      <use xlink:href="#DejaVuSans-23"/>
      <use xlink:href="#DejaVuSans-20" x="83.789062"/>
      <use xlink:href="#DejaVuSans-42" x="115.576172"/>
      <use xlink:href="#DejaVuSans-47" x="182.429688"/>
      <use xlink:href="#DejaVuSans-50" x="259.919922"/>
      <use xlink:href="#DejaVuSans-20" x="320.222656"/>
      <use xlink:href="#DejaVuSans-73" x="352.009766"/>
      <use xlink:href="#DejaVuSans-65" x="404.109375"/>
      <use xlink:href="#DejaVuSans-73" x="465.632812"/>
      <use xlink:href="#DejaVuSans-73" x="517.732422"/>
      <use xlink:href="#DejaVuSans-69" x="569.832031"/>
      <use xlink:href="#DejaVuSans-6f" x="597.615234"/>
      <use xlink:href="#DejaVuSans-6e" x="658.796875"/>
      <use xlink:href="#DejaVuSans-73" x="722.175781"/>
     </g>
    </g>
   </g>
  </g>
 </g>
 <defs>
  <clipPath id="pebb6d4d2a1">
   <rect x="46.965625" y="22.318125" width="558" height="443.52"/>
  </clipPath>
 </defs>
</svg>
