<?xml version="1.0" encoding="utf-8" standalone="no"?>
<!DOCTYPE svg PUBLIC "-//W3C//DTD SVG 1.1//EN"
  "http://www.w3.org/Graphics/SVG/1.1/DTD/svg11.dtd">
<!-- Created with matplotlib (https://matplotlib.org/) -->
<svg height="471.149158pt" version="1.1" viewBox="0 0 605.803125 471.149158" width="605.803125pt" xmlns="http://www.w3.org/2000/svg" xmlns:xlink="http://www.w3.org/1999/xlink">
 <metadata>
  <rdf:RDF xmlns:cc="http://creativecommons.org/ns#" xmlns:dc="http://purl.org/dc/elements/1.1/" xmlns:rdf="http://www.w3.org/1999/02/22-rdf-syntax-ns#">
   <cc:Work>
    <dc:type rdf:resource="http://purl.org/dc/dcmitype/StillImage"/>
    <dc:date>2020-11-13T16:27:52.402220</dc:date>
    <dc:format>image/svg+xml</dc:format>
    <dc:creator>
     <cc:Agent>
      <dc:title>Matplotlib v3.3.2, https://matplotlib.org/</dc:title>
     </cc:Agent>
    </dc:creator>
   </cc:Work>
  </rdf:RDF>
 </metadata>
 <defs>
  <style type="text/css">*{stroke-linecap:butt;stroke-linejoin:round;}</style>
 </defs>
 <g id="figure_1">
  <g id="patch_1">
   <path d="M 0 471.149158 
L 605.803125 471.149158 
L 605.803125 0 
L 0 0 
z
" style="fill:#ffffff;"/>
  </g>
  <g id="axes_1">
   <g id="patch_2">
    <path d="M 40.603125 413.998125 
L 598.603125 413.998125 
L 598.603125 22.318125 
L 40.603125 22.318125 
z
" style="fill:#ffffff;"/>
   </g>
   <g id="matplotlib.axis_1">
    <g id="xtick_1">
     <g id="line2d_1">
      <path clip-path="url(#pcdecbd5a28)" d="M 74.187924 413.998125 
L 74.187924 22.318125 
" style="fill:none;stroke:#b0b0b0;stroke-linecap:square;stroke-opacity:0.6;stroke-width:0.8;"/>
     </g>
     <g id="line2d_2">
      <defs>
       <path d="M 0 0 
L 0 3.5 
" id="m098924f7e3" style="stroke:#000000;stroke-width:0.8;"/>
      </defs>
      <g>
       <use style="stroke:#000000;stroke-width:0.8;" x="74.187924" xlink:href="#m098924f7e3" y="413.998125"/>
      </g>
     </g>
     <g id="text_1">
      <text style="font-family:DejaVu Sans;font-size:10px;font-stretch:normal;font-style:normal;font-weight:normal;" transform="translate(36.963103 448.469971)rotate(-30)">2020-05</text>
     </g>
    </g>
    <g id="xtick_2">
     <g id="line2d_3">
      <path clip-path="url(#pcdecbd5a28)" d="M 164.367503 413.998125 
L 164.367503 22.318125 
" style="fill:none;stroke:#b0b0b0;stroke-linecap:square;stroke-opacity:0.6;stroke-width:0.8;"/>
     </g>
     <g id="line2d_4">
      <g>
       <use style="stroke:#000000;stroke-width:0.8;" x="164.367503" xlink:href="#m098924f7e3" y="413.998125"/>
      </g>
     </g>
     <g id="text_2">
      <text style="font-family:DejaVu Sans;font-size:10px;font-stretch:normal;font-style:normal;font-weight:normal;" transform="translate(127.142683 448.469971)rotate(-30)">2020-06</text>
     </g>
    </g>
    <g id="xtick_3">
     <g id="line2d_5">
      <path clip-path="url(#pcdecbd5a28)" d="M 257.553069 413.998125 
L 257.553069 22.318125 
" style="fill:none;stroke:#b0b0b0;stroke-linecap:square;stroke-opacity:0.6;stroke-width:0.8;"/>
     </g>
     <g id="line2d_6">
      <g>
       <use style="stroke:#000000;stroke-width:0.8;" x="257.553069" xlink:href="#m098924f7e3" y="413.998125"/>
      </g>
     </g>
     <g id="text_3">
      <text style="font-family:DejaVu Sans;font-size:10px;font-stretch:normal;font-style:normal;font-weight:normal;" transform="translate(220.328248 448.469971)rotate(-30)">2020-07</text>
     </g>
    </g>
    <g id="xtick_4">
     <g id="line2d_7">
      <path clip-path="url(#pcdecbd5a28)" d="M 350.738634 413.998125 
L 350.738634 22.318125 
" style="fill:none;stroke:#b0b0b0;stroke-linecap:square;stroke-opacity:0.6;stroke-width:0.8;"/>
     </g>
     <g id="line2d_8">
      <g>
       <use style="stroke:#000000;stroke-width:0.8;" x="350.738634" xlink:href="#m098924f7e3" y="413.998125"/>
      </g>
     </g>
     <g id="text_4">
      <text style="font-family:DejaVu Sans;font-size:10px;font-stretch:normal;font-style:normal;font-weight:normal;" transform="translate(313.513813 448.469971)rotate(-30)">2020-08</text>
     </g>
    </g>
    <g id="xtick_5">
     <g id="line2d_9">
      <path clip-path="url(#pcdecbd5a28)" d="M 440.918213 413.998125 
L 440.918213 22.318125 
" style="fill:none;stroke:#b0b0b0;stroke-linecap:square;stroke-opacity:0.6;stroke-width:0.8;"/>
     </g>
     <g id="line2d_10">
      <g>
       <use style="stroke:#000000;stroke-width:0.8;" x="440.918213" xlink:href="#m098924f7e3" y="413.998125"/>
      </g>
     </g>
     <g id="text_5">
      <text style="font-family:DejaVu Sans;font-size:10px;font-stretch:normal;font-style:normal;font-weight:normal;" transform="translate(403.693392 448.469971)rotate(-30)">2020-09</text>
     </g>
    </g>
    <g id="xtick_6">
     <g id="line2d_11">
      <path clip-path="url(#pcdecbd5a28)" d="M 534.103778 413.998125 
L 534.103778 22.318125 
" style="fill:none;stroke:#b0b0b0;stroke-linecap:square;stroke-opacity:0.6;stroke-width:0.8;"/>
     </g>
     <g id="line2d_12">
      <g>
       <use style="stroke:#000000;stroke-width:0.8;" x="534.103778" xlink:href="#m098924f7e3" y="413.998125"/>
      </g>
     </g>
     <g id="text_6">
      <text style="font-family:DejaVu Sans;font-size:10px;font-stretch:normal;font-style:normal;font-weight:normal;" transform="translate(496.878957 448.469971)rotate(-30)">2020-10</text>
     </g>
    </g>
    <g id="text_7">
     <text style="font-family:DejaVu Sans;font-size:10px;font-stretch:normal;font-style:normal;font-weight:normal;text-anchor:middle;" transform="rotate(-0, 319.603125, 461.869471)" x="319.603125" y="461.869471">Date</text>
    </g>
   </g>
   <g id="matplotlib.axis_2">
    <g id="ytick_1">
     <g id="line2d_13">
      <path clip-path="url(#pcdecbd5a28)" d="M 40.603125 401.58953 
L 598.603125 401.58953 
" style="fill:none;stroke:#b0b0b0;stroke-linecap:square;stroke-opacity:0.6;stroke-width:0.8;"/>
     </g>
     <g id="line2d_14">
      <defs>
       <path d="M 0 0 
L -3.5 0 
" id="mec955f851d" style="stroke:#000000;stroke-width:0.8;"/>
      </defs>
      <g>
       <use style="stroke:#000000;stroke-width:0.8;" x="40.603125" xlink:href="#mec955f851d" y="401.58953"/>
      </g>
     </g>
     <g id="text_8">
      <text style="font-family:DejaVu Sans;font-size:10px;font-stretch:normal;font-style:normal;font-weight:normal;text-anchor:end;" transform="rotate(-0, 33.603125, 405.388749)" x="33.603125" y="405.388749">0</text>
     </g>
    </g>
    <g id="ytick_2">
     <g id="line2d_15">
      <path clip-path="url(#pcdecbd5a28)" d="M 40.603125 347.639117 
L 598.603125 347.639117 
" style="fill:none;stroke:#b0b0b0;stroke-linecap:square;stroke-opacity:0.6;stroke-width:0.8;"/>
     </g>
     <g id="line2d_16">
      <g>
       <use style="stroke:#000000;stroke-width:0.8;" x="40.603125" xlink:href="#mec955f851d" y="347.639117"/>
      </g>
     </g>
     <g id="text_9">
      <text style="font-family:DejaVu Sans;font-size:10px;font-stretch:normal;font-style:normal;font-weight:normal;text-anchor:end;" transform="rotate(-0, 33.603125, 351.438335)" x="33.603125" y="351.438335">10</text>
     </g>
    </g>
    <g id="ytick_3">
     <g id="line2d_17">
      <path clip-path="url(#pcdecbd5a28)" d="M 40.603125 293.688704 
L 598.603125 293.688704 
" style="fill:none;stroke:#b0b0b0;stroke-linecap:square;stroke-opacity:0.6;stroke-width:0.8;"/>
     </g>
     <g id="line2d_18">
      <g>
       <use style="stroke:#000000;stroke-width:0.8;" x="40.603125" xlink:href="#mec955f851d" y="293.688704"/>
      </g>
     </g>
     <g id="text_10">
      <text style="font-family:DejaVu Sans;font-size:10px;font-stretch:normal;font-style:normal;font-weight:normal;text-anchor:end;" transform="rotate(-0, 33.603125, 297.487922)" x="33.603125" y="297.487922">20</text>
     </g>
    </g>
    <g id="ytick_4">
     <g id="line2d_19">
      <path clip-path="url(#pcdecbd5a28)" d="M 40.603125 239.73829 
L 598.603125 239.73829 
" style="fill:none;stroke:#b0b0b0;stroke-linecap:square;stroke-opacity:0.6;stroke-width:0.8;"/>
     </g>
     <g id="line2d_20">
      <g>
       <use style="stroke:#000000;stroke-width:0.8;" x="40.603125" xlink:href="#mec955f851d" y="239.73829"/>
      </g>
     </g>
     <g id="text_11">
      <text style="font-family:DejaVu Sans;font-size:10px;font-stretch:normal;font-style:normal;font-weight:normal;text-anchor:end;" transform="rotate(-0, 33.603125, 243.537509)" x="33.603125" y="243.537509">30</text>
     </g>
    </g>
    <g id="ytick_5">
     <g id="line2d_21">
      <path clip-path="url(#pcdecbd5a28)" d="M 40.603125 185.787877 
L 598.603125 185.787877 
" style="fill:none;stroke:#b0b0b0;stroke-linecap:square;stroke-opacity:0.6;stroke-width:0.8;"/>
     </g>
     <g id="line2d_22">
      <g>
       <use style="stroke:#000000;stroke-width:0.8;" x="40.603125" xlink:href="#mec955f851d" y="185.787877"/>
      </g>
     </g>
     <g id="text_12">
      <text style="font-family:DejaVu Sans;font-size:10px;font-stretch:normal;font-style:normal;font-weight:normal;text-anchor:end;" transform="rotate(-0, 33.603125, 189.587096)" x="33.603125" y="189.587096">40</text>
     </g>
    </g>
    <g id="ytick_6">
     <g id="line2d_23">
      <path clip-path="url(#pcdecbd5a28)" d="M 40.603125 131.837464 
L 598.603125 131.837464 
" style="fill:none;stroke:#b0b0b0;stroke-linecap:square;stroke-opacity:0.6;stroke-width:0.8;"/>
     </g>
     <g id="line2d_24">
      <g>
       <use style="stroke:#000000;stroke-width:0.8;" x="40.603125" xlink:href="#mec955f851d" y="131.837464"/>
      </g>
     </g>
     <g id="text_13">
      <text style="font-family:DejaVu Sans;font-size:10px;font-stretch:normal;font-style:normal;font-weight:normal;text-anchor:end;" transform="rotate(-0, 33.603125, 135.636683)" x="33.603125" y="135.636683">50</text>
     </g>
    </g>
    <g id="ytick_7">
     <g id="line2d_25">
      <path clip-path="url(#pcdecbd5a28)" d="M 40.603125 77.887051 
L 598.603125 77.887051 
" style="fill:none;stroke:#b0b0b0;stroke-linecap:square;stroke-opacity:0.6;stroke-width:0.8;"/>
     </g>
     <g id="line2d_26">
      <g>
       <use style="stroke:#000000;stroke-width:0.8;" x="40.603125" xlink:href="#mec955f851d" y="77.887051"/>
      </g>
     </g>
     <g id="text_14">
      <text style="font-family:DejaVu Sans;font-size:10px;font-stretch:normal;font-style:normal;font-weight:normal;text-anchor:end;" transform="rotate(-0, 33.603125, 81.686269)" x="33.603125" y="81.686269">60</text>
     </g>
    </g>
    <g id="ytick_8">
     <g id="line2d_27">
      <path clip-path="url(#pcdecbd5a28)" d="M 40.603125 23.936637 
L 598.603125 23.936637 
" style="fill:none;stroke:#b0b0b0;stroke-linecap:square;stroke-opacity:0.6;stroke-width:0.8;"/>
     </g>
     <g id="line2d_28">
      <g>
       <use style="stroke:#000000;stroke-width:0.8;" x="40.603125" xlink:href="#mec955f851d" y="23.936637"/>
      </g>
     </g>
     <g id="text_15">
      <text style="font-family:DejaVu Sans;font-size:10px;font-stretch:normal;font-style:normal;font-weight:normal;text-anchor:end;" transform="rotate(-0, 33.603125, 27.735856)" x="33.603125" y="27.735856">70</text>
     </g>
    </g>
    <g id="text_16">
     <text style="font-family:DejaVu Sans;font-size:10px;font-stretch:normal;font-style:normal;font-weight:normal;text-anchor:middle;" transform="rotate(-90, 14.798437, 218.158125)" x="14.798437" y="218.158125">Count</text>
    </g>
   </g>
   <g id="line2d_29">
    <path clip-path="url(#pcdecbd5a28)" d="M 573.239489 369.219282 
L 327.071504 369.219282 
L 326.925415 374.614323 
L 276.544881 374.614323 
L 276.448926 380.009365 
L 205.575257 380.009365 
L 203.914554 385.404406 
L 126.058474 385.404406 
L 123.12214 390.799447 
L 69.090273 390.799447 
L 65.966761 396.194489 
L 65.966761 396.194489 
" style="fill:none;stroke:#1f77b4;stroke-linecap:square;stroke-opacity:0.8;stroke-width:1.5;"/>
   </g>
   <g id="line2d_30">
    <path clip-path="url(#pcdecbd5a28)" d="M 573.239489 40.121761 
L 571.070656 40.121761 
L 565.214967 45.516803 
L 563.97058 50.911844 
L 563.968527 61.701927 
L 555.460891 61.701927 
L 548.442331 72.492009 
L 536.570217 72.492009 
L 536.568408 77.887051 
L 507.467924 77.887051 
L 494.326373 83.282092 
L 482.778829 83.282092 
L 482.539046 88.677133 
L 477.837392 94.072175 
L 471.603937 94.072175 
L 470.604029 99.467216 
L 470.602568 88.677133 
L 470.569585 94.072175 
L 470.482224 94.072175 
L 469.144073 99.467216 
L 469.139933 110.257299 
L 408.905402 110.257299 
L 408.074754 121.047381 
L 408.072806 126.442423 
L 398.544561 126.442423 
L 377.196807 131.837464 
L 377.213298 137.232505 
L 377.190406 137.232505 
L 348.365296 137.232505 
L 347.464962 148.022588 
L 347.439703 153.417629 
L 330.612618 153.417629 
L 330.612027 158.81267 
L 329.891425 158.81267 
L 328.935389 164.207712 
L 327.071504 191.182918 
L 326.925415 196.57796 
L 323.644123 196.57796 
L 319.980404 201.973001 
L 317.703404 201.973001 
L 316.922718 212.763084 
L 311.892145 218.158125 
L 299.739855 218.158125 
L 299.738637 228.948208 
L 287.676771 228.948208 
L 284.125219 234.343249 
L 283.929413 239.73829 
L 280.933447 239.73829 
L 279.080625 250.528373 
L 278.869614 255.923414 
L 276.544881 261.318456 
L 276.448926 266.713497 
L 236.492171 266.713497 
L 235.906003 277.50358 
L 230.259968 277.50358 
L 224.994657 282.898621 
L 218.908962 282.898621 
L 215.01795 288.293662 
L 211.983852 288.293662 
L 209.787708 293.688704 
L 209.408968 299.083745 
L 208.913432 299.083745 
L 208.688714 304.478786 
L 205.575257 309.873827 
L 203.914554 326.058951 
L 163.721425 326.058951 
L 158.72961 331.453993 
L 141.140104 331.453993 
L 141.139512 336.849034 
L 130.904826 336.849034 
L 128.16249 342.244075 
L 126.058474 342.244075 
L 123.12214 353.034158 
L 108.024471 353.034158 
L 106.428411 358.429199 
L 97.376984 358.429199 
L 97.330189 363.824241 
L 96.016775 369.219282 
L 90.160112 369.219282 
L 89.524019 374.614323 
L 73.863667 380.009365 
L 69.090273 380.009365 
L 65.966761 385.404406 
L 65.966761 385.404406 
" style="fill:none;stroke:#ff7f0e;stroke-linecap:square;stroke-opacity:0.8;stroke-width:1.5;"/>
   </g>
   <g id="line2d_31">
    <path clip-path="url(#pcdecbd5a28)" d="M 573.239489 148.022588 
L 571.070656 148.022588 
L 565.214967 153.417629 
L 563.97058 153.417629 
L 563.968527 164.207712 
L 555.460891 164.207712 
L 548.442331 169.602753 
L 536.570217 169.602753 
L 536.568408 174.997794 
L 507.467924 174.997794 
L 494.326373 180.392836 
L 482.778829 180.392836 
L 482.539046 185.787877 
L 471.603937 185.787877 
L 470.602568 191.182918 
L 470.482224 196.57796 
L 469.144073 201.973001 
L 469.139933 212.763084 
L 408.074754 212.763084 
L 408.072806 218.158125 
L 398.544561 218.158125 
L 377.190406 223.553166 
L 348.365296 223.553166 
L 347.464962 228.948208 
L 347.439703 234.343249 
L 330.612618 234.343249 
L 330.612027 239.73829 
L 329.891425 239.73829 
L 328.935389 245.133332 
L 327.071504 250.528373 
L 323.644123 250.528373 
L 319.980404 255.923414 
L 317.703404 255.923414 
L 316.922718 261.318456 
L 311.892145 266.713497 
L 299.739855 266.713497 
L 299.738637 272.108538 
L 287.676771 272.108538 
L 284.125219 277.50358 
L 283.929413 282.898621 
L 280.933447 282.898621 
L 279.080625 288.293662 
L 278.869614 293.688704 
L 276.544881 299.083745 
L 276.448926 304.478786 
L 236.189589 304.478786 
L 235.906003 309.873827 
L 230.259968 309.873827 
L 224.994657 315.268869 
L 218.908962 315.268869 
L 215.01795 320.66391 
L 209.787708 320.66391 
L 209.408968 326.058951 
L 208.913432 326.058951 
L 208.688714 331.453993 
L 205.575257 331.453993 
L 203.914554 336.849034 
L 163.721425 336.849034 
L 158.72961 342.244075 
L 141.140104 342.244075 
L 141.139512 347.639117 
L 130.904826 347.639117 
L 128.16249 353.034158 
L 126.058474 353.034158 
L 123.12214 358.429199 
L 108.024471 358.429199 
L 106.428411 363.824241 
L 97.330189 363.824241 
L 96.016775 369.219282 
L 90.160112 369.219282 
L 89.524019 374.614323 
L 73.863667 380.009365 
L 69.090273 380.009365 
L 65.966761 385.404406 
L 65.966761 385.404406 
" style="fill:none;stroke:#2ca02c;stroke-linecap:square;stroke-opacity:0.8;stroke-width:1.5;"/>
   </g>
   <g id="patch_3">
    <path d="M 40.603125 413.998125 
L 40.603125 22.318125 
" style="fill:none;stroke:#000000;stroke-linecap:square;stroke-linejoin:miter;stroke-width:0.8;"/>
   </g>
   <g id="patch_4">
    <path d="M 598.603125 413.998125 
L 598.603125 22.318125 
" style="fill:none;stroke:#000000;stroke-linecap:square;stroke-linejoin:miter;stroke-width:0.8;"/>
   </g>
   <g id="patch_5">
    <path d="M 40.603125 413.998125 
L 598.603125 413.998125 
" style="fill:none;stroke:#000000;stroke-linecap:square;stroke-linejoin:miter;stroke-width:0.8;"/>
   </g>
   <g id="patch_6">
    <path d="M 40.603125 22.318125 
L 598.603125 22.318125 
" style="fill:none;stroke:#000000;stroke-linecap:square;stroke-linejoin:miter;stroke-width:0.8;"/>
   </g>
   <g id="text_17">
    <text style="font-family:DejaVu Sans;font-size:10px;font-stretch:normal;font-style:normal;font-weight:normal;text-anchor:start;" transform="rotate(-0, 573.239489, 369.219282)" x="573.239489" y="369.219282">6</text>
   </g>
   <g id="text_18">
    <text style="font-family:DejaVu Sans;font-size:10px;font-stretch:normal;font-style:normal;font-weight:normal;text-anchor:start;" transform="rotate(-0, 573.239489, 40.121761)" x="573.239489" y="40.121761">67</text>
   </g>
   <g id="text_19">
    <text style="font-family:DejaVu Sans;font-size:10px;font-stretch:normal;font-style:normal;font-weight:normal;text-anchor:start;" transform="rotate(-0, 573.239489, 148.022588)" x="573.239489" y="148.022588">47</text>
   </g>
   <g id="text_20">
    <text style="font-family:DejaVu Sans;font-size:12px;font-stretch:normal;font-style:normal;font-weight:normal;text-anchor:middle;" transform="rotate(-0, 319.603125, 16.318125)" x="319.603125" y="16.318125">Peers over time</text>
   </g>
   <g id="legend_1">
    <g id="patch_7">
     <path d="M 47.603125 74.3525 
L 178.88125 74.3525 
Q 180.88125 74.3525 180.88125 72.3525 
L 180.88125 29.318125 
Q 180.88125 27.318125 178.88125 27.318125 
L 47.603125 27.318125 
Q 45.603125 27.318125 45.603125 29.318125 
L 45.603125 72.3525 
Q 45.603125 74.3525 47.603125 74.3525 
z
" style="fill:#ffffff;opacity:0.8;stroke:#cccccc;stroke-linejoin:miter;"/>
    </g>
    <g id="line2d_32">
     <path d="M 49.603125 35.416562 
L 69.603125 35.416562 
" style="fill:none;stroke:#1f77b4;stroke-linecap:square;stroke-opacity:0.8;stroke-width:1.5;"/>
    </g>
    <g id="line2d_33"/>
    <g id="text_21">
     <text style="font-family:DejaVu Sans;font-size:10px;font-stretch:normal;font-style:normal;font-weight:normal;text-anchor:start;" transform="rotate(-0, 77.603125, 38.916562)" x="77.603125" y="38.916562">eBGP routers</text>
    </g>
    <g id="line2d_34">
     <path d="M 49.603125 50.094687 
L 69.603125 50.094687 
" style="fill:none;stroke:#ff7f0e;stroke-linecap:square;stroke-opacity:0.8;stroke-width:1.5;"/>
    </g>
    <g id="line2d_35"/>
    <g id="text_22">
     <text style="font-family:DejaVu Sans;font-size:10px;font-stretch:normal;font-style:normal;font-weight:normal;text-anchor:start;" transform="rotate(-0, 77.603125, 53.594687)" x="77.603125" y="53.594687">total eBGP peerings</text>
    </g>
    <g id="line2d_36">
     <path d="M 49.603125 64.772812 
L 69.603125 64.772812 
" style="fill:none;stroke:#2ca02c;stroke-linecap:square;stroke-opacity:0.8;stroke-width:1.5;"/>
    </g>
    <g id="line2d_37"/>
    <g id="text_23">
     <text style="font-family:DejaVu Sans;font-size:10px;font-stretch:normal;font-style:normal;font-weight:normal;text-anchor:start;" transform="rotate(-0, 77.603125, 68.272812)" x="77.603125" y="68.272812">unique eBGP peers</text>
    </g>
   </g>
  </g>
 </g>
 <defs>
  <clipPath id="pcdecbd5a28">
   <rect height="391.68" width="558" x="40.603125" y="22.318125"/>
  </clipPath>
 </defs>
</svg>
