<?xml version="1.0" encoding="utf-8" standalone="no"?>
<!DOCTYPE svg PUBLIC "-//W3C//DTD SVG 1.1//EN"
  "http://www.w3.org/Graphics/SVG/1.1/DTD/svg11.dtd">
<svg xmlns:xlink="http://www.w3.org/1999/xlink" width="612.165625pt" height="503.394375pt" viewBox="0 0 612.165625 503.394375" xmlns="http://www.w3.org/2000/svg" version="1.1">
 <metadata>
  <rdf:RDF xmlns:dc="http://purl.org/dc/elements/1.1/" xmlns:cc="http://creativecommons.org/ns#" xmlns:rdf="http://www.w3.org/1999/02/22-rdf-syntax-ns#">
   <cc:Work>
    <dc:type rdf:resource="http://purl.org/dc/dcmitype/StillImage"/>
    <dc:format>image/svg+xml</dc:format>
    <dc:creator>
     <cc:Agent>
      <dc:title>Matplotlib v3.6.3, https://matplotlib.org/</dc:title>
     </cc:Agent>
    </dc:creator>
   </cc:Work>
  </rdf:RDF>
 </metadata>
 <defs>
  <style type="text/css">*{stroke-linejoin: round; stroke-linecap: butt}</style>
 </defs>
 <g id="figure_1">
  <g id="patch_1">
   <path d="M 0 503.394375 
L 612.165625 503.394375 
L 612.165625 0 
L 0 0 
z
" style="fill: #ffffff"/>
  </g>
  <g id="axes_1">
   <g id="patch_2">
    <path d="M 46.965625 465.838125 
L 604.965625 465.838125 
L 604.965625 22.318125 
L 46.965625 22.318125 
z
" style="fill: #ffffff"/>
   </g>
   <g id="matplotlib.axis_1">
    <g id="xtick_1">
     <g id="line2d_1">
      <path d="M 59.722292 465.838125 
L 59.722292 22.318125 
" clip-path="url(#pebb6d4d2a1)" style="fill: none; stroke: #b0b0b0; stroke-opacity: 0.6; stroke-width: 0.8; stroke-linecap: square"/>
     </g>
     <g id="line2d_2">
      <defs>
       <path id="m4989ca4dfe" d="M 0 0 
L 0 3.5 
" style="stroke: #000000; stroke-width: 0.8"/>
      </defs>
      <g>
       <use xlink:href="#m4989ca4dfe" x="59.722292" y="465.838125" style="stroke: #000000; stroke-width: 0.8"/>
      </g>
     </g>
     <g id="text_1">
      <!-- 2020-05 -->
      <g transform="translate(38.830886 480.436562) scale(0.1 -0.1)">
       <defs>
        <path id="DejaVuSans-32" d="M 1228 531 
L 3431 531 
L 3431 0 
L 469 0 
L 469 531 
Q 828 903 1448 1529 
Q 2069 2156 2228 2338 
Q 2531 2678 2651 2914 
Q 2772 3150 2772 3378 
Q 2772 3750 2511 3984 
Q 2250 4219 1831 4219 
Q 1534 4219 1204 4116 
Q 875 4013 500 3803 
L 500 4441 
Q 881 4594 1212 4672 
Q 1544 4750 1819 4750 
Q 2544 4750 2975 4387 
Q 3406 4025 3406 3419 
Q 3406 3131 3298 2873 
Q 3191 2616 2906 2266 
Q 2828 2175 2409 1742 
Q 1991 1309 1228 531 
z
" transform="scale(0.015625)"/>
        <path id="DejaVuSans-30" d="M 2034 4250 
Q 1547 4250 1301 3770 
Q 1056 3291 1056 2328 
Q 1056 1369 1301 889 
Q 1547 409 2034 409 
Q 2525 409 2770 889 
Q 3016 1369 3016 2328 
Q 3016 3291 2770 3770 
Q 2525 4250 2034 4250 
z
M 2034 4750 
Q 2819 4750 3233 4129 
Q 3647 3509 3647 2328 
Q 3647 1150 3233 529 
Q 2819 -91 2034 -91 
Q 1250 -91 836 529 
Q 422 1150 422 2328 
Q 422 3509 836 4129 
Q 1250 4750 2034 4750 
z
" transform="scale(0.015625)"/>
        <path id="DejaVuSans-2d" d="M 313 2009 
L 1997 2009 
L 1997 1497 
L 313 1497 
L 313 2009 
z
" transform="scale(0.015625)"/>
        <path id="DejaVuSans-35" d="M 691 4666 
L 3169 4666 
L 3169 4134 
L 1269 4134 
L 1269 2991 
Q 1406 3038 1543 3061 
Q 1681 3084 1819 3084 
Q 2600 3084 3056 2656 
Q 3513 2228 3513 1497 
Q 3513 744 3044 326 
Q 2575 -91 1722 -91 
Q 1428 -91 1123 -41 
Q 819 9 494 109 
L 494 744 
Q 775 591 1075 516 
Q 1375 441 1709 441 
Q 2250 441 2565 725 
Q 2881 1009 2881 1497 
Q 2881 1984 2565 2268 
Q 2250 2553 1709 2553 
Q 1456 2553 1204 2497 
Q 953 2441 691 2322 
L 691 4666 
z
" transform="scale(0.015625)"/>
       </defs>
       <use xlink:href="#DejaVuSans-32"/>
       <use xlink:href="#DejaVuSans-30" x="63.623047"/>
       <use xlink:href="#DejaVuSans-32" x="127.246094"/>
       <use xlink:href="#DejaVuSans-30" x="190.869141"/>
       <use xlink:href="#DejaVuSans-2d" x="254.492188"/>
       <use xlink:href="#DejaVuSans-30" x="290.576172"/>
       <use xlink:href="#DejaVuSans-35" x="354.199219"/>
      </g>
     </g>
    </g>
    <g id="xtick_2">
     <g id="line2d_3">
      <path d="M 115.155564 465.838125 
L 115.155564 22.318125 
" clip-path="url(#pebb6d4d2a1)" style="fill: none; stroke: #b0b0b0; stroke-opacity: 0.6; stroke-width: 0.8; stroke-linecap: square"/>
     </g>
     <g id="line2d_4">
      <g>
       <use xlink:href="#m4989ca4dfe" x="115.155564" y="465.838125" style="stroke: #000000; stroke-width: 0.8"/>
      </g>
     </g>
     <g id="text_2">
      <!-- 2020-09 -->
      <g transform="translate(94.264157 480.436562) scale(0.1 -0.1)">
       <defs>
        <path id="DejaVuSans-39" d="M 703 97 
L 703 672 
Q 941 559 1184 500 
Q 1428 441 1663 441 
Q 2288 441 2617 861 
Q 2947 1281 2994 2138 
Q 2813 1869 2534 1725 
Q 2256 1581 1919 1581 
Q 1219 1581 811 2004 
Q 403 2428 403 3163 
Q 403 3881 828 4315 
Q 1253 4750 1959 4750 
Q 2769 4750 3195 4129 
Q 3622 3509 3622 2328 
Q 3622 1225 3098 567 
Q 2575 -91 1691 -91 
Q 1453 -91 1209 -44 
Q 966 3 703 97 
z
M 1959 2075 
Q 2384 2075 2632 2365 
Q 2881 2656 2881 3163 
Q 2881 3666 2632 3958 
Q 2384 4250 1959 4250 
Q 1534 4250 1286 3958 
Q 1038 3666 1038 3163 
Q 1038 2656 1286 2365 
Q 1534 2075 1959 2075 
z
" transform="scale(0.015625)"/>
       </defs>
       <use xlink:href="#DejaVuSans-32"/>
       <use xlink:href="#DejaVuSans-30" x="63.623047"/>
       <use xlink:href="#DejaVuSans-32" x="127.246094"/>
       <use xlink:href="#DejaVuSans-30" x="190.869141"/>
       <use xlink:href="#DejaVuSans-2d" x="254.492188"/>
       <use xlink:href="#DejaVuSans-30" x="290.576172"/>
       <use xlink:href="#DejaVuSans-39" x="354.199219"/>
      </g>
     </g>
    </g>
    <g id="xtick_3">
     <g id="line2d_5">
      <path d="M 170.138158 465.838125 
L 170.138158 22.318125 
" clip-path="url(#pebb6d4d2a1)" style="fill: none; stroke: #b0b0b0; stroke-opacity: 0.6; stroke-width: 0.8; stroke-linecap: square"/>
     </g>
     <g id="line2d_6">
      <g>
       <use xlink:href="#m4989ca4dfe" x="170.138158" y="465.838125" style="stroke: #000000; stroke-width: 0.8"/>
      </g>
     </g>
     <g id="text_3">
      <!-- 2021-01 -->
      <g transform="translate(149.246752 480.436562) scale(0.1 -0.1)">
       <defs>
        <path id="DejaVuSans-31" d="M 794 531 
L 1825 531 
L 1825 4091 
L 703 3866 
L 703 4441 
L 1819 4666 
L 2450 4666 
L 2450 531 
L 3481 531 
L 3481 0 
L 794 0 
L 794 531 
z
" transform="scale(0.015625)"/>
       </defs>
       <use xlink:href="#DejaVuSans-32"/>
       <use xlink:href="#DejaVuSans-30" x="63.623047"/>
       <use xlink:href="#DejaVuSans-32" x="127.246094"/>
       <use xlink:href="#DejaVuSans-31" x="190.869141"/>
       <use xlink:href="#DejaVuSans-2d" x="254.492188"/>
       <use xlink:href="#DejaVuSans-30" x="290.576172"/>
       <use xlink:href="#DejaVuSans-31" x="354.199219"/>
      </g>
     </g>
    </g>
    <g id="xtick_4">
     <g id="line2d_7">
      <path d="M 224.219399 465.838125 
L 224.219399 22.318125 
" clip-path="url(#pebb6d4d2a1)" style="fill: none; stroke: #b0b0b0; stroke-opacity: 0.6; stroke-width: 0.8; stroke-linecap: square"/>
     </g>
     <g id="line2d_8">
      <g>
       <use xlink:href="#m4989ca4dfe" x="224.219399" y="465.838125" style="stroke: #000000; stroke-width: 0.8"/>
      </g>
     </g>
     <g id="text_4">
      <!-- 2021-05 -->
      <g transform="translate(203.327993 480.436562) scale(0.1 -0.1)">
       <use xlink:href="#DejaVuSans-32"/>
       <use xlink:href="#DejaVuSans-30" x="63.623047"/>
       <use xlink:href="#DejaVuSans-32" x="127.246094"/>
       <use xlink:href="#DejaVuSans-31" x="190.869141"/>
       <use xlink:href="#DejaVuSans-2d" x="254.492188"/>
       <use xlink:href="#DejaVuSans-30" x="290.576172"/>
       <use xlink:href="#DejaVuSans-35" x="354.199219"/>
      </g>
     </g>
    </g>
    <g id="xtick_5">
     <g id="line2d_9">
      <path d="M 279.652671 465.838125 
L 279.652671 22.318125 
" clip-path="url(#pebb6d4d2a1)" style="fill: none; stroke: #b0b0b0; stroke-opacity: 0.6; stroke-width: 0.8; stroke-linecap: square"/>
     </g>
     <g id="line2d_10">
      <g>
       <use xlink:href="#m4989ca4dfe" x="279.652671" y="465.838125" style="stroke: #000000; stroke-width: 0.8"/>
      </g>
     </g>
     <g id="text_5">
      <!-- 2021-09 -->
      <g transform="translate(258.761265 480.436562) scale(0.1 -0.1)">
       <use xlink:href="#DejaVuSans-32"/>
       <use xlink:href="#DejaVuSans-30" x="63.623047"/>
       <use xlink:href="#DejaVuSans-32" x="127.246094"/>
       <use xlink:href="#DejaVuSans-31" x="190.869141"/>
       <use xlink:href="#DejaVuSans-2d" x="254.492188"/>
       <use xlink:href="#DejaVuSans-30" x="290.576172"/>
       <use xlink:href="#DejaVuSans-39" x="354.199219"/>
      </g>
     </g>
    </g>
    <g id="xtick_6">
     <g id="line2d_11">
      <path d="M 334.635266 465.838125 
L 334.635266 22.318125 
" clip-path="url(#pebb6d4d2a1)" style="fill: none; stroke: #b0b0b0; stroke-opacity: 0.6; stroke-width: 0.8; stroke-linecap: square"/>
     </g>
     <g id="line2d_12">
      <g>
       <use xlink:href="#m4989ca4dfe" x="334.635266" y="465.838125" style="stroke: #000000; stroke-width: 0.8"/>
      </g>
     </g>
     <g id="text_6">
      <!-- 2022-01 -->
      <g transform="translate(313.743859 480.436562) scale(0.1 -0.1)">
       <use xlink:href="#DejaVuSans-32"/>
       <use xlink:href="#DejaVuSans-30" x="63.623047"/>
       <use xlink:href="#DejaVuSans-32" x="127.246094"/>
       <use xlink:href="#DejaVuSans-32" x="190.869141"/>
       <use xlink:href="#DejaVuSans-2d" x="254.492188"/>
       <use xlink:href="#DejaVuSans-30" x="290.576172"/>
       <use xlink:href="#DejaVuSans-31" x="354.199219"/>
      </g>
     </g>
    </g>
    <g id="xtick_7">
     <g id="line2d_13">
      <path d="M 388.716506 465.838125 
L 388.716506 22.318125 
" clip-path="url(#pebb6d4d2a1)" style="fill: none; stroke: #b0b0b0; stroke-opacity: 0.6; stroke-width: 0.8; stroke-linecap: square"/>
     </g>
     <g id="line2d_14">
      <g>
       <use xlink:href="#m4989ca4dfe" x="388.716506" y="465.838125" style="stroke: #000000; stroke-width: 0.8"/>
      </g>
     </g>
     <g id="text_7">
      <!-- 2022-05 -->
      <g transform="translate(367.8251 480.436562) scale(0.1 -0.1)">
       <use xlink:href="#DejaVuSans-32"/>
       <use xlink:href="#DejaVuSans-30" x="63.623047"/>
       <use xlink:href="#DejaVuSans-32" x="127.246094"/>
       <use xlink:href="#DejaVuSans-32" x="190.869141"/>
       <use xlink:href="#DejaVuSans-2d" x="254.492188"/>
       <use xlink:href="#DejaVuSans-30" x="290.576172"/>
       <use xlink:href="#DejaVuSans-35" x="354.199219"/>
      </g>
     </g>
    </g>
    <g id="xtick_8">
     <g id="line2d_15">
      <path d="M 444.149778 465.838125 
L 444.149778 22.318125 
" clip-path="url(#pebb6d4d2a1)" style="fill: none; stroke: #b0b0b0; stroke-opacity: 0.6; stroke-width: 0.8; stroke-linecap: square"/>
     </g>
     <g id="line2d_16">
      <g>
       <use xlink:href="#m4989ca4dfe" x="444.149778" y="465.838125" style="stroke: #000000; stroke-width: 0.8"/>
      </g>
     </g>
     <g id="text_8">
      <!-- 2022-09 -->
      <g transform="translate(423.258372 480.436562) scale(0.1 -0.1)">
       <use xlink:href="#DejaVuSans-32"/>
       <use xlink:href="#DejaVuSans-30" x="63.623047"/>
       <use xlink:href="#DejaVuSans-32" x="127.246094"/>
       <use xlink:href="#DejaVuSans-32" x="190.869141"/>
       <use xlink:href="#DejaVuSans-2d" x="254.492188"/>
       <use xlink:href="#DejaVuSans-30" x="290.576172"/>
       <use xlink:href="#DejaVuSans-39" x="354.199219"/>
      </g>
     </g>
    </g>
    <g id="xtick_9">
     <g id="line2d_17">
      <path d="M 499.132373 465.838125 
L 499.132373 22.318125 
" clip-path="url(#pebb6d4d2a1)" style="fill: none; stroke: #b0b0b0; stroke-opacity: 0.6; stroke-width: 0.8; stroke-linecap: square"/>
     </g>
     <g id="line2d_18">
      <g>
       <use xlink:href="#m4989ca4dfe" x="499.132373" y="465.838125" style="stroke: #000000; stroke-width: 0.8"/>
      </g>
     </g>
     <g id="text_9">
      <!-- 2023-01 -->
      <g transform="translate(478.240967 480.436562) scale(0.1 -0.1)">
       <defs>
        <path id="DejaVuSans-33" d="M 2597 2516 
Q 3050 2419 3304 2112 
Q 3559 1806 3559 1356 
Q 3559 666 3084 287 
Q 2609 -91 1734 -91 
Q 1441 -91 1130 -33 
Q 819 25 488 141 
L 488 750 
Q 750 597 1062 519 
Q 1375 441 1716 441 
Q 2309 441 2620 675 
Q 2931 909 2931 1356 
Q 2931 1769 2642 2001 
Q 2353 2234 1838 2234 
L 1294 2234 
L 1294 2753 
L 1863 2753 
Q 2328 2753 2575 2939 
Q 2822 3125 2822 3475 
Q 2822 3834 2567 4026 
Q 2313 4219 1838 4219 
Q 1578 4219 1281 4162 
Q 984 4106 628 3988 
L 628 4550 
Q 988 4650 1302 4700 
Q 1616 4750 1894 4750 
Q 2613 4750 3031 4423 
Q 3450 4097 3450 3541 
Q 3450 3153 3228 2886 
Q 3006 2619 2597 2516 
z
" transform="scale(0.015625)"/>
       </defs>
       <use xlink:href="#DejaVuSans-32"/>
       <use xlink:href="#DejaVuSans-30" x="63.623047"/>
       <use xlink:href="#DejaVuSans-32" x="127.246094"/>
       <use xlink:href="#DejaVuSans-33" x="190.869141"/>
       <use xlink:href="#DejaVuSans-2d" x="254.492188"/>
       <use xlink:href="#DejaVuSans-30" x="290.576172"/>
       <use xlink:href="#DejaVuSans-31" x="354.199219"/>
      </g>
     </g>
    </g>
    <g id="xtick_10">
     <g id="line2d_19">
      <path d="M 553.213614 465.838125 
L 553.213614 22.318125 
" clip-path="url(#pebb6d4d2a1)" style="fill: none; stroke: #b0b0b0; stroke-opacity: 0.6; stroke-width: 0.8; stroke-linecap: square"/>
     </g>
     <g id="line2d_20">
      <g>
       <use xlink:href="#m4989ca4dfe" x="553.213614" y="465.838125" style="stroke: #000000; stroke-width: 0.8"/>
      </g>
     </g>
     <g id="text_10">
      <!-- 2023-05 -->
      <g transform="translate(532.322207 480.436562) scale(0.1 -0.1)">
       <use xlink:href="#DejaVuSans-32"/>
       <use xlink:href="#DejaVuSans-30" x="63.623047"/>
       <use xlink:href="#DejaVuSans-32" x="127.246094"/>
       <use xlink:href="#DejaVuSans-33" x="190.869141"/>
       <use xlink:href="#DejaVuSans-2d" x="254.492188"/>
       <use xlink:href="#DejaVuSans-30" x="290.576172"/>
       <use xlink:href="#DejaVuSans-35" x="354.199219"/>
      </g>
     </g>
    </g>
    <g id="text_11">
     <!-- Date -->
     <g transform="translate(314.014844 494.114687) scale(0.1 -0.1)">
      <defs>
       <path id="DejaVuSans-44" d="M 1259 4147 
L 1259 519 
L 2022 519 
Q 2988 519 3436 956 
Q 3884 1394 3884 2338 
Q 3884 3275 3436 3711 
Q 2988 4147 2022 4147 
L 1259 4147 
z
M 628 4666 
L 1925 4666 
Q 3281 4666 3915 4102 
Q 4550 3538 4550 2338 
Q 4550 1131 3912 565 
Q 3275 0 1925 0 
L 628 0 
L 628 4666 
z
" transform="scale(0.015625)"/>
       <path id="DejaVuSans-61" d="M 2194 1759 
Q 1497 1759 1228 1600 
Q 959 1441 959 1056 
Q 959 750 1161 570 
Q 1363 391 1709 391 
Q 2188 391 2477 730 
Q 2766 1069 2766 1631 
L 2766 1759 
L 2194 1759 
z
M 3341 1997 
L 3341 0 
L 2766 0 
L 2766 531 
Q 2569 213 2275 61 
Q 1981 -91 1556 -91 
Q 1019 -91 701 211 
Q 384 513 384 1019 
Q 384 1609 779 1909 
Q 1175 2209 1959 2209 
L 2766 2209 
L 2766 2266 
Q 2766 2663 2505 2880 
Q 2244 3097 1772 3097 
Q 1472 3097 1187 3025 
Q 903 2953 641 2809 
L 641 3341 
Q 956 3463 1253 3523 
Q 1550 3584 1831 3584 
Q 2591 3584 2966 3190 
Q 3341 2797 3341 1997 
z
" transform="scale(0.015625)"/>
       <path id="DejaVuSans-74" d="M 1172 4494 
L 1172 3500 
L 2356 3500 
L 2356 3053 
L 1172 3053 
L 1172 1153 
Q 1172 725 1289 603 
Q 1406 481 1766 481 
L 2356 481 
L 2356 0 
L 1766 0 
Q 1100 0 847 248 
Q 594 497 594 1153 
L 594 3053 
L 172 3053 
L 172 3500 
L 594 3500 
L 594 4494 
L 1172 4494 
z
" transform="scale(0.015625)"/>
       <path id="DejaVuSans-65" d="M 3597 1894 
L 3597 1613 
L 953 1613 
Q 991 1019 1311 708 
Q 1631 397 2203 397 
Q 2534 397 2845 478 
Q 3156 559 3463 722 
L 3463 178 
Q 3153 47 2828 -22 
Q 2503 -91 2169 -91 
Q 1331 -91 842 396 
Q 353 884 353 1716 
Q 353 2575 817 3079 
Q 1281 3584 2069 3584 
Q 2775 3584 3186 3129 
Q 3597 2675 3597 1894 
z
M 3022 2063 
Q 3016 2534 2758 2815 
Q 2500 3097 2075 3097 
Q 1594 3097 1305 2825 
Q 1016 2553 972 2059 
L 3022 2063 
z
" transform="scale(0.015625)"/>
      </defs>
      <use xlink:href="#DejaVuSans-44"/>
      <use xlink:href="#DejaVuSans-61" x="77.001953"/>
      <use xlink:href="#DejaVuSans-74" x="138.28125"/>
      <use xlink:href="#DejaVuSans-65" x="177.490234"/>
     </g>
    </g>
   </g>
   <g id="matplotlib.axis_2">
    <g id="ytick_1">
     <g id="line2d_21">
      <path d="M 46.965625 447.078125 
L 604.965625 447.078125 
" clip-path="url(#pebb6d4d2a1)" style="fill: none; stroke: #b0b0b0; stroke-opacity: 0.6; stroke-width: 0.8; stroke-linecap: square"/>
     </g>
     <g id="line2d_22">
      <defs>
       <path id="mc11dc46687" d="M 0 0 
L -3.5 0 
" style="stroke: #000000; stroke-width: 0.8"/>
      </defs>
      <g>
       <use xlink:href="#mc11dc46687" x="46.965625" y="447.078125" style="stroke: #000000; stroke-width: 0.8"/>
      </g>
     </g>
     <g id="text_12">
      <!-- 0 -->
      <g transform="translate(33.603125 450.877344) scale(0.1 -0.1)">
       <use xlink:href="#DejaVuSans-30"/>
      </g>
     </g>
    </g>
    <g id="ytick_2">
     <g id="line2d_23">
      <path d="M 46.965625 377.078125 
L 604.965625 377.078125 
" clip-path="url(#pebb6d4d2a1)" style="fill: none; stroke: #b0b0b0; stroke-opacity: 0.6; stroke-width: 0.8; stroke-linecap: square"/>
     </g>
     <g id="line2d_24">
      <g>
       <use xlink:href="#mc11dc46687" x="46.965625" y="377.078125" style="stroke: #000000; stroke-width: 0.8"/>
      </g>
     </g>
     <g id="text_13">
      <!-- 50 -->
      <g transform="translate(27.240625 380.877344) scale(0.1 -0.1)">
       <use xlink:href="#DejaVuSans-35"/>
       <use xlink:href="#DejaVuSans-30" x="63.623047"/>
      </g>
     </g>
    </g>
    <g id="ytick_3">
     <g id="line2d_25">
      <path d="M 46.965625 307.078125 
L 604.965625 307.078125 
" clip-path="url(#pebb6d4d2a1)" style="fill: none; stroke: #b0b0b0; stroke-opacity: 0.6; stroke-width: 0.8; stroke-linecap: square"/>
     </g>
     <g id="line2d_26">
      <g>
       <use xlink:href="#mc11dc46687" x="46.965625" y="307.078125" style="stroke: #000000; stroke-width: 0.8"/>
      </g>
     </g>
     <g id="text_14">
      <!-- 100 -->
      <g transform="translate(20.878125 310.877344) scale(0.1 -0.1)">
       <use xlink:href="#DejaVuSans-31"/>
       <use xlink:href="#DejaVuSans-30" x="63.623047"/>
       <use xlink:href="#DejaVuSans-30" x="127.246094"/>
      </g>
     </g>
    </g>
    <g id="ytick_4">
     <g id="line2d_27">
      <path d="M 46.965625 237.078125 
L 604.965625 237.078125 
" clip-path="url(#pebb6d4d2a1)" style="fill: none; stroke: #b0b0b0; stroke-opacity: 0.6; stroke-width: 0.8; stroke-linecap: square"/>
     </g>
     <g id="line2d_28">
      <g>
       <use xlink:href="#mc11dc46687" x="46.965625" y="237.078125" style="stroke: #000000; stroke-width: 0.8"/>
      </g>
     </g>
     <g id="text_15">
      <!-- 150 -->
      <g transform="translate(20.878125 240.877344) scale(0.1 -0.1)">
       <use xlink:href="#DejaVuSans-31"/>
       <use xlink:href="#DejaVuSans-35" x="63.623047"/>
       <use xlink:href="#DejaVuSans-30" x="127.246094"/>
      </g>
     </g>
    </g>
    <g id="ytick_5">
     <g id="line2d_29">
      <path d="M 46.965625 167.078125 
L 604.965625 167.078125 
" clip-path="url(#pebb6d4d2a1)" style="fill: none; stroke: #b0b0b0; stroke-opacity: 0.6; stroke-width: 0.8; stroke-linecap: square"/>
     </g>
     <g id="line2d_30">
      <g>
       <use xlink:href="#mc11dc46687" x="46.965625" y="167.078125" style="stroke: #000000; stroke-width: 0.8"/>
      </g>
     </g>
     <g id="text_16">
      <!-- 200 -->
      <g transform="translate(20.878125 170.877344) scale(0.1 -0.1)">
       <use xlink:href="#DejaVuSans-32"/>
       <use xlink:href="#DejaVuSans-30" x="63.623047"/>
       <use xlink:href="#DejaVuSans-30" x="127.246094"/>
      </g>
     </g>
    </g>
    <g id="ytick_6">
     <g id="line2d_31">
      <path d="M 46.965625 97.078125 
L 604.965625 97.078125 
" clip-path="url(#pebb6d4d2a1)" style="fill: none; stroke: #b0b0b0; stroke-opacity: 0.6; stroke-width: 0.8; stroke-linecap: square"/>
     </g>
     <g id="line2d_32">
      <g>
       <use xlink:href="#mc11dc46687" x="46.965625" y="97.078125" style="stroke: #000000; stroke-width: 0.8"/>
      </g>
     </g>
     <g id="text_17">
      <!-- 250 -->
      <g transform="translate(20.878125 100.877344) scale(0.1 -0.1)">
       <use xlink:href="#DejaVuSans-32"/>
       <use xlink:href="#DejaVuSans-35" x="63.623047"/>
       <use xlink:href="#DejaVuSans-30" x="127.246094"/>
      </g>
     </g>
    </g>
    <g id="ytick_7">
     <g id="line2d_33">
      <path d="M 46.965625 27.078125 
L 604.965625 27.078125 
" clip-path="url(#pebb6d4d2a1)" style="fill: none; stroke: #b0b0b0; stroke-opacity: 0.6; stroke-width: 0.8; stroke-linecap: square"/>
     </g>
     <g id="line2d_34">
      <g>
       <use xlink:href="#mc11dc46687" x="46.965625" y="27.078125" style="stroke: #000000; stroke-width: 0.8"/>
      </g>
     </g>
     <g id="text_18">
      <!-- 300 -->
      <g transform="translate(20.878125 30.877344) scale(0.1 -0.1)">
       <use xlink:href="#DejaVuSans-33"/>
       <use xlink:href="#DejaVuSans-30" x="63.623047"/>
       <use xlink:href="#DejaVuSans-30" x="127.246094"/>
      </g>
     </g>
    </g>
    <g id="text_19">
     <!-- Count -->
     <g transform="translate(14.798437 258.926562) rotate(-90) scale(0.1 -0.1)">
      <defs>
       <path id="DejaVuSans-43" d="M 4122 4306 
L 4122 3641 
Q 3803 3938 3442 4084 
Q 3081 4231 2675 4231 
Q 1875 4231 1450 3742 
Q 1025 3253 1025 2328 
Q 1025 1406 1450 917 
Q 1875 428 2675 428 
Q 3081 428 3442 575 
Q 3803 722 4122 1019 
L 4122 359 
Q 3791 134 3420 21 
Q 3050 -91 2638 -91 
Q 1578 -91 968 557 
Q 359 1206 359 2328 
Q 359 3453 968 4101 
Q 1578 4750 2638 4750 
Q 3056 4750 3426 4639 
Q 3797 4528 4122 4306 
z
" transform="scale(0.015625)"/>
       <path id="DejaVuSans-6f" d="M 1959 3097 
Q 1497 3097 1228 2736 
Q 959 2375 959 1747 
Q 959 1119 1226 758 
Q 1494 397 1959 397 
Q 2419 397 2687 759 
Q 2956 1122 2956 1747 
Q 2956 2369 2687 2733 
Q 2419 3097 1959 3097 
z
M 1959 3584 
Q 2709 3584 3137 3096 
Q 3566 2609 3566 1747 
Q 3566 888 3137 398 
Q 2709 -91 1959 -91 
Q 1206 -91 779 398 
Q 353 888 353 1747 
Q 353 2609 779 3096 
Q 1206 3584 1959 3584 
z
" transform="scale(0.015625)"/>
       <path id="DejaVuSans-75" d="M 544 1381 
L 544 3500 
L 1119 3500 
L 1119 1403 
Q 1119 906 1312 657 
Q 1506 409 1894 409 
Q 2359 409 2629 706 
Q 2900 1003 2900 1516 
L 2900 3500 
L 3475 3500 
L 3475 0 
L 2900 0 
L 2900 538 
Q 2691 219 2414 64 
Q 2138 -91 1772 -91 
Q 1169 -91 856 284 
Q 544 659 544 1381 
z
M 1991 3584 
L 1991 3584 
z
" transform="scale(0.015625)"/>
       <path id="DejaVuSans-6e" d="M 3513 2113 
L 3513 0 
L 2938 0 
L 2938 2094 
Q 2938 2591 2744 2837 
Q 2550 3084 2163 3084 
Q 1697 3084 1428 2787 
Q 1159 2491 1159 1978 
L 1159 0 
L 581 0 
L 581 3500 
L 1159 3500 
L 1159 2956 
Q 1366 3272 1645 3428 
Q 1925 3584 2291 3584 
Q 2894 3584 3203 3211 
Q 3513 2838 3513 2113 
z
" transform="scale(0.015625)"/>
      </defs>
      <use xlink:href="#DejaVuSans-43"/>
      <use xlink:href="#DejaVuSans-6f" x="69.824219"/>
      <use xlink:href="#DejaVuSans-75" x="131.005859"/>
      <use xlink:href="#DejaVuSans-6e" x="194.384766"/>
      <use xlink:href="#DejaVuSans-74" x="257.763672"/>
     </g>
    </g>
   </g>
   <g id="line2d_35">
    <path d="M 579.601989 423.278125 
L 579.59033 421.878125 
L 542.617691 421.878125 
L 542.404157 420.478125 
L 496.717709 420.478125 
L 496.717626 421.878125 
L 486.123247 421.878125 
L 485.170968 423.278125 
L 484.961497 423.278125 
L 484.659298 424.678125 
L 484.64692 423.278125 
L 482.456093 423.278125 
L 482.454856 424.678125 
L 467.487737 424.678125 
L 467.35642 423.278125 
L 455.384546 423.278125 
L 453.58166 421.878125 
L 433.352846 421.878125 
L 433.324292 423.278125 
L 417.977102 423.278125 
L 417.868262 424.678125 
L 403.377233 424.678125 
L 403.36123 426.078125 
L 401.663873 426.078125 
L 401.618873 427.478125 
L 393.121593 427.478125 
L 393.064157 426.078125 
L 385.471538 426.078125 
L 384.903153 427.478125 
L 356.961043 427.478125 
L 356.168978 426.078125 
L 343.113976 426.078125 
L 343.036527 424.678125 
L 332.392501 424.678125 
L 332.392464 423.278125 
L 321.06259 423.278125 
L 321.46277 423.278125 
L 321.019134 424.678125 
L 312.563349 424.678125 
L 312.556719 423.278125 
L 304.833471 423.278125 
L 304.434706 424.678125 
L 297.071468 424.678125 
L 296.972465 423.278125 
L 281.368222 423.278125 
L 281.368081 424.678125 
L 237.226751 424.678125 
L 237.159092 426.078125 
L 234.427765 426.078125 
L 234.42763 427.478125 
L 232.233918 427.478125 
L 232.234059 428.878125 
L 225.995713 428.878125 
L 225.471368 430.278125 
L 223.3125 430.278125 
L 223.095038 428.878125 
L 197.648135 428.878125 
L 197.627354 430.278125 
L 193.358582 430.278125 
L 192.901176 431.678125 
L 181.887115 431.678125 
L 181.872494 430.278125 
L 179.133546 430.278125 
L 179.122415 431.678125 
L 175.421799 431.678125 
L 175.017551 433.078125 
L 170.146035 433.078125 
L 170.117069 434.478125 
L 168.399755 434.478125 
L 168.185887 435.878125 
L 164.762088 435.878125 
L 164.758619 437.278125 
L 157.400128 437.278125 
L 156.394821 438.678125 
L 111.475786 438.678125 
L 111.453883 440.078125 
L 103.900505 440.078125 
L 103.886119 441.478125 
L 93.260277 441.478125 
L 92.956607 442.878125 
L 81.338602 442.878125 
L 80.898368 444.278125 
L 72.797559 444.278125 
L 72.329261 445.678125 
L 72.329261 445.678125 
" clip-path="url(#pebb6d4d2a1)" style="fill: none; stroke: #1f77b4; stroke-opacity: 0.8; stroke-width: 1.5; stroke-linecap: square"/>
   </g>
   <g id="line2d_36">
    <path d="M 579.601989 101.278125 
L 579.59033 56.478125 
L 579.216034 55.078125 
L 578.241706 55.078125 
L 578.22479 56.478125 
L 573.847328 56.478125 
L 571.460921 57.878125 
L 568.423806 57.878125 
L 566.65564 56.478125 
L 566.642573 57.878125 
L 557.251299 57.878125 
L 557.169499 50.878125 
L 555.373989 50.878125 
L 553.558496 52.278125 
L 551.756289 52.278125 
L 551.756216 53.678125 
L 549.843416 55.078125 
L 548.042758 55.078125 
L 548.041297 57.878125 
L 547.736407 59.278125 
L 547.705104 60.678125 
L 547.322514 60.678125 
L 546.760842 62.078125 
L 546.671432 63.478125 
L 546.289254 63.478125 
L 546.195582 67.678125 
L 544.586467 70.478125 
L 542.617691 70.478125 
L 542.404157 63.478125 
L 537.81723 63.478125 
L 536.984636 64.878125 
L 535.587177 64.878125 
L 535.587094 66.278125 
L 534.673607 64.878125 
L 534.179422 66.278125 
L 530.587317 66.278125 
L 530.574887 67.678125 
L 529.311698 67.678125 
L 528.871516 66.278125 
L 527.340127 66.278125 
L 527.288654 69.078125 
L 522.076751 69.078125 
L 519.832651 70.478125 
L 519.334549 70.478125 
L 518.3356 71.878125 
L 509.496624 71.878125 
L 509.486495 73.278125 
L 506.320494 73.278125 
L 506.319847 76.078125 
L 500.945555 76.078125 
L 499.63842 77.478125 
L 498.549936 78.878125 
L 496.717709 78.878125 
L 496.717626 80.278125 
L 494.99388 80.278125 
L 494.587551 81.678125 
L 492.823265 81.678125 
L 491.896211 83.078125 
L 489.46194 83.078125 
L 487.808769 84.478125 
L 487.36794 85.878125 
L 486.123247 85.878125 
L 485.171291 84.478125 
L 485.170968 91.478125 
L 484.961497 90.078125 
L 484.659298 90.078125 
L 484.64692 76.078125 
L 484.451909 77.478125 
L 484.229736 81.678125 
L 481.037696 81.678125 
L 479.698534 76.078125 
L 479.698335 78.878125 
L 479.271418 80.278125 
L 479.251127 84.478125 
L 477.466775 90.078125 
L 477.410122 92.878125 
L 477.061828 92.878125 
L 476.9878 42.478125 
L 476.98768 45.278125 
L 475.177529 45.278125 
L 473.821539 48.078125 
L 473.67197 48.078125 
L 473.371096 49.478125 
L 471.628901 52.278125 
L 471.176534 53.678125 
L 471.167333 56.478125 
L 470.594258 57.878125 
L 470.238349 57.878125 
L 470.238265 62.078125 
L 468.893187 56.478125 
L 467.487737 57.878125 
L 467.35642 52.278125 
L 466.152941 52.278125 
L 466.152503 53.678125 
L 464.833219 55.078125 
L 461.752779 55.078125 
L 461.654631 53.678125 
L 460.794266 53.678125 
L 458.001905 57.878125 
L 460.794339 59.278125 
L 455.384546 59.278125 
L 453.58166 56.478125 
L 451.256736 56.478125 
L 451.25623 60.678125 
L 449.492199 60.678125 
L 449.492121 62.078125 
L 448.230314 62.078125 
L 446.832548 63.478125 
L 445.256926 66.278125 
L 442.12591 66.278125 
L 442.090023 67.678125 
L 435.447283 67.678125 
L 433.990454 69.078125 
L 433.352846 67.678125 
L 433.324292 70.478125 
L 431.070777 70.478125 
L 431.070688 71.878125 
L 428.60694 71.878125 
L 427.883327 73.278125 
L 427.245666 74.678125 
L 427.246459 74.678125 
L 423.617252 74.678125 
L 422.884208 76.078125 
L 422.792727 77.478125 
L 422.528705 78.878125 
L 420.470421 78.878125 
L 421.142571 80.278125 
L 419.733287 84.478125 
L 419.58784 85.878125 
L 418.75585 85.878125 
L 418.500352 94.278125 
L 416.886986 94.278125 
L 414.890852 95.678125 
L 414.876194 97.078125 
L 414.636986 101.278125 
L 414.634242 94.278125 
L 414.19985 95.678125 
L 411.491714 95.678125 
L 411.25574 99.878125 
L 405.833099 101.278125 
L 405.832807 104.078125 
L 405.585185 105.478125 
L 404.471669 105.478125 
L 403.829527 106.878125 
L 403.377233 106.878125 
L 403.36123 109.678125 
L 402.434155 109.678125 
L 401.993263 112.478125 
L 401.663873 112.478125 
L 401.618873 115.278125 
L 400.846191 115.278125 
L 400.81998 118.078125 
L 400.81985 116.678125 
L 399.035111 116.678125 
L 398.861767 118.078125 
L 398.861684 119.478125 
L 398.507131 119.478125 
L 398.204854 120.878125 
L 397.734532 122.278125 
L 397.170112 122.278125 
L 396.806185 123.678125 
L 396.79882 129.278125 
L 395.359809 134.878125 
L 394.482684 134.878125 
L 394.440005 129.278125 
L 393.931898 129.278125 
L 393.89044 130.678125 
L 393.609607 130.678125 
L 393.504287 125.078125 
L 393.121593 126.478125 
L 393.064157 120.878125 
L 392.265457 122.278125 
L 390.753389 122.278125 
L 390.522834 123.678125 
L 390.511046 125.078125 
L 390.088275 127.878125 
L 389.855885 127.878125 
L 389.855744 130.678125 
L 386.322227 132.078125 
L 385.512219 132.078125 
L 385.471538 133.478125 
L 384.966164 141.878125 
L 384.903153 140.478125 
L 381.433618 140.478125 
L 380.899947 143.278125 
L 379.286174 144.678125 
L 378.099876 144.678125 
L 378.099787 146.078125 
L 377.826705 147.478125 
L 375.028898 147.478125 
L 373.763727 148.878125 
L 373.761082 147.478125 
L 370.545168 148.878125 
L 369.079602 148.878125 
L 368.896801 150.278125 
L 366.971972 151.678125 
L 366.566717 153.078125 
L 365.727185 151.678125 
L 364.400745 154.478125 
L 361.019024 154.478125 
L 360.790243 155.878125 
L 356.961043 155.878125 
L 356.18687 147.478125 
L 356.168978 146.078125 
L 354.86431 147.478125 
L 354.861707 148.878125 
L 353.906058 150.278125 
L 352.913051 154.478125 
L 352.906703 157.278125 
L 351.217352 160.078125 
L 351.125642 164.278125 
L 350.672341 165.678125 
L 346.624302 168.478125 
L 346.314221 158.678125 
L 345.677562 160.078125 
L 345.677478 162.878125 
L 343.195312 162.878125 
L 343.113976 165.678125 
L 343.036527 158.678125 
L 342.339949 158.678125 
L 341.288594 160.078125 
L 340.997297 160.078125 
L 340.980918 161.478125 
L 339.379919 161.478125 
L 339.0444 162.878125 
L 338.936394 164.278125 
L 338.10695 164.278125 
L 338.106558 167.078125 
L 337.723613 167.078125 
L 337.570435 174.078125 
L 336.671971 174.078125 
L 335.8613 175.478125 
L 335.094398 175.478125 
L 335.000439 186.678125 
L 334.863885 189.478125 
L 334.863786 190.878125 
L 332.392501 189.478125 
L 332.392464 168.478125 
L 330.526682 165.678125 
L 330.370938 165.678125 
L 329.820397 167.078125 
L 327.466043 167.078125 
L 327.421022 168.478125 
L 325.060565 168.478125 
L 324.689867 169.878125 
L 324.31399 168.478125 
L 322.836677 169.878125 
L 322.275131 169.878125 
L 322.274896 171.278125 
L 321.317395 171.278125 
L 321.06259 175.478125 
L 321.46277 175.478125 
L 320.850162 181.078125 
L 318.652731 181.078125 
L 317.511673 182.478125 
L 318.195367 182.478125 
L 316.125471 183.878125 
L 315.942143 189.478125 
L 315.759572 189.478125 
L 315.240391 190.878125 
L 313.402145 189.478125 
L 313.267714 190.878125 
L 313.224144 189.478125 
L 312.563349 189.478125 
L 312.556719 155.878125 
L 311.993816 136.278125 
L 311.933747 137.678125 
L 309.31172 137.678125 
L 309.281654 143.278125 
L 308.4655 144.678125 
L 308.039746 147.478125 
L 304.833471 147.478125 
L 304.434706 148.878125 
L 299.777246 148.878125 
L 301.215484 150.278125 
L 300.315002 150.278125 
L 300.158334 151.678125 
L 300.130114 153.078125 
L 298.935873 154.478125 
L 298.853514 157.278125 
L 298.822682 160.078125 
L 298.586212 160.078125 
L 297.445018 162.878125 
L 297.445018 164.278125 
L 297.076861 165.678125 
L 296.98671 160.078125 
L 296.972465 161.478125 
L 295.145063 161.478125 
L 295.188577 161.478125 
L 293.581209 162.878125 
L 282.781731 162.878125 
L 282.739026 164.278125 
L 282.289763 168.478125 
L 281.368347 168.478125 
L 281.368222 167.078125 
L 281.368081 168.478125 
L 278.981882 168.478125 
L 278.737791 169.878125 
L 276.856987 169.878125 
L 276.423137 171.278125 
L 276.419309 179.678125 
L 275.967964 181.078125 
L 275.967891 183.878125 
L 274.723266 183.878125 
L 274.622667 185.278125 
L 274.171301 185.278125 
L 273.2536 186.678125 
L 272.312347 186.678125 
L 272.213725 189.478125 
L 268.677966 189.478125 
L 268.677888 188.078125 
L 267.831606 188.078125 
L 267.83145 190.878125 
L 266.40103 193.678125 
L 262.491402 193.678125 
L 262.48689 196.478125 
L 262.056467 196.478125 
L 261.63813 197.878125 
L 261.106206 197.878125 
L 261.096718 199.278125 
L 257.016845 199.278125 
L 256.656141 200.678125 
L 256.066505 202.078125 
L 254.340992 203.478125 
L 254.340992 203.478125 
L 253.490427 204.878125 
L 253.490281 206.278125 
L 250.175082 206.278125 
L 248.9672 207.678125 
L 247.201308 207.678125 
L 247.198716 209.078125 
L 243.995842 210.478125 
L 242.203389 211.878125 
L 240.397431 211.878125 
L 240.203264 213.278125 
L 239.00063 216.078125 
L 238.999925 217.478125 
L 234.969079 217.478125 
L 234.856138 220.278125 
L 234.427765 220.278125 
L 234.42763 223.078125 
L 233.953099 223.078125 
L 233.952974 221.678125 
L 233.665954 221.678125 
L 233.206832 223.078125 
L 233.206759 224.478125 
L 232.233918 225.878125 
L 232.234059 230.078125 
L 230.482699 230.078125 
L 227.76376 231.478125 
L 227.755685 234.278125 
L 226.444706 234.278125 
L 226.387813 235.678125 
L 226.049163 237.078125 
L 225.995713 241.278125 
L 225.471368 245.478125 
L 224.943111 246.878125 
L 224.88976 248.278125 
L 224.075631 248.278125 
L 223.3125 249.678125 
L 223.095038 249.678125 
L 222.306734 251.078125 
L 219.961159 251.078125 
L 219.925464 252.478125 
L 217.790836 252.478125 
L 217.790836 252.478125 
L 217.477621 253.878125 
L 217.475216 242.678125 
L 217.466025 244.078125 
L 216.413538 249.678125 
L 212.784409 249.678125 
L 212.710908 259.478125 
L 212.51477 262.278125 
L 210.952783 262.278125 
L 210.204288 263.678125 
L 208.19501 263.678125 
L 208.191812 265.078125 
L 208.005809 267.878125 
L 207.31113 269.278125 
L 207.292289 273.478125 
L 207.073998 273.478125 
L 207.038757 274.878125 
L 205.97384 274.878125 
L 204.631652 276.278125 
L 204.377436 276.278125 
L 204.360202 277.678125 
L 204.206398 279.078125 
L 200.654949 279.078125 
L 200.124167 280.478125 
L 199.831065 281.878125 
L 198.974116 283.278125 
L 198.781421 283.278125 
L 197.844571 284.678125 
L 197.648135 284.678125 
L 197.627354 288.878125 
L 197.404827 290.278125 
L 197.404712 291.678125 
L 197.075989 291.678125 
L 195.733462 300.078125 
L 195.618529 298.678125 
L 195.204975 298.678125 
L 195.143148 300.078125 
L 194.842879 301.478125 
L 193.358582 301.478125 
L 192.901176 304.278125 
L 191.667082 304.278125 
L 190.322709 302.878125 
L 190.300989 304.278125 
L 189.999291 304.278125 
L 189.544086 305.678125 
L 188.604294 298.678125 
L 185.946562 298.678125 
L 185.358585 300.078125 
L 185.355309 301.478125 
L 183.708914 301.478125 
L 183.706504 302.878125 
L 183.226799 302.878125 
L 182.971395 304.278125 
L 182.784025 304.278125 
L 182.775908 308.478125 
L 182.346018 308.478125 
L 182.345324 309.878125 
L 181.887115 309.878125 
L 181.875702 307.078125 
L 181.872494 308.478125 
L 179.573447 308.478125 
L 179.133546 309.878125 
L 179.122415 311.278125 
L 176.869692 311.278125 
L 175.805975 305.678125 
L 175.421799 309.878125 
L 175.017551 315.478125 
L 172.713918 315.478125 
L 172.420363 316.878125 
L 171.845364 316.878125 
L 171.845218 319.678125 
L 171.554875 319.678125 
L 171.530829 321.078125 
L 170.63334 321.078125 
L 170.492889 325.278125 
L 170.434421 325.278125 
L 170.434327 328.078125 
L 170.146035 329.478125 
L 170.117069 330.878125 
L 169.177465 330.878125 
L 169.172437 332.278125 
L 169.034125 332.278125 
L 169.026348 337.878125 
L 168.66952 337.878125 
L 168.595821 339.278125 
L 168.399755 340.678125 
L 168.150083 347.678125 
L 167.768766 349.078125 
L 164.762088 349.078125 
L 164.758619 351.878125 
L 161.453519 351.878125 
L 161.432044 354.678125 
L 159.804656 354.678125 
L 159.802898 347.678125 
L 157.400128 347.678125 
L 156.394821 349.078125 
L 153.227578 350.478125 
L 151.157714 350.478125 
L 149.795537 351.878125 
L 148.382894 351.878125 
L 148.057729 353.278125 
L 147.179806 354.678125 
L 146.993239 356.078125 
L 146.992931 358.878125 
L 145.717411 358.878125 
L 144.665143 361.678125 
L 142.885198 361.678125 
L 142.884927 363.078125 
L 138.521993 363.078125 
L 136.369885 364.478125 
L 134.820443 364.478125 
L 134.784493 365.878125 
L 134.07959 367.278125 
L 133.14503 367.278125 
L 132.995117 368.678125 
L 132.994898 365.878125 
L 132.976856 367.278125 
L 132.776231 368.678125 
L 132.775611 371.478125 
L 123.744857 371.478125 
L 123.587172 375.678125 
L 122.191492 375.678125 
L 118.990898 377.078125 
L 118.993371 378.478125 
L 118.989938 378.478125 
L 114.66829 378.478125 
L 114.529519 382.678125 
L 112.006693 382.678125 
L 111.898567 384.078125 
L 111.755232 385.478125 
L 111.453883 393.878125 
L 110.961931 393.878125 
L 110.412642 395.278125 
L 110.071259 395.278125 
L 109.954214 398.078125 
L 109.199997 399.478125 
L 107.378047 399.478125 
L 107.377864 402.278125 
L 105.569471 402.278125 
L 105.036999 403.678125 
L 105.007642 405.078125 
L 104.558468 405.078125 
L 103.886119 412.078125 
L 97.895542 412.078125 
L 97.80766 414.878125 
L 96.96117 414.878125 
L 96.096423 416.278125 
L 95.259353 416.278125 
L 94.675987 417.678125 
L 94.221095 417.678125 
L 93.891835 419.078125 
L 93.727067 421.878125 
L 93.260277 423.278125 
L 92.956607 427.478125 
L 86.985278 427.478125 
L 86.126018 428.878125 
L 83.599739 428.878125 
L 83.59965 430.278125 
L 82.065199 430.278125 
L 81.65405 431.678125 
L 81.338602 431.678125 
L 80.898368 434.478125 
L 78.634827 434.478125 
L 78.395536 435.878125 
L 77.038487 435.878125 
L 77.031471 437.278125 
L 76.834555 438.678125 
L 75.956486 438.678125 
L 75.861119 440.078125 
L 73.513217 441.478125 
L 72.797559 441.478125 
L 72.329261 442.878125 
L 72.329261 442.878125 
" clip-path="url(#pebb6d4d2a1)" style="fill: none; stroke: #ff7f0e; stroke-opacity: 0.8; stroke-width: 1.5; stroke-linecap: square"/>
   </g>
   <g id="line2d_37">
    <path d="M 579.601989 263.678125 
L 579.59033 231.478125 
L 578.241706 231.478125 
L 578.22479 232.878125 
L 573.847328 232.878125 
L 571.460921 234.278125 
L 568.423806 234.278125 
L 566.642573 232.878125 
L 555.373989 232.878125 
L 553.558496 234.278125 
L 551.756216 234.278125 
L 549.843416 235.678125 
L 547.736407 235.678125 
L 547.705104 237.078125 
L 546.760842 237.078125 
L 546.671432 238.478125 
L 546.211992 238.478125 
L 546.195582 239.878125 
L 544.586467 241.278125 
L 542.617691 241.278125 
L 542.404157 238.478125 
L 537.81723 238.478125 
L 536.984636 239.878125 
L 535.587177 239.878125 
L 535.587094 241.278125 
L 534.673607 241.278125 
L 534.179422 242.678125 
L 531.059824 242.678125 
L 530.587317 241.278125 
L 530.574887 242.678125 
L 529.311698 242.678125 
L 528.871516 241.278125 
L 527.340127 241.278125 
L 527.288654 244.078125 
L 519.334549 244.078125 
L 518.3356 245.478125 
L 500.945555 245.478125 
L 499.63842 246.878125 
L 498.549936 248.278125 
L 496.717709 248.278125 
L 496.717626 249.678125 
L 492.823265 249.678125 
L 491.896211 251.078125 
L 484.659298 251.078125 
L 484.64692 248.278125 
L 481.037696 248.278125 
L 479.698335 244.078125 
L 479.271418 245.478125 
L 479.251127 246.878125 
L 477.466775 248.278125 
L 477.410122 249.678125 
L 477.061828 249.678125 
L 476.9878 225.878125 
L 476.98768 227.278125 
L 473.67197 227.278125 
L 473.371096 228.678125 
L 471.176534 228.678125 
L 471.167333 230.078125 
L 470.594258 231.478125 
L 470.238265 231.478125 
L 468.893187 230.078125 
L 467.487737 230.078125 
L 467.35642 228.678125 
L 466.152941 228.678125 
L 466.152503 230.078125 
L 464.833219 231.478125 
L 460.794266 231.478125 
L 458.001905 232.878125 
L 460.794339 234.278125 
L 455.384546 234.278125 
L 453.58166 232.878125 
L 451.256736 232.878125 
L 451.25623 237.078125 
L 446.832548 237.078125 
L 445.256926 238.478125 
L 442.12591 238.478125 
L 442.090023 239.878125 
L 435.447283 239.878125 
L 433.990454 241.278125 
L 431.070777 241.278125 
L 431.070688 242.678125 
L 428.60694 242.678125 
L 427.883327 244.078125 
L 427.245666 245.478125 
L 427.246459 245.478125 
L 420.470421 245.478125 
L 421.142571 246.878125 
L 419.58784 248.278125 
L 418.715999 248.278125 
L 418.614356 249.678125 
L 414.890852 249.678125 
L 414.876194 251.078125 
L 414.634242 252.478125 
L 414.19985 253.878125 
L 411.491714 253.878125 
L 411.25574 255.278125 
L 405.833099 256.678125 
L 405.832807 258.078125 
L 405.585185 259.478125 
L 404.471669 259.478125 
L 403.829527 260.878125 
L 403.377233 260.878125 
L 403.36123 262.278125 
L 402.434155 262.278125 
L 401.993263 263.678125 
L 401.663873 263.678125 
L 401.618873 266.478125 
L 400.846191 266.478125 
L 400.81985 267.878125 
L 399.035111 267.878125 
L 398.861684 269.278125 
L 398.204854 269.278125 
L 397.734532 270.678125 
L 396.79882 270.678125 
L 395.359809 272.078125 
L 394.482684 272.078125 
L 394.440005 267.878125 
L 393.931898 267.878125 
L 393.89044 269.278125 
L 393.609607 269.278125 
L 393.504287 266.478125 
L 393.121593 267.878125 
L 393.064157 266.478125 
L 390.753389 266.478125 
L 390.31183 269.278125 
L 389.855744 269.278125 
L 386.322227 270.678125 
L 385.512219 270.678125 
L 385.471538 272.078125 
L 384.903153 273.478125 
L 381.433618 273.478125 
L 380.899947 274.878125 
L 379.286174 276.278125 
L 378.099876 276.278125 
L 378.099787 277.678125 
L 377.826705 279.078125 
L 373.761082 279.078125 
L 370.545168 280.478125 
L 369.079602 280.478125 
L 368.896801 281.878125 
L 366.971972 283.278125 
L 366.566717 283.278125 
L 365.727185 281.878125 
L 364.400745 283.278125 
L 361.019024 283.278125 
L 360.790243 284.678125 
L 356.961043 284.678125 
L 356.168978 283.278125 
L 354.86431 284.678125 
L 354.861707 286.078125 
L 352.913051 288.878125 
L 352.906703 290.278125 
L 351.217352 291.678125 
L 351.125642 293.078125 
L 350.672341 293.078125 
L 346.624302 294.478125 
L 346.314221 284.678125 
L 345.677478 286.078125 
L 344.042136 286.078125 
L 344.009718 284.678125 
L 343.195312 284.678125 
L 343.036527 286.078125 
L 342.339949 286.078125 
L 341.288594 287.478125 
L 339.379919 287.478125 
L 339.0444 288.878125 
L 338.936394 290.278125 
L 338.106684 290.278125 
L 338.106558 291.678125 
L 337.723613 291.678125 
L 337.570435 293.078125 
L 335.094398 293.078125 
L 335.000439 295.878125 
L 334.863786 298.678125 
L 332.392501 298.678125 
L 332.392464 294.478125 
L 330.370938 294.478125 
L 329.820397 295.878125 
L 327.466043 295.878125 
L 327.421022 297.278125 
L 325.060565 297.278125 
L 324.689867 298.678125 
L 322.275131 298.678125 
L 322.274896 300.078125 
L 321.06259 300.078125 
L 321.46277 300.078125 
L 321.019134 301.478125 
L 320.850162 302.878125 
L 318.652731 302.878125 
L 317.511673 304.278125 
L 318.195367 304.278125 
L 316.125471 305.678125 
L 315.942143 307.078125 
L 315.759572 307.078125 
L 315.240391 308.478125 
L 313.402145 307.078125 
L 313.267714 308.478125 
L 313.224144 307.078125 
L 312.563349 307.078125 
L 312.556719 284.678125 
L 311.993816 279.078125 
L 311.933747 280.478125 
L 309.31172 280.478125 
L 309.281654 281.878125 
L 308.4655 283.278125 
L 308.039746 284.678125 
L 299.777246 284.678125 
L 301.215484 286.078125 
L 300.315002 286.078125 
L 300.130114 287.478125 
L 298.877785 288.878125 
L 298.822682 290.278125 
L 298.032662 290.278125 
L 297.445018 291.678125 
L 297.445018 293.078125 
L 297.076861 294.478125 
L 296.98671 288.878125 
L 296.972465 290.278125 
L 295.145063 290.278125 
L 295.188577 290.278125 
L 293.581209 291.678125 
L 282.781731 291.678125 
L 282.739026 293.078125 
L 278.981882 293.078125 
L 278.737791 294.478125 
L 276.856987 294.478125 
L 276.423137 295.878125 
L 276.419309 297.278125 
L 274.723266 297.278125 
L 274.622667 298.678125 
L 274.171301 298.678125 
L 273.2536 300.078125 
L 272.312347 300.078125 
L 272.213725 302.878125 
L 268.677966 302.878125 
L 268.677888 301.478125 
L 267.831606 301.478125 
L 267.83145 302.878125 
L 266.40103 304.278125 
L 261.106206 304.278125 
L 261.096718 305.678125 
L 257.016845 305.678125 
L 256.656141 307.078125 
L 256.066505 308.478125 
L 254.340992 309.878125 
L 254.340992 309.878125 
L 253.490427 311.278125 
L 253.490281 312.678125 
L 250.175082 312.678125 
L 248.9672 314.078125 
L 247.201308 314.078125 
L 247.198716 315.478125 
L 243.995842 316.878125 
L 242.203389 318.278125 
L 240.397431 318.278125 
L 240.203264 319.678125 
L 239.00063 321.078125 
L 238.999925 322.478125 
L 234.427765 322.478125 
L 234.42763 325.278125 
L 233.665954 325.278125 
L 233.206832 326.678125 
L 233.206759 328.078125 
L 232.233918 329.478125 
L 232.234059 333.678125 
L 230.482699 333.678125 
L 227.76376 335.078125 
L 227.755685 336.478125 
L 226.444706 336.478125 
L 226.421827 337.878125 
L 226.387813 336.478125 
L 226.049163 336.478125 
L 225.995713 339.278125 
L 224.943111 339.278125 
L 224.88976 340.678125 
L 224.075631 340.678125 
L 223.3125 342.078125 
L 217.790836 342.078125 
L 217.790836 342.078125 
L 217.477621 343.478125 
L 217.475216 332.278125 
L 217.466025 333.678125 
L 216.413538 335.078125 
L 212.784409 335.078125 
L 212.710908 339.278125 
L 212.51477 340.678125 
L 208.19501 340.678125 
L 208.191812 342.078125 
L 208.005809 343.478125 
L 207.31113 344.878125 
L 207.292289 347.678125 
L 207.073998 347.678125 
L 207.038757 349.078125 
L 205.97384 349.078125 
L 204.631652 350.478125 
L 204.377436 350.478125 
L 204.360202 351.878125 
L 204.206398 353.278125 
L 200.654949 353.278125 
L 200.124167 354.678125 
L 199.831065 354.678125 
L 198.974116 356.078125 
L 198.781421 356.078125 
L 197.844571 357.478125 
L 197.627354 357.478125 
L 197.404827 358.878125 
L 197.404712 360.278125 
L 197.075989 360.278125 
L 195.733462 361.678125 
L 195.618529 360.278125 
L 195.204975 360.278125 
L 195.143148 361.678125 
L 194.842879 363.078125 
L 193.358582 363.078125 
L 192.901176 361.678125 
L 190.322709 361.678125 
L 190.300989 363.078125 
L 189.999291 363.078125 
L 189.544086 364.478125 
L 188.604294 360.278125 
L 185.946562 360.278125 
L 185.355309 361.678125 
L 183.226799 361.678125 
L 182.971395 363.078125 
L 182.784025 363.078125 
L 182.775908 364.478125 
L 182.346018 364.478125 
L 182.345324 365.878125 
L 179.133546 365.878125 
L 179.122415 367.278125 
L 171.845364 367.278125 
L 171.845218 368.678125 
L 170.543356 368.678125 
L 170.434327 370.078125 
L 170.117069 371.478125 
L 169.177465 371.478125 
L 169.172437 372.878125 
L 169.034125 372.878125 
L 169.026348 374.278125 
L 168.66952 374.278125 
L 168.595821 375.678125 
L 168.171313 375.678125 
L 168.150083 377.078125 
L 167.768766 378.478125 
L 164.758739 378.478125 
L 164.758619 379.878125 
L 161.453519 379.878125 
L 161.432044 381.278125 
L 159.804656 381.278125 
L 159.802898 377.078125 
L 157.400128 377.078125 
L 156.394821 378.478125 
L 151.157714 378.478125 
L 149.795537 379.878125 
L 148.382894 379.878125 
L 148.057729 381.278125 
L 147.179806 382.678125 
L 146.993239 382.678125 
L 146.992931 385.478125 
L 145.717411 385.478125 
L 144.665143 386.878125 
L 142.885198 386.878125 
L 142.884927 388.278125 
L 138.521993 388.278125 
L 136.369885 389.678125 
L 134.820443 389.678125 
L 134.784493 391.078125 
L 133.14503 391.078125 
L 132.994898 392.478125 
L 132.976856 393.878125 
L 132.776231 395.278125 
L 132.775611 398.078125 
L 123.620321 398.078125 
L 123.587172 399.478125 
L 122.191492 399.478125 
L 118.989938 400.878125 
L 114.66829 400.878125 
L 114.533306 402.278125 
L 114.529519 403.678125 
L 112.006693 403.678125 
L 111.898567 405.078125 
L 111.755232 406.478125 
L 111.453883 407.878125 
L 110.961931 407.878125 
L 110.412642 409.278125 
L 110.071259 409.278125 
L 109.954214 410.678125 
L 109.199997 412.078125 
L 107.378047 412.078125 
L 107.377864 413.478125 
L 105.569471 413.478125 
L 105.036999 414.878125 
L 105.007642 416.278125 
L 104.558468 416.278125 
L 104.280681 417.678125 
L 104.249045 419.078125 
L 103.900505 420.478125 
L 103.886119 421.878125 
L 97.850177 421.878125 
L 97.80766 423.278125 
L 96.96117 423.278125 
L 96.096423 424.678125 
L 95.259353 424.678125 
L 94.675987 426.078125 
L 93.891835 426.078125 
L 93.727067 428.878125 
L 93.260277 428.878125 
L 92.956607 430.278125 
L 86.985278 430.278125 
L 86.126018 431.678125 
L 83.599739 431.678125 
L 83.59965 433.078125 
L 82.065199 433.078125 
L 81.65405 434.478125 
L 81.338602 434.478125 
L 80.898368 435.878125 
L 78.634827 435.878125 
L 78.395536 437.278125 
L 77.031471 437.278125 
L 76.834555 438.678125 
L 75.956486 438.678125 
L 75.861119 440.078125 
L 73.513217 441.478125 
L 72.797559 441.478125 
L 72.329261 442.878125 
L 72.329261 442.878125 
" clip-path="url(#pebb6d4d2a1)" style="fill: none; stroke: #2ca02c; stroke-opacity: 0.8; stroke-width: 1.5; stroke-linecap: square"/>
   </g>
   <g id="patch_3">
    <path d="M 46.965625 465.838125 
L 46.965625 22.318125 
" style="fill: none; stroke: #000000; stroke-width: 0.8; stroke-linejoin: miter; stroke-linecap: square"/>
   </g>
   <g id="patch_4">
    <path d="M 604.965625 465.838125 
L 604.965625 22.318125 
" style="fill: none; stroke: #000000; stroke-width: 0.8; stroke-linejoin: miter; stroke-linecap: square"/>
   </g>
   <g id="patch_5">
    <path d="M 46.965625 465.838125 
L 604.965625 465.838125 
" style="fill: none; stroke: #000000; stroke-width: 0.8; stroke-linejoin: miter; stroke-linecap: square"/>
   </g>
   <g id="patch_6">
    <path d="M 46.965625 22.318125 
L 604.965625 22.318125 
" style="fill: none; stroke: #000000; stroke-width: 0.8; stroke-linejoin: miter; stroke-linecap: square"/>
   </g>
   <g id="text_20">
    <!-- 17 -->
    <g transform="translate(579.601989 423.278125) scale(0.1 -0.1)">
     <defs>
      <path id="DejaVuSans-37" d="M 525 4666 
L 3525 4666 
L 3525 4397 
L 1831 0 
L 1172 0 
L 2766 4134 
L 525 4134 
L 525 4666 
z
" transform="scale(0.015625)"/>
     </defs>
     <use xlink:href="#DejaVuSans-31"/>
     <use xlink:href="#DejaVuSans-37" x="63.623047"/>
    </g>
   </g>
   <g id="text_21">
    <!-- 247 -->
    <g transform="translate(579.601989 101.278125) scale(0.1 -0.1)">
     <defs>
      <path id="DejaVuSans-34" d="M 2419 4116 
L 825 1625 
L 2419 1625 
L 2419 4116 
z
M 2253 4666 
L 3047 4666 
L 3047 1625 
L 3713 1625 
L 3713 1100 
L 3047 1100 
L 3047 0 
L 2419 0 
L 2419 1100 
L 313 1100 
L 313 1709 
L 2253 4666 
z
" transform="scale(0.015625)"/>
     </defs>
     <use xlink:href="#DejaVuSans-32"/>
     <use xlink:href="#DejaVuSans-34" x="63.623047"/>
     <use xlink:href="#DejaVuSans-37" x="127.246094"/>
    </g>
   </g>
   <g id="text_22">
    <!-- 131 -->
    <g transform="translate(579.601989 263.678125) scale(0.1 -0.1)">
     <use xlink:href="#DejaVuSans-31"/>
     <use xlink:href="#DejaVuSans-33" x="63.623047"/>
     <use xlink:href="#DejaVuSans-31" x="127.246094"/>
    </g>
   </g>
   <g id="text_23">
    <!-- Peers over time -->
    <g transform="translate(278.839375 16.318125) scale(0.12 -0.12)">
     <defs>
      <path id="DejaVuSans-50" d="M 1259 4147 
L 1259 2394 
L 2053 2394 
Q 2494 2394 2734 2622 
Q 2975 2850 2975 3272 
Q 2975 3691 2734 3919 
Q 2494 4147 2053 4147 
L 1259 4147 
z
M 628 4666 
L 2053 4666 
Q 2838 4666 3239 4311 
Q 3641 3956 3641 3272 
Q 3641 2581 3239 2228 
Q 2838 1875 2053 1875 
L 1259 1875 
L 1259 0 
L 628 0 
L 628 4666 
z
" transform="scale(0.015625)"/>
      <path id="DejaVuSans-72" d="M 2631 2963 
Q 2534 3019 2420 3045 
Q 2306 3072 2169 3072 
Q 1681 3072 1420 2755 
Q 1159 2438 1159 1844 
L 1159 0 
L 581 0 
L 581 3500 
L 1159 3500 
L 1159 2956 
Q 1341 3275 1631 3429 
Q 1922 3584 2338 3584 
Q 2397 3584 2469 3576 
Q 2541 3569 2628 3553 
L 2631 2963 
z
" transform="scale(0.015625)"/>
      <path id="DejaVuSans-73" d="M 2834 3397 
L 2834 2853 
Q 2591 2978 2328 3040 
Q 2066 3103 1784 3103 
Q 1356 3103 1142 2972 
Q 928 2841 928 2578 
Q 928 2378 1081 2264 
Q 1234 2150 1697 2047 
L 1894 2003 
Q 2506 1872 2764 1633 
Q 3022 1394 3022 966 
Q 3022 478 2636 193 
Q 2250 -91 1575 -91 
Q 1294 -91 989 -36 
Q 684 19 347 128 
L 347 722 
Q 666 556 975 473 
Q 1284 391 1588 391 
Q 1994 391 2212 530 
Q 2431 669 2431 922 
Q 2431 1156 2273 1281 
Q 2116 1406 1581 1522 
L 1381 1569 
Q 847 1681 609 1914 
Q 372 2147 372 2553 
Q 372 3047 722 3315 
Q 1072 3584 1716 3584 
Q 2034 3584 2315 3537 
Q 2597 3491 2834 3397 
z
" transform="scale(0.015625)"/>
      <path id="DejaVuSans-20" transform="scale(0.015625)"/>
      <path id="DejaVuSans-76" d="M 191 3500 
L 800 3500 
L 1894 563 
L 2988 3500 
L 3597 3500 
L 2284 0 
L 1503 0 
L 191 3500 
z
" transform="scale(0.015625)"/>
      <path id="DejaVuSans-69" d="M 603 3500 
L 1178 3500 
L 1178 0 
L 603 0 
L 603 3500 
z
M 603 4863 
L 1178 4863 
L 1178 4134 
L 603 4134 
L 603 4863 
z
" transform="scale(0.015625)"/>
      <path id="DejaVuSans-6d" d="M 3328 2828 
Q 3544 3216 3844 3400 
Q 4144 3584 4550 3584 
Q 5097 3584 5394 3201 
Q 5691 2819 5691 2113 
L 5691 0 
L 5113 0 
L 5113 2094 
Q 5113 2597 4934 2840 
Q 4756 3084 4391 3084 
Q 3944 3084 3684 2787 
Q 3425 2491 3425 1978 
L 3425 0 
L 2847 0 
L 2847 2094 
Q 2847 2600 2669 2842 
Q 2491 3084 2119 3084 
Q 1678 3084 1418 2786 
Q 1159 2488 1159 1978 
L 1159 0 
L 581 0 
L 581 3500 
L 1159 3500 
L 1159 2956 
Q 1356 3278 1631 3431 
Q 1906 3584 2284 3584 
Q 2666 3584 2933 3390 
Q 3200 3197 3328 2828 
z
" transform="scale(0.015625)"/>
     </defs>
     <use xlink:href="#DejaVuSans-50"/>
     <use xlink:href="#DejaVuSans-65" x="56.677734"/>
     <use xlink:href="#DejaVuSans-65" x="118.201172"/>
     <use xlink:href="#DejaVuSans-72" x="179.724609"/>
     <use xlink:href="#DejaVuSans-73" x="220.837891"/>
     <use xlink:href="#DejaVuSans-20" x="272.9375"/>
     <use xlink:href="#DejaVuSans-6f" x="304.724609"/>
     <use xlink:href="#DejaVuSans-76" x="365.90625"/>
     <use xlink:href="#DejaVuSans-65" x="425.085938"/>
     <use xlink:href="#DejaVuSans-72" x="486.609375"/>
     <use xlink:href="#DejaVuSans-20" x="527.722656"/>
     <use xlink:href="#DejaVuSans-74" x="559.509766"/>
     <use xlink:href="#DejaVuSans-69" x="598.71875"/>
     <use xlink:href="#DejaVuSans-6d" x="626.501953"/>
     <use xlink:href="#DejaVuSans-65" x="723.914062"/>
    </g>
   </g>
   <g id="legend_1">
    <g id="patch_7">
     <path d="M 53.965625 74.3525 
L 184.029688 74.3525 
Q 186.029688 74.3525 186.029688 72.3525 
L 186.029688 29.318125 
Q 186.029688 27.318125 184.029688 27.318125 
L 53.965625 27.318125 
Q 51.965625 27.318125 51.965625 29.318125 
L 51.965625 72.3525 
Q 51.965625 74.3525 53.965625 74.3525 
z
" style="fill: #ffffff; opacity: 0.8; stroke: #cccccc; stroke-linejoin: miter"/>
    </g>
    <g id="line2d_38">
     <path d="M 55.965625 35.416562 
L 65.965625 35.416562 
L 75.965625 35.416562 
" style="fill: none; stroke: #1f77b4; stroke-opacity: 0.8; stroke-width: 1.5; stroke-linecap: square"/>
    </g>
    <g id="text_24">
     <!-- eBGP routers -->
     <g transform="translate(83.965625 38.916562) scale(0.1 -0.1)">
      <defs>
       <path id="DejaVuSans-42" d="M 1259 2228 
L 1259 519 
L 2272 519 
Q 2781 519 3026 730 
Q 3272 941 3272 1375 
Q 3272 1813 3026 2020 
Q 2781 2228 2272 2228 
L 1259 2228 
z
M 1259 4147 
L 1259 2741 
L 2194 2741 
Q 2656 2741 2882 2914 
Q 3109 3088 3109 3444 
Q 3109 3797 2882 3972 
Q 2656 4147 2194 4147 
L 1259 4147 
z
M 628 4666 
L 2241 4666 
Q 2963 4666 3353 4366 
Q 3744 4066 3744 3513 
Q 3744 3084 3544 2831 
Q 3344 2578 2956 2516 
Q 3422 2416 3680 2098 
Q 3938 1781 3938 1306 
Q 3938 681 3513 340 
Q 3088 0 2303 0 
L 628 0 
L 628 4666 
z
" transform="scale(0.015625)"/>
       <path id="DejaVuSans-47" d="M 3809 666 
L 3809 1919 
L 2778 1919 
L 2778 2438 
L 4434 2438 
L 4434 434 
Q 4069 175 3628 42 
Q 3188 -91 2688 -91 
Q 1594 -91 976 548 
Q 359 1188 359 2328 
Q 359 3472 976 4111 
Q 1594 4750 2688 4750 
Q 3144 4750 3555 4637 
Q 3966 4525 4313 4306 
L 4313 3634 
Q 3963 3931 3569 4081 
Q 3175 4231 2741 4231 
Q 1884 4231 1454 3753 
Q 1025 3275 1025 2328 
Q 1025 1384 1454 906 
Q 1884 428 2741 428 
Q 3075 428 3337 486 
Q 3600 544 3809 666 
z
" transform="scale(0.015625)"/>
      </defs>
      <use xlink:href="#DejaVuSans-65"/>
      <use xlink:href="#DejaVuSans-42" x="61.523438"/>
      <use xlink:href="#DejaVuSans-47" x="128.376953"/>
      <use xlink:href="#DejaVuSans-50" x="205.867188"/>
      <use xlink:href="#DejaVuSans-20" x="266.169922"/>
      <use xlink:href="#DejaVuSans-72" x="297.957031"/>
      <use xlink:href="#DejaVuSans-6f" x="336.820312"/>
      <use xlink:href="#DejaVuSans-75" x="398.001953"/>
      <use xlink:href="#DejaVuSans-74" x="461.380859"/>
      <use xlink:href="#DejaVuSans-65" x="500.589844"/>
      <use xlink:href="#DejaVuSans-72" x="562.113281"/>
      <use xlink:href="#DejaVuSans-73" x="603.226562"/>
     </g>
    </g>
    <g id="line2d_39">
     <path d="M 55.965625 50.094687 
L 65.965625 50.094687 
L 75.965625 50.094687 
" style="fill: none; stroke: #ff7f0e; stroke-opacity: 0.8; stroke-width: 1.5; stroke-linecap: square"/>
    </g>
    <g id="text_25">
     <!-- total eBGP sessions -->
     <g transform="translate(83.965625 53.594687) scale(0.1 -0.1)">
      <defs>
       <path id="DejaVuSans-6c" d="M 603 4863 
L 1178 4863 
L 1178 0 
L 603 0 
L 603 4863 
z
" transform="scale(0.015625)"/>
      </defs>
      <use xlink:href="#DejaVuSans-74"/>
      <use xlink:href="#DejaVuSans-6f" x="39.208984"/>
      <use xlink:href="#DejaVuSans-74" x="100.390625"/>
      <use xlink:href="#DejaVuSans-61" x="139.599609"/>
      <use xlink:href="#DejaVuSans-6c" x="200.878906"/>
      <use xlink:href="#DejaVuSans-20" x="228.662109"/>
      <use xlink:href="#DejaVuSans-65" x="260.449219"/>
      <use xlink:href="#DejaVuSans-42" x="321.972656"/>
      <use xlink:href="#DejaVuSans-47" x="388.826172"/>
      <use xlink:href="#DejaVuSans-50" x="466.316406"/>
      <use xlink:href="#DejaVuSans-20" x="526.619141"/>
      <use xlink:href="#DejaVuSans-73" x="558.40625"/>
      <use xlink:href="#DejaVuSans-65" x="610.505859"/>
      <use xlink:href="#DejaVuSans-73" x="672.029297"/>
      <use xlink:href="#DejaVuSans-73" x="724.128906"/>
      <use xlink:href="#DejaVuSans-69" x="776.228516"/>
      <use xlink:href="#DejaVuSans-6f" x="804.011719"/>
      <use xlink:href="#DejaVuSans-6e" x="865.193359"/>
      <use xlink:href="#DejaVuSans-73" x="928.572266"/>
     </g>
    </g>
    <g id="line2d_40">
     <path d="M 55.965625 64.772812 
L 65.965625 64.772812 
L 75.965625 64.772812 
" style="fill: none; stroke: #2ca02c; stroke-opacity: 0.8; stroke-width: 1.5; stroke-linecap: square"/>
    </g>
    <g id="text_26">
     <!-- unique eBGP peers -->
     <g transform="translate(83.965625 68.272812) scale(0.1 -0.1)">
      <defs>
       <path id="DejaVuSans-71" d="M 947 1747 
Q 947 1113 1208 752 
Q 1469 391 1925 391 
Q 2381 391 2643 752 
Q 2906 1113 2906 1747 
Q 2906 2381 2643 2742 
Q 2381 3103 1925 3103 
Q 1469 3103 1208 2742 
Q 947 2381 947 1747 
z
M 2906 525 
Q 2725 213 2448 61 
Q 2172 -91 1784 -91 
Q 1150 -91 751 415 
Q 353 922 353 1747 
Q 353 2572 751 3078 
Q 1150 3584 1784 3584 
Q 2172 3584 2448 3432 
Q 2725 3281 2906 2969 
L 2906 3500 
L 3481 3500 
L 3481 -1331 
L 2906 -1331 
L 2906 525 
z
" transform="scale(0.015625)"/>
       <path id="DejaVuSans-70" d="M 1159 525 
L 1159 -1331 
L 581 -1331 
L 581 3500 
L 1159 3500 
L 1159 2969 
Q 1341 3281 1617 3432 
Q 1894 3584 2278 3584 
Q 2916 3584 3314 3078 
Q 3713 2572 3713 1747 
Q 3713 922 3314 415 
Q 2916 -91 2278 -91 
Q 1894 -91 1617 61 
Q 1341 213 1159 525 
z
M 3116 1747 
Q 3116 2381 2855 2742 
Q 2594 3103 2138 3103 
Q 1681 3103 1420 2742 
Q 1159 2381 1159 1747 
Q 1159 1113 1420 752 
Q 1681 391 2138 391 
Q 2594 391 2855 752 
Q 3116 1113 3116 1747 
z
" transform="scale(0.015625)"/>
      </defs>
      <use xlink:href="#DejaVuSans-75"/>
      <use xlink:href="#DejaVuSans-6e" x="63.378906"/>
      <use xlink:href="#DejaVuSans-69" x="126.757812"/>
      <use xlink:href="#DejaVuSans-71" x="154.541016"/>
      <use xlink:href="#DejaVuSans-75" x="218.017578"/>
      <use xlink:href="#DejaVuSans-65" x="281.396484"/>
      <use xlink:href="#DejaVuSans-20" x="342.919922"/>
      <use xlink:href="#DejaVuSans-65" x="374.707031"/>
      <use xlink:href="#DejaVuSans-42" x="436.230469"/>
      <use xlink:href="#DejaVuSans-47" x="503.083984"/>
      <use xlink:href="#DejaVuSans-50" x="580.574219"/>
      <use xlink:href="#DejaVuSans-20" x="640.876953"/>
      <use xlink:href="#DejaVuSans-70" x="672.664062"/>
      <use xlink:href="#DejaVuSans-65" x="736.140625"/>
      <use xlink:href="#DejaVuSans-65" x="797.664062"/>
      <use xlink:href="#DejaVuSans-72" x="859.1875"/>
      <use xlink:href="#DejaVuSans-73" x="900.300781"/>
     </g>
    </g>
   </g>
  </g>
 </g>
 <defs>
  <clipPath id="pebb6d4d2a1">
   <rect x="46.965625" y="22.318125" width="558" height="443.52"/>
  </clipPath>
 </defs>
</svg>
