<?xml version="1.0" encoding="utf-8" standalone="no"?>
<!DOCTYPE svg PUBLIC "-//W3C//DTD SVG 1.1//EN"
  "http://www.w3.org/Graphics/SVG/1.1/DTD/svg11.dtd">
<!-- Created with matplotlib (https://matplotlib.org/) -->
<svg height="471.149158pt" version="1.1" viewBox="0 0 612.165625 471.149158" width="612.165625pt" xmlns="http://www.w3.org/2000/svg" xmlns:xlink="http://www.w3.org/1999/xlink">
 <metadata>
  <rdf:RDF xmlns:cc="http://creativecommons.org/ns#" xmlns:dc="http://purl.org/dc/elements/1.1/" xmlns:rdf="http://www.w3.org/1999/02/22-rdf-syntax-ns#">
   <cc:Work>
    <dc:type rdf:resource="http://purl.org/dc/dcmitype/StillImage"/>
    <dc:date>2021-02-14T01:57:47.608879</dc:date>
    <dc:format>image/svg+xml</dc:format>
    <dc:creator>
     <cc:Agent>
      <dc:title>Matplotlib v3.3.4, https://matplotlib.org/</dc:title>
     </cc:Agent>
    </dc:creator>
   </cc:Work>
  </rdf:RDF>
 </metadata>
 <defs>
  <style type="text/css">*{stroke-linecap:butt;stroke-linejoin:round;}</style>
 </defs>
 <g id="figure_1">
  <g id="patch_1">
   <path d="M 0 471.149158 
L 612.165625 471.149158 
L 612.165625 0 
L 0 0 
z
" style="fill:#ffffff;"/>
  </g>
  <g id="axes_1">
   <g id="patch_2">
    <path d="M 46.965625 413.998125 
L 604.965625 413.998125 
L 604.965625 22.318125 
L 46.965625 22.318125 
z
" style="fill:#ffffff;"/>
   </g>
   <g id="matplotlib.axis_1">
    <g id="xtick_1">
     <g id="line2d_1">
      <path clip-path="url(#p2215e91802)" d="M 77.641757 413.998125 
L 77.641757 22.318125 
" style="fill:none;stroke:#b0b0b0;stroke-linecap:square;stroke-opacity:0.6;stroke-width:0.8;"/>
     </g>
     <g id="line2d_2">
      <defs>
       <path d="M 0 0 
L 0 3.5 
" id="m3f72b7a32d" style="stroke:#000000;stroke-width:0.8;"/>
      </defs>
      <g>
       <use style="stroke:#000000;stroke-width:0.8;" x="77.641757" xlink:href="#m3f72b7a32d" y="413.998125"/>
      </g>
     </g>
     <g id="text_1">
      <text style="font-family:DejaVu Sans;font-size:10px;font-stretch:normal;font-style:normal;font-weight:normal;" transform="translate(40.416937 448.469971)rotate(-30)">2020-05</text>
     </g>
    </g>
    <g id="xtick_2">
     <g id="line2d_3">
      <path clip-path="url(#p2215e91802)" d="M 135.915588 413.998125 
L 135.915588 22.318125 
" style="fill:none;stroke:#b0b0b0;stroke-linecap:square;stroke-opacity:0.6;stroke-width:0.8;"/>
     </g>
     <g id="line2d_4">
      <g>
       <use style="stroke:#000000;stroke-width:0.8;" x="135.915588" xlink:href="#m3f72b7a32d" y="413.998125"/>
      </g>
     </g>
     <g id="text_2">
      <text style="font-family:DejaVu Sans;font-size:10px;font-stretch:normal;font-style:normal;font-weight:normal;" transform="translate(98.690767 448.469971)rotate(-30)">2020-06</text>
     </g>
    </g>
    <g id="xtick_3">
     <g id="line2d_5">
      <path clip-path="url(#p2215e91802)" d="M 196.131879 413.998125 
L 196.131879 22.318125 
" style="fill:none;stroke:#b0b0b0;stroke-linecap:square;stroke-opacity:0.6;stroke-width:0.8;"/>
     </g>
     <g id="line2d_6">
      <g>
       <use style="stroke:#000000;stroke-width:0.8;" x="196.131879" xlink:href="#m3f72b7a32d" y="413.998125"/>
      </g>
     </g>
     <g id="text_3">
      <text style="font-family:DejaVu Sans;font-size:10px;font-stretch:normal;font-style:normal;font-weight:normal;" transform="translate(158.907058 448.469971)rotate(-30)">2020-07</text>
     </g>
    </g>
    <g id="xtick_4">
     <g id="line2d_7">
      <path clip-path="url(#p2215e91802)" d="M 256.348171 413.998125 
L 256.348171 22.318125 
" style="fill:none;stroke:#b0b0b0;stroke-linecap:square;stroke-opacity:0.6;stroke-width:0.8;"/>
     </g>
     <g id="line2d_8">
      <g>
       <use style="stroke:#000000;stroke-width:0.8;" x="256.348171" xlink:href="#m3f72b7a32d" y="413.998125"/>
      </g>
     </g>
     <g id="text_4">
      <text style="font-family:DejaVu Sans;font-size:10px;font-stretch:normal;font-style:normal;font-weight:normal;" transform="translate(219.12335 448.469971)rotate(-30)">2020-08</text>
     </g>
    </g>
    <g id="xtick_5">
     <g id="line2d_9">
      <path clip-path="url(#p2215e91802)" d="M 314.622001 413.998125 
L 314.622001 22.318125 
" style="fill:none;stroke:#b0b0b0;stroke-linecap:square;stroke-opacity:0.6;stroke-width:0.8;"/>
     </g>
     <g id="line2d_10">
      <g>
       <use style="stroke:#000000;stroke-width:0.8;" x="314.622001" xlink:href="#m3f72b7a32d" y="413.998125"/>
      </g>
     </g>
     <g id="text_5">
      <text style="font-family:DejaVu Sans;font-size:10px;font-stretch:normal;font-style:normal;font-weight:normal;" transform="translate(277.39718 448.469971)rotate(-30)">2020-09</text>
     </g>
    </g>
    <g id="xtick_6">
     <g id="line2d_11">
      <path clip-path="url(#p2215e91802)" d="M 374.838293 413.998125 
L 374.838293 22.318125 
" style="fill:none;stroke:#b0b0b0;stroke-linecap:square;stroke-opacity:0.6;stroke-width:0.8;"/>
     </g>
     <g id="line2d_12">
      <g>
       <use style="stroke:#000000;stroke-width:0.8;" x="374.838293" xlink:href="#m3f72b7a32d" y="413.998125"/>
      </g>
     </g>
     <g id="text_6">
      <text style="font-family:DejaVu Sans;font-size:10px;font-stretch:normal;font-style:normal;font-weight:normal;" transform="translate(337.613472 448.469971)rotate(-30)">2020-10</text>
     </g>
    </g>
    <g id="xtick_7">
     <g id="line2d_13">
      <path clip-path="url(#p2215e91802)" d="M 433.112123 413.998125 
L 433.112123 22.318125 
" style="fill:none;stroke:#b0b0b0;stroke-linecap:square;stroke-opacity:0.6;stroke-width:0.8;"/>
     </g>
     <g id="line2d_14">
      <g>
       <use style="stroke:#000000;stroke-width:0.8;" x="433.112123" xlink:href="#m3f72b7a32d" y="413.998125"/>
      </g>
     </g>
     <g id="text_7">
      <text style="font-family:DejaVu Sans;font-size:10px;font-stretch:normal;font-style:normal;font-weight:normal;" transform="translate(395.887302 448.469971)rotate(-30)">2020-11</text>
     </g>
    </g>
    <g id="xtick_8">
     <g id="line2d_15">
      <path clip-path="url(#p2215e91802)" d="M 493.328415 413.998125 
L 493.328415 22.318125 
" style="fill:none;stroke:#b0b0b0;stroke-linecap:square;stroke-opacity:0.6;stroke-width:0.8;"/>
     </g>
     <g id="line2d_16">
      <g>
       <use style="stroke:#000000;stroke-width:0.8;" x="493.328415" xlink:href="#m3f72b7a32d" y="413.998125"/>
      </g>
     </g>
     <g id="text_8">
      <text style="font-family:DejaVu Sans;font-size:10px;font-stretch:normal;font-style:normal;font-weight:normal;" transform="translate(456.103594 448.469971)rotate(-30)">2020-12</text>
     </g>
    </g>
    <g id="xtick_9">
     <g id="line2d_17">
      <path clip-path="url(#p2215e91802)" d="M 553.544706 413.998125 
L 553.544706 22.318125 
" style="fill:none;stroke:#b0b0b0;stroke-linecap:square;stroke-opacity:0.6;stroke-width:0.8;"/>
     </g>
     <g id="line2d_18">
      <g>
       <use style="stroke:#000000;stroke-width:0.8;" x="553.544706" xlink:href="#m3f72b7a32d" y="413.998125"/>
      </g>
     </g>
     <g id="text_9">
      <text style="font-family:DejaVu Sans;font-size:10px;font-stretch:normal;font-style:normal;font-weight:normal;" transform="translate(516.319885 448.469971)rotate(-30)">2021-01</text>
     </g>
    </g>
    <g id="text_10">
     <text style="font-family:DejaVu Sans;font-size:10px;font-stretch:normal;font-style:normal;font-weight:normal;text-anchor:middle;" transform="rotate(-0, 325.965625, 461.869471)" x="325.965625" y="461.869471">Date</text>
    </g>
   </g>
   <g id="matplotlib.axis_2">
    <g id="ytick_1">
     <g id="line2d_19">
      <path clip-path="url(#p2215e91802)" d="M 46.965625 399.585657 
L 604.965625 399.585657 
" style="fill:none;stroke:#b0b0b0;stroke-linecap:square;stroke-opacity:0.6;stroke-width:0.8;"/>
     </g>
     <g id="line2d_20">
      <defs>
       <path d="M 0 0 
L -3.5 0 
" id="m872a10aa75" style="stroke:#000000;stroke-width:0.8;"/>
      </defs>
      <g>
       <use style="stroke:#000000;stroke-width:0.8;" x="46.965625" xlink:href="#m872a10aa75" y="399.585657"/>
      </g>
     </g>
     <g id="text_11">
      <text style="font-family:DejaVu Sans;font-size:10px;font-stretch:normal;font-style:normal;font-weight:normal;text-anchor:end;" transform="rotate(-0, 39.965625, 403.384876)" x="39.965625" y="403.384876">0</text>
     </g>
    </g>
    <g id="ytick_2">
     <g id="line2d_21">
      <path clip-path="url(#p2215e91802)" d="M 46.965625 331.762281 
L 604.965625 331.762281 
" style="fill:none;stroke:#b0b0b0;stroke-linecap:square;stroke-opacity:0.6;stroke-width:0.8;"/>
     </g>
     <g id="line2d_22">
      <g>
       <use style="stroke:#000000;stroke-width:0.8;" x="46.965625" xlink:href="#m872a10aa75" y="331.762281"/>
      </g>
     </g>
     <g id="text_12">
      <text style="font-family:DejaVu Sans;font-size:10px;font-stretch:normal;font-style:normal;font-weight:normal;text-anchor:end;" transform="rotate(-0, 39.965625, 335.5615)" x="39.965625" y="335.5615">20</text>
     </g>
    </g>
    <g id="ytick_3">
     <g id="line2d_23">
      <path clip-path="url(#p2215e91802)" d="M 46.965625 263.938904 
L 604.965625 263.938904 
" style="fill:none;stroke:#b0b0b0;stroke-linecap:square;stroke-opacity:0.6;stroke-width:0.8;"/>
     </g>
     <g id="line2d_24">
      <g>
       <use style="stroke:#000000;stroke-width:0.8;" x="46.965625" xlink:href="#m872a10aa75" y="263.938904"/>
      </g>
     </g>
     <g id="text_13">
      <text style="font-family:DejaVu Sans;font-size:10px;font-stretch:normal;font-style:normal;font-weight:normal;text-anchor:end;" transform="rotate(-0, 39.965625, 267.738123)" x="39.965625" y="267.738123">40</text>
     </g>
    </g>
    <g id="ytick_4">
     <g id="line2d_25">
      <path clip-path="url(#p2215e91802)" d="M 46.965625 196.115528 
L 604.965625 196.115528 
" style="fill:none;stroke:#b0b0b0;stroke-linecap:square;stroke-opacity:0.6;stroke-width:0.8;"/>
     </g>
     <g id="line2d_26">
      <g>
       <use style="stroke:#000000;stroke-width:0.8;" x="46.965625" xlink:href="#m872a10aa75" y="196.115528"/>
      </g>
     </g>
     <g id="text_14">
      <text style="font-family:DejaVu Sans;font-size:10px;font-stretch:normal;font-style:normal;font-weight:normal;text-anchor:end;" transform="rotate(-0, 39.965625, 199.914746)" x="39.965625" y="199.914746">60</text>
     </g>
    </g>
    <g id="ytick_5">
     <g id="line2d_27">
      <path clip-path="url(#p2215e91802)" d="M 46.965625 128.292151 
L 604.965625 128.292151 
" style="fill:none;stroke:#b0b0b0;stroke-linecap:square;stroke-opacity:0.6;stroke-width:0.8;"/>
     </g>
     <g id="line2d_28">
      <g>
       <use style="stroke:#000000;stroke-width:0.8;" x="46.965625" xlink:href="#m872a10aa75" y="128.292151"/>
      </g>
     </g>
     <g id="text_15">
      <text style="font-family:DejaVu Sans;font-size:10px;font-stretch:normal;font-style:normal;font-weight:normal;text-anchor:end;" transform="rotate(-0, 39.965625, 132.09137)" x="39.965625" y="132.09137">80</text>
     </g>
    </g>
    <g id="ytick_6">
     <g id="line2d_29">
      <path clip-path="url(#p2215e91802)" d="M 46.965625 60.468774 
L 604.965625 60.468774 
" style="fill:none;stroke:#b0b0b0;stroke-linecap:square;stroke-opacity:0.6;stroke-width:0.8;"/>
     </g>
     <g id="line2d_30">
      <g>
       <use style="stroke:#000000;stroke-width:0.8;" x="46.965625" xlink:href="#m872a10aa75" y="60.468774"/>
      </g>
     </g>
     <g id="text_16">
      <text style="font-family:DejaVu Sans;font-size:10px;font-stretch:normal;font-style:normal;font-weight:normal;text-anchor:end;" transform="rotate(-0, 39.965625, 64.267993)" x="39.965625" y="64.267993">100</text>
     </g>
    </g>
    <g id="text_17">
     <text style="font-family:DejaVu Sans;font-size:10px;font-stretch:normal;font-style:normal;font-weight:normal;text-anchor:middle;" transform="rotate(-90, 14.798437, 218.158125)" x="14.798437" y="218.158125">Count</text>
    </g>
   </g>
   <g id="line2d_31">
    <path clip-path="url(#p2215e91802)" d="M 579.601989 362.2828 
L 544.534092 362.2828 
L 544.471075 358.891631 
L 532.665948 358.891631 
L 532.617971 362.2828 
L 516.66796 362.2828 
L 515.362352 365.673969 
L 493.928914 365.673969 
L 493.927925 369.065138 
L 486.402282 369.065138 
L 485.89106 372.456307 
L 470.723587 372.456307 
L 470.708636 375.847476 
L 438.992834 375.847476 
L 434.659864 379.238644 
L 241.054528 379.238644 
L 240.960125 382.629813 
L 208.404343 382.629813 
L 208.342338 386.020982 
L 162.543941 386.020982 
L 161.470798 389.412151 
L 111.160383 389.412151 
L 109.262932 392.80332 
L 74.347667 392.80332 
L 72.329261 396.194489 
L 72.329261 396.194489 
" style="fill:none;stroke:#1f77b4;stroke-linecap:square;stroke-opacity:0.8;stroke-width:1.5;"/>
   </g>
   <g id="line2d_32">
    <path clip-path="url(#p2215e91802)" d="M 579.601989 53.686437 
L 579.498346 53.686437 
L 577.53637 57.077606 
L 573.485777 40.121761 
L 562.030698 40.121761 
L 559.49646 43.51293 
L 559.482342 46.904099 
L 552.386221 46.904099 
L 552.375835 50.295268 
L 550.30826 50.295268 
L 549.589212 53.686437 
L 548.39986 53.686437 
L 548.364877 63.859943 
L 546.512008 63.859943 
L 546.509018 67.251112 
L 544.534092 67.251112 
L 544.484901 60.468774 
L 544.471075 63.859943 
L 534.561961 63.859943 
L 532.665948 67.251112 
L 532.617971 70.642281 
L 522.908521 70.642281 
L 518.323796 57.077606 
L 516.66796 67.251112 
L 515.362352 80.815787 
L 504.996737 80.815787 
L 503.731485 84.206956 
L 501.253183 84.206956 
L 501.252554 90.989294 
L 500.00115 90.989294 
L 499.897507 94.380463 
L 496.029245 94.380463 
L 495.907818 101.1628 
L 495.641404 101.1628 
L 495.498732 104.553969 
L 495.498732 104.553969 
L 495.171886 104.553969 
L 495.171482 111.336307 
L 493.928914 114.727476 
L 493.927925 118.118644 
L 489.754286 118.118644 
L 489.732613 121.509813 
L 489.136476 121.509813 
L 489.102955 135.074489 
L 487.564993 135.074489 
L 487.423311 138.465657 
L 487.247342 138.465657 
L 486.402282 141.856826 
L 485.89106 148.639164 
L 485.48049 148.639164 
L 485.417675 152.030333 
L 485.326172 158.81267 
L 483.682657 162.203839 
L 470.723587 162.203839 
L 470.708636 168.986177 
L 456.463337 168.986177 
L 456.370778 175.768515 
L 449.356583 175.768515 
L 449.349006 158.81267 
L 438.992834 158.81267 
L 434.659864 162.203839 
L 421.455019 165.595008 
L 412.087433 165.595008 
L 406.216322 168.986177 
L 400.127696 168.986177 
L 398.726202 172.377346 
L 394.94227 175.768515 
L 394.138149 179.159683 
L 394.136823 185.942021 
L 388.639208 185.942021 
L 384.103832 192.724359 
L 376.4321 192.724359 
L 376.430931 196.115528 
L 357.626267 196.115528 
L 349.134228 199.506696 
L 341.672232 199.506696 
L 341.517285 202.897865 
L 338.479087 206.289034 
L 334.451043 206.289034 
L 333.804905 209.680203 
L 333.803961 202.897865 
L 333.726195 206.289034 
L 332.861485 209.680203 
L 332.85881 216.462541 
L 293.935398 216.462541 
L 293.398636 223.244878 
L 293.397377 226.636047 
L 287.240248 226.636047 
L 273.44538 230.027216 
L 273.456036 233.418385 
L 273.441243 233.418385 
L 254.814526 233.418385 
L 254.232732 240.200722 
L 254.21641 243.591891 
L 243.342787 243.591891 
L 243.342405 246.98306 
L 242.876754 246.98306 
L 242.258966 250.374229 
L 240.960125 270.721242 
L 238.839762 270.721242 
L 236.472276 274.112411 
L 235.000884 274.112411 
L 234.496406 280.894748 
L 231.245662 284.285917 
L 223.392881 284.285917 
L 223.392094 291.068255 
L 215.597744 291.068255 
L 213.30274 294.459424 
L 213.17621 297.850593 
L 211.240224 297.850593 
L 210.042935 304.63293 
L 209.906581 308.024099 
L 208.404343 311.415268 
L 208.342338 314.806437 
L 182.522377 314.806437 
L 182.143597 321.588774 
L 178.495143 321.588774 
L 175.092711 324.979943 
L 171.160149 324.979943 
L 168.645786 328.371112 
L 166.685159 328.371112 
L 165.266016 331.762281 
L 165.021275 335.15345 
L 164.701061 335.15345 
L 164.555849 338.544619 
L 162.543941 341.935787 
L 161.470798 352.109294 
L 135.498094 352.109294 
L 132.272394 355.500463 
L 120.906097 355.500463 
L 120.905715 358.891631 
L 114.292085 358.891631 
L 112.519994 362.2828 
L 111.160383 362.2828 
L 109.262932 369.065138 
L 99.506854 369.065138 
L 98.475484 372.456307 
L 92.626473 372.456307 
L 92.596234 375.847476 
L 91.747509 379.238644 
L 87.962948 379.238644 
L 87.551906 382.629813 
L 77.432223 386.020982 
L 74.347667 386.020982 
L 72.329261 389.412151 
L 72.329261 389.412151 
" style="fill:none;stroke:#ff7f0e;stroke-linecap:square;stroke-opacity:0.8;stroke-width:1.5;"/>
   </g>
   <g id="line2d_33">
    <path clip-path="url(#p2215e91802)" d="M 579.601989 196.115528 
L 579.498346 196.115528 
L 577.53637 199.506696 
L 573.485777 189.33319 
L 562.030698 189.33319 
L 559.482342 192.724359 
L 550.30826 192.724359 
L 549.589212 196.115528 
L 548.39986 196.115528 
L 548.364877 199.506696 
L 546.512008 199.506696 
L 546.509018 202.897865 
L 532.665948 202.897865 
L 532.617971 206.289034 
L 501.253183 206.289034 
L 501.252554 209.680203 
L 495.641404 209.680203 
L 495.498732 213.071372 
L 495.498732 213.071372 
L 495.171482 213.071372 
L 493.927925 216.462541 
L 489.754286 216.462541 
L 489.732613 219.853709 
L 489.136476 219.853709 
L 489.102955 223.244878 
L 487.564993 223.244878 
L 487.423311 226.636047 
L 485.417675 226.636047 
L 485.326172 230.027216 
L 483.682657 233.418385 
L 470.709153 233.418385 
L 470.708636 236.809554 
L 456.463337 236.809554 
L 456.370778 240.200722 
L 449.356583 240.200722 
L 449.349006 230.027216 
L 438.992834 230.027216 
L 434.659864 233.418385 
L 412.087433 233.418385 
L 406.216322 236.809554 
L 400.127696 236.809554 
L 398.726202 240.200722 
L 394.94227 243.591891 
L 394.138149 243.591891 
L 394.136823 250.374229 
L 388.639208 250.374229 
L 384.103832 253.765398 
L 376.4321 253.765398 
L 376.430931 257.156567 
L 357.626267 257.156567 
L 349.134228 260.547735 
L 341.672232 260.547735 
L 341.517285 263.938904 
L 334.451043 263.938904 
L 333.803961 267.330073 
L 333.726195 270.721242 
L 332.861485 274.112411 
L 332.85881 280.894748 
L 293.398636 280.894748 
L 293.397377 284.285917 
L 287.240248 284.285917 
L 273.441243 287.677086 
L 254.814526 287.677086 
L 254.232732 291.068255 
L 254.21641 294.459424 
L 243.342787 294.459424 
L 243.342405 297.850593 
L 242.876754 297.850593 
L 242.258966 301.241761 
L 241.054528 304.63293 
L 238.839762 304.63293 
L 236.472276 308.024099 
L 235.000884 308.024099 
L 234.496406 311.415268 
L 231.245662 314.806437 
L 223.392881 314.806437 
L 223.392094 318.197606 
L 215.597744 318.197606 
L 213.30274 321.588774 
L 213.17621 324.979943 
L 211.240224 324.979943 
L 210.042935 328.371112 
L 209.906581 331.762281 
L 208.404343 335.15345 
L 208.342338 338.544619 
L 182.326849 338.544619 
L 182.143597 341.935787 
L 178.495143 341.935787 
L 175.092711 345.326956 
L 171.160149 345.326956 
L 168.645786 348.718125 
L 165.266016 348.718125 
L 165.021275 352.109294 
L 164.701061 352.109294 
L 164.555849 355.500463 
L 162.543941 355.500463 
L 161.470798 358.891631 
L 135.498094 358.891631 
L 132.272394 362.2828 
L 120.906097 362.2828 
L 120.905715 365.673969 
L 114.292085 365.673969 
L 112.519994 369.065138 
L 111.160383 369.065138 
L 109.262932 372.456307 
L 99.506854 372.456307 
L 98.475484 375.847476 
L 92.596234 375.847476 
L 91.747509 379.238644 
L 87.962948 379.238644 
L 87.551906 382.629813 
L 77.432223 386.020982 
L 74.347667 386.020982 
L 72.329261 389.412151 
L 72.329261 389.412151 
" style="fill:none;stroke:#2ca02c;stroke-linecap:square;stroke-opacity:0.8;stroke-width:1.5;"/>
   </g>
   <g id="patch_3">
    <path d="M 46.965625 413.998125 
L 46.965625 22.318125 
" style="fill:none;stroke:#000000;stroke-linecap:square;stroke-linejoin:miter;stroke-width:0.8;"/>
   </g>
   <g id="patch_4">
    <path d="M 604.965625 413.998125 
L 604.965625 22.318125 
" style="fill:none;stroke:#000000;stroke-linecap:square;stroke-linejoin:miter;stroke-width:0.8;"/>
   </g>
   <g id="patch_5">
    <path d="M 46.965625 413.998125 
L 604.965625 413.998125 
" style="fill:none;stroke:#000000;stroke-linecap:square;stroke-linejoin:miter;stroke-width:0.8;"/>
   </g>
   <g id="patch_6">
    <path d="M 46.965625 22.318125 
L 604.965625 22.318125 
" style="fill:none;stroke:#000000;stroke-linecap:square;stroke-linejoin:miter;stroke-width:0.8;"/>
   </g>
   <g id="text_18">
    <text style="font-family:DejaVu Sans;font-size:10px;font-stretch:normal;font-style:normal;font-weight:normal;text-anchor:start;" transform="rotate(-0, 579.601989, 362.2828)" x="579.601989" y="362.2828">11</text>
   </g>
   <g id="text_19">
    <text style="font-family:DejaVu Sans;font-size:10px;font-stretch:normal;font-style:normal;font-weight:normal;text-anchor:start;" transform="rotate(-0, 579.601989, 53.686437)" x="579.601989" y="53.686437">102</text>
   </g>
   <g id="text_20">
    <text style="font-family:DejaVu Sans;font-size:10px;font-stretch:normal;font-style:normal;font-weight:normal;text-anchor:start;" transform="rotate(-0, 579.601989, 196.115528)" x="579.601989" y="196.115528">60</text>
   </g>
   <g id="text_21">
    <text style="font-family:DejaVu Sans;font-size:12px;font-stretch:normal;font-style:normal;font-weight:normal;text-anchor:middle;" transform="rotate(-0, 325.965625, 16.318125)" x="325.965625" y="16.318125">Peers over time</text>
   </g>
   <g id="legend_1">
    <g id="patch_7">
     <path d="M 53.965625 74.3525 
L 185.24375 74.3525 
Q 187.24375 74.3525 187.24375 72.3525 
L 187.24375 29.318125 
Q 187.24375 27.318125 185.24375 27.318125 
L 53.965625 27.318125 
Q 51.965625 27.318125 51.965625 29.318125 
L 51.965625 72.3525 
Q 51.965625 74.3525 53.965625 74.3525 
z
" style="fill:#ffffff;opacity:0.8;stroke:#cccccc;stroke-linejoin:miter;"/>
    </g>
    <g id="line2d_34">
     <path d="M 55.965625 35.416562 
L 75.965625 35.416562 
" style="fill:none;stroke:#1f77b4;stroke-linecap:square;stroke-opacity:0.8;stroke-width:1.5;"/>
    </g>
    <g id="line2d_35"/>
    <g id="text_22">
     <text style="font-family:DejaVu Sans;font-size:10px;font-stretch:normal;font-style:normal;font-weight:normal;text-anchor:start;" transform="rotate(-0, 83.965625, 38.916562)" x="83.965625" y="38.916562">eBGP routers</text>
    </g>
    <g id="line2d_36">
     <path d="M 55.965625 50.094687 
L 75.965625 50.094687 
" style="fill:none;stroke:#ff7f0e;stroke-linecap:square;stroke-opacity:0.8;stroke-width:1.5;"/>
    </g>
    <g id="line2d_37"/>
    <g id="text_23">
     <text style="font-family:DejaVu Sans;font-size:10px;font-stretch:normal;font-style:normal;font-weight:normal;text-anchor:start;" transform="rotate(-0, 83.965625, 53.594687)" x="83.965625" y="53.594687">total eBGP peerings</text>
    </g>
    <g id="line2d_38">
     <path d="M 55.965625 64.772812 
L 75.965625 64.772812 
" style="fill:none;stroke:#2ca02c;stroke-linecap:square;stroke-opacity:0.8;stroke-width:1.5;"/>
    </g>
    <g id="line2d_39"/>
    <g id="text_24">
     <text style="font-family:DejaVu Sans;font-size:10px;font-stretch:normal;font-style:normal;font-weight:normal;text-anchor:start;" transform="rotate(-0, 83.965625, 68.272812)" x="83.965625" y="68.272812">unique eBGP peers</text>
    </g>
   </g>
  </g>
 </g>
 <defs>
  <clipPath id="p2215e91802">
   <rect height="391.68" width="558" x="46.965625" y="22.318125"/>
  </clipPath>
 </defs>
</svg>
