<?xml version="1.0" encoding="utf-8" standalone="no"?>
<!DOCTYPE svg PUBLIC "-//W3C//DTD SVG 1.1//EN"
  "http://www.w3.org/Graphics/SVG/1.1/DTD/svg11.dtd">
<svg xmlns:xlink="http://www.w3.org/1999/xlink" width="612.165625pt" height="471.149158pt" viewBox="0 0 612.165625 471.149158" xmlns="http://www.w3.org/2000/svg" version="1.1">
 <metadata>
  <rdf:RDF xmlns:dc="http://purl.org/dc/elements/1.1/" xmlns:cc="http://creativecommons.org/ns#" xmlns:rdf="http://www.w3.org/1999/02/22-rdf-syntax-ns#">
   <cc:Work>
    <dc:type rdf:resource="http://purl.org/dc/dcmitype/StillImage"/>
    <dc:format>image/svg+xml</dc:format>
    <dc:creator>
     <cc:Agent>
      <dc:title>Matplotlib v3.5.1, https://matplotlib.org/</dc:title>
     </cc:Agent>
    </dc:creator>
   </cc:Work>
  </rdf:RDF>
 </metadata>
 <defs>
  <style type="text/css">*{stroke-linejoin: round; stroke-linecap: butt}</style>
 </defs>
 <g id="figure_1">
  <g id="patch_1">
   <path d="M 0 471.149158 
L 612.165625 471.149158 
L 612.165625 0 
L 0 0 
z
" style="fill: #ffffff"/>
  </g>
  <g id="axes_1">
   <g id="patch_2">
    <path d="M 46.965625 413.998125 
L 604.965625 413.998125 
L 604.965625 22.318125 
L 46.965625 22.318125 
z
" style="fill: #ffffff"/>
   </g>
   <g id="matplotlib.axis_1">
    <g id="xtick_1">
     <g id="line2d_1">
      <path d="M 51.424181 413.998125 
L 51.424181 22.318125 
" clip-path="url(#p171975126e)" style="fill: none; stroke: #b0b0b0; stroke-opacity: 0.6; stroke-width: 0.8; stroke-linecap: square"/>
     </g>
     <g id="line2d_2">
      <defs>
       <path id="m4989ca4dfe" d="M 0 0 
L 0 3.5 
" style="stroke: #000000; stroke-width: 0.8"/>
      </defs>
      <g>
       <use xlink:href="#m4989ca4dfe" x="51.424181" y="413.998125" style="stroke: #000000; stroke-width: 0.8"/>
      </g>
     </g>
     <g id="text_1">
      <!-- 2020-04 -->
      <g transform="translate(14.19936 448.469971)rotate(-30)scale(0.1 -0.1)">
       <defs>
        <path id="DejaVuSans-32" d="M 1228 531 
L 3431 531 
L 3431 0 
L 469 0 
L 469 531 
Q 828 903 1448 1529 
Q 2069 2156 2228 2338 
Q 2531 2678 2651 2914 
Q 2772 3150 2772 3378 
Q 2772 3750 2511 3984 
Q 2250 4219 1831 4219 
Q 1534 4219 1204 4116 
Q 875 4013 500 3803 
L 500 4441 
Q 881 4594 1212 4672 
Q 1544 4750 1819 4750 
Q 2544 4750 2975 4387 
Q 3406 4025 3406 3419 
Q 3406 3131 3298 2873 
Q 3191 2616 2906 2266 
Q 2828 2175 2409 1742 
Q 1991 1309 1228 531 
z
" transform="scale(0.015625)"/>
        <path id="DejaVuSans-30" d="M 2034 4250 
Q 1547 4250 1301 3770 
Q 1056 3291 1056 2328 
Q 1056 1369 1301 889 
Q 1547 409 2034 409 
Q 2525 409 2770 889 
Q 3016 1369 3016 2328 
Q 3016 3291 2770 3770 
Q 2525 4250 2034 4250 
z
M 2034 4750 
Q 2819 4750 3233 4129 
Q 3647 3509 3647 2328 
Q 3647 1150 3233 529 
Q 2819 -91 2034 -91 
Q 1250 -91 836 529 
Q 422 1150 422 2328 
Q 422 3509 836 4129 
Q 1250 4750 2034 4750 
z
" transform="scale(0.015625)"/>
        <path id="DejaVuSans-2d" d="M 313 2009 
L 1997 2009 
L 1997 1497 
L 313 1497 
L 313 2009 
z
" transform="scale(0.015625)"/>
        <path id="DejaVuSans-34" d="M 2419 4116 
L 825 1625 
L 2419 1625 
L 2419 4116 
z
M 2253 4666 
L 3047 4666 
L 3047 1625 
L 3713 1625 
L 3713 1100 
L 3047 1100 
L 3047 0 
L 2419 0 
L 2419 1100 
L 313 1100 
L 313 1709 
L 2253 4666 
z
" transform="scale(0.015625)"/>
       </defs>
       <use xlink:href="#DejaVuSans-32"/>
       <use xlink:href="#DejaVuSans-30" x="63.623047"/>
       <use xlink:href="#DejaVuSans-32" x="127.246094"/>
       <use xlink:href="#DejaVuSans-30" x="190.869141"/>
       <use xlink:href="#DejaVuSans-2d" x="254.492188"/>
       <use xlink:href="#DejaVuSans-30" x="290.576172"/>
       <use xlink:href="#DejaVuSans-34" x="354.199219"/>
      </g>
     </g>
    </g>
    <g id="xtick_2">
     <g id="line2d_3">
      <path d="M 74.352039 413.998125 
L 74.352039 22.318125 
" clip-path="url(#p171975126e)" style="fill: none; stroke: #b0b0b0; stroke-opacity: 0.6; stroke-width: 0.8; stroke-linecap: square"/>
     </g>
     <g id="line2d_4">
      <g>
       <use xlink:href="#m4989ca4dfe" x="74.352039" y="413.998125" style="stroke: #000000; stroke-width: 0.8"/>
      </g>
     </g>
     <g id="text_2">
      <!-- 2020-05 -->
      <g transform="translate(37.127218 448.469971)rotate(-30)scale(0.1 -0.1)">
       <defs>
        <path id="DejaVuSans-35" d="M 691 4666 
L 3169 4666 
L 3169 4134 
L 1269 4134 
L 1269 2991 
Q 1406 3038 1543 3061 
Q 1681 3084 1819 3084 
Q 2600 3084 3056 2656 
Q 3513 2228 3513 1497 
Q 3513 744 3044 326 
Q 2575 -91 1722 -91 
Q 1428 -91 1123 -41 
Q 819 9 494 109 
L 494 744 
Q 775 591 1075 516 
Q 1375 441 1709 441 
Q 2250 441 2565 725 
Q 2881 1009 2881 1497 
Q 2881 1984 2565 2268 
Q 2250 2553 1709 2553 
Q 1456 2553 1204 2497 
Q 953 2441 691 2322 
L 691 4666 
z
" transform="scale(0.015625)"/>
       </defs>
       <use xlink:href="#DejaVuSans-32"/>
       <use xlink:href="#DejaVuSans-30" x="63.623047"/>
       <use xlink:href="#DejaVuSans-32" x="127.246094"/>
       <use xlink:href="#DejaVuSans-30" x="190.869141"/>
       <use xlink:href="#DejaVuSans-2d" x="254.492188"/>
       <use xlink:href="#DejaVuSans-30" x="290.576172"/>
       <use xlink:href="#DejaVuSans-35" x="354.199219"/>
      </g>
     </g>
    </g>
    <g id="xtick_3">
     <g id="line2d_5">
      <path d="M 96.540288 413.998125 
L 96.540288 22.318125 
" clip-path="url(#p171975126e)" style="fill: none; stroke: #b0b0b0; stroke-opacity: 0.6; stroke-width: 0.8; stroke-linecap: square"/>
     </g>
     <g id="line2d_6">
      <g>
       <use xlink:href="#m4989ca4dfe" x="96.540288" y="413.998125" style="stroke: #000000; stroke-width: 0.8"/>
      </g>
     </g>
     <g id="text_3">
      <!-- 2020-06 -->
      <g transform="translate(59.315468 448.469971)rotate(-30)scale(0.1 -0.1)">
       <defs>
        <path id="DejaVuSans-36" d="M 2113 2584 
Q 1688 2584 1439 2293 
Q 1191 2003 1191 1497 
Q 1191 994 1439 701 
Q 1688 409 2113 409 
Q 2538 409 2786 701 
Q 3034 994 3034 1497 
Q 3034 2003 2786 2293 
Q 2538 2584 2113 2584 
z
M 3366 4563 
L 3366 3988 
Q 3128 4100 2886 4159 
Q 2644 4219 2406 4219 
Q 1781 4219 1451 3797 
Q 1122 3375 1075 2522 
Q 1259 2794 1537 2939 
Q 1816 3084 2150 3084 
Q 2853 3084 3261 2657 
Q 3669 2231 3669 1497 
Q 3669 778 3244 343 
Q 2819 -91 2113 -91 
Q 1303 -91 875 529 
Q 447 1150 447 2328 
Q 447 3434 972 4092 
Q 1497 4750 2381 4750 
Q 2619 4750 2861 4703 
Q 3103 4656 3366 4563 
z
" transform="scale(0.015625)"/>
       </defs>
       <use xlink:href="#DejaVuSans-32"/>
       <use xlink:href="#DejaVuSans-30" x="63.623047"/>
       <use xlink:href="#DejaVuSans-32" x="127.246094"/>
       <use xlink:href="#DejaVuSans-30" x="190.869141"/>
       <use xlink:href="#DejaVuSans-2d" x="254.492188"/>
       <use xlink:href="#DejaVuSans-30" x="290.576172"/>
       <use xlink:href="#DejaVuSans-36" x="354.199219"/>
      </g>
     </g>
    </g>
    <g id="xtick_4">
     <g id="line2d_7">
      <path d="M 119.468146 413.998125 
L 119.468146 22.318125 
" clip-path="url(#p171975126e)" style="fill: none; stroke: #b0b0b0; stroke-opacity: 0.6; stroke-width: 0.8; stroke-linecap: square"/>
     </g>
     <g id="line2d_8">
      <g>
       <use xlink:href="#m4989ca4dfe" x="119.468146" y="413.998125" style="stroke: #000000; stroke-width: 0.8"/>
      </g>
     </g>
     <g id="text_4">
      <!-- 2020-07 -->
      <g transform="translate(82.243325 448.469971)rotate(-30)scale(0.1 -0.1)">
       <defs>
        <path id="DejaVuSans-37" d="M 525 4666 
L 3525 4666 
L 3525 4397 
L 1831 0 
L 1172 0 
L 2766 4134 
L 525 4134 
L 525 4666 
z
" transform="scale(0.015625)"/>
       </defs>
       <use xlink:href="#DejaVuSans-32"/>
       <use xlink:href="#DejaVuSans-30" x="63.623047"/>
       <use xlink:href="#DejaVuSans-32" x="127.246094"/>
       <use xlink:href="#DejaVuSans-30" x="190.869141"/>
       <use xlink:href="#DejaVuSans-2d" x="254.492188"/>
       <use xlink:href="#DejaVuSans-30" x="290.576172"/>
       <use xlink:href="#DejaVuSans-37" x="354.199219"/>
      </g>
     </g>
    </g>
    <g id="xtick_5">
     <g id="line2d_9">
      <path d="M 142.396004 413.998125 
L 142.396004 22.318125 
" clip-path="url(#p171975126e)" style="fill: none; stroke: #b0b0b0; stroke-opacity: 0.6; stroke-width: 0.8; stroke-linecap: square"/>
     </g>
     <g id="line2d_10">
      <g>
       <use xlink:href="#m4989ca4dfe" x="142.396004" y="413.998125" style="stroke: #000000; stroke-width: 0.8"/>
      </g>
     </g>
     <g id="text_5">
      <!-- 2020-08 -->
      <g transform="translate(105.171183 448.469971)rotate(-30)scale(0.1 -0.1)">
       <defs>
        <path id="DejaVuSans-38" d="M 2034 2216 
Q 1584 2216 1326 1975 
Q 1069 1734 1069 1313 
Q 1069 891 1326 650 
Q 1584 409 2034 409 
Q 2484 409 2743 651 
Q 3003 894 3003 1313 
Q 3003 1734 2745 1975 
Q 2488 2216 2034 2216 
z
M 1403 2484 
Q 997 2584 770 2862 
Q 544 3141 544 3541 
Q 544 4100 942 4425 
Q 1341 4750 2034 4750 
Q 2731 4750 3128 4425 
Q 3525 4100 3525 3541 
Q 3525 3141 3298 2862 
Q 3072 2584 2669 2484 
Q 3125 2378 3379 2068 
Q 3634 1759 3634 1313 
Q 3634 634 3220 271 
Q 2806 -91 2034 -91 
Q 1263 -91 848 271 
Q 434 634 434 1313 
Q 434 1759 690 2068 
Q 947 2378 1403 2484 
z
M 1172 3481 
Q 1172 3119 1398 2916 
Q 1625 2713 2034 2713 
Q 2441 2713 2670 2916 
Q 2900 3119 2900 3481 
Q 2900 3844 2670 4047 
Q 2441 4250 2034 4250 
Q 1625 4250 1398 4047 
Q 1172 3844 1172 3481 
z
" transform="scale(0.015625)"/>
       </defs>
       <use xlink:href="#DejaVuSans-32"/>
       <use xlink:href="#DejaVuSans-30" x="63.623047"/>
       <use xlink:href="#DejaVuSans-32" x="127.246094"/>
       <use xlink:href="#DejaVuSans-30" x="190.869141"/>
       <use xlink:href="#DejaVuSans-2d" x="254.492188"/>
       <use xlink:href="#DejaVuSans-30" x="290.576172"/>
       <use xlink:href="#DejaVuSans-38" x="354.199219"/>
      </g>
     </g>
    </g>
    <g id="xtick_6">
     <g id="line2d_11">
      <path d="M 164.584254 413.998125 
L 164.584254 22.318125 
" clip-path="url(#p171975126e)" style="fill: none; stroke: #b0b0b0; stroke-opacity: 0.6; stroke-width: 0.8; stroke-linecap: square"/>
     </g>
     <g id="line2d_12">
      <g>
       <use xlink:href="#m4989ca4dfe" x="164.584254" y="413.998125" style="stroke: #000000; stroke-width: 0.8"/>
      </g>
     </g>
     <g id="text_6">
      <!-- 2020-09 -->
      <g transform="translate(127.359433 448.469971)rotate(-30)scale(0.1 -0.1)">
       <defs>
        <path id="DejaVuSans-39" d="M 703 97 
L 703 672 
Q 941 559 1184 500 
Q 1428 441 1663 441 
Q 2288 441 2617 861 
Q 2947 1281 2994 2138 
Q 2813 1869 2534 1725 
Q 2256 1581 1919 1581 
Q 1219 1581 811 2004 
Q 403 2428 403 3163 
Q 403 3881 828 4315 
Q 1253 4750 1959 4750 
Q 2769 4750 3195 4129 
Q 3622 3509 3622 2328 
Q 3622 1225 3098 567 
Q 2575 -91 1691 -91 
Q 1453 -91 1209 -44 
Q 966 3 703 97 
z
M 1959 2075 
Q 2384 2075 2632 2365 
Q 2881 2656 2881 3163 
Q 2881 3666 2632 3958 
Q 2384 4250 1959 4250 
Q 1534 4250 1286 3958 
Q 1038 3666 1038 3163 
Q 1038 2656 1286 2365 
Q 1534 2075 1959 2075 
z
" transform="scale(0.015625)"/>
       </defs>
       <use xlink:href="#DejaVuSans-32"/>
       <use xlink:href="#DejaVuSans-30" x="63.623047"/>
       <use xlink:href="#DejaVuSans-32" x="127.246094"/>
       <use xlink:href="#DejaVuSans-30" x="190.869141"/>
       <use xlink:href="#DejaVuSans-2d" x="254.492188"/>
       <use xlink:href="#DejaVuSans-30" x="290.576172"/>
       <use xlink:href="#DejaVuSans-39" x="354.199219"/>
      </g>
     </g>
    </g>
    <g id="xtick_7">
     <g id="line2d_13">
      <path d="M 187.512112 413.998125 
L 187.512112 22.318125 
" clip-path="url(#p171975126e)" style="fill: none; stroke: #b0b0b0; stroke-opacity: 0.6; stroke-width: 0.8; stroke-linecap: square"/>
     </g>
     <g id="line2d_14">
      <g>
       <use xlink:href="#m4989ca4dfe" x="187.512112" y="413.998125" style="stroke: #000000; stroke-width: 0.8"/>
      </g>
     </g>
     <g id="text_7">
      <!-- 2020-10 -->
      <g transform="translate(150.287291 448.469971)rotate(-30)scale(0.1 -0.1)">
       <defs>
        <path id="DejaVuSans-31" d="M 794 531 
L 1825 531 
L 1825 4091 
L 703 3866 
L 703 4441 
L 1819 4666 
L 2450 4666 
L 2450 531 
L 3481 531 
L 3481 0 
L 794 0 
L 794 531 
z
" transform="scale(0.015625)"/>
       </defs>
       <use xlink:href="#DejaVuSans-32"/>
       <use xlink:href="#DejaVuSans-30" x="63.623047"/>
       <use xlink:href="#DejaVuSans-32" x="127.246094"/>
       <use xlink:href="#DejaVuSans-30" x="190.869141"/>
       <use xlink:href="#DejaVuSans-2d" x="254.492188"/>
       <use xlink:href="#DejaVuSans-31" x="290.576172"/>
       <use xlink:href="#DejaVuSans-30" x="354.199219"/>
      </g>
     </g>
    </g>
    <g id="xtick_8">
     <g id="line2d_15">
      <path d="M 209.700361 413.998125 
L 209.700361 22.318125 
" clip-path="url(#p171975126e)" style="fill: none; stroke: #b0b0b0; stroke-opacity: 0.6; stroke-width: 0.8; stroke-linecap: square"/>
     </g>
     <g id="line2d_16">
      <g>
       <use xlink:href="#m4989ca4dfe" x="209.700361" y="413.998125" style="stroke: #000000; stroke-width: 0.8"/>
      </g>
     </g>
     <g id="text_8">
      <!-- 2020-11 -->
      <g transform="translate(172.47554 448.469971)rotate(-30)scale(0.1 -0.1)">
       <use xlink:href="#DejaVuSans-32"/>
       <use xlink:href="#DejaVuSans-30" x="63.623047"/>
       <use xlink:href="#DejaVuSans-32" x="127.246094"/>
       <use xlink:href="#DejaVuSans-30" x="190.869141"/>
       <use xlink:href="#DejaVuSans-2d" x="254.492188"/>
       <use xlink:href="#DejaVuSans-31" x="290.576172"/>
       <use xlink:href="#DejaVuSans-31" x="354.199219"/>
      </g>
     </g>
    </g>
    <g id="xtick_9">
     <g id="line2d_17">
      <path d="M 232.628219 413.998125 
L 232.628219 22.318125 
" clip-path="url(#p171975126e)" style="fill: none; stroke: #b0b0b0; stroke-opacity: 0.6; stroke-width: 0.8; stroke-linecap: square"/>
     </g>
     <g id="line2d_18">
      <g>
       <use xlink:href="#m4989ca4dfe" x="232.628219" y="413.998125" style="stroke: #000000; stroke-width: 0.8"/>
      </g>
     </g>
     <g id="text_9">
      <!-- 2020-12 -->
      <g transform="translate(195.403398 448.469971)rotate(-30)scale(0.1 -0.1)">
       <use xlink:href="#DejaVuSans-32"/>
       <use xlink:href="#DejaVuSans-30" x="63.623047"/>
       <use xlink:href="#DejaVuSans-32" x="127.246094"/>
       <use xlink:href="#DejaVuSans-30" x="190.869141"/>
       <use xlink:href="#DejaVuSans-2d" x="254.492188"/>
       <use xlink:href="#DejaVuSans-31" x="290.576172"/>
       <use xlink:href="#DejaVuSans-32" x="354.199219"/>
      </g>
     </g>
    </g>
    <g id="xtick_10">
     <g id="line2d_19">
      <path d="M 255.556077 413.998125 
L 255.556077 22.318125 
" clip-path="url(#p171975126e)" style="fill: none; stroke: #b0b0b0; stroke-opacity: 0.6; stroke-width: 0.8; stroke-linecap: square"/>
     </g>
     <g id="line2d_20">
      <g>
       <use xlink:href="#m4989ca4dfe" x="255.556077" y="413.998125" style="stroke: #000000; stroke-width: 0.8"/>
      </g>
     </g>
     <g id="text_10">
      <!-- 2021-01 -->
      <g transform="translate(218.331256 448.469971)rotate(-30)scale(0.1 -0.1)">
       <use xlink:href="#DejaVuSans-32"/>
       <use xlink:href="#DejaVuSans-30" x="63.623047"/>
       <use xlink:href="#DejaVuSans-32" x="127.246094"/>
       <use xlink:href="#DejaVuSans-31" x="190.869141"/>
       <use xlink:href="#DejaVuSans-2d" x="254.492188"/>
       <use xlink:href="#DejaVuSans-30" x="290.576172"/>
       <use xlink:href="#DejaVuSans-31" x="354.199219"/>
      </g>
     </g>
    </g>
    <g id="xtick_11">
     <g id="line2d_21">
      <path d="M 276.26511 413.998125 
L 276.26511 22.318125 
" clip-path="url(#p171975126e)" style="fill: none; stroke: #b0b0b0; stroke-opacity: 0.6; stroke-width: 0.8; stroke-linecap: square"/>
     </g>
     <g id="line2d_22">
      <g>
       <use xlink:href="#m4989ca4dfe" x="276.26511" y="413.998125" style="stroke: #000000; stroke-width: 0.8"/>
      </g>
     </g>
     <g id="text_11">
      <!-- 2021-02 -->
      <g transform="translate(239.040289 448.469971)rotate(-30)scale(0.1 -0.1)">
       <use xlink:href="#DejaVuSans-32"/>
       <use xlink:href="#DejaVuSans-30" x="63.623047"/>
       <use xlink:href="#DejaVuSans-32" x="127.246094"/>
       <use xlink:href="#DejaVuSans-31" x="190.869141"/>
       <use xlink:href="#DejaVuSans-2d" x="254.492188"/>
       <use xlink:href="#DejaVuSans-30" x="290.576172"/>
       <use xlink:href="#DejaVuSans-32" x="354.199219"/>
      </g>
     </g>
    </g>
    <g id="xtick_12">
     <g id="line2d_23">
      <path d="M 299.192968 413.998125 
L 299.192968 22.318125 
" clip-path="url(#p171975126e)" style="fill: none; stroke: #b0b0b0; stroke-opacity: 0.6; stroke-width: 0.8; stroke-linecap: square"/>
     </g>
     <g id="line2d_24">
      <g>
       <use xlink:href="#m4989ca4dfe" x="299.192968" y="413.998125" style="stroke: #000000; stroke-width: 0.8"/>
      </g>
     </g>
     <g id="text_12">
      <!-- 2021-03 -->
      <g transform="translate(261.968147 448.469971)rotate(-30)scale(0.1 -0.1)">
       <defs>
        <path id="DejaVuSans-33" d="M 2597 2516 
Q 3050 2419 3304 2112 
Q 3559 1806 3559 1356 
Q 3559 666 3084 287 
Q 2609 -91 1734 -91 
Q 1441 -91 1130 -33 
Q 819 25 488 141 
L 488 750 
Q 750 597 1062 519 
Q 1375 441 1716 441 
Q 2309 441 2620 675 
Q 2931 909 2931 1356 
Q 2931 1769 2642 2001 
Q 2353 2234 1838 2234 
L 1294 2234 
L 1294 2753 
L 1863 2753 
Q 2328 2753 2575 2939 
Q 2822 3125 2822 3475 
Q 2822 3834 2567 4026 
Q 2313 4219 1838 4219 
Q 1578 4219 1281 4162 
Q 984 4106 628 3988 
L 628 4550 
Q 988 4650 1302 4700 
Q 1616 4750 1894 4750 
Q 2613 4750 3031 4423 
Q 3450 4097 3450 3541 
Q 3450 3153 3228 2886 
Q 3006 2619 2597 2516 
z
" transform="scale(0.015625)"/>
       </defs>
       <use xlink:href="#DejaVuSans-32"/>
       <use xlink:href="#DejaVuSans-30" x="63.623047"/>
       <use xlink:href="#DejaVuSans-32" x="127.246094"/>
       <use xlink:href="#DejaVuSans-31" x="190.869141"/>
       <use xlink:href="#DejaVuSans-2d" x="254.492188"/>
       <use xlink:href="#DejaVuSans-30" x="290.576172"/>
       <use xlink:href="#DejaVuSans-33" x="354.199219"/>
      </g>
     </g>
    </g>
    <g id="xtick_13">
     <g id="line2d_25">
      <path d="M 321.381218 413.998125 
L 321.381218 22.318125 
" clip-path="url(#p171975126e)" style="fill: none; stroke: #b0b0b0; stroke-opacity: 0.6; stroke-width: 0.8; stroke-linecap: square"/>
     </g>
     <g id="line2d_26">
      <g>
       <use xlink:href="#m4989ca4dfe" x="321.381218" y="413.998125" style="stroke: #000000; stroke-width: 0.8"/>
      </g>
     </g>
     <g id="text_13">
      <!-- 2021-04 -->
      <g transform="translate(284.156397 448.469971)rotate(-30)scale(0.1 -0.1)">
       <use xlink:href="#DejaVuSans-32"/>
       <use xlink:href="#DejaVuSans-30" x="63.623047"/>
       <use xlink:href="#DejaVuSans-32" x="127.246094"/>
       <use xlink:href="#DejaVuSans-31" x="190.869141"/>
       <use xlink:href="#DejaVuSans-2d" x="254.492188"/>
       <use xlink:href="#DejaVuSans-30" x="290.576172"/>
       <use xlink:href="#DejaVuSans-34" x="354.199219"/>
      </g>
     </g>
    </g>
    <g id="xtick_14">
     <g id="line2d_27">
      <path d="M 344.309076 413.998125 
L 344.309076 22.318125 
" clip-path="url(#p171975126e)" style="fill: none; stroke: #b0b0b0; stroke-opacity: 0.6; stroke-width: 0.8; stroke-linecap: square"/>
     </g>
     <g id="line2d_28">
      <g>
       <use xlink:href="#m4989ca4dfe" x="344.309076" y="413.998125" style="stroke: #000000; stroke-width: 0.8"/>
      </g>
     </g>
     <g id="text_14">
      <!-- 2021-05 -->
      <g transform="translate(307.084255 448.469971)rotate(-30)scale(0.1 -0.1)">
       <use xlink:href="#DejaVuSans-32"/>
       <use xlink:href="#DejaVuSans-30" x="63.623047"/>
       <use xlink:href="#DejaVuSans-32" x="127.246094"/>
       <use xlink:href="#DejaVuSans-31" x="190.869141"/>
       <use xlink:href="#DejaVuSans-2d" x="254.492188"/>
       <use xlink:href="#DejaVuSans-30" x="290.576172"/>
       <use xlink:href="#DejaVuSans-35" x="354.199219"/>
      </g>
     </g>
    </g>
    <g id="xtick_15">
     <g id="line2d_29">
      <path d="M 366.497325 413.998125 
L 366.497325 22.318125 
" clip-path="url(#p171975126e)" style="fill: none; stroke: #b0b0b0; stroke-opacity: 0.6; stroke-width: 0.8; stroke-linecap: square"/>
     </g>
     <g id="line2d_30">
      <g>
       <use xlink:href="#m4989ca4dfe" x="366.497325" y="413.998125" style="stroke: #000000; stroke-width: 0.8"/>
      </g>
     </g>
     <g id="text_15">
      <!-- 2021-06 -->
      <g transform="translate(329.272504 448.469971)rotate(-30)scale(0.1 -0.1)">
       <use xlink:href="#DejaVuSans-32"/>
       <use xlink:href="#DejaVuSans-30" x="63.623047"/>
       <use xlink:href="#DejaVuSans-32" x="127.246094"/>
       <use xlink:href="#DejaVuSans-31" x="190.869141"/>
       <use xlink:href="#DejaVuSans-2d" x="254.492188"/>
       <use xlink:href="#DejaVuSans-30" x="290.576172"/>
       <use xlink:href="#DejaVuSans-36" x="354.199219"/>
      </g>
     </g>
    </g>
    <g id="xtick_16">
     <g id="line2d_31">
      <path d="M 389.425183 413.998125 
L 389.425183 22.318125 
" clip-path="url(#p171975126e)" style="fill: none; stroke: #b0b0b0; stroke-opacity: 0.6; stroke-width: 0.8; stroke-linecap: square"/>
     </g>
     <g id="line2d_32">
      <g>
       <use xlink:href="#m4989ca4dfe" x="389.425183" y="413.998125" style="stroke: #000000; stroke-width: 0.8"/>
      </g>
     </g>
     <g id="text_16">
      <!-- 2021-07 -->
      <g transform="translate(352.200362 448.469971)rotate(-30)scale(0.1 -0.1)">
       <use xlink:href="#DejaVuSans-32"/>
       <use xlink:href="#DejaVuSans-30" x="63.623047"/>
       <use xlink:href="#DejaVuSans-32" x="127.246094"/>
       <use xlink:href="#DejaVuSans-31" x="190.869141"/>
       <use xlink:href="#DejaVuSans-2d" x="254.492188"/>
       <use xlink:href="#DejaVuSans-30" x="290.576172"/>
       <use xlink:href="#DejaVuSans-37" x="354.199219"/>
      </g>
     </g>
    </g>
    <g id="xtick_17">
     <g id="line2d_33">
      <path d="M 412.353041 413.998125 
L 412.353041 22.318125 
" clip-path="url(#p171975126e)" style="fill: none; stroke: #b0b0b0; stroke-opacity: 0.6; stroke-width: 0.8; stroke-linecap: square"/>
     </g>
     <g id="line2d_34">
      <g>
       <use xlink:href="#m4989ca4dfe" x="412.353041" y="413.998125" style="stroke: #000000; stroke-width: 0.8"/>
      </g>
     </g>
     <g id="text_17">
      <!-- 2021-08 -->
      <g transform="translate(375.12822 448.469971)rotate(-30)scale(0.1 -0.1)">
       <use xlink:href="#DejaVuSans-32"/>
       <use xlink:href="#DejaVuSans-30" x="63.623047"/>
       <use xlink:href="#DejaVuSans-32" x="127.246094"/>
       <use xlink:href="#DejaVuSans-31" x="190.869141"/>
       <use xlink:href="#DejaVuSans-2d" x="254.492188"/>
       <use xlink:href="#DejaVuSans-30" x="290.576172"/>
       <use xlink:href="#DejaVuSans-38" x="354.199219"/>
      </g>
     </g>
    </g>
    <g id="xtick_18">
     <g id="line2d_35">
      <path d="M 434.541291 413.998125 
L 434.541291 22.318125 
" clip-path="url(#p171975126e)" style="fill: none; stroke: #b0b0b0; stroke-opacity: 0.6; stroke-width: 0.8; stroke-linecap: square"/>
     </g>
     <g id="line2d_36">
      <g>
       <use xlink:href="#m4989ca4dfe" x="434.541291" y="413.998125" style="stroke: #000000; stroke-width: 0.8"/>
      </g>
     </g>
     <g id="text_18">
      <!-- 2021-09 -->
      <g transform="translate(397.31647 448.469971)rotate(-30)scale(0.1 -0.1)">
       <use xlink:href="#DejaVuSans-32"/>
       <use xlink:href="#DejaVuSans-30" x="63.623047"/>
       <use xlink:href="#DejaVuSans-32" x="127.246094"/>
       <use xlink:href="#DejaVuSans-31" x="190.869141"/>
       <use xlink:href="#DejaVuSans-2d" x="254.492188"/>
       <use xlink:href="#DejaVuSans-30" x="290.576172"/>
       <use xlink:href="#DejaVuSans-39" x="354.199219"/>
      </g>
     </g>
    </g>
    <g id="xtick_19">
     <g id="line2d_37">
      <path d="M 457.469148 413.998125 
L 457.469148 22.318125 
" clip-path="url(#p171975126e)" style="fill: none; stroke: #b0b0b0; stroke-opacity: 0.6; stroke-width: 0.8; stroke-linecap: square"/>
     </g>
     <g id="line2d_38">
      <g>
       <use xlink:href="#m4989ca4dfe" x="457.469148" y="413.998125" style="stroke: #000000; stroke-width: 0.8"/>
      </g>
     </g>
     <g id="text_19">
      <!-- 2021-10 -->
      <g transform="translate(420.244328 448.469971)rotate(-30)scale(0.1 -0.1)">
       <use xlink:href="#DejaVuSans-32"/>
       <use xlink:href="#DejaVuSans-30" x="63.623047"/>
       <use xlink:href="#DejaVuSans-32" x="127.246094"/>
       <use xlink:href="#DejaVuSans-31" x="190.869141"/>
       <use xlink:href="#DejaVuSans-2d" x="254.492188"/>
       <use xlink:href="#DejaVuSans-31" x="290.576172"/>
       <use xlink:href="#DejaVuSans-30" x="354.199219"/>
      </g>
     </g>
    </g>
    <g id="xtick_20">
     <g id="line2d_39">
      <path d="M 479.657398 413.998125 
L 479.657398 22.318125 
" clip-path="url(#p171975126e)" style="fill: none; stroke: #b0b0b0; stroke-opacity: 0.6; stroke-width: 0.8; stroke-linecap: square"/>
     </g>
     <g id="line2d_40">
      <g>
       <use xlink:href="#m4989ca4dfe" x="479.657398" y="413.998125" style="stroke: #000000; stroke-width: 0.8"/>
      </g>
     </g>
     <g id="text_20">
      <!-- 2021-11 -->
      <g transform="translate(442.432577 448.469971)rotate(-30)scale(0.1 -0.1)">
       <use xlink:href="#DejaVuSans-32"/>
       <use xlink:href="#DejaVuSans-30" x="63.623047"/>
       <use xlink:href="#DejaVuSans-32" x="127.246094"/>
       <use xlink:href="#DejaVuSans-31" x="190.869141"/>
       <use xlink:href="#DejaVuSans-2d" x="254.492188"/>
       <use xlink:href="#DejaVuSans-31" x="290.576172"/>
       <use xlink:href="#DejaVuSans-31" x="354.199219"/>
      </g>
     </g>
    </g>
    <g id="xtick_21">
     <g id="line2d_41">
      <path d="M 502.585256 413.998125 
L 502.585256 22.318125 
" clip-path="url(#p171975126e)" style="fill: none; stroke: #b0b0b0; stroke-opacity: 0.6; stroke-width: 0.8; stroke-linecap: square"/>
     </g>
     <g id="line2d_42">
      <g>
       <use xlink:href="#m4989ca4dfe" x="502.585256" y="413.998125" style="stroke: #000000; stroke-width: 0.8"/>
      </g>
     </g>
     <g id="text_21">
      <!-- 2021-12 -->
      <g transform="translate(465.360435 448.469971)rotate(-30)scale(0.1 -0.1)">
       <use xlink:href="#DejaVuSans-32"/>
       <use xlink:href="#DejaVuSans-30" x="63.623047"/>
       <use xlink:href="#DejaVuSans-32" x="127.246094"/>
       <use xlink:href="#DejaVuSans-31" x="190.869141"/>
       <use xlink:href="#DejaVuSans-2d" x="254.492188"/>
       <use xlink:href="#DejaVuSans-31" x="290.576172"/>
       <use xlink:href="#DejaVuSans-32" x="354.199219"/>
      </g>
     </g>
    </g>
    <g id="xtick_22">
     <g id="line2d_43">
      <path d="M 525.513114 413.998125 
L 525.513114 22.318125 
" clip-path="url(#p171975126e)" style="fill: none; stroke: #b0b0b0; stroke-opacity: 0.6; stroke-width: 0.8; stroke-linecap: square"/>
     </g>
     <g id="line2d_44">
      <g>
       <use xlink:href="#m4989ca4dfe" x="525.513114" y="413.998125" style="stroke: #000000; stroke-width: 0.8"/>
      </g>
     </g>
     <g id="text_22">
      <!-- 2022-01 -->
      <g transform="translate(488.288293 448.469971)rotate(-30)scale(0.1 -0.1)">
       <use xlink:href="#DejaVuSans-32"/>
       <use xlink:href="#DejaVuSans-30" x="63.623047"/>
       <use xlink:href="#DejaVuSans-32" x="127.246094"/>
       <use xlink:href="#DejaVuSans-32" x="190.869141"/>
       <use xlink:href="#DejaVuSans-2d" x="254.492188"/>
       <use xlink:href="#DejaVuSans-30" x="290.576172"/>
       <use xlink:href="#DejaVuSans-31" x="354.199219"/>
      </g>
     </g>
    </g>
    <g id="xtick_23">
     <g id="line2d_45">
      <path d="M 546.222147 413.998125 
L 546.222147 22.318125 
" clip-path="url(#p171975126e)" style="fill: none; stroke: #b0b0b0; stroke-opacity: 0.6; stroke-width: 0.8; stroke-linecap: square"/>
     </g>
     <g id="line2d_46">
      <g>
       <use xlink:href="#m4989ca4dfe" x="546.222147" y="413.998125" style="stroke: #000000; stroke-width: 0.8"/>
      </g>
     </g>
     <g id="text_23">
      <!-- 2022-02 -->
      <g transform="translate(508.997326 448.469971)rotate(-30)scale(0.1 -0.1)">
       <use xlink:href="#DejaVuSans-32"/>
       <use xlink:href="#DejaVuSans-30" x="63.623047"/>
       <use xlink:href="#DejaVuSans-32" x="127.246094"/>
       <use xlink:href="#DejaVuSans-32" x="190.869141"/>
       <use xlink:href="#DejaVuSans-2d" x="254.492188"/>
       <use xlink:href="#DejaVuSans-30" x="290.576172"/>
       <use xlink:href="#DejaVuSans-32" x="354.199219"/>
      </g>
     </g>
    </g>
    <g id="xtick_24">
     <g id="line2d_47">
      <path d="M 569.150005 413.998125 
L 569.150005 22.318125 
" clip-path="url(#p171975126e)" style="fill: none; stroke: #b0b0b0; stroke-opacity: 0.6; stroke-width: 0.8; stroke-linecap: square"/>
     </g>
     <g id="line2d_48">
      <g>
       <use xlink:href="#m4989ca4dfe" x="569.150005" y="413.998125" style="stroke: #000000; stroke-width: 0.8"/>
      </g>
     </g>
     <g id="text_24">
      <!-- 2022-03 -->
      <g transform="translate(531.925184 448.469971)rotate(-30)scale(0.1 -0.1)">
       <use xlink:href="#DejaVuSans-32"/>
       <use xlink:href="#DejaVuSans-30" x="63.623047"/>
       <use xlink:href="#DejaVuSans-32" x="127.246094"/>
       <use xlink:href="#DejaVuSans-32" x="190.869141"/>
       <use xlink:href="#DejaVuSans-2d" x="254.492188"/>
       <use xlink:href="#DejaVuSans-30" x="290.576172"/>
       <use xlink:href="#DejaVuSans-33" x="354.199219"/>
      </g>
     </g>
    </g>
    <g id="xtick_25">
     <g id="line2d_49">
      <path d="M 591.338254 413.998125 
L 591.338254 22.318125 
" clip-path="url(#p171975126e)" style="fill: none; stroke: #b0b0b0; stroke-opacity: 0.6; stroke-width: 0.8; stroke-linecap: square"/>
     </g>
     <g id="line2d_50">
      <g>
       <use xlink:href="#m4989ca4dfe" x="591.338254" y="413.998125" style="stroke: #000000; stroke-width: 0.8"/>
      </g>
     </g>
     <g id="text_25">
      <!-- 2022-04 -->
      <g transform="translate(554.113434 448.469971)rotate(-30)scale(0.1 -0.1)">
       <use xlink:href="#DejaVuSans-32"/>
       <use xlink:href="#DejaVuSans-30" x="63.623047"/>
       <use xlink:href="#DejaVuSans-32" x="127.246094"/>
       <use xlink:href="#DejaVuSans-32" x="190.869141"/>
       <use xlink:href="#DejaVuSans-2d" x="254.492188"/>
       <use xlink:href="#DejaVuSans-30" x="290.576172"/>
       <use xlink:href="#DejaVuSans-34" x="354.199219"/>
      </g>
     </g>
    </g>
    <g id="text_26">
     <!-- Date -->
     <g transform="translate(314.014844 461.869471)scale(0.1 -0.1)">
      <defs>
       <path id="DejaVuSans-44" d="M 1259 4147 
L 1259 519 
L 2022 519 
Q 2988 519 3436 956 
Q 3884 1394 3884 2338 
Q 3884 3275 3436 3711 
Q 2988 4147 2022 4147 
L 1259 4147 
z
M 628 4666 
L 1925 4666 
Q 3281 4666 3915 4102 
Q 4550 3538 4550 2338 
Q 4550 1131 3912 565 
Q 3275 0 1925 0 
L 628 0 
L 628 4666 
z
" transform="scale(0.015625)"/>
       <path id="DejaVuSans-61" d="M 2194 1759 
Q 1497 1759 1228 1600 
Q 959 1441 959 1056 
Q 959 750 1161 570 
Q 1363 391 1709 391 
Q 2188 391 2477 730 
Q 2766 1069 2766 1631 
L 2766 1759 
L 2194 1759 
z
M 3341 1997 
L 3341 0 
L 2766 0 
L 2766 531 
Q 2569 213 2275 61 
Q 1981 -91 1556 -91 
Q 1019 -91 701 211 
Q 384 513 384 1019 
Q 384 1609 779 1909 
Q 1175 2209 1959 2209 
L 2766 2209 
L 2766 2266 
Q 2766 2663 2505 2880 
Q 2244 3097 1772 3097 
Q 1472 3097 1187 3025 
Q 903 2953 641 2809 
L 641 3341 
Q 956 3463 1253 3523 
Q 1550 3584 1831 3584 
Q 2591 3584 2966 3190 
Q 3341 2797 3341 1997 
z
" transform="scale(0.015625)"/>
       <path id="DejaVuSans-74" d="M 1172 4494 
L 1172 3500 
L 2356 3500 
L 2356 3053 
L 1172 3053 
L 1172 1153 
Q 1172 725 1289 603 
Q 1406 481 1766 481 
L 2356 481 
L 2356 0 
L 1766 0 
Q 1100 0 847 248 
Q 594 497 594 1153 
L 594 3053 
L 172 3053 
L 172 3500 
L 594 3500 
L 594 4494 
L 1172 4494 
z
" transform="scale(0.015625)"/>
       <path id="DejaVuSans-65" d="M 3597 1894 
L 3597 1613 
L 953 1613 
Q 991 1019 1311 708 
Q 1631 397 2203 397 
Q 2534 397 2845 478 
Q 3156 559 3463 722 
L 3463 178 
Q 3153 47 2828 -22 
Q 2503 -91 2169 -91 
Q 1331 -91 842 396 
Q 353 884 353 1716 
Q 353 2575 817 3079 
Q 1281 3584 2069 3584 
Q 2775 3584 3186 3129 
Q 3597 2675 3597 1894 
z
M 3022 2063 
Q 3016 2534 2758 2815 
Q 2500 3097 2075 3097 
Q 1594 3097 1305 2825 
Q 1016 2553 972 2059 
L 3022 2063 
z
" transform="scale(0.015625)"/>
      </defs>
      <use xlink:href="#DejaVuSans-44"/>
      <use xlink:href="#DejaVuSans-61" x="77.001953"/>
      <use xlink:href="#DejaVuSans-74" x="138.28125"/>
      <use xlink:href="#DejaVuSans-65" x="177.490234"/>
     </g>
    </g>
   </g>
   <g id="matplotlib.axis_2">
    <g id="ytick_1">
     <g id="line2d_51">
      <path d="M 46.965625 397.805677 
L 604.965625 397.805677 
" clip-path="url(#p171975126e)" style="fill: none; stroke: #b0b0b0; stroke-opacity: 0.6; stroke-width: 0.8; stroke-linecap: square"/>
     </g>
     <g id="line2d_52">
      <defs>
       <path id="mc11dc46687" d="M 0 0 
L -3.5 0 
" style="stroke: #000000; stroke-width: 0.8"/>
      </defs>
      <g>
       <use xlink:href="#mc11dc46687" x="46.965625" y="397.805677" style="stroke: #000000; stroke-width: 0.8"/>
      </g>
     </g>
     <g id="text_27">
      <!-- 0 -->
      <g transform="translate(33.603125 401.604896)scale(0.1 -0.1)">
       <use xlink:href="#DejaVuSans-30"/>
      </g>
     </g>
    </g>
    <g id="ytick_2">
     <g id="line2d_53">
      <path d="M 46.965625 317.246237 
L 604.965625 317.246237 
" clip-path="url(#p171975126e)" style="fill: none; stroke: #b0b0b0; stroke-opacity: 0.6; stroke-width: 0.8; stroke-linecap: square"/>
     </g>
     <g id="line2d_54">
      <g>
       <use xlink:href="#mc11dc46687" x="46.965625" y="317.246237" style="stroke: #000000; stroke-width: 0.8"/>
      </g>
     </g>
     <g id="text_28">
      <!-- 50 -->
      <g transform="translate(27.240625 321.045456)scale(0.1 -0.1)">
       <use xlink:href="#DejaVuSans-35"/>
       <use xlink:href="#DejaVuSans-30" x="63.623047"/>
      </g>
     </g>
    </g>
    <g id="ytick_3">
     <g id="line2d_55">
      <path d="M 46.965625 236.686796 
L 604.965625 236.686796 
" clip-path="url(#p171975126e)" style="fill: none; stroke: #b0b0b0; stroke-opacity: 0.6; stroke-width: 0.8; stroke-linecap: square"/>
     </g>
     <g id="line2d_56">
      <g>
       <use xlink:href="#mc11dc46687" x="46.965625" y="236.686796" style="stroke: #000000; stroke-width: 0.8"/>
      </g>
     </g>
     <g id="text_29">
      <!-- 100 -->
      <g transform="translate(20.878125 240.486015)scale(0.1 -0.1)">
       <use xlink:href="#DejaVuSans-31"/>
       <use xlink:href="#DejaVuSans-30" x="63.623047"/>
       <use xlink:href="#DejaVuSans-30" x="127.246094"/>
      </g>
     </g>
    </g>
    <g id="ytick_4">
     <g id="line2d_57">
      <path d="M 46.965625 156.127356 
L 604.965625 156.127356 
" clip-path="url(#p171975126e)" style="fill: none; stroke: #b0b0b0; stroke-opacity: 0.6; stroke-width: 0.8; stroke-linecap: square"/>
     </g>
     <g id="line2d_58">
      <g>
       <use xlink:href="#mc11dc46687" x="46.965625" y="156.127356" style="stroke: #000000; stroke-width: 0.8"/>
      </g>
     </g>
     <g id="text_30">
      <!-- 150 -->
      <g transform="translate(20.878125 159.926575)scale(0.1 -0.1)">
       <use xlink:href="#DejaVuSans-31"/>
       <use xlink:href="#DejaVuSans-35" x="63.623047"/>
       <use xlink:href="#DejaVuSans-30" x="127.246094"/>
      </g>
     </g>
    </g>
    <g id="ytick_5">
     <g id="line2d_59">
      <path d="M 46.965625 75.567915 
L 604.965625 75.567915 
" clip-path="url(#p171975126e)" style="fill: none; stroke: #b0b0b0; stroke-opacity: 0.6; stroke-width: 0.8; stroke-linecap: square"/>
     </g>
     <g id="line2d_60">
      <g>
       <use xlink:href="#mc11dc46687" x="46.965625" y="75.567915" style="stroke: #000000; stroke-width: 0.8"/>
      </g>
     </g>
     <g id="text_31">
      <!-- 200 -->
      <g transform="translate(20.878125 79.367134)scale(0.1 -0.1)">
       <use xlink:href="#DejaVuSans-32"/>
       <use xlink:href="#DejaVuSans-30" x="63.623047"/>
       <use xlink:href="#DejaVuSans-30" x="127.246094"/>
      </g>
     </g>
    </g>
    <g id="text_32">
     <!-- Count -->
     <g transform="translate(14.798437 233.006562)rotate(-90)scale(0.1 -0.1)">
      <defs>
       <path id="DejaVuSans-43" d="M 4122 4306 
L 4122 3641 
Q 3803 3938 3442 4084 
Q 3081 4231 2675 4231 
Q 1875 4231 1450 3742 
Q 1025 3253 1025 2328 
Q 1025 1406 1450 917 
Q 1875 428 2675 428 
Q 3081 428 3442 575 
Q 3803 722 4122 1019 
L 4122 359 
Q 3791 134 3420 21 
Q 3050 -91 2638 -91 
Q 1578 -91 968 557 
Q 359 1206 359 2328 
Q 359 3453 968 4101 
Q 1578 4750 2638 4750 
Q 3056 4750 3426 4639 
Q 3797 4528 4122 4306 
z
" transform="scale(0.015625)"/>
       <path id="DejaVuSans-6f" d="M 1959 3097 
Q 1497 3097 1228 2736 
Q 959 2375 959 1747 
Q 959 1119 1226 758 
Q 1494 397 1959 397 
Q 2419 397 2687 759 
Q 2956 1122 2956 1747 
Q 2956 2369 2687 2733 
Q 2419 3097 1959 3097 
z
M 1959 3584 
Q 2709 3584 3137 3096 
Q 3566 2609 3566 1747 
Q 3566 888 3137 398 
Q 2709 -91 1959 -91 
Q 1206 -91 779 398 
Q 353 888 353 1747 
Q 353 2609 779 3096 
Q 1206 3584 1959 3584 
z
" transform="scale(0.015625)"/>
       <path id="DejaVuSans-75" d="M 544 1381 
L 544 3500 
L 1119 3500 
L 1119 1403 
Q 1119 906 1312 657 
Q 1506 409 1894 409 
Q 2359 409 2629 706 
Q 2900 1003 2900 1516 
L 2900 3500 
L 3475 3500 
L 3475 0 
L 2900 0 
L 2900 538 
Q 2691 219 2414 64 
Q 2138 -91 1772 -91 
Q 1169 -91 856 284 
Q 544 659 544 1381 
z
M 1991 3584 
L 1991 3584 
z
" transform="scale(0.015625)"/>
       <path id="DejaVuSans-6e" d="M 3513 2113 
L 3513 0 
L 2938 0 
L 2938 2094 
Q 2938 2591 2744 2837 
Q 2550 3084 2163 3084 
Q 1697 3084 1428 2787 
Q 1159 2491 1159 1978 
L 1159 0 
L 581 0 
L 581 3500 
L 1159 3500 
L 1159 2956 
Q 1366 3272 1645 3428 
Q 1925 3584 2291 3584 
Q 2894 3584 3203 3211 
Q 3513 2838 3513 2113 
z
" transform="scale(0.015625)"/>
      </defs>
      <use xlink:href="#DejaVuSans-43"/>
      <use xlink:href="#DejaVuSans-6f" x="69.824219"/>
      <use xlink:href="#DejaVuSans-75" x="131.005859"/>
      <use xlink:href="#DejaVuSans-6e" x="194.384766"/>
      <use xlink:href="#DejaVuSans-74" x="257.763672"/>
     </g>
    </g>
   </g>
   <g id="line2d_61">
    <path d="M 579.601989 375.249034 
L 539.439921 375.249034 
L 538.14006 373.637845 
L 516.71543 373.637845 
L 516.715327 372.026656 
L 499.120362 372.026656 
L 499.120302 370.415468 
L 480.526789 370.415468 
L 481.183525 370.415468 
L 480.455473 372.026656 
L 453.893099 372.026656 
L 453.238683 373.637845 
L 441.154836 373.637845 
L 440.992361 372.026656 
L 415.38416 372.026656 
L 415.383928 373.637845 
L 342.943368 373.637845 
L 342.832333 375.249034 
L 338.349938 375.249034 
L 338.349716 376.860223 
L 324.512055 376.860223 
L 323.781452 378.471412 
L 320.10862 378.471412 
L 319.751742 376.860223 
L 277.9907 376.860223 
L 277.956596 378.471412 
L 270.951093 378.471412 
L 270.200442 380.082601 
L 252.12521 380.082601 
L 252.101216 378.471412 
L 247.606315 378.471412 
L 247.588047 380.082601 
L 241.514947 380.082601 
L 241.017826 381.693789 
L 232.856864 381.693789 
L 232.809329 383.304978 
L 229.991036 383.304978 
L 229.796384 384.916167 
L 224.021241 384.916167 
L 224.015549 386.527356 
L 211.939491 386.527356 
L 210.289677 388.138545 
L 136.572821 388.138545 
L 136.536877 389.749733 
L 124.14099 389.749733 
L 124.117381 391.360922 
L 106.679257 391.360922 
L 106.180903 392.972111 
L 87.114537 392.972111 
L 86.392066 394.5833 
L 73.097786 394.5833 
L 72.329261 396.194489 
L 72.329261 396.194489 
" clip-path="url(#p171975126e)" style="fill: none; stroke: #1f77b4; stroke-opacity: 0.8; stroke-width: 1.5; stroke-linecap: square"/>
   </g>
   <g id="line2d_62">
    <path d="M 579.601989 44.955328 
L 578.726178 48.177705 
L 576.077806 49.788894 
L 574.130967 49.788894 
L 574.130822 51.400083 
L 573.682665 53.011272 
L 569.09117 53.011272 
L 567.014891 54.622461 
L 567.010551 53.011272 
L 561.732898 54.622461 
L 559.327749 54.622461 
L 559.027754 56.233649 
L 555.868908 57.844838 
L 555.203842 59.456027 
L 553.826082 57.844838 
L 551.649254 61.067216 
L 546.099495 61.067216 
L 545.724041 62.678405 
L 539.439921 62.678405 
L 538.169422 53.011272 
L 538.14006 51.400083 
L 535.998962 53.011272 
L 535.994691 54.622461 
L 534.42637 56.233649 
L 532.796741 61.067216 
L 532.786323 64.289594 
L 530.013922 67.511971 
L 529.863415 72.345538 
L 529.119501 73.956726 
L 522.476243 77.179104 
L 521.967368 65.900782 
L 520.922543 67.511971 
L 520.922406 70.734349 
L 516.848911 70.734349 
L 516.71543 73.956726 
L 516.715327 65.900782 
L 515.44517 65.900782 
L 513.719785 67.511971 
L 513.241736 67.511971 
L 513.214857 69.12316 
L 510.58745 69.12316 
L 510.036827 70.734349 
L 509.859578 72.345538 
L 508.498373 72.345538 
L 508.497731 75.567915 
L 507.869278 75.567915 
L 507.617897 83.623859 
L 506.143423 83.623859 
L 504.813026 85.235048 
L 503.55446 85.235048 
L 503.48388 96.51337 
L 503.253189 99.735747 
L 503.181146 99.735747 
L 503.176001 102.958125 
L 499.120362 101.346936 
L 499.120302 77.179104 
L 496.058358 73.956726 
L 495.802765 73.956726 
L 494.89927 75.567915 
L 491.035527 75.567915 
L 490.961644 77.179104 
L 487.087885 77.179104 
L 486.479532 78.790293 
L 485.862678 77.179104 
L 483.438252 78.790293 
L 482.516695 78.790293 
L 482.51631 80.401482 
L 480.94495 80.401482 
L 480.526789 85.235048 
L 481.183525 85.235048 
L 480.178171 91.679803 
L 476.571956 91.679803 
L 474.69936 93.290992 
L 475.821373 93.290992 
L 472.424457 94.902181 
L 472.123597 101.346936 
L 471.823979 101.346936 
L 470.971948 102.958125 
L 467.955194 101.346936 
L 467.734578 102.958125 
L 467.663074 101.346936 
L 466.578641 101.346936 
L 466.56776 62.678405 
L 465.643978 40.121761 
L 465.545397 41.73295 
L 461.242375 41.73295 
L 461.193034 48.177705 
L 459.853641 49.788894 
L 459.154933 53.011272 
L 453.893099 53.011272 
L 453.238683 54.622461 
L 445.595302 54.622461 
L 447.955603 56.233649 
L 446.477816 56.233649 
L 446.220707 57.844838 
L 446.174396 59.456027 
L 444.21452 61.067216 
L 444.079362 64.289594 
L 444.028762 67.511971 
L 443.64069 67.511971 
L 441.767872 70.734349 
L 441.767872 72.345538 
L 441.163687 73.956726 
L 441.154836 70.734349 
L 441.01574 67.511971 
L 440.992361 69.12316 
L 437.993404 69.12316 
L 438.064814 69.12316 
L 435.426954 70.734349 
L 417.703876 70.734349 
L 417.633793 72.345538 
L 416.896505 77.179104 
L 415.384365 77.179104 
L 415.38416 75.567915 
L 415.383928 77.179104 
L 411.467925 77.179104 
L 411.067347 78.790293 
L 407.980749 78.790293 
L 407.268756 80.401482 
L 407.262473 90.068615 
L 406.521769 91.679803 
L 406.521649 94.902181 
L 404.479089 94.902181 
L 404.446054 96.51337 
L 403.573257 96.51337 
L 402.067212 98.124559 
L 400.522518 98.124559 
L 400.363639 99.735747 
L 400.360669 101.346936 
L 394.558116 101.346936 
L 394.557988 99.735747 
L 393.169151 99.735747 
L 393.168894 102.958125 
L 390.821425 106.180503 
L 384.405314 106.180503 
L 384.39791 109.40288 
L 383.691541 109.40288 
L 383.005006 111.014069 
L 382.132063 111.014069 
L 382.116492 112.625258 
L 375.420991 112.625258 
L 374.829039 114.236447 
L 373.861384 115.847635 
L 371.029635 117.458824 
L 369.633769 119.070013 
L 369.63353 120.681202 
L 364.19294 120.681202 
L 362.210679 122.292391 
L 359.312664 122.292391 
L 359.308409 123.90358 
L 354.052157 125.514768 
L 351.110553 127.125957 
L 348.146787 127.125957 
L 347.828139 128.737146 
L 345.854489 131.959524 
L 345.853333 133.570712 
L 339.23829 133.570712 
L 339.052943 136.79309 
L 338.349938 136.79309 
L 338.349716 140.015468 
L 337.570961 140.015468 
L 337.570756 138.404279 
L 337.099726 138.404279 
L 336.346259 140.015468 
L 336.346139 141.626656 
L 334.749604 143.237845 
L 334.749835 148.071412 
L 331.875669 148.071412 
L 327.413605 149.682601 
L 327.400354 152.904978 
L 325.248898 152.904978 
L 325.155531 154.516167 
L 324.599772 156.127356 
L 324.512055 160.960922 
L 323.781452 165.794489 
L 323.65155 165.794489 
L 322.784624 167.405677 
L 322.69707 169.016866 
L 321.360998 169.016866 
L 320.10862 170.628055 
L 319.751742 170.628055 
L 318.458053 172.239244 
L 314.608717 172.239244 
L 314.550139 173.850433 
L 311.046989 173.850433 
L 311.046989 173.850433 
L 310.53297 175.461622 
L 310.529023 162.572111 
L 310.51394 164.1833 
L 308.786698 170.628055 
L 302.830916 170.628055 
L 302.710294 181.906377 
L 302.38841 185.128754 
L 299.825025 185.128754 
L 298.596667 186.739943 
L 295.29923 186.739943 
L 295.293982 188.351132 
L 294.988731 191.57351 
L 293.84869 193.184698 
L 293.81777 198.018265 
L 293.459531 198.018265 
L 293.401698 199.629454 
L 291.654057 199.629454 
L 289.451385 201.240642 
L 289.034191 201.240642 
L 289.005908 202.851831 
L 288.753499 204.46302 
L 282.925197 204.46302 
L 282.054129 206.074209 
L 281.573118 207.685398 
L 280.166775 209.296587 
L 279.850541 209.296587 
L 278.313072 210.907775 
L 277.9907 210.907775 
L 277.956596 215.741342 
L 277.591406 217.352531 
L 277.591218 218.963719 
L 277.051749 218.963719 
L 274.84852 228.630852 
L 274.659903 227.019663 
L 273.981218 227.019663 
L 273.879753 228.630852 
L 273.386981 230.242041 
L 270.951093 230.242041 
L 270.200442 233.464419 
L 268.175165 233.464419 
L 265.968906 231.85323 
L 265.933261 233.464419 
L 265.438143 233.464419 
L 264.691104 235.075608 
L 263.148807 227.019663 
L 258.78719 227.019663 
L 257.822258 228.630852 
L 257.816882 230.242041 
L 255.114974 230.242041 
L 255.11102 231.85323 
L 254.323773 231.85323 
L 254.04999 233.464419 
L 253.597134 233.464419 
L 253.583814 238.297985 
L 252.878318 238.297985 
L 252.87718 239.909174 
L 252.12521 239.909174 
L 252.106481 236.686796 
L 252.101216 238.297985 
L 248.328238 238.297985 
L 247.606315 239.909174 
L 247.588047 241.520363 
L 243.891093 241.520363 
L 242.14542 235.075608 
L 241.514947 239.909174 
L 241.017826 246.353929 
L 237.071031 246.353929 
L 236.589275 247.965118 
L 235.645641 247.965118 
L 235.645402 251.187496 
L 235.168919 251.187496 
L 235.129456 252.798684 
L 233.656583 252.798684 
L 233.491661 257.632251 
L 233.330137 257.632251 
L 233.329983 260.854628 
L 232.856864 262.465817 
L 232.809329 264.077006 
L 231.26734 264.077006 
L 231.259088 265.688195 
L 231.032103 265.688195 
L 231.01934 272.13295 
L 230.433748 272.13295 
L 230.3128 273.744139 
L 229.991036 275.355328 
L 229.796384 278.577705 
L 229.640056 278.577705 
L 229.581298 283.411272 
L 228.955516 285.022461 
L 224.021241 285.022461 
L 224.015549 288.244838 
L 218.591532 288.244838 
L 218.556289 291.467216 
L 215.885576 291.467216 
L 215.882691 283.411272 
L 211.939491 283.411272 
L 210.289677 285.022461 
L 205.0919 286.633649 
L 201.695034 286.633649 
L 199.45956 288.244838 
L 197.141264 288.244838 
L 196.607633 289.856027 
L 195.166869 291.467216 
L 194.860694 293.078405 
L 194.860189 296.300782 
L 192.766926 296.300782 
L 191.040043 299.52316 
L 188.118967 299.52316 
L 188.118522 301.134349 
L 180.958489 301.134349 
L 177.725073 302.745538 
L 174.883856 302.745538 
L 174.824859 304.356726 
L 173.668039 305.967915 
L 172.134328 305.967915 
L 171.888305 307.579104 
L 171.887946 304.356726 
L 171.858336 305.967915 
L 171.52909 307.579104 
L 171.528072 310.801482 
L 156.707656 310.801482 
L 156.448879 315.635048 
L 154.158422 315.635048 
L 148.90591 317.246237 
L 148.909968 318.857426 
L 148.904335 318.857426 
L 141.812056 318.857426 
L 141.584318 323.690992 
L 137.444095 323.690992 
L 137.44395 325.302181 
L 137.266649 325.302181 
L 137.031421 326.91337 
L 136.536877 336.580503 
L 135.729531 336.580503 
L 134.82809 338.191691 
L 134.267846 338.191691 
L 134.075762 341.414069 
L 132.838013 343.025258 
L 129.848001 343.025258 
L 129.847702 346.247635 
L 126.879938 346.247635 
L 126.006095 347.858824 
L 125.957918 349.470013 
L 125.220775 349.470013 
L 124.764897 352.692391 
L 124.712979 354.30358 
L 124.14099 355.914768 
L 124.117381 357.525957 
L 114.286214 357.525957 
L 114.14199 360.748335 
L 112.752811 360.748335 
L 111.33367 362.359524 
L 109.959951 362.359524 
L 109.002586 363.970712 
L 108.256061 363.970712 
L 107.71571 365.581901 
L 107.522042 367.19309 
L 107.500599 367.19309 
L 107.445308 368.804279 
L 106.679257 370.415468 
L 106.180903 375.249034 
L 96.381324 375.249034 
L 95.074914 376.860223 
L 90.825299 376.860223 
L 90.825153 378.471412 
L 88.306958 378.471412 
L 87.63222 380.082601 
L 87.114537 380.082601 
L 86.392066 383.304978 
L 82.677358 383.304978 
L 82.284655 384.916167 
L 80.057595 384.916167 
L 80.046081 386.527356 
L 79.722922 388.138545 
L 78.281918 388.138545 
L 78.125411 389.749733 
L 74.272257 391.360922 
L 73.097786 391.360922 
L 72.329261 392.972111 
L 72.329261 392.972111 
" clip-path="url(#p171975126e)" style="fill: none; stroke: #ff7f0e; stroke-opacity: 0.8; stroke-width: 1.5; stroke-linecap: square"/>
   </g>
   <g id="line2d_63">
    <path d="M 579.601989 198.018265 
L 578.726178 199.629454 
L 576.077806 201.240642 
L 574.130967 201.240642 
L 574.130822 202.851831 
L 573.682665 204.46302 
L 567.010551 204.46302 
L 561.732898 206.074209 
L 559.327749 206.074209 
L 559.027754 207.685398 
L 555.868908 209.296587 
L 555.203842 209.296587 
L 553.826082 207.685398 
L 551.649254 209.296587 
L 546.099495 209.296587 
L 545.724041 210.907775 
L 539.439921 210.907775 
L 538.14006 209.296587 
L 535.998962 210.907775 
L 535.994691 212.518964 
L 532.796741 215.741342 
L 532.786323 217.352531 
L 530.013922 218.963719 
L 529.863415 220.574908 
L 529.119501 220.574908 
L 522.476243 222.186097 
L 521.967368 210.907775 
L 520.922406 212.518964 
L 518.238638 212.518964 
L 518.185436 210.907775 
L 516.848911 210.907775 
L 516.715327 212.518964 
L 515.44517 212.518964 
L 513.719785 214.130153 
L 510.58745 214.130153 
L 510.036827 215.741342 
L 509.859578 217.352531 
L 508.497937 217.352531 
L 508.497731 218.963719 
L 507.869278 218.963719 
L 507.617897 220.574908 
L 503.55446 220.574908 
L 503.48388 222.186097 
L 503.253189 225.408475 
L 503.181146 225.408475 
L 503.176001 227.019663 
L 499.120362 227.019663 
L 499.120302 222.186097 
L 495.802765 222.186097 
L 494.89927 223.797286 
L 491.035527 223.797286 
L 490.961644 225.408475 
L 487.087885 225.408475 
L 486.479532 227.019663 
L 482.516695 227.019663 
L 482.51631 228.630852 
L 480.526789 228.630852 
L 481.183525 228.630852 
L 480.455473 230.242041 
L 480.178171 231.85323 
L 476.571956 231.85323 
L 474.69936 233.464419 
L 475.821373 233.464419 
L 472.424457 235.075608 
L 472.123597 236.686796 
L 471.823979 236.686796 
L 470.971948 238.297985 
L 467.955194 236.686796 
L 467.734578 238.297985 
L 467.663074 236.686796 
L 466.578641 236.686796 
L 466.56776 210.907775 
L 465.643978 204.46302 
L 465.545397 206.074209 
L 461.242375 206.074209 
L 461.193034 207.685398 
L 459.853641 209.296587 
L 459.154933 210.907775 
L 445.595302 210.907775 
L 447.955603 212.518964 
L 446.477816 212.518964 
L 446.174396 214.130153 
L 444.119193 215.741342 
L 444.028762 217.352531 
L 442.732256 217.352531 
L 441.767872 218.963719 
L 441.767872 220.574908 
L 441.163687 222.186097 
L 441.154836 218.963719 
L 441.01574 215.741342 
L 440.992361 217.352531 
L 437.993404 217.352531 
L 438.064814 217.352531 
L 435.426954 218.963719 
L 417.703876 218.963719 
L 417.633793 220.574908 
L 411.467925 220.574908 
L 411.067347 222.186097 
L 407.980749 222.186097 
L 407.268756 223.797286 
L 407.262473 225.408475 
L 404.479089 225.408475 
L 404.446054 227.019663 
L 403.573257 227.019663 
L 402.067212 228.630852 
L 400.522518 228.630852 
L 400.363639 230.242041 
L 400.360669 231.85323 
L 394.558116 231.85323 
L 394.557988 230.242041 
L 393.169151 230.242041 
L 393.168894 231.85323 
L 390.821425 233.464419 
L 382.132063 233.464419 
L 382.116492 235.075608 
L 375.420991 235.075608 
L 374.829039 236.686796 
L 373.861384 238.297985 
L 371.029635 239.909174 
L 369.633769 241.520363 
L 369.63353 243.131552 
L 364.19294 243.131552 
L 362.210679 244.74274 
L 359.312664 244.74274 
L 359.308409 246.353929 
L 354.052157 247.965118 
L 351.110553 249.576307 
L 348.146787 249.576307 
L 347.828139 251.187496 
L 345.854489 252.798684 
L 345.853333 254.409873 
L 338.349938 254.409873 
L 338.349716 257.632251 
L 337.099726 257.632251 
L 336.346259 259.24344 
L 336.346139 260.854628 
L 334.749604 262.465817 
L 334.749835 267.299384 
L 331.875669 267.299384 
L 327.413605 268.910573 
L 327.400354 270.521761 
L 325.248898 270.521761 
L 325.211353 272.13295 
L 325.155531 270.521761 
L 324.599772 270.521761 
L 324.512055 273.744139 
L 322.784624 273.744139 
L 322.69707 275.355328 
L 321.360998 275.355328 
L 320.10862 276.966517 
L 311.046989 276.966517 
L 311.046989 276.966517 
L 310.53297 278.577705 
L 310.529023 265.688195 
L 310.51394 267.299384 
L 308.786698 268.910573 
L 302.830916 268.910573 
L 302.726173 272.13295 
L 302.710294 273.744139 
L 302.38841 275.355328 
L 295.29923 275.355328 
L 295.293982 276.966517 
L 294.988731 278.577705 
L 293.84869 280.188894 
L 293.81777 283.411272 
L 293.459531 283.411272 
L 293.401698 285.022461 
L 291.654057 285.022461 
L 289.451385 286.633649 
L 289.034191 286.633649 
L 289.005908 288.244838 
L 288.753499 289.856027 
L 282.925197 289.856027 
L 282.054129 291.467216 
L 281.573118 291.467216 
L 280.166775 293.078405 
L 279.850541 293.078405 
L 278.313072 294.689594 
L 277.956596 294.689594 
L 277.591406 296.300782 
L 277.591218 297.911971 
L 277.051749 297.911971 
L 274.84852 299.52316 
L 274.659903 297.911971 
L 273.981218 297.911971 
L 273.879753 299.52316 
L 273.386981 301.134349 
L 270.951093 301.134349 
L 270.200442 299.52316 
L 265.968906 299.52316 
L 265.933261 301.134349 
L 265.438143 301.134349 
L 264.691104 302.745538 
L 263.148807 297.911971 
L 258.78719 297.911971 
L 257.816882 299.52316 
L 254.323773 299.52316 
L 254.04999 301.134349 
L 253.597134 301.134349 
L 253.583814 302.745538 
L 252.878318 302.745538 
L 252.87718 304.356726 
L 247.606315 304.356726 
L 247.588047 305.967915 
L 235.645641 305.967915 
L 235.645402 307.579104 
L 233.50891 307.579104 
L 233.426089 309.190293 
L 233.329983 309.190293 
L 232.809329 310.801482 
L 231.26734 310.801482 
L 231.259088 312.41267 
L 231.032103 312.41267 
L 231.01934 314.023859 
L 230.433748 314.023859 
L 230.3128 315.635048 
L 229.616139 315.635048 
L 229.581298 317.246237 
L 228.955516 318.857426 
L 224.015746 318.857426 
L 224.015549 320.468615 
L 218.591532 320.468615 
L 218.556289 322.079803 
L 215.885576 322.079803 
L 215.882691 317.246237 
L 211.939491 317.246237 
L 210.289677 318.857426 
L 201.695034 318.857426 
L 199.45956 320.468615 
L 197.141264 320.468615 
L 196.607633 322.079803 
L 195.166869 323.690992 
L 194.860694 323.690992 
L 194.860189 326.91337 
L 192.766926 326.91337 
L 191.040043 328.524559 
L 188.118967 328.524559 
L 188.118522 330.135747 
L 180.958489 330.135747 
L 177.725073 331.746936 
L 174.883856 331.746936 
L 174.824859 333.358125 
L 172.134328 333.358125 
L 171.887946 334.969314 
L 171.858336 336.580503 
L 171.52909 338.191691 
L 171.528072 341.414069 
L 156.50328 341.414069 
L 156.448879 343.025258 
L 154.158422 343.025258 
L 148.904335 344.636447 
L 141.812056 344.636447 
L 141.590533 346.247635 
L 141.584318 347.858824 
L 137.444095 347.858824 
L 137.44395 349.470013 
L 137.266649 349.470013 
L 137.031421 351.081202 
L 136.536877 352.692391 
L 135.729531 352.692391 
L 134.82809 354.30358 
L 134.267846 354.30358 
L 134.075762 355.914768 
L 132.838013 357.525957 
L 129.848001 357.525957 
L 129.847702 359.137146 
L 126.879938 359.137146 
L 126.006095 360.748335 
L 125.957918 362.359524 
L 125.220775 362.359524 
L 124.764897 363.970712 
L 124.712979 365.581901 
L 124.14099 367.19309 
L 124.117381 368.804279 
L 114.211765 368.804279 
L 114.14199 370.415468 
L 112.752811 370.415468 
L 111.33367 372.026656 
L 109.959951 372.026656 
L 109.002586 373.637845 
L 107.71571 373.637845 
L 107.522042 375.249034 
L 107.500599 375.249034 
L 107.445308 376.860223 
L 106.679257 376.860223 
L 106.180903 378.471412 
L 96.381324 378.471412 
L 95.074914 380.082601 
L 90.825299 380.082601 
L 90.825153 381.693789 
L 88.306958 381.693789 
L 87.63222 383.304978 
L 87.114537 383.304978 
L 86.392066 384.916167 
L 82.677358 384.916167 
L 82.284655 386.527356 
L 80.046081 386.527356 
L 79.722922 388.138545 
L 78.281918 388.138545 
L 78.125411 389.749733 
L 74.272257 391.360922 
L 73.097786 391.360922 
L 72.329261 392.972111 
L 72.329261 392.972111 
" clip-path="url(#p171975126e)" style="fill: none; stroke: #2ca02c; stroke-opacity: 0.8; stroke-width: 1.5; stroke-linecap: square"/>
   </g>
   <g id="patch_3">
    <path d="M 46.965625 413.998125 
L 46.965625 22.318125 
" style="fill: none; stroke: #000000; stroke-width: 0.8; stroke-linejoin: miter; stroke-linecap: square"/>
   </g>
   <g id="patch_4">
    <path d="M 604.965625 413.998125 
L 604.965625 22.318125 
" style="fill: none; stroke: #000000; stroke-width: 0.8; stroke-linejoin: miter; stroke-linecap: square"/>
   </g>
   <g id="patch_5">
    <path d="M 46.965625 413.998125 
L 604.965625 413.998125 
" style="fill: none; stroke: #000000; stroke-width: 0.8; stroke-linejoin: miter; stroke-linecap: square"/>
   </g>
   <g id="patch_6">
    <path d="M 46.965625 22.318125 
L 604.965625 22.318125 
" style="fill: none; stroke: #000000; stroke-width: 0.8; stroke-linejoin: miter; stroke-linecap: square"/>
   </g>
   <g id="text_33">
    <!-- 14 -->
    <g transform="translate(579.601989 375.249034)scale(0.1 -0.1)">
     <use xlink:href="#DejaVuSans-31"/>
     <use xlink:href="#DejaVuSans-34" x="63.623047"/>
    </g>
   </g>
   <g id="text_34">
    <!-- 219 -->
    <g transform="translate(579.601989 44.955328)scale(0.1 -0.1)">
     <use xlink:href="#DejaVuSans-32"/>
     <use xlink:href="#DejaVuSans-31" x="63.623047"/>
     <use xlink:href="#DejaVuSans-39" x="127.246094"/>
    </g>
   </g>
   <g id="text_35">
    <!-- 124 -->
    <g transform="translate(579.601989 198.018265)scale(0.1 -0.1)">
     <use xlink:href="#DejaVuSans-31"/>
     <use xlink:href="#DejaVuSans-32" x="63.623047"/>
     <use xlink:href="#DejaVuSans-34" x="127.246094"/>
    </g>
   </g>
   <g id="text_36">
    <!-- Peers over time -->
    <g transform="translate(278.839375 16.318125)scale(0.12 -0.12)">
     <defs>
      <path id="DejaVuSans-50" d="M 1259 4147 
L 1259 2394 
L 2053 2394 
Q 2494 2394 2734 2622 
Q 2975 2850 2975 3272 
Q 2975 3691 2734 3919 
Q 2494 4147 2053 4147 
L 1259 4147 
z
M 628 4666 
L 2053 4666 
Q 2838 4666 3239 4311 
Q 3641 3956 3641 3272 
Q 3641 2581 3239 2228 
Q 2838 1875 2053 1875 
L 1259 1875 
L 1259 0 
L 628 0 
L 628 4666 
z
" transform="scale(0.015625)"/>
      <path id="DejaVuSans-72" d="M 2631 2963 
Q 2534 3019 2420 3045 
Q 2306 3072 2169 3072 
Q 1681 3072 1420 2755 
Q 1159 2438 1159 1844 
L 1159 0 
L 581 0 
L 581 3500 
L 1159 3500 
L 1159 2956 
Q 1341 3275 1631 3429 
Q 1922 3584 2338 3584 
Q 2397 3584 2469 3576 
Q 2541 3569 2628 3553 
L 2631 2963 
z
" transform="scale(0.015625)"/>
      <path id="DejaVuSans-73" d="M 2834 3397 
L 2834 2853 
Q 2591 2978 2328 3040 
Q 2066 3103 1784 3103 
Q 1356 3103 1142 2972 
Q 928 2841 928 2578 
Q 928 2378 1081 2264 
Q 1234 2150 1697 2047 
L 1894 2003 
Q 2506 1872 2764 1633 
Q 3022 1394 3022 966 
Q 3022 478 2636 193 
Q 2250 -91 1575 -91 
Q 1294 -91 989 -36 
Q 684 19 347 128 
L 347 722 
Q 666 556 975 473 
Q 1284 391 1588 391 
Q 1994 391 2212 530 
Q 2431 669 2431 922 
Q 2431 1156 2273 1281 
Q 2116 1406 1581 1522 
L 1381 1569 
Q 847 1681 609 1914 
Q 372 2147 372 2553 
Q 372 3047 722 3315 
Q 1072 3584 1716 3584 
Q 2034 3584 2315 3537 
Q 2597 3491 2834 3397 
z
" transform="scale(0.015625)"/>
      <path id="DejaVuSans-20" transform="scale(0.015625)"/>
      <path id="DejaVuSans-76" d="M 191 3500 
L 800 3500 
L 1894 563 
L 2988 3500 
L 3597 3500 
L 2284 0 
L 1503 0 
L 191 3500 
z
" transform="scale(0.015625)"/>
      <path id="DejaVuSans-69" d="M 603 3500 
L 1178 3500 
L 1178 0 
L 603 0 
L 603 3500 
z
M 603 4863 
L 1178 4863 
L 1178 4134 
L 603 4134 
L 603 4863 
z
" transform="scale(0.015625)"/>
      <path id="DejaVuSans-6d" d="M 3328 2828 
Q 3544 3216 3844 3400 
Q 4144 3584 4550 3584 
Q 5097 3584 5394 3201 
Q 5691 2819 5691 2113 
L 5691 0 
L 5113 0 
L 5113 2094 
Q 5113 2597 4934 2840 
Q 4756 3084 4391 3084 
Q 3944 3084 3684 2787 
Q 3425 2491 3425 1978 
L 3425 0 
L 2847 0 
L 2847 2094 
Q 2847 2600 2669 2842 
Q 2491 3084 2119 3084 
Q 1678 3084 1418 2786 
Q 1159 2488 1159 1978 
L 1159 0 
L 581 0 
L 581 3500 
L 1159 3500 
L 1159 2956 
Q 1356 3278 1631 3431 
Q 1906 3584 2284 3584 
Q 2666 3584 2933 3390 
Q 3200 3197 3328 2828 
z
" transform="scale(0.015625)"/>
     </defs>
     <use xlink:href="#DejaVuSans-50"/>
     <use xlink:href="#DejaVuSans-65" x="56.677734"/>
     <use xlink:href="#DejaVuSans-65" x="118.201172"/>
     <use xlink:href="#DejaVuSans-72" x="179.724609"/>
     <use xlink:href="#DejaVuSans-73" x="220.837891"/>
     <use xlink:href="#DejaVuSans-20" x="272.9375"/>
     <use xlink:href="#DejaVuSans-6f" x="304.724609"/>
     <use xlink:href="#DejaVuSans-76" x="365.90625"/>
     <use xlink:href="#DejaVuSans-65" x="425.085938"/>
     <use xlink:href="#DejaVuSans-72" x="486.609375"/>
     <use xlink:href="#DejaVuSans-20" x="527.722656"/>
     <use xlink:href="#DejaVuSans-74" x="559.509766"/>
     <use xlink:href="#DejaVuSans-69" x="598.71875"/>
     <use xlink:href="#DejaVuSans-6d" x="626.501953"/>
     <use xlink:href="#DejaVuSans-65" x="723.914062"/>
    </g>
   </g>
   <g id="legend_1">
    <g id="patch_7">
     <path d="M 53.965625 74.3525 
L 184.029688 74.3525 
Q 186.029688 74.3525 186.029688 72.3525 
L 186.029688 29.318125 
Q 186.029688 27.318125 184.029688 27.318125 
L 53.965625 27.318125 
Q 51.965625 27.318125 51.965625 29.318125 
L 51.965625 72.3525 
Q 51.965625 74.3525 53.965625 74.3525 
z
" style="fill: #ffffff; opacity: 0.8; stroke: #cccccc; stroke-linejoin: miter"/>
    </g>
    <g id="line2d_64">
     <path d="M 55.965625 35.416562 
L 65.965625 35.416562 
L 75.965625 35.416562 
" style="fill: none; stroke: #1f77b4; stroke-opacity: 0.8; stroke-width: 1.5; stroke-linecap: square"/>
    </g>
    <g id="text_37">
     <!-- eBGP routers -->
     <g transform="translate(83.965625 38.916562)scale(0.1 -0.1)">
      <defs>
       <path id="DejaVuSans-42" d="M 1259 2228 
L 1259 519 
L 2272 519 
Q 2781 519 3026 730 
Q 3272 941 3272 1375 
Q 3272 1813 3026 2020 
Q 2781 2228 2272 2228 
L 1259 2228 
z
M 1259 4147 
L 1259 2741 
L 2194 2741 
Q 2656 2741 2882 2914 
Q 3109 3088 3109 3444 
Q 3109 3797 2882 3972 
Q 2656 4147 2194 4147 
L 1259 4147 
z
M 628 4666 
L 2241 4666 
Q 2963 4666 3353 4366 
Q 3744 4066 3744 3513 
Q 3744 3084 3544 2831 
Q 3344 2578 2956 2516 
Q 3422 2416 3680 2098 
Q 3938 1781 3938 1306 
Q 3938 681 3513 340 
Q 3088 0 2303 0 
L 628 0 
L 628 4666 
z
" transform="scale(0.015625)"/>
       <path id="DejaVuSans-47" d="M 3809 666 
L 3809 1919 
L 2778 1919 
L 2778 2438 
L 4434 2438 
L 4434 434 
Q 4069 175 3628 42 
Q 3188 -91 2688 -91 
Q 1594 -91 976 548 
Q 359 1188 359 2328 
Q 359 3472 976 4111 
Q 1594 4750 2688 4750 
Q 3144 4750 3555 4637 
Q 3966 4525 4313 4306 
L 4313 3634 
Q 3963 3931 3569 4081 
Q 3175 4231 2741 4231 
Q 1884 4231 1454 3753 
Q 1025 3275 1025 2328 
Q 1025 1384 1454 906 
Q 1884 428 2741 428 
Q 3075 428 3337 486 
Q 3600 544 3809 666 
z
" transform="scale(0.015625)"/>
      </defs>
      <use xlink:href="#DejaVuSans-65"/>
      <use xlink:href="#DejaVuSans-42" x="61.523438"/>
      <use xlink:href="#DejaVuSans-47" x="128.376953"/>
      <use xlink:href="#DejaVuSans-50" x="205.867188"/>
      <use xlink:href="#DejaVuSans-20" x="266.169922"/>
      <use xlink:href="#DejaVuSans-72" x="297.957031"/>
      <use xlink:href="#DejaVuSans-6f" x="336.820312"/>
      <use xlink:href="#DejaVuSans-75" x="398.001953"/>
      <use xlink:href="#DejaVuSans-74" x="461.380859"/>
      <use xlink:href="#DejaVuSans-65" x="500.589844"/>
      <use xlink:href="#DejaVuSans-72" x="562.113281"/>
      <use xlink:href="#DejaVuSans-73" x="603.226562"/>
     </g>
    </g>
    <g id="line2d_65">
     <path d="M 55.965625 50.094687 
L 65.965625 50.094687 
L 75.965625 50.094687 
" style="fill: none; stroke: #ff7f0e; stroke-opacity: 0.8; stroke-width: 1.5; stroke-linecap: square"/>
    </g>
    <g id="text_38">
     <!-- total eBGP sessions -->
     <g transform="translate(83.965625 53.594687)scale(0.1 -0.1)">
      <defs>
       <path id="DejaVuSans-6c" d="M 603 4863 
L 1178 4863 
L 1178 0 
L 603 0 
L 603 4863 
z
" transform="scale(0.015625)"/>
      </defs>
      <use xlink:href="#DejaVuSans-74"/>
      <use xlink:href="#DejaVuSans-6f" x="39.208984"/>
      <use xlink:href="#DejaVuSans-74" x="100.390625"/>
      <use xlink:href="#DejaVuSans-61" x="139.599609"/>
      <use xlink:href="#DejaVuSans-6c" x="200.878906"/>
      <use xlink:href="#DejaVuSans-20" x="228.662109"/>
      <use xlink:href="#DejaVuSans-65" x="260.449219"/>
      <use xlink:href="#DejaVuSans-42" x="321.972656"/>
      <use xlink:href="#DejaVuSans-47" x="388.826172"/>
      <use xlink:href="#DejaVuSans-50" x="466.316406"/>
      <use xlink:href="#DejaVuSans-20" x="526.619141"/>
      <use xlink:href="#DejaVuSans-73" x="558.40625"/>
      <use xlink:href="#DejaVuSans-65" x="610.505859"/>
      <use xlink:href="#DejaVuSans-73" x="672.029297"/>
      <use xlink:href="#DejaVuSans-73" x="724.128906"/>
      <use xlink:href="#DejaVuSans-69" x="776.228516"/>
      <use xlink:href="#DejaVuSans-6f" x="804.011719"/>
      <use xlink:href="#DejaVuSans-6e" x="865.193359"/>
      <use xlink:href="#DejaVuSans-73" x="928.572266"/>
     </g>
    </g>
    <g id="line2d_66">
     <path d="M 55.965625 64.772812 
L 65.965625 64.772812 
L 75.965625 64.772812 
" style="fill: none; stroke: #2ca02c; stroke-opacity: 0.8; stroke-width: 1.5; stroke-linecap: square"/>
    </g>
    <g id="text_39">
     <!-- unique eBGP peers -->
     <g transform="translate(83.965625 68.272812)scale(0.1 -0.1)">
      <defs>
       <path id="DejaVuSans-71" d="M 947 1747 
Q 947 1113 1208 752 
Q 1469 391 1925 391 
Q 2381 391 2643 752 
Q 2906 1113 2906 1747 
Q 2906 2381 2643 2742 
Q 2381 3103 1925 3103 
Q 1469 3103 1208 2742 
Q 947 2381 947 1747 
z
M 2906 525 
Q 2725 213 2448 61 
Q 2172 -91 1784 -91 
Q 1150 -91 751 415 
Q 353 922 353 1747 
Q 353 2572 751 3078 
Q 1150 3584 1784 3584 
Q 2172 3584 2448 3432 
Q 2725 3281 2906 2969 
L 2906 3500 
L 3481 3500 
L 3481 -1331 
L 2906 -1331 
L 2906 525 
z
" transform="scale(0.015625)"/>
       <path id="DejaVuSans-70" d="M 1159 525 
L 1159 -1331 
L 581 -1331 
L 581 3500 
L 1159 3500 
L 1159 2969 
Q 1341 3281 1617 3432 
Q 1894 3584 2278 3584 
Q 2916 3584 3314 3078 
Q 3713 2572 3713 1747 
Q 3713 922 3314 415 
Q 2916 -91 2278 -91 
Q 1894 -91 1617 61 
Q 1341 213 1159 525 
z
M 3116 1747 
Q 3116 2381 2855 2742 
Q 2594 3103 2138 3103 
Q 1681 3103 1420 2742 
Q 1159 2381 1159 1747 
Q 1159 1113 1420 752 
Q 1681 391 2138 391 
Q 2594 391 2855 752 
Q 3116 1113 3116 1747 
z
" transform="scale(0.015625)"/>
      </defs>
      <use xlink:href="#DejaVuSans-75"/>
      <use xlink:href="#DejaVuSans-6e" x="63.378906"/>
      <use xlink:href="#DejaVuSans-69" x="126.757812"/>
      <use xlink:href="#DejaVuSans-71" x="154.541016"/>
      <use xlink:href="#DejaVuSans-75" x="218.017578"/>
      <use xlink:href="#DejaVuSans-65" x="281.396484"/>
      <use xlink:href="#DejaVuSans-20" x="342.919922"/>
      <use xlink:href="#DejaVuSans-65" x="374.707031"/>
      <use xlink:href="#DejaVuSans-42" x="436.230469"/>
      <use xlink:href="#DejaVuSans-47" x="503.083984"/>
      <use xlink:href="#DejaVuSans-50" x="580.574219"/>
      <use xlink:href="#DejaVuSans-20" x="640.876953"/>
      <use xlink:href="#DejaVuSans-70" x="672.664062"/>
      <use xlink:href="#DejaVuSans-65" x="736.140625"/>
      <use xlink:href="#DejaVuSans-65" x="797.664062"/>
      <use xlink:href="#DejaVuSans-72" x="859.1875"/>
      <use xlink:href="#DejaVuSans-73" x="900.300781"/>
     </g>
    </g>
   </g>
  </g>
 </g>
 <defs>
  <clipPath id="p171975126e">
   <rect x="46.965625" y="22.318125" width="558" height="391.68"/>
  </clipPath>
 </defs>
</svg>
