<?xml version="1.0" encoding="utf-8" standalone="no"?>
<!DOCTYPE svg PUBLIC "-//W3C//DTD SVG 1.1//EN"
  "http://www.w3.org/Graphics/SVG/1.1/DTD/svg11.dtd">
<svg xmlns:xlink="http://www.w3.org/1999/xlink" width="612.165625pt" height="503.394375pt" viewBox="0 0 612.165625 503.394375" xmlns="http://www.w3.org/2000/svg" version="1.1">
 <metadata>
  <rdf:RDF xmlns:dc="http://purl.org/dc/elements/1.1/" xmlns:cc="http://creativecommons.org/ns#" xmlns:rdf="http://www.w3.org/1999/02/22-rdf-syntax-ns#">
   <cc:Work>
    <dc:type rdf:resource="http://purl.org/dc/dcmitype/StillImage"/>
    <dc:format>image/svg+xml</dc:format>
    <dc:creator>
     <cc:Agent>
      <dc:title>Matplotlib v3.6.3, https://matplotlib.org/</dc:title>
     </cc:Agent>
    </dc:creator>
   </cc:Work>
  </rdf:RDF>
 </metadata>
 <defs>
  <style type="text/css">*{stroke-linejoin: round; stroke-linecap: butt}</style>
 </defs>
 <g id="figure_1">
  <g id="patch_1">
   <path d="M 0 503.394375 
L 612.165625 503.394375 
L 612.165625 0 
L 0 0 
z
" style="fill: #ffffff"/>
  </g>
  <g id="axes_1">
   <g id="patch_2">
    <path d="M 46.965625 465.838125 
L 604.965625 465.838125 
L 604.965625 22.318125 
L 46.965625 22.318125 
z
" style="fill: #ffffff"/>
   </g>
   <g id="matplotlib.axis_1">
    <g id="xtick_1">
     <g id="line2d_1">
      <path d="M 84.849934 465.838125 
L 84.849934 22.318125 
" clip-path="url(#pebb6d4d2a1)" style="fill: none; stroke: #b0b0b0; stroke-opacity: 0.6; stroke-width: 0.8; stroke-linecap: square"/>
     </g>
     <g id="line2d_2">
      <defs>
       <path id="m4989ca4dfe" d="M 0 0 
L 0 3.5 
" style="stroke: #000000; stroke-width: 0.8"/>
      </defs>
      <g>
       <use xlink:href="#m4989ca4dfe" x="84.849934" y="465.838125" style="stroke: #000000; stroke-width: 0.8"/>
      </g>
     </g>
     <g id="text_1">
      <!-- 2020-07 -->
      <g transform="translate(63.958528 480.436562) scale(0.1 -0.1)">
       <defs>
        <path id="DejaVuSans-32" d="M 1228 531 
L 3431 531 
L 3431 0 
L 469 0 
L 469 531 
Q 828 903 1448 1529 
Q 2069 2156 2228 2338 
Q 2531 2678 2651 2914 
Q 2772 3150 2772 3378 
Q 2772 3750 2511 3984 
Q 2250 4219 1831 4219 
Q 1534 4219 1204 4116 
Q 875 4013 500 3803 
L 500 4441 
Q 881 4594 1212 4672 
Q 1544 4750 1819 4750 
Q 2544 4750 2975 4387 
Q 3406 4025 3406 3419 
Q 3406 3131 3298 2873 
Q 3191 2616 2906 2266 
Q 2828 2175 2409 1742 
Q 1991 1309 1228 531 
z
" transform="scale(0.015625)"/>
        <path id="DejaVuSans-30" d="M 2034 4250 
Q 1547 4250 1301 3770 
Q 1056 3291 1056 2328 
Q 1056 1369 1301 889 
Q 1547 409 2034 409 
Q 2525 409 2770 889 
Q 3016 1369 3016 2328 
Q 3016 3291 2770 3770 
Q 2525 4250 2034 4250 
z
M 2034 4750 
Q 2819 4750 3233 4129 
Q 3647 3509 3647 2328 
Q 3647 1150 3233 529 
Q 2819 -91 2034 -91 
Q 1250 -91 836 529 
Q 422 1150 422 2328 
Q 422 3509 836 4129 
Q 1250 4750 2034 4750 
z
" transform="scale(0.015625)"/>
        <path id="DejaVuSans-2d" d="M 313 2009 
L 1997 2009 
L 1997 1497 
L 313 1497 
L 313 2009 
z
" transform="scale(0.015625)"/>
        <path id="DejaVuSans-37" d="M 525 4666 
L 3525 4666 
L 3525 4397 
L 1831 0 
L 1172 0 
L 2766 4134 
L 525 4134 
L 525 4666 
z
" transform="scale(0.015625)"/>
       </defs>
       <use xlink:href="#DejaVuSans-32"/>
       <use xlink:href="#DejaVuSans-30" x="63.623047"/>
       <use xlink:href="#DejaVuSans-32" x="127.246094"/>
       <use xlink:href="#DejaVuSans-30" x="190.869141"/>
       <use xlink:href="#DejaVuSans-2d" x="254.492188"/>
       <use xlink:href="#DejaVuSans-30" x="290.576172"/>
       <use xlink:href="#DejaVuSans-37" x="354.199219"/>
      </g>
     </g>
    </g>
    <g id="xtick_2">
     <g id="line2d_3">
      <path d="M 154.518052 465.838125 
L 154.518052 22.318125 
" clip-path="url(#pebb6d4d2a1)" style="fill: none; stroke: #b0b0b0; stroke-opacity: 0.6; stroke-width: 0.8; stroke-linecap: square"/>
     </g>
     <g id="line2d_4">
      <g>
       <use xlink:href="#m4989ca4dfe" x="154.518052" y="465.838125" style="stroke: #000000; stroke-width: 0.8"/>
      </g>
     </g>
     <g id="text_2">
      <!-- 2021-01 -->
      <g transform="translate(133.626646 480.436562) scale(0.1 -0.1)">
       <defs>
        <path id="DejaVuSans-31" d="M 794 531 
L 1825 531 
L 1825 4091 
L 703 3866 
L 703 4441 
L 1819 4666 
L 2450 4666 
L 2450 531 
L 3481 531 
L 3481 0 
L 794 0 
L 794 531 
z
" transform="scale(0.015625)"/>
       </defs>
       <use xlink:href="#DejaVuSans-32"/>
       <use xlink:href="#DejaVuSans-30" x="63.623047"/>
       <use xlink:href="#DejaVuSans-32" x="127.246094"/>
       <use xlink:href="#DejaVuSans-31" x="190.869141"/>
       <use xlink:href="#DejaVuSans-2d" x="254.492188"/>
       <use xlink:href="#DejaVuSans-30" x="290.576172"/>
       <use xlink:href="#DejaVuSans-31" x="354.199219"/>
      </g>
     </g>
    </g>
    <g id="xtick_3">
     <g id="line2d_5">
      <path d="M 223.050277 465.838125 
L 223.050277 22.318125 
" clip-path="url(#pebb6d4d2a1)" style="fill: none; stroke: #b0b0b0; stroke-opacity: 0.6; stroke-width: 0.8; stroke-linecap: square"/>
     </g>
     <g id="line2d_6">
      <g>
       <use xlink:href="#m4989ca4dfe" x="223.050277" y="465.838125" style="stroke: #000000; stroke-width: 0.8"/>
      </g>
     </g>
     <g id="text_3">
      <!-- 2021-07 -->
      <g transform="translate(202.158871 480.436562) scale(0.1 -0.1)">
       <use xlink:href="#DejaVuSans-32"/>
       <use xlink:href="#DejaVuSans-30" x="63.623047"/>
       <use xlink:href="#DejaVuSans-32" x="127.246094"/>
       <use xlink:href="#DejaVuSans-31" x="190.869141"/>
       <use xlink:href="#DejaVuSans-2d" x="254.492188"/>
       <use xlink:href="#DejaVuSans-30" x="290.576172"/>
       <use xlink:href="#DejaVuSans-37" x="354.199219"/>
      </g>
     </g>
    </g>
    <g id="xtick_4">
     <g id="line2d_7">
      <path d="M 292.718396 465.838125 
L 292.718396 22.318125 
" clip-path="url(#pebb6d4d2a1)" style="fill: none; stroke: #b0b0b0; stroke-opacity: 0.6; stroke-width: 0.8; stroke-linecap: square"/>
     </g>
     <g id="line2d_8">
      <g>
       <use xlink:href="#m4989ca4dfe" x="292.718396" y="465.838125" style="stroke: #000000; stroke-width: 0.8"/>
      </g>
     </g>
     <g id="text_4">
      <!-- 2022-01 -->
      <g transform="translate(271.82699 480.436562) scale(0.1 -0.1)">
       <use xlink:href="#DejaVuSans-32"/>
       <use xlink:href="#DejaVuSans-30" x="63.623047"/>
       <use xlink:href="#DejaVuSans-32" x="127.246094"/>
       <use xlink:href="#DejaVuSans-32" x="190.869141"/>
       <use xlink:href="#DejaVuSans-2d" x="254.492188"/>
       <use xlink:href="#DejaVuSans-30" x="290.576172"/>
       <use xlink:href="#DejaVuSans-31" x="354.199219"/>
      </g>
     </g>
    </g>
    <g id="xtick_5">
     <g id="line2d_9">
      <path d="M 361.250621 465.838125 
L 361.250621 22.318125 
" clip-path="url(#pebb6d4d2a1)" style="fill: none; stroke: #b0b0b0; stroke-opacity: 0.6; stroke-width: 0.8; stroke-linecap: square"/>
     </g>
     <g id="line2d_10">
      <g>
       <use xlink:href="#m4989ca4dfe" x="361.250621" y="465.838125" style="stroke: #000000; stroke-width: 0.8"/>
      </g>
     </g>
     <g id="text_5">
      <!-- 2022-07 -->
      <g transform="translate(340.359215 480.436562) scale(0.1 -0.1)">
       <use xlink:href="#DejaVuSans-32"/>
       <use xlink:href="#DejaVuSans-30" x="63.623047"/>
       <use xlink:href="#DejaVuSans-32" x="127.246094"/>
       <use xlink:href="#DejaVuSans-32" x="190.869141"/>
       <use xlink:href="#DejaVuSans-2d" x="254.492188"/>
       <use xlink:href="#DejaVuSans-30" x="290.576172"/>
       <use xlink:href="#DejaVuSans-37" x="354.199219"/>
      </g>
     </g>
    </g>
    <g id="xtick_6">
     <g id="line2d_11">
      <path d="M 430.91874 465.838125 
L 430.91874 22.318125 
" clip-path="url(#pebb6d4d2a1)" style="fill: none; stroke: #b0b0b0; stroke-opacity: 0.6; stroke-width: 0.8; stroke-linecap: square"/>
     </g>
     <g id="line2d_12">
      <g>
       <use xlink:href="#m4989ca4dfe" x="430.91874" y="465.838125" style="stroke: #000000; stroke-width: 0.8"/>
      </g>
     </g>
     <g id="text_6">
      <!-- 2023-01 -->
      <g transform="translate(410.027333 480.436562) scale(0.1 -0.1)">
       <defs>
        <path id="DejaVuSans-33" d="M 2597 2516 
Q 3050 2419 3304 2112 
Q 3559 1806 3559 1356 
Q 3559 666 3084 287 
Q 2609 -91 1734 -91 
Q 1441 -91 1130 -33 
Q 819 25 488 141 
L 488 750 
Q 750 597 1062 519 
Q 1375 441 1716 441 
Q 2309 441 2620 675 
Q 2931 909 2931 1356 
Q 2931 1769 2642 2001 
Q 2353 2234 1838 2234 
L 1294 2234 
L 1294 2753 
L 1863 2753 
Q 2328 2753 2575 2939 
Q 2822 3125 2822 3475 
Q 2822 3834 2567 4026 
Q 2313 4219 1838 4219 
Q 1578 4219 1281 4162 
Q 984 4106 628 3988 
L 628 4550 
Q 988 4650 1302 4700 
Q 1616 4750 1894 4750 
Q 2613 4750 3031 4423 
Q 3450 4097 3450 3541 
Q 3450 3153 3228 2886 
Q 3006 2619 2597 2516 
z
" transform="scale(0.015625)"/>
       </defs>
       <use xlink:href="#DejaVuSans-32"/>
       <use xlink:href="#DejaVuSans-30" x="63.623047"/>
       <use xlink:href="#DejaVuSans-32" x="127.246094"/>
       <use xlink:href="#DejaVuSans-33" x="190.869141"/>
       <use xlink:href="#DejaVuSans-2d" x="254.492188"/>
       <use xlink:href="#DejaVuSans-30" x="290.576172"/>
       <use xlink:href="#DejaVuSans-31" x="354.199219"/>
      </g>
     </g>
    </g>
    <g id="xtick_7">
     <g id="line2d_13">
      <path d="M 499.450965 465.838125 
L 499.450965 22.318125 
" clip-path="url(#pebb6d4d2a1)" style="fill: none; stroke: #b0b0b0; stroke-opacity: 0.6; stroke-width: 0.8; stroke-linecap: square"/>
     </g>
     <g id="line2d_14">
      <g>
       <use xlink:href="#m4989ca4dfe" x="499.450965" y="465.838125" style="stroke: #000000; stroke-width: 0.8"/>
      </g>
     </g>
     <g id="text_7">
      <!-- 2023-07 -->
      <g transform="translate(478.559559 480.436562) scale(0.1 -0.1)">
       <use xlink:href="#DejaVuSans-32"/>
       <use xlink:href="#DejaVuSans-30" x="63.623047"/>
       <use xlink:href="#DejaVuSans-32" x="127.246094"/>
       <use xlink:href="#DejaVuSans-33" x="190.869141"/>
       <use xlink:href="#DejaVuSans-2d" x="254.492188"/>
       <use xlink:href="#DejaVuSans-30" x="290.576172"/>
       <use xlink:href="#DejaVuSans-37" x="354.199219"/>
      </g>
     </g>
    </g>
    <g id="xtick_8">
     <g id="line2d_15">
      <path d="M 569.119083 465.838125 
L 569.119083 22.318125 
" clip-path="url(#pebb6d4d2a1)" style="fill: none; stroke: #b0b0b0; stroke-opacity: 0.6; stroke-width: 0.8; stroke-linecap: square"/>
     </g>
     <g id="line2d_16">
      <g>
       <use xlink:href="#m4989ca4dfe" x="569.119083" y="465.838125" style="stroke: #000000; stroke-width: 0.8"/>
      </g>
     </g>
     <g id="text_8">
      <!-- 2024-01 -->
      <g transform="translate(548.227677 480.436562) scale(0.1 -0.1)">
       <defs>
        <path id="DejaVuSans-34" d="M 2419 4116 
L 825 1625 
L 2419 1625 
L 2419 4116 
z
M 2253 4666 
L 3047 4666 
L 3047 1625 
L 3713 1625 
L 3713 1100 
L 3047 1100 
L 3047 0 
L 2419 0 
L 2419 1100 
L 313 1100 
L 313 1709 
L 2253 4666 
z
" transform="scale(0.015625)"/>
       </defs>
       <use xlink:href="#DejaVuSans-32"/>
       <use xlink:href="#DejaVuSans-30" x="63.623047"/>
       <use xlink:href="#DejaVuSans-32" x="127.246094"/>
       <use xlink:href="#DejaVuSans-34" x="190.869141"/>
       <use xlink:href="#DejaVuSans-2d" x="254.492188"/>
       <use xlink:href="#DejaVuSans-30" x="290.576172"/>
       <use xlink:href="#DejaVuSans-31" x="354.199219"/>
      </g>
     </g>
    </g>
    <g id="text_9">
     <!-- Date -->
     <g transform="translate(314.014844 494.114687) scale(0.1 -0.1)">
      <defs>
       <path id="DejaVuSans-44" d="M 1259 4147 
L 1259 519 
L 2022 519 
Q 2988 519 3436 956 
Q 3884 1394 3884 2338 
Q 3884 3275 3436 3711 
Q 2988 4147 2022 4147 
L 1259 4147 
z
M 628 4666 
L 1925 4666 
Q 3281 4666 3915 4102 
Q 4550 3538 4550 2338 
Q 4550 1131 3912 565 
Q 3275 0 1925 0 
L 628 0 
L 628 4666 
z
" transform="scale(0.015625)"/>
       <path id="DejaVuSans-61" d="M 2194 1759 
Q 1497 1759 1228 1600 
Q 959 1441 959 1056 
Q 959 750 1161 570 
Q 1363 391 1709 391 
Q 2188 391 2477 730 
Q 2766 1069 2766 1631 
L 2766 1759 
L 2194 1759 
z
M 3341 1997 
L 3341 0 
L 2766 0 
L 2766 531 
Q 2569 213 2275 61 
Q 1981 -91 1556 -91 
Q 1019 -91 701 211 
Q 384 513 384 1019 
Q 384 1609 779 1909 
Q 1175 2209 1959 2209 
L 2766 2209 
L 2766 2266 
Q 2766 2663 2505 2880 
Q 2244 3097 1772 3097 
Q 1472 3097 1187 3025 
Q 903 2953 641 2809 
L 641 3341 
Q 956 3463 1253 3523 
Q 1550 3584 1831 3584 
Q 2591 3584 2966 3190 
Q 3341 2797 3341 1997 
z
" transform="scale(0.015625)"/>
       <path id="DejaVuSans-74" d="M 1172 4494 
L 1172 3500 
L 2356 3500 
L 2356 3053 
L 1172 3053 
L 1172 1153 
Q 1172 725 1289 603 
Q 1406 481 1766 481 
L 2356 481 
L 2356 0 
L 1766 0 
Q 1100 0 847 248 
Q 594 497 594 1153 
L 594 3053 
L 172 3053 
L 172 3500 
L 594 3500 
L 594 4494 
L 1172 4494 
z
" transform="scale(0.015625)"/>
       <path id="DejaVuSans-65" d="M 3597 1894 
L 3597 1613 
L 953 1613 
Q 991 1019 1311 708 
Q 1631 397 2203 397 
Q 2534 397 2845 478 
Q 3156 559 3463 722 
L 3463 178 
Q 3153 47 2828 -22 
Q 2503 -91 2169 -91 
Q 1331 -91 842 396 
Q 353 884 353 1716 
Q 353 2575 817 3079 
Q 1281 3584 2069 3584 
Q 2775 3584 3186 3129 
Q 3597 2675 3597 1894 
z
M 3022 2063 
Q 3016 2534 2758 2815 
Q 2500 3097 2075 3097 
Q 1594 3097 1305 2825 
Q 1016 2553 972 2059 
L 3022 2063 
z
" transform="scale(0.015625)"/>
      </defs>
      <use xlink:href="#DejaVuSans-44"/>
      <use xlink:href="#DejaVuSans-61" x="77.001953"/>
      <use xlink:href="#DejaVuSans-74" x="138.28125"/>
      <use xlink:href="#DejaVuSans-65" x="177.490234"/>
     </g>
    </g>
   </g>
   <g id="matplotlib.axis_2">
    <g id="ytick_1">
     <g id="line2d_17">
      <path d="M 46.965625 447.078125 
L 604.965625 447.078125 
" clip-path="url(#pebb6d4d2a1)" style="fill: none; stroke: #b0b0b0; stroke-opacity: 0.6; stroke-width: 0.8; stroke-linecap: square"/>
     </g>
     <g id="line2d_18">
      <defs>
       <path id="mc11dc46687" d="M 0 0 
L -3.5 0 
" style="stroke: #000000; stroke-width: 0.8"/>
      </defs>
      <g>
       <use xlink:href="#mc11dc46687" x="46.965625" y="447.078125" style="stroke: #000000; stroke-width: 0.8"/>
      </g>
     </g>
     <g id="text_10">
      <!-- 0 -->
      <g transform="translate(33.603125 450.877344) scale(0.1 -0.1)">
       <use xlink:href="#DejaVuSans-30"/>
      </g>
     </g>
    </g>
    <g id="ytick_2">
     <g id="line2d_19">
      <path d="M 46.965625 377.078125 
L 604.965625 377.078125 
" clip-path="url(#pebb6d4d2a1)" style="fill: none; stroke: #b0b0b0; stroke-opacity: 0.6; stroke-width: 0.8; stroke-linecap: square"/>
     </g>
     <g id="line2d_20">
      <g>
       <use xlink:href="#mc11dc46687" x="46.965625" y="377.078125" style="stroke: #000000; stroke-width: 0.8"/>
      </g>
     </g>
     <g id="text_11">
      <!-- 50 -->
      <g transform="translate(27.240625 380.877344) scale(0.1 -0.1)">
       <defs>
        <path id="DejaVuSans-35" d="M 691 4666 
L 3169 4666 
L 3169 4134 
L 1269 4134 
L 1269 2991 
Q 1406 3038 1543 3061 
Q 1681 3084 1819 3084 
Q 2600 3084 3056 2656 
Q 3513 2228 3513 1497 
Q 3513 744 3044 326 
Q 2575 -91 1722 -91 
Q 1428 -91 1123 -41 
Q 819 9 494 109 
L 494 744 
Q 775 591 1075 516 
Q 1375 441 1709 441 
Q 2250 441 2565 725 
Q 2881 1009 2881 1497 
Q 2881 1984 2565 2268 
Q 2250 2553 1709 2553 
Q 1456 2553 1204 2497 
Q 953 2441 691 2322 
L 691 4666 
z
" transform="scale(0.015625)"/>
       </defs>
       <use xlink:href="#DejaVuSans-35"/>
       <use xlink:href="#DejaVuSans-30" x="63.623047"/>
      </g>
     </g>
    </g>
    <g id="ytick_3">
     <g id="line2d_21">
      <path d="M 46.965625 307.078125 
L 604.965625 307.078125 
" clip-path="url(#pebb6d4d2a1)" style="fill: none; stroke: #b0b0b0; stroke-opacity: 0.6; stroke-width: 0.8; stroke-linecap: square"/>
     </g>
     <g id="line2d_22">
      <g>
       <use xlink:href="#mc11dc46687" x="46.965625" y="307.078125" style="stroke: #000000; stroke-width: 0.8"/>
      </g>
     </g>
     <g id="text_12">
      <!-- 100 -->
      <g transform="translate(20.878125 310.877344) scale(0.1 -0.1)">
       <use xlink:href="#DejaVuSans-31"/>
       <use xlink:href="#DejaVuSans-30" x="63.623047"/>
       <use xlink:href="#DejaVuSans-30" x="127.246094"/>
      </g>
     </g>
    </g>
    <g id="ytick_4">
     <g id="line2d_23">
      <path d="M 46.965625 237.078125 
L 604.965625 237.078125 
" clip-path="url(#pebb6d4d2a1)" style="fill: none; stroke: #b0b0b0; stroke-opacity: 0.6; stroke-width: 0.8; stroke-linecap: square"/>
     </g>
     <g id="line2d_24">
      <g>
       <use xlink:href="#mc11dc46687" x="46.965625" y="237.078125" style="stroke: #000000; stroke-width: 0.8"/>
      </g>
     </g>
     <g id="text_13">
      <!-- 150 -->
      <g transform="translate(20.878125 240.877344) scale(0.1 -0.1)">
       <use xlink:href="#DejaVuSans-31"/>
       <use xlink:href="#DejaVuSans-35" x="63.623047"/>
       <use xlink:href="#DejaVuSans-30" x="127.246094"/>
      </g>
     </g>
    </g>
    <g id="ytick_5">
     <g id="line2d_25">
      <path d="M 46.965625 167.078125 
L 604.965625 167.078125 
" clip-path="url(#pebb6d4d2a1)" style="fill: none; stroke: #b0b0b0; stroke-opacity: 0.6; stroke-width: 0.8; stroke-linecap: square"/>
     </g>
     <g id="line2d_26">
      <g>
       <use xlink:href="#mc11dc46687" x="46.965625" y="167.078125" style="stroke: #000000; stroke-width: 0.8"/>
      </g>
     </g>
     <g id="text_14">
      <!-- 200 -->
      <g transform="translate(20.878125 170.877344) scale(0.1 -0.1)">
       <use xlink:href="#DejaVuSans-32"/>
       <use xlink:href="#DejaVuSans-30" x="63.623047"/>
       <use xlink:href="#DejaVuSans-30" x="127.246094"/>
      </g>
     </g>
    </g>
    <g id="ytick_6">
     <g id="line2d_27">
      <path d="M 46.965625 97.078125 
L 604.965625 97.078125 
" clip-path="url(#pebb6d4d2a1)" style="fill: none; stroke: #b0b0b0; stroke-opacity: 0.6; stroke-width: 0.8; stroke-linecap: square"/>
     </g>
     <g id="line2d_28">
      <g>
       <use xlink:href="#mc11dc46687" x="46.965625" y="97.078125" style="stroke: #000000; stroke-width: 0.8"/>
      </g>
     </g>
     <g id="text_15">
      <!-- 250 -->
      <g transform="translate(20.878125 100.877344) scale(0.1 -0.1)">
       <use xlink:href="#DejaVuSans-32"/>
       <use xlink:href="#DejaVuSans-35" x="63.623047"/>
       <use xlink:href="#DejaVuSans-30" x="127.246094"/>
      </g>
     </g>
    </g>
    <g id="ytick_7">
     <g id="line2d_29">
      <path d="M 46.965625 27.078125 
L 604.965625 27.078125 
" clip-path="url(#pebb6d4d2a1)" style="fill: none; stroke: #b0b0b0; stroke-opacity: 0.6; stroke-width: 0.8; stroke-linecap: square"/>
     </g>
     <g id="line2d_30">
      <g>
       <use xlink:href="#mc11dc46687" x="46.965625" y="27.078125" style="stroke: #000000; stroke-width: 0.8"/>
      </g>
     </g>
     <g id="text_16">
      <!-- 300 -->
      <g transform="translate(20.878125 30.877344) scale(0.1 -0.1)">
       <use xlink:href="#DejaVuSans-33"/>
       <use xlink:href="#DejaVuSans-30" x="63.623047"/>
       <use xlink:href="#DejaVuSans-30" x="127.246094"/>
      </g>
     </g>
    </g>
    <g id="text_17">
     <!-- Count -->
     <g transform="translate(14.798437 258.926562) rotate(-90) scale(0.1 -0.1)">
      <defs>
       <path id="DejaVuSans-43" d="M 4122 4306 
L 4122 3641 
Q 3803 3938 3442 4084 
Q 3081 4231 2675 4231 
Q 1875 4231 1450 3742 
Q 1025 3253 1025 2328 
Q 1025 1406 1450 917 
Q 1875 428 2675 428 
Q 3081 428 3442 575 
Q 3803 722 4122 1019 
L 4122 359 
Q 3791 134 3420 21 
Q 3050 -91 2638 -91 
Q 1578 -91 968 557 
Q 359 1206 359 2328 
Q 359 3453 968 4101 
Q 1578 4750 2638 4750 
Q 3056 4750 3426 4639 
Q 3797 4528 4122 4306 
z
" transform="scale(0.015625)"/>
       <path id="DejaVuSans-6f" d="M 1959 3097 
Q 1497 3097 1228 2736 
Q 959 2375 959 1747 
Q 959 1119 1226 758 
Q 1494 397 1959 397 
Q 2419 397 2687 759 
Q 2956 1122 2956 1747 
Q 2956 2369 2687 2733 
Q 2419 3097 1959 3097 
z
M 1959 3584 
Q 2709 3584 3137 3096 
Q 3566 2609 3566 1747 
Q 3566 888 3137 398 
Q 2709 -91 1959 -91 
Q 1206 -91 779 398 
Q 353 888 353 1747 
Q 353 2609 779 3096 
Q 1206 3584 1959 3584 
z
" transform="scale(0.015625)"/>
       <path id="DejaVuSans-75" d="M 544 1381 
L 544 3500 
L 1119 3500 
L 1119 1403 
Q 1119 906 1312 657 
Q 1506 409 1894 409 
Q 2359 409 2629 706 
Q 2900 1003 2900 1516 
L 2900 3500 
L 3475 3500 
L 3475 0 
L 2900 0 
L 2900 538 
Q 2691 219 2414 64 
Q 2138 -91 1772 -91 
Q 1169 -91 856 284 
Q 544 659 544 1381 
z
M 1991 3584 
L 1991 3584 
z
" transform="scale(0.015625)"/>
       <path id="DejaVuSans-6e" d="M 3513 2113 
L 3513 0 
L 2938 0 
L 2938 2094 
Q 2938 2591 2744 2837 
Q 2550 3084 2163 3084 
Q 1697 3084 1428 2787 
Q 1159 2491 1159 1978 
L 1159 0 
L 581 0 
L 581 3500 
L 1159 3500 
L 1159 2956 
Q 1366 3272 1645 3428 
Q 1925 3584 2291 3584 
Q 2894 3584 3203 3211 
Q 3513 2838 3513 2113 
z
" transform="scale(0.015625)"/>
      </defs>
      <use xlink:href="#DejaVuSans-43"/>
      <use xlink:href="#DejaVuSans-6f" x="69.824219"/>
      <use xlink:href="#DejaVuSans-75" x="131.005859"/>
      <use xlink:href="#DejaVuSans-6e" x="194.384766"/>
      <use xlink:href="#DejaVuSans-74" x="257.763672"/>
     </g>
    </g>
   </g>
   <g id="line2d_31">
    <path d="M 579.601989 426.078125 
L 576.888764 426.078125 
L 576.888532 424.678125 
L 565.972379 424.678125 
L 565.720926 426.078125 
L 561.531071 426.078125 
L 561.530747 424.678125 
L 560.807272 424.678125 
L 560.790755 423.278125 
L 555.47531 423.278125 
L 555.311517 424.678125 
L 549.83322 424.678125 
L 549.746367 423.278125 
L 498.508581 423.278125 
L 498.498787 421.878125 
L 467.436651 421.878125 
L 467.257253 420.478125 
L 428.874311 420.478125 
L 428.874241 421.878125 
L 419.973497 421.878125 
L 419.17345 423.278125 
L 418.997466 423.278125 
L 418.743577 424.678125 
L 418.733178 423.278125 
L 416.892579 423.278125 
L 416.891541 424.678125 
L 404.317088 424.678125 
L 404.206764 423.278125 
L 394.148732 423.278125 
L 392.634058 421.878125 
L 375.639053 421.878125 
L 375.615065 423.278125 
L 362.7213 423.278125 
L 362.629859 424.678125 
L 350.455389 424.678125 
L 350.441944 426.078125 
L 349.015929 426.078125 
L 348.978123 427.478125 
L 341.839231 427.478125 
L 341.790978 426.078125 
L 335.412126 426.078125 
L 334.934604 427.478125 
L 311.459363 427.478125 
L 310.793919 426.078125 
L 299.82591 426.078125 
L 299.760842 424.678125 
L 290.818387 424.678125 
L 290.818356 423.278125 
L 281.299693 423.278125 
L 281.635899 423.278125 
L 281.263184 424.678125 
L 274.159154 424.678125 
L 274.153584 423.278125 
L 267.664987 423.278125 
L 267.329968 424.678125 
L 261.143829 424.678125 
L 261.060653 423.278125 
L 247.950928 423.278125 
L 247.95081 424.678125 
L 210.865982 424.678125 
L 210.809139 426.078125 
L 208.514446 426.078125 
L 208.514332 427.478125 
L 206.671311 427.478125 
L 206.671429 428.878125 
L 201.430355 428.878125 
L 200.989833 430.278125 
L 199.176085 430.278125 
L 198.993387 428.878125 
L 177.614465 428.878125 
L 177.597006 430.278125 
L 174.010646 430.278125 
L 173.626362 431.678125 
L 164.373026 431.678125 
L 164.360742 430.278125 
L 162.059647 430.278125 
L 162.050295 431.678125 
L 158.941265 431.678125 
L 158.577289 433.078125 
L 154.508893 433.078125 
L 154.484558 434.478125 
L 153.041777 434.478125 
L 152.849543 435.878125 
L 149.985632 435.878125 
L 149.982718 437.278125 
L 143.800567 437.278125 
L 142.955969 438.678125 
L 105.217762 438.678125 
L 105.19936 440.078125 
L 98.853477 440.078125 
L 98.841391 441.478125 
L 89.914212 441.478125 
L 89.659088 442.878125 
L 79.898355 442.878125 
L 79.528497 444.278125 
L 72.722696 444.278125 
L 72.329261 445.678125 
L 72.329261 445.678125 
" clip-path="url(#pebb6d4d2a1)" style="fill: none; stroke: #1f77b4; stroke-opacity: 0.8; stroke-width: 1.5; stroke-linecap: square"/>
   </g>
   <g id="line2d_32">
    <path d="M 579.601989 60.678125 
L 576.888764 60.678125 
L 576.888532 52.278125 
L 575.484595 53.678125 
L 575.483727 56.478125 
L 573.944412 56.478125 
L 573.263205 57.878125 
L 571.653155 57.878125 
L 571.568121 59.278125 
L 571.568029 62.078125 
L 569.362235 62.078125 
L 568.384346 63.478125 
L 567.996815 63.478125 
L 567.046455 70.478125 
L 567.035907 71.878125 
L 565.720926 71.878125 
L 565.531598 73.278125 
L 563.637303 73.278125 
L 563.637246 74.678125 
L 562.969948 74.678125 
L 561.531071 76.078125 
L 561.530747 74.678125 
L 560.807272 74.678125 
L 560.790755 73.278125 
L 560.41691 73.278125 
L 559.646128 76.078125 
L 556.938762 76.078125 
L 556.938482 73.278125 
L 555.778482 73.278125 
L 556.206155 73.278125 
L 555.686878 74.678125 
L 555.669292 62.078125 
L 555.492471 63.478125 
L 555.47531 62.078125 
L 555.311517 69.078125 
L 554.329276 70.478125 
L 549.83322 70.478125 
L 549.746367 66.278125 
L 544.707405 67.678125 
L 543.65411 67.678125 
L 542.962898 69.078125 
L 541.405063 69.078125 
L 541.035473 70.478125 
L 536.753913 70.478125 
L 535.738744 66.278125 
L 534.521576 69.078125 
L 532.724407 69.078125 
L 530.413903 70.478125 
L 529.293878 71.878125 
L 528.525611 73.278125 
L 524.226781 74.678125 
L 523.840179 74.678125 
L 523.840087 76.078125 
L 521.755959 76.078125 
L 521.755946 73.278125 
L 519.449399 73.278125 
L 518.631464 70.478125 
L 517.51374 70.478125 
L 515.724651 71.878125 
L 515.724586 73.278125 
L 515.499379 73.278125 
L 513.004266 74.678125 
L 512.252149 74.678125 
L 511.475797 87.278125 
L 508.819555 88.678125 
L 507.579561 88.678125 
L 508.088705 88.678125 
L 507.349972 94.278125 
L 506.927943 94.278125 
L 506.23638 95.678125 
L 499.259366 95.678125 
L 498.998203 97.078125 
L 498.887449 101.278125 
L 498.508581 101.278125 
L 498.498787 56.478125 
L 498.184326 55.078125 
L 497.365755 55.078125 
L 497.351543 56.478125 
L 493.67387 56.478125 
L 491.668957 57.878125 
L 489.11736 57.878125 
L 487.631855 56.478125 
L 487.620878 57.878125 
L 479.730907 57.878125 
L 479.662184 50.878125 
L 478.153707 50.878125 
L 476.628442 52.278125 
L 475.114338 52.278125 
L 475.114277 53.678125 
L 473.50726 55.078125 
L 471.994458 55.078125 
L 471.993231 57.878125 
L 471.737081 59.278125 
L 471.710782 60.678125 
L 471.389353 60.678125 
L 470.917471 62.078125 
L 470.842354 63.478125 
L 470.521272 63.478125 
L 470.442574 67.678125 
L 469.090695 70.478125 
L 467.436651 70.478125 
L 467.257253 63.478125 
L 463.403599 63.478125 
L 462.704104 64.878125 
L 461.530046 64.878125 
L 461.529975 66.278125 
L 460.76252 64.878125 
L 460.347336 66.278125 
L 457.329471 66.278125 
L 457.319028 67.678125 
L 456.257774 67.678125 
L 455.88796 66.278125 
L 454.601382 66.278125 
L 454.558137 69.078125 
L 450.179418 69.078125 
L 448.294063 70.478125 
L 447.875588 70.478125 
L 447.036333 71.878125 
L 439.610369 71.878125 
L 439.601859 73.278125 
L 436.94198 73.278125 
L 436.941437 76.078125 
L 432.426287 76.078125 
L 431.328113 77.478125 
L 430.413635 78.878125 
L 428.874311 78.878125 
L 428.874241 80.278125 
L 427.426056 80.278125 
L 427.084684 81.678125 
L 425.602439 81.678125 
L 424.823586 83.078125 
L 422.778461 83.078125 
L 421.389568 84.478125 
L 421.019211 85.878125 
L 419.973497 85.878125 
L 419.173722 84.478125 
L 419.17345 91.478125 
L 418.997466 90.078125 
L 418.743577 90.078125 
L 418.733178 76.078125 
L 418.569341 77.478125 
L 418.382685 81.678125 
L 415.70093 81.678125 
L 414.575848 76.078125 
L 414.575681 78.878125 
L 414.217012 80.278125 
L 414.199964 84.478125 
L 412.700861 90.078125 
L 412.653265 92.878125 
L 412.36065 92.878125 
L 412.298456 42.478125 
L 412.298356 45.278125 
L 410.777578 45.278125 
L 409.638358 48.078125 
L 409.5127 48.078125 
L 409.259924 49.478125 
L 407.796239 52.278125 
L 407.416188 53.678125 
L 407.408458 56.478125 
L 406.926996 57.878125 
L 406.627983 57.878125 
L 406.627913 62.078125 
L 405.497861 56.478125 
L 404.317088 57.878125 
L 404.206764 52.278125 
L 403.195674 52.278125 
L 403.195306 53.678125 
L 402.086925 55.078125 
L 399.498929 55.078125 
L 399.416472 53.678125 
L 398.693646 53.678125 
L 396.347676 57.878125 
L 398.693707 59.278125 
L 394.148732 59.278125 
L 392.634058 56.478125 
L 390.6808 56.478125 
L 390.680375 60.678125 
L 389.198345 60.678125 
L 389.198279 62.078125 
L 388.138187 62.078125 
L 386.96387 63.478125 
L 385.640129 66.278125 
L 383.009642 66.278125 
L 382.979492 67.678125 
L 377.398671 67.678125 
L 376.174733 69.078125 
L 375.639053 67.678125 
L 375.615065 70.478125 
L 373.7218 70.478125 
L 373.721725 71.878125 
L 371.651836 71.878125 
L 370.508177 74.678125 
L 370.508843 74.678125 
L 367.459807 74.678125 
L 366.843949 76.078125 
L 366.767092 77.478125 
L 366.545277 78.878125 
L 364.816033 78.878125 
L 365.380732 80.278125 
L 364.196739 84.478125 
L 364.074543 85.878125 
L 363.375557 85.878125 
L 363.160903 94.278125 
L 361.805452 94.278125 
L 360.128423 95.678125 
L 360.116108 97.078125 
L 359.91514 101.278125 
L 359.912835 94.278125 
L 359.547886 95.678125 
L 357.272677 95.678125 
L 357.074426 99.878125 
L 352.518657 101.278125 
L 352.518411 104.078125 
L 352.310374 105.478125 
L 351.374866 105.478125 
L 350.835379 106.878125 
L 350.455389 106.878125 
L 350.441944 109.678125 
L 349.663073 109.678125 
L 349.292663 112.478125 
L 349.015929 112.478125 
L 348.978123 115.278125 
L 348.328963 115.278125 
L 348.306942 118.078125 
L 348.306833 116.678125 
L 346.807406 116.678125 
L 346.661773 118.078125 
L 346.661703 119.478125 
L 346.363829 119.478125 
L 346.109874 120.878125 
L 345.714739 122.278125 
L 345.240548 122.278125 
L 344.934799 123.678125 
L 344.928611 129.278125 
L 343.719643 134.878125 
L 342.982736 134.878125 
L 342.94688 129.278125 
L 342.52 129.278125 
L 342.48517 130.678125 
L 342.249231 130.678125 
L 342.160748 125.078125 
L 341.839231 126.478125 
L 341.790978 120.878125 
L 341.119959 122.278125 
L 339.849613 122.278125 
L 339.655915 123.678125 
L 339.646011 125.078125 
L 339.290825 127.878125 
L 339.095585 127.878125 
L 339.095466 130.678125 
L 336.126823 132.078125 
L 335.446304 132.078125 
L 335.412126 133.478125 
L 334.987542 141.878125 
L 334.934604 140.478125 
L 332.019715 140.478125 
L 331.571357 143.278125 
L 330.215564 144.678125 
L 329.21891 144.678125 
L 329.218835 146.078125 
L 328.989408 147.478125 
L 326.638863 147.478125 
L 325.575944 148.878125 
L 325.573722 147.478125 
L 322.871909 148.878125 
L 321.64063 148.878125 
L 321.487053 150.278125 
L 319.86993 151.678125 
L 319.52946 153.078125 
L 318.824137 151.678125 
L 317.709743 154.478125 
L 314.86863 154.478125 
L 314.676422 155.878125 
L 311.459363 155.878125 
L 310.793919 146.078125 
L 309.697817 147.478125 
L 309.695631 148.878125 
L 308.892753 150.278125 
L 308.058489 154.478125 
L 308.053156 157.278125 
L 306.633868 160.078125 
L 306.556818 164.278125 
L 306.175983 165.678125 
L 302.77507 168.478125 
L 302.514559 158.678125 
L 301.979677 160.078125 
L 301.979607 162.878125 
L 299.894244 162.878125 
L 299.82591 165.678125 
L 299.760842 158.678125 
L 299.17562 158.678125 
L 298.292336 160.078125 
L 298.047606 160.078125 
L 298.033846 161.478125 
L 296.688785 161.478125 
L 296.406902 162.878125 
L 296.316162 164.278125 
L 295.619315 164.278125 
L 295.618986 167.078125 
L 295.297259 167.078125 
L 295.168568 174.078125 
L 294.413734 174.078125 
L 293.732658 175.478125 
L 293.088354 175.478125 
L 293.009416 186.678125 
L 292.894608 190.878125 
L 290.818387 189.478125 
L 290.818356 168.478125 
L 289.250841 165.678125 
L 289.119994 165.678125 
L 288.657464 167.078125 
L 286.67948 167.078125 
L 286.641656 168.478125 
L 284.658545 168.478125 
L 284.347108 169.878125 
L 284.031319 168.478125 
L 282.790172 169.878125 
L 282.318395 169.878125 
L 282.318198 171.278125 
L 281.513764 171.278125 
L 281.299693 175.478125 
L 281.635899 175.478125 
L 281.121224 181.078125 
L 279.275078 181.078125 
L 278.316431 182.478125 
L 278.890828 182.478125 
L 277.151829 183.878125 
L 276.844424 189.478125 
L 276.40824 190.878125 
L 274.863859 189.478125 
L 274.750918 190.878125 
L 274.714313 189.478125 
L 274.159154 189.478125 
L 274.153584 155.878125 
L 273.680668 136.278125 
L 273.630201 137.678125 
L 271.427335 137.678125 
L 271.402075 143.278125 
L 270.716394 144.678125 
L 270.358701 147.478125 
L 267.664987 147.478125 
L 267.329968 148.878125 
L 263.417057 148.878125 
L 264.625377 150.278125 
L 263.868846 150.278125 
L 263.713516 153.078125 
L 262.710187 154.478125 
L 262.416424 160.078125 
L 261.457663 162.878125 
L 261.457663 164.278125 
L 261.14836 165.678125 
L 261.072621 160.078125 
L 261.060653 161.478125 
L 259.525383 161.478125 
L 259.56194 161.478125 
L 258.211528 162.878125 
L 249.138472 162.878125 
L 249.102594 164.278125 
L 248.72515 168.478125 
L 247.951034 168.478125 
L 247.950928 167.078125 
L 247.95081 168.478125 
L 245.946072 168.478125 
L 245.741003 169.878125 
L 244.160866 169.878125 
L 243.796373 171.278125 
L 243.793156 179.678125 
L 243.413964 181.078125 
L 243.413903 183.878125 
L 242.368245 183.878125 
L 242.283728 185.278125 
L 241.904519 185.278125 
L 241.133522 186.678125 
L 240.34274 186.678125 
L 240.259884 189.478125 
L 237.289357 189.478125 
L 237.289291 188.078125 
L 236.578297 188.078125 
L 236.578166 190.878125 
L 235.376415 193.678125 
L 232.091786 193.678125 
L 232.087995 196.478125 
L 231.726381 196.478125 
L 231.37492 197.878125 
L 230.92803 197.878125 
L 230.920059 199.278125 
L 227.4924 199.278125 
L 227.189359 200.678125 
L 226.693984 202.078125 
L 225.244313 203.478125 
L 225.244313 203.478125 
L 224.529721 204.878125 
L 224.529599 206.278125 
L 221.744373 206.278125 
L 220.729584 207.678125 
L 219.24599 207.678125 
L 219.243812 209.078125 
L 216.552955 210.478125 
L 215.047046 211.878125 
L 213.529792 211.878125 
L 213.366665 213.278125 
L 212.356285 216.078125 
L 212.355694 217.478125 
L 208.969224 217.478125 
L 208.874339 220.278125 
L 208.514446 220.278125 
L 208.514332 223.078125 
L 208.115661 223.078125 
L 208.115556 221.678125 
L 207.87442 221.678125 
L 207.488694 223.078125 
L 207.488632 224.478125 
L 206.671311 225.878125 
L 206.671429 230.078125 
L 205.200044 230.078125 
L 202.915759 231.478125 
L 202.908975 234.278125 
L 201.807571 234.278125 
L 201.759773 235.678125 
L 201.475261 237.078125 
L 201.430355 241.278125 
L 200.989833 245.478125 
L 200.546024 246.878125 
L 200.501202 248.278125 
L 199.81722 248.278125 
L 199.176085 249.678125 
L 198.993387 249.678125 
L 198.331102 251.078125 
L 196.360494 251.078125 
L 196.330506 252.478125 
L 194.537122 252.478125 
L 194.537122 252.478125 
L 194.273978 253.878125 
L 194.271958 242.678125 
L 194.264236 244.078125 
L 193.380001 249.678125 
L 190.331031 249.678125 
L 190.26928 259.478125 
L 190.104496 262.278125 
L 188.792211 262.278125 
L 188.163372 263.678125 
L 186.4753 263.678125 
L 186.472613 265.078125 
L 186.316345 267.878125 
L 185.732718 269.278125 
L 185.716889 273.478125 
L 185.533494 273.478125 
L 185.503887 274.878125 
L 184.609209 274.878125 
L 183.481586 276.278125 
L 183.26801 276.278125 
L 183.25353 277.678125 
L 183.124314 279.078125 
L 180.140605 279.078125 
L 179.694674 280.478125 
L 179.448428 281.878125 
L 178.728473 283.278125 
L 178.566582 283.278125 
L 177.779498 284.678125 
L 177.614465 284.678125 
L 177.597006 288.878125 
L 177.410052 290.278125 
L 177.409956 291.678125 
L 177.133783 291.678125 
L 176.005874 300.078125 
L 175.909315 298.678125 
L 175.561872 298.678125 
L 175.509929 300.078125 
L 175.257662 301.478125 
L 174.010646 301.478125 
L 173.626362 304.278125 
L 172.589553 304.278125 
L 171.460093 302.878125 
L 171.441845 304.278125 
L 171.188377 304.278125 
L 170.805942 305.678125 
L 170.016386 298.678125 
L 167.783524 298.678125 
L 167.289541 300.078125 
L 167.286789 301.478125 
L 165.90359 301.478125 
L 165.901565 302.878125 
L 165.498546 302.878125 
L 165.283971 304.278125 
L 165.126554 304.278125 
L 165.119736 308.478125 
L 164.758568 308.478125 
L 164.757985 309.878125 
L 164.373026 309.878125 
L 164.363438 307.078125 
L 164.360742 308.478125 
L 162.429224 308.478125 
L 162.059647 309.878125 
L 162.050295 311.278125 
L 160.157696 311.278125 
L 159.264026 305.678125 
L 158.941265 309.878125 
L 158.577289 315.478125 
L 156.666271 315.478125 
L 156.307369 316.878125 
L 155.936565 316.878125 
L 155.936442 319.678125 
L 155.692514 319.678125 
L 155.672312 321.078125 
L 154.918297 321.078125 
L 154.800299 325.278125 
L 154.751178 325.278125 
L 154.751099 328.078125 
L 154.508893 329.478125 
L 154.484558 330.878125 
L 153.695161 330.878125 
L 153.690936 332.278125 
L 153.574735 332.278125 
L 153.568201 337.878125 
L 153.268416 337.878125 
L 153.206499 339.278125 
L 153.041777 340.678125 
L 152.832018 347.678125 
L 152.511658 349.078125 
L 149.985632 349.078125 
L 149.982718 351.878125 
L 147.205976 351.878125 
L 147.187934 354.678125 
L 145.820704 354.678125 
L 145.819227 347.678125 
L 143.800567 347.678125 
L 142.955969 349.078125 
L 140.295047 350.478125 
L 138.556075 350.478125 
L 137.411658 351.878125 
L 136.224842 351.878125 
L 135.951658 353.278125 
L 135.214081 354.678125 
L 135.057339 356.078125 
L 135.057081 358.878125 
L 133.985467 358.878125 
L 133.101416 361.678125 
L 131.606016 361.678125 
L 131.605789 363.078125 
L 127.94032 363.078125 
L 126.132251 364.478125 
L 124.830505 364.478125 
L 124.800302 365.878125 
L 124.208087 367.278125 
L 123.422927 367.278125 
L 123.296979 368.678125 
L 123.296795 365.878125 
L 123.281637 367.278125 
L 123.113085 368.678125 
L 123.112563 371.478125 
L 115.52548 371.478125 
L 115.393003 375.678125 
L 114.220439 375.678125 
L 111.531496 377.078125 
L 111.533573 378.478125 
L 111.53069 378.478125 
L 107.899907 378.478125 
L 107.78332 382.678125 
L 105.663797 382.678125 
L 105.572956 384.078125 
L 105.452535 385.478125 
L 105.19936 393.878125 
L 104.786052 393.878125 
L 104.324574 395.278125 
L 104.037765 395.278125 
L 103.93943 398.078125 
L 103.305784 399.478125 
L 101.775094 399.478125 
L 101.77494 402.278125 
L 100.255639 402.278125 
L 99.808289 403.678125 
L 99.783626 405.078125 
L 99.406257 405.078125 
L 98.841391 412.078125 
L 93.808477 412.078125 
L 93.734644 414.878125 
L 93.023474 414.878125 
L 92.296967 416.278125 
L 91.593713 416.278125 
L 91.103605 417.678125 
L 90.721433 417.678125 
L 90.444808 419.078125 
L 90.30638 421.878125 
L 89.914212 423.278125 
L 89.659088 427.478125 
L 84.642344 427.478125 
L 83.920447 428.878125 
L 81.798023 428.878125 
L 81.797948 430.278125 
L 80.508797 430.278125 
L 80.163375 431.678125 
L 79.898355 431.678125 
L 79.528497 434.478125 
L 77.62681 434.478125 
L 77.425772 435.878125 
L 76.285663 435.878125 
L 76.279768 437.278125 
L 76.114332 438.678125 
L 75.376632 438.678125 
L 75.296511 440.078125 
L 73.323948 441.478125 
L 72.722696 441.478125 
L 72.329261 442.878125 
L 72.329261 442.878125 
" clip-path="url(#pebb6d4d2a1)" style="fill: none; stroke: #ff7f0e; stroke-opacity: 0.8; stroke-width: 1.5; stroke-linecap: square"/>
   </g>
   <g id="line2d_33">
    <path d="M 579.601989 242.678125 
L 576.888764 242.678125 
L 576.888532 241.278125 
L 575.484595 241.278125 
L 575.483727 242.678125 
L 573.944412 242.678125 
L 573.263205 244.078125 
L 571.568121 244.078125 
L 571.568029 245.478125 
L 569.362235 245.478125 
L 568.384346 246.878125 
L 567.996815 246.878125 
L 567.046455 248.278125 
L 567.035907 249.678125 
L 565.720926 249.678125 
L 565.531598 251.078125 
L 560.807272 251.078125 
L 560.790755 248.278125 
L 560.41691 248.278125 
L 559.646128 249.678125 
L 556.938762 249.678125 
L 556.938482 248.278125 
L 555.778482 248.278125 
L 556.206155 248.278125 
L 555.686878 249.678125 
L 555.669292 242.678125 
L 555.311517 242.678125 
L 554.329276 244.078125 
L 549.746367 244.078125 
L 544.707405 245.478125 
L 543.65411 245.478125 
L 542.962898 246.878125 
L 535.738744 246.878125 
L 534.521576 248.278125 
L 532.724407 248.278125 
L 530.413903 249.678125 
L 529.293878 251.078125 
L 528.525611 252.478125 
L 524.226781 253.878125 
L 515.724651 253.878125 
L 515.724586 255.278125 
L 515.499379 255.278125 
L 513.004266 256.678125 
L 512.252149 256.678125 
L 511.475797 258.078125 
L 508.819555 259.478125 
L 507.579561 259.478125 
L 508.088705 259.478125 
L 507.349972 260.878125 
L 506.927943 260.878125 
L 506.23638 262.278125 
L 498.895411 262.278125 
L 498.887449 263.678125 
L 498.508581 263.678125 
L 498.498787 231.478125 
L 497.365755 231.478125 
L 497.351543 232.878125 
L 493.67387 232.878125 
L 491.668957 234.278125 
L 489.11736 234.278125 
L 487.620878 232.878125 
L 478.153707 232.878125 
L 476.628442 234.278125 
L 475.114277 234.278125 
L 473.50726 235.678125 
L 471.737081 235.678125 
L 471.710782 237.078125 
L 470.917471 237.078125 
L 470.842354 238.478125 
L 470.456361 238.478125 
L 470.442574 239.878125 
L 469.090695 241.278125 
L 467.436651 241.278125 
L 467.257253 238.478125 
L 463.403599 238.478125 
L 462.704104 239.878125 
L 461.530046 239.878125 
L 461.529975 241.278125 
L 460.76252 241.278125 
L 460.347336 242.678125 
L 457.726442 242.678125 
L 457.329471 241.278125 
L 457.319028 242.678125 
L 456.257774 242.678125 
L 455.88796 241.278125 
L 454.601382 241.278125 
L 454.558137 244.078125 
L 447.875588 244.078125 
L 447.036333 245.478125 
L 432.426287 245.478125 
L 431.328113 246.878125 
L 430.413635 248.278125 
L 428.874311 248.278125 
L 428.874241 249.678125 
L 425.602439 249.678125 
L 424.823586 251.078125 
L 418.743577 251.078125 
L 418.733178 248.278125 
L 415.70093 248.278125 
L 414.575681 244.078125 
L 414.217012 245.478125 
L 414.199964 246.878125 
L 412.700861 248.278125 
L 412.653265 249.678125 
L 412.36065 249.678125 
L 412.298456 225.878125 
L 412.298356 227.278125 
L 409.5127 227.278125 
L 409.259924 228.678125 
L 407.416188 228.678125 
L 407.408458 230.078125 
L 406.926996 231.478125 
L 406.627913 231.478125 
L 405.497861 230.078125 
L 404.317088 230.078125 
L 404.206764 228.678125 
L 403.195674 228.678125 
L 403.195306 230.078125 
L 402.086925 231.478125 
L 398.693646 231.478125 
L 396.347676 232.878125 
L 398.693707 234.278125 
L 394.148732 234.278125 
L 392.634058 232.878125 
L 390.6808 232.878125 
L 390.680375 237.078125 
L 386.96387 237.078125 
L 385.640129 238.478125 
L 383.009642 238.478125 
L 382.979492 239.878125 
L 377.398671 239.878125 
L 376.174733 241.278125 
L 373.7218 241.278125 
L 373.721725 242.678125 
L 371.651836 242.678125 
L 370.508177 245.478125 
L 370.508843 245.478125 
L 364.816033 245.478125 
L 365.380732 246.878125 
L 364.074543 248.278125 
L 363.342076 248.278125 
L 363.160903 249.678125 
L 360.128423 249.678125 
L 360.116108 251.078125 
L 359.912835 252.478125 
L 359.547886 253.878125 
L 357.272677 253.878125 
L 357.074426 255.278125 
L 352.518657 256.678125 
L 352.518411 258.078125 
L 352.310374 259.478125 
L 351.374866 259.478125 
L 350.835379 260.878125 
L 350.455389 260.878125 
L 350.441944 262.278125 
L 349.663073 262.278125 
L 349.292663 263.678125 
L 349.015929 263.678125 
L 348.978123 266.478125 
L 348.328963 266.478125 
L 348.306833 267.878125 
L 346.807406 267.878125 
L 346.661703 269.278125 
L 346.109874 269.278125 
L 345.714739 270.678125 
L 344.928611 270.678125 
L 343.719643 272.078125 
L 342.982736 272.078125 
L 342.94688 267.878125 
L 342.52 267.878125 
L 342.48517 269.278125 
L 342.249231 269.278125 
L 342.160748 266.478125 
L 341.839231 267.878125 
L 341.790978 266.478125 
L 339.849613 266.478125 
L 339.478642 269.278125 
L 339.095466 269.278125 
L 336.126823 270.678125 
L 335.446304 270.678125 
L 335.412126 272.078125 
L 334.934604 273.478125 
L 332.019715 273.478125 
L 331.571357 274.878125 
L 330.215564 276.278125 
L 329.21891 276.278125 
L 329.218835 277.678125 
L 328.989408 279.078125 
L 325.573722 279.078125 
L 322.871909 280.478125 
L 321.64063 280.478125 
L 321.487053 281.878125 
L 319.86993 283.278125 
L 319.52946 283.278125 
L 318.824137 281.878125 
L 317.709743 283.278125 
L 314.86863 283.278125 
L 314.676422 284.678125 
L 311.459363 284.678125 
L 310.793919 283.278125 
L 309.697817 284.678125 
L 309.695631 286.078125 
L 308.058489 288.878125 
L 308.053156 290.278125 
L 306.633868 291.678125 
L 306.556818 293.078125 
L 306.175983 293.078125 
L 302.77507 294.478125 
L 302.514559 284.678125 
L 301.979607 286.078125 
L 300.605693 286.078125 
L 300.578457 284.678125 
L 299.894244 284.678125 
L 299.760842 286.078125 
L 299.17562 286.078125 
L 298.292336 287.478125 
L 296.688785 287.478125 
L 296.406902 288.878125 
L 296.316162 290.278125 
L 295.619091 290.278125 
L 295.618986 291.678125 
L 295.297259 291.678125 
L 295.168568 293.078125 
L 293.088354 293.078125 
L 293.009416 295.878125 
L 292.894608 298.678125 
L 290.818387 298.678125 
L 290.818356 294.478125 
L 289.119994 294.478125 
L 288.657464 295.878125 
L 286.67948 295.878125 
L 286.641656 297.278125 
L 284.658545 297.278125 
L 284.347108 298.678125 
L 282.318395 298.678125 
L 282.318198 300.078125 
L 281.299693 300.078125 
L 281.635899 300.078125 
L 281.263184 301.478125 
L 281.121224 302.878125 
L 279.275078 302.878125 
L 278.316431 304.278125 
L 278.890828 304.278125 
L 277.151829 305.678125 
L 276.997809 307.078125 
L 276.844424 307.078125 
L 276.40824 308.478125 
L 274.863859 307.078125 
L 274.750918 308.478125 
L 274.714313 307.078125 
L 274.159154 307.078125 
L 274.153584 284.678125 
L 273.680668 279.078125 
L 273.630201 280.478125 
L 271.427335 280.478125 
L 271.402075 281.878125 
L 270.716394 283.278125 
L 270.358701 284.678125 
L 263.417057 284.678125 
L 264.625377 286.078125 
L 263.868846 286.078125 
L 263.713516 287.478125 
L 262.661386 288.878125 
L 262.615091 290.278125 
L 261.951365 290.278125 
L 261.457663 291.678125 
L 261.457663 293.078125 
L 261.14836 294.478125 
L 261.072621 288.878125 
L 261.060653 290.278125 
L 259.525383 290.278125 
L 259.56194 290.278125 
L 258.211528 291.678125 
L 249.138472 291.678125 
L 249.102594 293.078125 
L 245.946072 293.078125 
L 245.741003 294.478125 
L 244.160866 294.478125 
L 243.796373 295.878125 
L 243.793156 297.278125 
L 242.368245 297.278125 
L 242.283728 298.678125 
L 241.904519 298.678125 
L 241.133522 300.078125 
L 240.34274 300.078125 
L 240.259884 302.878125 
L 237.289357 302.878125 
L 237.289291 301.478125 
L 236.578297 301.478125 
L 236.578166 302.878125 
L 235.376415 304.278125 
L 230.92803 304.278125 
L 230.920059 305.678125 
L 227.4924 305.678125 
L 227.189359 307.078125 
L 226.693984 308.478125 
L 225.244313 309.878125 
L 225.244313 309.878125 
L 224.529721 311.278125 
L 224.529599 312.678125 
L 221.744373 312.678125 
L 220.729584 314.078125 
L 219.24599 314.078125 
L 219.243812 315.478125 
L 216.552955 316.878125 
L 215.047046 318.278125 
L 213.529792 318.278125 
L 213.366665 319.678125 
L 212.356285 321.078125 
L 212.355694 322.478125 
L 208.514446 322.478125 
L 208.514332 325.278125 
L 207.87442 325.278125 
L 207.488694 326.678125 
L 207.488632 328.078125 
L 206.671311 329.478125 
L 206.671429 333.678125 
L 205.200044 333.678125 
L 202.915759 335.078125 
L 202.908975 336.478125 
L 201.807571 336.478125 
L 201.78835 337.878125 
L 201.759773 336.478125 
L 201.475261 336.478125 
L 201.430355 339.278125 
L 200.546024 339.278125 
L 200.501202 340.678125 
L 199.81722 340.678125 
L 199.176085 342.078125 
L 194.537122 342.078125 
L 194.537122 342.078125 
L 194.273978 343.478125 
L 194.271958 332.278125 
L 194.264236 333.678125 
L 193.380001 335.078125 
L 190.331031 335.078125 
L 190.26928 339.278125 
L 190.104496 340.678125 
L 186.4753 340.678125 
L 186.472613 342.078125 
L 186.316345 343.478125 
L 185.732718 344.878125 
L 185.716889 347.678125 
L 185.533494 347.678125 
L 185.503887 349.078125 
L 184.609209 349.078125 
L 183.481586 350.478125 
L 183.26801 350.478125 
L 183.25353 351.878125 
L 183.124314 353.278125 
L 180.140605 353.278125 
L 179.694674 354.678125 
L 179.448428 354.678125 
L 178.728473 356.078125 
L 178.566582 356.078125 
L 177.779498 357.478125 
L 177.597006 357.478125 
L 177.410052 358.878125 
L 177.409956 360.278125 
L 177.133783 360.278125 
L 176.005874 361.678125 
L 175.909315 360.278125 
L 175.561872 360.278125 
L 175.509929 361.678125 
L 175.257662 363.078125 
L 174.010646 363.078125 
L 173.626362 361.678125 
L 171.460093 361.678125 
L 171.441845 363.078125 
L 171.188377 363.078125 
L 170.805942 364.478125 
L 170.016386 360.278125 
L 167.783524 360.278125 
L 167.286789 361.678125 
L 165.498546 361.678125 
L 165.283971 363.078125 
L 165.126554 363.078125 
L 165.119736 364.478125 
L 164.758568 364.478125 
L 164.757985 365.878125 
L 162.059647 365.878125 
L 162.050295 367.278125 
L 155.936565 367.278125 
L 155.936442 368.678125 
L 154.842698 368.678125 
L 154.751099 370.078125 
L 154.484558 371.478125 
L 153.695161 371.478125 
L 153.690936 372.878125 
L 153.574735 372.878125 
L 153.568201 374.278125 
L 153.268416 374.278125 
L 153.206499 375.678125 
L 152.849854 375.678125 
L 152.832018 377.078125 
L 152.511658 378.478125 
L 149.982819 378.478125 
L 149.982718 379.878125 
L 147.205976 379.878125 
L 147.187934 381.278125 
L 145.820704 381.278125 
L 145.819227 377.078125 
L 143.800567 377.078125 
L 142.955969 378.478125 
L 138.556075 378.478125 
L 137.411658 379.878125 
L 136.224842 379.878125 
L 135.951658 381.278125 
L 135.214081 382.678125 
L 135.057339 382.678125 
L 135.057081 385.478125 
L 133.985467 385.478125 
L 133.101416 386.878125 
L 131.606016 386.878125 
L 131.605789 388.278125 
L 127.94032 388.278125 
L 126.132251 389.678125 
L 124.830505 389.678125 
L 124.800302 391.078125 
L 123.422927 391.078125 
L 123.296795 392.478125 
L 123.281637 393.878125 
L 123.113085 395.278125 
L 123.112563 398.078125 
L 115.420852 398.078125 
L 115.393003 399.478125 
L 114.220439 399.478125 
L 111.53069 400.878125 
L 107.899907 400.878125 
L 107.78332 403.678125 
L 105.663797 403.678125 
L 105.572956 405.078125 
L 105.452535 406.478125 
L 105.19936 407.878125 
L 104.786052 407.878125 
L 104.324574 409.278125 
L 104.037765 409.278125 
L 103.93943 410.678125 
L 103.305784 412.078125 
L 101.775094 412.078125 
L 101.77494 413.478125 
L 100.255639 413.478125 
L 99.808289 414.878125 
L 99.783626 416.278125 
L 99.406257 416.278125 
L 99.172877 417.678125 
L 99.146298 419.078125 
L 98.853477 420.478125 
L 98.841391 421.878125 
L 93.770364 421.878125 
L 93.734644 423.278125 
L 93.023474 423.278125 
L 92.296967 424.678125 
L 91.593713 424.678125 
L 91.103605 426.078125 
L 90.444808 426.078125 
L 90.30638 428.878125 
L 89.914212 428.878125 
L 89.659088 430.278125 
L 84.642344 430.278125 
L 83.920447 431.678125 
L 81.798023 431.678125 
L 81.797948 433.078125 
L 80.508797 433.078125 
L 80.163375 434.478125 
L 79.898355 434.478125 
L 79.528497 435.878125 
L 77.62681 435.878125 
L 77.425772 437.278125 
L 76.279768 437.278125 
L 76.114332 438.678125 
L 75.376632 438.678125 
L 75.296511 440.078125 
L 73.323948 441.478125 
L 72.722696 441.478125 
L 72.329261 442.878125 
L 72.329261 442.878125 
" clip-path="url(#pebb6d4d2a1)" style="fill: none; stroke: #2ca02c; stroke-opacity: 0.8; stroke-width: 1.5; stroke-linecap: square"/>
   </g>
   <g id="patch_3">
    <path d="M 46.965625 465.838125 
L 46.965625 22.318125 
" style="fill: none; stroke: #000000; stroke-width: 0.8; stroke-linejoin: miter; stroke-linecap: square"/>
   </g>
   <g id="patch_4">
    <path d="M 604.965625 465.838125 
L 604.965625 22.318125 
" style="fill: none; stroke: #000000; stroke-width: 0.8; stroke-linejoin: miter; stroke-linecap: square"/>
   </g>
   <g id="patch_5">
    <path d="M 46.965625 465.838125 
L 604.965625 465.838125 
" style="fill: none; stroke: #000000; stroke-width: 0.8; stroke-linejoin: miter; stroke-linecap: square"/>
   </g>
   <g id="patch_6">
    <path d="M 46.965625 22.318125 
L 604.965625 22.318125 
" style="fill: none; stroke: #000000; stroke-width: 0.8; stroke-linejoin: miter; stroke-linecap: square"/>
   </g>
   <g id="text_18">
    <!-- 15 -->
    <g transform="translate(579.601989 426.078125) scale(0.1 -0.1)">
     <use xlink:href="#DejaVuSans-31"/>
     <use xlink:href="#DejaVuSans-35" x="63.623047"/>
    </g>
   </g>
   <g id="text_19">
    <!-- 276 -->
    <g transform="translate(579.601989 60.678125) scale(0.1 -0.1)">
     <defs>
      <path id="DejaVuSans-36" d="M 2113 2584 
Q 1688 2584 1439 2293 
Q 1191 2003 1191 1497 
Q 1191 994 1439 701 
Q 1688 409 2113 409 
Q 2538 409 2786 701 
Q 3034 994 3034 1497 
Q 3034 2003 2786 2293 
Q 2538 2584 2113 2584 
z
M 3366 4563 
L 3366 3988 
Q 3128 4100 2886 4159 
Q 2644 4219 2406 4219 
Q 1781 4219 1451 3797 
Q 1122 3375 1075 2522 
Q 1259 2794 1537 2939 
Q 1816 3084 2150 3084 
Q 2853 3084 3261 2657 
Q 3669 2231 3669 1497 
Q 3669 778 3244 343 
Q 2819 -91 2113 -91 
Q 1303 -91 875 529 
Q 447 1150 447 2328 
Q 447 3434 972 4092 
Q 1497 4750 2381 4750 
Q 2619 4750 2861 4703 
Q 3103 4656 3366 4563 
z
" transform="scale(0.015625)"/>
     </defs>
     <use xlink:href="#DejaVuSans-32"/>
     <use xlink:href="#DejaVuSans-37" x="63.623047"/>
     <use xlink:href="#DejaVuSans-36" x="127.246094"/>
    </g>
   </g>
   <g id="text_20">
    <!-- 146 -->
    <g transform="translate(579.601989 242.678125) scale(0.1 -0.1)">
     <use xlink:href="#DejaVuSans-31"/>
     <use xlink:href="#DejaVuSans-34" x="63.623047"/>
     <use xlink:href="#DejaVuSans-36" x="127.246094"/>
    </g>
   </g>
   <g id="text_21">
    <!-- Peers over time -->
    <g transform="translate(278.839375 16.318125) scale(0.12 -0.12)">
     <defs>
      <path id="DejaVuSans-50" d="M 1259 4147 
L 1259 2394 
L 2053 2394 
Q 2494 2394 2734 2622 
Q 2975 2850 2975 3272 
Q 2975 3691 2734 3919 
Q 2494 4147 2053 4147 
L 1259 4147 
z
M 628 4666 
L 2053 4666 
Q 2838 4666 3239 4311 
Q 3641 3956 3641 3272 
Q 3641 2581 3239 2228 
Q 2838 1875 2053 1875 
L 1259 1875 
L 1259 0 
L 628 0 
L 628 4666 
z
" transform="scale(0.015625)"/>
      <path id="DejaVuSans-72" d="M 2631 2963 
Q 2534 3019 2420 3045 
Q 2306 3072 2169 3072 
Q 1681 3072 1420 2755 
Q 1159 2438 1159 1844 
L 1159 0 
L 581 0 
L 581 3500 
L 1159 3500 
L 1159 2956 
Q 1341 3275 1631 3429 
Q 1922 3584 2338 3584 
Q 2397 3584 2469 3576 
Q 2541 3569 2628 3553 
L 2631 2963 
z
" transform="scale(0.015625)"/>
      <path id="DejaVuSans-73" d="M 2834 3397 
L 2834 2853 
Q 2591 2978 2328 3040 
Q 2066 3103 1784 3103 
Q 1356 3103 1142 2972 
Q 928 2841 928 2578 
Q 928 2378 1081 2264 
Q 1234 2150 1697 2047 
L 1894 2003 
Q 2506 1872 2764 1633 
Q 3022 1394 3022 966 
Q 3022 478 2636 193 
Q 2250 -91 1575 -91 
Q 1294 -91 989 -36 
Q 684 19 347 128 
L 347 722 
Q 666 556 975 473 
Q 1284 391 1588 391 
Q 1994 391 2212 530 
Q 2431 669 2431 922 
Q 2431 1156 2273 1281 
Q 2116 1406 1581 1522 
L 1381 1569 
Q 847 1681 609 1914 
Q 372 2147 372 2553 
Q 372 3047 722 3315 
Q 1072 3584 1716 3584 
Q 2034 3584 2315 3537 
Q 2597 3491 2834 3397 
z
" transform="scale(0.015625)"/>
      <path id="DejaVuSans-20" transform="scale(0.015625)"/>
      <path id="DejaVuSans-76" d="M 191 3500 
L 800 3500 
L 1894 563 
L 2988 3500 
L 3597 3500 
L 2284 0 
L 1503 0 
L 191 3500 
z
" transform="scale(0.015625)"/>
      <path id="DejaVuSans-69" d="M 603 3500 
L 1178 3500 
L 1178 0 
L 603 0 
L 603 3500 
z
M 603 4863 
L 1178 4863 
L 1178 4134 
L 603 4134 
L 603 4863 
z
" transform="scale(0.015625)"/>
      <path id="DejaVuSans-6d" d="M 3328 2828 
Q 3544 3216 3844 3400 
Q 4144 3584 4550 3584 
Q 5097 3584 5394 3201 
Q 5691 2819 5691 2113 
L 5691 0 
L 5113 0 
L 5113 2094 
Q 5113 2597 4934 2840 
Q 4756 3084 4391 3084 
Q 3944 3084 3684 2787 
Q 3425 2491 3425 1978 
L 3425 0 
L 2847 0 
L 2847 2094 
Q 2847 2600 2669 2842 
Q 2491 3084 2119 3084 
Q 1678 3084 1418 2786 
Q 1159 2488 1159 1978 
L 1159 0 
L 581 0 
L 581 3500 
L 1159 3500 
L 1159 2956 
Q 1356 3278 1631 3431 
Q 1906 3584 2284 3584 
Q 2666 3584 2933 3390 
Q 3200 3197 3328 2828 
z
" transform="scale(0.015625)"/>
     </defs>
     <use xlink:href="#DejaVuSans-50"/>
     <use xlink:href="#DejaVuSans-65" x="56.677734"/>
     <use xlink:href="#DejaVuSans-65" x="118.201172"/>
     <use xlink:href="#DejaVuSans-72" x="179.724609"/>
     <use xlink:href="#DejaVuSans-73" x="220.837891"/>
     <use xlink:href="#DejaVuSans-20" x="272.9375"/>
     <use xlink:href="#DejaVuSans-6f" x="304.724609"/>
     <use xlink:href="#DejaVuSans-76" x="365.90625"/>
     <use xlink:href="#DejaVuSans-65" x="425.085938"/>
     <use xlink:href="#DejaVuSans-72" x="486.609375"/>
     <use xlink:href="#DejaVuSans-20" x="527.722656"/>
     <use xlink:href="#DejaVuSans-74" x="559.509766"/>
     <use xlink:href="#DejaVuSans-69" x="598.71875"/>
     <use xlink:href="#DejaVuSans-6d" x="626.501953"/>
     <use xlink:href="#DejaVuSans-65" x="723.914062"/>
    </g>
   </g>
   <g id="legend_1">
    <g id="patch_7">
     <path d="M 53.965625 74.3525 
L 184.029688 74.3525 
Q 186.029688 74.3525 186.029688 72.3525 
L 186.029688 29.318125 
Q 186.029688 27.318125 184.029688 27.318125 
L 53.965625 27.318125 
Q 51.965625 27.318125 51.965625 29.318125 
L 51.965625 72.3525 
Q 51.965625 74.3525 53.965625 74.3525 
z
" style="fill: #ffffff; opacity: 0.8; stroke: #cccccc; stroke-linejoin: miter"/>
    </g>
    <g id="line2d_34">
     <path d="M 55.965625 35.416562 
L 65.965625 35.416562 
L 75.965625 35.416562 
" style="fill: none; stroke: #1f77b4; stroke-opacity: 0.8; stroke-width: 1.5; stroke-linecap: square"/>
    </g>
    <g id="text_22">
     <!-- eBGP routers -->
     <g transform="translate(83.965625 38.916562) scale(0.1 -0.1)">
      <defs>
       <path id="DejaVuSans-42" d="M 1259 2228 
L 1259 519 
L 2272 519 
Q 2781 519 3026 730 
Q 3272 941 3272 1375 
Q 3272 1813 3026 2020 
Q 2781 2228 2272 2228 
L 1259 2228 
z
M 1259 4147 
L 1259 2741 
L 2194 2741 
Q 2656 2741 2882 2914 
Q 3109 3088 3109 3444 
Q 3109 3797 2882 3972 
Q 2656 4147 2194 4147 
L 1259 4147 
z
M 628 4666 
L 2241 4666 
Q 2963 4666 3353 4366 
Q 3744 4066 3744 3513 
Q 3744 3084 3544 2831 
Q 3344 2578 2956 2516 
Q 3422 2416 3680 2098 
Q 3938 1781 3938 1306 
Q 3938 681 3513 340 
Q 3088 0 2303 0 
L 628 0 
L 628 4666 
z
" transform="scale(0.015625)"/>
       <path id="DejaVuSans-47" d="M 3809 666 
L 3809 1919 
L 2778 1919 
L 2778 2438 
L 4434 2438 
L 4434 434 
Q 4069 175 3628 42 
Q 3188 -91 2688 -91 
Q 1594 -91 976 548 
Q 359 1188 359 2328 
Q 359 3472 976 4111 
Q 1594 4750 2688 4750 
Q 3144 4750 3555 4637 
Q 3966 4525 4313 4306 
L 4313 3634 
Q 3963 3931 3569 4081 
Q 3175 4231 2741 4231 
Q 1884 4231 1454 3753 
Q 1025 3275 1025 2328 
Q 1025 1384 1454 906 
Q 1884 428 2741 428 
Q 3075 428 3337 486 
Q 3600 544 3809 666 
z
" transform="scale(0.015625)"/>
      </defs>
      <use xlink:href="#DejaVuSans-65"/>
      <use xlink:href="#DejaVuSans-42" x="61.523438"/>
      <use xlink:href="#DejaVuSans-47" x="128.376953"/>
      <use xlink:href="#DejaVuSans-50" x="205.867188"/>
      <use xlink:href="#DejaVuSans-20" x="266.169922"/>
      <use xlink:href="#DejaVuSans-72" x="297.957031"/>
      <use xlink:href="#DejaVuSans-6f" x="336.820312"/>
      <use xlink:href="#DejaVuSans-75" x="398.001953"/>
      <use xlink:href="#DejaVuSans-74" x="461.380859"/>
      <use xlink:href="#DejaVuSans-65" x="500.589844"/>
      <use xlink:href="#DejaVuSans-72" x="562.113281"/>
      <use xlink:href="#DejaVuSans-73" x="603.226562"/>
     </g>
    </g>
    <g id="line2d_35">
     <path d="M 55.965625 50.094687 
L 65.965625 50.094687 
L 75.965625 50.094687 
" style="fill: none; stroke: #ff7f0e; stroke-opacity: 0.8; stroke-width: 1.5; stroke-linecap: square"/>
    </g>
    <g id="text_23">
     <!-- total eBGP sessions -->
     <g transform="translate(83.965625 53.594687) scale(0.1 -0.1)">
      <defs>
       <path id="DejaVuSans-6c" d="M 603 4863 
L 1178 4863 
L 1178 0 
L 603 0 
L 603 4863 
z
" transform="scale(0.015625)"/>
      </defs>
      <use xlink:href="#DejaVuSans-74"/>
      <use xlink:href="#DejaVuSans-6f" x="39.208984"/>
      <use xlink:href="#DejaVuSans-74" x="100.390625"/>
      <use xlink:href="#DejaVuSans-61" x="139.599609"/>
      <use xlink:href="#DejaVuSans-6c" x="200.878906"/>
      <use xlink:href="#DejaVuSans-20" x="228.662109"/>
      <use xlink:href="#DejaVuSans-65" x="260.449219"/>
      <use xlink:href="#DejaVuSans-42" x="321.972656"/>
      <use xlink:href="#DejaVuSans-47" x="388.826172"/>
      <use xlink:href="#DejaVuSans-50" x="466.316406"/>
      <use xlink:href="#DejaVuSans-20" x="526.619141"/>
      <use xlink:href="#DejaVuSans-73" x="558.40625"/>
      <use xlink:href="#DejaVuSans-65" x="610.505859"/>
      <use xlink:href="#DejaVuSans-73" x="672.029297"/>
      <use xlink:href="#DejaVuSans-73" x="724.128906"/>
      <use xlink:href="#DejaVuSans-69" x="776.228516"/>
      <use xlink:href="#DejaVuSans-6f" x="804.011719"/>
      <use xlink:href="#DejaVuSans-6e" x="865.193359"/>
      <use xlink:href="#DejaVuSans-73" x="928.572266"/>
     </g>
    </g>
    <g id="line2d_36">
     <path d="M 55.965625 64.772812 
L 65.965625 64.772812 
L 75.965625 64.772812 
" style="fill: none; stroke: #2ca02c; stroke-opacity: 0.8; stroke-width: 1.5; stroke-linecap: square"/>
    </g>
    <g id="text_24">
     <!-- unique eBGP peers -->
     <g transform="translate(83.965625 68.272812) scale(0.1 -0.1)">
      <defs>
       <path id="DejaVuSans-71" d="M 947 1747 
Q 947 1113 1208 752 
Q 1469 391 1925 391 
Q 2381 391 2643 752 
Q 2906 1113 2906 1747 
Q 2906 2381 2643 2742 
Q 2381 3103 1925 3103 
Q 1469 3103 1208 2742 
Q 947 2381 947 1747 
z
M 2906 525 
Q 2725 213 2448 61 
Q 2172 -91 1784 -91 
Q 1150 -91 751 415 
Q 353 922 353 1747 
Q 353 2572 751 3078 
Q 1150 3584 1784 3584 
Q 2172 3584 2448 3432 
Q 2725 3281 2906 2969 
L 2906 3500 
L 3481 3500 
L 3481 -1331 
L 2906 -1331 
L 2906 525 
z
" transform="scale(0.015625)"/>
       <path id="DejaVuSans-70" d="M 1159 525 
L 1159 -1331 
L 581 -1331 
L 581 3500 
L 1159 3500 
L 1159 2969 
Q 1341 3281 1617 3432 
Q 1894 3584 2278 3584 
Q 2916 3584 3314 3078 
Q 3713 2572 3713 1747 
Q 3713 922 3314 415 
Q 2916 -91 2278 -91 
Q 1894 -91 1617 61 
Q 1341 213 1159 525 
z
M 3116 1747 
Q 3116 2381 2855 2742 
Q 2594 3103 2138 3103 
Q 1681 3103 1420 2742 
Q 1159 2381 1159 1747 
Q 1159 1113 1420 752 
Q 1681 391 2138 391 
Q 2594 391 2855 752 
Q 3116 1113 3116 1747 
z
" transform="scale(0.015625)"/>
      </defs>
      <use xlink:href="#DejaVuSans-75"/>
      <use xlink:href="#DejaVuSans-6e" x="63.378906"/>
      <use xlink:href="#DejaVuSans-69" x="126.757812"/>
      <use xlink:href="#DejaVuSans-71" x="154.541016"/>
      <use xlink:href="#DejaVuSans-75" x="218.017578"/>
      <use xlink:href="#DejaVuSans-65" x="281.396484"/>
      <use xlink:href="#DejaVuSans-20" x="342.919922"/>
      <use xlink:href="#DejaVuSans-65" x="374.707031"/>
      <use xlink:href="#DejaVuSans-42" x="436.230469"/>
      <use xlink:href="#DejaVuSans-47" x="503.083984"/>
      <use xlink:href="#DejaVuSans-50" x="580.574219"/>
      <use xlink:href="#DejaVuSans-20" x="640.876953"/>
      <use xlink:href="#DejaVuSans-70" x="672.664062"/>
      <use xlink:href="#DejaVuSans-65" x="736.140625"/>
      <use xlink:href="#DejaVuSans-65" x="797.664062"/>
      <use xlink:href="#DejaVuSans-72" x="859.1875"/>
      <use xlink:href="#DejaVuSans-73" x="900.300781"/>
     </g>
    </g>
   </g>
  </g>
 </g>
 <defs>
  <clipPath id="pebb6d4d2a1">
   <rect x="46.965625" y="22.318125" width="558" height="443.52"/>
  </clipPath>
 </defs>
</svg>
