<?xml version="1.0" encoding="utf-8" standalone="no"?>
<!DOCTYPE svg PUBLIC "-//W3C//DTD SVG 1.1//EN"
  "http://www.w3.org/Graphics/SVG/1.1/DTD/svg11.dtd">
<svg xmlns:xlink="http://www.w3.org/1999/xlink" width="612.165625pt" height="503.394375pt" viewBox="0 0 612.165625 503.394375" xmlns="http://www.w3.org/2000/svg" version="1.1">
 <metadata>
  <rdf:RDF xmlns:dc="http://purl.org/dc/elements/1.1/" xmlns:cc="http://creativecommons.org/ns#" xmlns:rdf="http://www.w3.org/1999/02/22-rdf-syntax-ns#">
   <cc:Work>
    <dc:type rdf:resource="http://purl.org/dc/dcmitype/StillImage"/>
    <dc:format>image/svg+xml</dc:format>
    <dc:creator>
     <cc:Agent>
      <dc:title>Matplotlib v3.8.3, https://matplotlib.org/</dc:title>
     </cc:Agent>
    </dc:creator>
   </cc:Work>
  </rdf:RDF>
 </metadata>
 <defs>
  <style type="text/css">*{stroke-linejoin: round; stroke-linecap: butt}</style>
 </defs>
 <g id="figure_1">
  <g id="patch_1">
   <path d="M 0 503.394375 
L 612.165625 503.394375 
L 612.165625 0 
L 0 0 
z
" style="fill: #ffffff"/>
  </g>
  <g id="axes_1">
   <g id="patch_2">
    <path d="M 46.965625 465.838125 
L 604.965625 465.838125 
L 604.965625 22.318125 
L 46.965625 22.318125 
z
" style="fill: #ffffff"/>
   </g>
   <g id="matplotlib.axis_1">
    <g id="xtick_1">
     <g id="line2d_1">
      <path d="M 77.514661 465.838125 
L 77.514661 22.318125 
" clip-path="url(#pebb6d4d2a1)" style="fill: none; stroke: #b0b0b0; stroke-opacity: 0.6; stroke-width: 0.8; stroke-linecap: square"/>
     </g>
     <g id="line2d_2">
      <defs>
       <path id="m4989ca4dfe" d="M 0 0 
L 0 3.5 
" style="stroke: #000000; stroke-width: 0.8"/>
      </defs>
      <g>
       <use xlink:href="#m4989ca4dfe" x="77.514661" y="465.838125" style="stroke: #000000; stroke-width: 0.8"/>
      </g>
     </g>
     <g id="text_1">
      <!-- 2020-07 -->
      <g transform="translate(56.623255 480.436562) scale(0.1 -0.1)">
       <defs>
        <path id="DejaVuSans-32" d="M 1228 531 
L 3431 531 
L 3431 0 
L 469 0 
L 469 531 
Q 828 903 1448 1529 
Q 2069 2156 2228 2338 
Q 2531 2678 2651 2914 
Q 2772 3150 2772 3378 
Q 2772 3750 2511 3984 
Q 2250 4219 1831 4219 
Q 1534 4219 1204 4116 
Q 875 4013 500 3803 
L 500 4441 
Q 881 4594 1212 4672 
Q 1544 4750 1819 4750 
Q 2544 4750 2975 4387 
Q 3406 4025 3406 3419 
Q 3406 3131 3298 2873 
Q 3191 2616 2906 2266 
Q 2828 2175 2409 1742 
Q 1991 1309 1228 531 
z
" transform="scale(0.015625)"/>
        <path id="DejaVuSans-30" d="M 2034 4250 
Q 1547 4250 1301 3770 
Q 1056 3291 1056 2328 
Q 1056 1369 1301 889 
Q 1547 409 2034 409 
Q 2525 409 2770 889 
Q 3016 1369 3016 2328 
Q 3016 3291 2770 3770 
Q 2525 4250 2034 4250 
z
M 2034 4750 
Q 2819 4750 3233 4129 
Q 3647 3509 3647 2328 
Q 3647 1150 3233 529 
Q 2819 -91 2034 -91 
Q 1250 -91 836 529 
Q 422 1150 422 2328 
Q 422 3509 836 4129 
Q 1250 4750 2034 4750 
z
" transform="scale(0.015625)"/>
        <path id="DejaVuSans-2d" d="M 313 2009 
L 1997 2009 
L 1997 1497 
L 313 1497 
L 313 2009 
z
" transform="scale(0.015625)"/>
        <path id="DejaVuSans-37" d="M 525 4666 
L 3525 4666 
L 3525 4397 
L 1831 0 
L 1172 0 
L 2766 4134 
L 525 4134 
L 525 4666 
z
" transform="scale(0.015625)"/>
       </defs>
       <use xlink:href="#DejaVuSans-32"/>
       <use xlink:href="#DejaVuSans-30" x="63.623047"/>
       <use xlink:href="#DejaVuSans-32" x="127.246094"/>
       <use xlink:href="#DejaVuSans-30" x="190.869141"/>
       <use xlink:href="#DejaVuSans-2d" x="254.492188"/>
       <use xlink:href="#DejaVuSans-30" x="290.576172"/>
       <use xlink:href="#DejaVuSans-37" x="354.199219"/>
      </g>
     </g>
    </g>
    <g id="xtick_2">
     <g id="line2d_3">
      <path d="M 133.754126 465.838125 
L 133.754126 22.318125 
" clip-path="url(#pebb6d4d2a1)" style="fill: none; stroke: #b0b0b0; stroke-opacity: 0.6; stroke-width: 0.8; stroke-linecap: square"/>
     </g>
     <g id="line2d_4">
      <g>
       <use xlink:href="#m4989ca4dfe" x="133.754126" y="465.838125" style="stroke: #000000; stroke-width: 0.8"/>
      </g>
     </g>
     <g id="text_2">
      <!-- 2021-01 -->
      <g transform="translate(112.862719 480.436562) scale(0.1 -0.1)">
       <defs>
        <path id="DejaVuSans-31" d="M 794 531 
L 1825 531 
L 1825 4091 
L 703 3866 
L 703 4441 
L 1819 4666 
L 2450 4666 
L 2450 531 
L 3481 531 
L 3481 0 
L 794 0 
L 794 531 
z
" transform="scale(0.015625)"/>
       </defs>
       <use xlink:href="#DejaVuSans-32"/>
       <use xlink:href="#DejaVuSans-30" x="63.623047"/>
       <use xlink:href="#DejaVuSans-32" x="127.246094"/>
       <use xlink:href="#DejaVuSans-31" x="190.869141"/>
       <use xlink:href="#DejaVuSans-2d" x="254.492188"/>
       <use xlink:href="#DejaVuSans-30" x="290.576172"/>
       <use xlink:href="#DejaVuSans-31" x="354.199219"/>
      </g>
     </g>
    </g>
    <g id="xtick_3">
     <g id="line2d_5">
      <path d="M 189.076642 465.838125 
L 189.076642 22.318125 
" clip-path="url(#pebb6d4d2a1)" style="fill: none; stroke: #b0b0b0; stroke-opacity: 0.6; stroke-width: 0.8; stroke-linecap: square"/>
     </g>
     <g id="line2d_6">
      <g>
       <use xlink:href="#m4989ca4dfe" x="189.076642" y="465.838125" style="stroke: #000000; stroke-width: 0.8"/>
      </g>
     </g>
     <g id="text_3">
      <!-- 2021-07 -->
      <g transform="translate(168.185236 480.436562) scale(0.1 -0.1)">
       <use xlink:href="#DejaVuSans-32"/>
       <use xlink:href="#DejaVuSans-30" x="63.623047"/>
       <use xlink:href="#DejaVuSans-32" x="127.246094"/>
       <use xlink:href="#DejaVuSans-31" x="190.869141"/>
       <use xlink:href="#DejaVuSans-2d" x="254.492188"/>
       <use xlink:href="#DejaVuSans-30" x="290.576172"/>
       <use xlink:href="#DejaVuSans-37" x="354.199219"/>
      </g>
     </g>
    </g>
    <g id="xtick_4">
     <g id="line2d_7">
      <path d="M 245.316107 465.838125 
L 245.316107 22.318125 
" clip-path="url(#pebb6d4d2a1)" style="fill: none; stroke: #b0b0b0; stroke-opacity: 0.6; stroke-width: 0.8; stroke-linecap: square"/>
     </g>
     <g id="line2d_8">
      <g>
       <use xlink:href="#m4989ca4dfe" x="245.316107" y="465.838125" style="stroke: #000000; stroke-width: 0.8"/>
      </g>
     </g>
     <g id="text_4">
      <!-- 2022-01 -->
      <g transform="translate(224.4247 480.436562) scale(0.1 -0.1)">
       <use xlink:href="#DejaVuSans-32"/>
       <use xlink:href="#DejaVuSans-30" x="63.623047"/>
       <use xlink:href="#DejaVuSans-32" x="127.246094"/>
       <use xlink:href="#DejaVuSans-32" x="190.869141"/>
       <use xlink:href="#DejaVuSans-2d" x="254.492188"/>
       <use xlink:href="#DejaVuSans-30" x="290.576172"/>
       <use xlink:href="#DejaVuSans-31" x="354.199219"/>
      </g>
     </g>
    </g>
    <g id="xtick_5">
     <g id="line2d_9">
      <path d="M 300.638623 465.838125 
L 300.638623 22.318125 
" clip-path="url(#pebb6d4d2a1)" style="fill: none; stroke: #b0b0b0; stroke-opacity: 0.6; stroke-width: 0.8; stroke-linecap: square"/>
     </g>
     <g id="line2d_10">
      <g>
       <use xlink:href="#m4989ca4dfe" x="300.638623" y="465.838125" style="stroke: #000000; stroke-width: 0.8"/>
      </g>
     </g>
     <g id="text_5">
      <!-- 2022-07 -->
      <g transform="translate(279.747217 480.436562) scale(0.1 -0.1)">
       <use xlink:href="#DejaVuSans-32"/>
       <use xlink:href="#DejaVuSans-30" x="63.623047"/>
       <use xlink:href="#DejaVuSans-32" x="127.246094"/>
       <use xlink:href="#DejaVuSans-32" x="190.869141"/>
       <use xlink:href="#DejaVuSans-2d" x="254.492188"/>
       <use xlink:href="#DejaVuSans-30" x="290.576172"/>
       <use xlink:href="#DejaVuSans-37" x="354.199219"/>
      </g>
     </g>
    </g>
    <g id="xtick_6">
     <g id="line2d_11">
      <path d="M 356.878088 465.838125 
L 356.878088 22.318125 
" clip-path="url(#pebb6d4d2a1)" style="fill: none; stroke: #b0b0b0; stroke-opacity: 0.6; stroke-width: 0.8; stroke-linecap: square"/>
     </g>
     <g id="line2d_12">
      <g>
       <use xlink:href="#m4989ca4dfe" x="356.878088" y="465.838125" style="stroke: #000000; stroke-width: 0.8"/>
      </g>
     </g>
     <g id="text_6">
      <!-- 2023-01 -->
      <g transform="translate(335.986681 480.436562) scale(0.1 -0.1)">
       <defs>
        <path id="DejaVuSans-33" d="M 2597 2516 
Q 3050 2419 3304 2112 
Q 3559 1806 3559 1356 
Q 3559 666 3084 287 
Q 2609 -91 1734 -91 
Q 1441 -91 1130 -33 
Q 819 25 488 141 
L 488 750 
Q 750 597 1062 519 
Q 1375 441 1716 441 
Q 2309 441 2620 675 
Q 2931 909 2931 1356 
Q 2931 1769 2642 2001 
Q 2353 2234 1838 2234 
L 1294 2234 
L 1294 2753 
L 1863 2753 
Q 2328 2753 2575 2939 
Q 2822 3125 2822 3475 
Q 2822 3834 2567 4026 
Q 2313 4219 1838 4219 
Q 1578 4219 1281 4162 
Q 984 4106 628 3988 
L 628 4550 
Q 988 4650 1302 4700 
Q 1616 4750 1894 4750 
Q 2613 4750 3031 4423 
Q 3450 4097 3450 3541 
Q 3450 3153 3228 2886 
Q 3006 2619 2597 2516 
z
" transform="scale(0.015625)"/>
       </defs>
       <use xlink:href="#DejaVuSans-32"/>
       <use xlink:href="#DejaVuSans-30" x="63.623047"/>
       <use xlink:href="#DejaVuSans-32" x="127.246094"/>
       <use xlink:href="#DejaVuSans-33" x="190.869141"/>
       <use xlink:href="#DejaVuSans-2d" x="254.492188"/>
       <use xlink:href="#DejaVuSans-30" x="290.576172"/>
       <use xlink:href="#DejaVuSans-31" x="354.199219"/>
      </g>
     </g>
    </g>
    <g id="xtick_7">
     <g id="line2d_13">
      <path d="M 412.200604 465.838125 
L 412.200604 22.318125 
" clip-path="url(#pebb6d4d2a1)" style="fill: none; stroke: #b0b0b0; stroke-opacity: 0.6; stroke-width: 0.8; stroke-linecap: square"/>
     </g>
     <g id="line2d_14">
      <g>
       <use xlink:href="#m4989ca4dfe" x="412.200604" y="465.838125" style="stroke: #000000; stroke-width: 0.8"/>
      </g>
     </g>
     <g id="text_7">
      <!-- 2023-07 -->
      <g transform="translate(391.309198 480.436562) scale(0.1 -0.1)">
       <use xlink:href="#DejaVuSans-32"/>
       <use xlink:href="#DejaVuSans-30" x="63.623047"/>
       <use xlink:href="#DejaVuSans-32" x="127.246094"/>
       <use xlink:href="#DejaVuSans-33" x="190.869141"/>
       <use xlink:href="#DejaVuSans-2d" x="254.492188"/>
       <use xlink:href="#DejaVuSans-30" x="290.576172"/>
       <use xlink:href="#DejaVuSans-37" x="354.199219"/>
      </g>
     </g>
    </g>
    <g id="xtick_8">
     <g id="line2d_15">
      <path d="M 468.440069 465.838125 
L 468.440069 22.318125 
" clip-path="url(#pebb6d4d2a1)" style="fill: none; stroke: #b0b0b0; stroke-opacity: 0.6; stroke-width: 0.8; stroke-linecap: square"/>
     </g>
     <g id="line2d_16">
      <g>
       <use xlink:href="#m4989ca4dfe" x="468.440069" y="465.838125" style="stroke: #000000; stroke-width: 0.8"/>
      </g>
     </g>
     <g id="text_8">
      <!-- 2024-01 -->
      <g transform="translate(447.548662 480.436562) scale(0.1 -0.1)">
       <defs>
        <path id="DejaVuSans-34" d="M 2419 4116 
L 825 1625 
L 2419 1625 
L 2419 4116 
z
M 2253 4666 
L 3047 4666 
L 3047 1625 
L 3713 1625 
L 3713 1100 
L 3047 1100 
L 3047 0 
L 2419 0 
L 2419 1100 
L 313 1100 
L 313 1709 
L 2253 4666 
z
" transform="scale(0.015625)"/>
       </defs>
       <use xlink:href="#DejaVuSans-32"/>
       <use xlink:href="#DejaVuSans-30" x="63.623047"/>
       <use xlink:href="#DejaVuSans-32" x="127.246094"/>
       <use xlink:href="#DejaVuSans-34" x="190.869141"/>
       <use xlink:href="#DejaVuSans-2d" x="254.492188"/>
       <use xlink:href="#DejaVuSans-30" x="290.576172"/>
       <use xlink:href="#DejaVuSans-31" x="354.199219"/>
      </g>
     </g>
    </g>
    <g id="xtick_9">
     <g id="line2d_17">
      <path d="M 524.068234 465.838125 
L 524.068234 22.318125 
" clip-path="url(#pebb6d4d2a1)" style="fill: none; stroke: #b0b0b0; stroke-opacity: 0.6; stroke-width: 0.8; stroke-linecap: square"/>
     </g>
     <g id="line2d_18">
      <g>
       <use xlink:href="#m4989ca4dfe" x="524.068234" y="465.838125" style="stroke: #000000; stroke-width: 0.8"/>
      </g>
     </g>
     <g id="text_9">
      <!-- 2024-07 -->
      <g transform="translate(503.176828 480.436562) scale(0.1 -0.1)">
       <use xlink:href="#DejaVuSans-32"/>
       <use xlink:href="#DejaVuSans-30" x="63.623047"/>
       <use xlink:href="#DejaVuSans-32" x="127.246094"/>
       <use xlink:href="#DejaVuSans-34" x="190.869141"/>
       <use xlink:href="#DejaVuSans-2d" x="254.492188"/>
       <use xlink:href="#DejaVuSans-30" x="290.576172"/>
       <use xlink:href="#DejaVuSans-37" x="354.199219"/>
      </g>
     </g>
    </g>
    <g id="xtick_10">
     <g id="line2d_19">
      <path d="M 580.307699 465.838125 
L 580.307699 22.318125 
" clip-path="url(#pebb6d4d2a1)" style="fill: none; stroke: #b0b0b0; stroke-opacity: 0.6; stroke-width: 0.8; stroke-linecap: square"/>
     </g>
     <g id="line2d_20">
      <g>
       <use xlink:href="#m4989ca4dfe" x="580.307699" y="465.838125" style="stroke: #000000; stroke-width: 0.8"/>
      </g>
     </g>
     <g id="text_10">
      <!-- 2025-01 -->
      <g transform="translate(559.416293 480.436562) scale(0.1 -0.1)">
       <defs>
        <path id="DejaVuSans-35" d="M 691 4666 
L 3169 4666 
L 3169 4134 
L 1269 4134 
L 1269 2991 
Q 1406 3038 1543 3061 
Q 1681 3084 1819 3084 
Q 2600 3084 3056 2656 
Q 3513 2228 3513 1497 
Q 3513 744 3044 326 
Q 2575 -91 1722 -91 
Q 1428 -91 1123 -41 
Q 819 9 494 109 
L 494 744 
Q 775 591 1075 516 
Q 1375 441 1709 441 
Q 2250 441 2565 725 
Q 2881 1009 2881 1497 
Q 2881 1984 2565 2268 
Q 2250 2553 1709 2553 
Q 1456 2553 1204 2497 
Q 953 2441 691 2322 
L 691 4666 
z
" transform="scale(0.015625)"/>
       </defs>
       <use xlink:href="#DejaVuSans-32"/>
       <use xlink:href="#DejaVuSans-30" x="63.623047"/>
       <use xlink:href="#DejaVuSans-32" x="127.246094"/>
       <use xlink:href="#DejaVuSans-35" x="190.869141"/>
       <use xlink:href="#DejaVuSans-2d" x="254.492188"/>
       <use xlink:href="#DejaVuSans-30" x="290.576172"/>
       <use xlink:href="#DejaVuSans-31" x="354.199219"/>
      </g>
     </g>
    </g>
    <g id="text_11">
     <!-- Date -->
     <g transform="translate(314.014844 494.114687) scale(0.1 -0.1)">
      <defs>
       <path id="DejaVuSans-44" d="M 1259 4147 
L 1259 519 
L 2022 519 
Q 2988 519 3436 956 
Q 3884 1394 3884 2338 
Q 3884 3275 3436 3711 
Q 2988 4147 2022 4147 
L 1259 4147 
z
M 628 4666 
L 1925 4666 
Q 3281 4666 3915 4102 
Q 4550 3538 4550 2338 
Q 4550 1131 3912 565 
Q 3275 0 1925 0 
L 628 0 
L 628 4666 
z
" transform="scale(0.015625)"/>
       <path id="DejaVuSans-61" d="M 2194 1759 
Q 1497 1759 1228 1600 
Q 959 1441 959 1056 
Q 959 750 1161 570 
Q 1363 391 1709 391 
Q 2188 391 2477 730 
Q 2766 1069 2766 1631 
L 2766 1759 
L 2194 1759 
z
M 3341 1997 
L 3341 0 
L 2766 0 
L 2766 531 
Q 2569 213 2275 61 
Q 1981 -91 1556 -91 
Q 1019 -91 701 211 
Q 384 513 384 1019 
Q 384 1609 779 1909 
Q 1175 2209 1959 2209 
L 2766 2209 
L 2766 2266 
Q 2766 2663 2505 2880 
Q 2244 3097 1772 3097 
Q 1472 3097 1187 3025 
Q 903 2953 641 2809 
L 641 3341 
Q 956 3463 1253 3523 
Q 1550 3584 1831 3584 
Q 2591 3584 2966 3190 
Q 3341 2797 3341 1997 
z
" transform="scale(0.015625)"/>
       <path id="DejaVuSans-74" d="M 1172 4494 
L 1172 3500 
L 2356 3500 
L 2356 3053 
L 1172 3053 
L 1172 1153 
Q 1172 725 1289 603 
Q 1406 481 1766 481 
L 2356 481 
L 2356 0 
L 1766 0 
Q 1100 0 847 248 
Q 594 497 594 1153 
L 594 3053 
L 172 3053 
L 172 3500 
L 594 3500 
L 594 4494 
L 1172 4494 
z
" transform="scale(0.015625)"/>
       <path id="DejaVuSans-65" d="M 3597 1894 
L 3597 1613 
L 953 1613 
Q 991 1019 1311 708 
Q 1631 397 2203 397 
Q 2534 397 2845 478 
Q 3156 559 3463 722 
L 3463 178 
Q 3153 47 2828 -22 
Q 2503 -91 2169 -91 
Q 1331 -91 842 396 
Q 353 884 353 1716 
Q 353 2575 817 3079 
Q 1281 3584 2069 3584 
Q 2775 3584 3186 3129 
Q 3597 2675 3597 1894 
z
M 3022 2063 
Q 3016 2534 2758 2815 
Q 2500 3097 2075 3097 
Q 1594 3097 1305 2825 
Q 1016 2553 972 2059 
L 3022 2063 
z
" transform="scale(0.015625)"/>
      </defs>
      <use xlink:href="#DejaVuSans-44"/>
      <use xlink:href="#DejaVuSans-61" x="77.001953"/>
      <use xlink:href="#DejaVuSans-74" x="138.28125"/>
      <use xlink:href="#DejaVuSans-65" x="177.490234"/>
     </g>
    </g>
   </g>
   <g id="matplotlib.axis_2">
    <g id="ytick_1">
     <g id="line2d_21">
      <path d="M 46.965625 448.537699 
L 604.965625 448.537699 
" clip-path="url(#pebb6d4d2a1)" style="fill: none; stroke: #b0b0b0; stroke-opacity: 0.6; stroke-width: 0.8; stroke-linecap: square"/>
     </g>
     <g id="line2d_22">
      <defs>
       <path id="mc11dc46687" d="M 0 0 
L -3.5 0 
" style="stroke: #000000; stroke-width: 0.8"/>
      </defs>
      <g>
       <use xlink:href="#mc11dc46687" x="46.965625" y="448.537699" style="stroke: #000000; stroke-width: 0.8"/>
      </g>
     </g>
     <g id="text_12">
      <!-- 0 -->
      <g transform="translate(33.603125 452.336918) scale(0.1 -0.1)">
       <use xlink:href="#DejaVuSans-30"/>
      </g>
     </g>
    </g>
    <g id="ytick_2">
     <g id="line2d_23">
      <path d="M 46.965625 377.048338 
L 604.965625 377.048338 
" clip-path="url(#pebb6d4d2a1)" style="fill: none; stroke: #b0b0b0; stroke-opacity: 0.6; stroke-width: 0.8; stroke-linecap: square"/>
     </g>
     <g id="line2d_24">
      <g>
       <use xlink:href="#mc11dc46687" x="46.965625" y="377.048338" style="stroke: #000000; stroke-width: 0.8"/>
      </g>
     </g>
     <g id="text_13">
      <!-- 50 -->
      <g transform="translate(27.240625 380.847557) scale(0.1 -0.1)">
       <use xlink:href="#DejaVuSans-35"/>
       <use xlink:href="#DejaVuSans-30" x="63.623047"/>
      </g>
     </g>
    </g>
    <g id="ytick_3">
     <g id="line2d_25">
      <path d="M 46.965625 305.558976 
L 604.965625 305.558976 
" clip-path="url(#pebb6d4d2a1)" style="fill: none; stroke: #b0b0b0; stroke-opacity: 0.6; stroke-width: 0.8; stroke-linecap: square"/>
     </g>
     <g id="line2d_26">
      <g>
       <use xlink:href="#mc11dc46687" x="46.965625" y="305.558976" style="stroke: #000000; stroke-width: 0.8"/>
      </g>
     </g>
     <g id="text_14">
      <!-- 100 -->
      <g transform="translate(20.878125 309.358195) scale(0.1 -0.1)">
       <use xlink:href="#DejaVuSans-31"/>
       <use xlink:href="#DejaVuSans-30" x="63.623047"/>
       <use xlink:href="#DejaVuSans-30" x="127.246094"/>
      </g>
     </g>
    </g>
    <g id="ytick_4">
     <g id="line2d_27">
      <path d="M 46.965625 234.069614 
L 604.965625 234.069614 
" clip-path="url(#pebb6d4d2a1)" style="fill: none; stroke: #b0b0b0; stroke-opacity: 0.6; stroke-width: 0.8; stroke-linecap: square"/>
     </g>
     <g id="line2d_28">
      <g>
       <use xlink:href="#mc11dc46687" x="46.965625" y="234.069614" style="stroke: #000000; stroke-width: 0.8"/>
      </g>
     </g>
     <g id="text_15">
      <!-- 150 -->
      <g transform="translate(20.878125 237.868833) scale(0.1 -0.1)">
       <use xlink:href="#DejaVuSans-31"/>
       <use xlink:href="#DejaVuSans-35" x="63.623047"/>
       <use xlink:href="#DejaVuSans-30" x="127.246094"/>
      </g>
     </g>
    </g>
    <g id="ytick_5">
     <g id="line2d_29">
      <path d="M 46.965625 162.580253 
L 604.965625 162.580253 
" clip-path="url(#pebb6d4d2a1)" style="fill: none; stroke: #b0b0b0; stroke-opacity: 0.6; stroke-width: 0.8; stroke-linecap: square"/>
     </g>
     <g id="line2d_30">
      <g>
       <use xlink:href="#mc11dc46687" x="46.965625" y="162.580253" style="stroke: #000000; stroke-width: 0.8"/>
      </g>
     </g>
     <g id="text_16">
      <!-- 200 -->
      <g transform="translate(20.878125 166.379471) scale(0.1 -0.1)">
       <use xlink:href="#DejaVuSans-32"/>
       <use xlink:href="#DejaVuSans-30" x="63.623047"/>
       <use xlink:href="#DejaVuSans-30" x="127.246094"/>
      </g>
     </g>
    </g>
    <g id="ytick_6">
     <g id="line2d_31">
      <path d="M 46.965625 91.090891 
L 604.965625 91.090891 
" clip-path="url(#pebb6d4d2a1)" style="fill: none; stroke: #b0b0b0; stroke-opacity: 0.6; stroke-width: 0.8; stroke-linecap: square"/>
     </g>
     <g id="line2d_32">
      <g>
       <use xlink:href="#mc11dc46687" x="46.965625" y="91.090891" style="stroke: #000000; stroke-width: 0.8"/>
      </g>
     </g>
     <g id="text_17">
      <!-- 250 -->
      <g transform="translate(20.878125 94.89011) scale(0.1 -0.1)">
       <use xlink:href="#DejaVuSans-32"/>
       <use xlink:href="#DejaVuSans-35" x="63.623047"/>
       <use xlink:href="#DejaVuSans-30" x="127.246094"/>
      </g>
     </g>
    </g>
    <g id="text_18">
     <!-- Count -->
     <g transform="translate(14.798437 258.926562) rotate(-90) scale(0.1 -0.1)">
      <defs>
       <path id="DejaVuSans-43" d="M 4122 4306 
L 4122 3641 
Q 3803 3938 3442 4084 
Q 3081 4231 2675 4231 
Q 1875 4231 1450 3742 
Q 1025 3253 1025 2328 
Q 1025 1406 1450 917 
Q 1875 428 2675 428 
Q 3081 428 3442 575 
Q 3803 722 4122 1019 
L 4122 359 
Q 3791 134 3420 21 
Q 3050 -91 2638 -91 
Q 1578 -91 968 557 
Q 359 1206 359 2328 
Q 359 3453 968 4101 
Q 1578 4750 2638 4750 
Q 3056 4750 3426 4639 
Q 3797 4528 4122 4306 
z
" transform="scale(0.015625)"/>
       <path id="DejaVuSans-6f" d="M 1959 3097 
Q 1497 3097 1228 2736 
Q 959 2375 959 1747 
Q 959 1119 1226 758 
Q 1494 397 1959 397 
Q 2419 397 2687 759 
Q 2956 1122 2956 1747 
Q 2956 2369 2687 2733 
Q 2419 3097 1959 3097 
z
M 1959 3584 
Q 2709 3584 3137 3096 
Q 3566 2609 3566 1747 
Q 3566 888 3137 398 
Q 2709 -91 1959 -91 
Q 1206 -91 779 398 
Q 353 888 353 1747 
Q 353 2609 779 3096 
Q 1206 3584 1959 3584 
z
" transform="scale(0.015625)"/>
       <path id="DejaVuSans-75" d="M 544 1381 
L 544 3500 
L 1119 3500 
L 1119 1403 
Q 1119 906 1312 657 
Q 1506 409 1894 409 
Q 2359 409 2629 706 
Q 2900 1003 2900 1516 
L 2900 3500 
L 3475 3500 
L 3475 0 
L 2900 0 
L 2900 538 
Q 2691 219 2414 64 
Q 2138 -91 1772 -91 
Q 1169 -91 856 284 
Q 544 659 544 1381 
z
M 1991 3584 
L 1991 3584 
z
" transform="scale(0.015625)"/>
       <path id="DejaVuSans-6e" d="M 3513 2113 
L 3513 0 
L 2938 0 
L 2938 2094 
Q 2938 2591 2744 2837 
Q 2550 3084 2163 3084 
Q 1697 3084 1428 2787 
Q 1159 2491 1159 1978 
L 1159 0 
L 581 0 
L 581 3500 
L 1159 3500 
L 1159 2956 
Q 1366 3272 1645 3428 
Q 1925 3584 2291 3584 
Q 2894 3584 3203 3211 
Q 3513 2838 3513 2113 
z
" transform="scale(0.015625)"/>
      </defs>
      <use xlink:href="#DejaVuSans-43"/>
      <use xlink:href="#DejaVuSans-6f" x="69.824219"/>
      <use xlink:href="#DejaVuSans-75" x="131.005859"/>
      <use xlink:href="#DejaVuSans-6e" x="194.384766"/>
      <use xlink:href="#DejaVuSans-74" x="257.763672"/>
     </g>
    </g>
   </g>
   <g id="line2d_33">
    <path d="M 579.601989 435.669614 
L 572.974331 435.669614 
L 572.848477 434.239827 
L 571.745908 432.81004 
L 571.735779 431.380253 
L 568.967729 431.380253 
L 568.857893 429.950465 
L 542.662864 429.950465 
L 542.626823 427.090891 
L 541.415627 425.661104 
L 530.723974 425.661104 
L 529.799491 424.231316 
L 498.051175 424.231316 
L 498.051535 425.661104 
L 493.171834 425.661104 
L 493.162502 427.090891 
L 493.161384 425.661104 
L 478.684314 425.661104 
L 478.201816 427.090891 
L 474.712129 427.090891 
L 474.711942 425.661104 
L 465.899897 425.661104 
L 465.696912 427.090891 
L 461.730374 427.090891 
L 461.717041 425.661104 
L 457.426157 425.661104 
L 457.293935 427.090891 
L 452.87159 427.090891 
L 452.801478 425.661104 
L 417.357473 425.661104 
L 416.618319 424.231316 
L 386.357106 424.231316 
L 386.212287 421.371742 
L 355.227727 421.371742 
L 355.22767 422.801529 
L 348.04256 422.801529 
L 347.396724 424.231316 
L 347.25466 424.231316 
L 347.049709 425.661104 
L 347.041314 424.231316 
L 345.555495 424.231316 
L 345.554656 425.661104 
L 339.458772 425.661104 
L 339.394048 424.231316 
L 335.403952 424.231316 
L 335.314893 422.801529 
L 325.972964 422.801529 
L 325.972847 424.231316 
L 312.25366 424.231316 
L 312.234295 425.661104 
L 301.825827 425.661104 
L 301.752011 427.090891 
L 290.76219 427.090891 
L 290.731671 428.520678 
L 287.71452 428.520678 
L 287.46271 429.950465 
L 284.968813 429.950465 
L 284.929861 427.090891 
L 279.780544 427.090891 
L 279.395066 428.520678 
L 260.444719 428.520678 
L 259.907541 427.090891 
L 251.053635 427.090891 
L 251.001109 425.661104 
L 243.782327 425.661104 
L 243.782303 424.231316 
L 236.098379 424.231316 
L 236.369781 424.231316 
L 235.959348 425.661104 
L 225.091787 425.661104 
L 224.821344 427.090891 
L 219.827594 427.090891 
L 219.76045 425.661104 
L 209.177648 425.661104 
L 209.177553 427.090891 
L 179.240891 427.090891 
L 179.195005 428.520678 
L 177.342618 428.520678 
L 177.342526 429.950465 
L 171.623999 429.950465 
L 171.268388 431.380253 
L 169.804243 431.380253 
L 169.65676 429.950465 
L 149.489487 429.950465 
L 149.179275 431.380253 
L 141.709536 431.380253 
L 141.69962 429.950465 
L 139.842065 429.950465 
L 139.834515 431.380253 
L 137.324756 431.380253 
L 137.030937 434.239827 
L 133.746732 434.239827 
L 133.727088 435.669614 
L 132.562405 435.669614 
L 132.393077 437.099402 
L 130.095338 437.099402 
L 130.092985 438.529189 
L 125.102454 438.529189 
L 124.420655 439.958976 
L 93.956554 439.958976 
L 93.9417 441.388763 
L 88.818997 441.388763 
L 88.80924 442.818551 
L 81.43393 442.818551 
L 81.396842 444.248338 
L 72.59737 444.248338 
L 72.593857 445.678125 
L 72.329261 445.678125 
L 72.329261 445.678125 
" clip-path="url(#pebb6d4d2a1)" style="fill: none; stroke: #1f77b4; stroke-opacity: 0.8; stroke-width: 1.5; stroke-linecap: square"/>
   </g>
   <g id="line2d_34">
    <path d="M 579.601989 152.571742 
L 578.479382 154.001529 
L 577.161443 154.001529 
L 577.159006 155.431316 
L 572.974331 155.431316 
L 572.848477 142.563231 
L 571.745908 142.563231 
L 571.735779 126.835572 
L 570.158958 126.835572 
L 569.247189 128.265359 
L 568.967729 131.124934 
L 568.857893 123.975997 
L 568.088598 123.975997 
L 568.088238 125.405785 
L 567.413715 129.695146 
L 566.779135 129.695146 
L 566.778891 131.124934 
L 566.2038 131.124934 
L 566.203096 132.554721 
L 564.392276 132.554721 
L 564.38403 111.107912 
L 564.352977 113.967487 
L 564.255983 115.397274 
L 563.130235 115.397274 
L 563.124791 108.248338 
L 562.498344 108.248338 
L 562.434458 105.388763 
L 562.124921 105.388763 
L 562.11185 96.81004 
L 561.898964 96.81004 
L 561.877689 95.380253 
L 561.877689 95.380253 
L 561.028783 96.81004 
L 561.01118 99.669614 
L 559.965191 99.669614 
L 559.965148 101.099402 
L 554.876201 101.099402 
L 554.571514 103.958976 
L 553.871454 103.958976 
L 553.856465 105.388763 
L 553.05456 106.818551 
L 552.059728 109.678125 
L 552.059502 112.537699 
L 551.774321 112.537699 
L 551.773968 113.967487 
L 551.193319 113.967487 
L 549.614587 115.397274 
L 546.36855 115.397274 
L 546.368444 116.827061 
L 545.724688 116.827061 
L 544.986088 118.256848 
L 542.955495 118.256848 
L 542.868947 81.08238 
L 542.662864 81.08238 
L 542.626823 73.933444 
L 541.415627 42.478125 
L 540.201715 46.767487 
L 538.055088 46.767487 
L 537.75068 48.197274 
L 537.121881 49.627061 
L 535.308893 49.627061 
L 534.415764 51.056848 
L 534.16256 51.056848 
L 534.161856 52.486636 
L 533.761087 51.056848 
L 533.760949 52.486636 
L 533.526841 52.486636 
L 533.761289 49.627061 
L 533.510363 49.627061 
L 532.331045 51.056848 
L 532.322799 53.916423 
L 531.672905 53.916423 
L 531.653664 55.34621 
L 531.058157 56.775997 
L 530.723974 56.775997 
L 529.799491 42.478125 
L 527.061524 42.478125 
L 527.061008 43.907912 
L 524.05874 43.907912 
L 523.962336 46.767487 
L 523.96212 49.627061 
L 521.840352 49.627061 
L 521.781115 52.486636 
L 519.635054 52.486636 
L 519.634962 53.916423 
L 519.090711 53.916423 
L 518.51365 55.34621 
L 517.2581 55.34621 
L 516.456397 58.205785 
L 512.465162 58.205785 
L 512.465321 58.205785 
L 509.669091 59.635572 
L 507.190823 59.635572 
L 504.171171 61.065359 
L 504.657518 61.065359 
L 501.07042 62.495146 
L 499.568822 63.924934 
L 498.051175 63.924934 
L 498.051535 66.784508 
L 497.107868 66.784508 
L 495.799332 68.214295 
L 493.171834 68.214295 
L 493.162502 73.933444 
L 493.161384 69.644082 
L 490.975033 69.644082 
L 490.974782 71.07387 
L 490.97475 69.644082 
L 490.07831 71.07387 
L 489.220967 71.07387 
L 488.588061 72.503657 
L 486.135028 72.503657 
L 485.26807 73.933444 
L 483.623811 75.363231 
L 482.955267 76.793019 
L 482.191837 76.793019 
L 482.191795 78.222806 
L 481.843546 78.222806 
L 481.843309 82.512168 
L 480.019683 82.512168 
L 479.706764 83.941955 
L 479.1546 85.371742 
L 478.684314 85.371742 
L 478.201816 86.801529 
L 477.250939 86.801529 
L 477.233531 78.222806 
L 477.231249 81.08238 
L 476.930135 81.08238 
L 476.902375 82.512168 
L 474.712129 82.512168 
L 474.711942 76.793019 
L 473.578616 78.222806 
L 473.577916 81.08238 
L 472.335307 81.08238 
L 471.785403 82.512168 
L 470.485693 82.512168 
L 470.41705 83.941955 
L 470.416975 86.801529 
L 468.636353 86.801529 
L 467.846953 88.231316 
L 467.534119 88.231316 
L 466.766943 95.380253 
L 466.758428 96.81004 
L 465.696912 96.81004 
L 465.544077 98.239827 
L 464.014911 98.239827 
L 464.014865 99.669614 
L 463.47619 99.669614 
L 462.314397 101.099402 
L 461.730374 101.099402 
L 461.717041 95.380253 
L 458.607526 95.380253 
L 458.6073 92.520678 
L 457.670892 92.520678 
L 458.01613 92.520678 
L 457.596945 93.950465 
L 457.582749 81.08238 
L 457.44001 82.512168 
L 457.426157 81.08238 
L 457.293935 88.231316 
L 456.501023 89.661104 
L 452.87159 89.661104 
L 452.801478 85.371742 
L 447.883514 85.371742 
L 447.325534 86.801529 
L 446.067975 86.801529 
L 445.769624 88.231316 
L 442.313343 88.231316 
L 441.493849 82.512168 
L 440.511293 85.371742 
L 439.060531 85.371742 
L 437.19538 86.801529 
L 436.291242 88.231316 
L 435.671061 88.231316 
L 432.200838 89.661104 
L 431.888754 89.661104 
L 431.88868 91.090891 
L 430.206271 91.090891 
L 430.206261 88.231316 
L 428.344305 88.231316 
L 427.684028 85.371742 
L 426.781747 85.371742 
L 425.337509 86.801529 
L 425.337456 88.231316 
L 425.155658 88.231316 
L 423.141482 89.661104 
L 422.534337 89.661104 
L 421.907629 102.529189 
L 419.763382 103.958976 
L 418.762399 103.958976 
L 419.173405 103.958976 
L 418.577063 109.678125 
L 418.236381 109.678125 
L 417.678118 111.107912 
L 417.357473 111.107912 
L 416.618319 109.678125 
L 412.045936 109.678125 
L 411.752135 111.107912 
L 411.745707 112.537699 
L 411.439552 112.537699 
L 411.43196 69.644082 
L 410.517322 69.644082 
L 410.50585 71.07387 
L 407.537054 71.07387 
L 405.918592 72.503657 
L 403.85882 72.503657 
L 402.659649 71.07387 
L 402.650788 72.503657 
L 396.281623 72.503657 
L 396.226146 65.354721 
L 395.008431 65.354721 
L 393.777163 66.784508 
L 392.554856 66.784508 
L 391.257595 68.214295 
L 390.036388 68.214295 
L 390.035397 71.07387 
L 389.828621 72.503657 
L 389.807391 73.933444 
L 389.547918 73.933444 
L 389.166992 75.363231 
L 389.106354 76.793019 
L 388.847161 76.793019 
L 388.783633 81.08238 
L 387.69233 83.941955 
L 386.357106 83.941955 
L 386.212287 78.222806 
L 381.58901 78.222806 
L 381.588953 79.652593 
L 380.969426 78.222806 
L 380.63427 79.652593 
L 378.198104 79.652593 
L 378.189673 81.08238 
L 375.995858 81.08238 
L 375.960949 82.512168 
L 372.426236 82.512168 
L 370.904286 83.941955 
L 370.566473 83.941955 
L 369.888986 85.371742 
L 363.89439 85.371742 
L 363.88752 86.801529 
L 361.740338 86.801529 
L 361.739899 89.661104 
L 358.095053 89.661104 
L 357.208553 91.090891 
L 355.227727 91.090891 
L 355.22767 92.520678 
L 354.058625 92.520678 
L 353.783053 93.950465 
L 352.586514 93.950465 
L 351.957785 95.380253 
L 350.306862 95.380253 
L 349.185681 96.81004 
L 348.886711 98.239827 
L 347.396724 98.239827 
L 347.25466 96.81004 
L 347.049709 96.81004 
L 347.041314 82.512168 
L 346.909057 83.941955 
L 346.75838 88.231316 
L 344.593538 88.231316 
L 343.685317 83.941955 
L 343.685183 86.801529 
L 343.395647 88.231316 
L 343.381886 92.520678 
L 342.133316 98.239827 
L 341.897103 98.239827 
L 341.846897 46.767487 
L 341.846816 49.627061 
L 340.619171 49.627061 
L 339.5981 52.486636 
L 339.394048 53.916423 
L 338.21249 56.775997 
L 337.905695 58.205785 
L 337.899455 61.065359 
L 337.510795 62.495146 
L 337.269417 62.495146 
L 337.269361 66.784508 
L 336.357129 66.784508 
L 335.403952 68.214295 
L 335.314893 62.495146 
L 334.498693 62.495146 
L 334.498395 63.924934 
L 333.603657 65.354721 
L 331.514502 65.354721 
L 331.447938 63.924934 
L 330.864438 63.924934 
L 328.970658 68.214295 
L 330.864488 69.644082 
L 324.396082 69.644082 
L 324.395739 73.933444 
L 323.199374 73.933444 
L 323.199321 75.363231 
L 322.343563 75.363231 
L 321.395597 76.793019 
L 320.32701 79.652593 
L 313.674108 79.652593 
L 312.686086 81.08238 
L 312.25366 81.08238 
L 312.234295 83.941955 
L 310.70596 83.941955 
L 310.7059 85.371742 
L 309.034985 85.371742 
L 308.111769 88.231316 
L 308.112307 88.231316 
L 305.650978 88.231316 
L 305.091784 89.661104 
L 304.912725 91.090891 
L 303.516796 91.090891 
L 303.972648 92.520678 
L 303.016872 96.81004 
L 302.918229 98.239827 
L 302.326946 98.239827 
L 302.180694 105.388763 
L 301.086509 105.388763 
L 299.73273 106.818551 
L 299.72279 108.248338 
L 299.560559 112.537699 
L 299.558698 105.388763 
L 299.264093 106.818551 
L 297.427435 106.818551 
L 297.267397 111.107912 
L 293.58976 112.537699 
L 293.589562 113.967487 
L 293.421625 115.397274 
L 292.666438 115.397274 
L 292.230937 116.827061 
L 290.207638 116.827061 
L 290.189862 118.256848 
L 290.189773 116.827061 
L 288.979363 116.827061 
L 288.861801 118.256848 
L 288.861745 119.686636 
L 288.621287 119.686636 
L 288.416282 121.116423 
L 288.09731 122.54621 
L 287.71452 122.54621 
L 287.467705 128.265359 
L 287.46271 133.984508 
L 286.486772 139.703657 
L 285.891906 139.703657 
L 285.862961 133.984508 
L 285.518363 133.984508 
L 285.490246 135.414295 
L 285.228357 135.414295 
L 284.968813 136.844082 
L 284.929861 125.405785 
L 284.388182 126.835572 
L 283.362697 126.835572 
L 283.206335 128.265359 
L 283.19834 129.695146 
L 282.911617 132.554721 
L 282.754009 132.554721 
L 282.753914 135.414295 
L 280.357482 136.844082 
L 279.808134 136.844082 
L 279.780544 138.27387 
L 279.4378 145.422806 
L 279.395066 143.993019 
L 277.042026 143.993019 
L 276.68009 146.852593 
L 275.585629 148.28238 
L 274.781081 148.28238 
L 274.781021 149.712168 
L 274.595817 151.141955 
L 272.698343 151.141955 
L 271.840304 152.571742 
L 271.83851 151.141955 
L 269.657476 152.571742 
L 268.663529 152.571742 
L 268.539553 154.001529 
L 267.234134 155.431316 
L 266.95929 156.861104 
L 266.389919 156.861104 
L 265.490327 159.720678 
L 264.574189 158.290891 
L 263.196843 158.290891 
L 263.041684 159.720678 
L 260.444719 159.720678 
L 259.907541 148.28238 
L 259.022714 149.712168 
L 259.020949 151.141955 
L 258.372828 152.571742 
L 257.69937 156.861104 
L 257.695064 159.720678 
L 256.549347 162.580253 
L 256.487149 166.869614 
L 256.17972 168.299402 
L 253.434339 171.158976 
L 253.224042 161.150465 
L 252.792259 162.580253 
L 252.792203 165.439827 
L 251.053635 165.439827 
L 251.001109 159.720678 
L 250.528689 159.720678 
L 249.81566 161.150465 
L 248.521196 161.150465 
L 248.293647 162.580253 
L 248.220397 164.01004 
L 247.657868 164.01004 
L 247.657603 165.439827 
L 247.397889 165.439827 
L 247.294004 172.588763 
L 246.684665 172.588763 
L 246.134868 174.018551 
L 245.614755 174.018551 
L 245.551032 185.456848 
L 245.458354 189.74621 
L 243.782327 188.316423 
L 243.782303 168.299402 
L 242.411303 165.439827 
L 242.037926 166.869614 
L 240.441203 166.869614 
L 240.410669 168.299402 
L 238.809807 168.299402 
L 238.5584 169.729189 
L 238.30348 169.729189 
L 237.301566 171.158976 
L 236.271188 171.158976 
L 236.098379 175.448338 
L 236.369781 175.448338 
L 235.95431 181.167487 
L 234.464012 181.167487 
L 233.690146 182.597274 
L 234.153827 182.597274 
L 232.750023 184.027061 
L 232.501871 189.74621 
L 232.149762 191.175997 
L 230.903064 189.74621 
L 230.782343 191.175997 
L 230.333321 191.175997 
L 230.329695 162.580253 
L 229.947934 143.993019 
L 229.907195 145.422806 
L 228.128936 145.422806 
L 228.108545 151.141955 
L 227.55503 152.571742 
L 227.266283 155.431316 
L 225.091787 155.431316 
L 224.821344 156.861104 
L 221.662653 156.861104 
L 222.638067 158.290891 
L 222.027359 158.290891 
L 221.901969 161.150465 
L 221.092033 162.580253 
L 220.854894 169.729189 
L 219.831251 174.018551 
L 219.770111 166.869614 
L 219.76045 168.299402 
L 219.013251 168.299402 
L 218.521106 169.729189 
L 218.550616 169.729189 
L 217.460499 171.158976 
L 210.13629 171.158976 
L 210.107328 172.588763 
L 209.802637 176.878125 
L 207.559232 176.878125 
L 207.39369 178.307912 
L 206.118128 178.307912 
L 205.823891 179.737699 
L 205.821294 188.316423 
L 205.515192 189.74621 
L 205.515142 192.605785 
L 204.671037 192.605785 
L 204.602811 194.035572 
L 204.296695 194.035572 
L 203.67431 195.465359 
L 203.035952 195.465359 
L 202.969066 198.324934 
L 199.997112 198.324934 
L 199.997006 201.184508 
L 199.026895 204.044082 
L 196.375384 204.044082 
L 196.372324 206.903657 
L 196.080411 206.903657 
L 195.796695 208.333444 
L 195.435944 208.333444 
L 195.429509 209.763231 
L 192.662538 209.763231 
L 192.417909 211.193019 
L 192.018018 212.622806 
L 190.847774 214.052593 
L 190.270921 215.48238 
L 190.270822 216.912168 
L 188.022453 216.912168 
L 187.203267 218.341955 
L 186.005638 218.341955 
L 186.00388 219.771742 
L 183.83169 221.201529 
L 182.616048 222.631316 
L 181.391247 222.631316 
L 181.259563 224.061104 
L 180.443936 226.920678 
L 180.443459 228.350465 
L 177.709737 228.350465 
L 177.633141 231.21004 
L 177.342618 231.21004 
L 177.342526 234.069614 
L 177.0207 234.069614 
L 177.020615 232.639827 
L 176.825958 232.639827 
L 176.514581 234.069614 
L 176.514532 235.499402 
L 175.85475 236.929189 
L 175.854846 236.929189 
L 174.667073 236.929189 
L 172.823088 238.358976 
L 172.817612 241.218551 
L 171.88992 241.218551 
L 171.660248 242.648338 
L 171.623999 246.937699 
L 171.268388 251.227061 
L 170.910124 252.656848 
L 170.873941 254.086636 
L 170.321798 254.086636 
L 169.804243 255.516423 
L 169.65676 255.516423 
L 169.122132 256.94621 
L 167.531362 256.94621 
L 167.507154 258.375997 
L 166.059449 258.375997 
L 166.059449 258.375997 
L 165.847026 259.805785 
L 165.845395 248.367487 
L 165.839162 249.797274 
L 162.664089 249.797274 
L 162.61424 259.805785 
L 162.481219 262.665359 
L 161.421879 262.665359 
L 160.91425 264.095146 
L 159.551557 264.095146 
L 159.549388 265.524934 
L 159.423241 268.384508 
L 158.952109 269.814295 
L 158.939331 274.103657 
L 158.791286 274.103657 
L 158.767386 275.533444 
L 158.045159 275.533444 
L 157.134886 276.963231 
L 156.962477 276.963231 
L 156.950789 278.393019 
L 156.846479 279.822806 
L 154.437885 279.822806 
L 154.077909 281.252593 
L 153.879127 282.68238 
L 153.297944 284.112168 
L 153.167258 284.112168 
L 152.531886 285.541955 
L 152.398663 285.541955 
L 152.38457 289.831316 
L 152.233652 291.261104 
L 152.233574 292.690891 
L 152.010634 292.690891 
L 151.100132 301.269614 
L 151.022184 299.839827 
L 150.741712 299.839827 
L 150.699781 301.269614 
L 150.496138 302.699402 
L 149.489487 302.699402 
L 149.179275 305.558976 
L 147.430558 305.558976 
L 147.415827 306.988763 
L 147.211215 306.988763 
L 146.902495 308.418551 
L 146.265128 299.839827 
L 144.462654 299.839827 
L 144.063888 301.269614 
L 144.061666 302.699402 
L 142.94508 302.699402 
L 142.943446 304.129189 
L 142.61811 304.129189 
L 142.444895 305.558976 
L 142.31782 305.558976 
L 142.312316 309.848338 
L 142.020764 309.848338 
L 142.020293 311.278125 
L 141.709536 311.278125 
L 141.701795 309.848338 
L 141.69962 311.278125 
L 140.140405 311.278125 
L 139.842065 312.707912 
L 139.834515 314.137699 
L 138.306718 314.137699 
L 137.585305 308.418551 
L 137.324756 312.707912 
L 137.030937 318.427061 
L 135.488271 318.427061 
L 135.191958 319.856848 
L 134.899217 319.856848 
L 134.899118 322.716423 
L 134.702208 322.716423 
L 134.6859 324.14621 
L 134.077222 324.14621 
L 133.942252 331.295146 
L 133.746732 332.724934 
L 133.727088 334.154721 
L 133.089848 334.154721 
L 132.98736 339.87387 
L 132.745359 339.87387 
L 132.695376 341.303657 
L 132.562405 342.733444 
L 132.393077 349.88238 
L 132.134468 351.312168 
L 130.095338 351.312168 
L 130.092985 354.171742 
L 127.851465 354.171742 
L 127.836901 357.031316 
L 126.733206 357.031316 
L 126.732014 349.88238 
L 125.102454 349.88238 
L 124.420655 351.312168 
L 122.27263 352.741955 
L 120.868848 352.741955 
L 119.945019 354.171742 
L 118.986965 354.171742 
L 118.766437 355.601529 
L 118.17103 357.031316 
L 118.0445 358.461104 
L 118.044291 361.320678 
L 117.179233 361.320678 
L 116.465584 364.180253 
L 115.258426 364.180253 
L 115.258242 365.61004 
L 112.299298 365.61004 
L 110.839738 367.039827 
L 109.788906 367.039827 
L 109.764525 368.469614 
L 109.28646 369.899402 
L 108.652641 369.899402 
L 108.55097 371.329189 
L 108.550822 368.469614 
L 108.538585 369.899402 
L 108.402522 371.329189 
L 108.402101 374.188763 
L 102.277441 374.188763 
L 102.170499 378.478125 
L 101.223949 378.478125 
L 99.053305 379.907912 
L 99.054982 381.337699 
L 99.052654 381.337699 
L 96.121711 381.337699 
L 96.027597 385.627061 
L 94.316615 385.627061 
L 94.243284 387.056848 
L 94.146074 388.486636 
L 93.9417 397.065359 
L 93.608057 397.065359 
L 93.235529 398.495146 
L 93.004004 398.495146 
L 92.924623 401.354721 
L 92.413114 402.784508 
L 89.950889 402.784508 
L 89.589767 404.214295 
L 89.569857 405.644082 
L 89.265227 405.644082 
L 88.80924 412.793019 
L 84.746429 412.793019 
L 84.686827 415.652593 
L 84.112737 415.652593 
L 83.526266 417.08238 
L 82.958565 417.08238 
L 82.562926 418.512168 
L 82.254418 418.512168 
L 82.031114 419.941955 
L 81.919368 422.801529 
L 81.602791 424.231316 
L 81.396842 428.520678 
L 77.347085 428.520678 
L 76.764335 429.950465 
L 75.051011 429.950465 
L 75.050951 431.380253 
L 74.407075 431.380253 
L 74.405122 429.950465 
L 74.010286 431.380253 
L 73.731445 432.81004 
L 73.517508 432.81004 
L 73.218941 435.669614 
L 72.329261 435.669614 
L 72.329261 435.669614 
" clip-path="url(#pebb6d4d2a1)" style="fill: none; stroke: #ff7f0e; stroke-opacity: 0.8; stroke-width: 1.5; stroke-linecap: square"/>
   </g>
   <g id="patch_3">
    <path d="M 46.965625 465.838125 
L 46.965625 22.318125 
" style="fill: none; stroke: #000000; stroke-width: 0.8; stroke-linejoin: miter; stroke-linecap: square"/>
   </g>
   <g id="patch_4">
    <path d="M 604.965625 465.838125 
L 604.965625 22.318125 
" style="fill: none; stroke: #000000; stroke-width: 0.8; stroke-linejoin: miter; stroke-linecap: square"/>
   </g>
   <g id="patch_5">
    <path d="M 46.965625 465.838125 
L 604.965625 465.838125 
" style="fill: none; stroke: #000000; stroke-width: 0.8; stroke-linejoin: miter; stroke-linecap: square"/>
   </g>
   <g id="patch_6">
    <path d="M 46.965625 22.318125 
L 604.965625 22.318125 
" style="fill: none; stroke: #000000; stroke-width: 0.8; stroke-linejoin: miter; stroke-linecap: square"/>
   </g>
   <g id="text_19">
    <!-- 9 -->
    <g transform="translate(579.601989 435.669614) scale(0.1 -0.1)">
     <defs>
      <path id="DejaVuSans-39" d="M 703 97 
L 703 672 
Q 941 559 1184 500 
Q 1428 441 1663 441 
Q 2288 441 2617 861 
Q 2947 1281 2994 2138 
Q 2813 1869 2534 1725 
Q 2256 1581 1919 1581 
Q 1219 1581 811 2004 
Q 403 2428 403 3163 
Q 403 3881 828 4315 
Q 1253 4750 1959 4750 
Q 2769 4750 3195 4129 
Q 3622 3509 3622 2328 
Q 3622 1225 3098 567 
Q 2575 -91 1691 -91 
Q 1453 -91 1209 -44 
Q 966 3 703 97 
z
M 1959 2075 
Q 2384 2075 2632 2365 
Q 2881 2656 2881 3163 
Q 2881 3666 2632 3958 
Q 2384 4250 1959 4250 
Q 1534 4250 1286 3958 
Q 1038 3666 1038 3163 
Q 1038 2656 1286 2365 
Q 1534 2075 1959 2075 
z
" transform="scale(0.015625)"/>
     </defs>
     <use xlink:href="#DejaVuSans-39"/>
    </g>
   </g>
   <g id="text_20">
    <!-- 207 -->
    <g transform="translate(579.601989 152.571742) scale(0.1 -0.1)">
     <use xlink:href="#DejaVuSans-32"/>
     <use xlink:href="#DejaVuSans-30" x="63.623047"/>
     <use xlink:href="#DejaVuSans-37" x="127.246094"/>
    </g>
   </g>
   <g id="text_21">
    <!-- WireGuard peers over time -->
    <g transform="translate(244.736875 16.318125) scale(0.12 -0.12)">
     <defs>
      <path id="DejaVuSans-57" d="M 213 4666 
L 850 4666 
L 1831 722 
L 2809 4666 
L 3519 4666 
L 4500 722 
L 5478 4666 
L 6119 4666 
L 4947 0 
L 4153 0 
L 3169 4050 
L 2175 0 
L 1381 0 
L 213 4666 
z
" transform="scale(0.015625)"/>
      <path id="DejaVuSans-69" d="M 603 3500 
L 1178 3500 
L 1178 0 
L 603 0 
L 603 3500 
z
M 603 4863 
L 1178 4863 
L 1178 4134 
L 603 4134 
L 603 4863 
z
" transform="scale(0.015625)"/>
      <path id="DejaVuSans-72" d="M 2631 2963 
Q 2534 3019 2420 3045 
Q 2306 3072 2169 3072 
Q 1681 3072 1420 2755 
Q 1159 2438 1159 1844 
L 1159 0 
L 581 0 
L 581 3500 
L 1159 3500 
L 1159 2956 
Q 1341 3275 1631 3429 
Q 1922 3584 2338 3584 
Q 2397 3584 2469 3576 
Q 2541 3569 2628 3553 
L 2631 2963 
z
" transform="scale(0.015625)"/>
      <path id="DejaVuSans-47" d="M 3809 666 
L 3809 1919 
L 2778 1919 
L 2778 2438 
L 4434 2438 
L 4434 434 
Q 4069 175 3628 42 
Q 3188 -91 2688 -91 
Q 1594 -91 976 548 
Q 359 1188 359 2328 
Q 359 3472 976 4111 
Q 1594 4750 2688 4750 
Q 3144 4750 3555 4637 
Q 3966 4525 4313 4306 
L 4313 3634 
Q 3963 3931 3569 4081 
Q 3175 4231 2741 4231 
Q 1884 4231 1454 3753 
Q 1025 3275 1025 2328 
Q 1025 1384 1454 906 
Q 1884 428 2741 428 
Q 3075 428 3337 486 
Q 3600 544 3809 666 
z
" transform="scale(0.015625)"/>
      <path id="DejaVuSans-64" d="M 2906 2969 
L 2906 4863 
L 3481 4863 
L 3481 0 
L 2906 0 
L 2906 525 
Q 2725 213 2448 61 
Q 2172 -91 1784 -91 
Q 1150 -91 751 415 
Q 353 922 353 1747 
Q 353 2572 751 3078 
Q 1150 3584 1784 3584 
Q 2172 3584 2448 3432 
Q 2725 3281 2906 2969 
z
M 947 1747 
Q 947 1113 1208 752 
Q 1469 391 1925 391 
Q 2381 391 2643 752 
Q 2906 1113 2906 1747 
Q 2906 2381 2643 2742 
Q 2381 3103 1925 3103 
Q 1469 3103 1208 2742 
Q 947 2381 947 1747 
z
" transform="scale(0.015625)"/>
      <path id="DejaVuSans-20" transform="scale(0.015625)"/>
      <path id="DejaVuSans-70" d="M 1159 525 
L 1159 -1331 
L 581 -1331 
L 581 3500 
L 1159 3500 
L 1159 2969 
Q 1341 3281 1617 3432 
Q 1894 3584 2278 3584 
Q 2916 3584 3314 3078 
Q 3713 2572 3713 1747 
Q 3713 922 3314 415 
Q 2916 -91 2278 -91 
Q 1894 -91 1617 61 
Q 1341 213 1159 525 
z
M 3116 1747 
Q 3116 2381 2855 2742 
Q 2594 3103 2138 3103 
Q 1681 3103 1420 2742 
Q 1159 2381 1159 1747 
Q 1159 1113 1420 752 
Q 1681 391 2138 391 
Q 2594 391 2855 752 
Q 3116 1113 3116 1747 
z
" transform="scale(0.015625)"/>
      <path id="DejaVuSans-73" d="M 2834 3397 
L 2834 2853 
Q 2591 2978 2328 3040 
Q 2066 3103 1784 3103 
Q 1356 3103 1142 2972 
Q 928 2841 928 2578 
Q 928 2378 1081 2264 
Q 1234 2150 1697 2047 
L 1894 2003 
Q 2506 1872 2764 1633 
Q 3022 1394 3022 966 
Q 3022 478 2636 193 
Q 2250 -91 1575 -91 
Q 1294 -91 989 -36 
Q 684 19 347 128 
L 347 722 
Q 666 556 975 473 
Q 1284 391 1588 391 
Q 1994 391 2212 530 
Q 2431 669 2431 922 
Q 2431 1156 2273 1281 
Q 2116 1406 1581 1522 
L 1381 1569 
Q 847 1681 609 1914 
Q 372 2147 372 2553 
Q 372 3047 722 3315 
Q 1072 3584 1716 3584 
Q 2034 3584 2315 3537 
Q 2597 3491 2834 3397 
z
" transform="scale(0.015625)"/>
      <path id="DejaVuSans-76" d="M 191 3500 
L 800 3500 
L 1894 563 
L 2988 3500 
L 3597 3500 
L 2284 0 
L 1503 0 
L 191 3500 
z
" transform="scale(0.015625)"/>
      <path id="DejaVuSans-6d" d="M 3328 2828 
Q 3544 3216 3844 3400 
Q 4144 3584 4550 3584 
Q 5097 3584 5394 3201 
Q 5691 2819 5691 2113 
L 5691 0 
L 5113 0 
L 5113 2094 
Q 5113 2597 4934 2840 
Q 4756 3084 4391 3084 
Q 3944 3084 3684 2787 
Q 3425 2491 3425 1978 
L 3425 0 
L 2847 0 
L 2847 2094 
Q 2847 2600 2669 2842 
Q 2491 3084 2119 3084 
Q 1678 3084 1418 2786 
Q 1159 2488 1159 1978 
L 1159 0 
L 581 0 
L 581 3500 
L 1159 3500 
L 1159 2956 
Q 1356 3278 1631 3431 
Q 1906 3584 2284 3584 
Q 2666 3584 2933 3390 
Q 3200 3197 3328 2828 
z
" transform="scale(0.015625)"/>
     </defs>
     <use xlink:href="#DejaVuSans-57"/>
     <use xlink:href="#DejaVuSans-69" x="96.626953"/>
     <use xlink:href="#DejaVuSans-72" x="124.410156"/>
     <use xlink:href="#DejaVuSans-65" x="163.273438"/>
     <use xlink:href="#DejaVuSans-47" x="224.796875"/>
     <use xlink:href="#DejaVuSans-75" x="302.287109"/>
     <use xlink:href="#DejaVuSans-61" x="365.666016"/>
     <use xlink:href="#DejaVuSans-72" x="426.945312"/>
     <use xlink:href="#DejaVuSans-64" x="466.308594"/>
     <use xlink:href="#DejaVuSans-20" x="529.785156"/>
     <use xlink:href="#DejaVuSans-70" x="561.572266"/>
     <use xlink:href="#DejaVuSans-65" x="625.048828"/>
     <use xlink:href="#DejaVuSans-65" x="686.572266"/>
     <use xlink:href="#DejaVuSans-72" x="748.095703"/>
     <use xlink:href="#DejaVuSans-73" x="789.208984"/>
     <use xlink:href="#DejaVuSans-20" x="841.308594"/>
     <use xlink:href="#DejaVuSans-6f" x="873.095703"/>
     <use xlink:href="#DejaVuSans-76" x="934.277344"/>
     <use xlink:href="#DejaVuSans-65" x="993.457031"/>
     <use xlink:href="#DejaVuSans-72" x="1054.980469"/>
     <use xlink:href="#DejaVuSans-20" x="1096.09375"/>
     <use xlink:href="#DejaVuSans-74" x="1127.880859"/>
     <use xlink:href="#DejaVuSans-69" x="1167.089844"/>
     <use xlink:href="#DejaVuSans-6d" x="1194.873047"/>
     <use xlink:href="#DejaVuSans-65" x="1292.285156"/>
    </g>
   </g>
   <g id="legend_1">
    <g id="patch_7">
     <path d="M 53.965625 59.674375 
L 163.390625 59.674375 
Q 165.390625 59.674375 165.390625 57.674375 
L 165.390625 29.318125 
Q 165.390625 27.318125 163.390625 27.318125 
L 53.965625 27.318125 
Q 51.965625 27.318125 51.965625 29.318125 
L 51.965625 57.674375 
Q 51.965625 59.674375 53.965625 59.674375 
z
" style="fill: #ffffff; opacity: 0.8; stroke: #cccccc; stroke-linejoin: miter"/>
    </g>
    <g id="line2d_35">
     <path d="M 55.965625 35.416562 
L 65.965625 35.416562 
L 75.965625 35.416562 
" style="fill: none; stroke: #1f77b4; stroke-opacity: 0.8; stroke-width: 1.5; stroke-linecap: square"/>
    </g>
    <g id="text_22">
     <!-- # routers -->
     <g transform="translate(83.965625 38.916562) scale(0.1 -0.1)">
      <defs>
       <path id="DejaVuSans-23" d="M 3272 2816 
L 2363 2816 
L 2100 1772 
L 3016 1772 
L 3272 2816 
z
M 2803 4594 
L 2478 3297 
L 3391 3297 
L 3719 4594 
L 4219 4594 
L 3897 3297 
L 4872 3297 
L 4872 2816 
L 3775 2816 
L 3519 1772 
L 4513 1772 
L 4513 1294 
L 3397 1294 
L 3072 0 
L 2572 0 
L 2894 1294 
L 1978 1294 
L 1656 0 
L 1153 0 
L 1478 1294 
L 494 1294 
L 494 1772 
L 1594 1772 
L 1856 2816 
L 850 2816 
L 850 3297 
L 1978 3297 
L 2297 4594 
L 2803 4594 
z
" transform="scale(0.015625)"/>
      </defs>
      <use xlink:href="#DejaVuSans-23"/>
      <use xlink:href="#DejaVuSans-20" x="83.789062"/>
      <use xlink:href="#DejaVuSans-72" x="115.576172"/>
      <use xlink:href="#DejaVuSans-6f" x="154.439453"/>
      <use xlink:href="#DejaVuSans-75" x="215.621094"/>
      <use xlink:href="#DejaVuSans-74" x="279"/>
      <use xlink:href="#DejaVuSans-65" x="318.208984"/>
      <use xlink:href="#DejaVuSans-72" x="379.732422"/>
      <use xlink:href="#DejaVuSans-73" x="420.845703"/>
     </g>
    </g>
    <g id="line2d_36">
     <path d="M 55.965625 50.094687 
L 65.965625 50.094687 
L 75.965625 50.094687 
" style="fill: none; stroke: #ff7f0e; stroke-opacity: 0.8; stroke-width: 1.5; stroke-linecap: square"/>
    </g>
    <g id="text_23">
     <!-- # BGP sessions -->
     <g transform="translate(83.965625 53.594687) scale(0.1 -0.1)">
      <defs>
       <path id="DejaVuSans-42" d="M 1259 2228 
L 1259 519 
L 2272 519 
Q 2781 519 3026 730 
Q 3272 941 3272 1375 
Q 3272 1813 3026 2020 
Q 2781 2228 2272 2228 
L 1259 2228 
z
M 1259 4147 
L 1259 2741 
L 2194 2741 
Q 2656 2741 2882 2914 
Q 3109 3088 3109 3444 
Q 3109 3797 2882 3972 
Q 2656 4147 2194 4147 
L 1259 4147 
z
M 628 4666 
L 2241 4666 
Q 2963 4666 3353 4366 
Q 3744 4066 3744 3513 
Q 3744 3084 3544 2831 
Q 3344 2578 2956 2516 
Q 3422 2416 3680 2098 
Q 3938 1781 3938 1306 
Q 3938 681 3513 340 
Q 3088 0 2303 0 
L 628 0 
L 628 4666 
z
" transform="scale(0.015625)"/>
       <path id="DejaVuSans-50" d="M 1259 4147 
L 1259 2394 
L 2053 2394 
Q 2494 2394 2734 2622 
Q 2975 2850 2975 3272 
Q 2975 3691 2734 3919 
Q 2494 4147 2053 4147 
L 1259 4147 
z
M 628 4666 
L 2053 4666 
Q 2838 4666 3239 4311 
Q 3641 3956 3641 3272 
Q 3641 2581 3239 2228 
Q 2838 1875 2053 1875 
L 1259 1875 
L 1259 0 
L 628 0 
L 628 4666 
z
" transform="scale(0.015625)"/>
      </defs>
      <use xlink:href="#DejaVuSans-23"/>
      <use xlink:href="#DejaVuSans-20" x="83.789062"/>
      <use xlink:href="#DejaVuSans-42" x="115.576172"/>
      <use xlink:href="#DejaVuSans-47" x="182.429688"/>
      <use xlink:href="#DejaVuSans-50" x="259.919922"/>
      <use xlink:href="#DejaVuSans-20" x="320.222656"/>
      <use xlink:href="#DejaVuSans-73" x="352.009766"/>
      <use xlink:href="#DejaVuSans-65" x="404.109375"/>
      <use xlink:href="#DejaVuSans-73" x="465.632812"/>
      <use xlink:href="#DejaVuSans-73" x="517.732422"/>
      <use xlink:href="#DejaVuSans-69" x="569.832031"/>
      <use xlink:href="#DejaVuSans-6f" x="597.615234"/>
      <use xlink:href="#DejaVuSans-6e" x="658.796875"/>
      <use xlink:href="#DejaVuSans-73" x="722.175781"/>
     </g>
    </g>
   </g>
  </g>
 </g>
 <defs>
  <clipPath id="pebb6d4d2a1">
   <rect x="46.965625" y="22.318125" width="558" height="443.52"/>
  </clipPath>
 </defs>
</svg>
