<?xml version="1.0" encoding="utf-8" standalone="no"?>
<!DOCTYPE svg PUBLIC "-//W3C//DTD SVG 1.1//EN"
  "http://www.w3.org/Graphics/SVG/1.1/DTD/svg11.dtd">
<svg xmlns:xlink="http://www.w3.org/1999/xlink" width="612.4875pt" height="504.038125pt" viewBox="0 0 612.4875 504.038125" xmlns="http://www.w3.org/2000/svg" version="1.1">
 <metadata>
  <rdf:RDF xmlns:dc="http://purl.org/dc/elements/1.1/" xmlns:cc="http://creativecommons.org/ns#" xmlns:rdf="http://www.w3.org/1999/02/22-rdf-syntax-ns#">
   <cc:Work>
    <dc:type rdf:resource="http://purl.org/dc/dcmitype/StillImage"/>
    <dc:format>image/svg+xml</dc:format>
    <dc:creator>
     <cc:Agent>
      <dc:title>Matplotlib v3.11.0, https://matplotlib.org/</dc:title>
     </cc:Agent>
    </dc:creator>
   </cc:Work>
  </rdf:RDF>
 </metadata>
 <defs>
  <style type="text/css">*{stroke-linejoin: round; stroke-linecap: butt}</style>
 </defs>
 <g id="figure_1">
  <g id="patch_1">
   <path d="M 0 504.038125 
L 612.4875 504.038125 
L 612.4875 0 
L 0 0 
z
" style="fill: #ffffff"/>
  </g>
  <g id="axes_1">
   <g id="patch_2">
    <path d="M 47.2875 465.838125 
L 605.2875 465.838125 
L 605.2875 22.318125 
L 47.2875 22.318125 
z
" style="fill: #ffffff"/>
   </g>
   <g id="matplotlib.axis_1">
    <g id="xtick_1">
     <g id="line2d_1">
      <path d="M 119.119661 465.838125 
L 119.119661 22.318125 
" clip-path="url(#pb3f5158d05)" style="fill: none; stroke: #b0b0b0; stroke-opacity: 0.6; stroke-width: 0.8; stroke-linecap: square"/>
     </g>
     <g id="line2d_2">
      <defs>
       <path id="m4989ca4dfe" d="M 0 0 
L 0 3.5 
" style="stroke: #000000; stroke-width: 0.8"/>
      </defs>
      <g>
       <use xlink:href="#m4989ca4dfe" x="119.119661" y="465.838125" style="stroke: #000000; stroke-width: 0.8"/>
      </g>
     </g>
     <g id="text_1">
      <!-- 2021 -->
      <g transform="translate(106.394661 480.435781) scale(0.1 -0.1)">
       <defs>
        <path id="DejaVuSans-15" d="M 1228 531 
L 3431 531 
L 3431 0 
L 469 0 
L 469 531 
Q 828 903 1448 1529 
Q 2069 2156 2228 2338 
Q 2531 2678 2651 2914 
Q 2772 3150 2772 3378 
Q 2772 3750 2511 3984 
Q 2250 4219 1831 4219 
Q 1534 4219 1204 4116 
Q 875 4013 500 3803 
L 500 4441 
Q 881 4594 1212 4672 
Q 1544 4750 1819 4750 
Q 2544 4750 2975 4387 
Q 3406 4025 3406 3419 
Q 3406 3131 3298 2873 
Q 3191 2616 2906 2266 
Q 2828 2175 2409 1742 
Q 1991 1309 1228 531 
z
" transform="scale(0.015625)"/>
        <path id="DejaVuSans-13" d="M 2034 4250 
Q 1547 4250 1301 3770 
Q 1056 3291 1056 2328 
Q 1056 1369 1301 889 
Q 1547 409 2034 409 
Q 2525 409 2770 889 
Q 3016 1369 3016 2328 
Q 3016 3291 2770 3770 
Q 2525 4250 2034 4250 
z
M 2034 4750 
Q 2819 4750 3233 4129 
Q 3647 3509 3647 2328 
Q 3647 1150 3233 529 
Q 2819 -91 2034 -91 
Q 1250 -91 836 529 
Q 422 1150 422 2328 
Q 422 3509 836 4129 
Q 1250 4750 2034 4750 
z
" transform="scale(0.015625)"/>
        <path id="DejaVuSans-14" d="M 794 531 
L 1825 531 
L 1825 4091 
L 703 3866 
L 703 4441 
L 1819 4666 
L 2450 4666 
L 2450 531 
L 3481 531 
L 3481 0 
L 794 0 
L 794 531 
z
" transform="scale(0.015625)"/>
       </defs>
       <use xlink:href="#DejaVuSans-15"/>
       <use xlink:href="#DejaVuSans-13" transform="translate(63.625 0)"/>
       <use xlink:href="#DejaVuSans-15" transform="translate(127.25 0)"/>
       <use xlink:href="#DejaVuSans-14" transform="translate(190.875 0)"/>
      </g>
     </g>
    </g>
    <g id="xtick_2">
     <g id="line2d_3">
      <path d="M 203.675197 465.838125 
L 203.675197 22.318125 
" clip-path="url(#pb3f5158d05)" style="fill: none; stroke: #b0b0b0; stroke-opacity: 0.6; stroke-width: 0.8; stroke-linecap: square"/>
     </g>
     <g id="line2d_4">
      <g>
       <use xlink:href="#m4989ca4dfe" x="203.675197" y="465.838125" style="stroke: #000000; stroke-width: 0.8"/>
      </g>
     </g>
     <g id="text_2">
      <!-- 2022 -->
      <g transform="translate(190.950197 480.435781) scale(0.1 -0.1)">
       <use xlink:href="#DejaVuSans-15"/>
       <use xlink:href="#DejaVuSans-13" transform="translate(63.625 0)"/>
       <use xlink:href="#DejaVuSans-15" transform="translate(127.25 0)"/>
       <use xlink:href="#DejaVuSans-15" transform="translate(190.875 0)"/>
      </g>
     </g>
    </g>
    <g id="xtick_3">
     <g id="line2d_5">
      <path d="M 288.230733 465.838125 
L 288.230733 22.318125 
" clip-path="url(#pb3f5158d05)" style="fill: none; stroke: #b0b0b0; stroke-opacity: 0.6; stroke-width: 0.8; stroke-linecap: square"/>
     </g>
     <g id="line2d_6">
      <g>
       <use xlink:href="#m4989ca4dfe" x="288.230733" y="465.838125" style="stroke: #000000; stroke-width: 0.8"/>
      </g>
     </g>
     <g id="text_3">
      <!-- 2023 -->
      <g transform="translate(275.505733 480.435781) scale(0.1 -0.1)">
       <defs>
        <path id="DejaVuSans-16" d="M 2597 2516 
Q 3050 2419 3304 2112 
Q 3559 1806 3559 1356 
Q 3559 666 3084 287 
Q 2609 -91 1734 -91 
Q 1441 -91 1130 -33 
Q 819 25 488 141 
L 488 750 
Q 750 597 1062 519 
Q 1375 441 1716 441 
Q 2309 441 2620 675 
Q 2931 909 2931 1356 
Q 2931 1769 2642 2001 
Q 2353 2234 1838 2234 
L 1294 2234 
L 1294 2753 
L 1863 2753 
Q 2328 2753 2575 2939 
Q 2822 3125 2822 3475 
Q 2822 3834 2567 4026 
Q 2313 4219 1838 4219 
Q 1578 4219 1281 4162 
Q 984 4106 628 3988 
L 628 4550 
Q 988 4650 1302 4700 
Q 1616 4750 1894 4750 
Q 2613 4750 3031 4423 
Q 3450 4097 3450 3541 
Q 3450 3153 3228 2886 
Q 3006 2619 2597 2516 
z
" transform="scale(0.015625)"/>
       </defs>
       <use xlink:href="#DejaVuSans-15"/>
       <use xlink:href="#DejaVuSans-13" transform="translate(63.625 0)"/>
       <use xlink:href="#DejaVuSans-15" transform="translate(127.25 0)"/>
       <use xlink:href="#DejaVuSans-16" transform="translate(190.875 0)"/>
      </g>
     </g>
    </g>
    <g id="xtick_4">
     <g id="line2d_7">
      <path d="M 372.786269 465.838125 
L 372.786269 22.318125 
" clip-path="url(#pb3f5158d05)" style="fill: none; stroke: #b0b0b0; stroke-opacity: 0.6; stroke-width: 0.8; stroke-linecap: square"/>
     </g>
     <g id="line2d_8">
      <g>
       <use xlink:href="#m4989ca4dfe" x="372.786269" y="465.838125" style="stroke: #000000; stroke-width: 0.8"/>
      </g>
     </g>
     <g id="text_4">
      <!-- 2024 -->
      <g transform="translate(360.061269 480.435781) scale(0.1 -0.1)">
       <defs>
        <path id="DejaVuSans-17" d="M 2419 4116 
L 825 1625 
L 2419 1625 
L 2419 4116 
z
M 2253 4666 
L 3047 4666 
L 3047 1625 
L 3713 1625 
L 3713 1100 
L 3047 1100 
L 3047 0 
L 2419 0 
L 2419 1100 
L 313 1100 
L 313 1709 
L 2253 4666 
z
" transform="scale(0.015625)"/>
       </defs>
       <use xlink:href="#DejaVuSans-15"/>
       <use xlink:href="#DejaVuSans-13" transform="translate(63.625 0)"/>
       <use xlink:href="#DejaVuSans-15" transform="translate(127.25 0)"/>
       <use xlink:href="#DejaVuSans-17" transform="translate(190.875 0)"/>
      </g>
     </g>
    </g>
    <g id="xtick_5">
     <g id="line2d_9">
      <path d="M 457.573464 465.838125 
L 457.573464 22.318125 
" clip-path="url(#pb3f5158d05)" style="fill: none; stroke: #b0b0b0; stroke-opacity: 0.6; stroke-width: 0.8; stroke-linecap: square"/>
     </g>
     <g id="line2d_10">
      <g>
       <use xlink:href="#m4989ca4dfe" x="457.573464" y="465.838125" style="stroke: #000000; stroke-width: 0.8"/>
      </g>
     </g>
     <g id="text_5">
      <!-- 2025 -->
      <g transform="translate(444.848464 480.435781) scale(0.1 -0.1)">
       <defs>
        <path id="DejaVuSans-18" d="M 691 4666 
L 3169 4666 
L 3169 4134 
L 1269 4134 
L 1269 2991 
Q 1406 3038 1543 3061 
Q 1681 3084 1819 3084 
Q 2600 3084 3056 2656 
Q 3513 2228 3513 1497 
Q 3513 744 3044 326 
Q 2575 -91 1722 -91 
Q 1428 -91 1123 -41 
Q 819 9 494 109 
L 494 744 
Q 775 591 1075 516 
Q 1375 441 1709 441 
Q 2250 441 2565 725 
Q 2881 1009 2881 1497 
Q 2881 1984 2565 2268 
Q 2250 2553 1709 2553 
Q 1456 2553 1204 2497 
Q 953 2441 691 2322 
L 691 4666 
z
" transform="scale(0.015625)"/>
       </defs>
       <use xlink:href="#DejaVuSans-15"/>
       <use xlink:href="#DejaVuSans-13" transform="translate(63.625 0)"/>
       <use xlink:href="#DejaVuSans-15" transform="translate(127.25 0)"/>
       <use xlink:href="#DejaVuSans-18" transform="translate(190.875 0)"/>
      </g>
     </g>
    </g>
    <g id="xtick_6">
     <g id="line2d_11">
      <path d="M 542.129 465.838125 
L 542.129 22.318125 
" clip-path="url(#pb3f5158d05)" style="fill: none; stroke: #b0b0b0; stroke-opacity: 0.6; stroke-width: 0.8; stroke-linecap: square"/>
     </g>
     <g id="line2d_12">
      <g>
       <use xlink:href="#m4989ca4dfe" x="542.129" y="465.838125" style="stroke: #000000; stroke-width: 0.8"/>
      </g>
     </g>
     <g id="text_6">
      <!-- 2026 -->
      <g transform="translate(529.404 480.435781) scale(0.1 -0.1)">
       <defs>
        <path id="DejaVuSans-19" d="M 2113 2584 
Q 1688 2584 1439 2293 
Q 1191 2003 1191 1497 
Q 1191 994 1439 701 
Q 1688 409 2113 409 
Q 2538 409 2786 701 
Q 3034 994 3034 1497 
Q 3034 2003 2786 2293 
Q 2538 2584 2113 2584 
z
M 3366 4563 
L 3366 3988 
Q 3128 4100 2886 4159 
Q 2644 4219 2406 4219 
Q 1781 4219 1451 3797 
Q 1122 3375 1075 2522 
Q 1259 2794 1537 2939 
Q 1816 3084 2150 3084 
Q 2853 3084 3261 2657 
Q 3669 2231 3669 1497 
Q 3669 778 3244 343 
Q 2819 -91 2113 -91 
Q 1303 -91 875 529 
Q 447 1150 447 2328 
Q 447 3434 972 4092 
Q 1497 4750 2381 4750 
Q 2619 4750 2861 4703 
Q 3103 4656 3366 4563 
z
" transform="scale(0.015625)"/>
       </defs>
       <use xlink:href="#DejaVuSans-15"/>
       <use xlink:href="#DejaVuSans-13" transform="translate(63.625 0)"/>
       <use xlink:href="#DejaVuSans-15" transform="translate(127.25 0)"/>
       <use xlink:href="#DejaVuSans-19" transform="translate(190.875 0)"/>
      </g>
     </g>
    </g>
    <g id="text_7">
     <!-- Date -->
     <g transform="translate(314.336719 494.435781) scale(0.1 -0.1)">
      <defs>
       <path id="DejaVuSans-27" d="M 1259 4147 
L 1259 519 
L 2022 519 
Q 2988 519 3436 956 
Q 3884 1394 3884 2338 
Q 3884 3275 3436 3711 
Q 2988 4147 2022 4147 
L 1259 4147 
z
M 628 4666 
L 1925 4666 
Q 3281 4666 3915 4102 
Q 4550 3538 4550 2338 
Q 4550 1131 3912 565 
Q 3275 0 1925 0 
L 628 0 
L 628 4666 
z
" transform="scale(0.015625)"/>
       <path id="DejaVuSans-44" d="M 2194 1759 
Q 1497 1759 1228 1600 
Q 959 1441 959 1056 
Q 959 750 1161 570 
Q 1363 391 1709 391 
Q 2188 391 2477 730 
Q 2766 1069 2766 1631 
L 2766 1759 
L 2194 1759 
z
M 3341 1997 
L 3341 0 
L 2766 0 
L 2766 531 
Q 2569 213 2275 61 
Q 1981 -91 1556 -91 
Q 1019 -91 701 211 
Q 384 513 384 1019 
Q 384 1609 779 1909 
Q 1175 2209 1959 2209 
L 2766 2209 
L 2766 2266 
Q 2766 2663 2505 2880 
Q 2244 3097 1772 3097 
Q 1472 3097 1187 3025 
Q 903 2953 641 2809 
L 641 3341 
Q 956 3463 1253 3523 
Q 1550 3584 1831 3584 
Q 2591 3584 2966 3190 
Q 3341 2797 3341 1997 
z
" transform="scale(0.015625)"/>
       <path id="DejaVuSans-57" d="M 1172 4494 
L 1172 3500 
L 2356 3500 
L 2356 3053 
L 1172 3053 
L 1172 1153 
Q 1172 725 1289 603 
Q 1406 481 1766 481 
L 2356 481 
L 2356 0 
L 1766 0 
Q 1100 0 847 248 
Q 594 497 594 1153 
L 594 3053 
L 172 3053 
L 172 3500 
L 594 3500 
L 594 4494 
L 1172 4494 
z
" transform="scale(0.015625)"/>
       <path id="DejaVuSans-48" d="M 3597 1894 
L 3597 1613 
L 953 1613 
Q 991 1019 1311 708 
Q 1631 397 2203 397 
Q 2534 397 2845 478 
Q 3156 559 3463 722 
L 3463 178 
Q 3153 47 2828 -22 
Q 2503 -91 2169 -91 
Q 1331 -91 842 396 
Q 353 884 353 1716 
Q 353 2575 817 3079 
Q 1281 3584 2069 3584 
Q 2775 3584 3186 3129 
Q 3597 2675 3597 1894 
z
M 3022 2063 
Q 3016 2534 2758 2815 
Q 2500 3097 2075 3097 
Q 1594 3097 1305 2825 
Q 1016 2553 972 2059 
L 3022 2063 
z
" transform="scale(0.015625)"/>
      </defs>
      <use xlink:href="#DejaVuSans-27"/>
      <use xlink:href="#DejaVuSans-44" transform="translate(77 0)"/>
      <use xlink:href="#DejaVuSans-57" transform="translate(138.28125 0)"/>
      <use xlink:href="#DejaVuSans-48" transform="translate(177.484375 0)"/>
     </g>
    </g>
   </g>
   <g id="matplotlib.axis_2">
    <g id="ytick_1">
     <g id="line2d_13">
      <path d="M 47.2875 447.85171 
L 605.2875 447.85171 
" clip-path="url(#pb3f5158d05)" style="fill: none; stroke: #b0b0b0; stroke-opacity: 0.6; stroke-width: 0.8; stroke-linecap: square"/>
     </g>
     <g id="line2d_14">
      <defs>
       <path id="mc11dc46687" d="M 0 0 
L -3.5 0 
" style="stroke: #000000; stroke-width: 0.8"/>
      </defs>
      <g>
       <use xlink:href="#mc11dc46687" x="47.2875" y="447.85171" style="stroke: #000000; stroke-width: 0.8"/>
      </g>
     </g>
     <g id="text_8">
      <!-- 0 -->
      <g transform="translate(33.925 451.650538) scale(0.1 -0.1)">
       <use xlink:href="#DejaVuSans-13"/>
      </g>
     </g>
    </g>
    <g id="ytick_2">
     <g id="line2d_15">
      <path d="M 47.2875 393.512087 
L 605.2875 393.512087 
" clip-path="url(#pb3f5158d05)" style="fill: none; stroke: #b0b0b0; stroke-opacity: 0.6; stroke-width: 0.8; stroke-linecap: square"/>
     </g>
     <g id="line2d_16">
      <g>
       <use xlink:href="#mc11dc46687" x="47.2875" y="393.512087" style="stroke: #000000; stroke-width: 0.8"/>
      </g>
     </g>
     <g id="text_9">
      <!-- 50 -->
      <g transform="translate(27.5625 397.310915) scale(0.1 -0.1)">
       <use xlink:href="#DejaVuSans-18"/>
       <use xlink:href="#DejaVuSans-13" transform="translate(63.625 0)"/>
      </g>
     </g>
    </g>
    <g id="ytick_3">
     <g id="line2d_17">
      <path d="M 47.2875 339.172465 
L 605.2875 339.172465 
" clip-path="url(#pb3f5158d05)" style="fill: none; stroke: #b0b0b0; stroke-opacity: 0.6; stroke-width: 0.8; stroke-linecap: square"/>
     </g>
     <g id="line2d_18">
      <g>
       <use xlink:href="#mc11dc46687" x="47.2875" y="339.172465" style="stroke: #000000; stroke-width: 0.8"/>
      </g>
     </g>
     <g id="text_10">
      <!-- 100 -->
      <g transform="translate(21.2 342.971293) scale(0.1 -0.1)">
       <use xlink:href="#DejaVuSans-14"/>
       <use xlink:href="#DejaVuSans-13" transform="translate(63.625 0)"/>
       <use xlink:href="#DejaVuSans-13" transform="translate(127.25 0)"/>
      </g>
     </g>
    </g>
    <g id="ytick_4">
     <g id="line2d_19">
      <path d="M 47.2875 284.832842 
L 605.2875 284.832842 
" clip-path="url(#pb3f5158d05)" style="fill: none; stroke: #b0b0b0; stroke-opacity: 0.6; stroke-width: 0.8; stroke-linecap: square"/>
     </g>
     <g id="line2d_20">
      <g>
       <use xlink:href="#mc11dc46687" x="47.2875" y="284.832842" style="stroke: #000000; stroke-width: 0.8"/>
      </g>
     </g>
     <g id="text_11">
      <!-- 150 -->
      <g transform="translate(21.2 288.63167) scale(0.1 -0.1)">
       <use xlink:href="#DejaVuSans-14"/>
       <use xlink:href="#DejaVuSans-18" transform="translate(63.625 0)"/>
       <use xlink:href="#DejaVuSans-13" transform="translate(127.25 0)"/>
      </g>
     </g>
    </g>
    <g id="ytick_5">
     <g id="line2d_21">
      <path d="M 47.2875 230.493219 
L 605.2875 230.493219 
" clip-path="url(#pb3f5158d05)" style="fill: none; stroke: #b0b0b0; stroke-opacity: 0.6; stroke-width: 0.8; stroke-linecap: square"/>
     </g>
     <g id="line2d_22">
      <g>
       <use xlink:href="#mc11dc46687" x="47.2875" y="230.493219" style="stroke: #000000; stroke-width: 0.8"/>
      </g>
     </g>
     <g id="text_12">
      <!-- 200 -->
      <g transform="translate(21.2 234.292047) scale(0.1 -0.1)">
       <use xlink:href="#DejaVuSans-15"/>
       <use xlink:href="#DejaVuSans-13" transform="translate(63.625 0)"/>
       <use xlink:href="#DejaVuSans-13" transform="translate(127.25 0)"/>
      </g>
     </g>
    </g>
    <g id="ytick_6">
     <g id="line2d_23">
      <path d="M 47.2875 176.153597 
L 605.2875 176.153597 
" clip-path="url(#pb3f5158d05)" style="fill: none; stroke: #b0b0b0; stroke-opacity: 0.6; stroke-width: 0.8; stroke-linecap: square"/>
     </g>
     <g id="line2d_24">
      <g>
       <use xlink:href="#mc11dc46687" x="47.2875" y="176.153597" style="stroke: #000000; stroke-width: 0.8"/>
      </g>
     </g>
     <g id="text_13">
      <!-- 250 -->
      <g transform="translate(21.2 179.952425) scale(0.1 -0.1)">
       <use xlink:href="#DejaVuSans-15"/>
       <use xlink:href="#DejaVuSans-18" transform="translate(63.625 0)"/>
       <use xlink:href="#DejaVuSans-13" transform="translate(127.25 0)"/>
      </g>
     </g>
    </g>
    <g id="ytick_7">
     <g id="line2d_25">
      <path d="M 47.2875 121.813974 
L 605.2875 121.813974 
" clip-path="url(#pb3f5158d05)" style="fill: none; stroke: #b0b0b0; stroke-opacity: 0.6; stroke-width: 0.8; stroke-linecap: square"/>
     </g>
     <g id="line2d_26">
      <g>
       <use xlink:href="#mc11dc46687" x="47.2875" y="121.813974" style="stroke: #000000; stroke-width: 0.8"/>
      </g>
     </g>
     <g id="text_14">
      <!-- 300 -->
      <g transform="translate(21.2 125.612802) scale(0.1 -0.1)">
       <use xlink:href="#DejaVuSans-16"/>
       <use xlink:href="#DejaVuSans-13" transform="translate(63.625 0)"/>
       <use xlink:href="#DejaVuSans-13" transform="translate(127.25 0)"/>
      </g>
     </g>
    </g>
    <g id="ytick_8">
     <g id="line2d_27">
      <path d="M 47.2875 67.474351 
L 605.2875 67.474351 
" clip-path="url(#pb3f5158d05)" style="fill: none; stroke: #b0b0b0; stroke-opacity: 0.6; stroke-width: 0.8; stroke-linecap: square"/>
     </g>
     <g id="line2d_28">
      <g>
       <use xlink:href="#mc11dc46687" x="47.2875" y="67.474351" style="stroke: #000000; stroke-width: 0.8"/>
      </g>
     </g>
     <g id="text_15">
      <!-- 350 -->
      <g transform="translate(21.2 71.27318) scale(0.1 -0.1)">
       <use xlink:href="#DejaVuSans-16"/>
       <use xlink:href="#DejaVuSans-18" transform="translate(63.625 0)"/>
       <use xlink:href="#DejaVuSans-13" transform="translate(127.25 0)"/>
      </g>
     </g>
    </g>
    <g id="text_16">
     <!-- Count -->
     <g transform="translate(14.797656 258.926562) rotate(-90) scale(0.1 -0.1)">
      <defs>
       <path id="DejaVuSans-26" d="M 4122 4306 
L 4122 3641 
Q 3803 3938 3442 4084 
Q 3081 4231 2675 4231 
Q 1875 4231 1450 3742 
Q 1025 3253 1025 2328 
Q 1025 1406 1450 917 
Q 1875 428 2675 428 
Q 3081 428 3442 575 
Q 3803 722 4122 1019 
L 4122 359 
Q 3791 134 3420 21 
Q 3050 -91 2638 -91 
Q 1578 -91 968 557 
Q 359 1206 359 2328 
Q 359 3453 968 4101 
Q 1578 4750 2638 4750 
Q 3056 4750 3426 4639 
Q 3797 4528 4122 4306 
z
" transform="scale(0.015625)"/>
       <path id="DejaVuSans-52" d="M 1959 3097 
Q 1497 3097 1228 2736 
Q 959 2375 959 1747 
Q 959 1119 1226 758 
Q 1494 397 1959 397 
Q 2419 397 2687 759 
Q 2956 1122 2956 1747 
Q 2956 2369 2687 2733 
Q 2419 3097 1959 3097 
z
M 1959 3584 
Q 2709 3584 3137 3096 
Q 3566 2609 3566 1747 
Q 3566 888 3137 398 
Q 2709 -91 1959 -91 
Q 1206 -91 779 398 
Q 353 888 353 1747 
Q 353 2609 779 3096 
Q 1206 3584 1959 3584 
z
" transform="scale(0.015625)"/>
       <path id="DejaVuSans-58" d="M 544 1381 
L 544 3500 
L 1119 3500 
L 1119 1403 
Q 1119 906 1312 657 
Q 1506 409 1894 409 
Q 2359 409 2629 706 
Q 2900 1003 2900 1516 
L 2900 3500 
L 3475 3500 
L 3475 0 
L 2900 0 
L 2900 538 
Q 2691 219 2414 64 
Q 2138 -91 1772 -91 
Q 1169 -91 856 284 
Q 544 659 544 1381 
z
M 1991 3584 
L 1991 3584 
z
" transform="scale(0.015625)"/>
       <path id="DejaVuSans-51" d="M 3513 2113 
L 3513 0 
L 2938 0 
L 2938 2094 
Q 2938 2591 2744 2837 
Q 2550 3084 2163 3084 
Q 1697 3084 1428 2787 
Q 1159 2491 1159 1978 
L 1159 0 
L 581 0 
L 581 3500 
L 1159 3500 
L 1159 2956 
Q 1366 3272 1645 3428 
Q 1925 3584 2291 3584 
Q 2894 3584 3203 3211 
Q 3513 2838 3513 2113 
z
" transform="scale(0.015625)"/>
      </defs>
      <use xlink:href="#DejaVuSans-26"/>
      <use xlink:href="#DejaVuSans-52" transform="translate(69.828125 0)"/>
      <use xlink:href="#DejaVuSans-58" transform="translate(131.015625 0)"/>
      <use xlink:href="#DejaVuSans-51" transform="translate(194.390625 0)"/>
      <use xlink:href="#DejaVuSans-57" transform="translate(257.765625 0)"/>
     </g>
    </g>
   </g>
   <g id="line2d_29">
    <path d="M 579.923864 439.15737 
L 577.072782 439.15737 
L 576.866943 433.723408 
L 576.720644 433.723408 
L 576.702382 429.376238 
L 559.776268 429.376238 
L 559.24734 430.463031 
L 555.192241 430.463031 
L 555.164426 431.549823 
L 555.163787 430.463031 
L 550.294594 430.463031 
L 550.270589 431.549823 
L 548.643332 431.549823 
L 547.891647 430.463031 
L 544.998397 430.463031 
L 544.963104 431.549823 
L 535.487608 431.549823 
L 535.453784 433.723408 
L 534.694401 433.723408 
L 534.512835 434.8102 
L 507.920454 434.8102 
L 507.915333 435.896993 
L 501.390188 435.896993 
L 501.385692 436.983785 
L 468.663935 436.983785 
L 468.655943 438.070578 
L 452.102199 438.070578 
L 452.006811 436.983785 
L 451.171147 435.896993 
L 451.16347 434.8102 
L 449.065498 434.8102 
L 448.968566 433.723408 
L 429.128401 433.723408 
L 429.101085 431.549823 
L 428.18309 430.463031 
L 420.079626 430.463031 
L 419.378938 429.376238 
L 395.316118 429.376238 
L 395.316392 430.463031 
L 395.223889 430.463031 
L 391.617948 430.463031 
L 391.610875 431.549823 
L 391.610027 430.463031 
L 380.637504 430.463031 
L 380.271807 431.549823 
L 377.626889 431.549823 
L 377.626747 430.463031 
L 370.947884 430.463031 
L 370.794037 431.549823 
L 367.787701 431.549823 
L 367.777595 430.463031 
L 364.52543 430.463031 
L 364.425216 431.549823 
L 361.073413 431.549823 
L 361.020274 430.463031 
L 334.156401 430.463031 
L 333.596178 429.376238 
L 310.66047 429.376238 
L 310.550708 427.202653 
L 287.066757 427.202653 
L 287.066714 428.289446 
L 281.620944 428.289446 
L 281.023776 429.376238 
L 280.868439 430.463031 
L 280.761835 429.376238 
L 279.735937 429.376238 
L 279.735302 430.463031 
L 275.115083 430.463031 
L 275.066027 429.376238 
L 272.041836 429.376238 
L 271.974336 428.289446 
L 264.893861 428.289446 
L 264.893773 429.376238 
L 254.495667 429.376238 
L 254.48099 430.463031 
L 246.592159 430.463031 
L 246.536212 431.549823 
L 238.20676 431.549823 
L 238.183629 432.636616 
L 235.896857 432.636616 
L 235.706004 433.723408 
L 233.815819 433.723408 
L 233.786296 431.549823 
L 229.883504 431.549823 
L 229.59134 432.636616 
L 215.228413 432.636616 
L 214.821272 431.549823 
L 208.110682 431.549823 
L 208.070871 430.463031 
L 202.599581 430.463031 
L 202.599562 429.376238 
L 196.77573 429.376238 
L 196.981432 429.376238 
L 196.666537 430.463031 
L 188.433566 430.463031 
L 188.228591 431.549823 
L 184.443706 431.549823 
L 184.392816 430.463031 
L 176.371854 430.463031 
L 176.371781 431.549823 
L 153.682058 431.549823 
L 153.64728 432.636616 
L 152.243311 432.636616 
L 152.243241 433.723408 
L 147.90903 433.723408 
L 147.639504 434.8102 
L 146.529793 434.8102 
L 146.418012 433.723408 
L 131.132746 433.723408 
L 130.897629 434.8102 
L 125.236132 434.8102 
L 125.228616 433.723408 
L 123.82073 433.723408 
L 123.815009 434.8102 
L 121.912801 434.8102 
L 121.690108 436.983785 
L 119.20093 436.983785 
L 119.186041 438.070578 
L 118.303299 438.070578 
L 118.174962 439.15737 
L 116.433449 439.15737 
L 116.431666 440.244163 
L 112.649222 440.244163 
L 112.132469 441.330955 
L 89.042987 441.330955 
L 89.031728 442.417748 
L 85.149107 442.417748 
L 85.141713 443.50454 
L 79.551786 443.50454 
L 79.523676 444.591333 
L 72.854342 444.591333 
L 72.85168 445.678125 
L 72.651136 445.678125 
L 72.651136 445.678125 
" clip-path="url(#pb3f5158d05)" style="fill: none; stroke: #1f77b4; stroke-opacity: 0.8; stroke-width: 1.5; stroke-linecap: square"/>
   </g>
   <g id="line2d_30">
    <path d="M 579.923864 210.930955 
L 579.923813 212.017748 
L 578.487479 212.017748 
L 578.487449 213.10454 
L 577.600702 214.191333 
L 578.487371 214.191333 
L 577.600619 215.278125 
L 577.072782 216.364917 
L 576.973764 95.730955 
L 576.866943 96.817748 
L 576.720644 104.425295 
L 576.719588 98.991333 
L 576.702382 84.863031 
L 575.98406 42.478125 
L 575.983623 44.65171 
L 574.117655 45.738502 
L 573.708592 45.738502 
L 573.704452 50.085672 
L 570.881264 51.172465 
L 570.587416 55.519634 
L 570.218856 56.606427 
L 569.717435 58.780012 
L 568.860575 59.866804 
L 564.327177 59.866804 
L 564.182018 58.780012 
L 562.136766 58.780012 
L 561.872887 59.866804 
L 560.911751 58.780012 
L 560.9108 64.213974 
L 560.026425 64.213974 
L 559.776268 65.300767 
L 559.24734 64.213974 
L 555.164426 64.213974 
L 555.163787 63.127182 
L 554.954163 64.213974 
L 554.131149 65.300767 
L 552.82811 66.387559 
L 550.560686 66.387559 
L 550.270589 67.474351 
L 548.901369 67.474351 
L 548.643332 68.561144 
L 547.891647 67.474351 
L 547.027888 67.474351 
L 546.802914 68.561144 
L 546.274275 69.647936 
L 546.2732 53.34605 
L 544.963287 53.34605 
L 544.963104 57.693219 
L 544.647466 56.606427 
L 544.036913 56.606427 
L 542.437659 57.693219 
L 542.164709 63.127182 
L 541.738328 63.127182 
L 541.724439 64.213974 
L 540.939051 64.213974 
L 540.308539 65.300767 
L 539.886697 65.300767 
L 539.795513 68.561144 
L 538.952012 69.647936 
L 538.743921 70.734729 
L 538.700855 78.342276 
L 538.700825 77.255483 
L 537.802063 76.168691 
L 537.102815 76.168691 
L 536.183665 77.255483 
L 535.916195 78.342276 
L 535.705793 81.602653 
L 535.705742 84.863031 
L 535.498429 89.2102 
L 535.453784 98.991333 
L 534.717607 98.991333 
L 534.694401 100.078125 
L 534.512835 102.25171 
L 534.299588 102.25171 
L 534.294148 104.425295 
L 534.157362 103.338502 
L 534.15378 106.59888 
L 534.095862 105.512087 
L 533.6428 106.59888 
L 533.632236 112.032842 
L 533.101742 114.206427 
L 533.074144 115.293219 
L 530.843472 115.293219 
L 530.046661 116.380012 
L 530.046393 121.813974 
L 528.759131 121.813974 
L 529.427657 121.813974 
L 528.963894 122.900767 
L 528.243488 123.987559 
L 528.056952 125.074351 
L 527.574388 125.074351 
L 527.327945 127.247936 
L 527.32603 113.119634 
L 525.703248 114.206427 
L 525.46731 115.293219 
L 525.045506 116.380012 
L 524.986186 117.466804 
L 524.807149 118.553597 
L 524.322633 119.640389 
L 521.800488 119.640389 
L 520.118148 120.727182 
L 519.003037 120.727182 
L 518.877585 121.813974 
L 518.527074 121.813974 
L 518.519004 122.900767 
L 517.37663 123.987559 
L 516.514427 126.161144 
L 515.3753 126.161144 
L 514.581704 129.421521 
L 512.102248 130.508314 
L 510.939314 130.508314 
L 510.588523 132.681899 
L 510.458911 132.681899 
L 510.351834 133.768691 
L 510.183275 133.768691 
L 509.722241 135.942276 
L 508.948264 135.942276 
L 508.811052 132.681899 
L 508.808982 133.768691 
L 508.38596 133.768691 
L 508.386041 133.768691 
L 508.372795 135.942276 
L 508.123542 137.029068 
L 508.094799 138.115861 
L 508.094703 143.549823 
L 507.920454 143.549823 
L 507.915333 144.636616 
L 507.587949 144.636616 
L 507.091276 145.723408 
L 506.037227 146.8102 
L 505.372945 146.8102 
L 505.353648 147.896993 
L 504.869985 147.896993 
L 504.63225 150.070578 
L 504.447843 150.070578 
L 504.393374 151.15737 
L 503.863861 152.244163 
L 503.489799 155.50454 
L 503.047362 152.244163 
L 502.471628 152.244163 
L 502.469143 155.50454 
L 502.133497 156.591333 
L 502.084551 159.85171 
L 501.657859 162.025295 
L 501.657816 163.112087 
L 501.390188 163.112087 
L 501.385692 164.19888 
L 500.753981 167.459257 
L 500.752557 177.240389 
L 500.392111 180.500767 
L 499.99329 181.587559 
L 499.993241 182.674351 
L 499.521459 182.674351 
L 499.133929 184.847936 
L 499.014681 185.934729 
L 497.901192 185.934729 
L 496.311394 187.021521 
L 495.807386 187.021521 
L 495.794883 169.632842 
L 495.639178 170.719634 
L 495.126223 171.806427 
L 494.359978 171.806427 
L 494.200938 175.066804 
L 493.756847 177.240389 
L 493.058956 179.413974 
L 493.057534 182.674351 
L 492.7911 187.021521 
L 492.057623 187.021521 
L 491.887796 188.108314 
L 491.124761 189.195106 
L 490.526343 189.195106 
L 490.036167 190.281899 
L 490.031762 192.455483 
L 489.840182 194.629068 
L 489.840201 194.629068 
L 489.138588 195.715861 
L 486.027968 195.715861 
L 485.877618 196.802653 
L 484.758442 195.715861 
L 484.721572 196.802653 
L 483.788343 196.802653 
L 482.559976 197.889446 
L 481.256699 197.889446 
L 481.254034 200.063031 
L 479.189271 200.063031 
L 478.152854 201.149823 
L 477.96095 202.236616 
L 477.960323 203.323408 
L 477.321247 203.323408 
L 477.067897 204.4102 
L 477.067982 204.4102 
L 476.286031 205.496993 
L 475.909902 207.670578 
L 475.462859 207.670578 
L 475.462419 201.149823 
L 473.078761 201.149823 
L 472.701969 202.236616 
L 472.249041 202.236616 
L 470.833127 204.4102 
L 470.082764 204.4102 
L 470.047674 208.75737 
L 468.770855 208.75737 
L 468.663935 210.930955 
L 468.655943 225.059257 
L 468.338218 225.059257 
L 468.329496 226.14605 
L 468.290728 196.802653 
L 467.358856 198.976238 
L 467.358824 200.063031 
L 465.231312 203.323408 
L 465.196265 206.583785 
L 463.368385 206.583785 
L 462.02472 207.670578 
L 462.024511 208.75737 
L 461.728891 215.278125 
L 460.323841 215.278125 
L 460.199185 216.364917 
L 458.33318 216.364917 
L 458.251308 221.79888 
L 457.809126 221.79888 
L 458.006559 221.79888 
L 457.800592 222.885672 
L 457.125462 222.885672 
L 456.163366 223.972465 
L 455.275713 223.972465 
L 455.273865 225.059257 
L 452.102199 225.059257 
L 452.006811 215.278125 
L 451.171147 215.278125 
L 451.16347 203.323408 
L 449.968359 203.323408 
L 449.277308 204.4102 
L 449.065498 206.583785 
L 448.968566 201.149823 
L 448.399183 201.149823 
L 448.39891 202.236616 
L 447.887673 205.496993 
L 447.406709 205.496993 
L 447.406524 206.583785 
L 446.970649 206.583785 
L 446.970115 207.670578 
L 445.597651 207.670578 
L 445.591401 191.368691 
L 445.494351 194.629068 
L 444.641119 194.629068 
L 444.636993 189.195106 
L 444.162194 189.195106 
L 444.113773 187.021521 
L 443.879168 187.021521 
L 443.86926 180.500767 
L 443.707909 180.500767 
L 443.691784 179.413974 
L 443.691784 179.413974 
L 443.048378 180.500767 
L 443.035036 182.674351 
L 442.242255 182.674351 
L 442.242223 183.761144 
L 438.385187 183.761144 
L 438.154257 185.934729 
L 437.623664 185.934729 
L 437.612304 187.021521 
L 437.00452 188.108314 
L 436.250513 190.281899 
L 436.250342 192.455483 
L 436.034196 192.455483 
L 436.033928 193.542276 
L 435.59384 193.542276 
L 434.397281 194.629068 
L 431.937031 194.629068 
L 431.93695 195.715861 
L 431.449032 195.715861 
L 430.88923 196.802653 
L 429.350193 196.802653 
L 429.284597 168.54605 
L 429.128401 168.54605 
L 429.101085 163.112087 
L 428.18309 139.202653 
L 427.263037 142.463031 
L 425.636056 142.463031 
L 425.405338 143.549823 
L 424.928756 144.636616 
L 423.554648 144.636616 
L 422.877724 145.723408 
L 422.685814 145.723408 
L 422.685281 146.8102 
L 422.381529 145.723408 
L 422.381424 146.8102 
L 422.203988 146.8102 
L 422.381681 144.636616 
L 422.191498 144.636616 
L 421.297665 145.723408 
L 421.291415 147.896993 
L 420.798844 147.896993 
L 420.784261 148.983785 
L 420.332912 150.070578 
L 420.079626 150.070578 
L 419.378938 139.202653 
L 417.303767 139.202653 
L 417.303375 140.289446 
L 415.027883 140.289446 
L 414.954817 142.463031 
L 414.954654 144.636616 
L 413.346514 144.636616 
L 413.301616 146.8102 
L 411.675065 146.8102 
L 411.674995 147.896993 
L 411.262494 147.896993 
L 410.825125 148.983785 
L 409.873514 148.983785 
L 409.265883 151.15737 
L 406.24083 151.15737 
L 406.24095 151.15737 
L 404.121619 152.244163 
L 402.24328 152.244163 
L 399.954612 153.330955 
L 400.323226 153.330955 
L 397.604477 154.417748 
L 396.46638 155.50454 
L 395.316118 155.50454 
L 395.316392 157.678125 
L 395.223889 157.678125 
L 394.601163 157.678125 
L 393.609392 158.764917 
L 391.617948 158.764917 
L 391.610875 163.112087 
L 391.610027 159.85171 
L 389.952939 159.85171 
L 389.952748 160.938502 
L 389.952724 159.85171 
L 389.27329 160.938502 
L 388.62349 160.938502 
L 388.143795 162.025295 
L 386.284581 162.025295 
L 385.627492 163.112087 
L 384.381269 164.19888 
L 383.874563 165.285672 
L 383.295941 165.285672 
L 383.295909 166.372465 
L 383.031962 166.372465 
L 383.031783 169.632842 
L 381.649612 169.632842 
L 381.412444 170.719634 
L 380.875201 171.806427 
L 380.637504 171.806427 
L 380.271807 172.893219 
L 379.551114 172.893219 
L 379.53792 166.372465 
L 379.536191 168.54605 
L 379.307969 168.54605 
L 379.286929 169.632842 
L 377.626889 169.632842 
L 377.626747 165.285672 
L 376.767772 166.372465 
L 376.767241 168.54605 
L 375.825437 168.54605 
L 375.408652 169.632842 
L 374.42357 169.632842 
L 374.371487 172.893219 
L 373.02191 172.893219 
L 372.423605 173.980012 
L 372.1865 173.980012 
L 371.605039 179.413974 
L 371.598585 180.500767 
L 370.794037 180.500767 
L 370.678199 181.587559 
L 369.519207 181.587559 
L 369.519172 182.674351 
L 369.110897 182.674351 
L 368.230346 183.761144 
L 367.787701 183.761144 
L 367.777595 179.413974 
L 365.420819 179.413974 
L 365.420647 177.240389 
L 364.710921 177.240389 
L 364.972585 177.240389 
L 364.654875 178.327182 
L 364.644115 168.54605 
L 364.53593 169.632842 
L 364.52543 168.54605 
L 364.425216 173.980012 
L 363.824249 175.066804 
L 361.073413 175.066804 
L 361.020274 171.806427 
L 357.292829 171.806427 
L 356.869923 172.893219 
L 355.916788 172.893219 
L 355.690661 173.980012 
L 353.071061 173.980012 
L 352.449947 169.632842 
L 351.705244 171.806427 
L 350.605676 171.806427 
L 349.192033 172.893219 
L 348.506765 173.980012 
L 348.036714 173.980012 
L 345.170012 175.066804 
L 345.169956 176.153597 
L 343.894818 176.153597 
L 343.89481 173.980012 
L 342.483588 173.980012 
L 341.983148 171.806427 
L 341.299288 171.806427 
L 340.204664 172.893219 
L 340.204624 173.980012 
L 340.066835 173.980012 
L 338.540242 175.066804 
L 338.080072 175.066804 
L 337.605075 184.847936 
L 335.979898 185.934729 
L 335.221228 185.934729 
L 335.53274 185.934729 
L 335.080758 190.281899 
L 334.822547 190.281899 
L 334.399426 191.368691 
L 334.156401 191.368691 
L 333.596178 190.281899 
L 330.130659 190.281899 
L 329.767737 192.455483 
L 329.671065 192.455483 
L 329.665311 159.85171 
L 328.972085 159.85171 
L 328.963389 160.938502 
L 326.713267 160.938502 
L 325.486595 162.025295 
L 323.925444 162.025295 
L 323.016563 160.938502 
L 323.009847 162.025295 
L 318.182502 162.025295 
L 318.140455 156.591333 
L 317.217519 156.591333 
L 316.284311 157.678125 
L 315.357895 157.678125 
L 314.374669 158.764917 
L 313.449087 158.764917 
L 313.448336 160.938502 
L 313.291615 162.025295 
L 313.275525 163.112087 
L 313.078864 163.112087 
L 312.790151 164.19888 
L 312.744192 165.285672 
L 312.547743 165.285672 
L 312.499593 168.54605 
L 311.672469 170.719634 
L 310.66047 170.719634 
L 310.550708 166.372465 
L 307.046614 166.372465 
L 307.046571 167.459257 
L 306.577016 166.372465 
L 306.322993 167.459257 
L 304.476564 167.459257 
L 304.470174 168.54605 
L 302.807428 168.54605 
L 302.78097 169.632842 
L 300.101925 169.632842 
L 298.948402 170.719634 
L 298.692365 170.719634 
L 298.178881 171.806427 
L 293.635432 171.806427 
L 293.630225 172.893219 
L 292.002823 172.893219 
L 292.00249 175.066804 
L 289.239973 175.066804 
L 288.568073 176.153597 
L 287.066757 176.153597 
L 287.066714 177.240389 
L 286.180666 177.240389 
L 285.971803 178.327182 
L 285.064917 178.327182 
L 284.588389 179.413974 
L 283.337114 179.413974 
L 282.487344 180.500767 
L 282.260747 181.587559 
L 281.131449 181.587559 
L 281.023776 180.500767 
L 280.868439 180.500767 
L 280.862076 169.632842 
L 280.761835 170.719634 
L 280.647633 173.980012 
L 279.006847 173.980012 
L 278.318484 170.719634 
L 278.318382 172.893219 
L 278.098936 173.980012 
L 278.088506 177.240389 
L 277.142185 181.587559 
L 276.963153 181.587559 
L 276.925101 142.463031 
L 276.925039 144.636616 
L 275.994577 144.636616 
L 275.220683 146.8102 
L 275.066027 147.896993 
L 274.170496 150.070578 
L 273.937968 151.15737 
L 273.933238 153.330955 
L 273.638664 154.417748 
L 273.455718 154.417748 
L 273.455675 157.678125 
L 272.764272 157.678125 
L 272.041836 158.764917 
L 271.974336 154.417748 
L 271.355718 154.417748 
L 271.355493 155.50454 
L 270.583873 156.591333 
L 269.093927 156.591333 
L 269.043477 155.50454 
L 268.601228 155.50454 
L 267.165886 158.764917 
L 268.601266 159.85171 
L 263.698705 159.85171 
L 263.698444 163.112087 
L 262.79169 163.112087 
L 262.79165 164.19888 
L 262.14305 164.19888 
L 261.424564 165.285672 
L 260.497188 167.459257 
L 255.57226 167.459257 
L 254.823414 168.54605 
L 254.495667 168.54605 
L 254.48099 170.719634 
L 253.322628 170.719634 
L 253.322582 171.806427 
L 252.056156 171.806427 
L 251.356428 173.980012 
L 251.356835 173.980012 
L 249.491334 173.980012 
L 249.067508 175.066804 
L 248.931794 176.153597 
L 247.873786 176.153597 
L 248.219287 177.240389 
L 247.494881 180.500767 
L 247.420118 181.587559 
L 246.97197 181.587559 
L 246.861122 187.021521 
L 246.031812 187.021521 
L 245.005751 188.108314 
L 244.875258 192.455483 
L 244.873847 187.021521 
L 244.650559 188.108314 
L 243.258511 188.108314 
L 243.137214 191.368691 
L 240.349845 192.455483 
L 240.349694 193.542276 
L 240.222411 194.629068 
L 239.650036 194.629068 
L 239.319959 195.715861 
L 237.786452 195.715861 
L 237.772979 196.802653 
L 237.772912 195.715861 
L 236.855512 195.715861 
L 236.584118 197.889446 
L 236.186983 200.063031 
L 235.896857 200.063031 
L 235.70979 204.4102 
L 235.706004 208.75737 
L 234.966317 213.10454 
L 234.515454 213.10454 
L 234.493516 208.75737 
L 234.232336 208.75737 
L 234.211026 209.844163 
L 234.012534 209.844163 
L 233.815819 210.930955 
L 233.786296 202.236616 
L 233.375745 203.323408 
L 232.598505 203.323408 
L 232.479994 204.4102 
L 232.371533 206.583785 
L 232.165281 207.670578 
L 232.137166 207.670578 
L 232.137093 209.844163 
L 230.320779 210.930955 
L 229.904415 210.930955 
L 229.883504 212.017748 
L 229.62373 217.45171 
L 229.59134 216.364917 
L 227.807915 216.364917 
L 227.533594 218.538502 
L 226.704076 219.625295 
L 226.09429 219.625295 
L 226.094244 220.712087 
L 225.953873 221.79888 
L 224.515732 221.79888 
L 223.865403 222.885672 
L 223.864043 221.79888 
L 222.210985 222.885672 
L 221.457648 222.885672 
L 221.363684 223.972465 
L 220.374275 225.059257 
L 220.165964 226.14605 
L 219.734424 226.14605 
L 219.052601 228.319634 
L 218.358238 227.232842 
L 217.314314 227.232842 
L 217.196715 228.319634 
L 215.228413 228.319634 
L 214.821272 219.625295 
L 214.15064 220.712087 
L 214.149303 221.79888 
L 213.658075 222.885672 
L 213.147645 226.14605 
L 213.144382 228.319634 
L 212.276015 230.493219 
L 212.228874 233.753597 
L 211.995866 234.840389 
L 209.915075 237.013974 
L 209.755686 229.406427 
L 209.428427 230.493219 
L 209.428384 232.666804 
L 208.110682 232.666804 
L 208.070871 228.319634 
L 207.712813 228.319634 
L 207.17239 229.406427 
L 206.191285 229.406427 
L 206.01882 230.493219 
L 205.963302 231.580012 
L 205.536947 231.580012 
L 205.536746 232.666804 
L 205.339903 232.666804 
L 205.261166 238.100767 
L 204.799333 238.100767 
L 204.382629 239.187559 
L 203.988422 239.187559 
L 203.894059 248.968691 
L 203.871493 248.968691 
L 203.869882 251.142276 
L 202.599581 250.055483 
L 202.599562 234.840389 
L 201.560448 232.666804 
L 201.277457 233.753597 
L 200.067261 233.753597 
L 200.044119 234.840389 
L 198.830787 234.840389 
L 198.640239 235.927182 
L 198.447029 235.927182 
L 197.687654 237.013974 
L 196.906706 237.013974 
L 196.77573 240.274351 
L 196.981432 240.274351 
L 196.666537 244.621521 
L 195.537003 244.621521 
L 194.950471 245.708314 
L 195.301907 245.708314 
L 194.23793 246.795106 
L 194.049849 251.142276 
L 193.782977 252.229068 
L 192.838074 251.142276 
L 192.746577 252.229068 
L 192.406252 252.229068 
L 192.403504 230.493219 
L 192.114158 216.364917 
L 192.083281 217.45171 
L 190.735495 217.45171 
L 190.72004 221.79888 
L 190.300518 222.885672 
L 190.08167 225.059257 
L 188.433566 225.059257 
L 188.228591 226.14605 
L 185.834542 226.14605 
L 186.573832 227.232842 
L 186.110962 227.232842 
L 186.015925 229.406427 
L 185.402056 230.493219 
L 185.222322 235.927182 
L 184.446479 239.187559 
L 184.400139 233.753597 
L 184.392816 234.840389 
L 183.826496 234.840389 
L 183.453487 235.927182 
L 183.475854 235.927182 
L 182.649628 237.013974 
L 177.098432 237.013974 
L 177.076481 238.100767 
L 176.845548 241.361144 
L 175.145217 241.361144 
L 175.019748 242.447936 
L 174.052969 242.447936 
L 173.829959 243.534729 
L 173.827991 250.055483 
L 173.595989 251.142276 
L 173.595952 253.315861 
L 172.956184 253.315861 
L 172.904474 254.402653 
L 172.672461 254.402653 
L 172.20074 255.489446 
L 171.716913 255.489446 
L 171.666219 257.663031 
L 169.413702 257.663031 
L 169.413622 259.836616 
L 168.678351 262.0102 
L 166.668707 262.0102 
L 166.666387 264.183785 
L 166.44514 264.183785 
L 166.230104 265.270578 
L 165.956682 265.270578 
L 165.951805 266.35737 
L 163.85465 266.35737 
L 163.66924 267.444163 
L 163.366153 268.530955 
L 162.479196 269.617748 
L 162.479196 269.617748 
L 162.041986 270.70454 
L 162.041911 271.791333 
L 160.337817 271.791333 
L 159.716936 272.878125 
L 158.809224 272.878125 
L 158.807892 273.964917 
L 157.161536 275.05171 
L 156.240172 276.138502 
L 155.311865 276.138502 
L 155.212059 277.225295 
L 154.593875 279.39888 
L 154.593513 280.485672 
L 152.521559 280.485672 
L 152.463505 282.659257 
L 152.243311 282.659257 
L 152.243241 284.832842 
L 151.999321 284.832842 
L 151.999257 283.74605 
L 151.851722 283.74605 
L 151.615722 284.832842 
L 151.615684 285.919634 
L 151.11562 287.006427 
L 151.115692 287.006427 
L 150.21545 287.006427 
L 148.817849 288.093219 
L 148.813699 290.266804 
L 148.110579 290.266804 
L 147.936505 291.353597 
L 147.90903 294.613974 
L 147.639504 297.874351 
L 147.367967 298.961144 
L 147.239005 300.047936 
L 146.922061 300.047936 
L 146.418012 301.134729 
L 146.012805 302.221521 
L 144.807122 302.221521 
L 144.788774 303.308314 
L 143.691523 303.308314 
L 143.691523 303.308314 
L 143.530522 304.395106 
L 143.529286 295.700767 
L 143.524562 296.787559 
L 141.118097 296.787559 
L 141.080315 304.395106 
L 140.979495 306.568691 
L 140.176596 306.568691 
L 139.791852 307.655483 
L 138.759033 307.655483 
L 138.661779 310.915861 
L 138.304697 312.002653 
L 138.295013 315.263031 
L 138.182806 315.263031 
L 138.164691 316.349823 
L 137.617298 316.349823 
L 136.92738 317.436616 
L 136.796707 317.436616 
L 136.708789 319.6102 
L 134.883257 319.6102 
L 134.019269 322.870578 
L 133.920218 322.870578 
L 133.337682 323.95737 
L 133.212556 329.391333 
L 133.043585 329.391333 
L 132.353493 335.912087 
L 132.294414 334.825295 
L 132.081838 334.825295 
L 132.050057 335.912087 
L 131.895712 336.99888 
L 131.132746 336.99888 
L 130.897629 339.172465 
L 129.572233 339.172465 
L 129.561069 340.259257 
L 129.405989 340.259257 
L 129.172002 341.34605 
L 128.688926 334.825295 
L 127.322787 334.825295 
L 127.020552 335.912087 
L 127.018869 336.99888 
L 126.172581 336.99888 
L 126.171343 338.085672 
L 125.924762 338.085672 
L 125.793478 339.172465 
L 125.697166 339.172465 
L 125.692994 342.432842 
L 125.472019 342.432842 
L 125.471663 343.519634 
L 125.236132 343.519634 
L 125.230265 342.432842 
L 125.228616 343.519634 
L 124.04685 343.519634 
L 123.82073 344.606427 
L 123.815009 345.693219 
L 122.657054 345.693219 
L 122.110277 341.34605 
L 121.690108 348.953597 
L 120.520885 348.953597 
L 120.296301 350.040389 
L 120.074426 350.040389 
L 120.074351 352.213974 
L 119.925108 352.213974 
L 119.912748 353.300767 
L 119.451416 353.300767 
L 119.349119 358.734729 
L 119.20093 359.821521 
L 119.186041 360.908314 
L 118.703061 360.908314 
L 118.625383 365.255483 
L 118.441965 365.255483 
L 118.303299 367.429068 
L 118.174962 372.863031 
L 117.978955 373.949823 
L 116.433449 373.949823 
L 116.431666 376.123408 
L 114.732764 376.123408 
L 114.721725 378.296993 
L 113.885208 378.296993 
L 113.884305 372.863031 
L 112.649222 372.863031 
L 112.132469 373.949823 
L 110.409414 375.036616 
L 109.440468 375.036616 
L 108.740276 376.123408 
L 108.014143 376.123408 
L 107.847 377.2102 
L 107.395726 378.296993 
L 107.299725 380.470578 
L 107.299668 381.55737 
L 106.64402 381.55737 
L 106.103128 383.730955 
L 105.188193 383.730955 
L 105.188054 384.817748 
L 102.945399 384.817748 
L 101.839163 385.90454 
L 101.042711 385.90454 
L 101.024232 386.991333 
L 100.661895 388.078125 
L 100.181508 388.078125 
L 100.10445 389.164917 
L 100.104337 386.991333 
L 100.095063 388.078125 
L 99.991808 390.25171 
L 99.991618 391.338502 
L 95.34959 391.338502 
L 95.268536 394.59888 
L 94.551122 394.59888 
L 92.905938 395.685672 
L 92.907209 396.772465 
L 92.905445 396.772465 
L 90.684012 396.772465 
L 90.61268 400.032842 
L 89.315886 400.032842 
L 89.260307 401.119634 
L 89.186629 402.206427 
L 89.031728 408.727182 
L 88.778853 408.727182 
L 88.496505 409.813974 
L 88.321026 409.813974 
L 88.260862 411.987559 
L 87.873176 413.074351 
L 86.006996 413.074351 
L 85.733293 414.161144 
L 85.718203 415.247936 
L 85.487316 415.247936 
L 85.141713 420.681899 
L 82.062409 420.681899 
L 82.017236 422.855483 
L 81.582119 422.855483 
L 81.137618 423.942276 
L 80.707344 423.942276 
L 80.407479 425.029068 
L 80.173654 425.029068 
L 80.004406 426.115861 
L 79.919711 428.289446 
L 79.67977 429.376238 
L 79.523676 432.636616 
L 76.454267 432.636616 
L 76.012586 433.723408 
L 74.714017 433.723408 
L 74.713971 434.8102 
L 74.225962 434.8102 
L 74.224482 433.723408 
L 73.551738 435.896993 
L 73.325446 438.070578 
L 72.651136 438.070578 
L 72.651136 438.070578 
" clip-path="url(#pb3f5158d05)" style="fill: none; stroke: #ff7f0e; stroke-opacity: 0.8; stroke-width: 1.5; stroke-linecap: square"/>
   </g>
   <g id="patch_3">
    <path d="M 47.2875 465.838125 
L 47.2875 22.318125 
" style="fill: none; stroke: #000000; stroke-width: 0.8; stroke-linejoin: miter; stroke-linecap: square"/>
   </g>
   <g id="patch_4">
    <path d="M 605.2875 465.838125 
L 605.2875 22.318125 
" style="fill: none; stroke: #000000; stroke-width: 0.8; stroke-linejoin: miter; stroke-linecap: square"/>
   </g>
   <g id="patch_5">
    <path d="M 47.2875 465.838125 
L 605.2875 465.838125 
" style="fill: none; stroke: #000000; stroke-width: 0.8; stroke-linejoin: miter; stroke-linecap: square"/>
   </g>
   <g id="patch_6">
    <path d="M 47.2875 22.318125 
L 605.2875 22.318125 
" style="fill: none; stroke: #000000; stroke-width: 0.8; stroke-linejoin: miter; stroke-linecap: square"/>
   </g>
   <g id="text_17">
    <!-- 8 -->
    <g transform="translate(579.923864 439.15737) scale(0.1 -0.1)">
     <defs>
      <path id="DejaVuSans-1b" d="M 2034 2216 
Q 1584 2216 1326 1975 
Q 1069 1734 1069 1313 
Q 1069 891 1326 650 
Q 1584 409 2034 409 
Q 2484 409 2743 651 
Q 3003 894 3003 1313 
Q 3003 1734 2745 1975 
Q 2488 2216 2034 2216 
z
M 1403 2484 
Q 997 2584 770 2862 
Q 544 3141 544 3541 
Q 544 4100 942 4425 
Q 1341 4750 2034 4750 
Q 2731 4750 3128 4425 
Q 3525 4100 3525 3541 
Q 3525 3141 3298 2862 
Q 3072 2584 2669 2484 
Q 3125 2378 3379 2068 
Q 3634 1759 3634 1313 
Q 3634 634 3220 271 
Q 2806 -91 2034 -91 
Q 1263 -91 848 271 
Q 434 634 434 1313 
Q 434 1759 690 2068 
Q 947 2378 1403 2484 
z
M 1172 3481 
Q 1172 3119 1398 2916 
Q 1625 2713 2034 2713 
Q 2441 2713 2670 2916 
Q 2900 3119 2900 3481 
Q 2900 3844 2670 4047 
Q 2441 4250 2034 4250 
Q 1625 4250 1398 4047 
Q 1172 3844 1172 3481 
z
" transform="scale(0.015625)"/>
     </defs>
     <use xlink:href="#DejaVuSans-1b"/>
    </g>
   </g>
   <g id="text_18">
    <!-- 218 -->
    <g transform="translate(579.923864 210.930955) scale(0.1 -0.1)">
     <use xlink:href="#DejaVuSans-15"/>
     <use xlink:href="#DejaVuSans-14" transform="translate(63.625 0)"/>
     <use xlink:href="#DejaVuSans-1b" transform="translate(127.25 0)"/>
    </g>
   </g>
   <g id="text_19">
    <!-- WireGuard peers over time -->
    <g transform="translate(245.053125 16.318125) scale(0.12 -0.12)">
     <defs>
      <path id="DejaVuSans-3a" d="M 213 4666 
L 850 4666 
L 1831 722 
L 2809 4666 
L 3519 4666 
L 4500 722 
L 5478 4666 
L 6119 4666 
L 4947 0 
L 4153 0 
L 3169 4050 
L 2175 0 
L 1381 0 
L 213 4666 
z
" transform="scale(0.015625)"/>
      <path id="DejaVuSans-4c" d="M 603 3500 
L 1178 3500 
L 1178 0 
L 603 0 
L 603 3500 
z
M 603 4863 
L 1178 4863 
L 1178 4134 
L 603 4134 
L 603 4863 
z
" transform="scale(0.015625)"/>
      <path id="DejaVuSans-55" d="M 2631 2963 
Q 2534 3019 2420 3045 
Q 2306 3072 2169 3072 
Q 1681 3072 1420 2755 
Q 1159 2438 1159 1844 
L 1159 0 
L 581 0 
L 581 3500 
L 1159 3500 
L 1159 2956 
Q 1341 3275 1631 3429 
Q 1922 3584 2338 3584 
Q 2397 3584 2469 3576 
Q 2541 3569 2628 3553 
L 2631 2963 
z
" transform="scale(0.015625)"/>
      <path id="DejaVuSans-2a" d="M 3809 666 
L 3809 1919 
L 2778 1919 
L 2778 2438 
L 4434 2438 
L 4434 434 
Q 4069 175 3628 42 
Q 3188 -91 2688 -91 
Q 1594 -91 976 548 
Q 359 1188 359 2328 
Q 359 3472 976 4111 
Q 1594 4750 2688 4750 
Q 3144 4750 3555 4637 
Q 3966 4525 4313 4306 
L 4313 3634 
Q 3963 3931 3569 4081 
Q 3175 4231 2741 4231 
Q 1884 4231 1454 3753 
Q 1025 3275 1025 2328 
Q 1025 1384 1454 906 
Q 1884 428 2741 428 
Q 3075 428 3337 486 
Q 3600 544 3809 666 
z
" transform="scale(0.015625)"/>
      <path id="DejaVuSans-47" d="M 2906 2969 
L 2906 4863 
L 3481 4863 
L 3481 0 
L 2906 0 
L 2906 525 
Q 2725 213 2448 61 
Q 2172 -91 1784 -91 
Q 1150 -91 751 415 
Q 353 922 353 1747 
Q 353 2572 751 3078 
Q 1150 3584 1784 3584 
Q 2172 3584 2448 3432 
Q 2725 3281 2906 2969 
z
M 947 1747 
Q 947 1113 1208 752 
Q 1469 391 1925 391 
Q 2381 391 2643 752 
Q 2906 1113 2906 1747 
Q 2906 2381 2643 2742 
Q 2381 3103 1925 3103 
Q 1469 3103 1208 2742 
Q 947 2381 947 1747 
z
" transform="scale(0.015625)"/>
      <path id="DejaVuSans-3" transform="scale(0.015625)"/>
      <path id="DejaVuSans-53" d="M 1159 525 
L 1159 -1331 
L 581 -1331 
L 581 3500 
L 1159 3500 
L 1159 2969 
Q 1341 3281 1617 3432 
Q 1894 3584 2278 3584 
Q 2916 3584 3314 3078 
Q 3713 2572 3713 1747 
Q 3713 922 3314 415 
Q 2916 -91 2278 -91 
Q 1894 -91 1617 61 
Q 1341 213 1159 525 
z
M 3116 1747 
Q 3116 2381 2855 2742 
Q 2594 3103 2138 3103 
Q 1681 3103 1420 2742 
Q 1159 2381 1159 1747 
Q 1159 1113 1420 752 
Q 1681 391 2138 391 
Q 2594 391 2855 752 
Q 3116 1113 3116 1747 
z
" transform="scale(0.015625)"/>
      <path id="DejaVuSans-56" d="M 2834 3397 
L 2834 2853 
Q 2591 2978 2328 3040 
Q 2066 3103 1784 3103 
Q 1356 3103 1142 2972 
Q 928 2841 928 2578 
Q 928 2378 1081 2264 
Q 1234 2150 1697 2047 
L 1894 2003 
Q 2506 1872 2764 1633 
Q 3022 1394 3022 966 
Q 3022 478 2636 193 
Q 2250 -91 1575 -91 
Q 1294 -91 989 -36 
Q 684 19 347 128 
L 347 722 
Q 666 556 975 473 
Q 1284 391 1588 391 
Q 1994 391 2212 530 
Q 2431 669 2431 922 
Q 2431 1156 2273 1281 
Q 2116 1406 1581 1522 
L 1381 1569 
Q 847 1681 609 1914 
Q 372 2147 372 2553 
Q 372 3047 722 3315 
Q 1072 3584 1716 3584 
Q 2034 3584 2315 3537 
Q 2597 3491 2834 3397 
z
" transform="scale(0.015625)"/>
      <path id="DejaVuSans-59" d="M 191 3500 
L 800 3500 
L 1894 563 
L 2988 3500 
L 3597 3500 
L 2284 0 
L 1503 0 
L 191 3500 
z
" transform="scale(0.015625)"/>
      <path id="DejaVuSans-50" d="M 3328 2828 
Q 3544 3216 3844 3400 
Q 4144 3584 4550 3584 
Q 5097 3584 5394 3201 
Q 5691 2819 5691 2113 
L 5691 0 
L 5113 0 
L 5113 2094 
Q 5113 2597 4934 2840 
Q 4756 3084 4391 3084 
Q 3944 3084 3684 2787 
Q 3425 2491 3425 1978 
L 3425 0 
L 2847 0 
L 2847 2094 
Q 2847 2600 2669 2842 
Q 2491 3084 2119 3084 
Q 1678 3084 1418 2786 
Q 1159 2488 1159 1978 
L 1159 0 
L 581 0 
L 581 3500 
L 1159 3500 
L 1159 2956 
Q 1356 3278 1631 3431 
Q 1906 3584 2284 3584 
Q 2666 3584 2933 3390 
Q 3200 3197 3328 2828 
z
" transform="scale(0.015625)"/>
     </defs>
     <use xlink:href="#DejaVuSans-3a"/>
     <use xlink:href="#DejaVuSans-4c" transform="translate(96.671875 0)"/>
     <use xlink:href="#DejaVuSans-55" transform="translate(124.453125 0)"/>
     <use xlink:href="#DejaVuSans-48" transform="translate(163.359375 0)"/>
     <use xlink:href="#DejaVuSans-2a" transform="translate(224.890625 0)"/>
     <use xlink:href="#DejaVuSans-58" transform="translate(302.375 0)"/>
     <use xlink:href="#DejaVuSans-44" transform="translate(365.75 0)"/>
     <use xlink:href="#DejaVuSans-55" transform="translate(427.03125 0)"/>
     <use xlink:href="#DejaVuSans-47" transform="translate(466.390625 0)"/>
     <use xlink:href="#DejaVuSans-3" transform="translate(529.875 0)"/>
     <use xlink:href="#DejaVuSans-53" transform="translate(561.65625 0)"/>
     <use xlink:href="#DejaVuSans-48" transform="translate(625.140625 0)"/>
     <use xlink:href="#DejaVuSans-48" transform="translate(686.671875 0)"/>
     <use xlink:href="#DejaVuSans-55" transform="translate(748.203125 0)"/>
     <use xlink:href="#DejaVuSans-56" transform="translate(789.3125 0)"/>
     <use xlink:href="#DejaVuSans-3" transform="translate(841.40625 0)"/>
     <use xlink:href="#DejaVuSans-52" transform="translate(873.1875 0)"/>
     <use xlink:href="#DejaVuSans-59" transform="translate(934.375 0)"/>
     <use xlink:href="#DejaVuSans-48" transform="translate(993.5625 0)"/>
     <use xlink:href="#DejaVuSans-55" transform="translate(1055.09375 0)"/>
     <use xlink:href="#DejaVuSans-3" transform="translate(1096.203125 0)"/>
     <use xlink:href="#DejaVuSans-57" transform="translate(1127.984375 0)"/>
     <use xlink:href="#DejaVuSans-4c" transform="translate(1167.1875 0)"/>
     <use xlink:href="#DejaVuSans-50" transform="translate(1194.96875 0)"/>
     <use xlink:href="#DejaVuSans-48" transform="translate(1292.375 0)"/>
    </g>
   </g>
   <g id="legend_1">
    <g id="patch_7">
     <path d="M 54.2875 60.319687 
L 163.7125 60.319687 
Q 165.7125 60.319687 165.7125 58.319687 
L 165.7125 29.318125 
Q 165.7125 27.318125 163.7125 27.318125 
L 54.2875 27.318125 
Q 52.2875 27.318125 52.2875 29.318125 
L 52.2875 58.319687 
Q 52.2875 60.319687 54.2875 60.319687 
z
" style="fill: #ffffff; opacity: 0.8; stroke: #cccccc; stroke-linejoin: miter"/>
    </g>
    <g id="line2d_31">
     <path d="M 56.2875 35.416562 
L 66.2875 35.416562 
L 76.2875 35.416562 
" style="fill: none; stroke: #1f77b4; stroke-opacity: 0.8; stroke-width: 1.5; stroke-linecap: square"/>
    </g>
    <g id="text_20">
     <!-- # routers -->
     <g transform="translate(84.2875 38.916562) scale(0.1 -0.1)">
      <defs>
       <path id="DejaVuSans-6" d="M 3272 2816 
L 2363 2816 
L 2100 1772 
L 3016 1772 
L 3272 2816 
z
M 2803 4594 
L 2478 3297 
L 3391 3297 
L 3719 4594 
L 4219 4594 
L 3897 3297 
L 4872 3297 
L 4872 2816 
L 3775 2816 
L 3519 1772 
L 4513 1772 
L 4513 1294 
L 3397 1294 
L 3072 0 
L 2572 0 
L 2894 1294 
L 1978 1294 
L 1656 0 
L 1153 0 
L 1478 1294 
L 494 1294 
L 494 1772 
L 1594 1772 
L 1856 2816 
L 850 2816 
L 850 3297 
L 1978 3297 
L 2297 4594 
L 2803 4594 
z
" transform="scale(0.015625)"/>
      </defs>
      <use xlink:href="#DejaVuSans-6"/>
      <use xlink:href="#DejaVuSans-3" transform="translate(83.796875 0)"/>
      <use xlink:href="#DejaVuSans-55" transform="translate(115.578125 0)"/>
      <use xlink:href="#DejaVuSans-52" transform="translate(154.484375 0)"/>
      <use xlink:href="#DejaVuSans-58" transform="translate(215.671875 0)"/>
      <use xlink:href="#DejaVuSans-57" transform="translate(279.046875 0)"/>
      <use xlink:href="#DejaVuSans-48" transform="translate(318.25 0)"/>
      <use xlink:href="#DejaVuSans-55" transform="translate(379.78125 0)"/>
      <use xlink:href="#DejaVuSans-56" transform="translate(420.890625 0)"/>
     </g>
    </g>
    <g id="line2d_32">
     <path d="M 56.2875 50.417344 
L 66.2875 50.417344 
L 76.2875 50.417344 
" style="fill: none; stroke: #ff7f0e; stroke-opacity: 0.8; stroke-width: 1.5; stroke-linecap: square"/>
    </g>
    <g id="text_21">
     <!-- # BGP sessions -->
     <g transform="translate(84.2875 53.917344) scale(0.1 -0.1)">
      <defs>
       <path id="DejaVuSans-25" d="M 1259 2228 
L 1259 519 
L 2272 519 
Q 2781 519 3026 730 
Q 3272 941 3272 1375 
Q 3272 1813 3026 2020 
Q 2781 2228 2272 2228 
L 1259 2228 
z
M 1259 4147 
L 1259 2741 
L 2194 2741 
Q 2656 2741 2882 2914 
Q 3109 3088 3109 3444 
Q 3109 3797 2882 3972 
Q 2656 4147 2194 4147 
L 1259 4147 
z
M 628 4666 
L 2241 4666 
Q 2963 4666 3353 4366 
Q 3744 4066 3744 3513 
Q 3744 3084 3544 2831 
Q 3344 2578 2956 2516 
Q 3422 2416 3680 2098 
Q 3938 1781 3938 1306 
Q 3938 681 3513 340 
Q 3088 0 2303 0 
L 628 0 
L 628 4666 
z
" transform="scale(0.015625)"/>
       <path id="DejaVuSans-33" d="M 1259 4147 
L 1259 2394 
L 2053 2394 
Q 2494 2394 2734 2622 
Q 2975 2850 2975 3272 
Q 2975 3691 2734 3919 
Q 2494 4147 2053 4147 
L 1259 4147 
z
M 628 4666 
L 2053 4666 
Q 2838 4666 3239 4311 
Q 3641 3956 3641 3272 
Q 3641 2581 3239 2228 
Q 2838 1875 2053 1875 
L 1259 1875 
L 1259 0 
L 628 0 
L 628 4666 
z
" transform="scale(0.015625)"/>
      </defs>
      <use xlink:href="#DejaVuSans-6"/>
      <use xlink:href="#DejaVuSans-3" transform="translate(83.796875 0)"/>
      <use xlink:href="#DejaVuSans-25" transform="translate(115.578125 0)"/>
      <use xlink:href="#DejaVuSans-2a" transform="translate(182.4375 0)"/>
      <use xlink:href="#DejaVuSans-33" transform="translate(259.921875 0)"/>
      <use xlink:href="#DejaVuSans-3" transform="translate(320.21875 0)"/>
      <use xlink:href="#DejaVuSans-56" transform="translate(352 0)"/>
      <use xlink:href="#DejaVuSans-48" transform="translate(404.09375 0)"/>
      <use xlink:href="#DejaVuSans-56" transform="translate(465.625 0)"/>
      <use xlink:href="#DejaVuSans-56" transform="translate(517.71875 0)"/>
      <use xlink:href="#DejaVuSans-4c" transform="translate(569.8125 0)"/>
      <use xlink:href="#DejaVuSans-52" transform="translate(597.59375 0)"/>
      <use xlink:href="#DejaVuSans-51" transform="translate(658.78125 0)"/>
      <use xlink:href="#DejaVuSans-56" transform="translate(722.15625 0)"/>
     </g>
    </g>
   </g>
  </g>
 </g>
 <defs>
  <clipPath id="pb3f5158d05">
   <rect x="47.2875" y="22.318125" width="558" height="443.52"/>
  </clipPath>
 </defs>
</svg>
