<?xml version="1.0" encoding="utf-8" standalone="no"?>
<!DOCTYPE svg PUBLIC "-//W3C//DTD SVG 1.1//EN"
  "http://www.w3.org/Graphics/SVG/1.1/DTD/svg11.dtd">
<svg xmlns:xlink="http://www.w3.org/1999/xlink" width="612.165625pt" height="471.149158pt" viewBox="0 0 612.165625 471.149158" xmlns="http://www.w3.org/2000/svg" version="1.1">
 <metadata>
  <rdf:RDF xmlns:dc="http://purl.org/dc/elements/1.1/" xmlns:cc="http://creativecommons.org/ns#" xmlns:rdf="http://www.w3.org/1999/02/22-rdf-syntax-ns#">
   <cc:Work>
    <dc:type rdf:resource="http://purl.org/dc/dcmitype/StillImage"/>
    <dc:format>image/svg+xml</dc:format>
    <dc:creator>
     <cc:Agent>
      <dc:title>Matplotlib v3.5.1, https://matplotlib.org/</dc:title>
     </cc:Agent>
    </dc:creator>
   </cc:Work>
  </rdf:RDF>
 </metadata>
 <defs>
  <style type="text/css">*{stroke-linejoin: round; stroke-linecap: butt}</style>
 </defs>
 <g id="figure_1">
  <g id="patch_1">
   <path d="M 0 471.149158 
L 612.165625 471.149158 
L 612.165625 0 
L 0 0 
z
" style="fill: #ffffff"/>
  </g>
  <g id="axes_1">
   <g id="patch_2">
    <path d="M 46.965625 413.998125 
L 604.965625 413.998125 
L 604.965625 22.318125 
L 46.965625 22.318125 
z
" style="fill: #ffffff"/>
   </g>
   <g id="matplotlib.axis_1">
    <g id="xtick_1">
     <g id="line2d_1">
      <path d="M 49.626767 413.998125 
L 49.626767 22.318125 
" clip-path="url(#p171975126e)" style="fill: none; stroke: #b0b0b0; stroke-opacity: 0.6; stroke-width: 0.8; stroke-linecap: square"/>
     </g>
     <g id="line2d_2">
      <defs>
       <path id="m4989ca4dfe" d="M 0 0 
L 0 3.5 
" style="stroke: #000000; stroke-width: 0.8"/>
      </defs>
      <g>
       <use xlink:href="#m4989ca4dfe" x="49.626767" y="413.998125" style="stroke: #000000; stroke-width: 0.8"/>
      </g>
     </g>
     <g id="text_1">
      <!-- 2020-04 -->
      <g transform="translate(12.401946 448.469971)rotate(-30)scale(0.1 -0.1)">
       <defs>
        <path id="DejaVuSans-32" d="M 1228 531 
L 3431 531 
L 3431 0 
L 469 0 
L 469 531 
Q 828 903 1448 1529 
Q 2069 2156 2228 2338 
Q 2531 2678 2651 2914 
Q 2772 3150 2772 3378 
Q 2772 3750 2511 3984 
Q 2250 4219 1831 4219 
Q 1534 4219 1204 4116 
Q 875 4013 500 3803 
L 500 4441 
Q 881 4594 1212 4672 
Q 1544 4750 1819 4750 
Q 2544 4750 2975 4387 
Q 3406 4025 3406 3419 
Q 3406 3131 3298 2873 
Q 3191 2616 2906 2266 
Q 2828 2175 2409 1742 
Q 1991 1309 1228 531 
z
" transform="scale(0.015625)"/>
        <path id="DejaVuSans-30" d="M 2034 4250 
Q 1547 4250 1301 3770 
Q 1056 3291 1056 2328 
Q 1056 1369 1301 889 
Q 1547 409 2034 409 
Q 2525 409 2770 889 
Q 3016 1369 3016 2328 
Q 3016 3291 2770 3770 
Q 2525 4250 2034 4250 
z
M 2034 4750 
Q 2819 4750 3233 4129 
Q 3647 3509 3647 2328 
Q 3647 1150 3233 529 
Q 2819 -91 2034 -91 
Q 1250 -91 836 529 
Q 422 1150 422 2328 
Q 422 3509 836 4129 
Q 1250 4750 2034 4750 
z
" transform="scale(0.015625)"/>
        <path id="DejaVuSans-2d" d="M 313 2009 
L 1997 2009 
L 1997 1497 
L 313 1497 
L 313 2009 
z
" transform="scale(0.015625)"/>
        <path id="DejaVuSans-34" d="M 2419 4116 
L 825 1625 
L 2419 1625 
L 2419 4116 
z
M 2253 4666 
L 3047 4666 
L 3047 1625 
L 3713 1625 
L 3713 1100 
L 3047 1100 
L 3047 0 
L 2419 0 
L 2419 1100 
L 313 1100 
L 313 1709 
L 2253 4666 
z
" transform="scale(0.015625)"/>
       </defs>
       <use xlink:href="#DejaVuSans-32"/>
       <use xlink:href="#DejaVuSans-30" x="63.623047"/>
       <use xlink:href="#DejaVuSans-32" x="127.246094"/>
       <use xlink:href="#DejaVuSans-30" x="190.869141"/>
       <use xlink:href="#DejaVuSans-2d" x="254.492188"/>
       <use xlink:href="#DejaVuSans-30" x="290.576172"/>
       <use xlink:href="#DejaVuSans-34" x="354.199219"/>
      </g>
     </g>
    </g>
    <g id="xtick_2">
     <g id="line2d_3">
      <path d="M 74.525957 413.998125 
L 74.525957 22.318125 
" clip-path="url(#p171975126e)" style="fill: none; stroke: #b0b0b0; stroke-opacity: 0.6; stroke-width: 0.8; stroke-linecap: square"/>
     </g>
     <g id="line2d_4">
      <g>
       <use xlink:href="#m4989ca4dfe" x="74.525957" y="413.998125" style="stroke: #000000; stroke-width: 0.8"/>
      </g>
     </g>
     <g id="text_2">
      <!-- 2020-05 -->
      <g transform="translate(37.301136 448.469971)rotate(-30)scale(0.1 -0.1)">
       <defs>
        <path id="DejaVuSans-35" d="M 691 4666 
L 3169 4666 
L 3169 4134 
L 1269 4134 
L 1269 2991 
Q 1406 3038 1543 3061 
Q 1681 3084 1819 3084 
Q 2600 3084 3056 2656 
Q 3513 2228 3513 1497 
Q 3513 744 3044 326 
Q 2575 -91 1722 -91 
Q 1428 -91 1123 -41 
Q 819 9 494 109 
L 494 744 
Q 775 591 1075 516 
Q 1375 441 1709 441 
Q 2250 441 2565 725 
Q 2881 1009 2881 1497 
Q 2881 1984 2565 2268 
Q 2250 2553 1709 2553 
Q 1456 2553 1204 2497 
Q 953 2441 691 2322 
L 691 4666 
z
" transform="scale(0.015625)"/>
       </defs>
       <use xlink:href="#DejaVuSans-32"/>
       <use xlink:href="#DejaVuSans-30" x="63.623047"/>
       <use xlink:href="#DejaVuSans-32" x="127.246094"/>
       <use xlink:href="#DejaVuSans-30" x="190.869141"/>
       <use xlink:href="#DejaVuSans-2d" x="254.492188"/>
       <use xlink:href="#DejaVuSans-30" x="290.576172"/>
       <use xlink:href="#DejaVuSans-35" x="354.199219"/>
      </g>
     </g>
    </g>
    <g id="xtick_3">
     <g id="line2d_5">
      <path d="M 98.621947 413.998125 
L 98.621947 22.318125 
" clip-path="url(#p171975126e)" style="fill: none; stroke: #b0b0b0; stroke-opacity: 0.6; stroke-width: 0.8; stroke-linecap: square"/>
     </g>
     <g id="line2d_6">
      <g>
       <use xlink:href="#m4989ca4dfe" x="98.621947" y="413.998125" style="stroke: #000000; stroke-width: 0.8"/>
      </g>
     </g>
     <g id="text_3">
      <!-- 2020-06 -->
      <g transform="translate(61.397126 448.469971)rotate(-30)scale(0.1 -0.1)">
       <defs>
        <path id="DejaVuSans-36" d="M 2113 2584 
Q 1688 2584 1439 2293 
Q 1191 2003 1191 1497 
Q 1191 994 1439 701 
Q 1688 409 2113 409 
Q 2538 409 2786 701 
Q 3034 994 3034 1497 
Q 3034 2003 2786 2293 
Q 2538 2584 2113 2584 
z
M 3366 4563 
L 3366 3988 
Q 3128 4100 2886 4159 
Q 2644 4219 2406 4219 
Q 1781 4219 1451 3797 
Q 1122 3375 1075 2522 
Q 1259 2794 1537 2939 
Q 1816 3084 2150 3084 
Q 2853 3084 3261 2657 
Q 3669 2231 3669 1497 
Q 3669 778 3244 343 
Q 2819 -91 2113 -91 
Q 1303 -91 875 529 
Q 447 1150 447 2328 
Q 447 3434 972 4092 
Q 1497 4750 2381 4750 
Q 2619 4750 2861 4703 
Q 3103 4656 3366 4563 
z
" transform="scale(0.015625)"/>
       </defs>
       <use xlink:href="#DejaVuSans-32"/>
       <use xlink:href="#DejaVuSans-30" x="63.623047"/>
       <use xlink:href="#DejaVuSans-32" x="127.246094"/>
       <use xlink:href="#DejaVuSans-30" x="190.869141"/>
       <use xlink:href="#DejaVuSans-2d" x="254.492188"/>
       <use xlink:href="#DejaVuSans-30" x="290.576172"/>
       <use xlink:href="#DejaVuSans-36" x="354.199219"/>
      </g>
     </g>
    </g>
    <g id="xtick_4">
     <g id="line2d_7">
      <path d="M 123.521137 413.998125 
L 123.521137 22.318125 
" clip-path="url(#p171975126e)" style="fill: none; stroke: #b0b0b0; stroke-opacity: 0.6; stroke-width: 0.8; stroke-linecap: square"/>
     </g>
     <g id="line2d_8">
      <g>
       <use xlink:href="#m4989ca4dfe" x="123.521137" y="413.998125" style="stroke: #000000; stroke-width: 0.8"/>
      </g>
     </g>
     <g id="text_4">
      <!-- 2020-07 -->
      <g transform="translate(86.296316 448.469971)rotate(-30)scale(0.1 -0.1)">
       <defs>
        <path id="DejaVuSans-37" d="M 525 4666 
L 3525 4666 
L 3525 4397 
L 1831 0 
L 1172 0 
L 2766 4134 
L 525 4134 
L 525 4666 
z
" transform="scale(0.015625)"/>
       </defs>
       <use xlink:href="#DejaVuSans-32"/>
       <use xlink:href="#DejaVuSans-30" x="63.623047"/>
       <use xlink:href="#DejaVuSans-32" x="127.246094"/>
       <use xlink:href="#DejaVuSans-30" x="190.869141"/>
       <use xlink:href="#DejaVuSans-2d" x="254.492188"/>
       <use xlink:href="#DejaVuSans-30" x="290.576172"/>
       <use xlink:href="#DejaVuSans-37" x="354.199219"/>
      </g>
     </g>
    </g>
    <g id="xtick_5">
     <g id="line2d_9">
      <path d="M 148.420327 413.998125 
L 148.420327 22.318125 
" clip-path="url(#p171975126e)" style="fill: none; stroke: #b0b0b0; stroke-opacity: 0.6; stroke-width: 0.8; stroke-linecap: square"/>
     </g>
     <g id="line2d_10">
      <g>
       <use xlink:href="#m4989ca4dfe" x="148.420327" y="413.998125" style="stroke: #000000; stroke-width: 0.8"/>
      </g>
     </g>
     <g id="text_5">
      <!-- 2020-08 -->
      <g transform="translate(111.195506 448.469971)rotate(-30)scale(0.1 -0.1)">
       <defs>
        <path id="DejaVuSans-38" d="M 2034 2216 
Q 1584 2216 1326 1975 
Q 1069 1734 1069 1313 
Q 1069 891 1326 650 
Q 1584 409 2034 409 
Q 2484 409 2743 651 
Q 3003 894 3003 1313 
Q 3003 1734 2745 1975 
Q 2488 2216 2034 2216 
z
M 1403 2484 
Q 997 2584 770 2862 
Q 544 3141 544 3541 
Q 544 4100 942 4425 
Q 1341 4750 2034 4750 
Q 2731 4750 3128 4425 
Q 3525 4100 3525 3541 
Q 3525 3141 3298 2862 
Q 3072 2584 2669 2484 
Q 3125 2378 3379 2068 
Q 3634 1759 3634 1313 
Q 3634 634 3220 271 
Q 2806 -91 2034 -91 
Q 1263 -91 848 271 
Q 434 634 434 1313 
Q 434 1759 690 2068 
Q 947 2378 1403 2484 
z
M 1172 3481 
Q 1172 3119 1398 2916 
Q 1625 2713 2034 2713 
Q 2441 2713 2670 2916 
Q 2900 3119 2900 3481 
Q 2900 3844 2670 4047 
Q 2441 4250 2034 4250 
Q 1625 4250 1398 4047 
Q 1172 3844 1172 3481 
z
" transform="scale(0.015625)"/>
       </defs>
       <use xlink:href="#DejaVuSans-32"/>
       <use xlink:href="#DejaVuSans-30" x="63.623047"/>
       <use xlink:href="#DejaVuSans-32" x="127.246094"/>
       <use xlink:href="#DejaVuSans-30" x="190.869141"/>
       <use xlink:href="#DejaVuSans-2d" x="254.492188"/>
       <use xlink:href="#DejaVuSans-30" x="290.576172"/>
       <use xlink:href="#DejaVuSans-38" x="354.199219"/>
      </g>
     </g>
    </g>
    <g id="xtick_6">
     <g id="line2d_11">
      <path d="M 172.516317 413.998125 
L 172.516317 22.318125 
" clip-path="url(#p171975126e)" style="fill: none; stroke: #b0b0b0; stroke-opacity: 0.6; stroke-width: 0.8; stroke-linecap: square"/>
     </g>
     <g id="line2d_12">
      <g>
       <use xlink:href="#m4989ca4dfe" x="172.516317" y="413.998125" style="stroke: #000000; stroke-width: 0.8"/>
      </g>
     </g>
     <g id="text_6">
      <!-- 2020-09 -->
      <g transform="translate(135.291496 448.469971)rotate(-30)scale(0.1 -0.1)">
       <defs>
        <path id="DejaVuSans-39" d="M 703 97 
L 703 672 
Q 941 559 1184 500 
Q 1428 441 1663 441 
Q 2288 441 2617 861 
Q 2947 1281 2994 2138 
Q 2813 1869 2534 1725 
Q 2256 1581 1919 1581 
Q 1219 1581 811 2004 
Q 403 2428 403 3163 
Q 403 3881 828 4315 
Q 1253 4750 1959 4750 
Q 2769 4750 3195 4129 
Q 3622 3509 3622 2328 
Q 3622 1225 3098 567 
Q 2575 -91 1691 -91 
Q 1453 -91 1209 -44 
Q 966 3 703 97 
z
M 1959 2075 
Q 2384 2075 2632 2365 
Q 2881 2656 2881 3163 
Q 2881 3666 2632 3958 
Q 2384 4250 1959 4250 
Q 1534 4250 1286 3958 
Q 1038 3666 1038 3163 
Q 1038 2656 1286 2365 
Q 1534 2075 1959 2075 
z
" transform="scale(0.015625)"/>
       </defs>
       <use xlink:href="#DejaVuSans-32"/>
       <use xlink:href="#DejaVuSans-30" x="63.623047"/>
       <use xlink:href="#DejaVuSans-32" x="127.246094"/>
       <use xlink:href="#DejaVuSans-30" x="190.869141"/>
       <use xlink:href="#DejaVuSans-2d" x="254.492188"/>
       <use xlink:href="#DejaVuSans-30" x="290.576172"/>
       <use xlink:href="#DejaVuSans-39" x="354.199219"/>
      </g>
     </g>
    </g>
    <g id="xtick_7">
     <g id="line2d_13">
      <path d="M 197.415507 413.998125 
L 197.415507 22.318125 
" clip-path="url(#p171975126e)" style="fill: none; stroke: #b0b0b0; stroke-opacity: 0.6; stroke-width: 0.8; stroke-linecap: square"/>
     </g>
     <g id="line2d_14">
      <g>
       <use xlink:href="#m4989ca4dfe" x="197.415507" y="413.998125" style="stroke: #000000; stroke-width: 0.8"/>
      </g>
     </g>
     <g id="text_7">
      <!-- 2020-10 -->
      <g transform="translate(160.190686 448.469971)rotate(-30)scale(0.1 -0.1)">
       <defs>
        <path id="DejaVuSans-31" d="M 794 531 
L 1825 531 
L 1825 4091 
L 703 3866 
L 703 4441 
L 1819 4666 
L 2450 4666 
L 2450 531 
L 3481 531 
L 3481 0 
L 794 0 
L 794 531 
z
" transform="scale(0.015625)"/>
       </defs>
       <use xlink:href="#DejaVuSans-32"/>
       <use xlink:href="#DejaVuSans-30" x="63.623047"/>
       <use xlink:href="#DejaVuSans-32" x="127.246094"/>
       <use xlink:href="#DejaVuSans-30" x="190.869141"/>
       <use xlink:href="#DejaVuSans-2d" x="254.492188"/>
       <use xlink:href="#DejaVuSans-31" x="290.576172"/>
       <use xlink:href="#DejaVuSans-30" x="354.199219"/>
      </g>
     </g>
    </g>
    <g id="xtick_8">
     <g id="line2d_15">
      <path d="M 221.511497 413.998125 
L 221.511497 22.318125 
" clip-path="url(#p171975126e)" style="fill: none; stroke: #b0b0b0; stroke-opacity: 0.6; stroke-width: 0.8; stroke-linecap: square"/>
     </g>
     <g id="line2d_16">
      <g>
       <use xlink:href="#m4989ca4dfe" x="221.511497" y="413.998125" style="stroke: #000000; stroke-width: 0.8"/>
      </g>
     </g>
     <g id="text_8">
      <!-- 2020-11 -->
      <g transform="translate(184.286676 448.469971)rotate(-30)scale(0.1 -0.1)">
       <use xlink:href="#DejaVuSans-32"/>
       <use xlink:href="#DejaVuSans-30" x="63.623047"/>
       <use xlink:href="#DejaVuSans-32" x="127.246094"/>
       <use xlink:href="#DejaVuSans-30" x="190.869141"/>
       <use xlink:href="#DejaVuSans-2d" x="254.492188"/>
       <use xlink:href="#DejaVuSans-31" x="290.576172"/>
       <use xlink:href="#DejaVuSans-31" x="354.199219"/>
      </g>
     </g>
    </g>
    <g id="xtick_9">
     <g id="line2d_17">
      <path d="M 246.410687 413.998125 
L 246.410687 22.318125 
" clip-path="url(#p171975126e)" style="fill: none; stroke: #b0b0b0; stroke-opacity: 0.6; stroke-width: 0.8; stroke-linecap: square"/>
     </g>
     <g id="line2d_18">
      <g>
       <use xlink:href="#m4989ca4dfe" x="246.410687" y="413.998125" style="stroke: #000000; stroke-width: 0.8"/>
      </g>
     </g>
     <g id="text_9">
      <!-- 2020-12 -->
      <g transform="translate(209.185866 448.469971)rotate(-30)scale(0.1 -0.1)">
       <use xlink:href="#DejaVuSans-32"/>
       <use xlink:href="#DejaVuSans-30" x="63.623047"/>
       <use xlink:href="#DejaVuSans-32" x="127.246094"/>
       <use xlink:href="#DejaVuSans-30" x="190.869141"/>
       <use xlink:href="#DejaVuSans-2d" x="254.492188"/>
       <use xlink:href="#DejaVuSans-31" x="290.576172"/>
       <use xlink:href="#DejaVuSans-32" x="354.199219"/>
      </g>
     </g>
    </g>
    <g id="xtick_10">
     <g id="line2d_19">
      <path d="M 271.309877 413.998125 
L 271.309877 22.318125 
" clip-path="url(#p171975126e)" style="fill: none; stroke: #b0b0b0; stroke-opacity: 0.6; stroke-width: 0.8; stroke-linecap: square"/>
     </g>
     <g id="line2d_20">
      <g>
       <use xlink:href="#m4989ca4dfe" x="271.309877" y="413.998125" style="stroke: #000000; stroke-width: 0.8"/>
      </g>
     </g>
     <g id="text_10">
      <!-- 2021-01 -->
      <g transform="translate(234.085056 448.469971)rotate(-30)scale(0.1 -0.1)">
       <use xlink:href="#DejaVuSans-32"/>
       <use xlink:href="#DejaVuSans-30" x="63.623047"/>
       <use xlink:href="#DejaVuSans-32" x="127.246094"/>
       <use xlink:href="#DejaVuSans-31" x="190.869141"/>
       <use xlink:href="#DejaVuSans-2d" x="254.492188"/>
       <use xlink:href="#DejaVuSans-30" x="290.576172"/>
       <use xlink:href="#DejaVuSans-31" x="354.199219"/>
      </g>
     </g>
    </g>
    <g id="xtick_11">
     <g id="line2d_21">
      <path d="M 293.799467 413.998125 
L 293.799467 22.318125 
" clip-path="url(#p171975126e)" style="fill: none; stroke: #b0b0b0; stroke-opacity: 0.6; stroke-width: 0.8; stroke-linecap: square"/>
     </g>
     <g id="line2d_22">
      <g>
       <use xlink:href="#m4989ca4dfe" x="293.799467" y="413.998125" style="stroke: #000000; stroke-width: 0.8"/>
      </g>
     </g>
     <g id="text_11">
      <!-- 2021-02 -->
      <g transform="translate(256.574647 448.469971)rotate(-30)scale(0.1 -0.1)">
       <use xlink:href="#DejaVuSans-32"/>
       <use xlink:href="#DejaVuSans-30" x="63.623047"/>
       <use xlink:href="#DejaVuSans-32" x="127.246094"/>
       <use xlink:href="#DejaVuSans-31" x="190.869141"/>
       <use xlink:href="#DejaVuSans-2d" x="254.492188"/>
       <use xlink:href="#DejaVuSans-30" x="290.576172"/>
       <use xlink:href="#DejaVuSans-32" x="354.199219"/>
      </g>
     </g>
    </g>
    <g id="xtick_12">
     <g id="line2d_23">
      <path d="M 318.698657 413.998125 
L 318.698657 22.318125 
" clip-path="url(#p171975126e)" style="fill: none; stroke: #b0b0b0; stroke-opacity: 0.6; stroke-width: 0.8; stroke-linecap: square"/>
     </g>
     <g id="line2d_24">
      <g>
       <use xlink:href="#m4989ca4dfe" x="318.698657" y="413.998125" style="stroke: #000000; stroke-width: 0.8"/>
      </g>
     </g>
     <g id="text_12">
      <!-- 2021-03 -->
      <g transform="translate(281.473837 448.469971)rotate(-30)scale(0.1 -0.1)">
       <defs>
        <path id="DejaVuSans-33" d="M 2597 2516 
Q 3050 2419 3304 2112 
Q 3559 1806 3559 1356 
Q 3559 666 3084 287 
Q 2609 -91 1734 -91 
Q 1441 -91 1130 -33 
Q 819 25 488 141 
L 488 750 
Q 750 597 1062 519 
Q 1375 441 1716 441 
Q 2309 441 2620 675 
Q 2931 909 2931 1356 
Q 2931 1769 2642 2001 
Q 2353 2234 1838 2234 
L 1294 2234 
L 1294 2753 
L 1863 2753 
Q 2328 2753 2575 2939 
Q 2822 3125 2822 3475 
Q 2822 3834 2567 4026 
Q 2313 4219 1838 4219 
Q 1578 4219 1281 4162 
Q 984 4106 628 3988 
L 628 4550 
Q 988 4650 1302 4700 
Q 1616 4750 1894 4750 
Q 2613 4750 3031 4423 
Q 3450 4097 3450 3541 
Q 3450 3153 3228 2886 
Q 3006 2619 2597 2516 
z
" transform="scale(0.015625)"/>
       </defs>
       <use xlink:href="#DejaVuSans-32"/>
       <use xlink:href="#DejaVuSans-30" x="63.623047"/>
       <use xlink:href="#DejaVuSans-32" x="127.246094"/>
       <use xlink:href="#DejaVuSans-31" x="190.869141"/>
       <use xlink:href="#DejaVuSans-2d" x="254.492188"/>
       <use xlink:href="#DejaVuSans-30" x="290.576172"/>
       <use xlink:href="#DejaVuSans-33" x="354.199219"/>
      </g>
     </g>
    </g>
    <g id="xtick_13">
     <g id="line2d_25">
      <path d="M 342.794648 413.998125 
L 342.794648 22.318125 
" clip-path="url(#p171975126e)" style="fill: none; stroke: #b0b0b0; stroke-opacity: 0.6; stroke-width: 0.8; stroke-linecap: square"/>
     </g>
     <g id="line2d_26">
      <g>
       <use xlink:href="#m4989ca4dfe" x="342.794648" y="413.998125" style="stroke: #000000; stroke-width: 0.8"/>
      </g>
     </g>
     <g id="text_13">
      <!-- 2021-04 -->
      <g transform="translate(305.569827 448.469971)rotate(-30)scale(0.1 -0.1)">
       <use xlink:href="#DejaVuSans-32"/>
       <use xlink:href="#DejaVuSans-30" x="63.623047"/>
       <use xlink:href="#DejaVuSans-32" x="127.246094"/>
       <use xlink:href="#DejaVuSans-31" x="190.869141"/>
       <use xlink:href="#DejaVuSans-2d" x="254.492188"/>
       <use xlink:href="#DejaVuSans-30" x="290.576172"/>
       <use xlink:href="#DejaVuSans-34" x="354.199219"/>
      </g>
     </g>
    </g>
    <g id="xtick_14">
     <g id="line2d_27">
      <path d="M 367.693837 413.998125 
L 367.693837 22.318125 
" clip-path="url(#p171975126e)" style="fill: none; stroke: #b0b0b0; stroke-opacity: 0.6; stroke-width: 0.8; stroke-linecap: square"/>
     </g>
     <g id="line2d_28">
      <g>
       <use xlink:href="#m4989ca4dfe" x="367.693837" y="413.998125" style="stroke: #000000; stroke-width: 0.8"/>
      </g>
     </g>
     <g id="text_14">
      <!-- 2021-05 -->
      <g transform="translate(330.469017 448.469971)rotate(-30)scale(0.1 -0.1)">
       <use xlink:href="#DejaVuSans-32"/>
       <use xlink:href="#DejaVuSans-30" x="63.623047"/>
       <use xlink:href="#DejaVuSans-32" x="127.246094"/>
       <use xlink:href="#DejaVuSans-31" x="190.869141"/>
       <use xlink:href="#DejaVuSans-2d" x="254.492188"/>
       <use xlink:href="#DejaVuSans-30" x="290.576172"/>
       <use xlink:href="#DejaVuSans-35" x="354.199219"/>
      </g>
     </g>
    </g>
    <g id="xtick_15">
     <g id="line2d_29">
      <path d="M 391.789828 413.998125 
L 391.789828 22.318125 
" clip-path="url(#p171975126e)" style="fill: none; stroke: #b0b0b0; stroke-opacity: 0.6; stroke-width: 0.8; stroke-linecap: square"/>
     </g>
     <g id="line2d_30">
      <g>
       <use xlink:href="#m4989ca4dfe" x="391.789828" y="413.998125" style="stroke: #000000; stroke-width: 0.8"/>
      </g>
     </g>
     <g id="text_15">
      <!-- 2021-06 -->
      <g transform="translate(354.565007 448.469971)rotate(-30)scale(0.1 -0.1)">
       <use xlink:href="#DejaVuSans-32"/>
       <use xlink:href="#DejaVuSans-30" x="63.623047"/>
       <use xlink:href="#DejaVuSans-32" x="127.246094"/>
       <use xlink:href="#DejaVuSans-31" x="190.869141"/>
       <use xlink:href="#DejaVuSans-2d" x="254.492188"/>
       <use xlink:href="#DejaVuSans-30" x="290.576172"/>
       <use xlink:href="#DejaVuSans-36" x="354.199219"/>
      </g>
     </g>
    </g>
    <g id="xtick_16">
     <g id="line2d_31">
      <path d="M 416.689018 413.998125 
L 416.689018 22.318125 
" clip-path="url(#p171975126e)" style="fill: none; stroke: #b0b0b0; stroke-opacity: 0.6; stroke-width: 0.8; stroke-linecap: square"/>
     </g>
     <g id="line2d_32">
      <g>
       <use xlink:href="#m4989ca4dfe" x="416.689018" y="413.998125" style="stroke: #000000; stroke-width: 0.8"/>
      </g>
     </g>
     <g id="text_16">
      <!-- 2021-07 -->
      <g transform="translate(379.464197 448.469971)rotate(-30)scale(0.1 -0.1)">
       <use xlink:href="#DejaVuSans-32"/>
       <use xlink:href="#DejaVuSans-30" x="63.623047"/>
       <use xlink:href="#DejaVuSans-32" x="127.246094"/>
       <use xlink:href="#DejaVuSans-31" x="190.869141"/>
       <use xlink:href="#DejaVuSans-2d" x="254.492188"/>
       <use xlink:href="#DejaVuSans-30" x="290.576172"/>
       <use xlink:href="#DejaVuSans-37" x="354.199219"/>
      </g>
     </g>
    </g>
    <g id="xtick_17">
     <g id="line2d_33">
      <path d="M 441.588207 413.998125 
L 441.588207 22.318125 
" clip-path="url(#p171975126e)" style="fill: none; stroke: #b0b0b0; stroke-opacity: 0.6; stroke-width: 0.8; stroke-linecap: square"/>
     </g>
     <g id="line2d_34">
      <g>
       <use xlink:href="#m4989ca4dfe" x="441.588207" y="413.998125" style="stroke: #000000; stroke-width: 0.8"/>
      </g>
     </g>
     <g id="text_17">
      <!-- 2021-08 -->
      <g transform="translate(404.363387 448.469971)rotate(-30)scale(0.1 -0.1)">
       <use xlink:href="#DejaVuSans-32"/>
       <use xlink:href="#DejaVuSans-30" x="63.623047"/>
       <use xlink:href="#DejaVuSans-32" x="127.246094"/>
       <use xlink:href="#DejaVuSans-31" x="190.869141"/>
       <use xlink:href="#DejaVuSans-2d" x="254.492188"/>
       <use xlink:href="#DejaVuSans-30" x="290.576172"/>
       <use xlink:href="#DejaVuSans-38" x="354.199219"/>
      </g>
     </g>
    </g>
    <g id="xtick_18">
     <g id="line2d_35">
      <path d="M 465.684198 413.998125 
L 465.684198 22.318125 
" clip-path="url(#p171975126e)" style="fill: none; stroke: #b0b0b0; stroke-opacity: 0.6; stroke-width: 0.8; stroke-linecap: square"/>
     </g>
     <g id="line2d_36">
      <g>
       <use xlink:href="#m4989ca4dfe" x="465.684198" y="413.998125" style="stroke: #000000; stroke-width: 0.8"/>
      </g>
     </g>
     <g id="text_18">
      <!-- 2021-09 -->
      <g transform="translate(428.459377 448.469971)rotate(-30)scale(0.1 -0.1)">
       <use xlink:href="#DejaVuSans-32"/>
       <use xlink:href="#DejaVuSans-30" x="63.623047"/>
       <use xlink:href="#DejaVuSans-32" x="127.246094"/>
       <use xlink:href="#DejaVuSans-31" x="190.869141"/>
       <use xlink:href="#DejaVuSans-2d" x="254.492188"/>
       <use xlink:href="#DejaVuSans-30" x="290.576172"/>
       <use xlink:href="#DejaVuSans-39" x="354.199219"/>
      </g>
     </g>
    </g>
    <g id="xtick_19">
     <g id="line2d_37">
      <path d="M 490.583387 413.998125 
L 490.583387 22.318125 
" clip-path="url(#p171975126e)" style="fill: none; stroke: #b0b0b0; stroke-opacity: 0.6; stroke-width: 0.8; stroke-linecap: square"/>
     </g>
     <g id="line2d_38">
      <g>
       <use xlink:href="#m4989ca4dfe" x="490.583387" y="413.998125" style="stroke: #000000; stroke-width: 0.8"/>
      </g>
     </g>
     <g id="text_19">
      <!-- 2021-10 -->
      <g transform="translate(453.358567 448.469971)rotate(-30)scale(0.1 -0.1)">
       <use xlink:href="#DejaVuSans-32"/>
       <use xlink:href="#DejaVuSans-30" x="63.623047"/>
       <use xlink:href="#DejaVuSans-32" x="127.246094"/>
       <use xlink:href="#DejaVuSans-31" x="190.869141"/>
       <use xlink:href="#DejaVuSans-2d" x="254.492188"/>
       <use xlink:href="#DejaVuSans-31" x="290.576172"/>
       <use xlink:href="#DejaVuSans-30" x="354.199219"/>
      </g>
     </g>
    </g>
    <g id="xtick_20">
     <g id="line2d_39">
      <path d="M 514.679378 413.998125 
L 514.679378 22.318125 
" clip-path="url(#p171975126e)" style="fill: none; stroke: #b0b0b0; stroke-opacity: 0.6; stroke-width: 0.8; stroke-linecap: square"/>
     </g>
     <g id="line2d_40">
      <g>
       <use xlink:href="#m4989ca4dfe" x="514.679378" y="413.998125" style="stroke: #000000; stroke-width: 0.8"/>
      </g>
     </g>
     <g id="text_20">
      <!-- 2021-11 -->
      <g transform="translate(477.454557 448.469971)rotate(-30)scale(0.1 -0.1)">
       <use xlink:href="#DejaVuSans-32"/>
       <use xlink:href="#DejaVuSans-30" x="63.623047"/>
       <use xlink:href="#DejaVuSans-32" x="127.246094"/>
       <use xlink:href="#DejaVuSans-31" x="190.869141"/>
       <use xlink:href="#DejaVuSans-2d" x="254.492188"/>
       <use xlink:href="#DejaVuSans-31" x="290.576172"/>
       <use xlink:href="#DejaVuSans-31" x="354.199219"/>
      </g>
     </g>
    </g>
    <g id="xtick_21">
     <g id="line2d_41">
      <path d="M 539.578568 413.998125 
L 539.578568 22.318125 
" clip-path="url(#p171975126e)" style="fill: none; stroke: #b0b0b0; stroke-opacity: 0.6; stroke-width: 0.8; stroke-linecap: square"/>
     </g>
     <g id="line2d_42">
      <g>
       <use xlink:href="#m4989ca4dfe" x="539.578568" y="413.998125" style="stroke: #000000; stroke-width: 0.8"/>
      </g>
     </g>
     <g id="text_21">
      <!-- 2021-12 -->
      <g transform="translate(502.353747 448.469971)rotate(-30)scale(0.1 -0.1)">
       <use xlink:href="#DejaVuSans-32"/>
       <use xlink:href="#DejaVuSans-30" x="63.623047"/>
       <use xlink:href="#DejaVuSans-32" x="127.246094"/>
       <use xlink:href="#DejaVuSans-31" x="190.869141"/>
       <use xlink:href="#DejaVuSans-2d" x="254.492188"/>
       <use xlink:href="#DejaVuSans-31" x="290.576172"/>
       <use xlink:href="#DejaVuSans-32" x="354.199219"/>
      </g>
     </g>
    </g>
    <g id="xtick_22">
     <g id="line2d_43">
      <path d="M 564.477757 413.998125 
L 564.477757 22.318125 
" clip-path="url(#p171975126e)" style="fill: none; stroke: #b0b0b0; stroke-opacity: 0.6; stroke-width: 0.8; stroke-linecap: square"/>
     </g>
     <g id="line2d_44">
      <g>
       <use xlink:href="#m4989ca4dfe" x="564.477757" y="413.998125" style="stroke: #000000; stroke-width: 0.8"/>
      </g>
     </g>
     <g id="text_22">
      <!-- 2022-01 -->
      <g transform="translate(527.252937 448.469971)rotate(-30)scale(0.1 -0.1)">
       <use xlink:href="#DejaVuSans-32"/>
       <use xlink:href="#DejaVuSans-30" x="63.623047"/>
       <use xlink:href="#DejaVuSans-32" x="127.246094"/>
       <use xlink:href="#DejaVuSans-32" x="190.869141"/>
       <use xlink:href="#DejaVuSans-2d" x="254.492188"/>
       <use xlink:href="#DejaVuSans-30" x="290.576172"/>
       <use xlink:href="#DejaVuSans-31" x="354.199219"/>
      </g>
     </g>
    </g>
    <g id="xtick_23">
     <g id="line2d_45">
      <path d="M 586.967348 413.998125 
L 586.967348 22.318125 
" clip-path="url(#p171975126e)" style="fill: none; stroke: #b0b0b0; stroke-opacity: 0.6; stroke-width: 0.8; stroke-linecap: square"/>
     </g>
     <g id="line2d_46">
      <g>
       <use xlink:href="#m4989ca4dfe" x="586.967348" y="413.998125" style="stroke: #000000; stroke-width: 0.8"/>
      </g>
     </g>
     <g id="text_23">
      <!-- 2022-02 -->
      <g transform="translate(549.742527 448.469971)rotate(-30)scale(0.1 -0.1)">
       <use xlink:href="#DejaVuSans-32"/>
       <use xlink:href="#DejaVuSans-30" x="63.623047"/>
       <use xlink:href="#DejaVuSans-32" x="127.246094"/>
       <use xlink:href="#DejaVuSans-32" x="190.869141"/>
       <use xlink:href="#DejaVuSans-2d" x="254.492188"/>
       <use xlink:href="#DejaVuSans-30" x="290.576172"/>
       <use xlink:href="#DejaVuSans-32" x="354.199219"/>
      </g>
     </g>
    </g>
    <g id="text_24">
     <!-- Date -->
     <g transform="translate(314.014844 461.869471)scale(0.1 -0.1)">
      <defs>
       <path id="DejaVuSans-44" d="M 1259 4147 
L 1259 519 
L 2022 519 
Q 2988 519 3436 956 
Q 3884 1394 3884 2338 
Q 3884 3275 3436 3711 
Q 2988 4147 2022 4147 
L 1259 4147 
z
M 628 4666 
L 1925 4666 
Q 3281 4666 3915 4102 
Q 4550 3538 4550 2338 
Q 4550 1131 3912 565 
Q 3275 0 1925 0 
L 628 0 
L 628 4666 
z
" transform="scale(0.015625)"/>
       <path id="DejaVuSans-61" d="M 2194 1759 
Q 1497 1759 1228 1600 
Q 959 1441 959 1056 
Q 959 750 1161 570 
Q 1363 391 1709 391 
Q 2188 391 2477 730 
Q 2766 1069 2766 1631 
L 2766 1759 
L 2194 1759 
z
M 3341 1997 
L 3341 0 
L 2766 0 
L 2766 531 
Q 2569 213 2275 61 
Q 1981 -91 1556 -91 
Q 1019 -91 701 211 
Q 384 513 384 1019 
Q 384 1609 779 1909 
Q 1175 2209 1959 2209 
L 2766 2209 
L 2766 2266 
Q 2766 2663 2505 2880 
Q 2244 3097 1772 3097 
Q 1472 3097 1187 3025 
Q 903 2953 641 2809 
L 641 3341 
Q 956 3463 1253 3523 
Q 1550 3584 1831 3584 
Q 2591 3584 2966 3190 
Q 3341 2797 3341 1997 
z
" transform="scale(0.015625)"/>
       <path id="DejaVuSans-74" d="M 1172 4494 
L 1172 3500 
L 2356 3500 
L 2356 3053 
L 1172 3053 
L 1172 1153 
Q 1172 725 1289 603 
Q 1406 481 1766 481 
L 2356 481 
L 2356 0 
L 1766 0 
Q 1100 0 847 248 
Q 594 497 594 1153 
L 594 3053 
L 172 3053 
L 172 3500 
L 594 3500 
L 594 4494 
L 1172 4494 
z
" transform="scale(0.015625)"/>
       <path id="DejaVuSans-65" d="M 3597 1894 
L 3597 1613 
L 953 1613 
Q 991 1019 1311 708 
Q 1631 397 2203 397 
Q 2534 397 2845 478 
Q 3156 559 3463 722 
L 3463 178 
Q 3153 47 2828 -22 
Q 2503 -91 2169 -91 
Q 1331 -91 842 396 
Q 353 884 353 1716 
Q 353 2575 817 3079 
Q 1281 3584 2069 3584 
Q 2775 3584 3186 3129 
Q 3597 2675 3597 1894 
z
M 3022 2063 
Q 3016 2534 2758 2815 
Q 2500 3097 2075 3097 
Q 1594 3097 1305 2825 
Q 1016 2553 972 2059 
L 3022 2063 
z
" transform="scale(0.015625)"/>
      </defs>
      <use xlink:href="#DejaVuSans-44"/>
      <use xlink:href="#DejaVuSans-61" x="77.001953"/>
      <use xlink:href="#DejaVuSans-74" x="138.28125"/>
      <use xlink:href="#DejaVuSans-65" x="177.490234"/>
     </g>
    </g>
   </g>
   <g id="matplotlib.axis_2">
    <g id="ytick_1">
     <g id="line2d_47">
      <path d="M 46.965625 397.805677 
L 604.965625 397.805677 
" clip-path="url(#p171975126e)" style="fill: none; stroke: #b0b0b0; stroke-opacity: 0.6; stroke-width: 0.8; stroke-linecap: square"/>
     </g>
     <g id="line2d_48">
      <defs>
       <path id="mc11dc46687" d="M 0 0 
L -3.5 0 
" style="stroke: #000000; stroke-width: 0.8"/>
      </defs>
      <g>
       <use xlink:href="#mc11dc46687" x="46.965625" y="397.805677" style="stroke: #000000; stroke-width: 0.8"/>
      </g>
     </g>
     <g id="text_25">
      <!-- 0 -->
      <g transform="translate(33.603125 401.604896)scale(0.1 -0.1)">
       <use xlink:href="#DejaVuSans-30"/>
      </g>
     </g>
    </g>
    <g id="ytick_2">
     <g id="line2d_49">
      <path d="M 46.965625 317.246237 
L 604.965625 317.246237 
" clip-path="url(#p171975126e)" style="fill: none; stroke: #b0b0b0; stroke-opacity: 0.6; stroke-width: 0.8; stroke-linecap: square"/>
     </g>
     <g id="line2d_50">
      <g>
       <use xlink:href="#mc11dc46687" x="46.965625" y="317.246237" style="stroke: #000000; stroke-width: 0.8"/>
      </g>
     </g>
     <g id="text_26">
      <!-- 50 -->
      <g transform="translate(27.240625 321.045456)scale(0.1 -0.1)">
       <use xlink:href="#DejaVuSans-35"/>
       <use xlink:href="#DejaVuSans-30" x="63.623047"/>
      </g>
     </g>
    </g>
    <g id="ytick_3">
     <g id="line2d_51">
      <path d="M 46.965625 236.686796 
L 604.965625 236.686796 
" clip-path="url(#p171975126e)" style="fill: none; stroke: #b0b0b0; stroke-opacity: 0.6; stroke-width: 0.8; stroke-linecap: square"/>
     </g>
     <g id="line2d_52">
      <g>
       <use xlink:href="#mc11dc46687" x="46.965625" y="236.686796" style="stroke: #000000; stroke-width: 0.8"/>
      </g>
     </g>
     <g id="text_27">
      <!-- 100 -->
      <g transform="translate(20.878125 240.486015)scale(0.1 -0.1)">
       <use xlink:href="#DejaVuSans-31"/>
       <use xlink:href="#DejaVuSans-30" x="63.623047"/>
       <use xlink:href="#DejaVuSans-30" x="127.246094"/>
      </g>
     </g>
    </g>
    <g id="ytick_4">
     <g id="line2d_53">
      <path d="M 46.965625 156.127356 
L 604.965625 156.127356 
" clip-path="url(#p171975126e)" style="fill: none; stroke: #b0b0b0; stroke-opacity: 0.6; stroke-width: 0.8; stroke-linecap: square"/>
     </g>
     <g id="line2d_54">
      <g>
       <use xlink:href="#mc11dc46687" x="46.965625" y="156.127356" style="stroke: #000000; stroke-width: 0.8"/>
      </g>
     </g>
     <g id="text_28">
      <!-- 150 -->
      <g transform="translate(20.878125 159.926575)scale(0.1 -0.1)">
       <use xlink:href="#DejaVuSans-31"/>
       <use xlink:href="#DejaVuSans-35" x="63.623047"/>
       <use xlink:href="#DejaVuSans-30" x="127.246094"/>
      </g>
     </g>
    </g>
    <g id="ytick_5">
     <g id="line2d_55">
      <path d="M 46.965625 75.567915 
L 604.965625 75.567915 
" clip-path="url(#p171975126e)" style="fill: none; stroke: #b0b0b0; stroke-opacity: 0.6; stroke-width: 0.8; stroke-linecap: square"/>
     </g>
     <g id="line2d_56">
      <g>
       <use xlink:href="#mc11dc46687" x="46.965625" y="75.567915" style="stroke: #000000; stroke-width: 0.8"/>
      </g>
     </g>
     <g id="text_29">
      <!-- 200 -->
      <g transform="translate(20.878125 79.367134)scale(0.1 -0.1)">
       <use xlink:href="#DejaVuSans-32"/>
       <use xlink:href="#DejaVuSans-30" x="63.623047"/>
       <use xlink:href="#DejaVuSans-30" x="127.246094"/>
      </g>
     </g>
    </g>
    <g id="text_30">
     <!-- Count -->
     <g transform="translate(14.798437 233.006562)rotate(-90)scale(0.1 -0.1)">
      <defs>
       <path id="DejaVuSans-43" d="M 4122 4306 
L 4122 3641 
Q 3803 3938 3442 4084 
Q 3081 4231 2675 4231 
Q 1875 4231 1450 3742 
Q 1025 3253 1025 2328 
Q 1025 1406 1450 917 
Q 1875 428 2675 428 
Q 3081 428 3442 575 
Q 3803 722 4122 1019 
L 4122 359 
Q 3791 134 3420 21 
Q 3050 -91 2638 -91 
Q 1578 -91 968 557 
Q 359 1206 359 2328 
Q 359 3453 968 4101 
Q 1578 4750 2638 4750 
Q 3056 4750 3426 4639 
Q 3797 4528 4122 4306 
z
" transform="scale(0.015625)"/>
       <path id="DejaVuSans-6f" d="M 1959 3097 
Q 1497 3097 1228 2736 
Q 959 2375 959 1747 
Q 959 1119 1226 758 
Q 1494 397 1959 397 
Q 2419 397 2687 759 
Q 2956 1122 2956 1747 
Q 2956 2369 2687 2733 
Q 2419 3097 1959 3097 
z
M 1959 3584 
Q 2709 3584 3137 3096 
Q 3566 2609 3566 1747 
Q 3566 888 3137 398 
Q 2709 -91 1959 -91 
Q 1206 -91 779 398 
Q 353 888 353 1747 
Q 353 2609 779 3096 
Q 1206 3584 1959 3584 
z
" transform="scale(0.015625)"/>
       <path id="DejaVuSans-75" d="M 544 1381 
L 544 3500 
L 1119 3500 
L 1119 1403 
Q 1119 906 1312 657 
Q 1506 409 1894 409 
Q 2359 409 2629 706 
Q 2900 1003 2900 1516 
L 2900 3500 
L 3475 3500 
L 3475 0 
L 2900 0 
L 2900 538 
Q 2691 219 2414 64 
Q 2138 -91 1772 -91 
Q 1169 -91 856 284 
Q 544 659 544 1381 
z
M 1991 3584 
L 1991 3584 
z
" transform="scale(0.015625)"/>
       <path id="DejaVuSans-6e" d="M 3513 2113 
L 3513 0 
L 2938 0 
L 2938 2094 
Q 2938 2591 2744 2837 
Q 2550 3084 2163 3084 
Q 1697 3084 1428 2787 
Q 1159 2491 1159 1978 
L 1159 0 
L 581 0 
L 581 3500 
L 1159 3500 
L 1159 2956 
Q 1366 3272 1645 3428 
Q 1925 3584 2291 3584 
Q 2894 3584 3203 3211 
Q 3513 2838 3513 2113 
z
" transform="scale(0.015625)"/>
      </defs>
      <use xlink:href="#DejaVuSans-43"/>
      <use xlink:href="#DejaVuSans-6f" x="69.824219"/>
      <use xlink:href="#DejaVuSans-75" x="131.005859"/>
      <use xlink:href="#DejaVuSans-6e" x="194.384766"/>
      <use xlink:href="#DejaVuSans-74" x="257.763672"/>
     </g>
    </g>
   </g>
   <g id="line2d_57">
    <path d="M 579.601989 375.249034 
L 578.190365 373.637845 
L 554.923651 373.637845 
L 554.923539 372.026656 
L 535.815763 372.026656 
L 535.815698 370.415468 
L 515.623518 370.415468 
L 516.336721 370.415468 
L 515.546071 372.026656 
L 486.699871 372.026656 
L 485.989188 373.637845 
L 472.866374 373.637845 
L 472.68993 372.026656 
L 444.879941 372.026656 
L 444.87969 373.637845 
L 366.210707 373.637845 
L 366.090125 375.249034 
L 361.222335 375.249034 
L 361.222093 376.860223 
L 346.194674 376.860223 
L 345.401254 378.471412 
L 341.412633 378.471412 
L 341.02507 376.860223 
L 295.673423 376.860223 
L 295.636387 378.471412 
L 288.028552 378.471412 
L 287.21336 380.082601 
L 267.584025 380.082601 
L 267.557967 378.471412 
L 262.676596 378.471412 
L 262.656757 380.082601 
L 256.061493 380.082601 
L 255.52163 381.693789 
L 246.658991 381.693789 
L 246.607368 383.304978 
L 243.546759 383.304978 
L 243.335371 384.916167 
L 237.063683 384.916167 
L 237.057501 386.527356 
L 223.943147 386.527356 
L 222.151482 388.138545 
L 142.096468 388.138545 
L 142.057433 389.749733 
L 128.59575 389.749733 
L 128.570111 391.360922 
L 109.632662 391.360922 
L 109.091459 392.972111 
L 88.385771 392.972111 
L 87.601183 394.5833 
L 73.163864 394.5833 
L 72.329261 396.194489 
L 72.329261 396.194489 
" clip-path="url(#p171975126e)" style="fill: none; stroke: #1f77b4; stroke-opacity: 0.8; stroke-width: 1.5; stroke-linecap: square"/>
   </g>
   <g id="line2d_58">
    <path d="M 579.601989 62.678405 
L 578.222251 53.011272 
L 578.190365 51.400083 
L 575.865177 53.011272 
L 575.860538 54.622461 
L 574.157373 56.233649 
L 572.387629 61.067216 
L 572.376315 64.289594 
L 569.365543 67.511971 
L 569.202096 72.345538 
L 568.39422 73.956726 
L 561.179777 77.179104 
L 560.627149 65.900782 
L 559.49249 67.511971 
L 559.492342 70.734349 
L 555.068608 70.734349 
L 554.923651 73.956726 
L 554.923539 65.900782 
L 553.544174 65.900782 
L 551.670441 67.511971 
L 551.15129 67.511971 
L 551.122099 69.12316 
L 548.268788 69.12316 
L 547.670823 70.734349 
L 547.478334 72.345538 
L 546.000093 72.345538 
L 545.999396 75.567915 
L 545.316909 75.567915 
L 545.043914 83.623859 
L 543.442664 83.623859 
L 541.997881 85.235048 
L 540.631103 85.235048 
L 540.554455 96.51337 
L 540.303929 99.735747 
L 540.225692 99.735747 
L 540.220105 102.958125 
L 535.815763 101.346936 
L 535.815698 77.179104 
L 532.490488 73.956726 
L 532.21292 73.956726 
L 531.231743 75.567915 
L 527.035796 75.567915 
L 526.95556 77.179104 
L 522.748736 77.179104 
L 522.088077 78.790293 
L 521.418186 77.179104 
L 518.785308 78.790293 
L 517.784516 78.790293 
L 517.784098 80.401482 
L 516.077633 80.401482 
L 515.623518 85.235048 
L 516.336721 85.235048 
L 515.244927 91.679803 
L 511.32865 91.679803 
L 509.295049 93.290992 
L 510.513532 93.290992 
L 506.82455 94.902181 
L 506.497822 101.346936 
L 506.172443 101.346936 
L 505.247155 102.958125 
L 501.97102 101.346936 
L 501.731436 102.958125 
L 501.653784 101.346936 
L 500.476111 101.346936 
L 500.464296 62.678405 
L 499.461086 40.121761 
L 499.35403 41.73295 
L 494.681035 41.73295 
L 494.627451 48.177705 
L 493.172898 49.788894 
L 492.414116 53.011272 
L 486.699871 53.011272 
L 485.989188 54.622461 
L 477.68863 54.622461 
L 480.251869 56.233649 
L 478.647022 56.233649 
L 478.367808 57.844838 
L 478.317515 59.456027 
L 476.189129 61.067216 
L 476.04235 64.289594 
L 475.987399 67.511971 
L 475.565961 67.511971 
L 473.532118 70.734349 
L 473.532118 72.345538 
L 472.875986 73.956726 
L 472.866374 70.734349 
L 472.715318 67.511971 
L 472.68993 69.12316 
L 469.433123 69.12316 
L 469.510672 69.12316 
L 466.646011 70.734349 
L 447.399106 70.734349 
L 447.322997 72.345538 
L 446.522317 77.179104 
L 444.880164 77.179104 
L 444.879941 75.567915 
L 444.87969 77.179104 
L 440.626989 77.179104 
L 440.191969 78.790293 
L 436.839987 78.790293 
L 436.066777 80.401482 
L 436.059953 90.068615 
L 435.255564 91.679803 
L 435.255433 94.902181 
L 433.037254 94.902181 
L 433.00138 96.51337 
L 432.053539 96.51337 
L 430.418005 98.124559 
L 428.740499 98.124559 
L 428.56796 99.735747 
L 428.564734 101.346936 
L 422.263279 101.346936 
L 422.26314 99.735747 
L 420.75489 99.735747 
L 420.754612 102.958125 
L 418.346323 106.180503 
L 411.237541 106.180503 
L 411.2295 109.40288 
L 410.462398 109.40288 
L 409.716835 111.014069 
L 408.768837 111.014069 
L 408.751927 112.625258 
L 401.480748 112.625258 
L 400.8379 114.236447 
L 399.787047 115.847635 
L 396.711824 117.458824 
L 395.195943 119.070013 
L 395.195682 120.681202 
L 389.287312 120.681202 
L 387.134616 122.292391 
L 383.987431 122.292391 
L 383.98281 123.90358 
L 378.274627 125.514768 
L 375.080104 127.125957 
L 371.861514 127.125957 
L 371.515469 128.737146 
L 369.372125 131.959524 
L 369.37087 133.570712 
L 362.187067 133.570712 
L 361.985784 136.79309 
L 361.222335 136.79309 
L 361.222093 140.015468 
L 360.376382 140.015468 
L 360.376159 138.404279 
L 359.86463 138.404279 
L 359.04638 140.015468 
L 359.04625 141.626656 
L 357.312444 143.237845 
L 357.312695 148.071412 
L 354.191409 148.071412 
L 349.345698 149.682601 
L 349.331308 152.904978 
L 346.994871 152.904978 
L 346.893476 154.516167 
L 346.289933 156.127356 
L 346.194674 160.960922 
L 345.401254 165.794489 
L 345.260182 165.794489 
L 344.318719 167.405677 
L 344.223636 169.016866 
L 342.77269 169.016866 
L 341.412633 170.628055 
L 341.02507 170.628055 
L 339.62015 172.239244 
L 335.439849 172.239244 
L 335.376234 173.850433 
L 331.571884 173.850433 
L 331.571884 173.850433 
L 331.01367 175.461622 
L 331.009384 162.572111 
L 330.993004 164.1833 
L 329.117254 170.628055 
L 322.649396 170.628055 
L 322.535646 175.461622 
L 322.518402 181.906377 
L 322.168843 185.128754 
L 319.385058 185.128754 
L 318.051087 186.739943 
L 314.470136 186.739943 
L 314.464438 188.351132 
L 314.132941 191.57351 
L 312.89488 193.184698 
L 312.861301 198.018265 
L 312.472261 198.018265 
L 312.409455 199.629454 
L 310.511552 199.629454 
L 308.119495 201.240642 
L 307.666431 201.240642 
L 307.635716 202.851831 
L 307.361606 204.46302 
L 301.032188 204.46302 
L 300.086225 206.074209 
L 299.563857 207.685398 
L 298.036597 209.296587 
L 297.693173 209.296587 
L 296.023513 210.907775 
L 295.673423 210.907775 
L 295.636387 215.741342 
L 295.239798 217.352531 
L 295.239593 218.963719 
L 294.653741 218.963719 
L 292.26108 228.630852 
L 292.056245 227.019663 
L 291.319207 227.019663 
L 291.209018 228.630852 
L 290.673877 230.242041 
L 288.028552 230.242041 
L 287.21336 233.464419 
L 285.01395 233.464419 
L 282.617998 231.85323 
L 282.579289 233.464419 
L 282.0416 233.464419 
L 281.230332 235.075608 
L 279.555428 227.019663 
L 274.818799 227.019663 
L 273.770903 228.630852 
L 273.765065 230.242041 
L 270.830848 230.242041 
L 270.826553 231.85323 
L 269.97162 231.85323 
L 269.674296 233.464419 
L 269.182504 233.464419 
L 269.168039 238.297985 
L 268.401885 238.297985 
L 268.400648 239.909174 
L 267.584025 239.909174 
L 267.563685 236.686796 
L 267.557967 238.297985 
L 263.460589 238.297985 
L 262.676596 239.909174 
L 262.656757 241.520363 
L 258.64194 241.520363 
L 256.746175 235.075608 
L 256.061493 239.909174 
L 255.52163 246.353929 
L 251.23549 246.353929 
L 250.712314 247.965118 
L 249.687546 247.965118 
L 249.687286 251.187496 
L 249.169836 251.187496 
L 249.12698 252.798684 
L 247.527469 252.798684 
L 247.348367 257.632251 
L 247.172955 257.632251 
L 247.172788 260.854628 
L 246.658991 262.465817 
L 246.607368 264.077006 
L 244.932799 264.077006 
L 244.923838 265.688195 
L 244.677337 265.688195 
L 244.663476 272.13295 
L 244.027536 272.13295 
L 243.896188 273.744139 
L 243.546759 275.355328 
L 243.335371 278.577705 
L 243.165602 278.577705 
L 243.101792 283.411272 
L 242.422205 285.022461 
L 237.063683 285.022461 
L 237.057501 288.244838 
L 231.167128 288.244838 
L 231.128855 291.467216 
L 228.228514 291.467216 
L 228.225382 283.411272 
L 223.943147 283.411272 
L 222.151482 285.022461 
L 216.506801 286.633649 
L 212.817874 286.633649 
L 210.390193 288.244838 
L 207.872571 288.244838 
L 207.293059 289.856027 
L 205.728419 291.467216 
L 205.395918 293.078405 
L 205.39537 296.300782 
L 203.122129 296.300782 
L 201.246769 299.52316 
L 198.074539 299.52316 
L 198.074056 301.134349 
L 190.298405 301.134349 
L 186.786981 302.745538 
L 183.701477 302.745538 
L 183.637406 304.356726 
L 182.381124 305.967915 
L 180.715545 305.967915 
L 180.448369 307.579104 
L 180.447979 304.356726 
L 180.415823 305.967915 
L 180.058269 307.579104 
L 180.057163 310.801482 
L 163.962491 310.801482 
L 163.681464 315.635048 
L 161.194074 315.635048 
L 155.489953 317.246237 
L 155.494359 318.857426 
L 155.488242 318.857426 
L 147.786171 318.857426 
L 147.545601 322.079803 
L 147.538852 323.690992 
L 143.042654 323.690992 
L 143.042496 325.302181 
L 142.849951 325.302181 
L 142.594498 326.91337 
L 142.057433 336.580503 
L 141.180672 336.580503 
L 140.201725 338.191691 
L 139.593311 338.191691 
L 139.384711 341.414069 
L 138.040542 343.025258 
L 134.793449 343.025258 
L 134.793124 346.247635 
L 131.570192 346.247635 
L 130.621217 347.858824 
L 130.568898 349.470013 
L 129.768375 349.470013 
L 129.273301 352.692391 
L 129.216919 354.30358 
L 128.59575 355.914768 
L 128.570111 357.525957 
L 117.893663 357.525957 
L 117.737039 360.748335 
L 116.228418 360.748335 
L 114.68726 362.359524 
L 113.195429 362.359524 
L 112.15575 363.970712 
L 111.345039 363.970712 
L 110.758229 365.581901 
L 110.54791 367.19309 
L 110.524622 367.19309 
L 110.464578 368.804279 
L 109.632662 370.415468 
L 109.091459 375.249034 
L 98.449315 375.249034 
L 97.03058 376.860223 
L 92.415584 376.860223 
L 92.415426 378.471412 
L 89.680717 378.471412 
L 88.947965 380.082601 
L 88.385771 380.082601 
L 87.601183 383.304978 
L 83.567085 383.304978 
L 83.140617 384.916167 
L 80.722075 384.916167 
L 80.709572 386.527356 
L 80.358627 388.138545 
L 78.793727 388.138545 
L 78.623762 389.749733 
L 74.439315 391.360922 
L 73.163864 391.360922 
L 72.329261 392.972111 
L 72.329261 392.972111 
" clip-path="url(#p171975126e)" style="fill: none; stroke: #ff7f0e; stroke-opacity: 0.8; stroke-width: 1.5; stroke-linecap: square"/>
   </g>
   <g id="line2d_59">
    <path d="M 579.601989 210.907775 
L 578.190365 209.296587 
L 575.865177 210.907775 
L 575.860538 212.518964 
L 572.387629 215.741342 
L 572.376315 217.352531 
L 569.365543 218.963719 
L 569.202096 220.574908 
L 568.39422 220.574908 
L 561.179777 222.186097 
L 560.627149 210.907775 
L 559.492342 212.518964 
L 556.577824 212.518964 
L 556.520047 210.907775 
L 555.068608 210.907775 
L 554.923539 212.518964 
L 553.544174 212.518964 
L 551.670441 214.130153 
L 548.268788 214.130153 
L 547.670823 215.741342 
L 547.478334 217.352531 
L 545.999619 217.352531 
L 545.999396 218.963719 
L 545.316909 218.963719 
L 545.043914 220.574908 
L 540.631103 220.574908 
L 540.554455 222.186097 
L 540.303929 225.408475 
L 540.225692 225.408475 
L 540.220105 227.019663 
L 535.815763 227.019663 
L 535.815698 222.186097 
L 532.21292 222.186097 
L 531.231743 223.797286 
L 527.035796 223.797286 
L 526.95556 225.408475 
L 522.748736 225.408475 
L 522.088077 227.019663 
L 517.784516 227.019663 
L 517.784098 228.630852 
L 515.623518 228.630852 
L 516.336721 228.630852 
L 515.546071 230.242041 
L 515.244927 231.85323 
L 511.32865 231.85323 
L 509.295049 233.464419 
L 510.513532 233.464419 
L 506.82455 235.075608 
L 506.497822 236.686796 
L 506.172443 236.686796 
L 505.247155 238.297985 
L 501.97102 236.686796 
L 501.731436 238.297985 
L 501.653784 236.686796 
L 500.476111 236.686796 
L 500.464296 210.907775 
L 499.461086 204.46302 
L 499.35403 206.074209 
L 494.681035 206.074209 
L 494.627451 207.685398 
L 493.172898 209.296587 
L 492.414116 210.907775 
L 477.68863 210.907775 
L 480.251869 212.518964 
L 478.647022 212.518964 
L 478.317515 214.130153 
L 476.085605 215.741342 
L 475.987399 217.352531 
L 474.57942 217.352531 
L 473.532118 218.963719 
L 473.532118 220.574908 
L 472.875986 222.186097 
L 472.866374 218.963719 
L 472.715318 215.741342 
L 472.68993 217.352531 
L 469.433123 217.352531 
L 469.510672 217.352531 
L 466.646011 218.963719 
L 447.399106 218.963719 
L 447.322997 220.574908 
L 440.626989 220.574908 
L 440.191969 222.186097 
L 436.839987 222.186097 
L 436.066777 223.797286 
L 436.059953 225.408475 
L 433.037254 225.408475 
L 433.00138 227.019663 
L 432.053539 227.019663 
L 430.418005 228.630852 
L 428.740499 228.630852 
L 428.56796 230.242041 
L 428.564734 231.85323 
L 422.263279 231.85323 
L 422.26314 230.242041 
L 420.75489 230.242041 
L 420.754612 231.85323 
L 418.205308 233.464419 
L 408.768837 233.464419 
L 408.751927 235.075608 
L 401.480748 235.075608 
L 400.8379 236.686796 
L 399.787047 238.297985 
L 396.711824 239.909174 
L 395.195943 241.520363 
L 395.195682 243.131552 
L 389.287312 243.131552 
L 387.134616 244.74274 
L 383.987431 244.74274 
L 383.98281 246.353929 
L 378.274627 247.965118 
L 375.080104 249.576307 
L 371.861514 249.576307 
L 371.515469 251.187496 
L 369.372125 252.798684 
L 369.37087 254.409873 
L 361.222335 254.409873 
L 361.222093 257.632251 
L 359.86463 257.632251 
L 359.04638 259.24344 
L 359.04625 260.854628 
L 357.312444 262.465817 
L 357.312695 267.299384 
L 354.191409 267.299384 
L 349.345698 268.910573 
L 349.331308 270.521761 
L 346.994871 270.521761 
L 346.954097 272.13295 
L 346.893476 270.521761 
L 346.289933 270.521761 
L 346.194674 273.744139 
L 344.318719 273.744139 
L 344.223636 275.355328 
L 342.77269 275.355328 
L 341.412633 276.966517 
L 331.571884 276.966517 
L 331.571884 276.966517 
L 331.01367 278.577705 
L 331.009384 265.688195 
L 330.993004 267.299384 
L 329.117254 268.910573 
L 322.649396 268.910573 
L 322.535646 272.13295 
L 322.518402 273.744139 
L 322.168843 275.355328 
L 314.470136 275.355328 
L 314.464438 276.966517 
L 314.132941 278.577705 
L 312.89488 280.188894 
L 312.861301 283.411272 
L 312.472261 283.411272 
L 312.409455 285.022461 
L 310.511552 285.022461 
L 308.119495 286.633649 
L 307.666431 286.633649 
L 307.635716 288.244838 
L 307.361606 289.856027 
L 301.032188 289.856027 
L 300.086225 291.467216 
L 299.563857 291.467216 
L 298.036597 293.078405 
L 297.693173 293.078405 
L 296.023513 294.689594 
L 295.636387 294.689594 
L 295.239798 296.300782 
L 295.239593 297.911971 
L 294.653741 297.911971 
L 292.26108 299.52316 
L 292.056245 297.911971 
L 291.319207 297.911971 
L 291.209018 299.52316 
L 290.673877 301.134349 
L 288.028552 301.134349 
L 287.21336 299.52316 
L 282.617998 299.52316 
L 282.579289 301.134349 
L 282.0416 301.134349 
L 281.230332 302.745538 
L 279.555428 297.911971 
L 274.818799 297.911971 
L 273.765065 299.52316 
L 269.97162 299.52316 
L 269.674296 301.134349 
L 269.182504 301.134349 
L 269.168039 302.745538 
L 268.401885 302.745538 
L 268.400648 304.356726 
L 262.676596 304.356726 
L 262.656757 305.967915 
L 249.687546 305.967915 
L 249.687286 307.579104 
L 247.367099 307.579104 
L 247.277157 309.190293 
L 247.172788 309.190293 
L 246.607368 310.801482 
L 244.932799 310.801482 
L 244.923838 312.41267 
L 244.677337 312.41267 
L 244.663476 314.023859 
L 244.027536 314.023859 
L 243.896188 315.635048 
L 243.139628 315.635048 
L 243.101792 317.246237 
L 242.422205 318.857426 
L 237.057715 318.857426 
L 237.057501 320.468615 
L 231.167128 320.468615 
L 231.128855 322.079803 
L 228.228514 322.079803 
L 228.225382 317.246237 
L 223.943147 317.246237 
L 222.151482 318.857426 
L 212.817874 318.857426 
L 210.390193 320.468615 
L 207.872571 320.468615 
L 207.293059 322.079803 
L 205.728419 323.690992 
L 205.395918 323.690992 
L 205.39537 326.91337 
L 203.122129 326.91337 
L 201.246769 328.524559 
L 198.074539 328.524559 
L 198.074056 330.135747 
L 190.298405 330.135747 
L 186.786981 331.746936 
L 183.701477 331.746936 
L 183.637406 333.358125 
L 180.715545 333.358125 
L 180.447979 334.969314 
L 180.415823 336.580503 
L 180.058269 338.191691 
L 180.057163 341.414069 
L 163.740542 341.414069 
L 163.681464 343.025258 
L 161.194074 343.025258 
L 155.488242 344.636447 
L 147.786171 344.636447 
L 147.545601 346.247635 
L 147.538852 347.858824 
L 143.042654 347.858824 
L 143.042496 349.470013 
L 142.849951 349.470013 
L 142.594498 351.081202 
L 142.057433 352.692391 
L 141.180672 352.692391 
L 140.201725 354.30358 
L 139.593311 354.30358 
L 139.384711 355.914768 
L 138.040542 357.525957 
L 134.793449 357.525957 
L 134.793124 359.137146 
L 131.570192 359.137146 
L 130.621217 360.748335 
L 130.568898 362.359524 
L 129.768375 362.359524 
L 129.273301 363.970712 
L 129.216919 365.581901 
L 128.59575 367.19309 
L 128.570111 368.804279 
L 117.812813 368.804279 
L 117.737039 370.415468 
L 116.228418 370.415468 
L 114.68726 372.026656 
L 113.195429 372.026656 
L 112.15575 373.637845 
L 110.758229 373.637845 
L 110.54791 375.249034 
L 110.524622 375.249034 
L 110.464578 376.860223 
L 109.632662 376.860223 
L 109.091459 378.471412 
L 98.449315 378.471412 
L 97.03058 380.082601 
L 92.415584 380.082601 
L 92.415426 381.693789 
L 89.680717 381.693789 
L 88.947965 383.304978 
L 88.385771 383.304978 
L 87.601183 384.916167 
L 83.567085 384.916167 
L 83.140617 386.527356 
L 80.709572 386.527356 
L 80.358627 388.138545 
L 78.793727 388.138545 
L 78.623762 389.749733 
L 74.439315 391.360922 
L 73.163864 391.360922 
L 72.329261 392.972111 
L 72.329261 392.972111 
" clip-path="url(#p171975126e)" style="fill: none; stroke: #2ca02c; stroke-opacity: 0.8; stroke-width: 1.5; stroke-linecap: square"/>
   </g>
   <g id="patch_3">
    <path d="M 46.965625 413.998125 
L 46.965625 22.318125 
" style="fill: none; stroke: #000000; stroke-width: 0.8; stroke-linejoin: miter; stroke-linecap: square"/>
   </g>
   <g id="patch_4">
    <path d="M 604.965625 413.998125 
L 604.965625 22.318125 
" style="fill: none; stroke: #000000; stroke-width: 0.8; stroke-linejoin: miter; stroke-linecap: square"/>
   </g>
   <g id="patch_5">
    <path d="M 46.965625 413.998125 
L 604.965625 413.998125 
" style="fill: none; stroke: #000000; stroke-width: 0.8; stroke-linejoin: miter; stroke-linecap: square"/>
   </g>
   <g id="patch_6">
    <path d="M 46.965625 22.318125 
L 604.965625 22.318125 
" style="fill: none; stroke: #000000; stroke-width: 0.8; stroke-linejoin: miter; stroke-linecap: square"/>
   </g>
   <g id="text_31">
    <!-- 14 -->
    <g transform="translate(579.601989 375.249034)scale(0.1 -0.1)">
     <use xlink:href="#DejaVuSans-31"/>
     <use xlink:href="#DejaVuSans-34" x="63.623047"/>
    </g>
   </g>
   <g id="text_32">
    <!-- 208 -->
    <g transform="translate(579.601989 62.678405)scale(0.1 -0.1)">
     <use xlink:href="#DejaVuSans-32"/>
     <use xlink:href="#DejaVuSans-30" x="63.623047"/>
     <use xlink:href="#DejaVuSans-38" x="127.246094"/>
    </g>
   </g>
   <g id="text_33">
    <!-- 116 -->
    <g transform="translate(579.601989 210.907775)scale(0.1 -0.1)">
     <use xlink:href="#DejaVuSans-31"/>
     <use xlink:href="#DejaVuSans-31" x="63.623047"/>
     <use xlink:href="#DejaVuSans-36" x="127.246094"/>
    </g>
   </g>
   <g id="text_34">
    <!-- Peers over time -->
    <g transform="translate(278.839375 16.318125)scale(0.12 -0.12)">
     <defs>
      <path id="DejaVuSans-50" d="M 1259 4147 
L 1259 2394 
L 2053 2394 
Q 2494 2394 2734 2622 
Q 2975 2850 2975 3272 
Q 2975 3691 2734 3919 
Q 2494 4147 2053 4147 
L 1259 4147 
z
M 628 4666 
L 2053 4666 
Q 2838 4666 3239 4311 
Q 3641 3956 3641 3272 
Q 3641 2581 3239 2228 
Q 2838 1875 2053 1875 
L 1259 1875 
L 1259 0 
L 628 0 
L 628 4666 
z
" transform="scale(0.015625)"/>
      <path id="DejaVuSans-72" d="M 2631 2963 
Q 2534 3019 2420 3045 
Q 2306 3072 2169 3072 
Q 1681 3072 1420 2755 
Q 1159 2438 1159 1844 
L 1159 0 
L 581 0 
L 581 3500 
L 1159 3500 
L 1159 2956 
Q 1341 3275 1631 3429 
Q 1922 3584 2338 3584 
Q 2397 3584 2469 3576 
Q 2541 3569 2628 3553 
L 2631 2963 
z
" transform="scale(0.015625)"/>
      <path id="DejaVuSans-73" d="M 2834 3397 
L 2834 2853 
Q 2591 2978 2328 3040 
Q 2066 3103 1784 3103 
Q 1356 3103 1142 2972 
Q 928 2841 928 2578 
Q 928 2378 1081 2264 
Q 1234 2150 1697 2047 
L 1894 2003 
Q 2506 1872 2764 1633 
Q 3022 1394 3022 966 
Q 3022 478 2636 193 
Q 2250 -91 1575 -91 
Q 1294 -91 989 -36 
Q 684 19 347 128 
L 347 722 
Q 666 556 975 473 
Q 1284 391 1588 391 
Q 1994 391 2212 530 
Q 2431 669 2431 922 
Q 2431 1156 2273 1281 
Q 2116 1406 1581 1522 
L 1381 1569 
Q 847 1681 609 1914 
Q 372 2147 372 2553 
Q 372 3047 722 3315 
Q 1072 3584 1716 3584 
Q 2034 3584 2315 3537 
Q 2597 3491 2834 3397 
z
" transform="scale(0.015625)"/>
      <path id="DejaVuSans-20" transform="scale(0.015625)"/>
      <path id="DejaVuSans-76" d="M 191 3500 
L 800 3500 
L 1894 563 
L 2988 3500 
L 3597 3500 
L 2284 0 
L 1503 0 
L 191 3500 
z
" transform="scale(0.015625)"/>
      <path id="DejaVuSans-69" d="M 603 3500 
L 1178 3500 
L 1178 0 
L 603 0 
L 603 3500 
z
M 603 4863 
L 1178 4863 
L 1178 4134 
L 603 4134 
L 603 4863 
z
" transform="scale(0.015625)"/>
      <path id="DejaVuSans-6d" d="M 3328 2828 
Q 3544 3216 3844 3400 
Q 4144 3584 4550 3584 
Q 5097 3584 5394 3201 
Q 5691 2819 5691 2113 
L 5691 0 
L 5113 0 
L 5113 2094 
Q 5113 2597 4934 2840 
Q 4756 3084 4391 3084 
Q 3944 3084 3684 2787 
Q 3425 2491 3425 1978 
L 3425 0 
L 2847 0 
L 2847 2094 
Q 2847 2600 2669 2842 
Q 2491 3084 2119 3084 
Q 1678 3084 1418 2786 
Q 1159 2488 1159 1978 
L 1159 0 
L 581 0 
L 581 3500 
L 1159 3500 
L 1159 2956 
Q 1356 3278 1631 3431 
Q 1906 3584 2284 3584 
Q 2666 3584 2933 3390 
Q 3200 3197 3328 2828 
z
" transform="scale(0.015625)"/>
     </defs>
     <use xlink:href="#DejaVuSans-50"/>
     <use xlink:href="#DejaVuSans-65" x="56.677734"/>
     <use xlink:href="#DejaVuSans-65" x="118.201172"/>
     <use xlink:href="#DejaVuSans-72" x="179.724609"/>
     <use xlink:href="#DejaVuSans-73" x="220.837891"/>
     <use xlink:href="#DejaVuSans-20" x="272.9375"/>
     <use xlink:href="#DejaVuSans-6f" x="304.724609"/>
     <use xlink:href="#DejaVuSans-76" x="365.90625"/>
     <use xlink:href="#DejaVuSans-65" x="425.085938"/>
     <use xlink:href="#DejaVuSans-72" x="486.609375"/>
     <use xlink:href="#DejaVuSans-20" x="527.722656"/>
     <use xlink:href="#DejaVuSans-74" x="559.509766"/>
     <use xlink:href="#DejaVuSans-69" x="598.71875"/>
     <use xlink:href="#DejaVuSans-6d" x="626.501953"/>
     <use xlink:href="#DejaVuSans-65" x="723.914062"/>
    </g>
   </g>
   <g id="legend_1">
    <g id="patch_7">
     <path d="M 53.965625 74.3525 
L 185.24375 74.3525 
Q 187.24375 74.3525 187.24375 72.3525 
L 187.24375 29.318125 
Q 187.24375 27.318125 185.24375 27.318125 
L 53.965625 27.318125 
Q 51.965625 27.318125 51.965625 29.318125 
L 51.965625 72.3525 
Q 51.965625 74.3525 53.965625 74.3525 
z
" style="fill: #ffffff; opacity: 0.8; stroke: #cccccc; stroke-linejoin: miter"/>
    </g>
    <g id="line2d_60">
     <path d="M 55.965625 35.416562 
L 65.965625 35.416562 
L 75.965625 35.416562 
" style="fill: none; stroke: #1f77b4; stroke-opacity: 0.8; stroke-width: 1.5; stroke-linecap: square"/>
    </g>
    <g id="text_35">
     <!-- eBGP routers -->
     <g transform="translate(83.965625 38.916562)scale(0.1 -0.1)">
      <defs>
       <path id="DejaVuSans-42" d="M 1259 2228 
L 1259 519 
L 2272 519 
Q 2781 519 3026 730 
Q 3272 941 3272 1375 
Q 3272 1813 3026 2020 
Q 2781 2228 2272 2228 
L 1259 2228 
z
M 1259 4147 
L 1259 2741 
L 2194 2741 
Q 2656 2741 2882 2914 
Q 3109 3088 3109 3444 
Q 3109 3797 2882 3972 
Q 2656 4147 2194 4147 
L 1259 4147 
z
M 628 4666 
L 2241 4666 
Q 2963 4666 3353 4366 
Q 3744 4066 3744 3513 
Q 3744 3084 3544 2831 
Q 3344 2578 2956 2516 
Q 3422 2416 3680 2098 
Q 3938 1781 3938 1306 
Q 3938 681 3513 340 
Q 3088 0 2303 0 
L 628 0 
L 628 4666 
z
" transform="scale(0.015625)"/>
       <path id="DejaVuSans-47" d="M 3809 666 
L 3809 1919 
L 2778 1919 
L 2778 2438 
L 4434 2438 
L 4434 434 
Q 4069 175 3628 42 
Q 3188 -91 2688 -91 
Q 1594 -91 976 548 
Q 359 1188 359 2328 
Q 359 3472 976 4111 
Q 1594 4750 2688 4750 
Q 3144 4750 3555 4637 
Q 3966 4525 4313 4306 
L 4313 3634 
Q 3963 3931 3569 4081 
Q 3175 4231 2741 4231 
Q 1884 4231 1454 3753 
Q 1025 3275 1025 2328 
Q 1025 1384 1454 906 
Q 1884 428 2741 428 
Q 3075 428 3337 486 
Q 3600 544 3809 666 
z
" transform="scale(0.015625)"/>
      </defs>
      <use xlink:href="#DejaVuSans-65"/>
      <use xlink:href="#DejaVuSans-42" x="61.523438"/>
      <use xlink:href="#DejaVuSans-47" x="128.376953"/>
      <use xlink:href="#DejaVuSans-50" x="205.867188"/>
      <use xlink:href="#DejaVuSans-20" x="266.169922"/>
      <use xlink:href="#DejaVuSans-72" x="297.957031"/>
      <use xlink:href="#DejaVuSans-6f" x="336.820312"/>
      <use xlink:href="#DejaVuSans-75" x="398.001953"/>
      <use xlink:href="#DejaVuSans-74" x="461.380859"/>
      <use xlink:href="#DejaVuSans-65" x="500.589844"/>
      <use xlink:href="#DejaVuSans-72" x="562.113281"/>
      <use xlink:href="#DejaVuSans-73" x="603.226562"/>
     </g>
    </g>
    <g id="line2d_61">
     <path d="M 55.965625 50.094687 
L 65.965625 50.094687 
L 75.965625 50.094687 
" style="fill: none; stroke: #ff7f0e; stroke-opacity: 0.8; stroke-width: 1.5; stroke-linecap: square"/>
    </g>
    <g id="text_36">
     <!-- total eBGP peerings -->
     <g transform="translate(83.965625 53.594687)scale(0.1 -0.1)">
      <defs>
       <path id="DejaVuSans-6c" d="M 603 4863 
L 1178 4863 
L 1178 0 
L 603 0 
L 603 4863 
z
" transform="scale(0.015625)"/>
       <path id="DejaVuSans-70" d="M 1159 525 
L 1159 -1331 
L 581 -1331 
L 581 3500 
L 1159 3500 
L 1159 2969 
Q 1341 3281 1617 3432 
Q 1894 3584 2278 3584 
Q 2916 3584 3314 3078 
Q 3713 2572 3713 1747 
Q 3713 922 3314 415 
Q 2916 -91 2278 -91 
Q 1894 -91 1617 61 
Q 1341 213 1159 525 
z
M 3116 1747 
Q 3116 2381 2855 2742 
Q 2594 3103 2138 3103 
Q 1681 3103 1420 2742 
Q 1159 2381 1159 1747 
Q 1159 1113 1420 752 
Q 1681 391 2138 391 
Q 2594 391 2855 752 
Q 3116 1113 3116 1747 
z
" transform="scale(0.015625)"/>
       <path id="DejaVuSans-67" d="M 2906 1791 
Q 2906 2416 2648 2759 
Q 2391 3103 1925 3103 
Q 1463 3103 1205 2759 
Q 947 2416 947 1791 
Q 947 1169 1205 825 
Q 1463 481 1925 481 
Q 2391 481 2648 825 
Q 2906 1169 2906 1791 
z
M 3481 434 
Q 3481 -459 3084 -895 
Q 2688 -1331 1869 -1331 
Q 1566 -1331 1297 -1286 
Q 1028 -1241 775 -1147 
L 775 -588 
Q 1028 -725 1275 -790 
Q 1522 -856 1778 -856 
Q 2344 -856 2625 -561 
Q 2906 -266 2906 331 
L 2906 616 
Q 2728 306 2450 153 
Q 2172 0 1784 0 
Q 1141 0 747 490 
Q 353 981 353 1791 
Q 353 2603 747 3093 
Q 1141 3584 1784 3584 
Q 2172 3584 2450 3431 
Q 2728 3278 2906 2969 
L 2906 3500 
L 3481 3500 
L 3481 434 
z
" transform="scale(0.015625)"/>
      </defs>
      <use xlink:href="#DejaVuSans-74"/>
      <use xlink:href="#DejaVuSans-6f" x="39.208984"/>
      <use xlink:href="#DejaVuSans-74" x="100.390625"/>
      <use xlink:href="#DejaVuSans-61" x="139.599609"/>
      <use xlink:href="#DejaVuSans-6c" x="200.878906"/>
      <use xlink:href="#DejaVuSans-20" x="228.662109"/>
      <use xlink:href="#DejaVuSans-65" x="260.449219"/>
      <use xlink:href="#DejaVuSans-42" x="321.972656"/>
      <use xlink:href="#DejaVuSans-47" x="388.826172"/>
      <use xlink:href="#DejaVuSans-50" x="466.316406"/>
      <use xlink:href="#DejaVuSans-20" x="526.619141"/>
      <use xlink:href="#DejaVuSans-70" x="558.40625"/>
      <use xlink:href="#DejaVuSans-65" x="621.882812"/>
      <use xlink:href="#DejaVuSans-65" x="683.40625"/>
      <use xlink:href="#DejaVuSans-72" x="744.929688"/>
      <use xlink:href="#DejaVuSans-69" x="786.042969"/>
      <use xlink:href="#DejaVuSans-6e" x="813.826172"/>
      <use xlink:href="#DejaVuSans-67" x="877.205078"/>
      <use xlink:href="#DejaVuSans-73" x="940.681641"/>
     </g>
    </g>
    <g id="line2d_62">
     <path d="M 55.965625 64.772812 
L 65.965625 64.772812 
L 75.965625 64.772812 
" style="fill: none; stroke: #2ca02c; stroke-opacity: 0.8; stroke-width: 1.5; stroke-linecap: square"/>
    </g>
    <g id="text_37">
     <!-- unique eBGP peers -->
     <g transform="translate(83.965625 68.272812)scale(0.1 -0.1)">
      <defs>
       <path id="DejaVuSans-71" d="M 947 1747 
Q 947 1113 1208 752 
Q 1469 391 1925 391 
Q 2381 391 2643 752 
Q 2906 1113 2906 1747 
Q 2906 2381 2643 2742 
Q 2381 3103 1925 3103 
Q 1469 3103 1208 2742 
Q 947 2381 947 1747 
z
M 2906 525 
Q 2725 213 2448 61 
Q 2172 -91 1784 -91 
Q 1150 -91 751 415 
Q 353 922 353 1747 
Q 353 2572 751 3078 
Q 1150 3584 1784 3584 
Q 2172 3584 2448 3432 
Q 2725 3281 2906 2969 
L 2906 3500 
L 3481 3500 
L 3481 -1331 
L 2906 -1331 
L 2906 525 
z
" transform="scale(0.015625)"/>
      </defs>
      <use xlink:href="#DejaVuSans-75"/>
      <use xlink:href="#DejaVuSans-6e" x="63.378906"/>
      <use xlink:href="#DejaVuSans-69" x="126.757812"/>
      <use xlink:href="#DejaVuSans-71" x="154.541016"/>
      <use xlink:href="#DejaVuSans-75" x="218.017578"/>
      <use xlink:href="#DejaVuSans-65" x="281.396484"/>
      <use xlink:href="#DejaVuSans-20" x="342.919922"/>
      <use xlink:href="#DejaVuSans-65" x="374.707031"/>
      <use xlink:href="#DejaVuSans-42" x="436.230469"/>
      <use xlink:href="#DejaVuSans-47" x="503.083984"/>
      <use xlink:href="#DejaVuSans-50" x="580.574219"/>
      <use xlink:href="#DejaVuSans-20" x="640.876953"/>
      <use xlink:href="#DejaVuSans-70" x="672.664062"/>
      <use xlink:href="#DejaVuSans-65" x="736.140625"/>
      <use xlink:href="#DejaVuSans-65" x="797.664062"/>
      <use xlink:href="#DejaVuSans-72" x="859.1875"/>
      <use xlink:href="#DejaVuSans-73" x="900.300781"/>
     </g>
    </g>
   </g>
  </g>
 </g>
 <defs>
  <clipPath id="p171975126e">
   <rect x="46.965625" y="22.318125" width="558" height="391.68"/>
  </clipPath>
 </defs>
</svg>
