<?xml version="1.0" encoding="utf-8" standalone="no"?>
<!DOCTYPE svg PUBLIC "-//W3C//DTD SVG 1.1//EN"
  "http://www.w3.org/Graphics/SVG/1.1/DTD/svg11.dtd">
<svg xmlns:xlink="http://www.w3.org/1999/xlink" width="612.165625pt" height="503.394375pt" viewBox="0 0 612.165625 503.394375" xmlns="http://www.w3.org/2000/svg" version="1.1">
 <metadata>
  <rdf:RDF xmlns:dc="http://purl.org/dc/elements/1.1/" xmlns:cc="http://creativecommons.org/ns#" xmlns:rdf="http://www.w3.org/1999/02/22-rdf-syntax-ns#">
   <cc:Work>
    <dc:type rdf:resource="http://purl.org/dc/dcmitype/StillImage"/>
    <dc:format>image/svg+xml</dc:format>
    <dc:creator>
     <cc:Agent>
      <dc:title>Matplotlib v3.10.1+dfsg1, https://matplotlib.org/</dc:title>
     </cc:Agent>
    </dc:creator>
   </cc:Work>
  </rdf:RDF>
 </metadata>
 <defs>
  <style type="text/css">*{stroke-linejoin: round; stroke-linecap: butt}</style>
 </defs>
 <g id="figure_1">
  <g id="patch_1">
   <path d="M 0 503.394375 
L 612.165625 503.394375 
L 612.165625 0 
L 0 0 
z
" style="fill: #ffffff"/>
  </g>
  <g id="axes_1">
   <g id="patch_2">
    <path d="M 46.965625 465.838125 
L 604.965625 465.838125 
L 604.965625 22.318125 
L 46.965625 22.318125 
z
" style="fill: #ffffff"/>
   </g>
   <g id="matplotlib.axis_1">
    <g id="xtick_1">
     <g id="line2d_1">
      <path d="M 127.337193 465.838125 
L 127.337193 22.318125 
" clip-path="url(#pda0fe21df8)" style="fill: none; stroke: #b0b0b0; stroke-opacity: 0.6; stroke-width: 0.8; stroke-linecap: square"/>
     </g>
     <g id="line2d_2">
      <defs>
       <path id="m4989ca4dfe" d="M 0 0 
L 0 3.5 
" style="stroke: #000000; stroke-width: 0.8"/>
      </defs>
      <g>
       <use xlink:href="#m4989ca4dfe" x="127.337193" y="465.838125" style="stroke: #000000; stroke-width: 0.8"/>
      </g>
     </g>
     <g id="text_1">
      <!-- 2021 -->
      <g transform="translate(114.612193 480.436562) scale(0.1 -0.1)">
       <defs>
        <path id="DejaVuSans-32" d="M 1228 531 
L 3431 531 
L 3431 0 
L 469 0 
L 469 531 
Q 828 903 1448 1529 
Q 2069 2156 2228 2338 
Q 2531 2678 2651 2914 
Q 2772 3150 2772 3378 
Q 2772 3750 2511 3984 
Q 2250 4219 1831 4219 
Q 1534 4219 1204 4116 
Q 875 4013 500 3803 
L 500 4441 
Q 881 4594 1212 4672 
Q 1544 4750 1819 4750 
Q 2544 4750 2975 4387 
Q 3406 4025 3406 3419 
Q 3406 3131 3298 2873 
Q 3191 2616 2906 2266 
Q 2828 2175 2409 1742 
Q 1991 1309 1228 531 
z
" transform="scale(0.015625)"/>
        <path id="DejaVuSans-30" d="M 2034 4250 
Q 1547 4250 1301 3770 
Q 1056 3291 1056 2328 
Q 1056 1369 1301 889 
Q 1547 409 2034 409 
Q 2525 409 2770 889 
Q 3016 1369 3016 2328 
Q 3016 3291 2770 3770 
Q 2525 4250 2034 4250 
z
M 2034 4750 
Q 2819 4750 3233 4129 
Q 3647 3509 3647 2328 
Q 3647 1150 3233 529 
Q 2819 -91 2034 -91 
Q 1250 -91 836 529 
Q 422 1150 422 2328 
Q 422 3509 836 4129 
Q 1250 4750 2034 4750 
z
" transform="scale(0.015625)"/>
        <path id="DejaVuSans-31" d="M 794 531 
L 1825 531 
L 1825 4091 
L 703 3866 
L 703 4441 
L 1819 4666 
L 2450 4666 
L 2450 531 
L 3481 531 
L 3481 0 
L 794 0 
L 794 531 
z
" transform="scale(0.015625)"/>
       </defs>
       <use xlink:href="#DejaVuSans-32"/>
       <use xlink:href="#DejaVuSans-30" transform="translate(63.623047 0)"/>
       <use xlink:href="#DejaVuSans-32" transform="translate(127.246094 0)"/>
       <use xlink:href="#DejaVuSans-31" transform="translate(190.869141 0)"/>
      </g>
     </g>
    </g>
    <g id="xtick_2">
     <g id="line2d_3">
      <path d="M 227.265235 465.838125 
L 227.265235 22.318125 
" clip-path="url(#pda0fe21df8)" style="fill: none; stroke: #b0b0b0; stroke-opacity: 0.6; stroke-width: 0.8; stroke-linecap: square"/>
     </g>
     <g id="line2d_4">
      <g>
       <use xlink:href="#m4989ca4dfe" x="227.265235" y="465.838125" style="stroke: #000000; stroke-width: 0.8"/>
      </g>
     </g>
     <g id="text_2">
      <!-- 2022 -->
      <g transform="translate(214.540235 480.436562) scale(0.1 -0.1)">
       <use xlink:href="#DejaVuSans-32"/>
       <use xlink:href="#DejaVuSans-30" transform="translate(63.623047 0)"/>
       <use xlink:href="#DejaVuSans-32" transform="translate(127.246094 0)"/>
       <use xlink:href="#DejaVuSans-32" transform="translate(190.869141 0)"/>
      </g>
     </g>
    </g>
    <g id="xtick_3">
     <g id="line2d_5">
      <path d="M 327.193277 465.838125 
L 327.193277 22.318125 
" clip-path="url(#pda0fe21df8)" style="fill: none; stroke: #b0b0b0; stroke-opacity: 0.6; stroke-width: 0.8; stroke-linecap: square"/>
     </g>
     <g id="line2d_6">
      <g>
       <use xlink:href="#m4989ca4dfe" x="327.193277" y="465.838125" style="stroke: #000000; stroke-width: 0.8"/>
      </g>
     </g>
     <g id="text_3">
      <!-- 2023 -->
      <g transform="translate(314.468277 480.436562) scale(0.1 -0.1)">
       <defs>
        <path id="DejaVuSans-33" d="M 2597 2516 
Q 3050 2419 3304 2112 
Q 3559 1806 3559 1356 
Q 3559 666 3084 287 
Q 2609 -91 1734 -91 
Q 1441 -91 1130 -33 
Q 819 25 488 141 
L 488 750 
Q 750 597 1062 519 
Q 1375 441 1716 441 
Q 2309 441 2620 675 
Q 2931 909 2931 1356 
Q 2931 1769 2642 2001 
Q 2353 2234 1838 2234 
L 1294 2234 
L 1294 2753 
L 1863 2753 
Q 2328 2753 2575 2939 
Q 2822 3125 2822 3475 
Q 2822 3834 2567 4026 
Q 2313 4219 1838 4219 
Q 1578 4219 1281 4162 
Q 984 4106 628 3988 
L 628 4550 
Q 988 4650 1302 4700 
Q 1616 4750 1894 4750 
Q 2613 4750 3031 4423 
Q 3450 4097 3450 3541 
Q 3450 3153 3228 2886 
Q 3006 2619 2597 2516 
z
" transform="scale(0.015625)"/>
       </defs>
       <use xlink:href="#DejaVuSans-32"/>
       <use xlink:href="#DejaVuSans-30" transform="translate(63.623047 0)"/>
       <use xlink:href="#DejaVuSans-32" transform="translate(127.246094 0)"/>
       <use xlink:href="#DejaVuSans-33" transform="translate(190.869141 0)"/>
      </g>
     </g>
    </g>
    <g id="xtick_4">
     <g id="line2d_7">
      <path d="M 427.121319 465.838125 
L 427.121319 22.318125 
" clip-path="url(#pda0fe21df8)" style="fill: none; stroke: #b0b0b0; stroke-opacity: 0.6; stroke-width: 0.8; stroke-linecap: square"/>
     </g>
     <g id="line2d_8">
      <g>
       <use xlink:href="#m4989ca4dfe" x="427.121319" y="465.838125" style="stroke: #000000; stroke-width: 0.8"/>
      </g>
     </g>
     <g id="text_4">
      <!-- 2024 -->
      <g transform="translate(414.396319 480.436562) scale(0.1 -0.1)">
       <defs>
        <path id="DejaVuSans-34" d="M 2419 4116 
L 825 1625 
L 2419 1625 
L 2419 4116 
z
M 2253 4666 
L 3047 4666 
L 3047 1625 
L 3713 1625 
L 3713 1100 
L 3047 1100 
L 3047 0 
L 2419 0 
L 2419 1100 
L 313 1100 
L 313 1709 
L 2253 4666 
z
" transform="scale(0.015625)"/>
       </defs>
       <use xlink:href="#DejaVuSans-32"/>
       <use xlink:href="#DejaVuSans-30" transform="translate(63.623047 0)"/>
       <use xlink:href="#DejaVuSans-32" transform="translate(127.246094 0)"/>
       <use xlink:href="#DejaVuSans-34" transform="translate(190.869141 0)"/>
      </g>
     </g>
    </g>
    <g id="xtick_5">
     <g id="line2d_9">
      <path d="M 527.323136 465.838125 
L 527.323136 22.318125 
" clip-path="url(#pda0fe21df8)" style="fill: none; stroke: #b0b0b0; stroke-opacity: 0.6; stroke-width: 0.8; stroke-linecap: square"/>
     </g>
     <g id="line2d_10">
      <g>
       <use xlink:href="#m4989ca4dfe" x="527.323136" y="465.838125" style="stroke: #000000; stroke-width: 0.8"/>
      </g>
     </g>
     <g id="text_5">
      <!-- 2025 -->
      <g transform="translate(514.598136 480.436562) scale(0.1 -0.1)">
       <defs>
        <path id="DejaVuSans-35" d="M 691 4666 
L 3169 4666 
L 3169 4134 
L 1269 4134 
L 1269 2991 
Q 1406 3038 1543 3061 
Q 1681 3084 1819 3084 
Q 2600 3084 3056 2656 
Q 3513 2228 3513 1497 
Q 3513 744 3044 326 
Q 2575 -91 1722 -91 
Q 1428 -91 1123 -41 
Q 819 9 494 109 
L 494 744 
Q 775 591 1075 516 
Q 1375 441 1709 441 
Q 2250 441 2565 725 
Q 2881 1009 2881 1497 
Q 2881 1984 2565 2268 
Q 2250 2553 1709 2553 
Q 1456 2553 1204 2497 
Q 953 2441 691 2322 
L 691 4666 
z
" transform="scale(0.015625)"/>
       </defs>
       <use xlink:href="#DejaVuSans-32"/>
       <use xlink:href="#DejaVuSans-30" transform="translate(63.623047 0)"/>
       <use xlink:href="#DejaVuSans-32" transform="translate(127.246094 0)"/>
       <use xlink:href="#DejaVuSans-35" transform="translate(190.869141 0)"/>
      </g>
     </g>
    </g>
    <g id="text_6">
     <!-- Date -->
     <g transform="translate(314.014844 494.114687) scale(0.1 -0.1)">
      <defs>
       <path id="DejaVuSans-44" d="M 1259 4147 
L 1259 519 
L 2022 519 
Q 2988 519 3436 956 
Q 3884 1394 3884 2338 
Q 3884 3275 3436 3711 
Q 2988 4147 2022 4147 
L 1259 4147 
z
M 628 4666 
L 1925 4666 
Q 3281 4666 3915 4102 
Q 4550 3538 4550 2338 
Q 4550 1131 3912 565 
Q 3275 0 1925 0 
L 628 0 
L 628 4666 
z
" transform="scale(0.015625)"/>
       <path id="DejaVuSans-61" d="M 2194 1759 
Q 1497 1759 1228 1600 
Q 959 1441 959 1056 
Q 959 750 1161 570 
Q 1363 391 1709 391 
Q 2188 391 2477 730 
Q 2766 1069 2766 1631 
L 2766 1759 
L 2194 1759 
z
M 3341 1997 
L 3341 0 
L 2766 0 
L 2766 531 
Q 2569 213 2275 61 
Q 1981 -91 1556 -91 
Q 1019 -91 701 211 
Q 384 513 384 1019 
Q 384 1609 779 1909 
Q 1175 2209 1959 2209 
L 2766 2209 
L 2766 2266 
Q 2766 2663 2505 2880 
Q 2244 3097 1772 3097 
Q 1472 3097 1187 3025 
Q 903 2953 641 2809 
L 641 3341 
Q 956 3463 1253 3523 
Q 1550 3584 1831 3584 
Q 2591 3584 2966 3190 
Q 3341 2797 3341 1997 
z
" transform="scale(0.015625)"/>
       <path id="DejaVuSans-74" d="M 1172 4494 
L 1172 3500 
L 2356 3500 
L 2356 3053 
L 1172 3053 
L 1172 1153 
Q 1172 725 1289 603 
Q 1406 481 1766 481 
L 2356 481 
L 2356 0 
L 1766 0 
Q 1100 0 847 248 
Q 594 497 594 1153 
L 594 3053 
L 172 3053 
L 172 3500 
L 594 3500 
L 594 4494 
L 1172 4494 
z
" transform="scale(0.015625)"/>
       <path id="DejaVuSans-65" d="M 3597 1894 
L 3597 1613 
L 953 1613 
Q 991 1019 1311 708 
Q 1631 397 2203 397 
Q 2534 397 2845 478 
Q 3156 559 3463 722 
L 3463 178 
Q 3153 47 2828 -22 
Q 2503 -91 2169 -91 
Q 1331 -91 842 396 
Q 353 884 353 1716 
Q 353 2575 817 3079 
Q 1281 3584 2069 3584 
Q 2775 3584 3186 3129 
Q 3597 2675 3597 1894 
z
M 3022 2063 
Q 3016 2534 2758 2815 
Q 2500 3097 2075 3097 
Q 1594 3097 1305 2825 
Q 1016 2553 972 2059 
L 3022 2063 
z
" transform="scale(0.015625)"/>
      </defs>
      <use xlink:href="#DejaVuSans-44"/>
      <use xlink:href="#DejaVuSans-61" transform="translate(77.001953 0)"/>
      <use xlink:href="#DejaVuSans-74" transform="translate(138.28125 0)"/>
      <use xlink:href="#DejaVuSans-65" transform="translate(177.490234 0)"/>
     </g>
    </g>
   </g>
   <g id="matplotlib.axis_2">
    <g id="ytick_1">
     <g id="line2d_11">
      <path d="M 46.965625 448.537699 
L 604.965625 448.537699 
" clip-path="url(#pda0fe21df8)" style="fill: none; stroke: #b0b0b0; stroke-opacity: 0.6; stroke-width: 0.8; stroke-linecap: square"/>
     </g>
     <g id="line2d_12">
      <defs>
       <path id="mc11dc46687" d="M 0 0 
L -3.5 0 
" style="stroke: #000000; stroke-width: 0.8"/>
      </defs>
      <g>
       <use xlink:href="#mc11dc46687" x="46.965625" y="448.537699" style="stroke: #000000; stroke-width: 0.8"/>
      </g>
     </g>
     <g id="text_7">
      <!-- 0 -->
      <g transform="translate(33.603125 452.336918) scale(0.1 -0.1)">
       <use xlink:href="#DejaVuSans-30"/>
      </g>
     </g>
    </g>
    <g id="ytick_2">
     <g id="line2d_13">
      <path d="M 46.965625 377.048338 
L 604.965625 377.048338 
" clip-path="url(#pda0fe21df8)" style="fill: none; stroke: #b0b0b0; stroke-opacity: 0.6; stroke-width: 0.8; stroke-linecap: square"/>
     </g>
     <g id="line2d_14">
      <g>
       <use xlink:href="#mc11dc46687" x="46.965625" y="377.048338" style="stroke: #000000; stroke-width: 0.8"/>
      </g>
     </g>
     <g id="text_8">
      <!-- 50 -->
      <g transform="translate(27.240625 380.847557) scale(0.1 -0.1)">
       <use xlink:href="#DejaVuSans-35"/>
       <use xlink:href="#DejaVuSans-30" transform="translate(63.623047 0)"/>
      </g>
     </g>
    </g>
    <g id="ytick_3">
     <g id="line2d_15">
      <path d="M 46.965625 305.558976 
L 604.965625 305.558976 
" clip-path="url(#pda0fe21df8)" style="fill: none; stroke: #b0b0b0; stroke-opacity: 0.6; stroke-width: 0.8; stroke-linecap: square"/>
     </g>
     <g id="line2d_16">
      <g>
       <use xlink:href="#mc11dc46687" x="46.965625" y="305.558976" style="stroke: #000000; stroke-width: 0.8"/>
      </g>
     </g>
     <g id="text_9">
      <!-- 100 -->
      <g transform="translate(20.878125 309.358195) scale(0.1 -0.1)">
       <use xlink:href="#DejaVuSans-31"/>
       <use xlink:href="#DejaVuSans-30" transform="translate(63.623047 0)"/>
       <use xlink:href="#DejaVuSans-30" transform="translate(127.246094 0)"/>
      </g>
     </g>
    </g>
    <g id="ytick_4">
     <g id="line2d_17">
      <path d="M 46.965625 234.069614 
L 604.965625 234.069614 
" clip-path="url(#pda0fe21df8)" style="fill: none; stroke: #b0b0b0; stroke-opacity: 0.6; stroke-width: 0.8; stroke-linecap: square"/>
     </g>
     <g id="line2d_18">
      <g>
       <use xlink:href="#mc11dc46687" x="46.965625" y="234.069614" style="stroke: #000000; stroke-width: 0.8"/>
      </g>
     </g>
     <g id="text_10">
      <!-- 150 -->
      <g transform="translate(20.878125 237.868833) scale(0.1 -0.1)">
       <use xlink:href="#DejaVuSans-31"/>
       <use xlink:href="#DejaVuSans-35" transform="translate(63.623047 0)"/>
       <use xlink:href="#DejaVuSans-30" transform="translate(127.246094 0)"/>
      </g>
     </g>
    </g>
    <g id="ytick_5">
     <g id="line2d_19">
      <path d="M 46.965625 162.580253 
L 604.965625 162.580253 
" clip-path="url(#pda0fe21df8)" style="fill: none; stroke: #b0b0b0; stroke-opacity: 0.6; stroke-width: 0.8; stroke-linecap: square"/>
     </g>
     <g id="line2d_20">
      <g>
       <use xlink:href="#mc11dc46687" x="46.965625" y="162.580253" style="stroke: #000000; stroke-width: 0.8"/>
      </g>
     </g>
     <g id="text_11">
      <!-- 200 -->
      <g transform="translate(20.878125 166.379471) scale(0.1 -0.1)">
       <use xlink:href="#DejaVuSans-32"/>
       <use xlink:href="#DejaVuSans-30" transform="translate(63.623047 0)"/>
       <use xlink:href="#DejaVuSans-30" transform="translate(127.246094 0)"/>
      </g>
     </g>
    </g>
    <g id="ytick_6">
     <g id="line2d_21">
      <path d="M 46.965625 91.090891 
L 604.965625 91.090891 
" clip-path="url(#pda0fe21df8)" style="fill: none; stroke: #b0b0b0; stroke-opacity: 0.6; stroke-width: 0.8; stroke-linecap: square"/>
     </g>
     <g id="line2d_22">
      <g>
       <use xlink:href="#mc11dc46687" x="46.965625" y="91.090891" style="stroke: #000000; stroke-width: 0.8"/>
      </g>
     </g>
     <g id="text_12">
      <!-- 250 -->
      <g transform="translate(20.878125 94.89011) scale(0.1 -0.1)">
       <use xlink:href="#DejaVuSans-32"/>
       <use xlink:href="#DejaVuSans-35" transform="translate(63.623047 0)"/>
       <use xlink:href="#DejaVuSans-30" transform="translate(127.246094 0)"/>
      </g>
     </g>
    </g>
    <g id="text_13">
     <!-- Count -->
     <g transform="translate(14.798437 258.926562) rotate(-90) scale(0.1 -0.1)">
      <defs>
       <path id="DejaVuSans-43" d="M 4122 4306 
L 4122 3641 
Q 3803 3938 3442 4084 
Q 3081 4231 2675 4231 
Q 1875 4231 1450 3742 
Q 1025 3253 1025 2328 
Q 1025 1406 1450 917 
Q 1875 428 2675 428 
Q 3081 428 3442 575 
Q 3803 722 4122 1019 
L 4122 359 
Q 3791 134 3420 21 
Q 3050 -91 2638 -91 
Q 1578 -91 968 557 
Q 359 1206 359 2328 
Q 359 3453 968 4101 
Q 1578 4750 2638 4750 
Q 3056 4750 3426 4639 
Q 3797 4528 4122 4306 
z
" transform="scale(0.015625)"/>
       <path id="DejaVuSans-6f" d="M 1959 3097 
Q 1497 3097 1228 2736 
Q 959 2375 959 1747 
Q 959 1119 1226 758 
Q 1494 397 1959 397 
Q 2419 397 2687 759 
Q 2956 1122 2956 1747 
Q 2956 2369 2687 2733 
Q 2419 3097 1959 3097 
z
M 1959 3584 
Q 2709 3584 3137 3096 
Q 3566 2609 3566 1747 
Q 3566 888 3137 398 
Q 2709 -91 1959 -91 
Q 1206 -91 779 398 
Q 353 888 353 1747 
Q 353 2609 779 3096 
Q 1206 3584 1959 3584 
z
" transform="scale(0.015625)"/>
       <path id="DejaVuSans-75" d="M 544 1381 
L 544 3500 
L 1119 3500 
L 1119 1403 
Q 1119 906 1312 657 
Q 1506 409 1894 409 
Q 2359 409 2629 706 
Q 2900 1003 2900 1516 
L 2900 3500 
L 3475 3500 
L 3475 0 
L 2900 0 
L 2900 538 
Q 2691 219 2414 64 
Q 2138 -91 1772 -91 
Q 1169 -91 856 284 
Q 544 659 544 1381 
z
M 1991 3584 
L 1991 3584 
z
" transform="scale(0.015625)"/>
       <path id="DejaVuSans-6e" d="M 3513 2113 
L 3513 0 
L 2938 0 
L 2938 2094 
Q 2938 2591 2744 2837 
Q 2550 3084 2163 3084 
Q 1697 3084 1428 2787 
Q 1159 2491 1159 1978 
L 1159 0 
L 581 0 
L 581 3500 
L 1159 3500 
L 1159 2956 
Q 1366 3272 1645 3428 
Q 1925 3584 2291 3584 
Q 2894 3584 3203 3211 
Q 3513 2838 3513 2113 
z
" transform="scale(0.015625)"/>
      </defs>
      <use xlink:href="#DejaVuSans-43"/>
      <use xlink:href="#DejaVuSans-6f" transform="translate(69.824219 0)"/>
      <use xlink:href="#DejaVuSans-75" transform="translate(131.005859 0)"/>
      <use xlink:href="#DejaVuSans-6e" transform="translate(194.384766 0)"/>
      <use xlink:href="#DejaVuSans-74" transform="translate(257.763672 0)"/>
     </g>
    </g>
   </g>
   <g id="line2d_23">
    <path d="M 579.601989 432.81004 
L 579.014642 432.81004 
L 579.009328 434.239827 
L 540.338637 434.239827 
L 540.329191 435.669614 
L 520.765916 435.669614 
L 520.653186 434.239827 
L 519.665595 432.81004 
L 519.656523 431.380253 
L 517.177132 431.380253 
L 517.07875 429.950465 
L 493.615398 429.950465 
L 493.583115 427.090891 
L 492.498226 425.661104 
L 482.921522 425.661104 
L 482.093447 424.231316 
L 453.655918 424.231316 
L 453.656241 425.661104 
L 453.546921 425.661104 
L 449.285406 425.661104 
L 449.277047 427.090891 
L 449.276046 425.661104 
L 436.308678 425.661104 
L 435.876496 427.090891 
L 432.750722 427.090891 
L 432.750554 425.661104 
L 424.857449 425.661104 
L 424.675632 427.090891 
L 421.122734 427.090891 
L 421.110791 425.661104 
L 417.26737 425.661104 
L 417.148937 427.090891 
L 413.187764 427.090891 
L 413.124963 425.661104 
L 381.377141 425.661104 
L 380.715067 424.231316 
L 353.609563 424.231316 
L 353.479846 421.371742 
L 325.726426 421.371742 
L 325.726376 422.801529 
L 319.290545 422.801529 
L 318.712058 424.231316 
L 318.58481 424.231316 
L 318.401231 425.661104 
L 318.393712 424.231316 
L 317.062837 424.231316 
L 317.062086 425.661104 
L 311.601894 425.661104 
L 311.54392 424.231316 
L 307.969921 424.231316 
L 307.890149 422.801529 
L 299.522417 422.801529 
L 299.522313 424.231316 
L 287.233794 424.231316 
L 287.216448 425.661104 
L 277.893399 425.661104 
L 277.827281 427.090891 
L 267.983504 427.090891 
L 267.956167 428.520678 
L 265.253652 428.520678 
L 265.028101 429.950465 
L 262.794274 429.950465 
L 262.759383 427.090891 
L 258.147049 427.090891 
L 257.801769 428.520678 
L 240.827608 428.520678 
L 240.346448 427.090891 
L 232.415848 427.090891 
L 232.368799 425.661104 
L 225.902809 425.661104 
L 225.902787 424.231316 
L 219.02016 424.231316 
L 219.26326 424.231316 
L 218.891115 425.661104 
L 209.16136 425.661104 
L 208.91912 427.090891 
L 204.44613 427.090891 
L 204.385988 425.661104 
L 194.906785 425.661104 
L 194.906699 427.090891 
L 168.091902 427.090891 
L 168.0508 428.520678 
L 166.391585 428.520678 
L 166.391503 429.950465 
L 161.269316 429.950465 
L 160.950789 431.380253 
L 159.639328 431.380253 
L 159.507225 429.950465 
L 141.443042 429.950465 
L 141.165179 431.380253 
L 134.474402 431.380253 
L 134.46552 429.950465 
L 132.801675 429.950465 
L 132.794913 431.380253 
L 130.546877 431.380253 
L 130.283698 434.239827 
L 127.341977 434.239827 
L 127.324382 435.669614 
L 126.281155 435.669614 
L 126.129485 437.099402 
L 124.071359 437.099402 
L 124.069252 438.529189 
L 119.599145 438.529189 
L 118.988445 439.958976 
L 91.70121 439.958976 
L 91.687905 441.388763 
L 87.099409 441.388763 
L 87.09067 442.818551 
L 80.484475 442.818551 
L 80.451254 444.248338 
L 72.569411 444.248338 
L 72.566264 445.678125 
L 72.329261 445.678125 
L 72.329261 445.678125 
" clip-path="url(#pda0fe21df8)" style="fill: none; stroke: #1f77b4; stroke-opacity: 0.8; stroke-width: 1.5; stroke-linecap: square"/>
   </g>
   <g id="line2d_24">
    <path d="M 579.601989 71.07387 
L 579.576221 71.07387 
L 579.330976 72.503657 
L 579.330926 73.933444 
L 579.014642 73.933444 
L 579.009328 75.363231 
L 578.499694 78.222806 
L 578.378241 78.222806 
L 578.26277 79.652593 
L 578.261088 92.520678 
L 577.83511 96.81004 
L 577.363782 98.239827 
L 577.363725 99.669614 
L 576.806171 99.669614 
L 576.348186 102.529189 
L 576.207259 103.958976 
L 574.891333 103.958976 
L 573.012505 105.388763 
L 572.416866 105.388763 
L 572.40209 82.512168 
L 572.218078 83.941955 
L 571.611865 85.371742 
L 570.706314 85.371742 
L 570.51836 89.661104 
L 569.993532 92.520678 
L 569.168761 95.380253 
L 569.167081 99.669614 
L 568.852208 105.388763 
L 567.985382 105.388763 
L 567.78468 106.818551 
L 566.882923 108.248338 
L 566.175711 108.248338 
L 565.596419 109.678125 
L 565.591213 112.537699 
L 565.364803 115.397274 
L 565.364825 115.397274 
L 564.535656 116.827061 
L 560.859514 116.827061 
L 560.681829 118.256848 
L 559.359183 116.827061 
L 559.315611 118.256848 
L 558.212717 118.256848 
L 556.761029 119.686636 
L 555.220811 119.686636 
L 555.217661 122.54621 
L 552.777517 122.54621 
L 551.552676 123.975997 
L 551.325883 125.405785 
L 551.325141 126.835572 
L 550.569879 126.835572 
L 550.270469 128.265359 
L 550.27057 128.265359 
L 549.346458 129.695146 
L 548.901946 132.554721 
L 548.373629 132.554721 
L 548.37311 123.975997 
L 545.556093 123.975997 
L 545.1108 125.405785 
L 544.575527 125.405785 
L 542.902195 128.265359 
L 542.015413 128.265359 
L 541.973944 133.984508 
L 540.464995 133.984508 
L 540.338637 136.844082 
L 540.329191 155.431316 
L 539.953703 155.431316 
L 539.943396 156.861104 
L 539.897579 118.256848 
L 538.796289 121.116423 
L 538.796251 122.54621 
L 536.28195 126.835572 
L 536.240532 131.124934 
L 534.080336 131.124934 
L 532.492387 132.554721 
L 532.49214 133.984508 
L 532.142775 142.563231 
L 530.482283 142.563231 
L 530.334964 143.993019 
L 528.129712 143.993019 
L 528.032956 151.141955 
L 527.510384 151.141955 
L 527.743711 151.141955 
L 527.500298 152.571742 
L 526.702426 152.571742 
L 525.565418 154.001529 
L 524.516386 154.001529 
L 524.514203 155.431316 
L 520.765916 155.431316 
L 520.653186 142.563231 
L 519.665595 142.563231 
L 519.656523 126.835572 
L 518.244137 126.835572 
L 517.427449 128.265359 
L 517.177132 131.124934 
L 517.07875 123.975997 
L 516.389679 123.975997 
L 516.389355 125.405785 
L 515.785174 129.695146 
L 515.216769 129.695146 
L 515.216551 131.124934 
L 514.701431 131.124934 
L 514.700801 132.554721 
L 513.078818 132.554721 
L 513.071431 111.107912 
L 513.043616 113.967487 
L 512.956737 115.397274 
L 511.948385 115.397274 
L 511.943508 108.248338 
L 511.382389 108.248338 
L 511.325165 105.388763 
L 511.047907 105.388763 
L 511.036199 96.81004 
L 510.845513 96.81004 
L 510.826457 95.380253 
L 510.826457 95.380253 
L 510.066077 96.81004 
L 510.05031 99.669614 
L 509.113399 99.669614 
L 509.113361 101.099402 
L 504.555101 101.099402 
L 504.282187 103.958976 
L 503.65513 103.958976 
L 503.641705 105.388763 
L 502.923424 106.818551 
L 502.032336 109.678125 
L 502.032133 112.537699 
L 501.776692 112.537699 
L 501.776375 113.967487 
L 501.256278 113.967487 
L 499.84218 115.397274 
L 496.934646 115.397274 
L 496.934551 116.827061 
L 496.357928 116.827061 
L 495.696351 118.256848 
L 493.877512 118.256848 
L 493.79999 81.08238 
L 493.615398 81.08238 
L 493.583115 73.933444 
L 492.498226 42.478125 
L 491.410903 46.767487 
L 489.488131 46.767487 
L 489.215468 48.197274 
L 488.652242 49.627061 
L 487.028316 49.627061 
L 486.228324 51.056848 
L 486.001525 51.056848 
L 486.000894 52.486636 
L 485.641919 51.056848 
L 485.641795 52.486636 
L 485.4321 52.486636 
L 485.6421 49.627061 
L 485.417341 49.627061 
L 484.361005 51.056848 
L 484.353618 53.916423 
L 483.771497 53.916423 
L 483.754263 55.34621 
L 483.220857 56.775997 
L 482.921522 56.775997 
L 482.093447 42.478125 
L 479.641002 42.478125 
L 479.640539 43.907912 
L 476.951354 43.907912 
L 476.865004 46.767487 
L 476.864811 49.627061 
L 474.964305 49.627061 
L 474.911246 52.486636 
L 472.988981 52.486636 
L 472.988898 53.916423 
L 472.501404 53.916423 
L 471.984519 55.34621 
L 470.859901 55.34621 
L 470.141801 58.205785 
L 466.566782 58.205785 
L 466.566924 58.205785 
L 464.062291 59.635572 
L 461.842463 59.635572 
L 459.137707 61.065359 
L 459.573337 61.065359 
L 456.360309 62.495146 
L 455.015302 63.924934 
L 453.655918 63.924934 
L 453.656241 66.784508 
L 453.546921 66.784508 
L 452.810982 66.784508 
L 451.638903 68.214295 
L 449.285406 68.214295 
L 449.277047 73.933444 
L 449.276046 69.644082 
L 447.317693 69.644082 
L 447.317468 71.07387 
L 447.317439 69.644082 
L 446.514482 71.07387 
L 445.746545 71.07387 
L 445.17964 72.503657 
L 442.982414 72.503657 
L 442.205865 73.933444 
L 440.733073 75.363231 
L 440.134246 76.793019 
L 439.450429 76.793019 
L 439.450391 78.222806 
L 439.138458 78.222806 
L 439.138245 82.512168 
L 437.504791 82.512168 
L 437.224504 83.941955 
L 436.729921 85.371742 
L 436.308678 85.371742 
L 435.876496 86.801529 
L 435.024779 86.801529 
L 435.009186 78.222806 
L 435.007142 81.08238 
L 434.737429 81.08238 
L 434.712564 82.512168 
L 432.750722 82.512168 
L 432.750554 76.793019 
L 431.735414 78.222806 
L 431.734787 81.08238 
L 430.62176 81.08238 
L 430.129201 82.512168 
L 428.965028 82.512168 
L 428.903543 83.941955 
L 428.903476 86.801529 
L 427.308541 86.801529 
L 426.601462 88.231316 
L 426.321251 88.231316 
L 425.634078 95.380253 
L 425.626451 96.81004 
L 424.675632 96.81004 
L 424.538735 98.239827 
L 423.169034 98.239827 
L 423.168993 99.669614 
L 422.686492 99.669614 
L 421.645854 101.099402 
L 421.122734 101.099402 
L 421.110791 95.380253 
L 418.325544 95.380253 
L 418.325341 92.520678 
L 417.486584 92.520678 
L 417.79582 92.520678 
L 417.420348 93.950465 
L 417.407632 81.08238 
L 417.279778 82.512168 
L 417.26737 81.08238 
L 417.148937 88.231316 
L 416.438711 89.661104 
L 413.187764 89.661104 
L 413.124963 85.371742 
L 408.719856 85.371742 
L 408.220064 86.801529 
L 407.093646 86.801529 
L 406.826407 88.231316 
L 403.730555 88.231316 
L 402.99652 82.512168 
L 402.116427 85.371742 
L 400.816954 85.371742 
L 399.146305 86.801529 
L 398.336453 88.231316 
L 397.780945 88.231316 
L 394.672605 89.661104 
L 394.393066 89.661104 
L 394.392999 91.090891 
L 392.886037 91.090891 
L 392.886027 88.231316 
L 391.21824 88.231316 
L 390.626819 85.371742 
L 389.81863 85.371742 
L 388.525 86.801529 
L 388.524952 88.231316 
L 388.362113 88.231316 
L 386.55798 89.661104 
L 386.014149 89.661104 
L 385.452795 102.529189 
L 383.532156 103.958976 
L 382.635557 103.958976 
L 383.003703 103.958976 
L 382.469549 109.678125 
L 382.164394 109.678125 
L 381.664348 111.107912 
L 381.377141 111.107912 
L 380.715067 109.678125 
L 376.619503 109.678125 
L 376.35634 111.107912 
L 376.350582 112.537699 
L 376.076353 112.537699 
L 376.069553 69.644082 
L 375.250296 69.644082 
L 375.24002 71.07387 
L 372.580818 71.07387 
L 371.131132 72.503657 
L 369.286158 72.503657 
L 368.212039 71.07387 
L 368.204102 72.503657 
L 362.499128 72.503657 
L 362.449437 65.354721 
L 361.358708 65.354721 
L 360.255839 66.784508 
L 359.160997 66.784508 
L 357.999017 68.214295 
L 356.905161 68.214295 
L 356.904273 71.07387 
L 356.71906 72.503657 
L 356.700044 73.933444 
L 356.46763 73.933444 
L 356.126428 75.363231 
L 356.072113 76.793019 
L 355.839949 76.793019 
L 355.783046 81.08238 
L 354.805547 83.941955 
L 353.609563 83.941955 
L 353.479846 78.222806 
L 349.338695 78.222806 
L 349.338644 79.652593 
L 348.783723 78.222806 
L 348.483517 79.652593 
L 346.3014 79.652593 
L 346.293849 81.08238 
L 344.32881 81.08238 
L 344.297541 82.512168 
L 341.131435 82.512168 
L 339.768198 83.941955 
L 339.465613 83.941955 
L 338.858776 85.371742 
L 333.48931 85.371742 
L 333.483157 86.801529 
L 331.559887 86.801529 
L 331.559495 89.661104 
L 328.294741 89.661104 
L 327.500688 91.090891 
L 325.726426 91.090891 
L 325.726376 92.520678 
L 324.679242 92.520678 
L 324.432406 93.950465 
L 323.360645 93.950465 
L 322.797482 95.380253 
L 321.318721 95.380253 
L 320.314459 96.81004 
L 320.046666 98.239827 
L 318.712058 98.239827 
L 318.58481 96.81004 
L 318.401231 96.81004 
L 318.393712 82.512168 
L 318.275247 83.941955 
L 318.140283 88.231316 
L 316.201195 88.231316 
L 315.387686 83.941955 
L 315.387566 86.801529 
L 315.128224 88.231316 
L 315.115897 92.520678 
L 313.997531 98.239827 
L 313.785951 98.239827 
L 313.74098 46.767487 
L 313.740908 49.627061 
L 312.641284 49.627061 
L 311.726693 52.486636 
L 311.54392 53.916423 
L 310.485578 56.775997 
L 310.210776 58.205785 
L 310.205186 61.065359 
L 309.857057 62.495146 
L 309.640851 62.495146 
L 309.6408 66.784508 
L 308.823698 66.784508 
L 307.969921 68.214295 
L 307.890149 62.495146 
L 307.159064 62.495146 
L 307.158797 63.924934 
L 306.246894 65.354721 
L 304.486071 65.354721 
L 304.426449 63.924934 
L 303.903797 63.924934 
L 302.207505 68.214295 
L 303.903842 69.644082 
L 298.109977 69.644082 
L 298.109669 73.933444 
L 297.038063 73.933444 
L 297.038016 75.363231 
L 296.271498 75.363231 
L 295.422389 76.793019 
L 294.465236 79.652593 
L 288.506114 79.652593 
L 287.621126 81.08238 
L 287.233794 81.08238 
L 287.216448 83.941955 
L 285.847492 83.941955 
L 285.847438 85.371742 
L 284.35077 85.371742 
L 283.523829 88.231316 
L 283.52431 88.231316 
L 281.319654 88.231316 
L 280.818775 89.661104 
L 280.658388 91.090891 
L 279.40803 91.090891 
L 279.816345 92.520678 
L 278.960239 96.81004 
L 278.871883 98.239827 
L 278.342261 98.239827 
L 278.21126 105.388763 
L 277.231179 105.388763 
L 276.018576 106.818551 
L 276.009672 108.248338 
L 275.864358 112.537699 
L 275.862691 105.388763 
L 275.598809 106.818551 
L 273.953681 106.818551 
L 273.810333 111.107912 
L 270.516209 112.537699 
L 270.516031 113.967487 
L 270.365607 115.397274 
L 269.689172 115.397274 
L 269.299087 116.827061 
L 267.486782 116.827061 
L 267.470859 118.256848 
L 267.47078 116.827061 
L 266.386594 116.827061 
L 266.281241 119.686636 
L 266.065859 119.686636 
L 265.596524 122.54621 
L 265.253652 122.54621 
L 265.032575 128.265359 
L 265.028101 133.984508 
L 264.153936 139.703657 
L 263.621104 139.703657 
L 263.595178 133.984508 
L 263.286515 133.984508 
L 263.26133 135.414295 
L 263.026751 135.414295 
L 262.794274 136.844082 
L 262.759383 125.405785 
L 262.274192 126.835572 
L 261.355647 126.835572 
L 261.21559 128.265359 
L 261.208429 129.695146 
L 260.951606 132.554721 
L 260.810434 132.554721 
L 260.810349 135.414295 
L 258.663823 136.844082 
L 258.171762 136.844082 
L 258.147049 138.27387 
L 257.840047 145.422806 
L 257.801769 143.993019 
L 255.69411 143.993019 
L 255.369917 146.852593 
L 254.389589 148.28238 
L 253.668941 148.28238 
L 253.668888 149.712168 
L 253.502997 151.141955 
L 251.803396 151.141955 
L 251.034835 152.571742 
L 251.033228 151.141955 
L 249.079638 152.571742 
L 248.189342 152.571742 
L 248.078295 154.001529 
L 246.909007 155.431316 
L 246.662825 156.861104 
L 246.152829 156.861104 
L 245.347048 159.720678 
L 244.526448 158.290891 
L 243.292734 158.290891 
L 243.153755 159.720678 
L 240.827608 159.720678 
L 240.346448 148.28238 
L 239.553893 149.712168 
L 239.552312 151.141955 
L 238.971778 152.571742 
L 238.36855 156.861104 
L 238.364694 159.720678 
L 237.338454 162.580253 
L 237.282742 166.869614 
L 237.007373 168.299402 
L 234.548286 171.158976 
L 234.35992 161.150465 
L 233.973164 162.580253 
L 233.973114 165.439827 
L 232.415848 165.439827 
L 232.368799 159.720678 
L 231.945645 159.720678 
L 231.306972 161.150465 
L 230.147498 161.150465 
L 229.943678 162.580253 
L 229.878067 164.01004 
L 229.374199 164.01004 
L 229.373962 165.439827 
L 229.141332 165.439827 
L 229.04828 172.588763 
L 228.502484 172.588763 
L 228.010021 174.018551 
L 227.544147 174.018551 
L 227.487069 185.456848 
L 227.404055 189.74621 
L 225.902809 188.316423 
L 225.902787 168.299402 
L 224.674758 165.439827 
L 224.340318 166.869614 
L 222.910104 166.869614 
L 222.882755 168.299402 
L 221.448834 168.299402 
L 221.223644 169.729189 
L 220.995308 169.729189 
L 220.097876 171.158976 
L 219.174948 171.158976 
L 219.02016 175.448338 
L 219.26326 175.448338 
L 218.891115 181.167487 
L 217.556229 181.167487 
L 216.863063 182.597274 
L 217.278391 182.597274 
L 216.020979 184.027061 
L 215.798704 189.74621 
L 215.483314 191.175997 
L 214.366624 189.74621 
L 214.258492 191.175997 
L 213.856296 191.175997 
L 213.853048 162.580253 
L 213.511098 143.993019 
L 213.474607 145.422806 
L 211.881789 145.422806 
L 211.863524 151.141955 
L 211.367731 152.571742 
L 211.109095 155.431316 
L 209.16136 155.431316 
L 208.91912 156.861104 
L 206.089825 156.861104 
L 206.96352 158.290891 
L 206.416498 158.290891 
L 206.304184 161.150465 
L 205.578711 162.580253 
L 205.3663 169.729189 
L 204.449406 174.018551 
L 204.394641 166.869614 
L 204.385988 168.299402 
L 203.716708 168.299402 
L 203.275885 169.729189 
L 203.302318 169.729189 
L 202.325881 171.158976 
L 195.765458 171.158976 
L 195.739515 172.588763 
L 195.466599 176.878125 
L 193.457141 176.878125 
L 193.308862 178.307912 
L 192.166318 178.307912 
L 191.902765 179.737699 
L 191.900439 188.316423 
L 191.626258 189.74621 
L 191.626213 192.605785 
L 190.870134 192.605785 
L 190.809022 194.035572 
L 190.534829 194.035572 
L 189.977347 195.465359 
L 189.405559 195.465359 
L 189.345648 198.324934 
L 186.683616 198.324934 
L 186.683521 201.184508 
L 185.814575 204.044082 
L 183.43957 204.044082 
L 183.436829 206.903657 
L 183.175358 206.903657 
L 182.921228 208.333444 
L 182.598097 208.333444 
L 182.592333 209.763231 
L 180.113908 209.763231 
L 179.894789 211.193019 
L 179.5366 212.622806 
L 178.488392 214.052593 
L 178.488392 214.052593 
L 177.971694 215.48238 
L 177.971605 216.912168 
L 175.957702 216.912168 
L 175.223942 218.341955 
L 174.151205 218.341955 
L 174.14963 219.771742 
L 172.203961 221.201529 
L 171.115089 222.631316 
L 170.018013 222.631316 
L 169.900062 224.061104 
L 169.16949 226.920678 
L 169.169062 228.350465 
L 166.72042 228.350465 
L 166.651811 231.21004 
L 166.391585 231.21004 
L 166.391503 234.069614 
L 166.103237 234.069614 
L 166.103161 232.639827 
L 165.928803 232.639827 
L 165.649897 234.069614 
L 165.649853 235.499402 
L 165.058875 236.929189 
L 165.058961 236.929189 
L 163.995052 236.929189 
L 162.343362 238.358976 
L 162.338457 241.218551 
L 161.507507 241.218551 
L 161.301785 242.648338 
L 161.269316 246.937699 
L 160.950789 251.227061 
L 160.629885 252.656848 
L 160.597476 254.086636 
L 160.102912 254.086636 
L 159.639328 255.516423 
L 159.507225 255.516423 
L 159.02835 256.94621 
L 157.603469 256.94621 
L 157.581785 258.375997 
L 156.28505 258.375997 
L 156.28505 258.375997 
L 156.094779 259.805785 
L 156.093318 248.367487 
L 156.087735 249.797274 
L 153.243766 249.797274 
L 153.199116 259.805785 
L 153.079966 262.665359 
L 152.131097 262.665359 
L 151.676404 264.095146 
L 150.455816 264.095146 
L 150.340881 268.384508 
L 149.91888 269.814295 
L 149.907435 274.103657 
L 149.774828 274.103657 
L 149.75342 275.533444 
L 149.106508 275.533444 
L 148.291161 276.963231 
L 148.136732 276.963231 
L 148.03283 279.822806 
L 145.87541 279.822806 
L 145.552973 281.252593 
L 145.37492 282.68238 
L 144.854345 284.112168 
L 144.737287 284.112168 
L 144.048843 285.541955 
L 144.036219 289.831316 
L 143.901039 291.261104 
L 143.900969 292.690891 
L 143.701278 292.690891 
L 142.885725 301.269614 
L 142.815906 299.839827 
L 142.564682 299.839827 
L 142.527123 301.269614 
L 142.344717 302.699402 
L 141.443042 302.699402 
L 141.165179 305.558976 
L 139.598822 305.558976 
L 139.585628 306.988763 
L 139.402354 306.988763 
L 139.125828 308.418551 
L 138.554927 299.839827 
L 136.940418 299.839827 
L 136.583236 301.269614 
L 136.581246 302.699402 
L 135.581101 302.699402 
L 135.579637 304.129189 
L 135.288228 304.129189 
L 135.133076 305.558976 
L 135.019253 305.558976 
L 135.014322 309.848338 
L 134.753174 309.848338 
L 134.752753 311.278125 
L 134.474402 311.278125 
L 134.467469 309.848338 
L 134.46552 311.278125 
L 133.068904 311.278125 
L 132.801675 312.707912 
L 132.794913 314.137699 
L 131.426438 314.137699 
L 130.780255 308.418551 
L 130.546877 312.707912 
L 130.283698 318.427061 
L 128.901905 318.427061 
L 128.636492 319.856848 
L 128.374279 319.856848 
L 128.37419 322.716423 
L 128.197814 322.716423 
L 128.183206 324.14621 
L 127.638003 324.14621 
L 127.517108 331.295146 
L 127.341977 332.724934 
L 127.324382 334.154721 
L 126.753595 334.154721 
L 126.661794 339.87387 
L 126.44503 339.87387 
L 126.40026 341.303657 
L 126.281155 342.733444 
L 126.129485 349.88238 
L 125.897844 351.312168 
L 124.071359 351.312168 
L 124.069252 354.171742 
L 122.061483 354.171742 
L 122.048437 357.031316 
L 121.059838 357.031316 
L 121.05877 349.88238 
L 119.599145 349.88238 
L 118.988445 351.312168 
L 117.064421 352.741955 
L 115.807028 352.741955 
L 114.979539 354.171742 
L 114.121392 354.171742 
L 113.923862 355.601529 
L 113.390545 357.031316 
L 113.27709 359.890891 
L 113.277023 361.320678 
L 112.502175 361.320678 
L 111.862948 364.180253 
L 110.781674 364.180253 
L 110.781509 365.61004 
L 108.131131 365.61004 
L 106.823778 367.039827 
L 105.882529 367.039827 
L 105.86069 368.469614 
L 105.432479 369.899402 
L 104.864756 369.899402 
L 104.773687 371.329189 
L 104.773554 368.469614 
L 104.762594 369.899402 
L 104.640719 371.329189 
L 104.640342 374.188763 
L 99.154376 374.188763 
L 99.058587 378.478125 
L 98.210745 378.478125 
L 96.26646 379.907912 
L 96.267962 381.337699 
L 96.265877 381.337699 
L 93.64058 381.337699 
L 93.55628 385.627061 
L 92.023723 385.627061 
L 91.95804 387.056848 
L 91.870967 388.486636 
L 91.687905 397.065359 
L 91.389056 397.065359 
L 91.055376 398.495146 
L 90.847994 398.495146 
L 90.776892 401.354721 
L 90.318723 402.784508 
L 88.113266 402.784508 
L 87.789802 404.214295 
L 87.771968 405.644082 
L 87.499106 405.644082 
L 87.09067 412.793019 
L 83.451538 412.793019 
L 83.398152 415.652593 
L 82.883929 415.652593 
L 82.358616 417.08238 
L 81.850117 417.08238 
L 81.495736 418.512168 
L 81.2194 418.512168 
L 81.019382 419.941955 
L 80.91929 422.801529 
L 80.635726 424.231316 
L 80.451254 428.520678 
L 76.823815 428.520678 
L 76.301835 429.950465 
L 74.767181 429.950465 
L 74.767127 431.380253 
L 74.190396 431.380253 
L 74.188647 429.950465 
L 73.393595 432.81004 
L 73.126163 435.669614 
L 72.329261 435.669614 
L 72.329261 435.669614 
" clip-path="url(#pda0fe21df8)" style="fill: none; stroke: #ff7f0e; stroke-opacity: 0.8; stroke-width: 1.5; stroke-linecap: square"/>
   </g>
   <g id="patch_3">
    <path d="M 46.965625 465.838125 
L 46.965625 22.318125 
" style="fill: none; stroke: #000000; stroke-width: 0.8; stroke-linejoin: miter; stroke-linecap: square"/>
   </g>
   <g id="patch_4">
    <path d="M 604.965625 465.838125 
L 604.965625 22.318125 
" style="fill: none; stroke: #000000; stroke-width: 0.8; stroke-linejoin: miter; stroke-linecap: square"/>
   </g>
   <g id="patch_5">
    <path d="M 46.965625 465.838125 
L 604.965625 465.838125 
" style="fill: none; stroke: #000000; stroke-width: 0.8; stroke-linejoin: miter; stroke-linecap: square"/>
   </g>
   <g id="patch_6">
    <path d="M 46.965625 22.318125 
L 604.965625 22.318125 
" style="fill: none; stroke: #000000; stroke-width: 0.8; stroke-linejoin: miter; stroke-linecap: square"/>
   </g>
   <g id="text_14">
    <!-- 11 -->
    <g transform="translate(579.601989 432.81004) scale(0.1 -0.1)">
     <use xlink:href="#DejaVuSans-31"/>
     <use xlink:href="#DejaVuSans-31" transform="translate(63.623047 0)"/>
    </g>
   </g>
   <g id="text_15">
    <!-- 264 -->
    <g transform="translate(579.601989 71.07387) scale(0.1 -0.1)">
     <defs>
      <path id="DejaVuSans-36" d="M 2113 2584 
Q 1688 2584 1439 2293 
Q 1191 2003 1191 1497 
Q 1191 994 1439 701 
Q 1688 409 2113 409 
Q 2538 409 2786 701 
Q 3034 994 3034 1497 
Q 3034 2003 2786 2293 
Q 2538 2584 2113 2584 
z
M 3366 4563 
L 3366 3988 
Q 3128 4100 2886 4159 
Q 2644 4219 2406 4219 
Q 1781 4219 1451 3797 
Q 1122 3375 1075 2522 
Q 1259 2794 1537 2939 
Q 1816 3084 2150 3084 
Q 2853 3084 3261 2657 
Q 3669 2231 3669 1497 
Q 3669 778 3244 343 
Q 2819 -91 2113 -91 
Q 1303 -91 875 529 
Q 447 1150 447 2328 
Q 447 3434 972 4092 
Q 1497 4750 2381 4750 
Q 2619 4750 2861 4703 
Q 3103 4656 3366 4563 
z
" transform="scale(0.015625)"/>
     </defs>
     <use xlink:href="#DejaVuSans-32"/>
     <use xlink:href="#DejaVuSans-36" transform="translate(63.623047 0)"/>
     <use xlink:href="#DejaVuSans-34" transform="translate(127.246094 0)"/>
    </g>
   </g>
   <g id="text_16">
    <!-- WireGuard peers over time -->
    <g transform="translate(244.736875 16.318125) scale(0.12 -0.12)">
     <defs>
      <path id="DejaVuSans-57" d="M 213 4666 
L 850 4666 
L 1831 722 
L 2809 4666 
L 3519 4666 
L 4500 722 
L 5478 4666 
L 6119 4666 
L 4947 0 
L 4153 0 
L 3169 4050 
L 2175 0 
L 1381 0 
L 213 4666 
z
" transform="scale(0.015625)"/>
      <path id="DejaVuSans-69" d="M 603 3500 
L 1178 3500 
L 1178 0 
L 603 0 
L 603 3500 
z
M 603 4863 
L 1178 4863 
L 1178 4134 
L 603 4134 
L 603 4863 
z
" transform="scale(0.015625)"/>
      <path id="DejaVuSans-72" d="M 2631 2963 
Q 2534 3019 2420 3045 
Q 2306 3072 2169 3072 
Q 1681 3072 1420 2755 
Q 1159 2438 1159 1844 
L 1159 0 
L 581 0 
L 581 3500 
L 1159 3500 
L 1159 2956 
Q 1341 3275 1631 3429 
Q 1922 3584 2338 3584 
Q 2397 3584 2469 3576 
Q 2541 3569 2628 3553 
L 2631 2963 
z
" transform="scale(0.015625)"/>
      <path id="DejaVuSans-47" d="M 3809 666 
L 3809 1919 
L 2778 1919 
L 2778 2438 
L 4434 2438 
L 4434 434 
Q 4069 175 3628 42 
Q 3188 -91 2688 -91 
Q 1594 -91 976 548 
Q 359 1188 359 2328 
Q 359 3472 976 4111 
Q 1594 4750 2688 4750 
Q 3144 4750 3555 4637 
Q 3966 4525 4313 4306 
L 4313 3634 
Q 3963 3931 3569 4081 
Q 3175 4231 2741 4231 
Q 1884 4231 1454 3753 
Q 1025 3275 1025 2328 
Q 1025 1384 1454 906 
Q 1884 428 2741 428 
Q 3075 428 3337 486 
Q 3600 544 3809 666 
z
" transform="scale(0.015625)"/>
      <path id="DejaVuSans-64" d="M 2906 2969 
L 2906 4863 
L 3481 4863 
L 3481 0 
L 2906 0 
L 2906 525 
Q 2725 213 2448 61 
Q 2172 -91 1784 -91 
Q 1150 -91 751 415 
Q 353 922 353 1747 
Q 353 2572 751 3078 
Q 1150 3584 1784 3584 
Q 2172 3584 2448 3432 
Q 2725 3281 2906 2969 
z
M 947 1747 
Q 947 1113 1208 752 
Q 1469 391 1925 391 
Q 2381 391 2643 752 
Q 2906 1113 2906 1747 
Q 2906 2381 2643 2742 
Q 2381 3103 1925 3103 
Q 1469 3103 1208 2742 
Q 947 2381 947 1747 
z
" transform="scale(0.015625)"/>
      <path id="DejaVuSans-20" transform="scale(0.015625)"/>
      <path id="DejaVuSans-70" d="M 1159 525 
L 1159 -1331 
L 581 -1331 
L 581 3500 
L 1159 3500 
L 1159 2969 
Q 1341 3281 1617 3432 
Q 1894 3584 2278 3584 
Q 2916 3584 3314 3078 
Q 3713 2572 3713 1747 
Q 3713 922 3314 415 
Q 2916 -91 2278 -91 
Q 1894 -91 1617 61 
Q 1341 213 1159 525 
z
M 3116 1747 
Q 3116 2381 2855 2742 
Q 2594 3103 2138 3103 
Q 1681 3103 1420 2742 
Q 1159 2381 1159 1747 
Q 1159 1113 1420 752 
Q 1681 391 2138 391 
Q 2594 391 2855 752 
Q 3116 1113 3116 1747 
z
" transform="scale(0.015625)"/>
      <path id="DejaVuSans-73" d="M 2834 3397 
L 2834 2853 
Q 2591 2978 2328 3040 
Q 2066 3103 1784 3103 
Q 1356 3103 1142 2972 
Q 928 2841 928 2578 
Q 928 2378 1081 2264 
Q 1234 2150 1697 2047 
L 1894 2003 
Q 2506 1872 2764 1633 
Q 3022 1394 3022 966 
Q 3022 478 2636 193 
Q 2250 -91 1575 -91 
Q 1294 -91 989 -36 
Q 684 19 347 128 
L 347 722 
Q 666 556 975 473 
Q 1284 391 1588 391 
Q 1994 391 2212 530 
Q 2431 669 2431 922 
Q 2431 1156 2273 1281 
Q 2116 1406 1581 1522 
L 1381 1569 
Q 847 1681 609 1914 
Q 372 2147 372 2553 
Q 372 3047 722 3315 
Q 1072 3584 1716 3584 
Q 2034 3584 2315 3537 
Q 2597 3491 2834 3397 
z
" transform="scale(0.015625)"/>
      <path id="DejaVuSans-76" d="M 191 3500 
L 800 3500 
L 1894 563 
L 2988 3500 
L 3597 3500 
L 2284 0 
L 1503 0 
L 191 3500 
z
" transform="scale(0.015625)"/>
      <path id="DejaVuSans-6d" d="M 3328 2828 
Q 3544 3216 3844 3400 
Q 4144 3584 4550 3584 
Q 5097 3584 5394 3201 
Q 5691 2819 5691 2113 
L 5691 0 
L 5113 0 
L 5113 2094 
Q 5113 2597 4934 2840 
Q 4756 3084 4391 3084 
Q 3944 3084 3684 2787 
Q 3425 2491 3425 1978 
L 3425 0 
L 2847 0 
L 2847 2094 
Q 2847 2600 2669 2842 
Q 2491 3084 2119 3084 
Q 1678 3084 1418 2786 
Q 1159 2488 1159 1978 
L 1159 0 
L 581 0 
L 581 3500 
L 1159 3500 
L 1159 2956 
Q 1356 3278 1631 3431 
Q 1906 3584 2284 3584 
Q 2666 3584 2933 3390 
Q 3200 3197 3328 2828 
z
" transform="scale(0.015625)"/>
     </defs>
     <use xlink:href="#DejaVuSans-57"/>
     <use xlink:href="#DejaVuSans-69" transform="translate(96.626953 0)"/>
     <use xlink:href="#DejaVuSans-72" transform="translate(124.410156 0)"/>
     <use xlink:href="#DejaVuSans-65" transform="translate(163.273438 0)"/>
     <use xlink:href="#DejaVuSans-47" transform="translate(224.796875 0)"/>
     <use xlink:href="#DejaVuSans-75" transform="translate(302.287109 0)"/>
     <use xlink:href="#DejaVuSans-61" transform="translate(365.666016 0)"/>
     <use xlink:href="#DejaVuSans-72" transform="translate(426.945312 0)"/>
     <use xlink:href="#DejaVuSans-64" transform="translate(466.308594 0)"/>
     <use xlink:href="#DejaVuSans-20" transform="translate(529.785156 0)"/>
     <use xlink:href="#DejaVuSans-70" transform="translate(561.572266 0)"/>
     <use xlink:href="#DejaVuSans-65" transform="translate(625.048828 0)"/>
     <use xlink:href="#DejaVuSans-65" transform="translate(686.572266 0)"/>
     <use xlink:href="#DejaVuSans-72" transform="translate(748.095703 0)"/>
     <use xlink:href="#DejaVuSans-73" transform="translate(789.208984 0)"/>
     <use xlink:href="#DejaVuSans-20" transform="translate(841.308594 0)"/>
     <use xlink:href="#DejaVuSans-6f" transform="translate(873.095703 0)"/>
     <use xlink:href="#DejaVuSans-76" transform="translate(934.277344 0)"/>
     <use xlink:href="#DejaVuSans-65" transform="translate(993.457031 0)"/>
     <use xlink:href="#DejaVuSans-72" transform="translate(1054.980469 0)"/>
     <use xlink:href="#DejaVuSans-20" transform="translate(1096.09375 0)"/>
     <use xlink:href="#DejaVuSans-74" transform="translate(1127.880859 0)"/>
     <use xlink:href="#DejaVuSans-69" transform="translate(1167.089844 0)"/>
     <use xlink:href="#DejaVuSans-6d" transform="translate(1194.873047 0)"/>
     <use xlink:href="#DejaVuSans-65" transform="translate(1292.285156 0)"/>
    </g>
   </g>
   <g id="legend_1">
    <g id="patch_7">
     <path d="M 53.965625 59.674375 
L 163.390625 59.674375 
Q 165.390625 59.674375 165.390625 57.674375 
L 165.390625 29.318125 
Q 165.390625 27.318125 163.390625 27.318125 
L 53.965625 27.318125 
Q 51.965625 27.318125 51.965625 29.318125 
L 51.965625 57.674375 
Q 51.965625 59.674375 53.965625 59.674375 
z
" style="fill: #ffffff; opacity: 0.8; stroke: #cccccc; stroke-linejoin: miter"/>
    </g>
    <g id="line2d_25">
     <path d="M 55.965625 35.416562 
L 65.965625 35.416562 
L 75.965625 35.416562 
" style="fill: none; stroke: #1f77b4; stroke-opacity: 0.8; stroke-width: 1.5; stroke-linecap: square"/>
    </g>
    <g id="text_17">
     <!-- # routers -->
     <g transform="translate(83.965625 38.916562) scale(0.1 -0.1)">
      <defs>
       <path id="DejaVuSans-23" d="M 3272 2816 
L 2363 2816 
L 2100 1772 
L 3016 1772 
L 3272 2816 
z
M 2803 4594 
L 2478 3297 
L 3391 3297 
L 3719 4594 
L 4219 4594 
L 3897 3297 
L 4872 3297 
L 4872 2816 
L 3775 2816 
L 3519 1772 
L 4513 1772 
L 4513 1294 
L 3397 1294 
L 3072 0 
L 2572 0 
L 2894 1294 
L 1978 1294 
L 1656 0 
L 1153 0 
L 1478 1294 
L 494 1294 
L 494 1772 
L 1594 1772 
L 1856 2816 
L 850 2816 
L 850 3297 
L 1978 3297 
L 2297 4594 
L 2803 4594 
z
" transform="scale(0.015625)"/>
      </defs>
      <use xlink:href="#DejaVuSans-23"/>
      <use xlink:href="#DejaVuSans-20" transform="translate(83.789062 0)"/>
      <use xlink:href="#DejaVuSans-72" transform="translate(115.576172 0)"/>
      <use xlink:href="#DejaVuSans-6f" transform="translate(154.439453 0)"/>
      <use xlink:href="#DejaVuSans-75" transform="translate(215.621094 0)"/>
      <use xlink:href="#DejaVuSans-74" transform="translate(279 0)"/>
      <use xlink:href="#DejaVuSans-65" transform="translate(318.208984 0)"/>
      <use xlink:href="#DejaVuSans-72" transform="translate(379.732422 0)"/>
      <use xlink:href="#DejaVuSans-73" transform="translate(420.845703 0)"/>
     </g>
    </g>
    <g id="line2d_26">
     <path d="M 55.965625 50.094687 
L 65.965625 50.094687 
L 75.965625 50.094687 
" style="fill: none; stroke: #ff7f0e; stroke-opacity: 0.8; stroke-width: 1.5; stroke-linecap: square"/>
    </g>
    <g id="text_18">
     <!-- # BGP sessions -->
     <g transform="translate(83.965625 53.594687) scale(0.1 -0.1)">
      <defs>
       <path id="DejaVuSans-42" d="M 1259 2228 
L 1259 519 
L 2272 519 
Q 2781 519 3026 730 
Q 3272 941 3272 1375 
Q 3272 1813 3026 2020 
Q 2781 2228 2272 2228 
L 1259 2228 
z
M 1259 4147 
L 1259 2741 
L 2194 2741 
Q 2656 2741 2882 2914 
Q 3109 3088 3109 3444 
Q 3109 3797 2882 3972 
Q 2656 4147 2194 4147 
L 1259 4147 
z
M 628 4666 
L 2241 4666 
Q 2963 4666 3353 4366 
Q 3744 4066 3744 3513 
Q 3744 3084 3544 2831 
Q 3344 2578 2956 2516 
Q 3422 2416 3680 2098 
Q 3938 1781 3938 1306 
Q 3938 681 3513 340 
Q 3088 0 2303 0 
L 628 0 
L 628 4666 
z
" transform="scale(0.015625)"/>
       <path id="DejaVuSans-50" d="M 1259 4147 
L 1259 2394 
L 2053 2394 
Q 2494 2394 2734 2622 
Q 2975 2850 2975 3272 
Q 2975 3691 2734 3919 
Q 2494 4147 2053 4147 
L 1259 4147 
z
M 628 4666 
L 2053 4666 
Q 2838 4666 3239 4311 
Q 3641 3956 3641 3272 
Q 3641 2581 3239 2228 
Q 2838 1875 2053 1875 
L 1259 1875 
L 1259 0 
L 628 0 
L 628 4666 
z
" transform="scale(0.015625)"/>
      </defs>
      <use xlink:href="#DejaVuSans-23"/>
      <use xlink:href="#DejaVuSans-20" transform="translate(83.789062 0)"/>
      <use xlink:href="#DejaVuSans-42" transform="translate(115.576172 0)"/>
      <use xlink:href="#DejaVuSans-47" transform="translate(182.429688 0)"/>
      <use xlink:href="#DejaVuSans-50" transform="translate(259.919922 0)"/>
      <use xlink:href="#DejaVuSans-20" transform="translate(320.222656 0)"/>
      <use xlink:href="#DejaVuSans-73" transform="translate(352.009766 0)"/>
      <use xlink:href="#DejaVuSans-65" transform="translate(404.109375 0)"/>
      <use xlink:href="#DejaVuSans-73" transform="translate(465.632812 0)"/>
      <use xlink:href="#DejaVuSans-73" transform="translate(517.732422 0)"/>
      <use xlink:href="#DejaVuSans-69" transform="translate(569.832031 0)"/>
      <use xlink:href="#DejaVuSans-6f" transform="translate(597.615234 0)"/>
      <use xlink:href="#DejaVuSans-6e" transform="translate(658.796875 0)"/>
      <use xlink:href="#DejaVuSans-73" transform="translate(722.175781 0)"/>
     </g>
    </g>
   </g>
  </g>
 </g>
 <defs>
  <clipPath id="pda0fe21df8">
   <rect x="46.965625" y="22.318125" width="558" height="443.52"/>
  </clipPath>
 </defs>
</svg>
