<?xml version="1.0" encoding="utf-8" standalone="no"?>
<!DOCTYPE svg PUBLIC "-//W3C//DTD SVG 1.1//EN"
  "http://www.w3.org/Graphics/SVG/1.1/DTD/svg11.dtd">
<!-- Created with matplotlib (https://matplotlib.org/) -->
<svg height="471.149158pt" version="1.1" viewBox="0 0 612.907635 471.149158" width="612.907635pt" xmlns="http://www.w3.org/2000/svg" xmlns:xlink="http://www.w3.org/1999/xlink">
 <metadata>
  <rdf:RDF xmlns:cc="http://creativecommons.org/ns#" xmlns:dc="http://purl.org/dc/elements/1.1/" xmlns:rdf="http://www.w3.org/1999/02/22-rdf-syntax-ns#">
   <cc:Work>
    <dc:type rdf:resource="http://purl.org/dc/dcmitype/StillImage"/>
    <dc:format>image/svg+xml</dc:format>
    <dc:creator>
     <cc:Agent>
      <dc:title>Matplotlib v3.3.4, https://matplotlib.org/</dc:title>
     </cc:Agent>
    </dc:creator>
   </cc:Work>
  </rdf:RDF>
 </metadata>
 <defs>
  <style type="text/css">*{stroke-linecap:butt;stroke-linejoin:round;}</style>
 </defs>
 <g id="figure_1">
  <g id="patch_1">
   <path d="M 0 471.149158 
L 612.907635 471.149158 
L 612.907635 0 
L 0 0 
z
" style="fill:#ffffff;"/>
  </g>
  <g id="axes_1">
   <g id="patch_2">
    <path d="M 47.707635 413.998125 
L 605.707635 413.998125 
L 605.707635 22.318125 
L 47.707635 22.318125 
z
" style="fill:#ffffff;"/>
   </g>
   <g id="matplotlib.axis_1">
    <g id="xtick_1">
     <g id="line2d_1">
      <path clip-path="url(#p54178d528e)" d="M 48.22404 413.998125 
L 48.22404 22.318125 
" style="fill:none;stroke:#b0b0b0;stroke-linecap:square;stroke-opacity:0.6;stroke-width:0.8;"/>
     </g>
     <g id="line2d_2">
      <defs>
       <path d="M 0 0 
L 0 3.5 
" id="m5dae881f12" style="stroke:#000000;stroke-width:0.8;"/>
      </defs>
      <g>
       <use style="stroke:#000000;stroke-width:0.8;" x="48.22404" xlink:href="#m5dae881f12" y="413.998125"/>
      </g>
     </g>
     <g id="text_1">
      <!-- 2020-04 -->
      <g transform="translate(10.999219 448.469971)rotate(-30)scale(0.1 -0.1)">
       <defs>
        <path d="M 19.1875 8.296875 
L 53.609375 8.296875 
L 53.609375 0 
L 7.328125 0 
L 7.328125 8.296875 
Q 12.9375 14.109375 22.625 23.890625 
Q 32.328125 33.6875 34.8125 36.53125 
Q 39.546875 41.84375 41.421875 45.53125 
Q 43.3125 49.21875 43.3125 52.78125 
Q 43.3125 58.59375 39.234375 62.25 
Q 35.15625 65.921875 28.609375 65.921875 
Q 23.96875 65.921875 18.8125 64.3125 
Q 13.671875 62.703125 7.8125 59.421875 
L 7.8125 69.390625 
Q 13.765625 71.78125 18.9375 73 
Q 24.125 74.21875 28.421875 74.21875 
Q 39.75 74.21875 46.484375 68.546875 
Q 53.21875 62.890625 53.21875 53.421875 
Q 53.21875 48.921875 51.53125 44.890625 
Q 49.859375 40.875 45.40625 35.40625 
Q 44.1875 33.984375 37.640625 27.21875 
Q 31.109375 20.453125 19.1875 8.296875 
z
" id="DejaVuSans-50"/>
        <path d="M 31.78125 66.40625 
Q 24.171875 66.40625 20.328125 58.90625 
Q 16.5 51.421875 16.5 36.375 
Q 16.5 21.390625 20.328125 13.890625 
Q 24.171875 6.390625 31.78125 6.390625 
Q 39.453125 6.390625 43.28125 13.890625 
Q 47.125 21.390625 47.125 36.375 
Q 47.125 51.421875 43.28125 58.90625 
Q 39.453125 66.40625 31.78125 66.40625 
z
M 31.78125 74.21875 
Q 44.046875 74.21875 50.515625 64.515625 
Q 56.984375 54.828125 56.984375 36.375 
Q 56.984375 17.96875 50.515625 8.265625 
Q 44.046875 -1.421875 31.78125 -1.421875 
Q 19.53125 -1.421875 13.0625 8.265625 
Q 6.59375 17.96875 6.59375 36.375 
Q 6.59375 54.828125 13.0625 64.515625 
Q 19.53125 74.21875 31.78125 74.21875 
z
" id="DejaVuSans-48"/>
        <path d="M 4.890625 31.390625 
L 31.203125 31.390625 
L 31.203125 23.390625 
L 4.890625 23.390625 
z
" id="DejaVuSans-45"/>
        <path d="M 37.796875 64.3125 
L 12.890625 25.390625 
L 37.796875 25.390625 
z
M 35.203125 72.90625 
L 47.609375 72.90625 
L 47.609375 25.390625 
L 58.015625 25.390625 
L 58.015625 17.1875 
L 47.609375 17.1875 
L 47.609375 0 
L 37.796875 0 
L 37.796875 17.1875 
L 4.890625 17.1875 
L 4.890625 26.703125 
z
" id="DejaVuSans-52"/>
       </defs>
       <use xlink:href="#DejaVuSans-50"/>
       <use x="63.623047" xlink:href="#DejaVuSans-48"/>
       <use x="127.246094" xlink:href="#DejaVuSans-50"/>
       <use x="190.869141" xlink:href="#DejaVuSans-48"/>
       <use x="254.492188" xlink:href="#DejaVuSans-45"/>
       <use x="290.576172" xlink:href="#DejaVuSans-48"/>
       <use x="354.199219" xlink:href="#DejaVuSans-52"/>
      </g>
     </g>
    </g>
    <g id="xtick_2">
     <g id="line2d_3">
      <path clip-path="url(#p54178d528e)" d="M 75.475491 413.998125 
L 75.475491 22.318125 
" style="fill:none;stroke:#b0b0b0;stroke-linecap:square;stroke-opacity:0.6;stroke-width:0.8;"/>
     </g>
     <g id="line2d_4">
      <g>
       <use style="stroke:#000000;stroke-width:0.8;" x="75.475491" xlink:href="#m5dae881f12" y="413.998125"/>
      </g>
     </g>
     <g id="text_2">
      <!-- 2020-05 -->
      <g transform="translate(38.25067 448.469971)rotate(-30)scale(0.1 -0.1)">
       <defs>
        <path d="M 10.796875 72.90625 
L 49.515625 72.90625 
L 49.515625 64.59375 
L 19.828125 64.59375 
L 19.828125 46.734375 
Q 21.96875 47.46875 24.109375 47.828125 
Q 26.265625 48.1875 28.421875 48.1875 
Q 40.625 48.1875 47.75 41.5 
Q 54.890625 34.8125 54.890625 23.390625 
Q 54.890625 11.625 47.5625 5.09375 
Q 40.234375 -1.421875 26.90625 -1.421875 
Q 22.3125 -1.421875 17.546875 -0.640625 
Q 12.796875 0.140625 7.71875 1.703125 
L 7.71875 11.625 
Q 12.109375 9.234375 16.796875 8.0625 
Q 21.484375 6.890625 26.703125 6.890625 
Q 35.15625 6.890625 40.078125 11.328125 
Q 45.015625 15.765625 45.015625 23.390625 
Q 45.015625 31 40.078125 35.4375 
Q 35.15625 39.890625 26.703125 39.890625 
Q 22.75 39.890625 18.8125 39.015625 
Q 14.890625 38.140625 10.796875 36.28125 
z
" id="DejaVuSans-53"/>
       </defs>
       <use xlink:href="#DejaVuSans-50"/>
       <use x="63.623047" xlink:href="#DejaVuSans-48"/>
       <use x="127.246094" xlink:href="#DejaVuSans-50"/>
       <use x="190.869141" xlink:href="#DejaVuSans-48"/>
       <use x="254.492188" xlink:href="#DejaVuSans-45"/>
       <use x="290.576172" xlink:href="#DejaVuSans-48"/>
       <use x="354.199219" xlink:href="#DejaVuSans-53"/>
      </g>
     </g>
    </g>
    <g id="xtick_3">
     <g id="line2d_5">
      <path clip-path="url(#p54178d528e)" d="M 101.847864 413.998125 
L 101.847864 22.318125 
" style="fill:none;stroke:#b0b0b0;stroke-linecap:square;stroke-opacity:0.6;stroke-width:0.8;"/>
     </g>
     <g id="line2d_6">
      <g>
       <use style="stroke:#000000;stroke-width:0.8;" x="101.847864" xlink:href="#m5dae881f12" y="413.998125"/>
      </g>
     </g>
     <g id="text_3">
      <!-- 2020-06 -->
      <g transform="translate(64.623043 448.469971)rotate(-30)scale(0.1 -0.1)">
       <defs>
        <path d="M 33.015625 40.375 
Q 26.375 40.375 22.484375 35.828125 
Q 18.609375 31.296875 18.609375 23.390625 
Q 18.609375 15.53125 22.484375 10.953125 
Q 26.375 6.390625 33.015625 6.390625 
Q 39.65625 6.390625 43.53125 10.953125 
Q 47.40625 15.53125 47.40625 23.390625 
Q 47.40625 31.296875 43.53125 35.828125 
Q 39.65625 40.375 33.015625 40.375 
z
M 52.59375 71.296875 
L 52.59375 62.3125 
Q 48.875 64.0625 45.09375 64.984375 
Q 41.3125 65.921875 37.59375 65.921875 
Q 27.828125 65.921875 22.671875 59.328125 
Q 17.53125 52.734375 16.796875 39.40625 
Q 19.671875 43.65625 24.015625 45.921875 
Q 28.375 48.1875 33.59375 48.1875 
Q 44.578125 48.1875 50.953125 41.515625 
Q 57.328125 34.859375 57.328125 23.390625 
Q 57.328125 12.15625 50.6875 5.359375 
Q 44.046875 -1.421875 33.015625 -1.421875 
Q 20.359375 -1.421875 13.671875 8.265625 
Q 6.984375 17.96875 6.984375 36.375 
Q 6.984375 53.65625 15.1875 63.9375 
Q 23.390625 74.21875 37.203125 74.21875 
Q 40.921875 74.21875 44.703125 73.484375 
Q 48.484375 72.75 52.59375 71.296875 
z
" id="DejaVuSans-54"/>
       </defs>
       <use xlink:href="#DejaVuSans-50"/>
       <use x="63.623047" xlink:href="#DejaVuSans-48"/>
       <use x="127.246094" xlink:href="#DejaVuSans-50"/>
       <use x="190.869141" xlink:href="#DejaVuSans-48"/>
       <use x="254.492188" xlink:href="#DejaVuSans-45"/>
       <use x="290.576172" xlink:href="#DejaVuSans-48"/>
       <use x="354.199219" xlink:href="#DejaVuSans-54"/>
      </g>
     </g>
    </g>
    <g id="xtick_4">
     <g id="line2d_7">
      <path clip-path="url(#p54178d528e)" d="M 129.099315 413.998125 
L 129.099315 22.318125 
" style="fill:none;stroke:#b0b0b0;stroke-linecap:square;stroke-opacity:0.6;stroke-width:0.8;"/>
     </g>
     <g id="line2d_8">
      <g>
       <use style="stroke:#000000;stroke-width:0.8;" x="129.099315" xlink:href="#m5dae881f12" y="413.998125"/>
      </g>
     </g>
     <g id="text_4">
      <!-- 2020-07 -->
      <g transform="translate(91.874494 448.469971)rotate(-30)scale(0.1 -0.1)">
       <defs>
        <path d="M 8.203125 72.90625 
L 55.078125 72.90625 
L 55.078125 68.703125 
L 28.609375 0 
L 18.3125 0 
L 43.21875 64.59375 
L 8.203125 64.59375 
z
" id="DejaVuSans-55"/>
       </defs>
       <use xlink:href="#DejaVuSans-50"/>
       <use x="63.623047" xlink:href="#DejaVuSans-48"/>
       <use x="127.246094" xlink:href="#DejaVuSans-50"/>
       <use x="190.869141" xlink:href="#DejaVuSans-48"/>
       <use x="254.492188" xlink:href="#DejaVuSans-45"/>
       <use x="290.576172" xlink:href="#DejaVuSans-48"/>
       <use x="354.199219" xlink:href="#DejaVuSans-55"/>
      </g>
     </g>
    </g>
    <g id="xtick_5">
     <g id="line2d_9">
      <path clip-path="url(#p54178d528e)" d="M 156.350767 413.998125 
L 156.350767 22.318125 
" style="fill:none;stroke:#b0b0b0;stroke-linecap:square;stroke-opacity:0.6;stroke-width:0.8;"/>
     </g>
     <g id="line2d_10">
      <g>
       <use style="stroke:#000000;stroke-width:0.8;" x="156.350767" xlink:href="#m5dae881f12" y="413.998125"/>
      </g>
     </g>
     <g id="text_5">
      <!-- 2020-08 -->
      <g transform="translate(119.125946 448.469971)rotate(-30)scale(0.1 -0.1)">
       <defs>
        <path d="M 31.78125 34.625 
Q 24.75 34.625 20.71875 30.859375 
Q 16.703125 27.09375 16.703125 20.515625 
Q 16.703125 13.921875 20.71875 10.15625 
Q 24.75 6.390625 31.78125 6.390625 
Q 38.8125 6.390625 42.859375 10.171875 
Q 46.921875 13.96875 46.921875 20.515625 
Q 46.921875 27.09375 42.890625 30.859375 
Q 38.875 34.625 31.78125 34.625 
z
M 21.921875 38.8125 
Q 15.578125 40.375 12.03125 44.71875 
Q 8.5 49.078125 8.5 55.328125 
Q 8.5 64.0625 14.71875 69.140625 
Q 20.953125 74.21875 31.78125 74.21875 
Q 42.671875 74.21875 48.875 69.140625 
Q 55.078125 64.0625 55.078125 55.328125 
Q 55.078125 49.078125 51.53125 44.71875 
Q 48 40.375 41.703125 38.8125 
Q 48.828125 37.15625 52.796875 32.3125 
Q 56.78125 27.484375 56.78125 20.515625 
Q 56.78125 9.90625 50.3125 4.234375 
Q 43.84375 -1.421875 31.78125 -1.421875 
Q 19.734375 -1.421875 13.25 4.234375 
Q 6.78125 9.90625 6.78125 20.515625 
Q 6.78125 27.484375 10.78125 32.3125 
Q 14.796875 37.15625 21.921875 38.8125 
z
M 18.3125 54.390625 
Q 18.3125 48.734375 21.84375 45.5625 
Q 25.390625 42.390625 31.78125 42.390625 
Q 38.140625 42.390625 41.71875 45.5625 
Q 45.3125 48.734375 45.3125 54.390625 
Q 45.3125 60.0625 41.71875 63.234375 
Q 38.140625 66.40625 31.78125 66.40625 
Q 25.390625 66.40625 21.84375 63.234375 
Q 18.3125 60.0625 18.3125 54.390625 
z
" id="DejaVuSans-56"/>
       </defs>
       <use xlink:href="#DejaVuSans-50"/>
       <use x="63.623047" xlink:href="#DejaVuSans-48"/>
       <use x="127.246094" xlink:href="#DejaVuSans-50"/>
       <use x="190.869141" xlink:href="#DejaVuSans-48"/>
       <use x="254.492188" xlink:href="#DejaVuSans-45"/>
       <use x="290.576172" xlink:href="#DejaVuSans-48"/>
       <use x="354.199219" xlink:href="#DejaVuSans-56"/>
      </g>
     </g>
    </g>
    <g id="xtick_6">
     <g id="line2d_11">
      <path clip-path="url(#p54178d528e)" d="M 182.723139 413.998125 
L 182.723139 22.318125 
" style="fill:none;stroke:#b0b0b0;stroke-linecap:square;stroke-opacity:0.6;stroke-width:0.8;"/>
     </g>
     <g id="line2d_12">
      <g>
       <use style="stroke:#000000;stroke-width:0.8;" x="182.723139" xlink:href="#m5dae881f12" y="413.998125"/>
      </g>
     </g>
     <g id="text_6">
      <!-- 2020-09 -->
      <g transform="translate(145.498318 448.469971)rotate(-30)scale(0.1 -0.1)">
       <defs>
        <path d="M 10.984375 1.515625 
L 10.984375 10.5 
Q 14.703125 8.734375 18.5 7.8125 
Q 22.3125 6.890625 25.984375 6.890625 
Q 35.75 6.890625 40.890625 13.453125 
Q 46.046875 20.015625 46.78125 33.40625 
Q 43.953125 29.203125 39.59375 26.953125 
Q 35.25 24.703125 29.984375 24.703125 
Q 19.046875 24.703125 12.671875 31.3125 
Q 6.296875 37.9375 6.296875 49.421875 
Q 6.296875 60.640625 12.9375 67.421875 
Q 19.578125 74.21875 30.609375 74.21875 
Q 43.265625 74.21875 49.921875 64.515625 
Q 56.59375 54.828125 56.59375 36.375 
Q 56.59375 19.140625 48.40625 8.859375 
Q 40.234375 -1.421875 26.421875 -1.421875 
Q 22.703125 -1.421875 18.890625 -0.6875 
Q 15.09375 0.046875 10.984375 1.515625 
z
M 30.609375 32.421875 
Q 37.25 32.421875 41.125 36.953125 
Q 45.015625 41.5 45.015625 49.421875 
Q 45.015625 57.28125 41.125 61.84375 
Q 37.25 66.40625 30.609375 66.40625 
Q 23.96875 66.40625 20.09375 61.84375 
Q 16.21875 57.28125 16.21875 49.421875 
Q 16.21875 41.5 20.09375 36.953125 
Q 23.96875 32.421875 30.609375 32.421875 
z
" id="DejaVuSans-57"/>
       </defs>
       <use xlink:href="#DejaVuSans-50"/>
       <use x="63.623047" xlink:href="#DejaVuSans-48"/>
       <use x="127.246094" xlink:href="#DejaVuSans-50"/>
       <use x="190.869141" xlink:href="#DejaVuSans-48"/>
       <use x="254.492188" xlink:href="#DejaVuSans-45"/>
       <use x="290.576172" xlink:href="#DejaVuSans-48"/>
       <use x="354.199219" xlink:href="#DejaVuSans-57"/>
      </g>
     </g>
    </g>
    <g id="xtick_7">
     <g id="line2d_13">
      <path clip-path="url(#p54178d528e)" d="M 209.974591 413.998125 
L 209.974591 22.318125 
" style="fill:none;stroke:#b0b0b0;stroke-linecap:square;stroke-opacity:0.6;stroke-width:0.8;"/>
     </g>
     <g id="line2d_14">
      <g>
       <use style="stroke:#000000;stroke-width:0.8;" x="209.974591" xlink:href="#m5dae881f12" y="413.998125"/>
      </g>
     </g>
     <g id="text_7">
      <!-- 2020-10 -->
      <g transform="translate(172.74977 448.469971)rotate(-30)scale(0.1 -0.1)">
       <defs>
        <path d="M 12.40625 8.296875 
L 28.515625 8.296875 
L 28.515625 63.921875 
L 10.984375 60.40625 
L 10.984375 69.390625 
L 28.421875 72.90625 
L 38.28125 72.90625 
L 38.28125 8.296875 
L 54.390625 8.296875 
L 54.390625 0 
L 12.40625 0 
z
" id="DejaVuSans-49"/>
       </defs>
       <use xlink:href="#DejaVuSans-50"/>
       <use x="63.623047" xlink:href="#DejaVuSans-48"/>
       <use x="127.246094" xlink:href="#DejaVuSans-50"/>
       <use x="190.869141" xlink:href="#DejaVuSans-48"/>
       <use x="254.492188" xlink:href="#DejaVuSans-45"/>
       <use x="290.576172" xlink:href="#DejaVuSans-49"/>
       <use x="354.199219" xlink:href="#DejaVuSans-48"/>
      </g>
     </g>
    </g>
    <g id="xtick_8">
     <g id="line2d_15">
      <path clip-path="url(#p54178d528e)" d="M 236.346963 413.998125 
L 236.346963 22.318125 
" style="fill:none;stroke:#b0b0b0;stroke-linecap:square;stroke-opacity:0.6;stroke-width:0.8;"/>
     </g>
     <g id="line2d_16">
      <g>
       <use style="stroke:#000000;stroke-width:0.8;" x="236.346963" xlink:href="#m5dae881f12" y="413.998125"/>
      </g>
     </g>
     <g id="text_8">
      <!-- 2020-11 -->
      <g transform="translate(199.122143 448.469971)rotate(-30)scale(0.1 -0.1)">
       <use xlink:href="#DejaVuSans-50"/>
       <use x="63.623047" xlink:href="#DejaVuSans-48"/>
       <use x="127.246094" xlink:href="#DejaVuSans-50"/>
       <use x="190.869141" xlink:href="#DejaVuSans-48"/>
       <use x="254.492188" xlink:href="#DejaVuSans-45"/>
       <use x="290.576172" xlink:href="#DejaVuSans-49"/>
       <use x="354.199219" xlink:href="#DejaVuSans-49"/>
      </g>
     </g>
    </g>
    <g id="xtick_9">
     <g id="line2d_17">
      <path clip-path="url(#p54178d528e)" d="M 263.598415 413.998125 
L 263.598415 22.318125 
" style="fill:none;stroke:#b0b0b0;stroke-linecap:square;stroke-opacity:0.6;stroke-width:0.8;"/>
     </g>
     <g id="line2d_18">
      <g>
       <use style="stroke:#000000;stroke-width:0.8;" x="263.598415" xlink:href="#m5dae881f12" y="413.998125"/>
      </g>
     </g>
     <g id="text_9">
      <!-- 2020-12 -->
      <g transform="translate(226.373594 448.469971)rotate(-30)scale(0.1 -0.1)">
       <use xlink:href="#DejaVuSans-50"/>
       <use x="63.623047" xlink:href="#DejaVuSans-48"/>
       <use x="127.246094" xlink:href="#DejaVuSans-50"/>
       <use x="190.869141" xlink:href="#DejaVuSans-48"/>
       <use x="254.492188" xlink:href="#DejaVuSans-45"/>
       <use x="290.576172" xlink:href="#DejaVuSans-49"/>
       <use x="354.199219" xlink:href="#DejaVuSans-50"/>
      </g>
     </g>
    </g>
    <g id="xtick_10">
     <g id="line2d_19">
      <path clip-path="url(#p54178d528e)" d="M 290.849866 413.998125 
L 290.849866 22.318125 
" style="fill:none;stroke:#b0b0b0;stroke-linecap:square;stroke-opacity:0.6;stroke-width:0.8;"/>
     </g>
     <g id="line2d_20">
      <g>
       <use style="stroke:#000000;stroke-width:0.8;" x="290.849866" xlink:href="#m5dae881f12" y="413.998125"/>
      </g>
     </g>
     <g id="text_10">
      <!-- 2021-01 -->
      <g transform="translate(253.625046 448.469971)rotate(-30)scale(0.1 -0.1)">
       <use xlink:href="#DejaVuSans-50"/>
       <use x="63.623047" xlink:href="#DejaVuSans-48"/>
       <use x="127.246094" xlink:href="#DejaVuSans-50"/>
       <use x="190.869141" xlink:href="#DejaVuSans-49"/>
       <use x="254.492188" xlink:href="#DejaVuSans-45"/>
       <use x="290.576172" xlink:href="#DejaVuSans-48"/>
       <use x="354.199219" xlink:href="#DejaVuSans-49"/>
      </g>
     </g>
    </g>
    <g id="xtick_11">
     <g id="line2d_21">
      <path clip-path="url(#p54178d528e)" d="M 315.464081 413.998125 
L 315.464081 22.318125 
" style="fill:none;stroke:#b0b0b0;stroke-linecap:square;stroke-opacity:0.6;stroke-width:0.8;"/>
     </g>
     <g id="line2d_22">
      <g>
       <use style="stroke:#000000;stroke-width:0.8;" x="315.464081" xlink:href="#m5dae881f12" y="413.998125"/>
      </g>
     </g>
     <g id="text_11">
      <!-- 2021-02 -->
      <g transform="translate(278.23926 448.469971)rotate(-30)scale(0.1 -0.1)">
       <use xlink:href="#DejaVuSans-50"/>
       <use x="63.623047" xlink:href="#DejaVuSans-48"/>
       <use x="127.246094" xlink:href="#DejaVuSans-50"/>
       <use x="190.869141" xlink:href="#DejaVuSans-49"/>
       <use x="254.492188" xlink:href="#DejaVuSans-45"/>
       <use x="290.576172" xlink:href="#DejaVuSans-48"/>
       <use x="354.199219" xlink:href="#DejaVuSans-50"/>
      </g>
     </g>
    </g>
    <g id="xtick_12">
     <g id="line2d_23">
      <path clip-path="url(#p54178d528e)" d="M 342.715532 413.998125 
L 342.715532 22.318125 
" style="fill:none;stroke:#b0b0b0;stroke-linecap:square;stroke-opacity:0.6;stroke-width:0.8;"/>
     </g>
     <g id="line2d_24">
      <g>
       <use style="stroke:#000000;stroke-width:0.8;" x="342.715532" xlink:href="#m5dae881f12" y="413.998125"/>
      </g>
     </g>
     <g id="text_12">
      <!-- 2021-03 -->
      <g transform="translate(305.490712 448.469971)rotate(-30)scale(0.1 -0.1)">
       <defs>
        <path d="M 40.578125 39.3125 
Q 47.65625 37.796875 51.625 33 
Q 55.609375 28.21875 55.609375 21.1875 
Q 55.609375 10.40625 48.1875 4.484375 
Q 40.765625 -1.421875 27.09375 -1.421875 
Q 22.515625 -1.421875 17.65625 -0.515625 
Q 12.796875 0.390625 7.625 2.203125 
L 7.625 11.71875 
Q 11.71875 9.328125 16.59375 8.109375 
Q 21.484375 6.890625 26.8125 6.890625 
Q 36.078125 6.890625 40.9375 10.546875 
Q 45.796875 14.203125 45.796875 21.1875 
Q 45.796875 27.640625 41.28125 31.265625 
Q 36.765625 34.90625 28.71875 34.90625 
L 20.21875 34.90625 
L 20.21875 43.015625 
L 29.109375 43.015625 
Q 36.375 43.015625 40.234375 45.921875 
Q 44.09375 48.828125 44.09375 54.296875 
Q 44.09375 59.90625 40.109375 62.90625 
Q 36.140625 65.921875 28.71875 65.921875 
Q 24.65625 65.921875 20.015625 65.03125 
Q 15.375 64.15625 9.8125 62.3125 
L 9.8125 71.09375 
Q 15.4375 72.65625 20.34375 73.4375 
Q 25.25 74.21875 29.59375 74.21875 
Q 40.828125 74.21875 47.359375 69.109375 
Q 53.90625 64.015625 53.90625 55.328125 
Q 53.90625 49.265625 50.4375 45.09375 
Q 46.96875 40.921875 40.578125 39.3125 
z
" id="DejaVuSans-51"/>
       </defs>
       <use xlink:href="#DejaVuSans-50"/>
       <use x="63.623047" xlink:href="#DejaVuSans-48"/>
       <use x="127.246094" xlink:href="#DejaVuSans-50"/>
       <use x="190.869141" xlink:href="#DejaVuSans-49"/>
       <use x="254.492188" xlink:href="#DejaVuSans-45"/>
       <use x="290.576172" xlink:href="#DejaVuSans-48"/>
       <use x="354.199219" xlink:href="#DejaVuSans-51"/>
      </g>
     </g>
    </g>
    <g id="xtick_13">
     <g id="line2d_25">
      <path clip-path="url(#p54178d528e)" d="M 369.087905 413.998125 
L 369.087905 22.318125 
" style="fill:none;stroke:#b0b0b0;stroke-linecap:square;stroke-opacity:0.6;stroke-width:0.8;"/>
     </g>
     <g id="line2d_26">
      <g>
       <use style="stroke:#000000;stroke-width:0.8;" x="369.087905" xlink:href="#m5dae881f12" y="413.998125"/>
      </g>
     </g>
     <g id="text_13">
      <!-- 2021-04 -->
      <g transform="translate(331.863084 448.469971)rotate(-30)scale(0.1 -0.1)">
       <use xlink:href="#DejaVuSans-50"/>
       <use x="63.623047" xlink:href="#DejaVuSans-48"/>
       <use x="127.246094" xlink:href="#DejaVuSans-50"/>
       <use x="190.869141" xlink:href="#DejaVuSans-49"/>
       <use x="254.492188" xlink:href="#DejaVuSans-45"/>
       <use x="290.576172" xlink:href="#DejaVuSans-48"/>
       <use x="354.199219" xlink:href="#DejaVuSans-52"/>
      </g>
     </g>
    </g>
    <g id="xtick_14">
     <g id="line2d_27">
      <path clip-path="url(#p54178d528e)" d="M 396.339356 413.998125 
L 396.339356 22.318125 
" style="fill:none;stroke:#b0b0b0;stroke-linecap:square;stroke-opacity:0.6;stroke-width:0.8;"/>
     </g>
     <g id="line2d_28">
      <g>
       <use style="stroke:#000000;stroke-width:0.8;" x="396.339356" xlink:href="#m5dae881f12" y="413.998125"/>
      </g>
     </g>
     <g id="text_14">
      <!-- 2021-05 -->
      <g transform="translate(359.114536 448.469971)rotate(-30)scale(0.1 -0.1)">
       <use xlink:href="#DejaVuSans-50"/>
       <use x="63.623047" xlink:href="#DejaVuSans-48"/>
       <use x="127.246094" xlink:href="#DejaVuSans-50"/>
       <use x="190.869141" xlink:href="#DejaVuSans-49"/>
       <use x="254.492188" xlink:href="#DejaVuSans-45"/>
       <use x="290.576172" xlink:href="#DejaVuSans-48"/>
       <use x="354.199219" xlink:href="#DejaVuSans-53"/>
      </g>
     </g>
    </g>
    <g id="xtick_15">
     <g id="line2d_29">
      <path clip-path="url(#p54178d528e)" d="M 422.711729 413.998125 
L 422.711729 22.318125 
" style="fill:none;stroke:#b0b0b0;stroke-linecap:square;stroke-opacity:0.6;stroke-width:0.8;"/>
     </g>
     <g id="line2d_30">
      <g>
       <use style="stroke:#000000;stroke-width:0.8;" x="422.711729" xlink:href="#m5dae881f12" y="413.998125"/>
      </g>
     </g>
     <g id="text_15">
      <!-- 2021-06 -->
      <g transform="translate(385.486908 448.469971)rotate(-30)scale(0.1 -0.1)">
       <use xlink:href="#DejaVuSans-50"/>
       <use x="63.623047" xlink:href="#DejaVuSans-48"/>
       <use x="127.246094" xlink:href="#DejaVuSans-50"/>
       <use x="190.869141" xlink:href="#DejaVuSans-49"/>
       <use x="254.492188" xlink:href="#DejaVuSans-45"/>
       <use x="290.576172" xlink:href="#DejaVuSans-48"/>
       <use x="354.199219" xlink:href="#DejaVuSans-54"/>
      </g>
     </g>
    </g>
    <g id="xtick_16">
     <g id="line2d_31">
      <path clip-path="url(#p54178d528e)" d="M 449.96318 413.998125 
L 449.96318 22.318125 
" style="fill:none;stroke:#b0b0b0;stroke-linecap:square;stroke-opacity:0.6;stroke-width:0.8;"/>
     </g>
     <g id="line2d_32">
      <g>
       <use style="stroke:#000000;stroke-width:0.8;" x="449.96318" xlink:href="#m5dae881f12" y="413.998125"/>
      </g>
     </g>
     <g id="text_16">
      <!-- 2021-07 -->
      <g transform="translate(412.73836 448.469971)rotate(-30)scale(0.1 -0.1)">
       <use xlink:href="#DejaVuSans-50"/>
       <use x="63.623047" xlink:href="#DejaVuSans-48"/>
       <use x="127.246094" xlink:href="#DejaVuSans-50"/>
       <use x="190.869141" xlink:href="#DejaVuSans-49"/>
       <use x="254.492188" xlink:href="#DejaVuSans-45"/>
       <use x="290.576172" xlink:href="#DejaVuSans-48"/>
       <use x="354.199219" xlink:href="#DejaVuSans-55"/>
      </g>
     </g>
    </g>
    <g id="xtick_17">
     <g id="line2d_33">
      <path clip-path="url(#p54178d528e)" d="M 477.214632 413.998125 
L 477.214632 22.318125 
" style="fill:none;stroke:#b0b0b0;stroke-linecap:square;stroke-opacity:0.6;stroke-width:0.8;"/>
     </g>
     <g id="line2d_34">
      <g>
       <use style="stroke:#000000;stroke-width:0.8;" x="477.214632" xlink:href="#m5dae881f12" y="413.998125"/>
      </g>
     </g>
     <g id="text_17">
      <!-- 2021-08 -->
      <g transform="translate(439.989811 448.469971)rotate(-30)scale(0.1 -0.1)">
       <use xlink:href="#DejaVuSans-50"/>
       <use x="63.623047" xlink:href="#DejaVuSans-48"/>
       <use x="127.246094" xlink:href="#DejaVuSans-50"/>
       <use x="190.869141" xlink:href="#DejaVuSans-49"/>
       <use x="254.492188" xlink:href="#DejaVuSans-45"/>
       <use x="290.576172" xlink:href="#DejaVuSans-48"/>
       <use x="354.199219" xlink:href="#DejaVuSans-56"/>
      </g>
     </g>
    </g>
    <g id="xtick_18">
     <g id="line2d_35">
      <path clip-path="url(#p54178d528e)" d="M 503.587005 413.998125 
L 503.587005 22.318125 
" style="fill:none;stroke:#b0b0b0;stroke-linecap:square;stroke-opacity:0.6;stroke-width:0.8;"/>
     </g>
     <g id="line2d_36">
      <g>
       <use style="stroke:#000000;stroke-width:0.8;" x="503.587005" xlink:href="#m5dae881f12" y="413.998125"/>
      </g>
     </g>
     <g id="text_18">
      <!-- 2021-09 -->
      <g transform="translate(466.362184 448.469971)rotate(-30)scale(0.1 -0.1)">
       <use xlink:href="#DejaVuSans-50"/>
       <use x="63.623047" xlink:href="#DejaVuSans-48"/>
       <use x="127.246094" xlink:href="#DejaVuSans-50"/>
       <use x="190.869141" xlink:href="#DejaVuSans-49"/>
       <use x="254.492188" xlink:href="#DejaVuSans-45"/>
       <use x="290.576172" xlink:href="#DejaVuSans-48"/>
       <use x="354.199219" xlink:href="#DejaVuSans-57"/>
      </g>
     </g>
    </g>
    <g id="xtick_19">
     <g id="line2d_37">
      <path clip-path="url(#p54178d528e)" d="M 530.838456 413.998125 
L 530.838456 22.318125 
" style="fill:none;stroke:#b0b0b0;stroke-linecap:square;stroke-opacity:0.6;stroke-width:0.8;"/>
     </g>
     <g id="line2d_38">
      <g>
       <use style="stroke:#000000;stroke-width:0.8;" x="530.838456" xlink:href="#m5dae881f12" y="413.998125"/>
      </g>
     </g>
     <g id="text_19">
      <!-- 2021-10 -->
      <g transform="translate(493.613635 448.469971)rotate(-30)scale(0.1 -0.1)">
       <use xlink:href="#DejaVuSans-50"/>
       <use x="63.623047" xlink:href="#DejaVuSans-48"/>
       <use x="127.246094" xlink:href="#DejaVuSans-50"/>
       <use x="190.869141" xlink:href="#DejaVuSans-49"/>
       <use x="254.492188" xlink:href="#DejaVuSans-45"/>
       <use x="290.576172" xlink:href="#DejaVuSans-49"/>
       <use x="354.199219" xlink:href="#DejaVuSans-48"/>
      </g>
     </g>
    </g>
    <g id="xtick_20">
     <g id="line2d_39">
      <path clip-path="url(#p54178d528e)" d="M 557.210829 413.998125 
L 557.210829 22.318125 
" style="fill:none;stroke:#b0b0b0;stroke-linecap:square;stroke-opacity:0.6;stroke-width:0.8;"/>
     </g>
     <g id="line2d_40">
      <g>
       <use style="stroke:#000000;stroke-width:0.8;" x="557.210829" xlink:href="#m5dae881f12" y="413.998125"/>
      </g>
     </g>
     <g id="text_20">
      <!-- 2021-11 -->
      <g transform="translate(519.986008 448.469971)rotate(-30)scale(0.1 -0.1)">
       <use xlink:href="#DejaVuSans-50"/>
       <use x="63.623047" xlink:href="#DejaVuSans-48"/>
       <use x="127.246094" xlink:href="#DejaVuSans-50"/>
       <use x="190.869141" xlink:href="#DejaVuSans-49"/>
       <use x="254.492188" xlink:href="#DejaVuSans-45"/>
       <use x="290.576172" xlink:href="#DejaVuSans-49"/>
       <use x="354.199219" xlink:href="#DejaVuSans-49"/>
      </g>
     </g>
    </g>
    <g id="xtick_21">
     <g id="line2d_41">
      <path clip-path="url(#p54178d528e)" d="M 584.46228 413.998125 
L 584.46228 22.318125 
" style="fill:none;stroke:#b0b0b0;stroke-linecap:square;stroke-opacity:0.6;stroke-width:0.8;"/>
     </g>
     <g id="line2d_42">
      <g>
       <use style="stroke:#000000;stroke-width:0.8;" x="584.46228" xlink:href="#m5dae881f12" y="413.998125"/>
      </g>
     </g>
     <g id="text_21">
      <!-- 2021-12 -->
      <g transform="translate(547.237459 448.469971)rotate(-30)scale(0.1 -0.1)">
       <use xlink:href="#DejaVuSans-50"/>
       <use x="63.623047" xlink:href="#DejaVuSans-48"/>
       <use x="127.246094" xlink:href="#DejaVuSans-50"/>
       <use x="190.869141" xlink:href="#DejaVuSans-49"/>
       <use x="254.492188" xlink:href="#DejaVuSans-45"/>
       <use x="290.576172" xlink:href="#DejaVuSans-49"/>
       <use x="354.199219" xlink:href="#DejaVuSans-50"/>
      </g>
     </g>
    </g>
    <g id="text_22">
     <!-- Date -->
     <g transform="translate(314.756853 461.869471)scale(0.1 -0.1)">
      <defs>
       <path d="M 19.671875 64.796875 
L 19.671875 8.109375 
L 31.59375 8.109375 
Q 46.6875 8.109375 53.6875 14.9375 
Q 60.6875 21.78125 60.6875 36.53125 
Q 60.6875 51.171875 53.6875 57.984375 
Q 46.6875 64.796875 31.59375 64.796875 
z
M 9.8125 72.90625 
L 30.078125 72.90625 
Q 51.265625 72.90625 61.171875 64.09375 
Q 71.09375 55.28125 71.09375 36.53125 
Q 71.09375 17.671875 61.125 8.828125 
Q 51.171875 0 30.078125 0 
L 9.8125 0 
z
" id="DejaVuSans-68"/>
       <path d="M 34.28125 27.484375 
Q 23.390625 27.484375 19.1875 25 
Q 14.984375 22.515625 14.984375 16.5 
Q 14.984375 11.71875 18.140625 8.90625 
Q 21.296875 6.109375 26.703125 6.109375 
Q 34.1875 6.109375 38.703125 11.40625 
Q 43.21875 16.703125 43.21875 25.484375 
L 43.21875 27.484375 
z
M 52.203125 31.203125 
L 52.203125 0 
L 43.21875 0 
L 43.21875 8.296875 
Q 40.140625 3.328125 35.546875 0.953125 
Q 30.953125 -1.421875 24.3125 -1.421875 
Q 15.921875 -1.421875 10.953125 3.296875 
Q 6 8.015625 6 15.921875 
Q 6 25.140625 12.171875 29.828125 
Q 18.359375 34.515625 30.609375 34.515625 
L 43.21875 34.515625 
L 43.21875 35.40625 
Q 43.21875 41.609375 39.140625 45 
Q 35.0625 48.390625 27.6875 48.390625 
Q 23 48.390625 18.546875 47.265625 
Q 14.109375 46.140625 10.015625 43.890625 
L 10.015625 52.203125 
Q 14.9375 54.109375 19.578125 55.046875 
Q 24.21875 56 28.609375 56 
Q 40.484375 56 46.34375 49.84375 
Q 52.203125 43.703125 52.203125 31.203125 
z
" id="DejaVuSans-97"/>
       <path d="M 18.3125 70.21875 
L 18.3125 54.6875 
L 36.8125 54.6875 
L 36.8125 47.703125 
L 18.3125 47.703125 
L 18.3125 18.015625 
Q 18.3125 11.328125 20.140625 9.421875 
Q 21.96875 7.515625 27.59375 7.515625 
L 36.8125 7.515625 
L 36.8125 0 
L 27.59375 0 
Q 17.1875 0 13.234375 3.875 
Q 9.28125 7.765625 9.28125 18.015625 
L 9.28125 47.703125 
L 2.6875 47.703125 
L 2.6875 54.6875 
L 9.28125 54.6875 
L 9.28125 70.21875 
z
" id="DejaVuSans-116"/>
       <path d="M 56.203125 29.59375 
L 56.203125 25.203125 
L 14.890625 25.203125 
Q 15.484375 15.921875 20.484375 11.0625 
Q 25.484375 6.203125 34.421875 6.203125 
Q 39.59375 6.203125 44.453125 7.46875 
Q 49.3125 8.734375 54.109375 11.28125 
L 54.109375 2.78125 
Q 49.265625 0.734375 44.1875 -0.34375 
Q 39.109375 -1.421875 33.890625 -1.421875 
Q 20.796875 -1.421875 13.15625 6.1875 
Q 5.515625 13.8125 5.515625 26.8125 
Q 5.515625 40.234375 12.765625 48.109375 
Q 20.015625 56 32.328125 56 
Q 43.359375 56 49.78125 48.890625 
Q 56.203125 41.796875 56.203125 29.59375 
z
M 47.21875 32.234375 
Q 47.125 39.59375 43.09375 43.984375 
Q 39.0625 48.390625 32.421875 48.390625 
Q 24.90625 48.390625 20.390625 44.140625 
Q 15.875 39.890625 15.1875 32.171875 
z
" id="DejaVuSans-101"/>
      </defs>
      <use xlink:href="#DejaVuSans-68"/>
      <use x="77.001953" xlink:href="#DejaVuSans-97"/>
      <use x="138.28125" xlink:href="#DejaVuSans-116"/>
      <use x="177.490234" xlink:href="#DejaVuSans-101"/>
     </g>
    </g>
   </g>
   <g id="matplotlib.axis_2">
    <g id="ytick_1">
     <g id="line2d_43">
      <path clip-path="url(#p54178d528e)" d="M 47.707635 397.805677 
L 605.707635 397.805677 
" style="fill:none;stroke:#b0b0b0;stroke-linecap:square;stroke-opacity:0.6;stroke-width:0.8;"/>
     </g>
     <g id="line2d_44">
      <defs>
       <path d="M 0 0 
L -3.5 0 
" id="m686b1801a4" style="stroke:#000000;stroke-width:0.8;"/>
      </defs>
      <g>
       <use style="stroke:#000000;stroke-width:0.8;" x="47.707635" xlink:href="#m686b1801a4" y="397.805677"/>
      </g>
     </g>
     <g id="text_23">
      <!-- 0 -->
      <g transform="translate(34.345135 401.604896)scale(0.1 -0.1)">
       <use xlink:href="#DejaVuSans-48"/>
      </g>
     </g>
    </g>
    <g id="ytick_2">
     <g id="line2d_45">
      <path clip-path="url(#p54178d528e)" d="M 47.707635 317.246237 
L 605.707635 317.246237 
" style="fill:none;stroke:#b0b0b0;stroke-linecap:square;stroke-opacity:0.6;stroke-width:0.8;"/>
     </g>
     <g id="line2d_46">
      <g>
       <use style="stroke:#000000;stroke-width:0.8;" x="47.707635" xlink:href="#m686b1801a4" y="317.246237"/>
      </g>
     </g>
     <g id="text_24">
      <!-- 50 -->
      <g transform="translate(27.982635 321.045456)scale(0.1 -0.1)">
       <use xlink:href="#DejaVuSans-53"/>
       <use x="63.623047" xlink:href="#DejaVuSans-48"/>
      </g>
     </g>
    </g>
    <g id="ytick_3">
     <g id="line2d_47">
      <path clip-path="url(#p54178d528e)" d="M 47.707635 236.686796 
L 605.707635 236.686796 
" style="fill:none;stroke:#b0b0b0;stroke-linecap:square;stroke-opacity:0.6;stroke-width:0.8;"/>
     </g>
     <g id="line2d_48">
      <g>
       <use style="stroke:#000000;stroke-width:0.8;" x="47.707635" xlink:href="#m686b1801a4" y="236.686796"/>
      </g>
     </g>
     <g id="text_25">
      <!-- 100 -->
      <g transform="translate(21.620135 240.486015)scale(0.1 -0.1)">
       <use xlink:href="#DejaVuSans-49"/>
       <use x="63.623047" xlink:href="#DejaVuSans-48"/>
       <use x="127.246094" xlink:href="#DejaVuSans-48"/>
      </g>
     </g>
    </g>
    <g id="ytick_4">
     <g id="line2d_49">
      <path clip-path="url(#p54178d528e)" d="M 47.707635 156.127356 
L 605.707635 156.127356 
" style="fill:none;stroke:#b0b0b0;stroke-linecap:square;stroke-opacity:0.6;stroke-width:0.8;"/>
     </g>
     <g id="line2d_50">
      <g>
       <use style="stroke:#000000;stroke-width:0.8;" x="47.707635" xlink:href="#m686b1801a4" y="156.127356"/>
      </g>
     </g>
     <g id="text_26">
      <!-- 150 -->
      <g transform="translate(21.620135 159.926575)scale(0.1 -0.1)">
       <use xlink:href="#DejaVuSans-49"/>
       <use x="63.623047" xlink:href="#DejaVuSans-53"/>
       <use x="127.246094" xlink:href="#DejaVuSans-48"/>
      </g>
     </g>
    </g>
    <g id="ytick_5">
     <g id="line2d_51">
      <path clip-path="url(#p54178d528e)" d="M 47.707635 75.567915 
L 605.707635 75.567915 
" style="fill:none;stroke:#b0b0b0;stroke-linecap:square;stroke-opacity:0.6;stroke-width:0.8;"/>
     </g>
     <g id="line2d_52">
      <g>
       <use style="stroke:#000000;stroke-width:0.8;" x="47.707635" xlink:href="#m686b1801a4" y="75.567915"/>
      </g>
     </g>
     <g id="text_27">
      <!-- 200 -->
      <g transform="translate(21.620135 79.367134)scale(0.1 -0.1)">
       <use xlink:href="#DejaVuSans-50"/>
       <use x="63.623047" xlink:href="#DejaVuSans-48"/>
       <use x="127.246094" xlink:href="#DejaVuSans-48"/>
      </g>
     </g>
    </g>
    <g id="text_28">
     <!-- Count -->
     <g transform="translate(15.540447 233.006562)rotate(-90)scale(0.1 -0.1)">
      <defs>
       <path d="M 64.40625 67.28125 
L 64.40625 56.890625 
Q 59.421875 61.53125 53.78125 63.8125 
Q 48.140625 66.109375 41.796875 66.109375 
Q 29.296875 66.109375 22.65625 58.46875 
Q 16.015625 50.828125 16.015625 36.375 
Q 16.015625 21.96875 22.65625 14.328125 
Q 29.296875 6.6875 41.796875 6.6875 
Q 48.140625 6.6875 53.78125 8.984375 
Q 59.421875 11.28125 64.40625 15.921875 
L 64.40625 5.609375 
Q 59.234375 2.09375 53.4375 0.328125 
Q 47.65625 -1.421875 41.21875 -1.421875 
Q 24.65625 -1.421875 15.125 8.703125 
Q 5.609375 18.84375 5.609375 36.375 
Q 5.609375 53.953125 15.125 64.078125 
Q 24.65625 74.21875 41.21875 74.21875 
Q 47.75 74.21875 53.53125 72.484375 
Q 59.328125 70.75 64.40625 67.28125 
z
" id="DejaVuSans-67"/>
       <path d="M 30.609375 48.390625 
Q 23.390625 48.390625 19.1875 42.75 
Q 14.984375 37.109375 14.984375 27.296875 
Q 14.984375 17.484375 19.15625 11.84375 
Q 23.34375 6.203125 30.609375 6.203125 
Q 37.796875 6.203125 41.984375 11.859375 
Q 46.1875 17.53125 46.1875 27.296875 
Q 46.1875 37.015625 41.984375 42.703125 
Q 37.796875 48.390625 30.609375 48.390625 
z
M 30.609375 56 
Q 42.328125 56 49.015625 48.375 
Q 55.71875 40.765625 55.71875 27.296875 
Q 55.71875 13.875 49.015625 6.21875 
Q 42.328125 -1.421875 30.609375 -1.421875 
Q 18.84375 -1.421875 12.171875 6.21875 
Q 5.515625 13.875 5.515625 27.296875 
Q 5.515625 40.765625 12.171875 48.375 
Q 18.84375 56 30.609375 56 
z
" id="DejaVuSans-111"/>
       <path d="M 8.5 21.578125 
L 8.5 54.6875 
L 17.484375 54.6875 
L 17.484375 21.921875 
Q 17.484375 14.15625 20.5 10.265625 
Q 23.53125 6.390625 29.59375 6.390625 
Q 36.859375 6.390625 41.078125 11.03125 
Q 45.3125 15.671875 45.3125 23.6875 
L 45.3125 54.6875 
L 54.296875 54.6875 
L 54.296875 0 
L 45.3125 0 
L 45.3125 8.40625 
Q 42.046875 3.421875 37.71875 1 
Q 33.40625 -1.421875 27.6875 -1.421875 
Q 18.265625 -1.421875 13.375 4.4375 
Q 8.5 10.296875 8.5 21.578125 
z
M 31.109375 56 
z
" id="DejaVuSans-117"/>
       <path d="M 54.890625 33.015625 
L 54.890625 0 
L 45.90625 0 
L 45.90625 32.71875 
Q 45.90625 40.484375 42.875 44.328125 
Q 39.84375 48.1875 33.796875 48.1875 
Q 26.515625 48.1875 22.3125 43.546875 
Q 18.109375 38.921875 18.109375 30.90625 
L 18.109375 0 
L 9.078125 0 
L 9.078125 54.6875 
L 18.109375 54.6875 
L 18.109375 46.1875 
Q 21.34375 51.125 25.703125 53.5625 
Q 30.078125 56 35.796875 56 
Q 45.21875 56 50.046875 50.171875 
Q 54.890625 44.34375 54.890625 33.015625 
z
" id="DejaVuSans-110"/>
      </defs>
      <use xlink:href="#DejaVuSans-67"/>
      <use x="69.824219" xlink:href="#DejaVuSans-111"/>
      <use x="131.005859" xlink:href="#DejaVuSans-117"/>
      <use x="194.384766" xlink:href="#DejaVuSans-110"/>
      <use x="257.763672" xlink:href="#DejaVuSans-116"/>
     </g>
    </g>
   </g>
   <g id="line2d_53">
    <path clip-path="url(#p54178d528e)" d="M 580.343998 372.026656 
L 580.343927 370.415468 
L 558.244164 370.415468 
L 559.024743 370.415468 
L 558.1594 372.026656 
L 526.588058 372.026656 
L 525.810236 373.637845 
L 511.447691 373.637845 
L 511.254579 372.026656 
L 480.81734 372.026656 
L 480.817066 373.637845 
L 394.716112 373.637845 
L 394.584139 375.249034 
L 389.256482 375.249034 
L 389.256217 376.860223 
L 372.809136 376.860223 
L 371.940761 378.471412 
L 367.575329 378.471412 
L 367.151153 376.860223 
L 317.515072 376.860223 
L 317.474537 378.471412 
L 309.147979 378.471412 
L 308.255775 380.082601 
L 286.772028 380.082601 
L 286.743509 378.471412 
L 281.400987 378.471412 
L 281.379275 380.082601 
L 274.160947 380.082601 
L 273.570082 381.693789 
L 263.870176 381.693789 
L 263.813677 383.304978 
L 260.463928 383.304978 
L 260.23257 384.916167 
L 253.368386 384.916167 
L 253.36162 386.527356 
L 239.008335 386.527356 
L 237.047408 388.138545 
L 149.429484 388.138545 
L 149.386761 389.749733 
L 134.653335 389.749733 
L 134.625273 391.360922 
L 113.898776 391.360922 
L 113.306446 392.972111 
L 90.644662 392.972111 
L 89.785952 394.5833 
L 73.98472 394.5833 
L 73.071271 396.194489 
L 73.071271 396.194489 
" style="fill:none;stroke:#1f77b4;stroke-linecap:square;stroke-opacity:0.8;stroke-width:1.5;"/>
   </g>
   <g id="line2d_54">
    <path clip-path="url(#p54178d528e)" d="M 580.343998 101.346936 
L 580.343927 77.179104 
L 576.70458 73.956726 
L 576.400789 73.956726 
L 575.326919 75.567915 
L 570.734575 75.567915 
L 570.646759 77.179104 
L 566.042511 77.179104 
L 565.319438 78.790293 
L 564.586261 77.179104 
L 561.704652 78.790293 
L 560.609314 78.790293 
L 560.608856 80.401482 
L 558.741179 80.401482 
L 558.244164 85.235048 
L 559.024743 85.235048 
L 557.829806 91.679803 
L 553.543553 91.679803 
L 551.317834 93.290992 
L 552.65143 93.290992 
L 548.613944 94.902181 
L 548.256482 99.735747 
L 548.25635 101.346936 
L 547.900231 101.346936 
L 546.88753 102.958125 
L 543.301895 101.346936 
L 543.039677 102.958125 
L 542.954689 101.346936 
L 541.66576 101.346936 
L 541.652828 62.678405 
L 540.554844 40.121761 
L 540.437674 41.73295 
L 535.323214 41.73295 
L 535.264568 48.177705 
L 533.672601 49.788894 
L 532.842136 53.011272 
L 526.588058 53.011272 
L 525.810236 54.622461 
L 516.725513 54.622461 
L 519.530905 56.233649 
L 517.774446 56.233649 
L 517.468854 57.844838 
L 517.413809 59.456027 
L 515.084352 61.067216 
L 514.923706 64.289594 
L 514.863564 67.511971 
L 514.402312 67.511971 
L 512.17633 70.734349 
L 512.17633 72.345538 
L 511.458212 73.956726 
L 511.447691 70.734349 
L 511.282365 67.511971 
L 511.254579 69.12316 
L 507.690096 69.12316 
L 507.774972 69.12316 
L 504.639681 70.734349 
L 483.574495 70.734349 
L 483.491196 72.345538 
L 482.614874 77.179104 
L 480.817584 77.179104 
L 480.81734 75.567915 
L 480.817066 77.179104 
L 476.162606 77.179104 
L 475.686489 78.790293 
L 472.01784 78.790293 
L 471.171584 80.401482 
L 471.164116 90.068615 
L 470.283734 91.679803 
L 470.283592 94.902181 
L 467.855858 94.902181 
L 467.816595 96.51337 
L 466.77921 96.51337 
L 464.989165 98.124559 
L 463.153182 98.124559 
L 462.964343 99.735747 
L 462.960812 101.346936 
L 456.06405 101.346936 
L 456.063898 99.735747 
L 454.413162 99.735747 
L 454.412857 102.958125 
L 451.777054 106.180503 
L 443.996696 106.180503 
L 443.987895 109.40288 
L 443.148323 109.40288 
L 442.332326 111.014069 
L 441.294769 111.014069 
L 441.276261 112.625258 
L 433.318164 112.625258 
L 432.614585 114.236447 
L 431.464457 115.847635 
L 428.098713 117.458824 
L 428.098713 117.458824 
L 426.439625 119.070013 
L 426.43934 120.681202 
L 419.972797 120.681202 
L 417.616733 122.292391 
L 414.172229 122.292391 
L 414.167172 123.90358 
L 407.919728 125.514768 
L 404.423414 127.125957 
L 400.900759 127.125957 
L 400.522023 128.737146 
L 398.176194 131.959524 
L 398.174821 133.570712 
L 390.312354 133.570712 
L 390.092055 136.79309 
L 389.256482 136.79309 
L 389.256217 140.015468 
L 388.33061 140.015468 
L 388.330366 138.404279 
L 387.770513 138.404279 
L 386.874961 140.015468 
L 386.874819 141.626656 
L 384.977219 143.237845 
L 384.977493 148.071412 
L 381.561335 148.071412 
L 376.257843 149.682601 
L 376.242093 152.904978 
L 373.684929 152.904978 
L 373.573955 154.516167 
L 372.913395 156.127356 
L 372.809136 160.960922 
L 371.940761 165.794489 
L 371.786362 165.794489 
L 370.755957 167.405677 
L 370.651892 169.016866 
L 369.063873 169.016866 
L 367.575329 170.628055 
L 367.151153 170.628055 
L 365.613508 172.239244 
L 361.038288 172.239244 
L 360.968663 173.850433 
L 356.804911 173.850433 
L 356.804911 173.850433 
L 356.193962 175.461622 
L 356.189271 162.572111 
L 356.171344 164.1833 
L 354.23912 170.628055 
L 347.039503 170.628055 
L 346.9239 175.461622 
L 346.915007 175.461622 
L 346.896133 181.906377 
L 346.513551 185.128754 
L 343.466779 185.128754 
L 342.006785 186.739943 
L 338.087537 186.739943 
L 338.0813 188.351132 
L 337.718487 191.57351 
L 336.363464 193.184698 
L 336.326713 198.018265 
L 335.900919 198.018265 
L 335.83218 199.629454 
L 333.75498 199.629454 
L 331.136942 201.240642 
L 330.641076 201.240642 
L 330.607459 202.851831 
L 330.307453 204.46302 
L 323.380086 204.46302 
L 322.344757 206.074209 
L 321.77304 207.685398 
L 320.101498 209.296587 
L 319.72563 209.296587 
L 317.898234 210.907775 
L 317.515072 210.907775 
L 317.474537 215.741342 
L 317.040481 217.352531 
L 317.040257 218.963719 
L 316.399059 218.963719 
L 313.780359 228.630852 
L 313.556174 227.019663 
L 312.749507 227.019663 
L 312.628908 228.630852 
L 312.043212 230.242041 
L 309.147979 230.242041 
L 308.255775 233.464419 
L 305.848584 233.464419 
L 303.226283 231.85323 
L 303.183916 233.464419 
L 302.595431 233.464419 
L 301.707521 235.075608 
L 299.874387 227.019663 
L 294.690282 227.019663 
L 293.543389 228.630852 
L 293.537 230.242041 
L 290.325583 230.242041 
L 290.320883 231.85323 
L 289.385182 231.85323 
L 289.05977 233.464419 
L 288.521518 233.464419 
L 288.505686 238.297985 
L 287.667153 238.297985 
L 287.665799 239.909174 
L 286.772028 239.909174 
L 286.749766 236.686796 
L 286.743509 238.297985 
L 282.259046 238.297985 
L 281.400987 239.909174 
L 281.379275 241.520363 
L 276.985172 241.520363 
L 274.910311 235.075608 
L 274.160947 239.909174 
L 273.570082 246.353929 
L 268.879025 246.353929 
L 268.306423 247.965118 
L 267.184844 247.965118 
L 267.184559 251.187496 
L 266.618225 251.187496 
L 266.57132 252.798684 
L 264.820701 252.798684 
L 264.681066 256.021062 
L 264.64518 256.021062 
L 264.546742 257.632251 
L 264.432696 257.632251 
L 264.432512 260.854628 
L 263.870176 262.465817 
L 263.813677 264.077006 
L 261.980909 264.077006 
L 261.971101 265.688195 
L 261.701313 265.688195 
L 261.686143 272.13295 
L 260.990124 272.13295 
L 260.846368 273.744139 
L 260.463928 275.355328 
L 260.23257 278.577705 
L 260.046762 278.577705 
L 259.976924 283.411272 
L 259.233136 285.022461 
L 253.368386 285.022461 
L 253.36162 288.244838 
L 246.914776 288.244838 
L 246.872887 291.467216 
L 243.698547 291.467216 
L 243.695118 283.411272 
L 239.008335 283.411272 
L 237.047408 285.022461 
L 230.869466 286.633649 
L 226.832041 286.633649 
L 224.175015 288.244838 
L 221.419549 288.244838 
L 220.78529 289.856027 
L 219.072836 291.467216 
L 218.708923 293.078405 
L 218.708323 296.300782 
L 216.220326 296.300782 
L 214.167798 299.52316 
L 210.695883 299.52316 
L 210.695354 301.134349 
L 202.185126 301.134349 
L 198.341973 302.745538 
L 194.964977 302.745538 
L 194.894854 304.356726 
L 193.519889 305.967915 
L 191.69696 305.967915 
L 191.404544 307.579104 
L 191.404116 304.356726 
L 191.368923 305.967915 
L 190.97759 307.579104 
L 190.976379 310.801482 
L 173.361222 310.801482 
L 173.118305 314.023859 
L 173.053646 315.635048 
L 170.331268 315.635048 
L 164.08827 317.246237 
L 164.093093 318.857426 
L 164.086398 318.857426 
L 155.656701 318.857426 
L 155.393405 322.079803 
L 155.386018 323.690992 
L 150.465058 323.690992 
L 150.464885 325.302181 
L 150.25415 325.302181 
L 149.974564 326.91337 
L 149.386761 336.580503 
L 148.427171 336.580503 
L 147.355743 338.191691 
L 146.68985 338.191691 
L 146.461544 341.414069 
L 144.990389 343.025258 
L 141.436539 343.025258 
L 141.436183 346.247635 
L 137.908776 346.247635 
L 136.87015 347.858824 
L 136.812888 349.470013 
L 135.936739 349.470013 
L 135.394895 352.692391 
L 135.333186 354.30358 
L 134.653335 355.914768 
L 134.625273 357.525957 
L 122.940206 357.525957 
L 122.768786 360.748335 
L 121.117643 360.748335 
L 119.43089 362.359524 
L 117.798123 362.359524 
L 116.660224 363.970712 
L 115.772924 363.970712 
L 115.130677 365.581901 
L 114.911956 367.19309 
L 114.875002 367.19309 
L 114.809284 368.804279 
L 113.898776 370.415468 
L 113.306446 375.249034 
L 101.658923 375.249034 
L 100.106158 376.860223 
L 95.055177 376.860223 
L 95.055004 378.471412 
L 92.061943 378.471412 
L 91.259967 380.082601 
L 90.644662 380.082601 
L 89.785952 383.304978 
L 85.370747 383.304978 
L 84.903991 384.916167 
L 82.256966 384.916167 
L 82.243281 386.527356 
L 81.859182 388.138545 
L 80.146443 388.138545 
L 79.960422 389.749733 
L 75.380665 391.360922 
L 73.98472 391.360922 
L 73.071271 392.972111 
L 73.071271 392.972111 
" style="fill:none;stroke:#ff7f0e;stroke-linecap:square;stroke-opacity:0.8;stroke-width:1.5;"/>
   </g>
   <g id="line2d_55">
    <path clip-path="url(#p54178d528e)" d="M 580.343998 227.019663 
L 580.343927 222.186097 
L 576.400789 222.186097 
L 575.326919 223.797286 
L 570.734575 223.797286 
L 570.646759 225.408475 
L 566.042511 225.408475 
L 565.319438 227.019663 
L 560.609314 227.019663 
L 560.608856 228.630852 
L 558.244164 228.630852 
L 559.024743 228.630852 
L 558.1594 230.242041 
L 557.829806 231.85323 
L 553.543553 231.85323 
L 551.317834 233.464419 
L 552.65143 233.464419 
L 548.613944 235.075608 
L 548.25635 236.686796 
L 547.900231 236.686796 
L 546.88753 238.297985 
L 543.301895 236.686796 
L 543.039677 238.297985 
L 542.954689 236.686796 
L 541.66576 236.686796 
L 541.652828 210.907775 
L 540.554844 204.46302 
L 540.437674 206.074209 
L 535.323214 206.074209 
L 535.264568 207.685398 
L 533.672601 209.296587 
L 532.842136 210.907775 
L 516.725513 210.907775 
L 519.530905 212.518964 
L 517.774446 212.518964 
L 517.413809 214.130153 
L 514.971048 215.741342 
L 514.863564 217.352531 
L 513.322571 217.352531 
L 512.17633 218.963719 
L 512.17633 220.574908 
L 511.458212 222.186097 
L 511.447691 218.963719 
L 511.282365 215.741342 
L 511.254579 217.352531 
L 507.690096 217.352531 
L 507.774972 217.352531 
L 504.639681 218.963719 
L 483.574495 218.963719 
L 483.491196 220.574908 
L 476.162606 220.574908 
L 475.686489 222.186097 
L 472.01784 222.186097 
L 471.171584 223.797286 
L 471.164116 225.408475 
L 467.855858 225.408475 
L 467.816595 227.019663 
L 466.77921 227.019663 
L 464.989165 228.630852 
L 463.153182 228.630852 
L 462.964343 230.242041 
L 462.960812 231.85323 
L 456.06405 231.85323 
L 456.063898 230.242041 
L 454.413162 230.242041 
L 454.412857 231.85323 
L 451.622717 233.464419 
L 441.294769 233.464419 
L 441.276261 235.075608 
L 433.318164 235.075608 
L 432.614585 236.686796 
L 431.464457 238.297985 
L 428.098713 239.909174 
L 428.098713 239.909174 
L 426.439625 241.520363 
L 426.43934 243.131552 
L 419.972797 243.131552 
L 417.616733 244.74274 
L 414.172229 244.74274 
L 414.167172 246.353929 
L 407.919728 247.965118 
L 404.423414 249.576307 
L 400.900759 249.576307 
L 400.522023 251.187496 
L 398.176194 252.798684 
L 398.174821 254.409873 
L 389.256482 254.409873 
L 389.256217 257.632251 
L 387.770513 257.632251 
L 386.874961 259.24344 
L 386.874819 260.854628 
L 384.977219 262.465817 
L 384.977493 267.299384 
L 381.561335 267.299384 
L 376.257843 268.910573 
L 376.242093 270.521761 
L 373.684929 270.521761 
L 373.640303 272.13295 
L 373.573955 270.521761 
L 372.913395 270.521761 
L 372.809136 273.744139 
L 370.755957 273.744139 
L 370.651892 275.355328 
L 369.063873 275.355328 
L 367.575329 276.966517 
L 356.804911 276.966517 
L 356.804911 276.966517 
L 356.193962 278.577705 
L 356.189271 265.688195 
L 356.171344 267.299384 
L 354.118389 268.910573 
L 347.039503 268.910573 
L 346.9239 272.13295 
L 346.915007 272.13295 
L 346.896133 273.744139 
L 346.513551 275.355328 
L 338.087537 275.355328 
L 338.0813 276.966517 
L 337.718487 278.577705 
L 336.363464 280.188894 
L 336.326713 283.411272 
L 335.900919 283.411272 
L 335.83218 285.022461 
L 333.75498 285.022461 
L 331.136942 286.633649 
L 330.641076 286.633649 
L 330.607459 288.244838 
L 330.307453 289.856027 
L 323.380086 289.856027 
L 322.344757 291.467216 
L 321.77304 291.467216 
L 320.101498 293.078405 
L 319.72563 293.078405 
L 317.898234 294.689594 
L 317.474537 294.689594 
L 317.040481 296.300782 
L 317.040257 297.911971 
L 316.399059 297.911971 
L 313.780359 299.52316 
L 313.556174 297.911971 
L 312.749507 297.911971 
L 312.628908 299.52316 
L 312.043212 301.134349 
L 309.147979 301.134349 
L 308.255775 299.52316 
L 303.226283 299.52316 
L 303.183916 301.134349 
L 302.595431 301.134349 
L 301.707521 302.745538 
L 299.874387 297.911971 
L 294.690282 297.911971 
L 293.537 299.52316 
L 289.385182 299.52316 
L 289.05977 301.134349 
L 288.521518 301.134349 
L 288.505686 302.745538 
L 287.667153 302.745538 
L 287.665799 304.356726 
L 281.400987 304.356726 
L 281.379275 305.967915 
L 267.184844 305.967915 
L 267.184559 307.579104 
L 264.64518 307.579104 
L 264.546742 309.190293 
L 264.432512 309.190293 
L 263.813677 310.801482 
L 261.980909 310.801482 
L 261.971101 312.41267 
L 261.701313 312.41267 
L 261.686143 314.023859 
L 260.990124 314.023859 
L 260.846368 315.635048 
L 260.018335 315.635048 
L 259.976924 317.246237 
L 259.233136 318.857426 
L 253.361854 318.857426 
L 253.36162 320.468615 
L 246.914776 320.468615 
L 246.872887 322.079803 
L 243.698547 322.079803 
L 243.695118 317.246237 
L 239.008335 317.246237 
L 237.047408 318.857426 
L 226.832041 318.857426 
L 224.175015 320.468615 
L 221.419549 320.468615 
L 220.78529 322.079803 
L 219.072836 323.690992 
L 218.708923 323.690992 
L 218.708323 326.91337 
L 216.220326 326.91337 
L 214.167798 328.524559 
L 210.695883 328.524559 
L 210.695354 330.135747 
L 202.185126 330.135747 
L 198.341973 331.746936 
L 194.964977 331.746936 
L 194.894854 333.358125 
L 191.69696 333.358125 
L 191.404116 334.969314 
L 191.368923 336.580503 
L 190.97759 338.191691 
L 190.976379 341.414069 
L 173.118305 341.414069 
L 173.053646 343.025258 
L 170.331268 343.025258 
L 164.086398 344.636447 
L 155.656701 344.636447 
L 155.393405 346.247635 
L 155.386018 347.858824 
L 150.465058 347.858824 
L 150.464885 349.470013 
L 150.25415 349.470013 
L 149.974564 351.081202 
L 149.386761 352.692391 
L 148.427171 352.692391 
L 147.355743 354.30358 
L 146.68985 354.30358 
L 146.461544 355.914768 
L 144.990389 357.525957 
L 141.436539 357.525957 
L 141.436183 359.137146 
L 137.908776 359.137146 
L 136.87015 360.748335 
L 136.812888 362.359524 
L 135.936739 362.359524 
L 135.394895 363.970712 
L 135.333186 365.581901 
L 134.653335 367.19309 
L 134.625273 368.804279 
L 122.851718 368.804279 
L 122.768786 370.415468 
L 121.117643 370.415468 
L 119.43089 372.026656 
L 117.798123 372.026656 
L 116.660224 373.637845 
L 115.130677 373.637845 
L 114.911956 375.249034 
L 114.875002 375.249034 
L 114.809284 376.860223 
L 113.898776 376.860223 
L 113.306446 378.471412 
L 101.658923 378.471412 
L 100.106158 380.082601 
L 95.055177 380.082601 
L 95.055004 381.693789 
L 92.061943 381.693789 
L 91.259967 383.304978 
L 90.644662 383.304978 
L 89.785952 384.916167 
L 85.370747 384.916167 
L 84.903991 386.527356 
L 82.243281 386.527356 
L 81.859182 388.138545 
L 80.146443 388.138545 
L 79.960422 389.749733 
L 75.380665 391.360922 
L 73.98472 391.360922 
L 73.071271 392.972111 
L 73.071271 392.972111 
" style="fill:none;stroke:#2ca02c;stroke-linecap:square;stroke-opacity:0.8;stroke-width:1.5;"/>
   </g>
   <g id="patch_3">
    <path d="M 47.707635 413.998125 
L 47.707635 22.318125 
" style="fill:none;stroke:#000000;stroke-linecap:square;stroke-linejoin:miter;stroke-width:0.8;"/>
   </g>
   <g id="patch_4">
    <path d="M 605.707635 413.998125 
L 605.707635 22.318125 
" style="fill:none;stroke:#000000;stroke-linecap:square;stroke-linejoin:miter;stroke-width:0.8;"/>
   </g>
   <g id="patch_5">
    <path d="M 47.707635 413.998125 
L 605.707635 413.998125 
" style="fill:none;stroke:#000000;stroke-linecap:square;stroke-linejoin:miter;stroke-width:0.8;"/>
   </g>
   <g id="patch_6">
    <path d="M 47.707635 22.318125 
L 605.707635 22.318125 
" style="fill:none;stroke:#000000;stroke-linecap:square;stroke-linejoin:miter;stroke-width:0.8;"/>
   </g>
   <g id="text_29">
    <!-- 16 -->
    <g transform="translate(580.343998 372.026656)scale(0.1 -0.1)">
     <use xlink:href="#DejaVuSans-49"/>
     <use x="63.623047" xlink:href="#DejaVuSans-54"/>
    </g>
   </g>
   <g id="text_30">
    <!-- 184 -->
    <g transform="translate(580.343998 101.346936)scale(0.1 -0.1)">
     <use xlink:href="#DejaVuSans-49"/>
     <use x="63.623047" xlink:href="#DejaVuSans-56"/>
     <use x="127.246094" xlink:href="#DejaVuSans-52"/>
    </g>
   </g>
   <g id="text_31">
    <!-- 106 -->
    <g transform="translate(580.343998 227.019663)scale(0.1 -0.1)">
     <use xlink:href="#DejaVuSans-49"/>
     <use x="63.623047" xlink:href="#DejaVuSans-48"/>
     <use x="127.246094" xlink:href="#DejaVuSans-54"/>
    </g>
   </g>
   <g id="text_32">
    <!-- Peers over time -->
    <g transform="translate(279.581385 16.318125)scale(0.12 -0.12)">
     <defs>
      <path d="M 19.671875 64.796875 
L 19.671875 37.40625 
L 32.078125 37.40625 
Q 38.96875 37.40625 42.71875 40.96875 
Q 46.484375 44.53125 46.484375 51.125 
Q 46.484375 57.671875 42.71875 61.234375 
Q 38.96875 64.796875 32.078125 64.796875 
z
M 9.8125 72.90625 
L 32.078125 72.90625 
Q 44.34375 72.90625 50.609375 67.359375 
Q 56.890625 61.8125 56.890625 51.125 
Q 56.890625 40.328125 50.609375 34.8125 
Q 44.34375 29.296875 32.078125 29.296875 
L 19.671875 29.296875 
L 19.671875 0 
L 9.8125 0 
z
" id="DejaVuSans-80"/>
      <path d="M 41.109375 46.296875 
Q 39.59375 47.171875 37.8125 47.578125 
Q 36.03125 48 33.890625 48 
Q 26.265625 48 22.1875 43.046875 
Q 18.109375 38.09375 18.109375 28.8125 
L 18.109375 0 
L 9.078125 0 
L 9.078125 54.6875 
L 18.109375 54.6875 
L 18.109375 46.1875 
Q 20.953125 51.171875 25.484375 53.578125 
Q 30.03125 56 36.53125 56 
Q 37.453125 56 38.578125 55.875 
Q 39.703125 55.765625 41.0625 55.515625 
z
" id="DejaVuSans-114"/>
      <path d="M 44.28125 53.078125 
L 44.28125 44.578125 
Q 40.484375 46.53125 36.375 47.5 
Q 32.28125 48.484375 27.875 48.484375 
Q 21.1875 48.484375 17.84375 46.4375 
Q 14.5 44.390625 14.5 40.28125 
Q 14.5 37.15625 16.890625 35.375 
Q 19.28125 33.59375 26.515625 31.984375 
L 29.59375 31.296875 
Q 39.15625 29.25 43.1875 25.515625 
Q 47.21875 21.78125 47.21875 15.09375 
Q 47.21875 7.46875 41.1875 3.015625 
Q 35.15625 -1.421875 24.609375 -1.421875 
Q 20.21875 -1.421875 15.453125 -0.5625 
Q 10.6875 0.296875 5.421875 2 
L 5.421875 11.28125 
Q 10.40625 8.6875 15.234375 7.390625 
Q 20.0625 6.109375 24.8125 6.109375 
Q 31.15625 6.109375 34.5625 8.28125 
Q 37.984375 10.453125 37.984375 14.40625 
Q 37.984375 18.0625 35.515625 20.015625 
Q 33.0625 21.96875 24.703125 23.78125 
L 21.578125 24.515625 
Q 13.234375 26.265625 9.515625 29.90625 
Q 5.8125 33.546875 5.8125 39.890625 
Q 5.8125 47.609375 11.28125 51.796875 
Q 16.75 56 26.8125 56 
Q 31.78125 56 36.171875 55.265625 
Q 40.578125 54.546875 44.28125 53.078125 
z
" id="DejaVuSans-115"/>
      <path id="DejaVuSans-32"/>
      <path d="M 2.984375 54.6875 
L 12.5 54.6875 
L 29.59375 8.796875 
L 46.6875 54.6875 
L 56.203125 54.6875 
L 35.6875 0 
L 23.484375 0 
z
" id="DejaVuSans-118"/>
      <path d="M 9.421875 54.6875 
L 18.40625 54.6875 
L 18.40625 0 
L 9.421875 0 
z
M 9.421875 75.984375 
L 18.40625 75.984375 
L 18.40625 64.59375 
L 9.421875 64.59375 
z
" id="DejaVuSans-105"/>
      <path d="M 52 44.1875 
Q 55.375 50.25 60.0625 53.125 
Q 64.75 56 71.09375 56 
Q 79.640625 56 84.28125 50.015625 
Q 88.921875 44.046875 88.921875 33.015625 
L 88.921875 0 
L 79.890625 0 
L 79.890625 32.71875 
Q 79.890625 40.578125 77.09375 44.375 
Q 74.3125 48.1875 68.609375 48.1875 
Q 61.625 48.1875 57.5625 43.546875 
Q 53.515625 38.921875 53.515625 30.90625 
L 53.515625 0 
L 44.484375 0 
L 44.484375 32.71875 
Q 44.484375 40.625 41.703125 44.40625 
Q 38.921875 48.1875 33.109375 48.1875 
Q 26.21875 48.1875 22.15625 43.53125 
Q 18.109375 38.875 18.109375 30.90625 
L 18.109375 0 
L 9.078125 0 
L 9.078125 54.6875 
L 18.109375 54.6875 
L 18.109375 46.1875 
Q 21.1875 51.21875 25.484375 53.609375 
Q 29.78125 56 35.6875 56 
Q 41.65625 56 45.828125 52.96875 
Q 50 49.953125 52 44.1875 
z
" id="DejaVuSans-109"/>
     </defs>
     <use xlink:href="#DejaVuSans-80"/>
     <use x="56.677734" xlink:href="#DejaVuSans-101"/>
     <use x="118.201172" xlink:href="#DejaVuSans-101"/>
     <use x="179.724609" xlink:href="#DejaVuSans-114"/>
     <use x="220.837891" xlink:href="#DejaVuSans-115"/>
     <use x="272.9375" xlink:href="#DejaVuSans-32"/>
     <use x="304.724609" xlink:href="#DejaVuSans-111"/>
     <use x="365.90625" xlink:href="#DejaVuSans-118"/>
     <use x="425.085938" xlink:href="#DejaVuSans-101"/>
     <use x="486.609375" xlink:href="#DejaVuSans-114"/>
     <use x="527.722656" xlink:href="#DejaVuSans-32"/>
     <use x="559.509766" xlink:href="#DejaVuSans-116"/>
     <use x="598.71875" xlink:href="#DejaVuSans-105"/>
     <use x="626.501953" xlink:href="#DejaVuSans-109"/>
     <use x="723.914062" xlink:href="#DejaVuSans-101"/>
    </g>
   </g>
   <g id="legend_1">
    <g id="patch_7">
     <path d="M 54.707635 74.3525 
L 185.98576 74.3525 
Q 187.98576 74.3525 187.98576 72.3525 
L 187.98576 29.318125 
Q 187.98576 27.318125 185.98576 27.318125 
L 54.707635 27.318125 
Q 52.707635 27.318125 52.707635 29.318125 
L 52.707635 72.3525 
Q 52.707635 74.3525 54.707635 74.3525 
z
" style="fill:#ffffff;opacity:0.8;stroke:#cccccc;stroke-linejoin:miter;"/>
    </g>
    <g id="line2d_56">
     <path d="M 56.707635 35.416562 
L 76.707635 35.416562 
" style="fill:none;stroke:#1f77b4;stroke-linecap:square;stroke-opacity:0.8;stroke-width:1.5;"/>
    </g>
    <g id="line2d_57"/>
    <g id="text_33">
     <!-- eBGP routers -->
     <g transform="translate(84.707635 38.916562)scale(0.1 -0.1)">
      <defs>
       <path d="M 19.671875 34.8125 
L 19.671875 8.109375 
L 35.5 8.109375 
Q 43.453125 8.109375 47.28125 11.40625 
Q 51.125 14.703125 51.125 21.484375 
Q 51.125 28.328125 47.28125 31.5625 
Q 43.453125 34.8125 35.5 34.8125 
z
M 19.671875 64.796875 
L 19.671875 42.828125 
L 34.28125 42.828125 
Q 41.5 42.828125 45.03125 45.53125 
Q 48.578125 48.25 48.578125 53.8125 
Q 48.578125 59.328125 45.03125 62.0625 
Q 41.5 64.796875 34.28125 64.796875 
z
M 9.8125 72.90625 
L 35.015625 72.90625 
Q 46.296875 72.90625 52.390625 68.21875 
Q 58.5 63.53125 58.5 54.890625 
Q 58.5 48.1875 55.375 44.234375 
Q 52.25 40.28125 46.1875 39.3125 
Q 53.46875 37.75 57.5 32.78125 
Q 61.53125 27.828125 61.53125 20.40625 
Q 61.53125 10.640625 54.890625 5.3125 
Q 48.25 0 35.984375 0 
L 9.8125 0 
z
" id="DejaVuSans-66"/>
       <path d="M 59.515625 10.40625 
L 59.515625 29.984375 
L 43.40625 29.984375 
L 43.40625 38.09375 
L 69.28125 38.09375 
L 69.28125 6.78125 
Q 63.578125 2.734375 56.6875 0.65625 
Q 49.8125 -1.421875 42 -1.421875 
Q 24.90625 -1.421875 15.25 8.5625 
Q 5.609375 18.5625 5.609375 36.375 
Q 5.609375 54.25 15.25 64.234375 
Q 24.90625 74.21875 42 74.21875 
Q 49.125 74.21875 55.546875 72.453125 
Q 61.96875 70.703125 67.390625 67.28125 
L 67.390625 56.78125 
Q 61.921875 61.421875 55.765625 63.765625 
Q 49.609375 66.109375 42.828125 66.109375 
Q 29.4375 66.109375 22.71875 58.640625 
Q 16.015625 51.171875 16.015625 36.375 
Q 16.015625 21.625 22.71875 14.15625 
Q 29.4375 6.6875 42.828125 6.6875 
Q 48.046875 6.6875 52.140625 7.59375 
Q 56.25 8.5 59.515625 10.40625 
z
" id="DejaVuSans-71"/>
      </defs>
      <use xlink:href="#DejaVuSans-101"/>
      <use x="61.523438" xlink:href="#DejaVuSans-66"/>
      <use x="128.376953" xlink:href="#DejaVuSans-71"/>
      <use x="205.867188" xlink:href="#DejaVuSans-80"/>
      <use x="266.169922" xlink:href="#DejaVuSans-32"/>
      <use x="297.957031" xlink:href="#DejaVuSans-114"/>
      <use x="336.820312" xlink:href="#DejaVuSans-111"/>
      <use x="398.001953" xlink:href="#DejaVuSans-117"/>
      <use x="461.380859" xlink:href="#DejaVuSans-116"/>
      <use x="500.589844" xlink:href="#DejaVuSans-101"/>
      <use x="562.113281" xlink:href="#DejaVuSans-114"/>
      <use x="603.226562" xlink:href="#DejaVuSans-115"/>
     </g>
    </g>
    <g id="line2d_58">
     <path d="M 56.707635 50.094687 
L 76.707635 50.094687 
" style="fill:none;stroke:#ff7f0e;stroke-linecap:square;stroke-opacity:0.8;stroke-width:1.5;"/>
    </g>
    <g id="line2d_59"/>
    <g id="text_34">
     <!-- total eBGP peerings -->
     <g transform="translate(84.707635 53.594687)scale(0.1 -0.1)">
      <defs>
       <path d="M 9.421875 75.984375 
L 18.40625 75.984375 
L 18.40625 0 
L 9.421875 0 
z
" id="DejaVuSans-108"/>
       <path d="M 18.109375 8.203125 
L 18.109375 -20.796875 
L 9.078125 -20.796875 
L 9.078125 54.6875 
L 18.109375 54.6875 
L 18.109375 46.390625 
Q 20.953125 51.265625 25.265625 53.625 
Q 29.59375 56 35.59375 56 
Q 45.5625 56 51.78125 48.09375 
Q 58.015625 40.1875 58.015625 27.296875 
Q 58.015625 14.40625 51.78125 6.484375 
Q 45.5625 -1.421875 35.59375 -1.421875 
Q 29.59375 -1.421875 25.265625 0.953125 
Q 20.953125 3.328125 18.109375 8.203125 
z
M 48.6875 27.296875 
Q 48.6875 37.203125 44.609375 42.84375 
Q 40.53125 48.484375 33.40625 48.484375 
Q 26.265625 48.484375 22.1875 42.84375 
Q 18.109375 37.203125 18.109375 27.296875 
Q 18.109375 17.390625 22.1875 11.75 
Q 26.265625 6.109375 33.40625 6.109375 
Q 40.53125 6.109375 44.609375 11.75 
Q 48.6875 17.390625 48.6875 27.296875 
z
" id="DejaVuSans-112"/>
       <path d="M 45.40625 27.984375 
Q 45.40625 37.75 41.375 43.109375 
Q 37.359375 48.484375 30.078125 48.484375 
Q 22.859375 48.484375 18.828125 43.109375 
Q 14.796875 37.75 14.796875 27.984375 
Q 14.796875 18.265625 18.828125 12.890625 
Q 22.859375 7.515625 30.078125 7.515625 
Q 37.359375 7.515625 41.375 12.890625 
Q 45.40625 18.265625 45.40625 27.984375 
z
M 54.390625 6.78125 
Q 54.390625 -7.171875 48.1875 -13.984375 
Q 42 -20.796875 29.203125 -20.796875 
Q 24.46875 -20.796875 20.265625 -20.09375 
Q 16.0625 -19.390625 12.109375 -17.921875 
L 12.109375 -9.1875 
Q 16.0625 -11.328125 19.921875 -12.34375 
Q 23.78125 -13.375 27.78125 -13.375 
Q 36.625 -13.375 41.015625 -8.765625 
Q 45.40625 -4.15625 45.40625 5.171875 
L 45.40625 9.625 
Q 42.625 4.78125 38.28125 2.390625 
Q 33.9375 0 27.875 0 
Q 17.828125 0 11.671875 7.65625 
Q 5.515625 15.328125 5.515625 27.984375 
Q 5.515625 40.671875 11.671875 48.328125 
Q 17.828125 56 27.875 56 
Q 33.9375 56 38.28125 53.609375 
Q 42.625 51.21875 45.40625 46.390625 
L 45.40625 54.6875 
L 54.390625 54.6875 
z
" id="DejaVuSans-103"/>
      </defs>
      <use xlink:href="#DejaVuSans-116"/>
      <use x="39.208984" xlink:href="#DejaVuSans-111"/>
      <use x="100.390625" xlink:href="#DejaVuSans-116"/>
      <use x="139.599609" xlink:href="#DejaVuSans-97"/>
      <use x="200.878906" xlink:href="#DejaVuSans-108"/>
      <use x="228.662109" xlink:href="#DejaVuSans-32"/>
      <use x="260.449219" xlink:href="#DejaVuSans-101"/>
      <use x="321.972656" xlink:href="#DejaVuSans-66"/>
      <use x="388.826172" xlink:href="#DejaVuSans-71"/>
      <use x="466.316406" xlink:href="#DejaVuSans-80"/>
      <use x="526.619141" xlink:href="#DejaVuSans-32"/>
      <use x="558.40625" xlink:href="#DejaVuSans-112"/>
      <use x="621.882812" xlink:href="#DejaVuSans-101"/>
      <use x="683.40625" xlink:href="#DejaVuSans-101"/>
      <use x="744.929688" xlink:href="#DejaVuSans-114"/>
      <use x="786.042969" xlink:href="#DejaVuSans-105"/>
      <use x="813.826172" xlink:href="#DejaVuSans-110"/>
      <use x="877.205078" xlink:href="#DejaVuSans-103"/>
      <use x="940.681641" xlink:href="#DejaVuSans-115"/>
     </g>
    </g>
    <g id="line2d_60">
     <path d="M 56.707635 64.772812 
L 76.707635 64.772812 
" style="fill:none;stroke:#2ca02c;stroke-linecap:square;stroke-opacity:0.8;stroke-width:1.5;"/>
    </g>
    <g id="line2d_61"/>
    <g id="text_35">
     <!-- unique eBGP peers -->
     <g transform="translate(84.707635 68.272812)scale(0.1 -0.1)">
      <defs>
       <path d="M 14.796875 27.296875 
Q 14.796875 17.390625 18.875 11.75 
Q 22.953125 6.109375 30.078125 6.109375 
Q 37.203125 6.109375 41.296875 11.75 
Q 45.40625 17.390625 45.40625 27.296875 
Q 45.40625 37.203125 41.296875 42.84375 
Q 37.203125 48.484375 30.078125 48.484375 
Q 22.953125 48.484375 18.875 42.84375 
Q 14.796875 37.203125 14.796875 27.296875 
z
M 45.40625 8.203125 
Q 42.578125 3.328125 38.25 0.953125 
Q 33.9375 -1.421875 27.875 -1.421875 
Q 17.96875 -1.421875 11.734375 6.484375 
Q 5.515625 14.40625 5.515625 27.296875 
Q 5.515625 40.1875 11.734375 48.09375 
Q 17.96875 56 27.875 56 
Q 33.9375 56 38.25 53.625 
Q 42.578125 51.265625 45.40625 46.390625 
L 45.40625 54.6875 
L 54.390625 54.6875 
L 54.390625 -20.796875 
L 45.40625 -20.796875 
z
" id="DejaVuSans-113"/>
      </defs>
      <use xlink:href="#DejaVuSans-117"/>
      <use x="63.378906" xlink:href="#DejaVuSans-110"/>
      <use x="126.757812" xlink:href="#DejaVuSans-105"/>
      <use x="154.541016" xlink:href="#DejaVuSans-113"/>
      <use x="218.017578" xlink:href="#DejaVuSans-117"/>
      <use x="281.396484" xlink:href="#DejaVuSans-101"/>
      <use x="342.919922" xlink:href="#DejaVuSans-32"/>
      <use x="374.707031" xlink:href="#DejaVuSans-101"/>
      <use x="436.230469" xlink:href="#DejaVuSans-66"/>
      <use x="503.083984" xlink:href="#DejaVuSans-71"/>
      <use x="580.574219" xlink:href="#DejaVuSans-80"/>
      <use x="640.876953" xlink:href="#DejaVuSans-32"/>
      <use x="672.664062" xlink:href="#DejaVuSans-112"/>
      <use x="736.140625" xlink:href="#DejaVuSans-101"/>
      <use x="797.664062" xlink:href="#DejaVuSans-101"/>
      <use x="859.1875" xlink:href="#DejaVuSans-114"/>
      <use x="900.300781" xlink:href="#DejaVuSans-115"/>
     </g>
    </g>
   </g>
  </g>
 </g>
 <defs>
  <clipPath id="p54178d528e">
   <rect height="391.68" width="558" x="47.707635" y="22.318125"/>
  </clipPath>
 </defs>
</svg>
