<?xml version="1.0" encoding="utf-8" standalone="no"?>
<!DOCTYPE svg PUBLIC "-//W3C//DTD SVG 1.1//EN"
  "http://www.w3.org/Graphics/SVG/1.1/DTD/svg11.dtd">
<svg xmlns:xlink="http://www.w3.org/1999/xlink" width="612.165625pt" height="503.394375pt" viewBox="0 0 612.165625 503.394375" xmlns="http://www.w3.org/2000/svg" version="1.1">
 <metadata>
  <rdf:RDF xmlns:dc="http://purl.org/dc/elements/1.1/" xmlns:cc="http://creativecommons.org/ns#" xmlns:rdf="http://www.w3.org/1999/02/22-rdf-syntax-ns#">
   <cc:Work>
    <dc:type rdf:resource="http://purl.org/dc/dcmitype/StillImage"/>
    <dc:format>image/svg+xml</dc:format>
    <dc:creator>
     <cc:Agent>
      <dc:title>Matplotlib v3.6.3, https://matplotlib.org/</dc:title>
     </cc:Agent>
    </dc:creator>
   </cc:Work>
  </rdf:RDF>
 </metadata>
 <defs>
  <style type="text/css">*{stroke-linejoin: round; stroke-linecap: butt}</style>
 </defs>
 <g id="figure_1">
  <g id="patch_1">
   <path d="M 0 503.394375 
L 612.165625 503.394375 
L 612.165625 0 
L 0 0 
z
" style="fill: #ffffff"/>
  </g>
  <g id="axes_1">
   <g id="patch_2">
    <path d="M 46.965625 465.838125 
L 604.965625 465.838125 
L 604.965625 22.318125 
L 46.965625 22.318125 
z
" style="fill: #ffffff"/>
   </g>
   <g id="matplotlib.axis_1">
    <g id="xtick_1">
     <g id="line2d_1">
      <path d="M 83.359382 465.838125 
L 83.359382 22.318125 
" clip-path="url(#pebb6d4d2a1)" style="fill: none; stroke: #b0b0b0; stroke-opacity: 0.6; stroke-width: 0.8; stroke-linecap: square"/>
     </g>
     <g id="line2d_2">
      <defs>
       <path id="m4989ca4dfe" d="M 0 0 
L 0 3.5 
" style="stroke: #000000; stroke-width: 0.8"/>
      </defs>
      <g>
       <use xlink:href="#m4989ca4dfe" x="83.359382" y="465.838125" style="stroke: #000000; stroke-width: 0.8"/>
      </g>
     </g>
     <g id="text_1">
      <!-- 2020-07 -->
      <g transform="translate(62.467975 480.436562) scale(0.1 -0.1)">
       <defs>
        <path id="DejaVuSans-32" d="M 1228 531 
L 3431 531 
L 3431 0 
L 469 0 
L 469 531 
Q 828 903 1448 1529 
Q 2069 2156 2228 2338 
Q 2531 2678 2651 2914 
Q 2772 3150 2772 3378 
Q 2772 3750 2511 3984 
Q 2250 4219 1831 4219 
Q 1534 4219 1204 4116 
Q 875 4013 500 3803 
L 500 4441 
Q 881 4594 1212 4672 
Q 1544 4750 1819 4750 
Q 2544 4750 2975 4387 
Q 3406 4025 3406 3419 
Q 3406 3131 3298 2873 
Q 3191 2616 2906 2266 
Q 2828 2175 2409 1742 
Q 1991 1309 1228 531 
z
" transform="scale(0.015625)"/>
        <path id="DejaVuSans-30" d="M 2034 4250 
Q 1547 4250 1301 3770 
Q 1056 3291 1056 2328 
Q 1056 1369 1301 889 
Q 1547 409 2034 409 
Q 2525 409 2770 889 
Q 3016 1369 3016 2328 
Q 3016 3291 2770 3770 
Q 2525 4250 2034 4250 
z
M 2034 4750 
Q 2819 4750 3233 4129 
Q 3647 3509 3647 2328 
Q 3647 1150 3233 529 
Q 2819 -91 2034 -91 
Q 1250 -91 836 529 
Q 422 1150 422 2328 
Q 422 3509 836 4129 
Q 1250 4750 2034 4750 
z
" transform="scale(0.015625)"/>
        <path id="DejaVuSans-2d" d="M 313 2009 
L 1997 2009 
L 1997 1497 
L 313 1497 
L 313 2009 
z
" transform="scale(0.015625)"/>
        <path id="DejaVuSans-37" d="M 525 4666 
L 3525 4666 
L 3525 4397 
L 1831 0 
L 1172 0 
L 2766 4134 
L 525 4134 
L 525 4666 
z
" transform="scale(0.015625)"/>
       </defs>
       <use xlink:href="#DejaVuSans-32"/>
       <use xlink:href="#DejaVuSans-30" x="63.623047"/>
       <use xlink:href="#DejaVuSans-32" x="127.246094"/>
       <use xlink:href="#DejaVuSans-30" x="190.869141"/>
       <use xlink:href="#DejaVuSans-2d" x="254.492188"/>
       <use xlink:href="#DejaVuSans-30" x="290.576172"/>
       <use xlink:href="#DejaVuSans-37" x="354.199219"/>
      </g>
     </g>
    </g>
    <g id="xtick_2">
     <g id="line2d_3">
      <path d="M 144.81113 465.838125 
L 144.81113 22.318125 
" clip-path="url(#pebb6d4d2a1)" style="fill: none; stroke: #b0b0b0; stroke-opacity: 0.6; stroke-width: 0.8; stroke-linecap: square"/>
     </g>
     <g id="line2d_4">
      <g>
       <use xlink:href="#m4989ca4dfe" x="144.81113" y="465.838125" style="stroke: #000000; stroke-width: 0.8"/>
      </g>
     </g>
     <g id="text_2">
      <!-- 2021-01 -->
      <g transform="translate(123.919724 480.436562) scale(0.1 -0.1)">
       <defs>
        <path id="DejaVuSans-31" d="M 794 531 
L 1825 531 
L 1825 4091 
L 703 3866 
L 703 4441 
L 1819 4666 
L 2450 4666 
L 2450 531 
L 3481 531 
L 3481 0 
L 794 0 
L 794 531 
z
" transform="scale(0.015625)"/>
       </defs>
       <use xlink:href="#DejaVuSans-32"/>
       <use xlink:href="#DejaVuSans-30" x="63.623047"/>
       <use xlink:href="#DejaVuSans-32" x="127.246094"/>
       <use xlink:href="#DejaVuSans-31" x="190.869141"/>
       <use xlink:href="#DejaVuSans-2d" x="254.492188"/>
       <use xlink:href="#DejaVuSans-30" x="290.576172"/>
       <use xlink:href="#DejaVuSans-31" x="354.199219"/>
      </g>
     </g>
    </g>
    <g id="xtick_3">
     <g id="line2d_5">
      <path d="M 205.260948 465.838125 
L 205.260948 22.318125 
" clip-path="url(#pebb6d4d2a1)" style="fill: none; stroke: #b0b0b0; stroke-opacity: 0.6; stroke-width: 0.8; stroke-linecap: square"/>
     </g>
     <g id="line2d_6">
      <g>
       <use xlink:href="#m4989ca4dfe" x="205.260948" y="465.838125" style="stroke: #000000; stroke-width: 0.8"/>
      </g>
     </g>
     <g id="text_3">
      <!-- 2021-07 -->
      <g transform="translate(184.369542 480.436562) scale(0.1 -0.1)">
       <use xlink:href="#DejaVuSans-32"/>
       <use xlink:href="#DejaVuSans-30" x="63.623047"/>
       <use xlink:href="#DejaVuSans-32" x="127.246094"/>
       <use xlink:href="#DejaVuSans-31" x="190.869141"/>
       <use xlink:href="#DejaVuSans-2d" x="254.492188"/>
       <use xlink:href="#DejaVuSans-30" x="290.576172"/>
       <use xlink:href="#DejaVuSans-37" x="354.199219"/>
      </g>
     </g>
    </g>
    <g id="xtick_4">
     <g id="line2d_7">
      <path d="M 266.712697 465.838125 
L 266.712697 22.318125 
" clip-path="url(#pebb6d4d2a1)" style="fill: none; stroke: #b0b0b0; stroke-opacity: 0.6; stroke-width: 0.8; stroke-linecap: square"/>
     </g>
     <g id="line2d_8">
      <g>
       <use xlink:href="#m4989ca4dfe" x="266.712697" y="465.838125" style="stroke: #000000; stroke-width: 0.8"/>
      </g>
     </g>
     <g id="text_4">
      <!-- 2022-01 -->
      <g transform="translate(245.821291 480.436562) scale(0.1 -0.1)">
       <use xlink:href="#DejaVuSans-32"/>
       <use xlink:href="#DejaVuSans-30" x="63.623047"/>
       <use xlink:href="#DejaVuSans-32" x="127.246094"/>
       <use xlink:href="#DejaVuSans-32" x="190.869141"/>
       <use xlink:href="#DejaVuSans-2d" x="254.492188"/>
       <use xlink:href="#DejaVuSans-30" x="290.576172"/>
       <use xlink:href="#DejaVuSans-31" x="354.199219"/>
      </g>
     </g>
    </g>
    <g id="xtick_5">
     <g id="line2d_9">
      <path d="M 327.162515 465.838125 
L 327.162515 22.318125 
" clip-path="url(#pebb6d4d2a1)" style="fill: none; stroke: #b0b0b0; stroke-opacity: 0.6; stroke-width: 0.8; stroke-linecap: square"/>
     </g>
     <g id="line2d_10">
      <g>
       <use xlink:href="#m4989ca4dfe" x="327.162515" y="465.838125" style="stroke: #000000; stroke-width: 0.8"/>
      </g>
     </g>
     <g id="text_5">
      <!-- 2022-07 -->
      <g transform="translate(306.271108 480.436562) scale(0.1 -0.1)">
       <use xlink:href="#DejaVuSans-32"/>
       <use xlink:href="#DejaVuSans-30" x="63.623047"/>
       <use xlink:href="#DejaVuSans-32" x="127.246094"/>
       <use xlink:href="#DejaVuSans-32" x="190.869141"/>
       <use xlink:href="#DejaVuSans-2d" x="254.492188"/>
       <use xlink:href="#DejaVuSans-30" x="290.576172"/>
       <use xlink:href="#DejaVuSans-37" x="354.199219"/>
      </g>
     </g>
    </g>
    <g id="xtick_6">
     <g id="line2d_11">
      <path d="M 388.614263 465.838125 
L 388.614263 22.318125 
" clip-path="url(#pebb6d4d2a1)" style="fill: none; stroke: #b0b0b0; stroke-opacity: 0.6; stroke-width: 0.8; stroke-linecap: square"/>
     </g>
     <g id="line2d_12">
      <g>
       <use xlink:href="#m4989ca4dfe" x="388.614263" y="465.838125" style="stroke: #000000; stroke-width: 0.8"/>
      </g>
     </g>
     <g id="text_6">
      <!-- 2023-01 -->
      <g transform="translate(367.722857 480.436562) scale(0.1 -0.1)">
       <defs>
        <path id="DejaVuSans-33" d="M 2597 2516 
Q 3050 2419 3304 2112 
Q 3559 1806 3559 1356 
Q 3559 666 3084 287 
Q 2609 -91 1734 -91 
Q 1441 -91 1130 -33 
Q 819 25 488 141 
L 488 750 
Q 750 597 1062 519 
Q 1375 441 1716 441 
Q 2309 441 2620 675 
Q 2931 909 2931 1356 
Q 2931 1769 2642 2001 
Q 2353 2234 1838 2234 
L 1294 2234 
L 1294 2753 
L 1863 2753 
Q 2328 2753 2575 2939 
Q 2822 3125 2822 3475 
Q 2822 3834 2567 4026 
Q 2313 4219 1838 4219 
Q 1578 4219 1281 4162 
Q 984 4106 628 3988 
L 628 4550 
Q 988 4650 1302 4700 
Q 1616 4750 1894 4750 
Q 2613 4750 3031 4423 
Q 3450 4097 3450 3541 
Q 3450 3153 3228 2886 
Q 3006 2619 2597 2516 
z
" transform="scale(0.015625)"/>
       </defs>
       <use xlink:href="#DejaVuSans-32"/>
       <use xlink:href="#DejaVuSans-30" x="63.623047"/>
       <use xlink:href="#DejaVuSans-32" x="127.246094"/>
       <use xlink:href="#DejaVuSans-33" x="190.869141"/>
       <use xlink:href="#DejaVuSans-2d" x="254.492188"/>
       <use xlink:href="#DejaVuSans-30" x="290.576172"/>
       <use xlink:href="#DejaVuSans-31" x="354.199219"/>
      </g>
     </g>
    </g>
    <g id="xtick_7">
     <g id="line2d_13">
      <path d="M 449.064081 465.838125 
L 449.064081 22.318125 
" clip-path="url(#pebb6d4d2a1)" style="fill: none; stroke: #b0b0b0; stroke-opacity: 0.6; stroke-width: 0.8; stroke-linecap: square"/>
     </g>
     <g id="line2d_14">
      <g>
       <use xlink:href="#m4989ca4dfe" x="449.064081" y="465.838125" style="stroke: #000000; stroke-width: 0.8"/>
      </g>
     </g>
     <g id="text_7">
      <!-- 2023-07 -->
      <g transform="translate(428.172675 480.436562) scale(0.1 -0.1)">
       <use xlink:href="#DejaVuSans-32"/>
       <use xlink:href="#DejaVuSans-30" x="63.623047"/>
       <use xlink:href="#DejaVuSans-32" x="127.246094"/>
       <use xlink:href="#DejaVuSans-33" x="190.869141"/>
       <use xlink:href="#DejaVuSans-2d" x="254.492188"/>
       <use xlink:href="#DejaVuSans-30" x="290.576172"/>
       <use xlink:href="#DejaVuSans-37" x="354.199219"/>
      </g>
     </g>
    </g>
    <g id="xtick_8">
     <g id="line2d_15">
      <path d="M 510.51583 465.838125 
L 510.51583 22.318125 
" clip-path="url(#pebb6d4d2a1)" style="fill: none; stroke: #b0b0b0; stroke-opacity: 0.6; stroke-width: 0.8; stroke-linecap: square"/>
     </g>
     <g id="line2d_16">
      <g>
       <use xlink:href="#m4989ca4dfe" x="510.51583" y="465.838125" style="stroke: #000000; stroke-width: 0.8"/>
      </g>
     </g>
     <g id="text_8">
      <!-- 2024-01 -->
      <g transform="translate(489.624424 480.436562) scale(0.1 -0.1)">
       <defs>
        <path id="DejaVuSans-34" d="M 2419 4116 
L 825 1625 
L 2419 1625 
L 2419 4116 
z
M 2253 4666 
L 3047 4666 
L 3047 1625 
L 3713 1625 
L 3713 1100 
L 3047 1100 
L 3047 0 
L 2419 0 
L 2419 1100 
L 313 1100 
L 313 1709 
L 2253 4666 
z
" transform="scale(0.015625)"/>
       </defs>
       <use xlink:href="#DejaVuSans-32"/>
       <use xlink:href="#DejaVuSans-30" x="63.623047"/>
       <use xlink:href="#DejaVuSans-32" x="127.246094"/>
       <use xlink:href="#DejaVuSans-34" x="190.869141"/>
       <use xlink:href="#DejaVuSans-2d" x="254.492188"/>
       <use xlink:href="#DejaVuSans-30" x="290.576172"/>
       <use xlink:href="#DejaVuSans-31" x="354.199219"/>
      </g>
     </g>
    </g>
    <g id="xtick_9">
     <g id="line2d_17">
      <path d="M 571.299625 465.838125 
L 571.299625 22.318125 
" clip-path="url(#pebb6d4d2a1)" style="fill: none; stroke: #b0b0b0; stroke-opacity: 0.6; stroke-width: 0.8; stroke-linecap: square"/>
     </g>
     <g id="line2d_18">
      <g>
       <use xlink:href="#m4989ca4dfe" x="571.299625" y="465.838125" style="stroke: #000000; stroke-width: 0.8"/>
      </g>
     </g>
     <g id="text_9">
      <!-- 2024-07 -->
      <g transform="translate(550.408218 480.436562) scale(0.1 -0.1)">
       <use xlink:href="#DejaVuSans-32"/>
       <use xlink:href="#DejaVuSans-30" x="63.623047"/>
       <use xlink:href="#DejaVuSans-32" x="127.246094"/>
       <use xlink:href="#DejaVuSans-34" x="190.869141"/>
       <use xlink:href="#DejaVuSans-2d" x="254.492188"/>
       <use xlink:href="#DejaVuSans-30" x="290.576172"/>
       <use xlink:href="#DejaVuSans-37" x="354.199219"/>
      </g>
     </g>
    </g>
    <g id="text_10">
     <!-- Date -->
     <g transform="translate(314.014844 494.114687) scale(0.1 -0.1)">
      <defs>
       <path id="DejaVuSans-44" d="M 1259 4147 
L 1259 519 
L 2022 519 
Q 2988 519 3436 956 
Q 3884 1394 3884 2338 
Q 3884 3275 3436 3711 
Q 2988 4147 2022 4147 
L 1259 4147 
z
M 628 4666 
L 1925 4666 
Q 3281 4666 3915 4102 
Q 4550 3538 4550 2338 
Q 4550 1131 3912 565 
Q 3275 0 1925 0 
L 628 0 
L 628 4666 
z
" transform="scale(0.015625)"/>
       <path id="DejaVuSans-61" d="M 2194 1759 
Q 1497 1759 1228 1600 
Q 959 1441 959 1056 
Q 959 750 1161 570 
Q 1363 391 1709 391 
Q 2188 391 2477 730 
Q 2766 1069 2766 1631 
L 2766 1759 
L 2194 1759 
z
M 3341 1997 
L 3341 0 
L 2766 0 
L 2766 531 
Q 2569 213 2275 61 
Q 1981 -91 1556 -91 
Q 1019 -91 701 211 
Q 384 513 384 1019 
Q 384 1609 779 1909 
Q 1175 2209 1959 2209 
L 2766 2209 
L 2766 2266 
Q 2766 2663 2505 2880 
Q 2244 3097 1772 3097 
Q 1472 3097 1187 3025 
Q 903 2953 641 2809 
L 641 3341 
Q 956 3463 1253 3523 
Q 1550 3584 1831 3584 
Q 2591 3584 2966 3190 
Q 3341 2797 3341 1997 
z
" transform="scale(0.015625)"/>
       <path id="DejaVuSans-74" d="M 1172 4494 
L 1172 3500 
L 2356 3500 
L 2356 3053 
L 1172 3053 
L 1172 1153 
Q 1172 725 1289 603 
Q 1406 481 1766 481 
L 2356 481 
L 2356 0 
L 1766 0 
Q 1100 0 847 248 
Q 594 497 594 1153 
L 594 3053 
L 172 3053 
L 172 3500 
L 594 3500 
L 594 4494 
L 1172 4494 
z
" transform="scale(0.015625)"/>
       <path id="DejaVuSans-65" d="M 3597 1894 
L 3597 1613 
L 953 1613 
Q 991 1019 1311 708 
Q 1631 397 2203 397 
Q 2534 397 2845 478 
Q 3156 559 3463 722 
L 3463 178 
Q 3153 47 2828 -22 
Q 2503 -91 2169 -91 
Q 1331 -91 842 396 
Q 353 884 353 1716 
Q 353 2575 817 3079 
Q 1281 3584 2069 3584 
Q 2775 3584 3186 3129 
Q 3597 2675 3597 1894 
z
M 3022 2063 
Q 3016 2534 2758 2815 
Q 2500 3097 2075 3097 
Q 1594 3097 1305 2825 
Q 1016 2553 972 2059 
L 3022 2063 
z
" transform="scale(0.015625)"/>
      </defs>
      <use xlink:href="#DejaVuSans-44"/>
      <use xlink:href="#DejaVuSans-61" x="77.001953"/>
      <use xlink:href="#DejaVuSans-74" x="138.28125"/>
      <use xlink:href="#DejaVuSans-65" x="177.490234"/>
     </g>
    </g>
   </g>
   <g id="matplotlib.axis_2">
    <g id="ytick_1">
     <g id="line2d_19">
      <path d="M 46.965625 447.013224 
L 604.965625 447.013224 
" clip-path="url(#pebb6d4d2a1)" style="fill: none; stroke: #b0b0b0; stroke-opacity: 0.6; stroke-width: 0.8; stroke-linecap: square"/>
     </g>
     <g id="line2d_20">
      <defs>
       <path id="mc11dc46687" d="M 0 0 
L -3.5 0 
" style="stroke: #000000; stroke-width: 0.8"/>
      </defs>
      <g>
       <use xlink:href="#mc11dc46687" x="46.965625" y="447.013224" style="stroke: #000000; stroke-width: 0.8"/>
      </g>
     </g>
     <g id="text_11">
      <!-- 0 -->
      <g transform="translate(33.603125 450.812443) scale(0.1 -0.1)">
       <use xlink:href="#DejaVuSans-30"/>
      </g>
     </g>
    </g>
    <g id="ytick_2">
     <g id="line2d_21">
      <path d="M 46.965625 380.258257 
L 604.965625 380.258257 
" clip-path="url(#pebb6d4d2a1)" style="fill: none; stroke: #b0b0b0; stroke-opacity: 0.6; stroke-width: 0.8; stroke-linecap: square"/>
     </g>
     <g id="line2d_22">
      <g>
       <use xlink:href="#mc11dc46687" x="46.965625" y="380.258257" style="stroke: #000000; stroke-width: 0.8"/>
      </g>
     </g>
     <g id="text_12">
      <!-- 50 -->
      <g transform="translate(27.240625 384.057476) scale(0.1 -0.1)">
       <defs>
        <path id="DejaVuSans-35" d="M 691 4666 
L 3169 4666 
L 3169 4134 
L 1269 4134 
L 1269 2991 
Q 1406 3038 1543 3061 
Q 1681 3084 1819 3084 
Q 2600 3084 3056 2656 
Q 3513 2228 3513 1497 
Q 3513 744 3044 326 
Q 2575 -91 1722 -91 
Q 1428 -91 1123 -41 
Q 819 9 494 109 
L 494 744 
Q 775 591 1075 516 
Q 1375 441 1709 441 
Q 2250 441 2565 725 
Q 2881 1009 2881 1497 
Q 2881 1984 2565 2268 
Q 2250 2553 1709 2553 
Q 1456 2553 1204 2497 
Q 953 2441 691 2322 
L 691 4666 
z
" transform="scale(0.015625)"/>
       </defs>
       <use xlink:href="#DejaVuSans-35"/>
       <use xlink:href="#DejaVuSans-30" x="63.623047"/>
      </g>
     </g>
    </g>
    <g id="ytick_3">
     <g id="line2d_23">
      <path d="M 46.965625 313.503291 
L 604.965625 313.503291 
" clip-path="url(#pebb6d4d2a1)" style="fill: none; stroke: #b0b0b0; stroke-opacity: 0.6; stroke-width: 0.8; stroke-linecap: square"/>
     </g>
     <g id="line2d_24">
      <g>
       <use xlink:href="#mc11dc46687" x="46.965625" y="313.503291" style="stroke: #000000; stroke-width: 0.8"/>
      </g>
     </g>
     <g id="text_13">
      <!-- 100 -->
      <g transform="translate(20.878125 317.302509) scale(0.1 -0.1)">
       <use xlink:href="#DejaVuSans-31"/>
       <use xlink:href="#DejaVuSans-30" x="63.623047"/>
       <use xlink:href="#DejaVuSans-30" x="127.246094"/>
      </g>
     </g>
    </g>
    <g id="ytick_4">
     <g id="line2d_25">
      <path d="M 46.965625 246.748324 
L 604.965625 246.748324 
" clip-path="url(#pebb6d4d2a1)" style="fill: none; stroke: #b0b0b0; stroke-opacity: 0.6; stroke-width: 0.8; stroke-linecap: square"/>
     </g>
     <g id="line2d_26">
      <g>
       <use xlink:href="#mc11dc46687" x="46.965625" y="246.748324" style="stroke: #000000; stroke-width: 0.8"/>
      </g>
     </g>
     <g id="text_14">
      <!-- 150 -->
      <g transform="translate(20.878125 250.547542) scale(0.1 -0.1)">
       <use xlink:href="#DejaVuSans-31"/>
       <use xlink:href="#DejaVuSans-35" x="63.623047"/>
       <use xlink:href="#DejaVuSans-30" x="127.246094"/>
      </g>
     </g>
    </g>
    <g id="ytick_5">
     <g id="line2d_27">
      <path d="M 46.965625 179.993357 
L 604.965625 179.993357 
" clip-path="url(#pebb6d4d2a1)" style="fill: none; stroke: #b0b0b0; stroke-opacity: 0.6; stroke-width: 0.8; stroke-linecap: square"/>
     </g>
     <g id="line2d_28">
      <g>
       <use xlink:href="#mc11dc46687" x="46.965625" y="179.993357" style="stroke: #000000; stroke-width: 0.8"/>
      </g>
     </g>
     <g id="text_15">
      <!-- 200 -->
      <g transform="translate(20.878125 183.792576) scale(0.1 -0.1)">
       <use xlink:href="#DejaVuSans-32"/>
       <use xlink:href="#DejaVuSans-30" x="63.623047"/>
       <use xlink:href="#DejaVuSans-30" x="127.246094"/>
      </g>
     </g>
    </g>
    <g id="ytick_6">
     <g id="line2d_29">
      <path d="M 46.965625 113.23839 
L 604.965625 113.23839 
" clip-path="url(#pebb6d4d2a1)" style="fill: none; stroke: #b0b0b0; stroke-opacity: 0.6; stroke-width: 0.8; stroke-linecap: square"/>
     </g>
     <g id="line2d_30">
      <g>
       <use xlink:href="#mc11dc46687" x="46.965625" y="113.23839" style="stroke: #000000; stroke-width: 0.8"/>
      </g>
     </g>
     <g id="text_16">
      <!-- 250 -->
      <g transform="translate(20.878125 117.037609) scale(0.1 -0.1)">
       <use xlink:href="#DejaVuSans-32"/>
       <use xlink:href="#DejaVuSans-35" x="63.623047"/>
       <use xlink:href="#DejaVuSans-30" x="127.246094"/>
      </g>
     </g>
    </g>
    <g id="ytick_7">
     <g id="line2d_31">
      <path d="M 46.965625 46.483423 
L 604.965625 46.483423 
" clip-path="url(#pebb6d4d2a1)" style="fill: none; stroke: #b0b0b0; stroke-opacity: 0.6; stroke-width: 0.8; stroke-linecap: square"/>
     </g>
     <g id="line2d_32">
      <g>
       <use xlink:href="#mc11dc46687" x="46.965625" y="46.483423" style="stroke: #000000; stroke-width: 0.8"/>
      </g>
     </g>
     <g id="text_17">
      <!-- 300 -->
      <g transform="translate(20.878125 50.282642) scale(0.1 -0.1)">
       <use xlink:href="#DejaVuSans-33"/>
       <use xlink:href="#DejaVuSans-30" x="63.623047"/>
       <use xlink:href="#DejaVuSans-30" x="127.246094"/>
      </g>
     </g>
    </g>
    <g id="text_18">
     <!-- Count -->
     <g transform="translate(14.798437 258.926562) rotate(-90) scale(0.1 -0.1)">
      <defs>
       <path id="DejaVuSans-43" d="M 4122 4306 
L 4122 3641 
Q 3803 3938 3442 4084 
Q 3081 4231 2675 4231 
Q 1875 4231 1450 3742 
Q 1025 3253 1025 2328 
Q 1025 1406 1450 917 
Q 1875 428 2675 428 
Q 3081 428 3442 575 
Q 3803 722 4122 1019 
L 4122 359 
Q 3791 134 3420 21 
Q 3050 -91 2638 -91 
Q 1578 -91 968 557 
Q 359 1206 359 2328 
Q 359 3453 968 4101 
Q 1578 4750 2638 4750 
Q 3056 4750 3426 4639 
Q 3797 4528 4122 4306 
z
" transform="scale(0.015625)"/>
       <path id="DejaVuSans-6f" d="M 1959 3097 
Q 1497 3097 1228 2736 
Q 959 2375 959 1747 
Q 959 1119 1226 758 
Q 1494 397 1959 397 
Q 2419 397 2687 759 
Q 2956 1122 2956 1747 
Q 2956 2369 2687 2733 
Q 2419 3097 1959 3097 
z
M 1959 3584 
Q 2709 3584 3137 3096 
Q 3566 2609 3566 1747 
Q 3566 888 3137 398 
Q 2709 -91 1959 -91 
Q 1206 -91 779 398 
Q 353 888 353 1747 
Q 353 2609 779 3096 
Q 1206 3584 1959 3584 
z
" transform="scale(0.015625)"/>
       <path id="DejaVuSans-75" d="M 544 1381 
L 544 3500 
L 1119 3500 
L 1119 1403 
Q 1119 906 1312 657 
Q 1506 409 1894 409 
Q 2359 409 2629 706 
Q 2900 1003 2900 1516 
L 2900 3500 
L 3475 3500 
L 3475 0 
L 2900 0 
L 2900 538 
Q 2691 219 2414 64 
Q 2138 -91 1772 -91 
Q 1169 -91 856 284 
Q 544 659 544 1381 
z
M 1991 3584 
L 1991 3584 
z
" transform="scale(0.015625)"/>
       <path id="DejaVuSans-6e" d="M 3513 2113 
L 3513 0 
L 2938 0 
L 2938 2094 
Q 2938 2591 2744 2837 
Q 2550 3084 2163 3084 
Q 1697 3084 1428 2787 
Q 1159 2491 1159 1978 
L 1159 0 
L 581 0 
L 581 3500 
L 1159 3500 
L 1159 2956 
Q 1366 3272 1645 3428 
Q 1925 3584 2291 3584 
Q 2894 3584 3203 3211 
Q 3513 2838 3513 2113 
z
" transform="scale(0.015625)"/>
      </defs>
      <use xlink:href="#DejaVuSans-43"/>
      <use xlink:href="#DejaVuSans-6f" x="69.824219"/>
      <use xlink:href="#DejaVuSans-75" x="131.005859"/>
      <use xlink:href="#DejaVuSans-6e" x="194.384766"/>
      <use xlink:href="#DejaVuSans-74" x="257.763672"/>
     </g>
    </g>
   </g>
   <g id="line2d_33">
    <path d="M 579.601989 425.651635 
L 578.586135 425.651635 
L 577.57597 424.316536 
L 542.885214 424.316536 
L 542.885609 425.651635 
L 537.553656 425.651635 
L 537.543459 426.986734 
L 537.542237 425.651635 
L 521.723429 425.651635 
L 521.196214 426.986734 
L 517.383102 426.986734 
L 517.382897 425.651635 
L 507.75415 425.651635 
L 507.532353 426.986734 
L 503.836632 426.986734 
L 503.836346 425.651635 
L 503.198195 425.651635 
L 503.183626 424.316536 
L 498.495062 424.316536 
L 498.350586 425.651635 
L 493.518377 425.651635 
L 493.441767 424.316536 
L 448.246754 424.316536 
L 448.238115 422.981436 
L 420.839319 422.981436 
L 420.681078 421.646337 
L 386.824862 421.646337 
L 386.8248 422.981436 
L 378.973773 422.981436 
L 378.26808 424.316536 
L 378.112851 424.316536 
L 377.888905 425.651635 
L 377.879732 424.316536 
L 376.256206 424.316536 
L 376.25529 425.651635 
L 365.163817 425.651635 
L 365.066503 424.316536 
L 356.194674 424.316536 
L 354.858635 422.981436 
L 339.867951 422.981436 
L 339.846791 424.316536 
L 328.473664 424.316536 
L 328.393007 425.651635 
L 317.654343 425.651635 
L 317.642484 426.986734 
L 316.384647 426.986734 
L 316.3513 428.321834 
L 310.05434 428.321834 
L 310.011777 426.986734 
L 304.385221 426.986734 
L 303.964016 428.321834 
L 283.257348 428.321834 
L 282.670383 426.986734 
L 272.995896 426.986734 
L 272.938502 425.651635 
L 265.050682 425.651635 
L 265.050655 424.316536 
L 256.654584 424.316536 
L 256.95114 424.316536 
L 256.622381 425.651635 
L 250.356171 425.651635 
L 250.351258 424.316536 
L 244.627899 424.316536 
L 244.332391 425.651635 
L 238.875819 425.651635 
L 238.802453 424.316536 
L 227.238835 424.316536 
L 227.238731 425.651635 
L 194.527534 425.651635 
L 194.477395 426.986734 
L 192.453329 426.986734 
L 192.453228 428.321834 
L 190.827565 428.321834 
L 190.827669 429.656933 
L 186.204706 429.656933 
L 185.816137 430.992032 
L 184.216295 430.992032 
L 184.055143 429.656933 
L 165.197563 429.656933 
L 165.182163 430.992032 
L 162.018764 430.992032 
L 161.679801 432.327132 
L 153.517765 432.327132 
L 153.50693 430.992032 
L 151.477216 430.992032 
L 151.468967 432.327132 
L 148.726604 432.327132 
L 148.405553 433.662231 
L 144.816967 433.662231 
L 144.795502 434.99733 
L 143.522876 434.99733 
L 143.337855 436.33243 
L 140.827161 436.33243 
L 140.82459 437.667529 
L 135.371536 437.667529 
L 134.626547 439.002628 
L 101.339028 439.002628 
L 101.322797 440.337728 
L 95.725321 440.337728 
L 95.71466 441.672827 
L 87.840316 441.672827 
L 87.615279 443.007926 
L 79.005688 443.007926 
L 78.679449 444.343026 
L 72.676296 444.343026 
L 72.329261 445.678125 
L 72.329261 445.678125 
" clip-path="url(#pebb6d4d2a1)" style="fill: none; stroke: #1f77b4; stroke-opacity: 0.8; stroke-width: 1.5; stroke-linecap: square"/>
   </g>
   <g id="line2d_34">
    <path d="M 579.601989 55.829118 
L 578.95129 57.164218 
L 578.586135 57.164218 
L 577.57597 42.478125 
L 574.584249 42.478125 
L 574.583684 43.813224 
L 571.303165 43.813224 
L 571.197827 46.483423 
L 571.197592 49.153622 
L 568.879177 49.153622 
L 568.81445 51.82382 
L 566.469491 51.82382 
L 566.469391 53.15892 
L 565.874699 53.15892 
L 565.244156 54.494019 
L 563.872241 54.494019 
L 562.996236 57.164218 
L 558.635093 57.164218 
L 558.635267 57.164218 
L 555.579881 58.499317 
L 552.871928 58.499317 
L 549.572414 59.834416 
L 550.103835 59.834416 
L 546.184284 61.169516 
L 544.543518 62.504615 
L 542.885214 62.504615 
L 542.885609 65.174814 
L 541.854482 65.174814 
L 540.424671 66.509913 
L 537.553656 66.509913 
L 537.543459 71.85031 
L 537.542237 67.845012 
L 535.153255 67.845012 
L 535.152981 69.180112 
L 535.152946 67.845012 
L 534.173423 69.180112 
L 533.236622 69.180112 
L 532.545058 70.515211 
L 529.864677 69.180112 
L 528.917369 70.515211 
L 527.12072 71.85031 
L 526.390215 73.18541 
L 525.556031 73.18541 
L 525.555984 74.520509 
L 525.175459 74.520509 
L 525.175201 78.525807 
L 523.182561 78.525807 
L 522.84064 79.860906 
L 522.237302 81.196006 
L 521.723429 81.196006 
L 521.196214 82.531105 
L 520.157209 82.531105 
L 520.138187 74.520509 
L 520.135694 77.190708 
L 519.806673 77.190708 
L 519.77634 78.525807 
L 517.383102 78.525807 
L 517.382897 70.515211 
L 516.144535 71.85031 
L 516.143769 74.520509 
L 514.785995 74.520509 
L 514.185126 75.855608 
L 512.764959 75.855608 
L 512.689954 77.190708 
L 512.689872 79.860906 
L 510.744221 79.860906 
L 509.88166 81.196006 
L 509.539833 81.196006 
L 508.701554 87.871502 
L 508.69225 89.206602 
L 507.532353 89.206602 
L 507.365353 90.541701 
L 505.694464 90.541701 
L 505.694413 91.8768 
L 505.105814 91.8768 
L 503.836632 93.2119 
L 503.836346 91.8768 
L 503.198195 91.8768 
L 503.183626 90.541701 
L 502.85387 90.541701 
L 502.173991 93.2119 
L 499.785921 93.2119 
L 499.785674 90.541701 
L 498.762479 90.541701 
L 499.139715 90.541701 
L 498.681679 91.8768 
L 498.666167 79.860906 
L 498.510199 81.196006 
L 498.495062 79.860906 
L 498.350586 86.536403 
L 497.484187 87.871502 
L 493.518377 87.871502 
L 493.441767 83.866204 
L 488.99708 85.201304 
L 488.068006 85.201304 
L 487.458312 86.536403 
L 486.084202 86.536403 
L 485.7582 87.871502 
L 481.98159 87.871502 
L 481.086145 83.866204 
L 480.012526 86.536403 
L 478.427307 86.536403 
L 476.389294 87.871502 
L 475.40136 89.206602 
L 474.7237 90.541701 
L 470.931856 91.8768 
L 470.590848 91.8768 
L 470.590767 93.2119 
L 468.752433 93.2119 
L 468.752421 90.541701 
L 466.717899 90.541701 
L 465.996428 87.871502 
L 465.010523 87.871502 
L 463.432432 89.206602 
L 463.432374 90.541701 
L 463.233727 90.541701 
L 461.032878 91.8768 
L 460.369462 91.8768 
L 459.68467 103.892695 
L 457.341695 105.227794 
L 456.24794 105.227794 
L 456.697038 105.227794 
L 456.045427 110.568191 
L 455.673171 110.568191 
L 455.063168 111.903291 
L 448.908995 111.903291 
L 448.678632 113.23839 
L 448.58094 117.243688 
L 448.246754 117.243688 
L 448.238115 74.520509 
L 447.96074 73.18541 
L 447.238708 73.18541 
L 447.226172 74.520509 
L 443.982228 74.520509 
L 442.213767 75.855608 
L 439.963095 75.855608 
L 438.652784 74.520509 
L 438.643101 75.855608 
L 431.683641 75.855608 
L 431.623023 69.180112 
L 430.29245 69.180112 
L 428.947068 70.515211 
L 427.611531 70.515211 
L 427.611477 71.85031 
L 426.193985 73.18541 
L 424.859597 73.18541 
L 424.858514 75.855608 
L 424.632574 77.190708 
L 424.609377 78.525807 
L 424.325856 78.525807 
L 423.909626 79.860906 
L 423.843368 81.196006 
L 423.560152 81.196006 
L 423.490736 85.201304 
L 422.298292 87.871502 
L 420.839319 87.871502 
L 420.681078 81.196006 
L 417.281908 81.196006 
L 416.664909 82.531105 
L 415.629314 82.531105 
L 415.629252 83.866204 
L 414.952307 82.531105 
L 414.586089 83.866204 
L 411.924138 83.866204 
L 411.914927 85.201304 
L 410.978833 85.201304 
L 410.652633 83.866204 
L 409.517788 83.866204 
L 409.479644 86.536403 
L 405.617332 86.536403 
L 403.954328 87.871502 
L 403.585207 87.871502 
L 402.84493 89.206602 
L 396.294754 89.206602 
L 396.287247 90.541701 
L 393.941063 90.541701 
L 393.940584 93.2119 
L 389.957933 93.2119 
L 388.989272 94.546999 
L 388.182645 95.882099 
L 386.824862 95.882099 
L 386.8248 97.217198 
L 385.547408 97.217198 
L 385.246296 98.552297 
L 383.938861 98.552297 
L 383.251862 99.887397 
L 381.447931 99.887397 
L 380.222839 101.222496 
L 379.89616 102.557595 
L 378.973773 102.557595 
L 378.26832 101.222496 
L 378.26808 107.897993 
L 378.112851 106.562893 
L 377.888905 106.562893 
L 377.879732 93.2119 
L 377.735217 94.546999 
L 377.570575 98.552297 
L 375.205095 98.552297 
L 374.2127 93.2119 
L 374.212553 95.882099 
L 373.896184 97.217198 
L 373.881147 101.222496 
L 372.558842 106.562893 
L 372.516859 109.233092 
L 372.258754 109.233092 
L 372.203895 61.169516 
L 372.203806 63.839714 
L 370.862382 63.839714 
L 369.746679 66.509913 
L 369.523715 67.845012 
L 368.232651 70.515211 
L 367.897421 71.85031 
L 367.890603 74.520509 
L 367.465922 75.855608 
L 367.202173 75.855608 
L 367.202112 79.860906 
L 366.205334 74.520509 
L 365.163817 75.855608 
L 365.066503 70.515211 
L 364.174657 70.515211 
L 364.174333 71.85031 
L 363.19667 73.18541 
L 360.913891 73.18541 
L 360.841158 71.85031 
L 360.203579 71.85031 
L 358.134283 75.855608 
L 360.203634 77.190708 
L 356.194674 77.190708 
L 354.858635 74.520509 
L 353.135735 74.520509 
L 353.13536 78.525807 
L 351.828115 78.525807 
L 351.828057 79.860906 
L 350.892988 79.860906 
L 349.857165 81.196006 
L 348.68954 83.866204 
L 346.369282 83.866204 
L 346.342688 85.201304 
L 341.420046 85.201304 
L 340.340454 86.536403 
L 339.867951 85.201304 
L 339.846791 87.871502 
L 338.17681 87.871502 
L 338.176744 89.206602 
L 336.350969 89.206602 
L 335.342189 91.8768 
L 335.342776 91.8768 
L 332.653331 91.8768 
L 332.110104 93.2119 
L 332.042311 94.546999 
L 331.846657 95.882099 
L 330.321352 95.882099 
L 330.819453 97.217198 
L 329.775095 101.222496 
L 329.66731 102.557595 
L 329.05076 102.557595 
L 328.861421 110.568191 
L 327.665826 110.568191 
L 326.186579 111.903291 
L 326.175717 113.23839 
L 325.998451 117.243688 
L 325.996417 110.568191 
L 325.674508 111.903291 
L 323.667628 111.903291 
L 323.492758 115.908589 
L 319.474278 117.243688 
L 319.474061 119.913887 
L 319.290559 121.248986 
L 318.465381 121.248986 
L 317.989518 122.584085 
L 317.654343 122.584085 
L 317.642484 125.254284 
L 316.95547 125.254284 
L 316.628744 127.924483 
L 316.384647 127.924483 
L 316.3513 130.594681 
L 315.7787 130.594681 
L 315.759276 133.26488 
L 315.759179 131.929781 
L 314.436588 131.929781 
L 314.308131 133.26488 
L 314.308069 134.599979 
L 314.045325 134.599979 
L 313.821321 135.935079 
L 313.472786 137.270178 
L 313.054519 137.270178 
L 312.784829 138.605277 
L 312.779371 143.945675 
L 311.712983 149.286072 
L 311.062985 149.286072 
L 311.031357 143.945675 
L 310.654821 143.945675 
L 310.624099 145.280774 
L 310.415985 145.280774 
L 310.337938 139.940377 
L 310.05434 141.275476 
L 310.011777 135.935079 
L 309.419896 137.270178 
L 308.299368 137.270178 
L 308.128514 138.605277 
L 308.119778 139.940377 
L 307.806482 142.610575 
L 307.634267 142.610575 
L 307.634163 145.280774 
L 305.015629 146.615873 
L 304.415368 146.615873 
L 304.385221 147.950973 
L 304.010711 155.961569 
L 303.964016 154.626469 
L 301.392896 154.626469 
L 300.997416 157.296668 
L 299.801519 158.631767 
L 298.922406 158.631767 
L 298.922341 159.966867 
L 298.719972 161.301966 
L 296.64664 161.301966 
L 295.709077 162.637065 
L 295.707117 161.301966 
L 293.323945 162.637065 
L 292.237878 162.637065 
L 292.102413 163.972165 
L 290.676007 165.307264 
L 290.37569 166.642363 
L 289.75355 165.307264 
L 288.770583 167.977463 
L 286.264539 167.977463 
L 286.094999 169.312562 
L 283.257348 169.312562 
L 282.670383 159.966867 
L 281.703551 161.301966 
L 281.701622 162.637065 
L 280.993433 163.972165 
L 280.257559 167.977463 
L 280.252855 170.647661 
L 279.000951 173.31786 
L 278.932989 177.323158 
L 278.597067 178.658257 
L 275.597244 181.328456 
L 275.367457 171.982761 
L 274.895656 173.31786 
L 274.895595 175.988059 
L 273.05617 175.988059 
L 272.995896 178.658257 
L 272.938502 171.982761 
L 272.422299 171.982761 
L 271.643185 173.31786 
L 271.427318 173.31786 
L 271.41518 174.652959 
L 270.228751 174.652959 
L 269.980112 175.988059 
L 269.900073 177.323158 
L 269.285409 177.323158 
L 269.285119 179.993357 
L 269.001335 179.993357 
L 268.887822 186.668853 
L 268.22201 186.668853 
L 267.621257 188.003953 
L 267.05294 188.003953 
L 266.983311 198.684748 
L 266.882043 202.690046 
L 265.050682 201.354946 
L 265.050655 181.328456 
L 263.552591 178.658257 
L 263.14461 179.993357 
L 261.399901 179.993357 
L 261.366538 181.328456 
L 259.617307 181.328456 
L 259.3426 182.663555 
L 259.064054 181.328456 
L 257.969282 182.663555 
L 257.553145 182.663555 
L 257.552971 183.998655 
L 256.843409 183.998655 
L 256.654584 188.003953 
L 256.95114 188.003953 
L 256.497163 193.34435 
L 254.868744 193.34435 
L 254.023156 194.67945 
L 254.529811 194.67945 
L 252.995902 196.014549 
L 252.724751 201.354946 
L 252.340009 202.690046 
L 250.977766 201.354946 
L 250.878145 202.690046 
L 250.868114 201.354946 
L 250.356171 201.354946 
L 250.351258 169.312562 
L 249.934115 150.621171 
L 249.8896 151.956271 
L 247.946531 151.956271 
L 247.924251 157.296668 
L 247.319435 158.631767 
L 247.003928 161.301966 
L 244.627899 161.301966 
L 244.332391 162.637065 
L 240.880952 162.637065 
L 241.946768 163.972165 
L 241.279459 163.972165 
L 241.142448 166.642363 
L 240.257448 167.977463 
L 239.99833 173.31786 
L 239.152641 175.988059 
L 239.152641 177.323158 
L 238.879816 178.658257 
L 238.813009 173.31786 
L 238.802453 174.652959 
L 237.448246 174.652959 
L 237.480492 174.652959 
L 236.289342 175.988059 
L 228.286324 175.988059 
L 228.254678 177.323158 
L 227.921748 181.328456 
L 227.238928 181.328456 
L 227.238835 179.993357 
L 227.238731 181.328456 
L 225.470424 181.328456 
L 225.289539 182.663555 
L 223.895757 182.663555 
L 223.57425 183.998655 
L 223.571413 192.009251 
L 223.236941 193.34435 
L 223.236887 196.014549 
L 222.314551 196.014549 
L 222.240001 197.349648 
L 221.905514 197.349648 
L 221.225446 198.684748 
L 220.527925 198.684748 
L 220.45484 201.354946 
L 217.834645 201.354946 
L 217.834587 200.019847 
L 217.207445 200.019847 
L 217.207329 202.690046 
L 216.147308 205.360244 
L 213.250054 205.360244 
L 213.246711 208.030443 
L 212.927743 208.030443 
L 212.617732 209.365542 
L 212.223547 209.365542 
L 212.216516 210.700642 
L 209.193101 210.700642 
L 208.9258 212.035741 
L 208.488846 213.37084 
L 207.210144 214.70594 
L 207.210144 214.70594 
L 206.579828 216.041039 
L 206.57972 217.376138 
L 204.122972 217.376138 
L 203.227864 218.711238 
L 201.919239 218.711238 
L 201.917318 220.046337 
L 199.543809 221.381436 
L 198.215501 222.716536 
L 196.877185 222.716536 
L 196.733297 224.051635 
L 195.842077 226.721834 
L 195.841555 228.056933 
L 192.854472 228.056933 
L 192.770777 230.727132 
L 192.453329 230.727132 
L 192.453228 233.39733 
L 192.101574 233.39733 
L 192.101482 232.062231 
L 191.888784 232.062231 
L 191.548549 233.39733 
L 191.548495 234.73243 
L 190.827565 236.067529 
L 190.827669 240.072827 
L 189.529813 240.072827 
L 187.514927 241.407926 
L 187.508944 244.078125 
L 186.537434 244.078125 
L 186.495274 245.413224 
L 186.244315 246.748324 
L 186.204706 250.753622 
L 185.816137 254.75892 
L 185.424669 256.094019 
L 185.385133 257.429118 
L 184.781817 257.429118 
L 184.216295 258.764218 
L 184.055143 258.764218 
L 183.470966 260.099317 
L 181.732763 260.099317 
L 181.706312 261.434416 
L 180.124432 261.434416 
L 180.124432 261.434416 
L 179.892322 262.769516 
L 179.89054 252.088721 
L 179.883729 253.42382 
L 179.103777 258.764218 
L 176.41439 258.764218 
L 176.359921 268.109913 
L 176.214572 270.780112 
L 175.057052 270.780112 
L 174.502376 272.115211 
L 173.013388 272.115211 
L 173.011018 273.45031 
L 172.873179 276.120509 
L 172.358383 277.455608 
L 172.344421 281.460906 
L 172.182655 281.460906 
L 172.15654 282.796006 
L 171.367377 282.796006 
L 170.37274 284.131105 
L 170.184352 284.131105 
L 170.171581 285.466204 
L 170.057603 286.801304 
L 167.42578 286.801304 
L 167.032441 288.136403 
L 166.815237 289.471502 
L 166.18019 290.806602 
L 166.037391 290.806602 
L 165.343133 292.141701 
L 165.197563 292.141701 
L 165.182163 296.146999 
L 165.017258 297.482099 
L 165.017173 298.817198 
L 164.773571 298.817198 
L 163.778683 306.827794 
L 163.693511 305.492695 
L 163.387045 305.492695 
L 163.341228 306.827794 
L 163.118712 308.162893 
L 162.018764 308.162893 
L 161.679801 310.833092 
L 160.765268 310.833092 
L 159.769012 309.497993 
L 159.752916 310.833092 
L 159.529341 310.833092 
L 159.192009 312.168191 
L 158.495571 305.492695 
L 156.526042 305.492695 
L 156.090319 306.827794 
L 156.087891 308.162893 
L 154.86782 308.162893 
L 154.866034 309.497993 
L 154.510546 309.497993 
L 154.321277 310.833092 
L 154.182425 310.833092 
L 154.176411 314.83839 
L 153.857838 314.83839 
L 153.857324 316.173489 
L 153.517765 316.173489 
L 153.509307 313.503291 
L 153.50693 314.83839 
L 151.803207 314.83839 
L 151.477216 316.173489 
L 151.468967 317.508589 
L 149.799574 317.508589 
L 149.0113 312.168191 
L 148.726604 316.173489 
L 148.405553 321.513887 
L 146.719913 321.513887 
L 146.396137 322.848986 
L 146.076265 322.848986 
L 146.076157 325.519185 
L 145.860997 325.519185 
L 145.843177 326.854284 
L 145.178087 326.854284 
L 145.074006 330.859582 
L 145.030678 330.859582 
L 145.030608 333.529781 
L 144.816967 334.86488 
L 144.795502 336.199979 
L 144.099203 336.199979 
L 143.987216 342.875476 
L 143.722787 342.875476 
L 143.668172 344.210575 
L 143.522876 345.545675 
L 143.337855 352.221171 
L 143.055278 353.556271 
L 140.827161 353.556271 
L 140.82459 356.226469 
L 138.375326 356.226469 
L 138.359412 358.896668 
L 137.153427 358.896668 
L 137.152124 352.221171 
L 135.371536 352.221171 
L 134.626547 353.556271 
L 132.279444 354.89137 
L 130.745558 354.89137 
L 129.736109 356.226469 
L 128.689262 356.226469 
L 128.448296 357.561569 
L 127.797706 358.896668 
L 127.659449 360.231767 
L 127.659221 362.901966 
L 126.713989 362.901966 
L 125.9342 365.572165 
L 124.615161 365.572165 
L 124.61496 366.907264 
L 121.381781 366.907264 
L 119.786949 368.242363 
L 118.638726 368.242363 
L 118.612085 369.577463 
L 118.089712 370.912562 
L 117.397151 370.912562 
L 117.286057 372.247661 
L 117.285895 369.577463 
L 117.272524 370.912562 
L 117.12385 372.247661 
L 117.12339 374.91786 
L 110.431097 374.91786 
L 110.314243 378.923158 
L 109.279966 378.923158 
L 106.908147 380.258257 
L 106.909979 381.593357 
L 106.907435 381.593357 
L 103.704852 381.593357 
L 103.602015 385.598655 
L 101.73246 385.598655 
L 101.652332 386.933754 
L 101.546113 388.268853 
L 101.322797 396.27945 
L 100.958232 396.27945 
L 100.551179 397.614549 
L 100.298195 397.614549 
L 100.211458 400.284748 
L 99.652541 401.619847 
L 98.302374 401.619847 
L 98.302239 404.290046 
L 96.962118 404.290046 
L 96.567526 405.625145 
L 96.545771 406.960244 
L 96.212908 406.960244 
L 95.71466 413.635741 
L 91.275307 413.635741 
L 91.210181 416.30594 
L 90.582884 416.30594 
L 89.942059 417.641039 
L 89.321743 417.641039 
L 88.889436 418.976138 
L 88.552336 418.976138 
L 88.308336 420.311238 
L 88.186233 422.981436 
L 87.840316 424.316536 
L 87.615279 428.321834 
L 83.19019 428.321834 
L 82.553431 429.656933 
L 80.681316 429.656933 
L 80.68125 430.992032 
L 79.544136 430.992032 
L 79.239452 432.327132 
L 79.005688 432.327132 
L 78.679449 434.99733 
L 77.002039 434.99733 
L 76.82471 436.33243 
L 75.819061 436.33243 
L 75.813862 437.667529 
L 75.667936 439.002628 
L 75.017238 439.002628 
L 74.946566 440.337728 
L 73.027319 441.672827 
L 72.676296 441.672827 
L 72.329261 443.007926 
L 72.329261 443.007926 
" clip-path="url(#pebb6d4d2a1)" style="fill: none; stroke: #ff7f0e; stroke-opacity: 0.8; stroke-width: 1.5; stroke-linecap: square"/>
   </g>
   <g id="line2d_35">
    <path d="M 579.601989 229.392032 
L 578.95129 230.727132 
L 578.586135 230.727132 
L 577.57597 225.386734 
L 574.584249 225.386734 
L 574.583684 226.721834 
L 571.303165 226.721834 
L 571.197827 229.392032 
L 571.197592 230.727132 
L 566.469491 230.727132 
L 566.469391 232.062231 
L 565.874699 232.062231 
L 565.244156 233.39733 
L 563.872241 233.39733 
L 562.996236 236.067529 
L 558.635093 236.067529 
L 558.635267 236.067529 
L 555.579881 237.402628 
L 552.871928 237.402628 
L 549.572414 238.737728 
L 550.103835 238.737728 
L 546.184284 240.072827 
L 544.543518 241.407926 
L 541.854482 241.407926 
L 540.424671 242.743026 
L 537.553656 242.743026 
L 537.542237 240.072827 
L 535.153255 240.072827 
L 535.152981 241.407926 
L 535.152946 240.072827 
L 534.173423 241.407926 
L 533.236622 241.407926 
L 532.545058 242.743026 
L 529.864677 241.407926 
L 528.917369 242.743026 
L 527.12072 244.078125 
L 526.390215 245.413224 
L 525.556031 245.413224 
L 525.555984 246.748324 
L 525.175459 246.748324 
L 525.175201 248.083423 
L 522.84064 248.083423 
L 522.237302 249.418522 
L 520.157209 249.418522 
L 520.138187 248.083423 
L 520.135694 250.753622 
L 519.806673 250.753622 
L 519.77634 252.088721 
L 517.383102 252.088721 
L 517.382897 250.753622 
L 516.144535 250.753622 
L 516.143769 252.088721 
L 514.785995 252.088721 
L 514.185126 253.42382 
L 512.689954 253.42382 
L 512.689872 254.75892 
L 510.744221 254.75892 
L 509.88166 256.094019 
L 509.539833 256.094019 
L 508.701554 257.429118 
L 508.69225 258.764218 
L 507.532353 258.764218 
L 507.365353 260.099317 
L 503.198195 260.099317 
L 503.183626 257.429118 
L 502.85387 257.429118 
L 502.173991 258.764218 
L 499.785921 258.764218 
L 499.785674 257.429118 
L 498.762479 257.429118 
L 499.139715 257.429118 
L 498.681679 258.764218 
L 498.666167 252.088721 
L 498.350586 252.088721 
L 497.484187 253.42382 
L 493.441767 253.42382 
L 488.99708 254.75892 
L 488.068006 254.75892 
L 487.458312 256.094019 
L 481.086145 256.094019 
L 480.012526 257.429118 
L 478.427307 257.429118 
L 476.389294 258.764218 
L 475.40136 260.099317 
L 474.7237 261.434416 
L 470.931856 262.769516 
L 463.432432 262.769516 
L 463.432374 264.104615 
L 463.233727 264.104615 
L 461.032878 265.439714 
L 460.369462 265.439714 
L 459.68467 266.774814 
L 457.341695 268.109913 
L 456.24794 268.109913 
L 456.697038 268.109913 
L 456.045427 269.445012 
L 455.673171 269.445012 
L 455.063168 270.780112 
L 448.587963 270.780112 
L 448.58094 272.115211 
L 448.246754 272.115211 
L 448.238115 241.407926 
L 447.238708 241.407926 
L 447.226172 242.743026 
L 443.982228 242.743026 
L 442.213767 244.078125 
L 439.963095 244.078125 
L 438.643101 242.743026 
L 430.29245 242.743026 
L 428.947068 244.078125 
L 427.611477 244.078125 
L 426.193985 245.413224 
L 424.632574 245.413224 
L 424.609377 246.748324 
L 423.909626 246.748324 
L 423.843368 248.083423 
L 423.502897 248.083423 
L 423.490736 249.418522 
L 422.298292 250.753622 
L 420.839319 250.753622 
L 420.681078 248.083423 
L 417.281908 248.083423 
L 416.664909 249.418522 
L 415.629314 249.418522 
L 415.629252 250.753622 
L 414.952307 250.753622 
L 414.586089 252.088721 
L 412.274292 252.088721 
L 411.924138 250.753622 
L 411.914927 252.088721 
L 410.978833 252.088721 
L 410.652633 250.753622 
L 409.517788 250.753622 
L 409.479644 253.42382 
L 403.585207 253.42382 
L 402.84493 254.75892 
L 389.957933 254.75892 
L 388.989272 256.094019 
L 388.182645 257.429118 
L 386.824862 257.429118 
L 386.8248 258.764218 
L 383.938861 258.764218 
L 383.251862 260.099317 
L 377.888905 260.099317 
L 377.879732 257.429118 
L 375.205095 257.429118 
L 374.212553 253.42382 
L 373.896184 254.75892 
L 373.881147 256.094019 
L 372.558842 257.429118 
L 372.516859 258.764218 
L 372.258754 258.764218 
L 372.203895 236.067529 
L 372.203806 237.402628 
L 369.746679 237.402628 
L 369.523715 238.737728 
L 367.897421 238.737728 
L 367.890603 240.072827 
L 367.465922 241.407926 
L 367.202112 241.407926 
L 366.205334 240.072827 
L 365.163817 240.072827 
L 365.066503 238.737728 
L 364.174657 238.737728 
L 364.174333 240.072827 
L 363.19667 241.407926 
L 360.203579 241.407926 
L 358.134283 242.743026 
L 360.203634 244.078125 
L 356.194674 244.078125 
L 354.858635 242.743026 
L 353.135735 242.743026 
L 353.13536 246.748324 
L 349.857165 246.748324 
L 348.68954 248.083423 
L 346.369282 248.083423 
L 346.342688 249.418522 
L 341.420046 249.418522 
L 340.340454 250.753622 
L 338.17681 250.753622 
L 338.176744 252.088721 
L 336.350969 252.088721 
L 335.342189 254.75892 
L 335.342776 254.75892 
L 330.321352 254.75892 
L 330.819453 256.094019 
L 329.66731 257.429118 
L 329.021228 257.429118 
L 328.861421 258.764218 
L 326.186579 258.764218 
L 326.175717 260.099317 
L 325.996417 261.434416 
L 325.674508 262.769516 
L 323.667628 262.769516 
L 323.492758 264.104615 
L 319.474278 265.439714 
L 319.474061 266.774814 
L 319.290559 268.109913 
L 318.465381 268.109913 
L 317.989518 269.445012 
L 317.654343 269.445012 
L 317.642484 270.780112 
L 316.95547 270.780112 
L 316.628744 272.115211 
L 316.384647 272.115211 
L 316.3513 274.78541 
L 315.7787 274.78541 
L 315.759179 276.120509 
L 314.436588 276.120509 
L 314.308069 277.455608 
L 313.821321 277.455608 
L 313.472786 278.790708 
L 312.779371 278.790708 
L 311.712983 280.125807 
L 311.062985 280.125807 
L 311.031357 276.120509 
L 310.654821 276.120509 
L 310.624099 277.455608 
L 310.415985 277.455608 
L 310.337938 274.78541 
L 310.05434 276.120509 
L 310.011777 274.78541 
L 308.299368 274.78541 
L 307.972148 277.455608 
L 307.634163 277.455608 
L 305.015629 278.790708 
L 304.415368 278.790708 
L 304.385221 280.125807 
L 303.964016 281.460906 
L 301.392896 281.460906 
L 300.997416 282.796006 
L 299.801519 284.131105 
L 298.922406 284.131105 
L 298.922341 285.466204 
L 298.719972 286.801304 
L 295.707117 286.801304 
L 293.323945 288.136403 
L 292.237878 288.136403 
L 292.102413 289.471502 
L 290.676007 290.806602 
L 290.37569 290.806602 
L 289.75355 289.471502 
L 288.770583 290.806602 
L 286.264539 290.806602 
L 286.094999 292.141701 
L 283.257348 292.141701 
L 282.670383 290.806602 
L 281.703551 292.141701 
L 281.701622 293.4768 
L 280.257559 296.146999 
L 280.252855 297.482099 
L 279.000951 298.817198 
L 278.932989 300.152297 
L 278.597067 300.152297 
L 275.597244 301.487397 
L 275.367457 292.141701 
L 274.895595 293.4768 
L 273.683715 293.4768 
L 273.659691 292.141701 
L 273.05617 292.141701 
L 272.938502 293.4768 
L 272.422299 293.4768 
L 271.643185 294.8119 
L 270.228751 294.8119 
L 269.980112 296.146999 
L 269.900073 297.482099 
L 269.285212 297.482099 
L 269.285119 298.817198 
L 269.001335 298.817198 
L 268.887822 300.152297 
L 267.05294 300.152297 
L 266.983311 302.822496 
L 266.882043 305.492695 
L 265.050682 305.492695 
L 265.050655 301.487397 
L 263.552591 301.487397 
L 263.14461 302.822496 
L 261.399901 302.822496 
L 261.366538 304.157595 
L 259.617307 304.157595 
L 259.3426 305.492695 
L 257.553145 305.492695 
L 257.552971 306.827794 
L 256.654584 306.827794 
L 256.95114 306.827794 
L 256.622381 308.162893 
L 256.497163 309.497993 
L 254.868744 309.497993 
L 254.023156 310.833092 
L 254.529811 310.833092 
L 252.995902 312.168191 
L 252.860046 313.503291 
L 252.724751 313.503291 
L 252.340009 314.83839 
L 250.977766 313.503291 
L 250.878145 314.83839 
L 250.868114 313.503291 
L 250.356171 313.503291 
L 250.351258 292.141701 
L 249.934115 286.801304 
L 249.8896 288.136403 
L 247.946531 288.136403 
L 247.924251 289.471502 
L 247.319435 290.806602 
L 247.003928 292.141701 
L 240.880952 292.141701 
L 241.946768 293.4768 
L 241.279459 293.4768 
L 241.142448 294.8119 
L 240.214402 296.146999 
L 240.173567 297.482099 
L 239.588118 297.482099 
L 239.152641 298.817198 
L 239.152641 300.152297 
L 238.879816 301.487397 
L 238.813009 296.146999 
L 238.802453 297.482099 
L 237.448246 297.482099 
L 237.480492 297.482099 
L 236.289342 298.817198 
L 228.286324 298.817198 
L 228.254678 300.152297 
L 225.470424 300.152297 
L 225.289539 301.487397 
L 223.895757 301.487397 
L 223.57425 302.822496 
L 223.571413 304.157595 
L 222.314551 304.157595 
L 222.240001 305.492695 
L 221.905514 305.492695 
L 221.225446 306.827794 
L 220.527925 306.827794 
L 220.45484 309.497993 
L 217.834645 309.497993 
L 217.834587 308.162893 
L 217.207445 308.162893 
L 217.207329 309.497993 
L 216.147308 310.833092 
L 212.223547 310.833092 
L 212.216516 312.168191 
L 209.193101 312.168191 
L 208.9258 313.503291 
L 208.488846 314.83839 
L 207.210144 316.173489 
L 207.210144 316.173489 
L 206.579828 317.508589 
L 206.57972 318.843688 
L 204.122972 318.843688 
L 203.227864 320.178787 
L 201.919239 320.178787 
L 201.917318 321.513887 
L 199.543809 322.848986 
L 198.215501 324.184085 
L 196.877185 324.184085 
L 196.733297 325.519185 
L 195.842077 326.854284 
L 195.841555 328.189383 
L 192.453329 328.189383 
L 192.453228 330.859582 
L 191.888784 330.859582 
L 191.548549 332.194681 
L 191.548495 333.529781 
L 190.827565 334.86488 
L 190.827669 338.870178 
L 189.529813 338.870178 
L 187.514927 340.205277 
L 187.508944 341.540377 
L 186.537434 341.540377 
L 186.52048 342.875476 
L 186.495274 341.540377 
L 186.244315 341.540377 
L 186.204706 344.210575 
L 185.424669 344.210575 
L 185.385133 345.545675 
L 184.781817 345.545675 
L 184.216295 346.880774 
L 180.124432 346.880774 
L 180.124432 346.880774 
L 179.892322 348.215873 
L 179.89054 337.535079 
L 179.883729 338.870178 
L 179.103777 340.205277 
L 176.41439 340.205277 
L 176.359921 344.210575 
L 176.214572 345.545675 
L 173.013388 345.545675 
L 173.011018 346.880774 
L 172.873179 348.215873 
L 172.358383 349.550973 
L 172.344421 352.221171 
L 172.182655 352.221171 
L 172.15654 353.556271 
L 171.367377 353.556271 
L 170.37274 354.89137 
L 170.184352 354.89137 
L 170.171581 356.226469 
L 170.057603 357.561569 
L 167.42578 357.561569 
L 167.032441 358.896668 
L 166.815237 358.896668 
L 166.18019 360.231767 
L 166.037391 360.231767 
L 165.343133 361.566867 
L 165.182163 361.566867 
L 165.017258 362.901966 
L 165.017173 364.237065 
L 164.773571 364.237065 
L 163.778683 365.572165 
L 163.693511 364.237065 
L 163.387045 364.237065 
L 163.341228 365.572165 
L 163.118712 366.907264 
L 162.018764 366.907264 
L 161.679801 365.572165 
L 159.769012 365.572165 
L 159.752916 366.907264 
L 159.529341 366.907264 
L 159.192009 368.242363 
L 158.495571 364.237065 
L 156.526042 364.237065 
L 156.087891 365.572165 
L 154.510546 365.572165 
L 154.321277 366.907264 
L 154.182425 366.907264 
L 154.176411 368.242363 
L 153.857838 368.242363 
L 153.857324 369.577463 
L 151.477216 369.577463 
L 151.468967 370.912562 
L 146.076265 370.912562 
L 146.076157 372.247661 
L 145.111404 372.247661 
L 145.030608 373.582761 
L 144.795502 374.91786 
L 144.099203 374.91786 
L 143.987216 377.588059 
L 143.722787 377.588059 
L 143.668172 378.923158 
L 143.353588 378.923158 
L 143.337855 380.258257 
L 143.055278 381.593357 
L 140.824679 381.593357 
L 140.82459 382.928456 
L 138.375326 382.928456 
L 138.359412 384.263555 
L 137.153427 384.263555 
L 137.152124 380.258257 
L 135.371536 380.258257 
L 134.626547 381.593357 
L 130.745558 381.593357 
L 129.736109 382.928456 
L 128.689262 382.928456 
L 128.448296 384.263555 
L 127.797706 385.598655 
L 127.659449 385.598655 
L 127.659221 388.268853 
L 126.713989 388.268853 
L 125.9342 389.603953 
L 124.615161 389.603953 
L 124.61496 390.939052 
L 121.381781 390.939052 
L 119.786949 392.274151 
L 118.638726 392.274151 
L 118.612085 393.609251 
L 117.397151 393.609251 
L 117.12385 397.614549 
L 117.12339 400.284748 
L 110.338808 400.284748 
L 110.314243 401.619847 
L 109.279966 401.619847 
L 106.907435 402.954946 
L 103.704852 402.954946 
L 103.39413 405.625145 
L 103.404671 405.625145 
L 101.73246 405.625145 
L 101.652332 406.960244 
L 101.348885 409.630443 
L 100.958232 409.630443 
L 100.551179 410.965542 
L 100.298195 410.965542 
L 100.211458 412.300642 
L 99.652541 413.635741 
L 98.302374 413.635741 
L 98.302239 414.97084 
L 96.962118 414.97084 
L 96.567526 416.30594 
L 96.545771 417.641039 
L 96.212908 417.641039 
L 96.007052 418.976138 
L 95.983608 420.311238 
L 95.725321 421.646337 
L 95.71466 422.981436 
L 91.241689 422.981436 
L 91.210181 424.316536 
L 90.582884 424.316536 
L 89.942059 425.651635 
L 89.321743 425.651635 
L 88.889436 426.986734 
L 88.308336 426.986734 
L 88.186233 429.656933 
L 87.840316 429.656933 
L 87.615279 430.992032 
L 83.19019 430.992032 
L 82.553431 432.327132 
L 80.681316 432.327132 
L 80.68125 433.662231 
L 79.544136 433.662231 
L 79.239452 434.99733 
L 79.005688 434.99733 
L 78.679449 436.33243 
L 77.002039 436.33243 
L 76.82471 437.667529 
L 75.813862 437.667529 
L 75.667936 439.002628 
L 75.017238 439.002628 
L 74.946566 440.337728 
L 73.027319 441.672827 
L 72.676296 441.672827 
L 72.329261 443.007926 
L 72.329261 443.007926 
" clip-path="url(#pebb6d4d2a1)" style="fill: none; stroke: #2ca02c; stroke-opacity: 0.8; stroke-width: 1.5; stroke-linecap: square"/>
   </g>
   <g id="patch_3">
    <path d="M 46.965625 465.838125 
L 46.965625 22.318125 
" style="fill: none; stroke: #000000; stroke-width: 0.8; stroke-linejoin: miter; stroke-linecap: square"/>
   </g>
   <g id="patch_4">
    <path d="M 604.965625 465.838125 
L 604.965625 22.318125 
" style="fill: none; stroke: #000000; stroke-width: 0.8; stroke-linejoin: miter; stroke-linecap: square"/>
   </g>
   <g id="patch_5">
    <path d="M 46.965625 465.838125 
L 604.965625 465.838125 
" style="fill: none; stroke: #000000; stroke-width: 0.8; stroke-linejoin: miter; stroke-linecap: square"/>
   </g>
   <g id="patch_6">
    <path d="M 46.965625 22.318125 
L 604.965625 22.318125 
" style="fill: none; stroke: #000000; stroke-width: 0.8; stroke-linejoin: miter; stroke-linecap: square"/>
   </g>
   <g id="text_19">
    <!-- 16 -->
    <g transform="translate(579.601989 425.651635) scale(0.1 -0.1)">
     <defs>
      <path id="DejaVuSans-36" d="M 2113 2584 
Q 1688 2584 1439 2293 
Q 1191 2003 1191 1497 
Q 1191 994 1439 701 
Q 1688 409 2113 409 
Q 2538 409 2786 701 
Q 3034 994 3034 1497 
Q 3034 2003 2786 2293 
Q 2538 2584 2113 2584 
z
M 3366 4563 
L 3366 3988 
Q 3128 4100 2886 4159 
Q 2644 4219 2406 4219 
Q 1781 4219 1451 3797 
Q 1122 3375 1075 2522 
Q 1259 2794 1537 2939 
Q 1816 3084 2150 3084 
Q 2853 3084 3261 2657 
Q 3669 2231 3669 1497 
Q 3669 778 3244 343 
Q 2819 -91 2113 -91 
Q 1303 -91 875 529 
Q 447 1150 447 2328 
Q 447 3434 972 4092 
Q 1497 4750 2381 4750 
Q 2619 4750 2861 4703 
Q 3103 4656 3366 4563 
z
" transform="scale(0.015625)"/>
     </defs>
     <use xlink:href="#DejaVuSans-31"/>
     <use xlink:href="#DejaVuSans-36" x="63.623047"/>
    </g>
   </g>
   <g id="text_20">
    <!-- 293 -->
    <g transform="translate(579.601989 55.829118) scale(0.1 -0.1)">
     <defs>
      <path id="DejaVuSans-39" d="M 703 97 
L 703 672 
Q 941 559 1184 500 
Q 1428 441 1663 441 
Q 2288 441 2617 861 
Q 2947 1281 2994 2138 
Q 2813 1869 2534 1725 
Q 2256 1581 1919 1581 
Q 1219 1581 811 2004 
Q 403 2428 403 3163 
Q 403 3881 828 4315 
Q 1253 4750 1959 4750 
Q 2769 4750 3195 4129 
Q 3622 3509 3622 2328 
Q 3622 1225 3098 567 
Q 2575 -91 1691 -91 
Q 1453 -91 1209 -44 
Q 966 3 703 97 
z
M 1959 2075 
Q 2384 2075 2632 2365 
Q 2881 2656 2881 3163 
Q 2881 3666 2632 3958 
Q 2384 4250 1959 4250 
Q 1534 4250 1286 3958 
Q 1038 3666 1038 3163 
Q 1038 2656 1286 2365 
Q 1534 2075 1959 2075 
z
" transform="scale(0.015625)"/>
     </defs>
     <use xlink:href="#DejaVuSans-32"/>
     <use xlink:href="#DejaVuSans-39" x="63.623047"/>
     <use xlink:href="#DejaVuSans-33" x="127.246094"/>
    </g>
   </g>
   <g id="text_21">
    <!-- 163 -->
    <g transform="translate(579.601989 229.392032) scale(0.1 -0.1)">
     <use xlink:href="#DejaVuSans-31"/>
     <use xlink:href="#DejaVuSans-36" x="63.623047"/>
     <use xlink:href="#DejaVuSans-33" x="127.246094"/>
    </g>
   </g>
   <g id="text_22">
    <!-- Peers over time -->
    <g transform="translate(278.839375 16.318125) scale(0.12 -0.12)">
     <defs>
      <path id="DejaVuSans-50" d="M 1259 4147 
L 1259 2394 
L 2053 2394 
Q 2494 2394 2734 2622 
Q 2975 2850 2975 3272 
Q 2975 3691 2734 3919 
Q 2494 4147 2053 4147 
L 1259 4147 
z
M 628 4666 
L 2053 4666 
Q 2838 4666 3239 4311 
Q 3641 3956 3641 3272 
Q 3641 2581 3239 2228 
Q 2838 1875 2053 1875 
L 1259 1875 
L 1259 0 
L 628 0 
L 628 4666 
z
" transform="scale(0.015625)"/>
      <path id="DejaVuSans-72" d="M 2631 2963 
Q 2534 3019 2420 3045 
Q 2306 3072 2169 3072 
Q 1681 3072 1420 2755 
Q 1159 2438 1159 1844 
L 1159 0 
L 581 0 
L 581 3500 
L 1159 3500 
L 1159 2956 
Q 1341 3275 1631 3429 
Q 1922 3584 2338 3584 
Q 2397 3584 2469 3576 
Q 2541 3569 2628 3553 
L 2631 2963 
z
" transform="scale(0.015625)"/>
      <path id="DejaVuSans-73" d="M 2834 3397 
L 2834 2853 
Q 2591 2978 2328 3040 
Q 2066 3103 1784 3103 
Q 1356 3103 1142 2972 
Q 928 2841 928 2578 
Q 928 2378 1081 2264 
Q 1234 2150 1697 2047 
L 1894 2003 
Q 2506 1872 2764 1633 
Q 3022 1394 3022 966 
Q 3022 478 2636 193 
Q 2250 -91 1575 -91 
Q 1294 -91 989 -36 
Q 684 19 347 128 
L 347 722 
Q 666 556 975 473 
Q 1284 391 1588 391 
Q 1994 391 2212 530 
Q 2431 669 2431 922 
Q 2431 1156 2273 1281 
Q 2116 1406 1581 1522 
L 1381 1569 
Q 847 1681 609 1914 
Q 372 2147 372 2553 
Q 372 3047 722 3315 
Q 1072 3584 1716 3584 
Q 2034 3584 2315 3537 
Q 2597 3491 2834 3397 
z
" transform="scale(0.015625)"/>
      <path id="DejaVuSans-20" transform="scale(0.015625)"/>
      <path id="DejaVuSans-76" d="M 191 3500 
L 800 3500 
L 1894 563 
L 2988 3500 
L 3597 3500 
L 2284 0 
L 1503 0 
L 191 3500 
z
" transform="scale(0.015625)"/>
      <path id="DejaVuSans-69" d="M 603 3500 
L 1178 3500 
L 1178 0 
L 603 0 
L 603 3500 
z
M 603 4863 
L 1178 4863 
L 1178 4134 
L 603 4134 
L 603 4863 
z
" transform="scale(0.015625)"/>
      <path id="DejaVuSans-6d" d="M 3328 2828 
Q 3544 3216 3844 3400 
Q 4144 3584 4550 3584 
Q 5097 3584 5394 3201 
Q 5691 2819 5691 2113 
L 5691 0 
L 5113 0 
L 5113 2094 
Q 5113 2597 4934 2840 
Q 4756 3084 4391 3084 
Q 3944 3084 3684 2787 
Q 3425 2491 3425 1978 
L 3425 0 
L 2847 0 
L 2847 2094 
Q 2847 2600 2669 2842 
Q 2491 3084 2119 3084 
Q 1678 3084 1418 2786 
Q 1159 2488 1159 1978 
L 1159 0 
L 581 0 
L 581 3500 
L 1159 3500 
L 1159 2956 
Q 1356 3278 1631 3431 
Q 1906 3584 2284 3584 
Q 2666 3584 2933 3390 
Q 3200 3197 3328 2828 
z
" transform="scale(0.015625)"/>
     </defs>
     <use xlink:href="#DejaVuSans-50"/>
     <use xlink:href="#DejaVuSans-65" x="56.677734"/>
     <use xlink:href="#DejaVuSans-65" x="118.201172"/>
     <use xlink:href="#DejaVuSans-72" x="179.724609"/>
     <use xlink:href="#DejaVuSans-73" x="220.837891"/>
     <use xlink:href="#DejaVuSans-20" x="272.9375"/>
     <use xlink:href="#DejaVuSans-6f" x="304.724609"/>
     <use xlink:href="#DejaVuSans-76" x="365.90625"/>
     <use xlink:href="#DejaVuSans-65" x="425.085938"/>
     <use xlink:href="#DejaVuSans-72" x="486.609375"/>
     <use xlink:href="#DejaVuSans-20" x="527.722656"/>
     <use xlink:href="#DejaVuSans-74" x="559.509766"/>
     <use xlink:href="#DejaVuSans-69" x="598.71875"/>
     <use xlink:href="#DejaVuSans-6d" x="626.501953"/>
     <use xlink:href="#DejaVuSans-65" x="723.914062"/>
    </g>
   </g>
   <g id="legend_1">
    <g id="patch_7">
     <path d="M 53.965625 74.3525 
L 184.029688 74.3525 
Q 186.029688 74.3525 186.029688 72.3525 
L 186.029688 29.318125 
Q 186.029688 27.318125 184.029688 27.318125 
L 53.965625 27.318125 
Q 51.965625 27.318125 51.965625 29.318125 
L 51.965625 72.3525 
Q 51.965625 74.3525 53.965625 74.3525 
z
" style="fill: #ffffff; opacity: 0.8; stroke: #cccccc; stroke-linejoin: miter"/>
    </g>
    <g id="line2d_36">
     <path d="M 55.965625 35.416562 
L 65.965625 35.416562 
L 75.965625 35.416562 
" style="fill: none; stroke: #1f77b4; stroke-opacity: 0.8; stroke-width: 1.5; stroke-linecap: square"/>
    </g>
    <g id="text_23">
     <!-- eBGP routers -->
     <g transform="translate(83.965625 38.916562) scale(0.1 -0.1)">
      <defs>
       <path id="DejaVuSans-42" d="M 1259 2228 
L 1259 519 
L 2272 519 
Q 2781 519 3026 730 
Q 3272 941 3272 1375 
Q 3272 1813 3026 2020 
Q 2781 2228 2272 2228 
L 1259 2228 
z
M 1259 4147 
L 1259 2741 
L 2194 2741 
Q 2656 2741 2882 2914 
Q 3109 3088 3109 3444 
Q 3109 3797 2882 3972 
Q 2656 4147 2194 4147 
L 1259 4147 
z
M 628 4666 
L 2241 4666 
Q 2963 4666 3353 4366 
Q 3744 4066 3744 3513 
Q 3744 3084 3544 2831 
Q 3344 2578 2956 2516 
Q 3422 2416 3680 2098 
Q 3938 1781 3938 1306 
Q 3938 681 3513 340 
Q 3088 0 2303 0 
L 628 0 
L 628 4666 
z
" transform="scale(0.015625)"/>
       <path id="DejaVuSans-47" d="M 3809 666 
L 3809 1919 
L 2778 1919 
L 2778 2438 
L 4434 2438 
L 4434 434 
Q 4069 175 3628 42 
Q 3188 -91 2688 -91 
Q 1594 -91 976 548 
Q 359 1188 359 2328 
Q 359 3472 976 4111 
Q 1594 4750 2688 4750 
Q 3144 4750 3555 4637 
Q 3966 4525 4313 4306 
L 4313 3634 
Q 3963 3931 3569 4081 
Q 3175 4231 2741 4231 
Q 1884 4231 1454 3753 
Q 1025 3275 1025 2328 
Q 1025 1384 1454 906 
Q 1884 428 2741 428 
Q 3075 428 3337 486 
Q 3600 544 3809 666 
z
" transform="scale(0.015625)"/>
      </defs>
      <use xlink:href="#DejaVuSans-65"/>
      <use xlink:href="#DejaVuSans-42" x="61.523438"/>
      <use xlink:href="#DejaVuSans-47" x="128.376953"/>
      <use xlink:href="#DejaVuSans-50" x="205.867188"/>
      <use xlink:href="#DejaVuSans-20" x="266.169922"/>
      <use xlink:href="#DejaVuSans-72" x="297.957031"/>
      <use xlink:href="#DejaVuSans-6f" x="336.820312"/>
      <use xlink:href="#DejaVuSans-75" x="398.001953"/>
      <use xlink:href="#DejaVuSans-74" x="461.380859"/>
      <use xlink:href="#DejaVuSans-65" x="500.589844"/>
      <use xlink:href="#DejaVuSans-72" x="562.113281"/>
      <use xlink:href="#DejaVuSans-73" x="603.226562"/>
     </g>
    </g>
    <g id="line2d_37">
     <path d="M 55.965625 50.094687 
L 65.965625 50.094687 
L 75.965625 50.094687 
" style="fill: none; stroke: #ff7f0e; stroke-opacity: 0.8; stroke-width: 1.5; stroke-linecap: square"/>
    </g>
    <g id="text_24">
     <!-- total eBGP sessions -->
     <g transform="translate(83.965625 53.594687) scale(0.1 -0.1)">
      <defs>
       <path id="DejaVuSans-6c" d="M 603 4863 
L 1178 4863 
L 1178 0 
L 603 0 
L 603 4863 
z
" transform="scale(0.015625)"/>
      </defs>
      <use xlink:href="#DejaVuSans-74"/>
      <use xlink:href="#DejaVuSans-6f" x="39.208984"/>
      <use xlink:href="#DejaVuSans-74" x="100.390625"/>
      <use xlink:href="#DejaVuSans-61" x="139.599609"/>
      <use xlink:href="#DejaVuSans-6c" x="200.878906"/>
      <use xlink:href="#DejaVuSans-20" x="228.662109"/>
      <use xlink:href="#DejaVuSans-65" x="260.449219"/>
      <use xlink:href="#DejaVuSans-42" x="321.972656"/>
      <use xlink:href="#DejaVuSans-47" x="388.826172"/>
      <use xlink:href="#DejaVuSans-50" x="466.316406"/>
      <use xlink:href="#DejaVuSans-20" x="526.619141"/>
      <use xlink:href="#DejaVuSans-73" x="558.40625"/>
      <use xlink:href="#DejaVuSans-65" x="610.505859"/>
      <use xlink:href="#DejaVuSans-73" x="672.029297"/>
      <use xlink:href="#DejaVuSans-73" x="724.128906"/>
      <use xlink:href="#DejaVuSans-69" x="776.228516"/>
      <use xlink:href="#DejaVuSans-6f" x="804.011719"/>
      <use xlink:href="#DejaVuSans-6e" x="865.193359"/>
      <use xlink:href="#DejaVuSans-73" x="928.572266"/>
     </g>
    </g>
    <g id="line2d_38">
     <path d="M 55.965625 64.772812 
L 65.965625 64.772812 
L 75.965625 64.772812 
" style="fill: none; stroke: #2ca02c; stroke-opacity: 0.8; stroke-width: 1.5; stroke-linecap: square"/>
    </g>
    <g id="text_25">
     <!-- unique eBGP peers -->
     <g transform="translate(83.965625 68.272812) scale(0.1 -0.1)">
      <defs>
       <path id="DejaVuSans-71" d="M 947 1747 
Q 947 1113 1208 752 
Q 1469 391 1925 391 
Q 2381 391 2643 752 
Q 2906 1113 2906 1747 
Q 2906 2381 2643 2742 
Q 2381 3103 1925 3103 
Q 1469 3103 1208 2742 
Q 947 2381 947 1747 
z
M 2906 525 
Q 2725 213 2448 61 
Q 2172 -91 1784 -91 
Q 1150 -91 751 415 
Q 353 922 353 1747 
Q 353 2572 751 3078 
Q 1150 3584 1784 3584 
Q 2172 3584 2448 3432 
Q 2725 3281 2906 2969 
L 2906 3500 
L 3481 3500 
L 3481 -1331 
L 2906 -1331 
L 2906 525 
z
" transform="scale(0.015625)"/>
       <path id="DejaVuSans-70" d="M 1159 525 
L 1159 -1331 
L 581 -1331 
L 581 3500 
L 1159 3500 
L 1159 2969 
Q 1341 3281 1617 3432 
Q 1894 3584 2278 3584 
Q 2916 3584 3314 3078 
Q 3713 2572 3713 1747 
Q 3713 922 3314 415 
Q 2916 -91 2278 -91 
Q 1894 -91 1617 61 
Q 1341 213 1159 525 
z
M 3116 1747 
Q 3116 2381 2855 2742 
Q 2594 3103 2138 3103 
Q 1681 3103 1420 2742 
Q 1159 2381 1159 1747 
Q 1159 1113 1420 752 
Q 1681 391 2138 391 
Q 2594 391 2855 752 
Q 3116 1113 3116 1747 
z
" transform="scale(0.015625)"/>
      </defs>
      <use xlink:href="#DejaVuSans-75"/>
      <use xlink:href="#DejaVuSans-6e" x="63.378906"/>
      <use xlink:href="#DejaVuSans-69" x="126.757812"/>
      <use xlink:href="#DejaVuSans-71" x="154.541016"/>
      <use xlink:href="#DejaVuSans-75" x="218.017578"/>
      <use xlink:href="#DejaVuSans-65" x="281.396484"/>
      <use xlink:href="#DejaVuSans-20" x="342.919922"/>
      <use xlink:href="#DejaVuSans-65" x="374.707031"/>
      <use xlink:href="#DejaVuSans-42" x="436.230469"/>
      <use xlink:href="#DejaVuSans-47" x="503.083984"/>
      <use xlink:href="#DejaVuSans-50" x="580.574219"/>
      <use xlink:href="#DejaVuSans-20" x="640.876953"/>
      <use xlink:href="#DejaVuSans-70" x="672.664062"/>
      <use xlink:href="#DejaVuSans-65" x="736.140625"/>
      <use xlink:href="#DejaVuSans-65" x="797.664062"/>
      <use xlink:href="#DejaVuSans-72" x="859.1875"/>
      <use xlink:href="#DejaVuSans-73" x="900.300781"/>
     </g>
    </g>
   </g>
  </g>
 </g>
 <defs>
  <clipPath id="pebb6d4d2a1">
   <rect x="46.965625" y="22.318125" width="558" height="443.52"/>
  </clipPath>
 </defs>
</svg>
